<svg version="1.1" viewBox="0.0 0.0 551.8897637795276 401.4409448818898" fill="none" stroke="none" stroke-linecap="square" stroke-miterlimit="10" xmlns:xlink="http://www.w3.org/1999/xlink" xmlns="http://www.w3.org/2000/svg"><clipPath id="p.0"><path d="m0 0l551.8898 0l0 401.44095l-551.8898 0l0 -401.44095z" clip-rule="nonzero"/></clipPath><g clip-path="url(#p.0)"><path fill="#000000" fill-opacity="0.0" d="m0 0l551.8898 0l0 401.44095l-551.8898 0z" fill-rule="evenodd"/><path fill="#cfe2f3" d="m350.96783 107.6811l120.94562 0l0 42.19686l-120.94562 0z" fill-rule="evenodd"/><path stroke="#000000" stroke-width="2.0" stroke-linejoin="round" stroke-linecap="butt" d="m350.96783 107.6811l120.94562 0l0 42.19686l-120.94562 0z" fill-rule="evenodd"/><path fill="#000000" d="m363.25314 123.1864l4.234375 0q1.421875 0 2.171875 0.21875q1.015625 0.296875 1.734375 1.0625q0.71875 0.75 1.09375 1.84375q0.375 1.09375 0.375 2.703125q0 1.421875 -0.359375 2.4375q-0.421875 1.25 -1.21875 2.03125q-0.609375 0.578125 -1.625 0.90625q-0.765625 0.25 -2.046875 0.25l-4.359375 0l0 -11.453125zm2.3125 1.9375l0 7.578125l1.734375 0q0.96875 0 1.390625 -0.109375q0.5625 -0.140625 0.9375 -0.46875q0.375 -0.34375 0.609375 -1.109375q0.234375 -0.765625 0.234375 -2.09375q0 -1.328125 -0.234375 -2.03125q-0.234375 -0.71875 -0.65625 -1.109375q-0.421875 -0.40625 -1.078125 -0.546875q-0.484375 -0.109375 -1.890625 -0.109375l-1.046875 0zm9.2578125 9.515625l0 -11.453125l8.484375 0l0 1.9375l-6.171875 0l0 2.53125l5.75 0l0 1.9375l-5.75 0l0 3.109375l6.390625 0l0 1.9375l-8.703125 0zm13.59375 0l-4.109375 -11.453125l2.515625 0l2.90625 8.46875l2.796875 -8.46875l2.453125 0l-4.09375 11.453125l-2.46875 0zm7.75 0l0 -11.453125l8.484375 0l0 1.9375l-6.171875 0l0 2.53125l5.75 0l0 1.9375l-5.75 0l0 3.109375l6.390625 0l0 1.9375l-8.703125 0zm10.734375 0l0 -11.359375l2.3125 0l0 9.421875l5.75 0l0 1.9375l-8.0625 0zm9.2421875 -5.65625q0 -1.75 0.515625 -2.9375q0.390625 -0.875 1.0625 -1.5625q0.6875 -0.703125 1.484375 -1.046875q1.078125 -0.453125 2.46875 -0.453125q2.53125 0 4.046875 1.578125q1.53125 1.5625 1.53125 4.359375q0 2.78125 -1.515625 4.359375q-1.5 1.5625 -4.03125 1.5625q-2.546875 0 -4.0625 -1.5625q-1.5 -1.5625 -1.5 -4.296875zm2.375 -0.078125q0 1.9375 0.890625 2.953125q0.90625 1.0 2.296875 1.0q1.375 0 2.265625 -1.0q0.890625 -1.0 0.890625 -2.984375q0 -1.96875 -0.875 -2.9375q-0.859375 -0.96875 -2.28125 -0.96875q-1.4375 0 -2.3125 0.984375q-0.875 0.96875 -0.875 2.953125zm10.5390625 5.734375l0 -11.453125l3.703125 0q2.109375 0 2.75 0.171875q0.984375 0.25 1.640625 1.125q0.671875 0.859375 0.671875 2.21875q0 1.0625 -0.390625 1.78125q-0.375 0.71875 -0.96875 1.125q-0.578125 0.40625 -1.1875 0.546875q-0.828125 0.15625 -2.40625 0.15625l-1.5 0l0 4.328125l-2.3125 0zm2.3125 -9.515625l0 3.25l1.265625 0q1.359375 0 1.8125 -0.171875q0.46875 -0.1875 0.734375 -0.5625q0.265625 -0.390625 0.265625 -0.90625q0 -0.625 -0.375 -1.03125q-0.359375 -0.40625 -0.921875 -0.5q-0.421875 -0.078125 -1.671875 -0.078125l-1.109375 0zm8.359375 9.515625l0 -11.453125l8.484375 0l0 1.9375l-6.171875 0l0 2.53125l5.75 0l0 1.9375l-5.75 0l0 3.109375l6.390625 0l0 1.9375l-8.703125 0zm10.671875 0l0 -11.453125l4.875 0q1.828125 0 2.65625 0.3125q0.84375 0.296875 1.34375 1.09375q0.5 0.78125 0.5 1.796875q0 1.296875 -0.765625 2.140625q-0.75 0.828125 -2.265625 1.046875q0.75 0.4375 1.234375 0.96875q0.5 0.515625 1.328125 1.859375l1.390625 2.234375l-2.765625 0l-1.671875 -2.5q-0.890625 -1.328125 -1.21875 -1.671875q-0.328125 -0.359375 -0.703125 -0.484375q-0.359375 -0.125 -1.15625 -0.125l-0.46875 0l0 4.78125l-2.3125 0zm2.3125 -6.609375l1.71875 0q1.65625 0 2.0625 -0.140625q0.421875 -0.140625 0.65625 -0.484375q0.234375 -0.34375 0.234375 -0.859375q0 -0.578125 -0.3125 -0.9375q-0.296875 -0.359375 -0.859375 -0.453125q-0.28125 -0.03125 -1.6875 -0.03125l-1.8125 0l0 2.90625z" fill-rule="nonzero"/><path fill="#000000" fill-opacity="0.0" d="m92.068245 237.27428l-2.2047272 -87.40158" fill-rule="evenodd"/><path stroke="#b45f06" stroke-width="3.0" stroke-linejoin="round" stroke-linecap="butt" d="m91.781525 225.9079l-1.4640961 -58.04091" fill-rule="evenodd"/><path fill="#b45f06" stroke="#b45f06" stroke-width="3.0" stroke-linecap="butt" d="m92.03042 235.77475c-2.7246628 0.068740845 -4.989151 -2.08432 -5.0578766 -4.808975c-0.068733215 -2.7246552 2.08432 -4.989151 4.808983 -5.0578766c2.7246552 -0.068740845 4.9891434 2.08432 5.0578766 4.808975c0.068725586 2.7246704 -2.0843277 4.989151 -4.808983 5.0578766z" fill-rule="nonzero"/><path fill="#b45f06" stroke="#b45f06" stroke-width="3.0" stroke-linecap="butt" d="m95.27105 167.74202l-5.296936 -13.485001l-4.610306 13.734909z" fill-rule="evenodd"/><path fill="#000000" fill-opacity="0.0" d="m411.41733 237.45932l0.03149414 -87.59056" fill-rule="evenodd"/><path stroke="#b45f06" stroke-width="3.0" stroke-linejoin="round" stroke-linecap="butt" d="m411.42142 226.08932l0.020935059 -58.220566" fill-rule="evenodd"/><path stroke="#b45f06" stroke-width="3.0" stroke-linecap="butt" d="m411.41788 235.95932c-2.725525 -9.765625E-4 -4.9342346 -2.211258 -4.9332275 -4.936783c9.765625E-4 -2.725525 2.2112427 -4.934204 4.9367676 -4.9332123c2.725525 9.765625E-4 4.934204 2.2112427 4.9332275 4.9367676c-9.765625E-4 2.725525 -2.2112427 4.934204 -4.9367676 4.9332275z" fill-rule="nonzero"/><path fill="#b45f06" stroke="#b45f06" stroke-width="3.0" stroke-linecap="butt" d="m416.39755 167.87054l-4.9503174 -13.616074l-4.960083 13.612518z" fill-rule="evenodd"/><path fill="#cfe2f3" d="m30.77417 107.6811l118.153625 0l0 42.196724l-118.153625 0z" fill-rule="evenodd"/><path stroke="#000000" stroke-width="2.0" stroke-linejoin="round" stroke-linecap="butt" d="m30.77417 107.6811l118.153625 0l0 42.196724l-118.153625 0z" fill-rule="evenodd"/><path fill="#000000" d="m53.237705 134.63947l0 -11.453133l3.703125 0q2.109375 0 2.75 0.171875q0.984375 0.25 1.640625 1.125q0.671875 0.859375 0.671875 2.21875q0 1.0625 -0.390625 1.7812576q-0.375 0.71875 -0.96875 1.125q-0.578125 0.40625 -1.1875 0.546875q-0.828125 0.15625 -2.40625 0.15625l-1.5 0l0 4.328125l-2.3125 0zm2.3125 -9.515633l0 3.2500076l1.265625 0q1.359375 0 1.8125 -0.171875q0.46875 -0.1875 0.734375 -0.5625076q0.265625 -0.390625 0.265625 -0.90625q0 -0.625 -0.375 -1.03125q-0.359375 -0.40625 -0.921875 -0.5q-0.421875 -0.078125 -1.671875 -0.078125l-1.109375 0zm8.359375 9.515633l0 -11.453133l4.875004 0q1.828125 0 2.65625 0.3125q0.84375 0.296875 1.34375 1.09375q0.5 0.78125 0.5 1.796875q0 1.296875 -0.765625 2.1406326q-0.75 0.828125 -2.265625 1.046875q0.75 0.4375 1.234375 0.96875q0.5 0.515625 1.328125 1.859375l1.390625 2.234375l-2.765625 0l-1.671875 -2.5q-0.890625 -1.328125 -1.21875 -1.671875q-0.328125 -0.359375 -0.703125 -0.484375q-0.359375 -0.125 -1.15625 -0.125l-0.46875 0l0 4.78125l-2.3125038 0zm2.3125038 -6.609375l1.71875 0q1.65625 0 2.0625 -0.14063263q0.421875 -0.140625 0.65625 -0.484375q0.234375 -0.34375 0.234375 -0.859375q0 -0.578125 -0.3125 -0.9375q-0.296875 -0.359375 -0.859375 -0.453125q-0.28125 -0.03125 -1.6875 -0.03125l-1.8125 0l0 2.9062576zm8.7734375 0.953125q0 -1.7500076 0.515625 -2.9375076q0.390625 -0.875 1.0625 -1.5625q0.6875 -0.703125 1.484375 -1.046875q1.078125 -0.453125 2.46875 -0.453125q2.53125 0 4.046875 1.578125q1.53125 1.5625 1.53125 4.3593826q0 2.78125 -1.515625 4.359375q-1.5 1.5625 -4.03125 1.5625q-2.546875 0 -4.0625 -1.5625q-1.5 -1.5625 -1.5 -4.296875zm2.375 -0.078125q0 1.9375 0.890625 2.953125q0.90625 1.0 2.296875 1.0q1.375 0 2.265625 -1.0q0.890625 -1.0 0.890625 -2.984375q0 -1.9687576 -0.875 -2.9375076q-0.859375 -0.96875 -2.28125 -0.96875q-1.4375 0 -2.3125 0.984375q-0.875 0.96875 -0.875 2.9531326zm14.6640625 -5.7187576l2.3125 0l0 7.2500076q0 1.421875 -0.25 2.1875q-0.34375 1.0 -1.234375 1.609375q-0.875 0.609375 -2.3125 0.609375q-1.703125 0 -2.625 -0.953125q-0.90625 -0.953125 -0.90625 -2.796875l2.171875 -0.25q0.046875 0.984375 0.296875 1.390625q0.375 0.625 1.140625 0.625q0.765625 0 1.078125 -0.4375q0.328125 -0.453125 0.328125 -1.84375l0 -7.3906326zm4.77343 11.453133l0 -11.453133l8.484375 0l0 1.9375l-6.171875 0l0 2.53125l5.75 0l0 1.9375076l-5.75 0l0 3.109375l6.390625 0l0 1.9375l-8.703125 0zm18.0 -4.21875l2.234375 0.71875q-0.515625 1.875 -1.71875 2.796875q-1.1875 0.90625 -3.03125 0.90625q-2.28125 0 -3.75 -1.5625q-1.46875 -1.5625 -1.46875 -4.265625q0 -2.8593826 1.46875 -4.4375076q1.484375 -1.59375 3.890625 -1.59375q2.09375 0 3.40625 1.25q0.78125 0.734375 1.171875 2.109375l-2.28125 0.546875q-0.203125 -0.890625 -0.859375 -1.40625q-0.640625 -0.515625 -1.5625 -0.515625q-1.265625 0 -2.0625 0.921875q-0.796875 0.90625 -0.796875 2.9531326q0 2.171875 0.78125 3.09375q0.78125 0.921875 2.03125 0.921875q0.921875 0 1.578125 -0.578125q0.671875 -0.59375 0.96875 -1.859375zm6.8046875 4.21875l0 -9.515633l-3.40625 0l0 -1.9375l9.109375 0l0 1.9375l-3.390625 0l0 9.515633l-2.3125 0z" fill-rule="nonzero"/><path fill="#fff2cc" d="m32.99213 237.27428l118.15224 0l0 42.196854l-118.15224 0z" fill-rule="evenodd"/><path stroke="#000000" stroke-width="2.0" stroke-linejoin="round" stroke-linecap="butt" d="m32.99213 237.27428l118.15224 0l0 42.196854l-118.15224 0z" fill-rule="evenodd"/><path fill="#000000" d="m74.568245 264.2327l0 -11.453125l8.484375 0l0 1.9375l-6.171875 0l0 2.53125l5.75 0l0 1.9375l-5.75 0l0 3.109375l6.390625 0l0 1.9375l-8.703125 0zm10.671875 0l0 -11.453125l3.703125 0q2.109375 0 2.75 0.171875q0.984375 0.25 1.640625 1.125q0.671875 0.859375 0.671875 2.21875q0 1.0625 -0.390625 1.78125q-0.375 0.71875 -0.96875 1.125q-0.578125 0.40625 -1.1875 0.546875q-0.828125 0.15625 -2.40625 0.15625l-1.5 0l0 4.328125l-2.3125 0zm2.3125 -9.515625l0 3.25l1.265625 0q1.359375 0 1.8125 -0.171875q0.46875 -0.1875 0.734375 -0.5625q0.265625 -0.390625 0.265625 -0.90625q0 -0.625 -0.375 -1.03125q-0.359375 -0.40625 -0.921875 -0.5q-0.421875 -0.078125 -1.671875 -0.078125l-1.109375 0zm8.28125 9.515625l0 -11.453125l2.3124924 0l0 11.453125l-2.3124924 0zm11.851555 -4.21875l2.234375 0.71875q-0.515625 1.875 -1.71875 2.796875q-1.1875 0.90625 -3.03125 0.90625q-2.28125 0 -3.75 -1.5625q-1.46875 -1.5625 -1.46875 -4.265625q0 -2.859375 1.46875 -4.4375q1.484375 -1.59375 3.890625 -1.59375q2.09375 0 3.40625 1.25q0.78125 0.734375 1.171875 2.109375l-2.28125 0.546875q-0.203125 -0.890625 -0.859375 -1.40625q-0.640625 -0.515625 -1.5625 -0.515625q-1.265625 0 -2.0625 0.921875q-0.796875 0.90625 -0.796875 2.953125q0 2.171875 0.78125 3.09375q0.78125 0.921875 2.03125 0.921875q0.921875 0 1.578125 -0.578125q0.671875 -0.59375 0.96875 -1.859375z" fill-rule="nonzero"/><path fill="#000000" fill-opacity="0.0" d="m308.2756 13.603675l105.00787 0l0 34.45669l-105.00787 0z" fill-rule="evenodd"/><path fill="#000000" d="m330.63892 29.6668l2.03125 0l0 1.125q1.078125 -1.3125 2.578125 -1.3125q0.796875 0 1.375 0.328125q0.59375 0.328125 0.96875 0.984375q0.546875 -0.65625 1.171875 -0.984375q0.640625 -0.328125 1.359375 -0.328125q0.921875 0 1.546875 0.375q0.640625 0.359375 0.953125 1.078125q0.21875 0.53125 0.21875 1.7187519l0 5.3125l-2.1875 0l0 -4.75q0 -1.2343769 -0.234375 -1.5937519q-0.296875 -0.46875 -0.9375 -0.46875q-0.453125 0 -0.859375 0.28125q-0.40625 0.28125 -0.59375 0.8281269q-0.171875 0.546875 -0.171875 1.71875l0 3.984375l-2.203125 0l0 -4.546875q0 -1.21875 -0.125 -1.5625019q-0.109375 -0.359375 -0.359375 -0.53125q-0.234375 -0.171875 -0.65625 -0.171875q-0.515625 0 -0.921875 0.28125q-0.40625 0.265625 -0.578125 0.7812519q-0.171875 0.515625 -0.171875 1.71875l0 4.03125l-2.203125 0l0 -8.296877zm19.195312 5.656252l2.1875 0.359375q-0.421875 1.203125 -1.328125 1.84375q-0.90625 0.625 -2.28125 0.625q-2.15625 0 -3.203125 -1.421875q-0.8125 -1.125 -0.8125 -2.859375q0 -2.062502 1.078125 -3.218752q1.078125 -1.171875 2.71875 -1.171875q1.859375 0 2.921875 1.21875q1.078125 1.21875 1.03125 3.750002l-5.5 0q0.015625 0.96875 0.515625 1.515625q0.515625 0.546875 1.28125 0.546875q0.515625 0 0.859375 -0.28125q0.359375 -0.28125 0.53125 -0.90625zm0.125 -2.21875q-0.015625 -0.953125 -0.484375 -1.4531269q-0.46875 -0.5 -1.140625 -0.5q-0.71875 0 -1.1875 0.53125q-0.46875 0.5156269 -0.46875 1.4218769l3.28125 0zm3.8046875 -3.437502l2.03125 0l0 1.125q1.078125 -1.3125 2.578125 -1.3125q0.796875 0 1.375 0.328125q0.59375 0.328125 0.96875 0.984375q0.546875 -0.65625 1.171875 -0.984375q0.640625 -0.328125 1.359375 -0.328125q0.921875 0 1.546875 0.375q0.640625 0.359375 0.953125 1.078125q0.21875 0.53125 0.21875 1.7187519l0 5.3125l-2.1875 0l0 -4.75q0 -1.2343769 -0.234375 -1.5937519q-0.296875 -0.46875 -0.9375 -0.46875q-0.453125 0 -0.859375 0.28125q-0.40625 0.28125 -0.59375 0.8281269q-0.171875 0.546875 -0.171875 1.71875l0 3.984375l-2.203125 0l0 -4.546875q0 -1.21875 -0.125 -1.5625019q-0.109375 -0.359375 -0.359375 -0.53125q-0.234375 -0.171875 -0.65625 -0.171875q-0.515625 0 -0.921875 0.28125q-0.40625 0.265625 -0.578125 0.7812519q-0.171875 0.515625 -0.171875 1.71875l0 4.03125l-2.203125 0l0 -8.296877zm14.3046875 8.296877l0 -11.453127l2.1875 0l0 4.125q1.015625 -1.15625 2.40625 -1.15625q1.515625 0 2.5 1.09375q1.0 1.09375 1.0 3.156252q0 2.125 -1.015625 3.28125q-1.0 1.140625 -2.453125 1.140625q-0.703125 0 -1.40625 -0.359375q-0.6875 -0.359375 -1.1875 -1.046875l0 1.21875l-2.03125 0zm2.171875 -4.328125q0 1.28125 0.40625 1.90625q0.578125 0.875 1.515625 0.875q0.734375 0 1.234375 -0.625q0.515625 -0.625 0.515625 -1.953125q0 -1.421875 -0.515625 -2.046877q-0.515625 -0.640625 -1.3125 -0.640625q-0.796875 0 -1.328125 0.625q-0.515625 0.6093769 -0.515625 1.8593769zm12.4921875 1.6875l2.1875 0.359375q-0.421875 1.203125 -1.328125 1.84375q-0.90625 0.625 -2.28125 0.625q-2.15625 0 -3.203125 -1.421875q-0.8125 -1.125 -0.8125 -2.859375q0 -2.062502 1.078125 -3.218752q1.078125 -1.171875 2.71875 -1.171875q1.859375 0 2.921875 1.21875q1.078125 1.21875 1.03125 3.750002l-5.5 0q0.015625 0.96875 0.515625 1.515625q0.515625 0.546875 1.28125 0.546875q0.515625 0 0.859375 -0.28125q0.359375 -0.28125 0.53125 -0.90625zm0.125 -2.21875q-0.015625 -0.953125 -0.484375 -1.4531269q-0.46875 -0.5 -1.140625 -0.5q-0.71875 0 -1.1875 0.53125q-0.46875 0.5156269 -0.46875 1.4218769l3.28125 0zm6.0703125 4.859375l-2.1875 0l0 -8.296877l2.03125 0l0 1.171875q0.53125 -0.828125 0.9375 -1.09375q0.421875 -0.265625 0.953125 -0.265625q0.75 0 1.453125 0.40625l-0.6875 1.921875q-0.546875 -0.359375 -1.03125 -0.359375q-0.453125 0 -0.78125 0.25q-0.3125 0.25 -0.5 0.9218769q-0.1875 0.65625 -0.1875 2.78125l0 2.5625z" fill-rule="nonzero"/><path fill="#d9ead3" d="m350.9449 244.43045l0 0c0 -3.8500519 3.1210632 -6.9711304 6.9711304 -6.9711304l107.002625 0c1.8488464 0 3.6219788 0.7344513 4.9293213 2.0417938c1.3073425 1.3073425 2.041809 3.0804749 2.041809 4.9293365l0 27.884521c0 3.8500366 -3.1210938 6.9711304 -6.9711304 6.9711304l-107.002625 0c-3.8500671 0 -6.9711304 -3.1210938 -6.9711304 -6.9711304z" fill-rule="evenodd"/><path stroke="#000000" stroke-width="2.0" stroke-linejoin="round" stroke-linecap="butt" d="m350.9449 244.43045l0 0c0 -3.8500519 3.1210632 -6.9711304 6.9711304 -6.9711304l107.002625 0c1.8488464 0 3.6219788 0.7344513 4.9293213 2.0417938c1.3073425 1.3073425 2.041809 3.0804749 2.041809 4.9293365l0 27.884521c0 3.8500366 -3.1210938 6.9711304 -6.9711304 6.9711304l-107.002625 0c-3.8500671 0 -6.9711304 -3.1210938 -6.9711304 -6.9711304z" fill-rule="evenodd"/><path fill="#000000" d="m384.87827 260.49832l2.25 -0.21875q0.203125 1.140625 0.828125 1.671875q0.625 0.53125 1.671875 0.53125q1.125 0 1.6875 -0.46875q0.5625 -0.484375 0.5625 -1.109375q0 -0.40625 -0.234375 -0.6875q-0.234375 -0.296875 -0.828125 -0.5q-0.40625 -0.140625 -1.859375 -0.5q-1.859375 -0.46875 -2.609375 -1.140625q-1.046875 -0.9375 -1.046875 -2.296875q0 -0.875 0.484375 -1.640625q0.5 -0.765625 1.4375 -1.15625q0.9375 -0.40625 2.25 -0.40625q2.15625 0 3.25 0.953125q1.09375 0.9375 1.140625 2.515625l-2.3125 0.109375q-0.140625 -0.890625 -0.640625 -1.265625q-0.484375 -0.390625 -1.453125 -0.390625q-1.015625 0 -1.578125 0.40625q-0.375 0.265625 -0.375 0.71875q0 0.40625 0.34375 0.6875q0.4375 0.375 2.125 0.78125q1.6875 0.390625 2.5 0.8125q0.8125 0.421875 1.265625 1.171875q0.453125 0.734375 0.453125 1.8125q0 0.984375 -0.546875 1.84375q-0.546875 0.859375 -1.546875 1.28125q-1.0 0.421875 -2.484375 0.421875q-2.171875 0 -3.34375 -1.0q-1.15625 -1.015625 -1.390625 -2.9375zm13.84375 3.734375l0 -9.515625l-3.40625 0l0 -1.9375l9.109375 0l0 1.9375l-3.390625 0l0 9.515625l-2.3125 0zm6.4375 -5.65625q0 -1.75 0.515625 -2.9375q0.390625 -0.875 1.0625 -1.5625q0.6875 -0.703125 1.484375 -1.046875q1.078125 -0.453125 2.46875 -0.453125q2.53125 0 4.046875 1.578125q1.53125 1.5625 1.53125 4.359375q0 2.78125 -1.515625 4.359375q-1.5 1.5625 -4.03125 1.5625q-2.546875 0 -4.0625 -1.5625q-1.5 -1.5625 -1.5 -4.296875zm2.375 -0.078125q0 1.9375 0.890625 2.953125q0.90625 1.0 2.296875 1.0q1.375 0 2.265625 -1.0q0.890625 -1.0 0.890625 -2.984375q0 -1.96875 -0.875 -2.9375q-0.859375 -0.96875 -2.28125 -0.96875q-1.4375 0 -2.3125 0.984375q-0.875 0.96875 -0.875 2.953125zm10.5390625 5.734375l0 -11.453125l4.875 0q1.828125 0 2.65625 0.3125q0.84375 0.296875 1.34375 1.09375q0.5 0.78125 0.5 1.796875q0 1.296875 -0.765625 2.140625q-0.75 0.828125 -2.265625 1.046875q0.75 0.4375 1.234375 0.96875q0.5 0.515625 1.328125 1.859375l1.390625 2.234375l-2.765625 0l-1.671875 -2.5q-0.890625 -1.328125 -1.21875 -1.671875q-0.328125 -0.359375 -0.703125 -0.484375q-0.359375 -0.125 -1.15625 -0.125l-0.46875 0l0 4.78125l-2.3125 0zm2.3125 -6.609375l1.71875 0q1.65625 0 2.0625 -0.140625q0.421875 -0.140625 0.65625 -0.484375q0.234375 -0.34375 0.234375 -0.859375q0 -0.578125 -0.3125 -0.9375q-0.296875 -0.359375 -0.859375 -0.453125q-0.28125 -0.03125 -1.6875 -0.03125l-1.8125 0l0 2.90625zm11.6484375 6.609375l0 -4.828125l-4.203125 -6.625l2.71875 0l2.703125 4.53125l2.640625 -4.53125l2.65625 0l-4.203125 6.640625l0 4.8125l-2.3125 0z" fill-rule="nonzero"/><path fill="#000000" fill-opacity="0.0" d="m89.85098 107.6811l0 -54.425194l99.622055 0" fill-rule="evenodd"/><path stroke="#b45f06" stroke-width="3.0" stroke-linejoin="round" stroke-linecap="butt" d="m89.85099 89.6811l0 -36.425194l81.62205 0" fill-rule="evenodd"/><path fill="#b45f06" stroke="#b45f06" stroke-width="3.0" stroke-linecap="butt" d="m84.89579 89.68111l4.9552 13.614288l4.9551926 -13.614288z" fill-rule="evenodd"/><path fill="#b45f06" stroke="#b45f06" stroke-width="3.0" stroke-linecap="butt" d="m171.47304 58.2111l13.614288 -4.9551964l-13.614288 -4.9551964z" fill-rule="evenodd"/><path fill="#000000" fill-opacity="0.0" d="m350.9449 258.3727l-99.89952 0l0 0.06298828l-99.911514 0" fill-rule="evenodd"/><path stroke="#b45f06" stroke-width="3.0" stroke-linejoin="round" stroke-linecap="butt" d="m339.5749 258.3727l-88.529526 0l0 0.06298828l-81.9115 0" fill-rule="evenodd"/><path stroke="#b45f06" stroke-width="3.0" stroke-linecap="butt" d="m349.4449 258.3727c0 2.725525 -2.2094727 4.9349976 -4.9349976 4.9349976c-2.725525 0 -4.9349976 -2.2094727 -4.9349976 -4.9349976c0 -2.7255402 2.2094727 -4.935013 4.9349976 -4.935013c2.725525 0 4.9349976 2.2094727 4.9349976 4.935013z" fill-rule="nonzero"/><path fill="#b45f06" stroke="#b45f06" stroke-width="3.0" stroke-linecap="butt" d="m169.13385 253.4805l-13.614288 4.9552l13.614288 4.9552z" fill-rule="evenodd"/><path fill="#000000" fill-opacity="0.0" d="m239.85039 222.69292l49.228348 0l0 29.165344l-49.228348 0z" fill-rule="evenodd"/><path fill="#000000" d="m252.19414 235.5998l0 4.203125q1.0625 -1.234375 2.53125 -1.234375q0.765625 0 1.3750153 0.28125q0.609375 0.28125 0.90625 0.71875q0.3125 0.4375 0.421875 0.96875q0.125 0.53125 0.125 1.640625l0 4.875l-2.2031403 0l0 -4.390625q0 -1.296875 -0.125 -1.640625q-0.125 -0.359375 -0.4375 -0.5625q-0.3125 -0.21875 -0.796875 -0.21875q-0.546875 0 -0.984375 0.265625q-0.421875 0.265625 -0.625 0.8125q-0.1875 0.53125 -0.1875 1.578125l0 4.15625l-2.203125 0l0 -11.453125l2.203125 0zm9.226578 5.6875l-2.0 -0.359375q0.34375 -1.203125 1.15625 -1.78125q0.828125 -0.578125 2.4375 -0.578125q1.46875 0 2.1875 0.34375q0.71875 0.34375 1.015625 0.890625q0.296875 0.53125 0.296875 1.953125l-0.03125 2.5625q0 1.09375 0.109375 1.625q0.109375 0.515625 0.390625 1.109375l-2.171875 0q-0.078125 -0.21875 -0.203125 -0.65625q-0.0625 -0.1875 -0.078125 -0.25q-0.5625 0.546875 -1.203125 0.828125q-0.640625 0.265625 -1.375 0.265625q-1.28125 0 -2.015625 -0.6875q-0.734375 -0.703125 -0.734375 -1.765625q0 -0.703125 0.328125 -1.25q0.34375 -0.5625 0.9375 -0.84375q0.609375 -0.296875 1.75 -0.515625q1.546875 -0.296875 2.140625 -0.546875l0 -0.21875q0 -0.625 -0.3125 -0.890625q-0.3125 -0.28125 -1.1875 -0.28125q-0.578125 0 -0.90625 0.234375q-0.328125 0.234375 -0.53125 0.8125zm2.9375 1.78125q-0.421875 0.140625 -1.34375 0.34375q-0.90625 0.1875 -1.1875 0.375q-0.4375 0.296875 -0.4375 0.765625q0 0.46875 0.34375 0.8125q0.34375 0.328125 0.875 0.328125q0.59375 0 1.140625 -0.390625q0.390625 -0.296875 0.515625 -0.734375q0.09375 -0.28125 0.09375 -1.0625l0 -0.4375zm3.5390625 1.609375l2.203125 -0.328125q0.140625 0.640625 0.5625 0.96875q0.4375 0.328125 1.21875 0.328125q0.84375 0 1.28125 -0.3125q0.28125 -0.21875 0.28125 -0.578125q0 -0.25 -0.15625 -0.421875q-0.15625 -0.15625 -0.734375 -0.28125q-2.65625 -0.59375 -3.359375 -1.078125q-0.984375 -0.671875 -0.984375 -1.859375q0 -1.078125 0.84375 -1.8125q0.859375 -0.734375 2.640625 -0.734375q1.703125 0 2.53125 0.5625q0.828125 0.546875 1.140625 1.625l-2.0625 0.390625q-0.140625 -0.484375 -0.515625 -0.734375q-0.359375 -0.265625 -1.046875 -0.265625q-0.875 0 -1.25 0.234375q-0.25 0.171875 -0.25 0.453125q0 0.234375 0.21875 0.390625q0.296875 0.21875 2.046875 0.625q1.765625 0.390625 2.453125 0.96875q0.6875 0.59375 0.6875 1.640625q0 1.140625 -0.953125 1.96875q-0.953125 0.8125 -2.8125 0.8125q-1.703125 0 -2.6875 -0.6875q-0.984375 -0.6875 -1.296875 -1.875z" fill-rule="nonzero"/><path fill="#000000" d="m72.96588 208.17061l9.938446 0l0 -2.4277039l-3.6065826 0c-0.60562134 0 -1.0628433 -0.07295227 -1.3716812 -0.21887207c-0.31034088 -0.14782715 -0.54234314 -0.38012695 -0.6960068 -0.6969147c-0.15366364 -0.31678772 -0.23049164 -0.6767578 -0.23049164 -1.0799408c0 -0.35133362 0.060256958 -0.64315796 0.1807785 -0.875473c0.119018555 -0.23422241 0.2802124 -0.39741516 0.48358917 -0.489563c0.20337677 -0.092163086 0.68244934 -0.13822937 1.4372101 -0.13822937l3.8031845 0l0 -2.4277039l-4.223503 0c-0.646286 0 -1.1231003 0.042236328 -1.4304276 0.12670898c-0.30732727 0.08255005 -0.5875397 0.23806763 -0.8406296 0.46653748c-0.25309753 0.22654724 -0.4609909 0.56443787 -0.6236954 1.0137024c-0.16270447 0.44924927 -0.2440567 0.95321655 -0.2440567 1.5119019c0 1.0885773 0.35930634 2.0245361 1.0779114 2.807846l-3.654045 0z" fill-rule="evenodd"/><path fill="#000000" d="m79.446884 192.2912l0.3796463 0c0.45646667 0 0.7660599 0.031677246 0.92876434 0.09503174c0.2485733 0.092163086 0.45872498 0.28511047 0.6304703 0.57884216c0.22597504 0.39743042 0.33896637 0.81500244 0.33896637 1.2527313c0 0.3916626 -0.09716797 0.7142029 -0.29151154 0.96762085c-0.19433594 0.25343323 -0.4248352 0.3801422 -0.6914902 0.3801422c-0.27117157 0 -0.4948883 -0.15838623 -0.6711502 -0.47517395c-0.1084671 -0.20733643 -0.2191925 -0.6479645 -0.33218384 -1.3218384c-0.1129837 -0.67388916 -0.2101593 -1.166336 -0.29151154 -1.477356zm-3.904869 1.477356c0 1.1922455 0.16722107 2.0907593 0.50167084 2.6955261c0.33444214 0.60476685 0.8496704 1.0309753 1.5456772 1.2786407l0.31184387 -2.203064c-0.33444214 -0.14976501 -0.567955 -0.34558105 -0.7005234 -0.5874939c-0.13407898 -0.24189758 -0.20111847 -0.57884216 -0.20111847 -1.0108185c0 -0.639328 0.07833862 -1.074173 0.23501587 -1.3045654c0.15516663 -0.23039246 0.41579437 -0.34558105 0.7818756 -0.34558105l0.18981934 0c0.1446228 0.43772888 0.30055237 1.2239227 0.46777344 2.3585815c0.12654877 0.84091187 0.2749405 1.4850311 0.44517517 1.932373c0.16872406 0.4454193 0.41278076 0.7919464 0.7321625 1.0396118c0.3178711 0.2476654 0.68019104 0.37150574 1.0869446 0.37150574c0.61465454 0 1.1231003 -0.27166748 1.5253448 -0.8149872c0.40223694 -0.54525757 0.6033554 -1.2901764 0.6033554 -2.2347565c0 -0.53564453 -0.07909393 -1.0396271 -0.23727417 -1.5119171c-0.15818787 -0.47229004 -0.39546204 -0.91578674 -0.71183014 -1.3304749c0.0361557 -0.017288208 0.11073303 -0.046081543 0.22371674 -0.08639526c0.2485733 -0.092163086 0.43613434 -0.16992188 0.5626831 -0.23327637l0 -2.4017792c-0.34348297 0.21310425 -0.665123 0.35902405 -0.96492004 0.43772888c-0.30130005 0.076797485 -0.7683182 0.11520386 -1.4010544 0.11520386l-2.22361 -0.025924683c-0.82707214 0 -1.3950272 0.10847473 -1.7038574 0.3254242c-0.31034088 0.21502686 -0.5656967 0.5874939 -0.7660599 1.1173706c-0.20187378 0.52989197 -0.30281067 1.3362427 -0.30281067 2.4190674z" fill-rule="evenodd"/><path fill="#000000" d="m75.542015 184.17006c0 1.3189697 0.2124176 2.2923584 0.6372528 2.920166c0.4248352 0.62779236 0.9491043 0.94169617 1.5727997 0.94169617c0.69148254 0 1.2315674 -0.362854 1.6202469 -1.0885773c0.2802124 -0.52412415 0.589798 -1.7653351 0.92876434 -3.7236176c0.076828 -0.42045593 0.16044617 -0.6911621 0.2508316 -0.81211853c0.09490967 -0.1151886 0.2146759 -0.17279053 0.35930634 -0.17279053c0.2124176 0 0.38189697 0.106552124 0.50844574 0.31965637c0.1807785 0.31678772 0.27117157 0.78907776 0.27117157 1.4168854c0 0.5702057 -0.09566498 1.0137024 -0.2869873 1.3304749c-0.19284058 0.31678772 -0.47455597 0.5270233 -0.8451538 0.6306915l0.29151154 2.4363403c0.68244934 -0.22462463 1.2225266 -0.7007599 1.6202469 -1.4284058c0.39772034 -0.7295532 0.5965805 -1.7192535 0.5965805 -2.969101c0 -1.3765564 -0.23727417 -2.4161835 -0.71183014 -3.118866c-0.47454834 -0.7026825 -1.041748 -1.0540161 -1.7015991 -1.0540161c-0.60562134 0 -1.0779114 0.25343323 -1.4168701 0.76026917c-0.33444977 0.512619 -0.6169205 1.4159241 -0.8474121 2.7099304c-0.23049927 1.2920837 -0.40901947 2.0475616 -0.53556824 2.2664337c-0.09490967 0.16127014 -0.2101593 0.24189758 -0.34574127 0.24189758c-0.15818024 0 -0.2869873 -0.09214783 -0.3864212 -0.27645874c-0.1401062 -0.27645874 -0.2101593 -0.73435974 -0.2101593 -1.3736877c0 -0.5068512 0.07457733 -0.8965759 0.22371674 -1.1692047c0.14914703 -0.2745514 0.36382294 -0.46076965 0.64403534 -0.5586853l-0.33218384 -2.2894745c-0.6282196 0.23039246 -1.102768 0.6508484 -1.4236526 1.2613678c-0.3208847 0.6105194 -0.48133087 1.5435944 -0.48133087 2.7991943z" fill-rule="evenodd"/><path fill="#000000" d="m391.03976 219.94414c0 0.34754944 0.08187866 0.65849304 0.2456665 0.93278503c0.16378784 0.27259827 0.50341797 0.5801239 1.0188599 0.9225769l-1.091095 0l0 2.0010223l7.673767 0l0 -2.154358l-2.3700562 0c-1.3054504 0 -2.1629028 -0.059631348 -2.5723877 -0.17889404c-0.40945435 -0.12097168 -0.6920471 -0.28622437 -0.84780884 -0.49578857c-0.15737915 -0.20956421 -0.23605347 -0.4651184 -0.23605347 -0.76667786c0 -0.31178284 0.110809326 -0.64912415 0.33239746 -1.0120087l-1.7703247 -0.6670227c-0.25531006 0.45489502 -0.3829651 0.9276886 -0.3829651 1.4183655z" fill-rule="evenodd"/><path fill="#000000" d="m392.59332 214.36272c0 -0.43955994 0.15332031 -0.8126831 0.46002197 -1.1193542c0.30508423 -0.30667114 0.75149536 -0.46766663 1.3392029 -0.4830017l0 3.220047c-0.5539856 0.0051116943 -0.9923706 -0.14567566 -1.315094 -0.4523468c-0.3227539 -0.30667114 -0.48413086 -0.69511414 -0.48413086 -1.1653442zm-1.5535583 0.13032532c0 1.0784607 0.36047363 1.9703674 1.0814514 2.6757202c0.71939087 0.7053375 1.7149353 1.0580139 2.9866638 1.0580139c1.0646057 0 1.946167 -0.26834106 2.6446533 -0.80500793c0.8719177 -0.6797943 1.3078613 -1.7275848 1.3078613 -3.1433868c0 -0.89445496 -0.19348145 -1.6389923 -0.58047485 -2.2335968c-0.38858032 -0.5962982 -0.9537964 -1.0324554 -1.6956482 -1.3084564l-0.3395996 2.146698c0.38537598 0.11755371 0.6647644 0.29133606 0.8381653 0.52134705c0.1734314 0.22999573 0.26013184 0.5136719 0.26013184 0.8510132c0 0.49577332 -0.16699219 0.90979004 -0.50097656 1.2420044c-0.3356018 0.3322296 -0.8044739 0.50601196 -1.4066162 0.52134705l0 -5.397415c-1.5559692 -0.030670166 -2.7104797 0.30412292 -3.463562 1.0043488c-0.7546997 0.70022583 -1.1320496 1.6560211 -1.1320496 2.8673706z" fill-rule="evenodd"/><path fill="#000000" d="m391.03976 205.89859c0 1.1704559 0.22640991 2.0342407 0.67922974 2.5913696c0.45281982 0.55711365 1.0115967 0.8356781 1.6763916 0.8356781c0.73703 0 1.3126831 -0.32200623 1.7269592 -0.9660187c0.29864502 -0.4651184 0.6286316 -1.5665741 0.9899292 -3.3043823c0.08187866 -0.37312317 0.17102051 -0.6133423 0.2673645 -0.7206726c0.101135254 -0.10223389 0.22879028 -0.15333557 0.3829651 -0.15333557c0.22640991 0 0.40704346 0.094558716 0.54193115 0.2836609c0.19268799 0.28112793 0.28903198 0.7002411 0.28903198 1.2573547c0 0.50601196 -0.10195923 0.89956665 -0.3059082 1.1806946c-0.20553589 0.28111267 -0.50579834 0.46766663 -0.9008179 0.55966187l0.31072998 2.162033c0.7273865 -0.19932556 1.3030396 -0.6218567 1.7269592 -1.2675629c0.42391968 -0.6474304 0.63586426 -1.5256958 0.63586426 -2.6348267c0 -1.2215729 -0.25289917 -2.1441345 -0.7586975 -2.7677002c-0.50582886 -0.6235657 -1.1103821 -0.9353485 -1.8136902 -0.9353485c-0.6455078 0 -1.1488953 0.22488403 -1.5101929 0.67466736c-0.35647583 0.45489502 -0.65753174 1.2565002 -0.90322876 2.4048157c-0.2456665 1.1466064 -0.4359436 1.8170319 -0.5708313 2.011261c-0.10116577 0.14311218 -0.22399902 0.21466064 -0.36849976 0.21466064c-0.16860962 0 -0.3059082 -0.08177185 -0.41186523 -0.24533081c-0.14935303 -0.24533081 -0.22399902 -0.65167236 -0.22399902 -1.2190247c0 -0.44978333 0.07946777 -0.79563904 0.23843384 -1.0375671c0.15896606 -0.24363708 0.38778687 -0.40888977 0.6864624 -0.49578857l-0.35406494 -2.0316925c-0.6695862 0.20445251 -1.175415 0.5775604 -1.5174255 1.1193542c-0.3420105 0.54177856 -0.513031 1.3697968 -0.513031 2.4840393z" fill-rule="evenodd"/><path fill="#000000" d="m392.69446 196.4301c0 -0.56222534 0.20233154 -1.0333099 0.6069946 -1.4132385c0.40463257 -0.38163757 0.98269653 -0.57244873 1.7341614 -0.57244873c0.77075195 0 1.3584595 0.19081116 1.7631226 0.57244873c0.40463257 0.3799286 0.6069641 0.8510132 0.6069641 1.4132385c0 0.5622406 -0.20233154 1.0350189 -0.6069641 1.4183655c-0.4046631 0.3833313 -0.9875488 0.57499695 -1.7486572 0.57499695c-0.7611084 0 -1.3439941 -0.19166565 -1.7486267 -0.57499695c-0.4046631 -0.38334656 -0.6069946 -0.8561249 -0.6069946 -1.4183655zm-1.6546936 0.007675171c0 0.797348 0.16619873 1.5197296 0.49856567 2.1671448c0.33239746 0.6457062 0.81411743 1.1448975 1.4451599 1.4975739c0.631073 0.3526764 1.283783 0.52900696 1.9581909 0.52900696c0.8815613 0 1.6298218 -0.17633057 2.244812 -0.52900696c0.6134033 -0.3526764 1.079071 -0.86720276 1.3970032 -1.5435791c0.31793213 -0.6780853 0.4768982 -1.3902435 0.4768982 -2.1364746c0 -1.2062378 -0.38134766 -2.2063293 -1.1440735 -3.0002747c-0.76434326 -0.79563904 -1.7269592 -1.1934662 -2.887909 -1.1934662c-1.1513062 0 -2.1035156 0.39356995 -2.856598 1.1806946c-0.7546997 0.78712463 -1.1320496 1.7965851 -1.1320496 3.0283813z" fill-rule="evenodd"/><path fill="#000000" d="m388.29398 190.542l10.592987 0l0 -2.154358l-10.592987 0z" fill-rule="evenodd"/><path fill="#000000" d="m391.2132 187.22229l7.673767 -3.281372l0 -1.9396973l-7.673767 -3.235382l0 2.2156982l3.9163818 1.5486908c0.21676636 0.08177185 0.4335327 0.15844727 0.6502991 0.22999573c0.10598755 0.030670166 0.3251648 0.104782104 0.65756226 0.22233582l-1.3078613 0.44467163l-3.9163818 1.5333557z" fill-rule="evenodd"/><path fill="#000000" d="m392.59332 174.21176c0 -0.43955994 0.15332031 -0.8126831 0.46002197 -1.1193542c0.30508423 -0.30667114 0.75149536 -0.46766663 1.3392029 -0.4830017l0 3.220047c-0.5539856 0.0051116943 -0.9923706 -0.14567566 -1.315094 -0.4523468c-0.3227539 -0.30667114 -0.48413086 -0.69511414 -0.48413086 -1.1653442zm-1.5535583 0.13034058c0 1.0784607 0.36047363 1.9703522 1.0814514 2.675705c0.71939087 0.7053375 1.7149353 1.0580139 2.9866638 1.0580139c1.0646057 0 1.946167 -0.26834106 2.6446533 -0.80500793c0.8719177 -0.6797943 1.3078613 -1.7275848 1.3078613 -3.1433868c0 -0.89445496 -0.19348145 -1.6389923 -0.58047485 -2.2335815c-0.38858032 -0.5963135 -0.9537964 -1.0324707 -1.6956482 -1.3084717l-0.3395996 2.146698c0.38537598 0.11755371 0.6647644 0.29133606 0.8381653 0.52134705c0.1734314 0.22999573 0.26013184 0.5136719 0.26013184 0.8510132c0 0.49578857 -0.16699219 0.90979004 -0.50097656 1.2420197c-0.3356018 0.3322296 -0.8044739 0.5059967 -1.4066162 0.5213318l0 -5.397415c-1.5559692 -0.030670166 -2.7104797 0.30412292 -3.463562 1.0043488c-0.7546997 0.7002411 -1.1320496 1.6560364 -1.1320496 2.8673859z" fill-rule="evenodd"/><path fill="#000000" d="m391.03976 164.95029c0 0.3475647 0.08187866 0.65849304 0.2456665 0.93278503c0.16378784 0.27259827 0.50341797 0.5801239 1.0188599 0.9225769l-1.091095 0l0 2.0010223l7.673767 0l0 -2.154358l-2.3700562 0c-1.3054504 0 -2.1629028 -0.059631348 -2.5723877 -0.17889404c-0.40945435 -0.12095642 -0.6920471 -0.28622437 -0.84780884 -0.49578857c-0.15737915 -0.20954895 -0.23605347 -0.4651184 -0.23605347 -0.76667786c0 -0.31178284 0.110809326 -0.64912415 0.33239746 -1.0120087l-1.7703247 -0.66700745c-0.25531006 0.45489502 -0.3829651 0.92767334 -0.3829651 1.4183502z" fill-rule="evenodd"/><path fill="#000000" fill-opacity="0.0" d="m411.44064 107.6811l0 -54.425194l-101.00787 0" fill-rule="evenodd"/><path stroke="#b45f06" stroke-width="3.0" stroke-linejoin="round" stroke-linecap="butt" d="m411.44064 96.311104l0 -43.0552l-83.00787 0" fill-rule="evenodd"/><path fill="#b45f06" stroke="#b45f06" stroke-width="3.0" stroke-linecap="butt" d="m411.44064 106.1811c-2.725525 0 -4.9349976 -2.2094727 -4.9349976 -4.9349976c0 -2.725525 2.2094727 -4.9349976 4.9349976 -4.9349976c2.725525 0 4.935028 2.2094727 4.935028 4.9349976c0 2.725525 -2.2095032 4.9349976 -4.935028 4.9349976z" fill-rule="nonzero"/><path fill="#b45f06" stroke="#b45f06" stroke-width="3.0" stroke-linecap="butt" d="m328.43277 48.30071l-13.614288 4.9551964l13.614288 4.9551964z" fill-rule="evenodd"/><path fill="#000000" fill-opacity="0.0" d="m89.850395 13.603675l88.78741 0l0 39.74803l-88.78741 0z" fill-rule="evenodd"/><path fill="#000000" d="m102.36128 32.19805l-2.0 -0.3593769q0.34375 -1.203125 1.15625 -1.78125q0.828125 -0.578125 2.4375 -0.578125q1.46875 0 2.1875 0.34375q0.71875 0.34375 1.015625 0.890625q0.296875 0.53125 0.296875 1.9531269l-0.03125 2.5625q0 1.09375 0.109375 1.625q0.109375 0.515625 0.390625 1.109375l-2.171875 0q-0.078125 -0.21875 -0.203125 -0.65625q-0.0625 -0.1875 -0.078125 -0.25q-0.5625 0.546875 -1.203125 0.828125q-0.640625 0.265625 -1.375 0.265625q-1.28125 0 -2.015625 -0.6875q-0.734375 -0.703125 -0.734375 -1.765625q0 -0.703125 0.328125 -1.25q0.34375 -0.5625 0.9375 -0.84375q0.609375 -0.296875 1.75 -0.515625q1.546875 -0.296875 2.140625 -0.546875l0 -0.21875q0 -0.6250019 -0.3125 -0.8906269q-0.3125 -0.28125 -1.1875 -0.28125q-0.578125 0 -0.90625 0.234375q-0.328125 0.234375 -0.53125 0.8125019zm2.9375 1.78125q-0.421875 0.140625 -1.34375 0.34375q-0.90625 0.1875 -1.1875 0.375q-0.4375 0.296875 -0.4375 0.765625q0 0.46875 0.34375 0.8125q0.34375 0.328125 0.875 0.328125q0.59375 0 1.140625 -0.390625q0.390625 -0.296875 0.515625 -0.734375q0.09375 -0.28125 0.09375 -1.0625l0 -0.4375zm3.5390625 1.609375l2.203125 -0.328125q0.140625 0.640625 0.5625 0.96875q0.4375 0.328125 1.21875 0.328125q0.84375 0 1.28125 -0.3125q0.28125 -0.21875 0.28125 -0.578125q0 -0.25 -0.15625 -0.421875q-0.15625 -0.15625 -0.734375 -0.28125q-2.65625 -0.59375 -3.359375 -1.078125q-0.984375 -0.671875 -0.984375 -1.859375q0 -1.0781269 0.84375 -1.8125019q0.859375 -0.734375 2.640625 -0.734375q1.703125 0 2.53125 0.5625q0.828125 0.546875 1.140625 1.625l-2.0625 0.3906269q-0.140625 -0.4843769 -0.515625 -0.7343769q-0.359375 -0.265625 -1.046875 -0.265625q-0.875 0 -1.25 0.234375q-0.25 0.171875 -0.25 0.453125q0 0.234375 0.21875 0.3906269q0.296875 0.21875 2.046875 0.625q1.765625 0.390625 2.453125 0.96875q0.6875 0.59375 0.6875 1.640625q0 1.140625 -0.953125 1.96875q-0.953125 0.8125 -2.8125 0.8125q-1.703125 0 -2.6875 -0.6875q-0.984375 -0.6875 -1.296875 -1.875zm8.8984375 0l2.203125 -0.328125q0.140625 0.640625 0.5625 0.96875q0.4375 0.328125 1.21875 0.328125q0.84375 0 1.28125 -0.3125q0.28125 -0.21875 0.28125 -0.578125q0 -0.25 -0.15625 -0.421875q-0.15625 -0.15625 -0.734375 -0.28125q-2.65625 -0.59375 -3.359375 -1.078125q-0.984375 -0.671875 -0.984375 -1.859375q0 -1.0781269 0.84375 -1.8125019q0.859375 -0.734375 2.640625 -0.734375q1.703125 0 2.53125 0.5625q0.828125 0.546875 1.140625 1.625l-2.0625 0.3906269q-0.140625 -0.4843769 -0.515625 -0.7343769q-0.359375 -0.265625 -1.046875 -0.265625q-0.875 0 -1.25 0.234375q-0.25 0.171875 -0.25 0.453125q0 0.234375 0.21875 0.3906269q0.296875 0.21875 2.046875 0.625q1.765625 0.390625 2.453125 0.96875q0.6875 0.59375 0.6875 1.640625q0 1.140625 -0.953125 1.96875q-0.953125 0.8125 -2.8125 0.8125q-1.703125 0 -2.6875 -0.6875q-0.984375 -0.6875 -1.296875 -1.875zm9.6796875 -7.046877l0 -2.03125l2.1875 0l0 2.03125l-2.1875 0zm0 9.421877l0 -8.296877l2.1875 0l0 8.296877l-2.1875 0zm4.2421875 0.546875l2.5 0.3125q0.0625 0.4375 0.296875 0.59375q0.3125 0.234375 0.984375 0.234375q0.859375 0 1.28125 -0.25q0.296875 -0.171875 0.4375 -0.5625q0.109375 -0.265625 0.109375 -1.015625l0 -1.203125q-0.984375 1.34375 -2.484375 1.34375q-1.671875 0 -2.65625 -1.421875q-0.765625 -1.109375 -0.765625 -2.78125q0 -2.078127 1.0 -3.171877q1.015625 -1.109375 2.5 -1.109375q1.546875 0 2.546875 1.34375l0 -1.15625l2.046875 0l0 7.437502q0 1.484375 -0.25 2.203125q-0.234375 0.734375 -0.671875 1.140625q-0.4375 0.421875 -1.171875 0.65625q-0.71875 0.234375 -1.84375 0.234375q-2.109375 0 -3.0 -0.734375q-0.875 -0.71875 -0.875 -1.828125q0 -0.109375 0.015625 -0.265625zm1.953125 -4.875q0 1.328125 0.515625 1.9375q0.515625 0.609375 1.265625 0.609375q0.796875 0 1.34375 -0.625q0.5625 -0.625 0.5625 -1.859375q0 -1.296875 -0.53125 -1.9218769q-0.53125 -0.625 -1.34375 -0.625q-0.78125 0 -1.296875 0.625q-0.515625 0.6093769 -0.515625 1.8593769zm15.5703125 4.328125l-2.203125 0l0 -4.234375q0 -1.34375 -0.140625 -1.7343769q-0.140625 -0.40625 -0.453125 -0.625q-0.3125 -0.21875 -0.765625 -0.21875q-0.5625 0 -1.015625 0.3125q-0.453125 0.3125 -0.625 0.8281269q-0.171875 0.515625 -0.171875 1.90625l0 3.765625l-2.1875 0l0 -8.296877l2.03125 0l0 1.21875q1.09375 -1.40625 2.734375 -1.40625q0.734375 0 1.328125 0.265625q0.609375 0.25 0.90625 0.65625q0.3125 0.40625 0.4375 0.921875q0.125 0.515625 0.125 1.4843769l0 5.15625zm7.0234375 -2.640625l2.1875 0.359375q-0.421875 1.203125 -1.328125 1.84375q-0.90625 0.625 -2.28125 0.625q-2.15625 0 -3.203125 -1.421875q-0.8125 -1.125 -0.8125 -2.859375q0 -2.062502 1.078125 -3.218752q1.078125 -1.171875 2.71875 -1.171875q1.859375 0 2.921875 1.21875q1.078125 1.21875 1.03125 3.750002l-5.5 0q0.015625 0.96875 0.515625 1.515625q0.515625 0.546875 1.28125 0.546875q0.515625 0 0.859375 -0.28125q0.359375 -0.28125 0.53125 -0.90625zm0.125 -2.21875q-0.015625 -0.953125 -0.484375 -1.4531269q-0.46875 -0.5 -1.140625 -0.5q-0.71875 0 -1.1875 0.53125q-0.46875 0.5156269 -0.46875 1.4218769l3.28125 0zm11.5859375 4.859375l-2.046875 0l0 -1.21875q-0.5 0.703125 -1.203125 1.0625q-0.6875 0.34375 -1.390625 0.34375q-1.421875 0 -2.453125 -1.15625q-1.015625 -1.15625 -1.015625 -3.21875q0 -2.109377 0.984375 -3.203127q1.0 -1.09375 2.515625 -1.09375q1.390625 0 2.40625 1.15625l0 -4.125l2.203125 0l0 11.453127zm-5.859375 -4.328125q0 1.328125 0.359375 1.921875q0.53125 0.859375 1.484375 0.859375q0.765625 0 1.296875 -0.640625q0.53125 -0.65625 0.53125 -1.9375q0 -1.421875 -0.515625 -2.046877q-0.515625 -0.640625 -1.328125 -0.640625q-0.78125 0 -1.3125 0.625q-0.515625 0.6250019 -0.515625 1.8593769z" fill-rule="nonzero"/><path fill="#fff2cc" d="m350.9685 339.26773l120.944885 0l0 42.19684l-120.944885 0z" fill-rule="evenodd"/><path stroke="#000000" stroke-width="2.0" stroke-linejoin="round" stroke-linecap="butt" d="m350.9685 339.26773l120.944885 0l0 42.19684l-120.944885 0z" fill-rule="evenodd"/><path fill="#000000" d="m394.00735 366.22614l0 -9.515625l-3.40625 0l0 -1.9375l9.109375 0l0 1.9375l-3.390625 0l0 9.515625l-2.3125 0zm16.335938 0l-2.515625 0l-1.0 -2.609375l-4.578125 0l-0.953125 2.609375l-2.453125 0l4.46875 -11.453125l2.4375 0l4.59375 11.453125zm-4.265625 -4.53125l-1.578125 -4.25l-1.546875 4.25l3.125 0zm4.8984375 0.796875l2.25 -0.21875q0.203125 1.140625 0.828125 1.671875q0.625 0.53125 1.671875 0.53125q1.125 0 1.6875 -0.46875q0.5625 -0.484375 0.5625 -1.109375q0 -0.40625 -0.234375 -0.6875q-0.234375 -0.296875 -0.828125 -0.5q-0.40625 -0.140625 -1.859375 -0.5q-1.859375 -0.46875 -2.609375 -1.140625q-1.046875 -0.9375 -1.046875 -2.296875q0 -0.875 0.484375 -1.640625q0.5 -0.765625 1.4375 -1.15625q0.9375 -0.40625 2.25 -0.40625q2.15625 0 3.25 0.953125q1.09375 0.9375 1.140625 2.515625l-2.3125 0.109375q-0.140625 -0.890625 -0.640625 -1.265625q-0.484375 -0.390625 -1.453125 -0.390625q-1.015625 0 -1.578125 0.40625q-0.375 0.265625 -0.375 0.71875q0 0.40625 0.34375 0.6875q0.4375 0.375 2.125 0.78125q1.6875 0.390625 2.5 0.8125q0.8125 0.421875 1.265625 1.171875q0.453125 0.734375 0.453125 1.8125q0 0.984375 -0.546875 1.84375q-0.546875 0.859375 -1.546875 1.28125q-1.0 0.421875 -2.484375 0.421875q-2.171875 0 -3.34375 -1.0q-1.15625 -1.015625 -1.390625 -2.9375zm11.296875 3.734375l0 -11.453125l2.3125 0l0 5.078125l4.671875 -5.078125l3.109375 0l-4.3125 4.453125l4.546875 7.0l-3.0 0l-3.140625 -5.375l-1.875 1.90625l0 3.46875l-2.3125 0z" fill-rule="nonzero"/><path fill="#000000" fill-opacity="0.0" d="m411.44095 339.26773l0 -29.990875l0.06298828 0l0 -29.97763" fill-rule="evenodd"/><path stroke="#b45f06" stroke-width="3.0" stroke-linejoin="round" stroke-linecap="butt" d="m411.44095 327.8977l0 -18.62085l0.06298828 0l0 -11.977631" fill-rule="evenodd"/><path stroke="#b45f06" stroke-width="3.0" stroke-linecap="butt" d="m411.44095 337.76773c-2.725525 0 -4.9349976 -2.2095032 -4.9349976 -4.935028c0 -2.725525 2.2094727 -4.9349976 4.9349976 -4.9349976c2.725525 0 4.9349976 2.2094727 4.9349976 4.9349976c0 2.725525 -2.2094727 4.935028 -4.9349976 4.935028z" fill-rule="nonzero"/><path fill="#b45f06" stroke="#b45f06" stroke-width="3.0" stroke-linecap="butt" d="m416.45914 297.29922l-4.9552 -13.614319l-4.9552 13.614319z" fill-rule="evenodd"/><path fill="#000000" fill-opacity="0.0" d="m471.9134 360.36615l52.69818 0l0 -231.59056l-52.635193 0" fill-rule="evenodd"/><path stroke="#b45f06" stroke-width="3.0" stroke-linejoin="round" stroke-linecap="butt" stroke-dasharray="12.0,9.0" d="m483.2834 360.36615l41.328186 0l0 -231.59056l-34.635193 0" fill-rule="evenodd"/><path stroke="#b45f06" stroke-width="3.0" stroke-linecap="butt" d="m473.4134 360.36615c0 -2.725525 2.2094727 -4.9349976 4.9349976 -4.9349976c2.725525 0 4.9349976 2.2094727 4.9349976 4.9349976c0 2.725525 -2.2094727 4.9349976 -4.9349976 4.9349976c-2.725525 0 -4.9349976 -2.2094727 -4.9349976 -4.9349976z" fill-rule="nonzero"/><path stroke="#b45f06" stroke-width="3.0" stroke-linecap="butt" d="m489.97638 123.8204l-13.614288 4.9551926l13.614288 4.9552z" fill-rule="evenodd"/><path fill="#000000" d="m503.35794 284.85626c0 0.33358765 0.08251953 0.63204956 0.24758911 0.8953247c0.16506958 0.2616577 0.50735474 0.55682373 1.0268555 0.88549805l-1.0996704 0l0 1.9206543l7.73407 0l0 -2.06781l-2.3886719 0c-1.3157043 0 -2.1799011 -0.057250977 -2.5925903 -0.17172241c-0.4126892 -0.11608887 -0.69750977 -0.27471924 -0.8544922 -0.4758606c-0.15859985 -0.20114136 -0.23788452 -0.44644165 -0.23788452 -0.7359009c0 -0.29925537 0.11166382 -0.6230469 0.33499146 -0.971344l-1.7842407 -0.6402283c-0.25732422 0.436615 -0.3859558 0.8904114 -0.3859558 1.3613892z" fill-rule="evenodd"/><path fill="#000000" d="m504.92368 279.49902c0 -0.42190552 0.15454102 -0.7800293 0.46365356 -1.0743713c0.30749512 -0.29434204 0.75738525 -0.44888306 1.3497009 -0.46362305l0 3.0907288c-0.5583191 0.0048828125 -1.0001221 -0.13983154 -1.3254089 -0.43417358c-0.32528687 -0.29437256 -0.48794556 -0.6672058 -0.48794556 -1.1185608zm-1.5657349 0.12512207c0 1.0351257 0.36331177 1.8912048 1.0899353 2.5682068c0.7250366 0.6770325 1.7283936 1.0155334 3.0101318 1.0155334c1.0729675 0 1.9614563 -0.25756836 2.6654358 -0.77267456c0.87875366 -0.65249634 1.3181458 -1.6582031 1.3181458 -3.0171204c0 -0.8585205 -0.19503784 -1.5731506 -0.5850525 -2.1438599c-0.39163208 -0.5723572 -0.9613037 -0.9909973 -1.7089539 -1.2559204l-0.34228516 2.0604858c0.38839722 0.11282349 0.6699829 0.27963257 0.8447571 0.5003967c0.17480469 0.22076416 0.2621765 0.493042 0.2621765 0.8168335c0 0.4758606 -0.16830444 0.87323 -0.50491333 1.1921082c-0.33822632 0.31887817 -0.810791 0.48568726 -1.4176636 0.5003967l0 -5.180603c-1.5682068 -0.029418945 -2.731781 0.29190063 -3.4907837 0.9640198c-0.7606201 0.6720886 -1.1409302 1.589508 -1.1409302 2.7521973z" fill-rule="evenodd"/><path fill="#000000" d="m503.5327 275.22357l7.73407 -3.1495972l0 -1.8617554l-7.73407 -3.1054382l0 2.126709l3.9471436 1.4864807c0.21847534 0.07849121 0.43695068 0.15206909 0.655426 0.22076416c0.10681152 0.029418945 0.32772827 0.10055542 0.6627197 0.21340942l-1.3181458 0.42678833l-3.9471436 1.4717712z" fill-rule="evenodd"/><path fill="#000000" d="m500.59055 265.84106l1.8934631 0l0 -2.0678406l-1.8934631 0zm2.9421692 0l7.73407 0l0 -2.0678406l-7.73407 0z" fill-rule="evenodd"/><path fill="#000000" d="m504.92368 258.54846c0 -0.42190552 0.15454102 -0.7800293 0.46365356 -1.0743713c0.30749512 -0.29437256 0.75738525 -0.44888306 1.3497009 -0.46362305l0 3.0907288c-0.5583191 0.0048828125 -1.0001221 -0.13983154 -1.3254089 -0.43417358c-0.32528687 -0.29437256 -0.48794556 -0.6672058 -0.48794556 -1.1185608zm-1.5657349 0.12512207c0 1.0351257 0.36331177 1.8912048 1.0899353 2.5682068c0.7250366 0.6770325 1.7283936 1.0155334 3.0101318 1.0155334c1.0729675 0 1.9614563 -0.25756836 2.6654358 -0.77267456c0.87875366 -0.65249634 1.3181458 -1.6582031 1.3181458 -3.0171204c0 -0.8585205 -0.19503784 -1.5731506 -0.5850525 -2.1438599c-0.39163208 -0.57237244 -0.9613037 -0.9909973 -1.7089539 -1.2559204l-0.34228516 2.0604553c0.38839722 0.112854004 0.6699829 0.2796631 0.8447571 0.50042725c0.17480469 0.22076416 0.2621765 0.493042 0.2621765 0.816803c0 0.4758911 -0.16830444 0.8732605 -0.50491333 1.1921387c-0.33822632 0.31887817 -0.810791 0.48568726 -1.4176636 0.5003967l0 -5.180603c-1.5682068 -0.029434204 -2.731781 0.29190063 -3.4907837 0.9640045c-0.7606201 0.6721039 -1.1409302 1.5894928 -1.1409302 2.7522125z" fill-rule="evenodd"/><path fill="#000000" d="m503.5327 254.28772l7.73407 -2.4725647l0 -2.008957l-4.9739685 -1.3246002l4.9739685 -1.3466644l0 -1.9868774l-7.73407 -2.5093536l0 2.038391l5.0686646 1.4938354l-5.0686646 1.3025208l0 1.9942322l5.0686646 1.3466644l-5.0686646 1.4644165z" fill-rule="evenodd"/><path fill="#000000" d="m504.92368 238.44417c0 -0.42190552 0.15454102 -0.7800293 0.46365356 -1.0743866c0.30749512 -0.2943573 0.75738525 -0.44888306 1.3497009 -0.4636078l0 3.0907135c-0.5583191 0.0048980713 -1.0001221 -0.13981628 -1.3254089 -0.43417358c-0.32528687 -0.2943573 -0.48794556 -0.6672058 -0.48794556 -1.1185455zm-1.5657349 0.12510681c0 1.035141 0.36331177 1.8912201 1.0899353 2.568222c0.7250366 0.6770172 1.7283936 1.0155182 3.0101318 1.0155182c1.0729675 0 1.9614563 -0.2575531 2.6654358 -0.77267456c0.87875366 -0.6524811 1.3181458 -1.6581879 1.3181458 -3.0171204c0 -0.8585205 -0.19503784 -1.5731506 -0.5850525 -2.1438599c-0.39163208 -0.5723572 -0.9613037 -0.9909973 -1.7089539 -1.2559052l-0.34228516 2.0604706c0.38839722 0.11282349 0.6699829 0.27963257 0.8447571 0.5003967c0.17480469 0.22076416 0.2621765 0.493042 0.2621765 0.81681824c0 0.47587585 -0.16830444 0.8732605 -0.50491333 1.1921387c-0.33822632 0.31887817 -0.810791 0.48568726 -1.4176636 0.5003967l0 -5.180603c-1.5682068 -0.029434204 -2.731781 0.29190063 -3.4907837 0.9640045c-0.7606201 0.6721039 -1.1409302 1.5894928 -1.1409302 2.7521973z" fill-rule="evenodd"/><path fill="#000000" d="m503.35794 229.55472c0 0.3336029 0.08251953 0.6320343 0.24758911 0.8953247c0.16506958 0.26164246 0.50735474 0.5568085 1.0268555 0.8855133l-1.0996704 0l0 1.920639l7.73407 0l0 -2.0678253l-2.3886719 0c-1.3157043 0 -2.1799011 -0.057235718 -2.5925903 -0.17170715c-0.4126892 -0.116104126 -0.69750977 -0.27471924 -0.8544922 -0.4758606c-0.15859985 -0.20114136 -0.23788452 -0.44644165 -0.23788452 -0.7358856c0 -0.29925537 0.11166382 -0.6230469 0.33499146 -0.97135925l-1.7842407 -0.6402283c-0.25732422 0.43663025 -0.3859558 0.89042664 -0.3859558 1.3613892z" fill-rule="evenodd"/><path fill="#000000" fill-opacity="0.0" d="m249.95013 74.16798l0 54.614174l101.00787 0" fill-rule="evenodd"/><path stroke="#b45f06" stroke-width="3.0" stroke-linejoin="round" stroke-linecap="butt" stroke-dasharray="12.0,9.0" d="m249.95013 85.53798l0 43.24417l83.00787 0" fill-rule="evenodd"/><path stroke="#b45f06" stroke-width="3.0" stroke-linecap="butt" d="m249.95013 75.66798c2.725525 0 4.9349976 2.2094803 4.9349976 4.935005c0 2.725525 -2.2094727 4.9349976 -4.9349976 4.9349976c-2.725525 0 -4.9349976 -2.2094727 -4.9349976 -4.9349976c0 -2.725525 2.2094727 -4.935005 4.9349976 -4.935005z" fill-rule="nonzero"/><path stroke="#b45f06" stroke-width="3.0" stroke-linecap="butt" d="m332.958 133.73735l13.614288 -4.9552l-13.614288 -4.9551926z" fill-rule="evenodd"/><path fill="#000000" fill-opacity="0.0" d="m249.95013 135.79002l84.91339 0l0 54.4252l-84.91339 0z" fill-rule="evenodd"/><path fill="#000000" d="m268.7701 157.77502l2.203125 -0.328125q0.140625 0.640625 0.5625 0.96875q0.4375 0.328125 1.21875 0.328125q0.84375 0 1.28125 -0.3125q0.28125 -0.21875 0.28125 -0.578125q0 -0.25 -0.15625 -0.421875q-0.15625 -0.15625 -0.734375 -0.28125q-2.65625 -0.59375 -3.359375 -1.078125q-0.984375 -0.671875 -0.984375 -1.859375q0 -1.078125 0.84375 -1.8125q0.859375 -0.734375 2.640625 -0.734375q1.703125 0 2.53125 0.5625q0.828125 0.546875 1.140625 1.625l-2.0625 0.390625q-0.140625 -0.484375 -0.515625 -0.734375q-0.359375 -0.265625 -1.046875 -0.265625q-0.875 0 -1.25 0.234375q-0.25 0.171875 -0.25 0.453125q0 0.234375 0.21875 0.390625q0.296875 0.21875 2.046875 0.625q1.765625 0.390625 2.453125 0.96875q0.6875 0.59375 0.6875 1.640625q0 1.140625 -0.953125 1.96875q-0.953125 0.8125 -2.8125 0.8125q-1.703125 0 -2.6875 -0.6875q-0.984375 -0.6875 -1.296875 -1.875zm16.914062 -3.46875l-2.171875 0.390625q-0.109375 -0.65625 -0.5 -0.984375q-0.375 -0.328125 -1.0 -0.328125q-0.8125 0 -1.3125 0.578125q-0.484375 0.5625 -0.484375 1.890625q0 1.46875 0.5 2.078125q0.5 0.609375 1.328125 0.609375q0.625 0 1.015625 -0.34375q0.40625 -0.359375 0.578125 -1.234375l2.15625 0.375q-0.34375 1.484375 -1.296875 2.25q-0.953125 0.75 -2.546875 0.75q-1.828125 0 -2.90625 -1.140625q-1.078125 -1.15625 -1.078125 -3.1875q0 -2.0625 1.078125 -3.203125q1.09375 -1.140625 2.9375 -1.140625q1.515625 0 2.40625 0.65625q0.90625 0.640625 1.296875 1.984375zm3.7578125 5.84375l-2.1875 0l0 -8.296875l2.03125 0l0 1.171875q0.53125 -0.828125 0.9375 -1.09375q0.421875 -0.265625 0.953125 -0.265625q0.75 0 1.453125 0.40625l-0.6875 1.921875q-0.546875 -0.359375 -1.03125 -0.359375q-0.453125 0 -0.78125 0.25q-0.3125 0.25 -0.5 0.921875q-0.1875 0.65625 -0.1875 2.78125l0 2.5625zm9.5859375 0l0 -1.25q-0.453125 0.671875 -1.1875 1.0625q-0.734375 0.375 -1.5625 0.375q-0.828125 0 -1.5 -0.359375q-0.65625 -0.375 -0.953125 -1.03125q-0.296875 -0.671875 -0.296875 -1.84375l0 -5.25l2.1875 0l0 3.8125q0 1.75 0.125 2.140625q0.125 0.390625 0.4375 0.625q0.328125 0.234375 0.8125 0.234375q0.5625 0 1.0 -0.3125q0.453125 -0.3125 0.609375 -0.765625q0.171875 -0.453125 0.171875 -2.234375l0 -3.5l2.203125 0l0 8.296875l-2.046875 0zm4.1484375 -8.296875l2.03125 0l0 1.125q1.078125 -1.3125 2.578125 -1.3125q0.796875 0 1.375 0.328125q0.59375 0.328125 0.96875 0.984375q0.546875 -0.65625 1.171875 -0.984375q0.640625 -0.328125 1.359375 -0.328125q0.921875 0 1.546875 0.375q0.640625 0.359375 0.953125 1.078125q0.21875 0.53125 0.21875 1.71875l0 5.3125l-2.1875 0l0 -4.75q0 -1.234375 -0.234375 -1.59375q-0.296875 -0.46875 -0.9375 -0.46875q-0.453125 0 -0.859375 0.28125q-0.40625 0.28125 -0.59375 0.828125q-0.171875 0.546875 -0.171875 1.71875l0 3.984375l-2.203125 0l0 -4.546875q0 -1.21875 -0.125 -1.5625q-0.109375 -0.359375 -0.359375 -0.53125q-0.234375 -0.171875 -0.65625 -0.171875q-0.515625 0 -0.921875 0.28125q-0.40625 0.265625 -0.578125 0.78125q-0.171875 0.515625 -0.171875 1.71875l0 4.03125l-2.203125 0l0 -8.296875z" fill-rule="nonzero"/><path fill="#000000" d="m267.15292 170.85315l2.03125 0l0 1.125q1.078125 -1.3125 2.578125 -1.3125q0.796875 0 1.375 0.328125q0.59375 0.328125 0.96875 0.984375q0.546875 -0.65625 1.171875 -0.984375q0.640625 -0.328125 1.359375 -0.328125q0.921875 0 1.546875 0.375q0.640625 0.359375 0.953125 1.078125q0.21875 0.53125 0.21875 1.71875l0 5.3125l-2.1875 0l0 -4.75q0 -1.234375 -0.234375 -1.59375q-0.296875 -0.46875 -0.9375 -0.46875q-0.453125 0 -0.859375 0.28125q-0.40625 0.28125 -0.59375 0.828125q-0.171875 0.546875 -0.171875 1.71875l0 3.984375l-2.203125 0l0 -4.546875q0 -1.21875 -0.125 -1.5625q-0.109375 -0.359375 -0.359375 -0.53125q-0.234375 -0.171875 -0.65625 -0.171875q-0.515625 0 -0.921875 0.28125q-0.40625 0.265625 -0.578125 0.78125q-0.171875 0.515625 -0.171875 1.71875l0 4.03125l-2.203125 0l0 -8.296875zm16.039062 2.53125l-2.0 -0.359375q0.34375 -1.203125 1.15625 -1.78125q0.828125 -0.578125 2.4375 -0.578125q1.46875 0 2.1875 0.34375q0.71875 0.34375 1.015625 0.890625q0.296875 0.53125 0.296875 1.953125l-0.03125 2.5625q0 1.09375 0.109375 1.625q0.109375 0.515625 0.390625 1.109375l-2.171875 0q-0.078125 -0.21875 -0.203125 -0.65625q-0.0625 -0.1875 -0.078125 -0.25q-0.5625 0.546875 -1.203125 0.828125q-0.640625 0.265625 -1.375 0.265625q-1.28125 0 -2.015625 -0.6875q-0.734375 -0.703125 -0.734375 -1.765625q0 -0.703125 0.328125 -1.25q0.34375 -0.5625 0.9375 -0.84375q0.609375 -0.296875 1.75 -0.515625q1.546875 -0.296875 2.140625 -0.546875l0 -0.21875q0 -0.625 -0.3125 -0.890625q-0.3125 -0.28125 -1.1875 -0.28125q-0.578125 0 -0.90625 0.234375q-0.328125 0.234375 -0.53125 0.8125zm2.9375 1.78125q-0.421875 0.140625 -1.34375 0.34375q-0.90625 0.1875 -1.1875 0.375q-0.4375 0.296875 -0.4375 0.765625q0 0.46875 0.34375 0.8125q0.34375 0.328125 0.875 0.328125q0.59375 0 1.140625 -0.390625q0.390625 -0.296875 0.515625 -0.734375q0.09375 -0.28125 0.09375 -1.0625l0 -0.4375zm3.5390625 1.609375l2.203125 -0.328125q0.140625 0.640625 0.5625 0.96875q0.4375 0.328125 1.21875 0.328125q0.84375 0 1.28125 -0.3125q0.28125 -0.21875 0.28125 -0.578125q0 -0.25 -0.15625 -0.421875q-0.15625 -0.15625 -0.734375 -0.28125q-2.65625 -0.59375 -3.359375 -1.078125q-0.984375 -0.671875 -0.984375 -1.859375q0 -1.078125 0.84375 -1.8125q0.859375 -0.734375 2.640625 -0.734375q1.703125 0 2.53125 0.5625q0.828125 0.546875 1.140625 1.625l-2.0625 0.390625q-0.140625 -0.484375 -0.515625 -0.734375q-0.359375 -0.265625 -1.046875 -0.265625q-0.875 0 -1.25 0.234375q-0.25 0.171875 -0.25 0.453125q0 0.234375 0.21875 0.390625q0.296875 0.21875 2.046875 0.625q1.765625 0.390625 2.453125 0.96875q0.6875 0.59375 0.6875 1.640625q0 1.140625 -0.953125 1.96875q-0.953125 0.8125 -2.8125 0.8125q-1.703125 0 -2.6875 -0.6875q-0.984375 -0.6875 -1.296875 -1.875zm13.4765625 -5.921875l0 1.75l-1.5 0l0 3.34375q0 1.015625 0.046875 1.1875q0.046875 0.15625 0.1875 0.265625q0.15625 0.109375 0.375 0.109375q0.3125 0 0.890625 -0.203125l0.1875 1.703125q-0.765625 0.328125 -1.734375 0.328125q-0.59375 0 -1.078125 -0.203125q-0.46875 -0.203125 -0.703125 -0.515625q-0.21875 -0.3125 -0.296875 -0.859375q-0.078125 -0.375 -0.078125 -1.546875l0 -3.609375l-1.0 0l0 -1.75l1.0 0l0 -1.65625l2.203125 -1.28125l0 2.9375l1.5 0zm6.328125 5.65625l2.1875 0.359375q-0.421875 1.203125 -1.328125 1.84375q-0.90625 0.625 -2.28125 0.625q-2.15625 0 -3.203125 -1.421875q-0.8125 -1.125 -0.8125 -2.859375q0 -2.0625 1.078125 -3.21875q1.078125 -1.171875 2.71875 -1.171875q1.859375 0 2.921875 1.21875q1.078125 1.21875 1.03125 3.75l-5.5 0q0.015625 0.96875 0.515625 1.515625q0.515625 0.546875 1.28125 0.546875q0.515625 0 0.859375 -0.28125q0.359375 -0.28125 0.53125 -0.90625zm0.125 -2.21875q-0.015625 -0.953125 -0.484375 -1.453125q-0.46875 -0.5 -1.140625 -0.5q-0.71875 0 -1.1875 0.53125q-0.46875 0.515625 -0.46875 1.421875l3.28125 0zm6.0703125 4.859375l-2.1875 0l0 -8.296875l2.03125 0l0 1.171875q0.53125 -0.828125 0.9375 -1.09375q0.421875 -0.265625 0.953125 -0.265625q0.75 0 1.453125 0.40625l-0.6875 1.921875q-0.546875 -0.359375 -1.03125 -0.359375q-0.453125 0 -0.78125 0.25q-0.3125 0.25 -0.5 0.921875q-0.1875 0.65625 -0.1875 2.78125l0 2.5625z" fill-rule="nonzero"/><path fill="#d9ead3" d="m189.47769 39.312336l0 0c0 -3.850048 3.1210785 -6.9711304 6.9711304 -6.9711304l107.002625 0c1.8488464 0 3.6219788 0.7344589 4.9293213 2.0417976c1.3073425 1.3073425 2.041809 3.0804749 2.041809 4.9293327l0 27.884518c0 3.8500443 -3.1210938 6.9711227 -6.9711304 6.9711227l-107.002625 0c-3.8500519 0 -6.9711304 -3.1210785 -6.9711304 -6.9711227z" fill-rule="evenodd"/><path stroke="#000000" stroke-width="2.0" stroke-linejoin="round" stroke-linecap="butt" d="m189.47769 39.312336l0 0c0 -3.850048 3.1210785 -6.9711304 6.9711304 -6.9711304l107.002625 0c1.8488464 0 3.6219788 0.7344589 4.9293213 2.0417976c1.3073425 1.3073425 2.041809 3.0804749 2.041809 4.9293327l0 27.884518c0 3.8500443 -3.1210938 6.9711227 -6.9711304 6.9711227l-107.002625 0c-3.8500519 0 -6.9711304 -3.1210785 -6.9711304 -6.9711227z" fill-rule="evenodd"/><path fill="#000000" d="m231.03607 59.114594l0 -9.515625l-3.40625 0l0 -1.9375l9.109375 0l0 1.9375l-3.390625 0l0 9.515625l-2.3125 0zm7.1953125 0l0 -11.453125l8.484375 0l0 1.9375l-6.171875 0l0 2.53125l5.75 0l0 1.9375l-5.75 0l0 3.109375l6.390625 0l0 1.9375l-8.703125 0zm21.0 0l-2.515625 0l-1.0 -2.609375l-4.578125 0l-0.953125 2.609375l-2.453125 0l4.46875 -11.453125l2.4375 0l4.59375 11.453125zm-4.265625 -4.53125l-1.578125 -4.25l-1.546875 4.25l3.125 0zm5.4609375 4.53125l0 -11.453125l3.453125 0l2.078125 7.8125l2.0625 -7.8125l3.46875 0l0 11.453125l-2.15625 0l0 -9.015625l-2.265625 9.015625l-2.234375 0l-2.265625 -9.015625l0 9.015625l-2.140625 0z" fill-rule="nonzero"/></g></svg>