<svg version="1.1" viewBox="0.0 0.0 381.6666666666667 361.3543307086614" fill="none" stroke="none" stroke-linecap="square" stroke-miterlimit="10" xmlns:xlink="http://www.w3.org/1999/xlink" xmlns="http://www.w3.org/2000/svg"><clipPath id="p.0"><path d="m0 0l381.66666 0l0 361.35434l-381.66666 0l0 -361.35434z" clip-rule="nonzero"/></clipPath><g clip-path="url(#p.0)"><path fill="#000000" fill-opacity="0.0" d="m0 0l381.66666 0l0 361.35434l-381.66666 0z" fill-rule="evenodd"/><path fill="#000000" fill-opacity="0.0" d="m19.427822 47.84576l0 0c0 -17.061735 13.831268 -30.893005 30.893005 -30.893005l176.16673 0c8.193344 0 16.051102 3.2547913 21.844666 9.048353c5.793564 5.793562 9.048355 13.6513195 9.048355 21.844652l0 123.56831c0 17.061737 -13.831284 30.893005 -30.89302 30.893005l-176.16673 0l0 0c-17.061737 0 -30.893005 -13.831268 -30.893005 -30.893005z" fill-rule="evenodd"/><path stroke="#ea9999" stroke-width="2.0" stroke-linejoin="round" stroke-linecap="butt" stroke-dasharray="16.0,6.0" d="m19.427822 47.84576l0 0c0 -17.061735 13.831268 -30.893005 30.893005 -30.893005l176.16673 0c8.193344 0 16.051102 3.2547913 21.844666 9.048353c5.793564 5.793562 9.048355 13.6513195 9.048355 21.844652l0 123.56831c0 17.061737 -13.831284 30.893005 -30.89302 30.893005l-176.16673 0l0 0c-17.061737 0 -30.893005 -13.831268 -30.893005 -30.893005z" fill-rule="evenodd"/><path fill="#666666" d="m50.699474 258.95276l68.25197 0l0 56.53543l-68.25197 0z" fill-rule="evenodd"/><path fill="#ffd966" d="m72.321556 287.23672l-2.171875 0.390625q-0.109375 -0.65625 -0.5 -0.984375q-0.375 -0.328125 -1.0 -0.328125q-0.8125 0 -1.3125 0.578125q-0.484375 0.5625 -0.484375 1.890625q0 1.46875 0.5 2.078125q0.5 0.609375 1.328125 0.609375q0.625 0 1.015625 -0.34375q0.40625 -0.359375 0.578125 -1.234375l2.15625 0.375q-0.34375 1.484375 -1.296875 2.25q-0.953125 0.75 -2.546875 0.75q-1.828125 0 -2.90625 -1.140625q-1.078125 -1.15625 -1.078125 -3.1875q0 -2.0625 1.078125 -3.203125q1.09375 -1.140625 2.9375 -1.140625q1.515625 0 2.40625 0.65625q0.90625 0.640625 1.296875 1.984375zm1.6640625 5.84375l0 -11.453125l2.1875 0l0 11.453125l-2.1875 0zm4.4453125 -9.421875l0 -2.03125l2.1875 0l0 2.03125l-2.1875 0zm0 9.421875l0 -8.296875l2.1875 0l0 8.296875l-2.1875 0zm9.2421875 -2.640625l2.1875 0.359375q-0.421875 1.203125 -1.328125 1.84375q-0.90625 0.625 -2.28125 0.625q-2.15625 0 -3.203125 -1.421875q-0.8125 -1.125 -0.8125 -2.859375q0 -2.0625 1.078125 -3.21875q1.078125 -1.171875 2.71875 -1.171875q1.859375 0 2.921875 1.21875q1.078125 1.21875 1.03125 3.75l-5.5 0q0.015625 0.96875 0.515625 1.515625q0.515625 0.546875 1.28125 0.546875q0.515625 0 0.859375 -0.28125q0.359375 -0.28125 0.53125 -0.90625zm0.125 -2.21875q-0.015625 -0.953125 -0.484375 -1.453125q-0.46875 -0.5 -1.140625 -0.5q-0.71875 0 -1.1875 0.53125q-0.46875 0.515625 -0.46875 1.421875l3.28125 0zm11.5234375 4.859375l-2.203125 0l0 -4.234375q0 -1.34375 -0.140625 -1.734375q-0.140625 -0.40625 -0.453125 -0.625q-0.3125 -0.21875 -0.765625 -0.21875q-0.5625 0 -1.015625 0.3125q-0.453125 0.3125 -0.625 0.828125q-0.171875 0.515625 -0.171875 1.90625l0 3.765625l-2.1875 0l0 -8.296875l2.03125 0l0 1.21875q1.09375 -1.40625 2.734375 -1.40625q0.734375 0 1.328125 0.265625q0.609375 0.25 0.90625 0.65625q0.3125 0.40625 0.4375 0.921875q0.125 0.515625 0.125 1.484375l0 5.15625zm6.0234375 -8.296875l0 1.75l-1.5 0l0 3.34375q0 1.015625 0.046875 1.1875q0.046875 0.15625 0.1875 0.265625q0.15625 0.109375 0.375 0.109375q0.3125 0 0.890625 -0.203125l0.1875 1.703125q-0.765625 0.328125 -1.734375 0.328125q-0.59375 0 -1.078125 -0.203125q-0.46875 -0.203125 -0.703125 -0.515625q-0.21875 -0.3125 -0.296875 -0.859375q-0.078125 -0.375 -0.078125 -1.546875l0 -3.609375l-1.0 0l0 -1.75l1.0 0l0 -1.65625l2.203125 -1.28125l0 2.9375l1.5 0z" fill-rule="nonzero"/><path fill="#666666" d="m72.74672 318.9527l24.157478 0l0 7.62204l-24.157478 0z" fill-rule="evenodd"/><path stroke="#434343" stroke-width="1.0" stroke-linejoin="round" stroke-linecap="butt" d="m72.74672 318.9527l24.157478 0l0 7.62204l-24.157478 0z" fill-rule="evenodd"/><path fill="#d9d9d9" d="m42.71522 255.48688l84.220474 0l0 63.46457l-84.220474 0zm7.933071 7.933075l0 47.59842l68.35433 0l0 -47.59842z" fill-rule="evenodd"/><path stroke="#666666" stroke-width="2.0" stroke-linejoin="round" stroke-linecap="butt" d="m42.71522 255.48688l84.220474 0l0 63.46457l-84.220474 0zm7.933071 7.933075l0 47.59842l68.35433 0l0 -47.59842z" fill-rule="evenodd"/><path fill="#fff2cc" d="m55.891136 326.5748l57.868645 0c0.78800964 0 1.543747 0.31304932 2.1009521 0.87023926c0.5572052 0.55722046 0.87023926 1.3129578 0.87023926 2.1009521l0 14.855591c0 2.746582E-4 -2.3651123E-4 5.187988E-4 -5.340576E-4 5.187988E-4l-63.81049 -5.187988E-4l0 0c-2.937317E-4 0 -5.340576E-4 -2.4414062E-4 -5.340576E-4 -5.493164E-4l5.340576E-4 -14.8550415l0 0c0 -1.6409302 1.330246 -2.9711914 2.9711876 -2.9711914z" fill-rule="evenodd"/><path stroke="#999999" stroke-width="2.0" stroke-linejoin="round" stroke-linecap="butt" d="m55.891136 326.5748l57.868645 0c0.78800964 0 1.543747 0.31304932 2.1009521 0.87023926c0.5572052 0.55722046 0.87023926 1.3129578 0.87023926 2.1009521l0 14.855591c0 2.746582E-4 -2.3651123E-4 5.187988E-4 -5.340576E-4 5.187988E-4l-63.81049 -5.187988E-4l0 0c-2.937317E-4 0 -5.340576E-4 -2.4414062E-4 -5.340576E-4 -5.493164E-4l5.340576E-4 -14.8550415l0 0c0 -1.6409302 1.330246 -2.9711914 2.9711876 -2.9711914z" fill-rule="evenodd"/><path fill="#000000" fill-opacity="0.0" d="m84.93307 335.4882l26.58268 0" fill-rule="evenodd"/><path stroke="#999999" stroke-width="2.0" stroke-linejoin="round" stroke-linecap="butt" d="m84.93307 335.4882l26.58268 0" fill-rule="evenodd"/><path fill="#b7b7b7" d="m59.22966 335.4882l0 0c0 -2.1047668 1.5863914 -3.8110352 3.5433044 -3.8110352l0 0c0.93974304 0 1.8409958 0.40151978 2.5055008 1.1162415c0.6644974 0.71469116 1.0378113 1.6840515 1.0378113 2.6947937l0 0c0 2.1047668 -1.5863953 3.8110352 -3.543312 3.8110352l0 0c-1.956913 0 -3.5433044 -1.7062683 -3.5433044 -3.8110352z" fill-rule="evenodd"/><path fill="#000000" fill-opacity="0.0" d="m173.82677 143.91339l-89.007866 0l0 111.55905" fill-rule="evenodd"/><path stroke="#666666" stroke-width="2.0" stroke-linejoin="round" stroke-linecap="butt" stroke-dasharray="2.0,6.0" d="m166.24677 143.91339l-81.427864 0l0 103.979065" fill-rule="evenodd"/><path fill="#666666" stroke="#666666" stroke-width="2.0" stroke-linecap="butt" d="m172.82677 143.91339c0 1.8170166 -1.4729767 3.2899933 -3.2899933 3.2899933c-1.8170166 0 -3.2900085 -1.4729767 -3.2900085 -3.2899933c0 -1.8170166 1.472992 -3.2900085 3.2900085 -3.2900085c1.8170166 0 3.2899933 1.472992 3.2899933 3.2900085z" fill-rule="nonzero"/><path fill="#666666" stroke="#666666" stroke-width="2.0" stroke-linecap="butt" d="m84.8189 254.47244c-1.8170166 0 -3.290001 -1.472992 -3.290001 -3.2900085c0 -1.8170166 1.4729843 -3.2899933 3.290001 -3.2899933c1.8170166 0 3.2899933 1.4729767 3.2899933 3.2899933c0 1.8170166 -1.4729767 3.2900085 -3.2899933 3.2900085z" fill-rule="nonzero"/><path fill="#666666" d="m160.62862 258.95276l68.25197 0l0 56.53543l-68.25197 0z" fill-rule="evenodd"/><path fill="#ffd966" d="m182.25069 287.23672l-2.171875 0.390625q-0.109375 -0.65625 -0.5 -0.984375q-0.375 -0.328125 -1.0 -0.328125q-0.8125 0 -1.3125 0.578125q-0.484375 0.5625 -0.484375 1.890625q0 1.46875 0.5 2.078125q0.5 0.609375 1.328125 0.609375q0.625 0 1.015625 -0.34375q0.40625 -0.359375 0.578125 -1.234375l2.15625 0.375q-0.34375 1.484375 -1.296875 2.25q-0.953125 0.75 -2.546875 0.75q-1.828125 0 -2.90625 -1.140625q-1.078125 -1.15625 -1.078125 -3.1875q0 -2.0625 1.078125 -3.203125q1.09375 -1.140625 2.9375 -1.140625q1.515625 0 2.40625 0.65625q0.90625 0.640625 1.296875 1.984375zm1.6640625 5.84375l0 -11.453125l2.1875 0l0 11.453125l-2.1875 0zm4.4453125 -9.421875l0 -2.03125l2.1875 0l0 2.03125l-2.1875 0zm0 9.421875l0 -8.296875l2.1875 0l0 8.296875l-2.1875 0zm9.2421875 -2.640625l2.1875 0.359375q-0.421875 1.203125 -1.328125 1.84375q-0.90625 0.625 -2.28125 0.625q-2.15625 0 -3.203125 -1.421875q-0.8125 -1.125 -0.8125 -2.859375q0 -2.0625 1.078125 -3.21875q1.078125 -1.171875 2.71875 -1.171875q1.859375 0 2.921875 1.21875q1.078125 1.21875 1.03125 3.75l-5.5 0q0.015625 0.96875 0.515625 1.515625q0.515625 0.546875 1.28125 0.546875q0.515625 0 0.859375 -0.28125q0.359375 -0.28125 0.53125 -0.90625zm0.125 -2.21875q-0.015625 -0.953125 -0.484375 -1.453125q-0.46875 -0.5 -1.140625 -0.5q-0.71875 0 -1.1875 0.53125q-0.46875 0.515625 -0.46875 1.421875l3.28125 0zm11.5234375 4.859375l-2.203125 0l0 -4.234375q0 -1.34375 -0.140625 -1.734375q-0.140625 -0.40625 -0.453125 -0.625q-0.3125 -0.21875 -0.765625 -0.21875q-0.5625 0 -1.015625 0.3125q-0.453125 0.3125 -0.625 0.828125q-0.171875 0.515625 -0.171875 1.90625l0 3.765625l-2.1875 0l0 -8.296875l2.03125 0l0 1.21875q1.09375 -1.40625 2.734375 -1.40625q0.734375 0 1.328125 0.265625q0.609375 0.25 0.90625 0.65625q0.3125 0.40625 0.4375 0.921875q0.125 0.515625 0.125 1.484375l0 5.15625zm6.0234375 -8.296875l0 1.75l-1.5 0l0 3.34375q0 1.015625 0.046875 1.1875q0.046875 0.15625 0.1875 0.265625q0.15625 0.109375 0.375 0.109375q0.3125 0 0.890625 -0.203125l0.1875 1.703125q-0.765625 0.328125 -1.734375 0.328125q-0.59375 0 -1.078125 -0.203125q-0.46875 -0.203125 -0.703125 -0.515625q-0.21875 -0.3125 -0.296875 -0.859375q-0.078125 -0.375 -0.078125 -1.546875l0 -3.609375l-1.0 0l0 -1.75l1.0 0l0 -1.65625l2.203125 -1.28125l0 2.9375l1.5 0z" fill-rule="nonzero"/><path fill="#666666" d="m182.67586 318.9527l24.15747 0l0 7.62204l-24.15747 0z" fill-rule="evenodd"/><path stroke="#434343" stroke-width="1.0" stroke-linejoin="round" stroke-linecap="butt" d="m182.67586 318.9527l24.15747 0l0 7.62204l-24.15747 0z" fill-rule="evenodd"/><path fill="#d9d9d9" d="m152.64436 255.48688l84.22046 0l0 63.46457l-84.22046 0zm7.9330597 7.933075l0 47.59842l68.35434 0l0 -47.59842z" fill-rule="evenodd"/><path stroke="#666666" stroke-width="2.0" stroke-linejoin="round" stroke-linecap="butt" d="m152.64436 255.48688l84.22046 0l0 63.46457l-84.22046 0zm7.9330597 7.933075l0 47.59842l68.35434 0l0 -47.59842z" fill-rule="evenodd"/><path fill="#fff2cc" d="m165.82027 326.5748l57.868652 0c0.78800964 0 1.5437317 0.31304932 2.1009521 0.87023926c0.5572052 0.55722046 0.87023926 1.3129578 0.87023926 2.1009521l0 14.855591c0 2.746582E-4 -2.4414062E-4 5.187988E-4 -5.340576E-4 5.187988E-4l-63.8105 -5.187988E-4l0 0c-2.89917E-4 0 -5.187988E-4 -2.4414062E-4 -5.187988E-4 -5.493164E-4l5.187988E-4 -14.8550415l0 0c0 -1.6409302 1.330246 -2.9711914 2.9711914 -2.9711914z" fill-rule="evenodd"/><path stroke="#999999" stroke-width="2.0" stroke-linejoin="round" stroke-linecap="butt" d="m165.82027 326.5748l57.868652 0c0.78800964 0 1.5437317 0.31304932 2.1009521 0.87023926c0.5572052 0.55722046 0.87023926 1.3129578 0.87023926 2.1009521l0 14.855591c0 2.746582E-4 -2.4414062E-4 5.187988E-4 -5.340576E-4 5.187988E-4l-63.8105 -5.187988E-4l0 0c-2.89917E-4 0 -5.187988E-4 -2.4414062E-4 -5.187988E-4 -5.493164E-4l5.187988E-4 -14.8550415l0 0c0 -1.6409302 1.330246 -2.9711914 2.9711914 -2.9711914z" fill-rule="evenodd"/><path fill="#000000" fill-opacity="0.0" d="m194.8622 335.4882l26.582687 0" fill-rule="evenodd"/><path stroke="#999999" stroke-width="2.0" stroke-linejoin="round" stroke-linecap="butt" d="m194.8622 335.4882l26.582687 0" fill-rule="evenodd"/><path fill="#b7b7b7" d="m169.1588 335.4882l0 0c0 -2.1047668 1.58638 -3.8110352 3.5433044 -3.8110352l0 0c0.93974304 0 1.8409882 0.40151978 2.5054932 1.1162415c0.664505 0.71469116 1.0378113 1.6840515 1.0378113 2.6947937l0 0c0 2.1047668 -1.5863953 3.8110352 -3.5433044 3.8110352l0 0c-1.9569244 0 -3.5433044 -1.7062683 -3.5433044 -3.8110352z" fill-rule="evenodd"/><path fill="#666666" d="m270.55774 258.95276l68.25198 0l0 56.53543l-68.25198 0z" fill-rule="evenodd"/><path fill="#ffd966" d="m292.1798 287.23672l-2.171875 0.390625q-0.109375 -0.65625 -0.5 -0.984375q-0.375 -0.328125 -1.0 -0.328125q-0.8125 0 -1.3125 0.578125q-0.484375 0.5625 -0.484375 1.890625q0 1.46875 0.5 2.078125q0.5 0.609375 1.328125 0.609375q0.625 0 1.015625 -0.34375q0.40625 -0.359375 0.578125 -1.234375l2.15625 0.375q-0.34375 1.484375 -1.296875 2.25q-0.953125 0.75 -2.546875 0.75q-1.828125 0 -2.90625 -1.140625q-1.078125 -1.15625 -1.078125 -3.1875q0 -2.0625 1.078125 -3.203125q1.09375 -1.140625 2.9375 -1.140625q1.515625 0 2.40625 0.65625q0.90625 0.640625 1.296875 1.984375zm1.6640625 5.84375l0 -11.453125l2.1875 0l0 11.453125l-2.1875 0zm4.4453125 -9.421875l0 -2.03125l2.1875 0l0 2.03125l-2.1875 0zm0 9.421875l0 -8.296875l2.1875 0l0 8.296875l-2.1875 0zm9.2421875 -2.640625l2.1875 0.359375q-0.421875 1.203125 -1.328125 1.84375q-0.90625 0.625 -2.28125 0.625q-2.15625 0 -3.203125 -1.421875q-0.8125 -1.125 -0.8125 -2.859375q0 -2.0625 1.078125 -3.21875q1.078125 -1.171875 2.71875 -1.171875q1.859375 0 2.921875 1.21875q1.078125 1.21875 1.03125 3.75l-5.5 0q0.015625 0.96875 0.515625 1.515625q0.515625 0.546875 1.28125 0.546875q0.515625 0 0.859375 -0.28125q0.359375 -0.28125 0.53125 -0.90625zm0.125 -2.21875q-0.015625 -0.953125 -0.484375 -1.453125q-0.46875 -0.5 -1.140625 -0.5q-0.71875 0 -1.1875 0.53125q-0.46875 0.515625 -0.46875 1.421875l3.28125 0zm11.5234375 4.859375l-2.203125 0l0 -4.234375q0 -1.34375 -0.140625 -1.734375q-0.140625 -0.40625 -0.453125 -0.625q-0.3125 -0.21875 -0.765625 -0.21875q-0.5625 0 -1.015625 0.3125q-0.453125 0.3125 -0.625 0.828125q-0.171875 0.515625 -0.171875 1.90625l0 3.765625l-2.1875 0l0 -8.296875l2.03125 0l0 1.21875q1.09375 -1.40625 2.734375 -1.40625q0.734375 0 1.328125 0.265625q0.609375 0.25 0.90625 0.65625q0.3125 0.40625 0.4375 0.921875q0.125 0.515625 0.125 1.484375l0 5.15625zm6.0234375 -8.296875l0 1.75l-1.5 0l0 3.34375q0 1.015625 0.046875 1.1875q0.046875 0.15625 0.1875 0.265625q0.15625 0.109375 0.375 0.109375q0.3125 0 0.890625 -0.203125l0.1875 1.703125q-0.765625 0.328125 -1.734375 0.328125q-0.59375 0 -1.078125 -0.203125q-0.46875 -0.203125 -0.703125 -0.515625q-0.21875 -0.3125 -0.296875 -0.859375q-0.078125 -0.375 -0.078125 -1.546875l0 -3.609375l-1.0 0l0 -1.75l1.0 0l0 -1.65625l2.203125 -1.28125l0 2.9375l1.5 0z" fill-rule="nonzero"/><path fill="#666666" d="m292.60498 318.9527l24.157501 0l0 7.62204l-24.157501 0z" fill-rule="evenodd"/><path stroke="#434343" stroke-width="1.0" stroke-linejoin="round" stroke-linecap="butt" d="m292.60498 318.9527l24.157501 0l0 7.62204l-24.157501 0z" fill-rule="evenodd"/><path fill="#d9d9d9" d="m262.5735 255.48688l84.22049 0l0 63.46457l-84.22049 0zm7.933075 7.933075l0 47.59842l68.35434 0l0 -47.59842z" fill-rule="evenodd"/><path stroke="#666666" stroke-width="2.0" stroke-linejoin="round" stroke-linecap="butt" d="m262.5735 255.48688l84.22049 0l0 63.46457l-84.22049 0zm7.933075 7.933075l0 47.59842l68.35434 0l0 -47.59842z" fill-rule="evenodd"/><path fill="#fff2cc" d="m275.7494 326.5748l57.868652 0c0.7880249 0 1.5437622 0.31304932 2.1009521 0.87023926c0.55722046 0.55722046 0.87023926 1.3129578 0.87023926 2.1009521l0 14.855591c0 2.746582E-4 -2.4414062E-4 5.187988E-4 -5.187988E-4 5.187988E-4l-63.810486 -5.187988E-4l0 0c-3.0517578E-4 0 -5.493164E-4 -2.4414062E-4 -5.493164E-4 -5.493164E-4l5.493164E-4 -14.8550415l0 0c0 -1.6409302 1.3302307 -2.9711914 2.971161 -2.9711914z" fill-rule="evenodd"/><path stroke="#999999" stroke-width="2.0" stroke-linejoin="round" stroke-linecap="butt" d="m275.7494 326.5748l57.868652 0c0.7880249 0 1.5437622 0.31304932 2.1009521 0.87023926c0.55722046 0.55722046 0.87023926 1.3129578 0.87023926 2.1009521l0 14.855591c0 2.746582E-4 -2.4414062E-4 5.187988E-4 -5.187988E-4 5.187988E-4l-63.810486 -5.187988E-4l0 0c-3.0517578E-4 0 -5.493164E-4 -2.4414062E-4 -5.493164E-4 -5.493164E-4l5.493164E-4 -14.8550415l0 0c0 -1.6409302 1.3302307 -2.9711914 2.971161 -2.9711914z" fill-rule="evenodd"/><path fill="#000000" fill-opacity="0.0" d="m304.79135 335.4882l26.582672 0" fill-rule="evenodd"/><path stroke="#999999" stroke-width="2.0" stroke-linejoin="round" stroke-linecap="butt" d="m304.79135 335.4882l26.582672 0" fill-rule="evenodd"/><path fill="#b7b7b7" d="m279.08792 335.4882l0 0c0 -2.1047668 1.5863953 -3.8110352 3.5433044 -3.8110352l0 0c0.9397583 0 1.8410034 0.40151978 2.5054932 1.1162415c0.66452026 0.71469116 1.0378113 1.6840515 1.0378113 2.6947937l0 0c0 2.1047668 -1.5863953 3.8110352 -3.5433044 3.8110352l0 0c-1.9569092 0 -3.5433044 -1.7062683 -3.5433044 -3.8110352z" fill-rule="evenodd"/><path fill="#000000" fill-opacity="0.0" d="m194.7559 172.1811l0 83.30708" fill-rule="evenodd"/><path stroke="#666666" stroke-width="2.0" stroke-linejoin="round" stroke-linecap="butt" stroke-dasharray="2.0,6.0" d="m194.7559 179.7611l0 68.14711" fill-rule="evenodd"/><path fill="#666666" stroke="#666666" stroke-width="2.0" stroke-linecap="butt" d="m194.7559 173.1811c1.8170166 0 3.2899933 1.4729767 3.2899933 3.2899933c0 1.8170166 -1.4729767 3.2900085 -3.2899933 3.2900085c-1.8170166 0 -3.2899933 -1.472992 -3.2899933 -3.2900085c0 -1.8170166 1.4729767 -3.2899933 3.2899933 -3.2899933z" fill-rule="nonzero"/><path fill="#666666" stroke="#666666" stroke-width="2.0" stroke-linecap="butt" d="m194.7559 254.48819c-1.8170166 0 -3.2899933 -1.4729767 -3.2899933 -3.2899933c0 -1.8170166 1.4729767 -3.2900085 3.2899933 -3.2900085c1.8170166 0 3.2899933 1.472992 3.2899933 3.2900085c0 1.8170166 -1.4729767 3.2899933 -3.2899933 3.2899933z" fill-rule="nonzero"/><path fill="#000000" fill-opacity="0.0" d="m215.68504 143.91339l89.00786 0l0 111.55905" fill-rule="evenodd"/><path stroke="#666666" stroke-width="2.0" stroke-linejoin="round" stroke-linecap="butt" stroke-dasharray="2.0,6.0" d="m223.26503 143.91339l81.42787 0l0 103.979065" fill-rule="evenodd"/><path fill="#666666" stroke="#666666" stroke-width="2.0" stroke-linecap="butt" d="m216.68504 143.91339c0 -1.8170166 1.4729767 -3.2900085 3.2899933 -3.2900085c1.8170166 0 3.2900085 1.472992 3.2900085 3.2900085c0 1.8170166 -1.472992 3.2899933 -3.2900085 3.2899933c-1.8170166 0 -3.2899933 -1.4729767 -3.2899933 -3.2899933z" fill-rule="nonzero"/><path fill="#666666" stroke="#666666" stroke-width="2.0" stroke-linecap="butt" d="m304.6929 254.47244c-1.8170166 0 -3.289978 -1.472992 -3.289978 -3.2900085c0 -1.8170166 1.4729614 -3.2899933 3.289978 -3.2899933c1.8170166 0 3.2900085 1.4729767 3.2900085 3.2899933c0 1.8170166 -1.472992 3.2900085 -3.2900085 3.2900085z" fill-rule="nonzero"/><path fill="#fff2cc" d="m180.80328 115.64567l27.905243 0l0 0c1.8502808 0 3.6247864 0.7350235 4.933136 2.043373c1.3083496 1.3083572 2.0433807 3.0828552 2.0433807 4.9331436l0 49.55892c0 1.8310547E-4 -1.5258789E-4 3.5095215E-4 -3.5095215E-4 3.5095215E-4l-41.857925 -3.5095215E-4l0 0c-1.8310547E-4 0 -3.5095215E-4 -1.6784668E-4 -3.5095215E-4 -3.5095215E-4l3.5095215E-4 -49.55857l0 0c0 -3.8530197 3.1235046 -6.9765167 6.9765167 -6.9765167z" fill-rule="evenodd"/><path stroke="#666666" stroke-width="2.0" stroke-linejoin="round" stroke-linecap="butt" d="m180.80328 115.64567l27.905243 0l0 0c1.8502808 0 3.6247864 0.7350235 4.933136 2.043373c1.3083496 1.3083572 2.0433807 3.0828552 2.0433807 4.9331436l0 49.55892c0 1.8310547E-4 -1.5258789E-4 3.5095215E-4 -3.5095215E-4 3.5095215E-4l-41.857925 -3.5095215E-4l0 0c-1.8310547E-4 0 -3.5095215E-4 -1.6784668E-4 -3.5095215E-4 -3.5095215E-4l3.5095215E-4 -49.55857l0 0c0 -3.8530197 3.1235046 -6.9765167 6.9765167 -6.9765167z" fill-rule="evenodd"/><path fill="#000000" fill-opacity="0.0" d="m181.46326 139.73753l26.582672 0" fill-rule="evenodd"/><path stroke="#999999" stroke-width="2.0" stroke-linejoin="round" stroke-linecap="butt" d="m181.46326 139.73753l26.582672 0" fill-rule="evenodd"/><path fill="#b7b7b7" d="m182.36089 156.9029l0 0c0 -2.104782 1.5863953 -3.8110352 3.5433197 -3.8110352l0 0c0.93974304 0 1.8409882 0.40151978 2.5054932 1.1162262c0.66448975 0.7147064 1.0378113 1.6840515 1.0378113 2.694809l0 0c0 2.1047668 -1.5863953 3.81102 -3.5433044 3.81102l0 0c-1.9569244 0 -3.5433197 -1.706253 -3.5433197 -3.81102z" fill-rule="evenodd"/><path fill="#000000" fill-opacity="0.0" d="m181.46326 130.0971l26.582672 0" fill-rule="evenodd"/><path stroke="#999999" stroke-width="2.0" stroke-linejoin="round" stroke-linecap="butt" d="m181.46326 130.0971l26.582672 0" fill-rule="evenodd"/><path fill="#666666" d="m51.665607 45.709553l76.514465 0l0 66.21889l-76.514465 0z" fill-rule="evenodd"/><path fill="#ffd966" d="m68.26074 72.72712l2.015625 -0.296875q0.125 0.578125 0.515625 0.890625q0.40625 0.296875 1.109375 0.296875q0.78125 0 1.171875 -0.28125q0.265625 -0.203125 0.265625 -0.546875q0 -0.21875 -0.140625 -0.375q-0.15625 -0.140625 -0.671875 -0.265625q-2.4375 -0.53125 -3.078125 -0.984375q-0.90625 -0.609375 -0.90625 -1.703125q0 -0.984375 0.78125 -1.65625q0.78125 -0.671875 2.421875 -0.671875q1.546875 0 2.3125 0.515625q0.765625 0.5 1.046875 1.484375l-1.90625 0.359375q-0.109375 -0.453125 -0.453125 -0.6875q-0.34375 -0.234375 -0.96875 -0.234375q-0.796875 0 -1.140625 0.21875q-0.234375 0.15625 -0.234375 0.40625q0 0.21875 0.203125 0.375q0.28125 0.203125 1.875 0.5625q1.609375 0.359375 2.25 0.890625q0.625 0.546875 0.625 1.5q0 1.046875 -0.875 1.796875q-0.859375 0.75 -2.578125 0.75q-1.546875 0 -2.453125 -0.625q-0.90625 -0.640625 -1.1875 -1.71875zm13.260483 -0.25l2.0 0.34375q-0.375 1.09375 -1.21875 1.671875q-0.828125 0.578125 -2.078125 0.578125q-1.984375 0 -2.9375 -1.296875q-0.75 -1.03125 -0.75 -2.625q0 -1.875 0.984375 -2.9375q0.984375 -1.078125 2.5 -1.078125q1.6875 0 2.671875 1.125q0.984375 1.109375 0.9375 3.421875l-5.03125 0q0.015625 0.890625 0.484375 1.390625q0.46875 0.5 1.15625 0.5q0.46875 0 0.78125 -0.25q0.328125 -0.265625 0.5 -0.84375zm0.109375 -2.03125q-0.015625 -0.875 -0.453125 -1.328125q-0.421875 -0.453125 -1.03125 -0.453125q-0.671875 0 -1.09375 0.484375q-0.421875 0.46875 -0.421875 1.296875l3.0 0zm5.572983 4.453125l-2.015625 0l0 -7.59375l1.859375 0l0 1.078125q0.484375 -0.765625 0.859375 -1.0q0.390625 -0.25 0.875 -0.25q0.6875 0 1.328125 0.375l-0.625 1.75q-0.5 -0.328125 -0.9375 -0.328125q-0.421875 0 -0.71875 0.234375q-0.296875 0.234375 -0.46875 0.84375q-0.15625 0.609375 -0.15625 2.546875l0 2.34375zm5.8598785 0l-3.0625 -7.59375l2.109375 0l1.4375 3.875l0.40625 1.296875q0.171875 -0.5 0.21875 -0.65625q0.09375 -0.328125 0.203125 -0.640625l1.453125 -3.875l2.0625 0l-3.015625 7.59375l-1.8125 0zm10.463608 -2.421875l2.0 0.34375q-0.375 1.09375 -1.21875 1.671875q-0.828125 0.578125 -2.078125 0.578125q-1.984375 0 -2.9375 -1.296875q-0.75 -1.03125 -0.75 -2.625q0 -1.875 0.984375 -2.9375q0.984375 -1.078125 2.5 -1.078125q1.6875 0 2.671875 1.125q0.984375 1.109375 0.9375 3.421875l-5.03125 0q0.015625 0.890625 0.484375 1.390625q0.46875 0.5 1.15625 0.5q0.46875 0 0.78125 -0.25q0.328125 -0.265625 0.5 -0.84375zm0.109375 -2.03125q-0.015625 -0.875 -0.453125 -1.328125q-0.421875 -0.453125 -1.03125 -0.453125q-0.671875 0 -1.09375 0.484375q-0.421875 0.46875 -0.421875 1.296875l3.0 0zm5.572983 4.453125l-2.015625 0l0 -7.59375l1.859375 0l0 1.078125q0.484375 -0.765625 0.859375 -1.0q0.390625 -0.25 0.875 -0.25q0.6875 0 1.328125 0.375l-0.625 1.75q-0.5 -0.328125 -0.9375 -0.328125q-0.421875 0 -0.71875 0.234375q-0.296875 0.234375 -0.46875 0.84375q-0.15625 0.609375 -0.15625 2.546875l0 2.34375z" fill-rule="nonzero"/><path fill="#ffd966" d="m69.90313 87.53962l-1.96875 0.359375q-0.109375 -0.59375 -0.46875 -0.890625q-0.34375 -0.296875 -0.90625 -0.296875q-0.75 0 -1.203125 0.515625q-0.453125 0.515625 -0.453125 1.734375q0 1.359375 0.453125 1.921875q0.453125 0.546875 1.21875 0.546875q0.578125 0 0.9375 -0.328125q0.375 -0.328125 0.515625 -1.109375l1.984375 0.328125q-0.3125 1.359375 -1.1875 2.0625q-0.875 0.6875 -2.328125 0.6875q-1.671875 0 -2.671875 -1.046875q-0.984375 -1.0625 -0.984375 -2.921875q0 -1.875 0.984375 -2.921875q1.0 -1.046875 2.703125 -1.046875q1.390625 0 2.203125 0.59375q0.828125 0.59375 1.171875 1.8125zm1.0729828 1.453125q0 -1.0 0.484375 -1.9375q0.5 -0.9375 1.40625 -1.421875q0.90625 -0.5 2.015625 -0.5q1.71875 0 2.828125 1.125q1.109375 1.109375 1.109375 2.8125q0 1.734375 -1.125 2.875q-1.109375 1.125 -2.796875 1.125q-1.046875 0 -2.0 -0.46875q-0.9375 -0.46875 -1.4375 -1.375q-0.484375 -0.921875 -0.484375 -2.234375zm2.046875 0.109375q0 1.125 0.53125 1.734375q0.546875 0.59375 1.34375 0.59375q0.78125 0 1.3125 -0.59375q0.53125 -0.609375 0.53125 -1.75q0 -1.125 -0.53125 -1.71875q-0.53125 -0.609375 -1.3125 -0.609375q-0.796875 0 -1.34375 0.609375q-0.53125 0.59375 -0.53125 1.734375zm14.280746 3.796875l-2.015625 0l0 -3.875q0 -1.234375 -0.125 -1.59375q-0.125 -0.359375 -0.421875 -0.5625q-0.296875 -0.203125 -0.703125 -0.203125q-0.515625 0 -0.9375 0.296875q-0.40625 0.28125 -0.5625 0.75q-0.15625 0.46875 -0.15625 1.75l0 3.4375l-2.015625 0l0 -7.59375l1.875 0l0 1.109375q1.0 -1.28125 2.5 -1.28125q0.671875 0 1.21875 0.234375q0.546875 0.234375 0.828125 0.609375q0.296875 0.375 0.40625 0.84375q0.109375 0.46875 0.109375 1.359375l0 4.71875zm1.3276215 -2.171875l2.015625 -0.296875q0.125 0.578125 0.515625 0.890625q0.40625 0.296875 1.109375 0.296875q0.78125 0 1.171875 -0.28125q0.265625 -0.203125 0.265625 -0.546875q0 -0.21875 -0.140625 -0.375q-0.15625 -0.140625 -0.671875 -0.265625q-2.4375 -0.53125 -3.078125 -0.984375q-0.90625 -0.609375 -0.90625 -1.703125q0 -0.984375 0.78125 -1.65625q0.78125 -0.671875 2.421875 -0.671875q1.546875 0 2.3125 0.515625q0.765625 0.5 1.046875 1.484375l-1.90625 0.359375q-0.109375 -0.453125 -0.453125 -0.6875q-0.34375 -0.234375 -0.96875 -0.234375q-0.796875 0 -1.140625 0.21875q-0.234375 0.15625 -0.234375 0.40625q0 0.21875 0.203125 0.375q0.28125 0.203125 1.875 0.5625q1.609375 0.359375 2.25 0.890625q0.625 0.546875 0.625 1.5q0 1.046875 -0.875 1.796875q-0.859375 0.75 -2.578125 0.75q-1.546875 0 -2.453125 -0.625q-0.90625 -0.640625 -1.1875 -1.71875zm8.401108 -1.734375q0 -1.0 0.484375 -1.9375q0.5 -0.9375 1.40625 -1.421875q0.90625 -0.5 2.015625 -0.5q1.71875 0 2.828125 1.125q1.109375 1.109375 1.109375 2.8125q0 1.734375 -1.125 2.875q-1.109375 1.125 -2.796875 1.125q-1.046875 0 -2.0 -0.46875q-0.9375 -0.46875 -1.4375 -1.375q-0.484375 -0.921875 -0.484375 -2.234375zm2.046875 0.109375q0 1.125 0.53125 1.734375q0.546875 0.59375 1.34375 0.59375q0.78125 0 1.3125 -0.59375q0.53125 -0.609375 0.53125 -1.75q0 -1.125 -0.53125 -1.71875q-0.53125 -0.609375 -1.3125 -0.609375q-0.796875 0 -1.34375 0.609375q-0.53125 0.59375 -0.53125 1.734375zm7.3588715 3.796875l0 -10.484375l2.015625 0l0 10.484375l-2.015625 0zm8.478226 -2.421875l2.0 0.34375q-0.375 1.09375 -1.21875 1.671875q-0.828125 0.578125 -2.078125 0.578125q-1.984375 0 -2.9375 -1.296875q-0.75 -1.03125 -0.75 -2.625q0 -1.875 0.984375 -2.9375q0.984375 -1.078125 2.5 -1.078125q1.6875 0 2.671875 1.125q0.984375 1.109375 0.9375 3.421875l-5.03125 0q0.015625 0.890625 0.484375 1.390625q0.46875 0.5 1.15625 0.5q0.46875 0 0.78125 -0.25q0.328125 -0.265625 0.5 -0.84375zm0.109375 -2.03125q-0.015625 -0.875 -0.453125 -1.328125q-0.421875 -0.453125 -1.03125 -0.453125q-0.671875 0 -1.09375 0.484375q-0.421875 0.46875 -0.421875 1.296875l3.0 0z" fill-rule="nonzero"/><path fill="#666666" d="m76.379 116.01904l27.08863 0l0 8.909691l-27.08863 0z" fill-rule="evenodd"/><path stroke="#434343" stroke-width="1.0" stroke-linejoin="round" stroke-linecap="butt" d="m76.379 116.01904l27.08863 0l0 8.909691l-27.08863 0z" fill-rule="evenodd"/><path fill="#d9d9d9" d="m42.71583 41.648144l94.40059 0l0 74.377945l-94.40059 0zm9.297241 9.297245l0 55.783455l75.80611 0l0 -55.783455z" fill-rule="evenodd"/><path stroke="#666666" stroke-width="2.0" stroke-linejoin="round" stroke-linecap="butt" d="m42.71583 41.648144l94.40059 0l0 74.377945l-94.40059 0zm9.297241 9.297245l0 55.783455l75.80611 0l0 -55.783455z" fill-rule="evenodd"/><path fill="#666666" d="m65.38281 120.189705l49.066322 0c0.2106247 0 0.41262054 0.08367157 0.56155396 0.23260498c0.14894104 0.14893341 0.23260498 0.3509369 0.23260498 0.5615616l0 3.970726c0 2.2888184E-4 -1.8310547E-4 4.196167E-4 -4.196167E-4 4.196167E-4l-50.65422 -4.196167E-4l0 0c-2.3651123E-4 0 -4.272461E-4 -1.9073486E-4 -4.272461E-4 -4.272461E-4l4.272461E-4 -3.9702988l0 0c0 -0.43860626 0.3555603 -0.79416656 0.79415894 -0.79416656z" fill-rule="evenodd"/><path stroke="#000000" stroke-width="1.0" stroke-linejoin="round" stroke-linecap="butt" d="m65.38281 120.189705l49.066322 0c0.2106247 0 0.41262054 0.08367157 0.56155396 0.23260498c0.14894104 0.14893341 0.23260498 0.3509369 0.23260498 0.5615616l0 3.970726c0 2.2888184E-4 -1.8310547E-4 4.196167E-4 -4.196167E-4 4.196167E-4l-50.65422 -4.196167E-4l0 0c-2.3651123E-4 0 -4.272461E-4 -1.9073486E-4 -4.272461E-4 -4.272461E-4l4.272461E-4 -3.9702988l0 0c0 -0.43860626 0.3555603 -0.79416656 0.79415894 -0.79416656z" fill-rule="evenodd"/><path fill="#000000" fill-opacity="0.0" d="m194.7559 115.64567l0 -36.818893l-57.637802 0" fill-rule="evenodd"/><path stroke="#666666" stroke-width="2.0" stroke-linejoin="round" stroke-linecap="butt" d="m194.7559 108.06567l0 -29.238892l-50.0578 0" fill-rule="evenodd"/><path fill="#666666" stroke="#666666" stroke-width="2.0" stroke-linecap="butt" d="m194.7559 114.64567c-1.8170166 0 -3.2899933 -1.4729843 -3.2899933 -3.290001c0 -1.8170166 1.4729767 -3.290001 3.2899933 -3.290001c1.8170166 0 3.2899933 1.4729843 3.2899933 3.290001c0 1.8170166 -1.4729767 3.290001 -3.2899933 3.290001z" fill-rule="nonzero"/><path fill="#666666" stroke="#666666" stroke-width="2.0" stroke-linecap="butt" d="m138.1181 78.826775c0 -1.8170166 1.472992 -3.290001 3.2900085 -3.290001c1.8170166 0 3.2899933 1.4729843 3.2899933 3.290001c0 1.8170166 -1.4729767 3.2899933 -3.2899933 3.2899933c-1.8170166 0 -3.2900085 -1.4729767 -3.2900085 -3.2899933z" fill-rule="nonzero"/><path fill="#000000" fill-opacity="0.0" d="m152.64568 16.952755l96.59842 0l0 73.6378l-96.59842 0z" fill-rule="evenodd"/><path fill="#cc0000" d="m162.98943 30.513378l4.9375 0q1.65625 0 2.53125 0.265625q1.1875 0.34375 2.015625 1.234375q0.84375 0.875 1.28125 2.15625q0.4375 1.28125 0.4375 3.15625q0 1.640625 -0.40625 2.84375q-0.5 1.453125 -1.4375 2.359375q-0.703125 0.671875 -1.890625 1.0625q-0.890625 0.28125 -2.390625 0.28125l-5.078125 0l0 -13.359375zm2.703125 2.265625l0 8.84375l2.015625 0q1.125 0 1.625 -0.125q0.65625 -0.171875 1.078125 -0.5625q0.4375 -0.390625 0.703125 -1.28125q0.28125 -0.90625 0.28125 -2.453125q0 -1.546875 -0.28125 -2.375q-0.265625 -0.828125 -0.765625 -1.28125q-0.484375 -0.46875 -1.234375 -0.640625q-0.5625 -0.125 -2.21875 -0.125l-1.203125 0zm22.832321 11.09375l-2.9375 0l-1.171875 -3.03125l-5.328125 0l-1.109375 3.03125l-2.859375 0l5.203125 -13.359375l2.84375 0l5.359375 13.359375zm-4.96875 -5.28125l-1.84375 -4.953125l-1.796875 4.953125l3.640625 0zm8.009399 5.28125l0 -11.09375l-3.953125 0l0 -2.265625l10.609375 0l0 2.265625l-3.953125 0l0 11.09375l-2.703125 0zm19.057434 0l-2.9375 0l-1.171875 -3.03125l-5.328125 0l-1.109375 3.03125l-2.859375 0l5.203125 -13.359375l2.84375 0l5.359375 13.359375zm-4.96875 -5.28125l-1.84375 -4.953125l-1.796875 4.953125l3.640625 0z" fill-rule="nonzero"/><path fill="#cc0000" d="m171.55193 60.966503l2.609375 0.828125q-0.59375 2.1875 -2.0 3.2500038q-1.390625 1.0625 -3.546875 1.0625q-2.65625 0 -4.375 -1.8125q-1.703125 -1.8281288 -1.703125 -4.984379q0 -3.328125 1.71875 -5.171875q1.71875 -1.84375 4.515625 -1.84375q2.453125 0 3.984375 1.4375q0.921875 0.859375 1.375 2.46875l-2.671875 0.640625q-0.234375 -1.046875 -0.984375 -1.640625q-0.75 -0.609375 -1.828125 -0.609375q-1.484375 0 -2.421875 1.078125q-0.921875 1.0625 -0.921875 3.4375q0 2.53125 0.90625 3.609375q0.921875 1.078125 2.375 1.078125q1.078125 0 1.84375 -0.671875q0.78125 -0.6875 1.125 -2.15625zm4.926071 4.906254l0 -13.359379l9.90625 0l0 2.265625l-7.21875 0l0 2.953125l6.71875 0l0 2.25l-6.71875 0l0 3.640625l7.46875 0l0 2.2500038l-10.15625 0zm12.474823 0l0 -13.359379l2.625 0l5.453125 8.921875l0 -8.921875l2.515625 0l0 13.359379l-2.703125 0l-5.390625 -8.703129l0 8.703129l-2.5 0zm16.441696 0l0 -11.093754l-3.953125 0l0 -2.265625l10.609375 0l0 2.265625l-3.953125 0l0 11.093754l-2.703125 0zm8.395981 0l0 -13.359379l9.90625 0l0 2.265625l-7.21875 0l0 2.953125l6.71875 0l0 2.25l-6.71875 0l0 3.640625l7.46875 0l0 2.2500038l-10.15625 0zm12.443573 0l0 -13.359379l5.6875 0q2.140625 0 3.109375 0.359375q0.96875 0.359375 1.546875 1.28125q0.578125 0.921875 0.578125 2.109375q0 1.5 -0.890625 2.484375q-0.875 0.96875 -2.625 1.234375q0.875 0.5 1.4375 1.125q0.578125 0.609375 1.53125 2.15625l1.640625 2.6093788l-3.234375 0l-1.9375 -2.9062538q-1.046875 -1.5625 -1.4375 -1.96875q-0.375 -0.40625 -0.8125 -0.546875q-0.421875 -0.15625 -1.34375 -0.15625l-0.546875 0l0 5.578129l-2.703125 0zm2.703125 -7.703129l2.0 0q1.9375 0 2.421875 -0.15625q0.484375 -0.171875 0.75 -0.578125q0.28125 -0.40625 0.28125 -1.0q0 -0.671875 -0.359375 -1.078125q-0.359375 -0.421875 -1.015625 -0.53125q-0.328125 -0.046875 -1.96875 -0.046875l-2.109375 0l0 3.390625z" fill-rule="nonzero"/></g></svg>