<svg version="1.1" viewBox="0.0 0.0 387.4146981627297 354.32020997375326" fill="none" stroke="none" stroke-linecap="square" stroke-miterlimit="10" xmlns:xlink="http://www.w3.org/1999/xlink" xmlns="http://www.w3.org/2000/svg"><clipPath id="p.0"><path d="m0 0l387.4147 0l0 354.32022l-387.4147 0l0 -354.32022z" clip-rule="nonzero"/></clipPath><g clip-path="url(#p.0)"><path fill="#000000" fill-opacity="0.0" d="m0 0l387.4147 0l0 354.32022l-387.4147 0z" fill-rule="evenodd"/><path fill="#38761d" d="m76.00246 133.68246l115.511566 -83.00972l115.51158 83.00972l-44.12149 134.31256l-142.78017 0z" fill-rule="evenodd"/><path fill="#000000" fill-opacity="0.0" d="m114.655846 111.65316l153.73227 0l0 119.11811l-153.73227 0z" fill-rule="evenodd"/><path fill="#ffff00" d="m132.0512 179.37221l0 -20.84375l5.890625 0q2.71875 0 4.796875 1.203125q2.09375 1.203125 3.234375 3.421875q1.140625 2.21875 1.15625 5.09375l0 1.328125q0 2.953125 -1.140625 5.171875q-1.140625 2.21875 -3.25 3.40625q-2.109375 1.1875 -4.921875 1.21875l-5.765625 0zm2.75 -18.59375l0 16.34375l2.890625 0q3.171875 0 4.9375 -1.96875q1.78125 -1.984375 1.78125 -5.640625l0 -1.203125q0 -3.5625 -1.671875 -5.53125q-1.671875 -1.96875 -4.734375 -2.0l-3.203125 0zm25.63852 18.59375q-0.234375 -0.453125 -0.375 -1.625q-1.859375 1.90625 -4.421875 1.90625q-2.28125 0 -3.75 -1.296875q-1.46875 -1.296875 -1.46875 -3.28125q0 -2.421875 1.828125 -3.75q1.84375 -1.34375 5.1875 -1.34375l2.578125 0l0 -1.21875q0 -1.390625 -0.828125 -2.203125q-0.828125 -0.828125 -2.453125 -0.828125q-1.421875 0 -2.375 0.71875q-0.953125 0.703125 -0.953125 1.71875l-2.671875 0q0 -1.15625 0.8125 -2.234375q0.828125 -1.078125 2.234375 -1.703125q1.421875 -0.640625 3.109375 -0.640625q2.6875 0 4.203125 1.34375q1.515625 1.328125 1.578125 3.6875l0 7.125q0 2.140625 0.53125 3.390625l0 0.234375l-2.765625 0zm-4.40625 -2.015625q1.25 0 2.359375 -0.640625q1.125 -0.65625 1.625 -1.6875l0 -3.171875l-2.078125 0q-4.875 0 -4.875 2.84375q0 1.25 0.828125 1.953125q0.84375 0.703125 2.140625 0.703125zm14.374771 -17.234375l0 3.75l2.890625 0l0 2.046875l-2.890625 0l0 9.609375q0 0.9375 0.390625 1.40625q0.390625 0.46875 1.3125 0.46875q0.46875 0 1.265625 -0.171875l0 2.140625q-1.046875 0.28125 -2.03125 0.28125q-1.78125 0 -2.6875 -1.0625q-0.890625 -1.078125 -0.890625 -3.0625l0 -9.609375l-2.828125 0l0 -2.046875l2.828125 0l0 -3.75l2.640625 0zm15.564713 19.25q-0.234375 -0.453125 -0.375 -1.625q-1.859375 1.90625 -4.421875 1.90625q-2.28125 0 -3.75 -1.296875q-1.46875 -1.296875 -1.46875 -3.28125q0 -2.421875 1.828125 -3.75q1.84375 -1.34375 5.1875 -1.34375l2.578125 0l0 -1.21875q0 -1.390625 -0.828125 -2.203125q-0.828125 -0.828125 -2.453125 -0.828125q-1.421875 0 -2.375 0.71875q-0.953125 0.703125 -0.953125 1.71875l-2.671875 0q0 -1.15625 0.8125 -2.234375q0.828125 -1.078125 2.234375 -1.703125q1.421875 -0.640625 3.109375 -0.640625q2.6875 0 4.203125 1.34375q1.515625 1.328125 1.578125 3.6875l0 7.125q0 2.140625 0.53125 3.390625l0 0.234375l-2.765625 0zm-4.40625 -2.015625q1.25 0 2.359375 -0.640625q1.125 -0.65625 1.625 -1.6875l0 -3.171875l-2.078125 0q-4.875 0 -4.875 2.84375q0 1.25 0.828125 1.953125q0.84375 0.703125 2.140625 0.703125zm23.906021 -5.5625q0 3.546875 -1.640625 5.703125q-1.625 2.15625 -4.375 2.15625q-2.9375 0 -4.546875 -2.078125l-0.125 1.796875l-2.4375 0l0 -22.0l2.65625 0l0 8.203125q1.609375 -1.984375 4.421875 -1.984375q2.828125 0 4.4375 2.140625q1.609375 2.125 1.609375 5.84375l0 0.21875zm-2.65625 -0.296875q0 -2.703125 -1.046875 -4.171875q-1.046875 -1.484375 -3.0 -1.484375q-2.625 0 -3.765625 2.4375l0 6.703125q1.21875 2.421875 3.796875 2.421875q1.90625 0 2.953125 -1.46875q1.0625 -1.46875 1.0625 -4.4375zm15.563492 7.875q-0.234375 -0.453125 -0.375 -1.625q-1.859375 1.90625 -4.421875 1.90625q-2.28125 0 -3.75 -1.296875q-1.46875 -1.296875 -1.46875 -3.28125q0 -2.421875 1.828125 -3.75q1.84375 -1.34375 5.1875 -1.34375l2.578125 0l0 -1.21875q0 -1.390625 -0.828125 -2.203125q-0.828125 -0.828125 -2.453125 -0.828125q-1.421875 0 -2.375 0.71875q-0.953125 0.703125 -0.953125 1.71875l-2.671875 0q0 -1.15625 0.8125 -2.234375q0.828125 -1.078125 2.234375 -1.703125q1.421875 -0.640625 3.109375 -0.640625q2.6875 0 4.203125 1.34375q1.515625 1.328125 1.578125 3.6875l0 7.125q0 2.140625 0.53125 3.390625l0 0.234375l-2.765625 0zm-4.40625 -2.015625q1.25 0 2.359375 -0.640625q1.125 -0.65625 1.625 -1.6875l0 -3.171875l-2.078125 0q-4.875 0 -4.875 2.84375q0 1.25 0.828125 1.953125q0.84375 0.703125 2.140625 0.703125zm19.812271 -2.09375q0 -1.078125 -0.8125 -1.671875q-0.8125 -0.59375 -2.828125 -1.015625q-2.0 -0.4375 -3.1875 -1.03125q-1.1875 -0.609375 -1.75 -1.4375q-0.5625 -0.828125 -0.5625 -1.96875q0 -1.90625 1.609375 -3.21875q1.609375 -1.328125 4.125 -1.328125q2.625 0 4.265625 1.359375q1.640625 1.359375 1.640625 3.484375l-2.65625 0q0 -1.09375 -0.9375 -1.875q-0.921875 -0.796875 -2.3125 -0.796875q-1.453125 0 -2.265625 0.640625q-0.8125 0.625 -0.8125 1.640625q0 0.953125 0.75 1.453125q0.765625 0.484375 2.75 0.9375q1.984375 0.4375 3.203125 1.046875q1.234375 0.609375 1.828125 1.484375q0.59375 0.859375 0.59375 2.109375q0 2.078125 -1.65625 3.328125q-1.65625 1.25 -4.3125 1.25q-1.859375 0 -3.296875 -0.65625q-1.421875 -0.65625 -2.234375 -1.828125q-0.8125 -1.1875 -0.8125 -2.5625l2.65625 0q0.0625 1.328125 1.0625 2.109375q1.0 0.78125 2.625 0.78125q1.5 0 2.40625 -0.609375q0.921875 -0.609375 0.921875 -1.625zm12.528549 4.390625q-3.15625 0 -5.1406097 -2.0625q-1.96875 -2.078125 -1.96875 -5.53125l0 -0.484375q0 -2.3125 0.875 -4.125q0.890625 -1.8125 2.46875 -2.828125q1.5937347 -1.03125 3.4374847 -1.03125q3.015625 0 4.6875 2.0q1.6875 1.984375 1.6875 5.6875l0 1.109375l-10.499985 0q0.046875 2.28125 1.3281097 3.703125q1.296875 1.40625 3.265625 1.40625q1.40625 0 2.375 -0.5625q0.96875 -0.578125 1.703125 -1.53125l1.625 1.265625q-1.953125 2.984375 -5.84375 2.984375zm-0.328125 -13.890625q-1.609375 0 -2.703125 1.171875q-1.0781097 1.171875 -1.3437347 3.265625l7.7656097 0l0 -0.1875q-0.109375 -2.03125 -1.09375 -3.140625q-0.96875 -1.109375 -2.625 -1.109375z" fill-rule="nonzero"/><g filter="url(#shadowFilter-p.1)"><use xlink:href="#p.1" transform="matrix(1.0 0.0 0.0 1.0 0.0 2.0)"/></g><defs><filter id="shadowFilter-p.1" filterUnits="userSpaceOnUse"><feGaussianBlur in="SourceAlpha" stdDeviation="2.0" result="blur"/><feComponentTransfer in="blur" color-interpolation-filters="sRGB"><feFuncR type="linear" slope="0" intercept="0.12941177"/><feFuncG type="linear" slope="0" intercept="0.12941177"/><feFuncB type="linear" slope="0" intercept="0.12941177"/><feFuncA type="linear" slope="0.38" intercept="0"/></feComponentTransfer></filter></defs><g id="p.1"><path fill="#551561" d="m164.656 45.86159l0 0c0 -14.694475 12.028122 -26.6067 26.865555 -26.6067l0 0c7.125183 0 13.958542 2.8031979 18.99681 7.792923c5.038254 4.989723 7.8687286 11.75724 7.8687286 18.813778l0 0c0 14.694473 -12.028107 26.6067 -26.86554 26.6067l0 0c-14.837433 0 -26.865555 -11.912228 -26.865555 -26.6067z" fill-rule="evenodd"/><path fill="#ffffff" d="m192.97469 51.721592l-1.890625 0l0 -9.140625l-2.796875 0.953125l0 -1.59375l4.4375 -1.640625l0.25 0l0 11.421875z" fill-rule="nonzero"/></g><path fill="#000000" fill-opacity="0.0" d="m249.73903 9.0003l85.27388 61.42831l-19.99231 27.241875l-85.273865 -61.42831z" fill-rule="evenodd"/><path fill="#551561" d="m258.6605 45.449413l6.7302856 -9.170818l2.8398743 2.0457497q1.217102 0.87675095 1.783081 2.112526q0.5660095 1.2357788 0.35888672 2.6271362q-0.19442749 1.4004936 -1.1281738 2.672821l-0.31430054 0.42830658q-0.93374634 1.2723236 -2.1965637 1.8839302q-1.2628479 0.6116104 -2.6331482 0.47179413q-1.3610535 -0.1524086 -2.574707 -1.0074272l-2.8652344 -2.0640182zm7.5133667 -6.2766266l-4.493042 6.12228l0.9255066 0.66669464q1.1156616 0.80368805 2.2257996 0.50575256q1.1320801 -0.30140305 2.1339722 -1.6401787l0.35131836 -0.47869492q1.0261841 -1.3983002 0.9699402 -2.5364532q-0.04699707 -1.1507492 -1.1753235 -1.9635696l-0.9381714 -0.67583084zm3.8741455 14.672359q-1.5086975 -1.0868034 -1.784668 -2.6913643q-0.27597046 -1.6045647 0.8518982 -3.14143l0.12942505 -0.1763649q0.74884033 -1.0203781 1.733551 -1.5434875q1.0065918 -0.5265732 2.056244 -0.42517853q1.0588989 0.08879852 1.9970703 0.76462555q1.4072876 1.0137444 1.5588379 2.4709206q0.1642456 1.4663086 -1.019104 3.078762l-0.5454407 0.74323654l-4.3612366 -3.1416855q-0.40124512 0.73158646 -0.25332642 1.4543457q0.14788818 0.72276306 0.832489 1.2159348q1.0649719 0.7671547 2.2155151 0.4405594l0.1697998 1.6436157q-0.8436279 0.27809143 -1.7939758 0.094184875q-0.9376526 -0.17477417 -1.7870789 -0.7866745zm3.8891907 -5.7484474q-0.5451355 -0.39271164 -1.1555481 -0.2739792q-0.5977478 0.12786865 -1.1983948 0.73506165l2.5482788 1.8356934l0.110961914 -0.15116882q0.4310608 -0.61380005 0.3544922 -1.169651q-0.07659912 -0.55584717 -0.65979004 -0.97595596zm5.1651 9.189735q0.24038696 -0.3275261 0.036743164 -0.76307297q-0.18170166 -0.43901062 -0.8060913 -1.1198807q-2.077057 -2.2665215 -0.9306946 -3.8285866q0.6656189 -0.9070015 1.8700562 -0.96370316q1.2044373 -0.05670166 2.4215393 0.8200493q1.3058167 0.94067764 1.638855 2.1241798q0.34228516 1.1709023 -0.36956787 2.140892l-1.8383179 -1.3242569q0.28659058 -0.39051437 0.21792603 -0.8251152q-0.06863403 -0.43460083 -0.60113525 -0.8181801q-0.4690857 -0.3379135 -0.87979126 -0.30641556q-0.40148926 0.01889801 -0.6325989 0.3338318q-0.22189331 0.30233383 -0.06896973 0.70134735q0.15292358 0.39901352 0.73583984 1.0307541q0.5921631 0.61914444 0.93182373 1.1334229q1.0570068 1.5702248 0.10479736 2.8677444q-0.68414307 0.9321976 -1.9208069 0.9271736q-1.2239685 0.004108429 -2.4917603 -0.90917206q-0.8621216 -0.6210327 -1.3121643 -1.4074059q-0.44082642 -0.79896927 -0.43289185 -1.6020393q0.007965088 -0.80307007 0.46096802 -1.4203377l1.7368774 1.251194q-0.32595825 0.4969635 -0.1904602 0.9989586q0.15740967 0.49853134 0.7279053 0.90950775q0.5198059 0.37444687 0.92471313 0.37727737q0.42684937 -6.3705444E-4 0.6672058 -0.32816696zm3.5006409 5.41029l-1.8383179 -1.3242569l5.0014954 -6.8151283l1.8383179 1.3242569l-5.0014954 6.8151283zm4.3560486 -9.976067q0.30508423 -0.41571045 0.7654724 -0.48846436q0.47305298 -0.06361771 0.954834 0.2834282q0.4690857 0.3379135 0.553833 0.80337906q0.08477783 0.46546173 -0.2203064 0.8811722q-0.30508423 0.41571045 -0.790802 0.47019958q-0.47305298 0.06362152 -0.9421387 -0.274292q-0.4564209 -0.32878113 -0.54119873 -0.7942467q-0.08477783 -0.46546555 0.2203064 -0.881176zm-0.5649109 7.4114q1.1463623 -1.5620651 2.5969849 -1.9806213q1.4506226 -0.4185562 2.7311096 0.50385666q1.1283264 0.81282043 1.1856384 2.028759l0.5475464 -0.58766174l1.6608276 1.1963959l-4.835083 6.588379q-0.6564026 0.8944092 -1.5428467 1.2572174q-0.8956604 0.37540436 -1.89328 0.17669678q-0.99417114 -0.17697906 -1.995758 -0.89847565q-0.74798584 -0.5388336 -1.2487488 -1.3617401q-0.49734497 -0.80117035 -0.5137024 -1.5447235l1.624939 -0.5240555q0.120666504 1.2616043 1.0968933 1.9648285q0.72262573 0.52056885 1.414917 0.42230225q0.69229126 -0.0982666 1.2192688 -0.81630707l0.26809692 -0.36532593q-1.1608582 0.26140594 -2.1877747 -0.47834778q-1.2424622 -0.89501953 -1.3005371 -2.4003792q-0.048797607 -1.5179596 1.1160583 -3.105217l0.05545044 -0.0755806zm1.723938 1.4536934q-0.6748657 0.91960144 -0.6954956 1.7135391q-0.00793457 0.80306625 0.65130615 1.2779732q0.8367615 0.60276794 1.6539917 0.22862244l2.0986023 -2.8595848q0.094573975 -0.89471436 -0.7168274 -1.4792137q-0.6592407 -0.47490692 -1.4371338 -0.20720673q-0.7686157 0.25510025 -1.5544434 1.3258705zm10.097931 1.9400101l-0.52246094 0.8175621q1.4009705 -0.37730408 2.643402 0.51771545q1.0903015 0.78541565 1.1513062 1.8114548q0.07022095 1.013443 -0.84158325 2.2823029l-3.2357178 4.40905l-1.8383179 -1.3242569l3.1987305 -4.358658q0.42526245 -0.5794754 0.36584473 -1.0266724q-0.059417725 -0.4472046 -0.64260864 -0.8673096q-0.77334595 -0.5570984 -1.6470947 -0.18515778l-3.5315552 4.8121567l-1.8256531 -1.3151245l5.0014954 -6.8151283l1.7242126 1.2420654z" fill-rule="nonzero"/><path fill="#551561" d="m226.47264 40.24649l78.58116 56.501366l3.1758728 -4.3211136l3.256073 11.208099l-11.783478 0.39439392l3.1758728 -4.321121l-78.58118 -56.50136z" fill-rule="evenodd"/><g filter="url(#shadowFilter-p.2)"><use xlink:href="#p.2" transform="matrix(1.0 0.0 0.0 1.0 0.0 2.0)"/></g><defs><filter id="shadowFilter-p.2" filterUnits="userSpaceOnUse"><feGaussianBlur in="SourceAlpha" stdDeviation="2.0" result="blur"/><feComponentTransfer in="blur" color-interpolation-filters="sRGB"><feFuncR type="linear" slope="0" intercept="0.12941177"/><feFuncG type="linear" slope="0" intercept="0.12941177"/><feFuncB type="linear" slope="0" intercept="0.12941177"/><feFuncA type="linear" slope="0.38" intercept="0"/></feComponentTransfer></filter></defs><g id="p.2"><path fill="#701c7f" d="m285.30853 133.73193l0 0c0 -14.694481 12.028107 -26.606705 26.86554 -26.606705l0 0c7.125183 0 13.958557 2.8031921 18.996826 7.7929153c5.038269 4.989731 7.868744 11.757248 7.868744 18.81379l0 0c0 14.694473 -12.028137 26.60669 -26.86557 26.60669l0 0c-14.837433 0 -26.86554 -11.912216 -26.86554 -26.60669z" fill-rule="evenodd"/><path fill="#ffffff" d="m316.1272 139.59192l-7.640625 0l0 -1.3125l3.78125 -4.125q0.828125 -0.921875 1.171875 -1.53125q0.34375 -0.609375 0.34375 -1.234375q0 -0.8125 -0.453125 -1.3125q-0.453125 -0.5 -1.234375 -0.5q-0.921875 0 -1.4375 0.5625q-0.5 0.5625 -0.5 1.546875l-1.890625 0q0 -1.046875 0.46875 -1.875q0.46875 -0.828125 1.34375 -1.28125q0.890625 -0.46875 2.03125 -0.46875q1.65625 0 2.609375 0.828125q0.96875 0.828125 0.96875 2.296875q0 0.859375 -0.484375 1.796875q-0.484375 0.921875 -1.578125 2.109375l-2.78125 2.984375l5.28125 0l0 1.515625z" fill-rule="nonzero"/></g><path fill="#000000" fill-opacity="0.0" d="m363.68063 172.42632l-32.7406 99.31285l-32.34134 -10.41684l32.7406 -99.31285z" fill-rule="evenodd"/><path fill="#701c7f" d="m329.54456 198.1685l10.827484 3.487442l-1.2474976 3.7840424q-0.6506653 1.9736328 -1.7418518 2.7384033q-1.0811768 0.7843933 -2.5387268 0.3149414q-0.8031616 -0.25868225 -1.2759705 -0.8705902q-0.4628296 -0.59228516 -0.50567627 -1.4104309q-0.48217773 0.7639313 -1.2782898 1.0328064q-0.78118896 0.27366638 -1.7033081 -0.023345947q-1.561676 -0.5029907 -2.0370178 -1.7559204q-0.4753723 -1.2529144 0.116363525 -3.0977936l1.384491 -4.1995544zm3.980896 3.7444763l-2.9151 -0.93891907l-0.6311035 1.9142761q-0.25927734 0.786499 -0.029327393 1.3365936q0.22506714 0.5649414 0.89434814 0.7805176q1.4873047 0.47903442 2.006073 -1.044632l0.67510986 -2.0478363zm1.5765076 0.507782l-0.5430298 1.6471863q-0.5279541 1.7012634 0.79574585 2.1276093q0.7287903 0.23474121 1.1978455 -0.09020996q0.4690857 -0.32496643 0.7723999 -1.2449951l0.5136719 -1.558136l-2.7366333 -0.88145447zm-9.477417 10.383179q-0.7025757 -1.1127014 -0.2427063 -2.5076141q0.42559814 -1.2910309 1.3942871 -1.7341156q0.96868896 -0.44308472 2.4162598 0.0067443848l5.2650146 1.695816l-0.7093811 2.151703l-5.1906433 -1.6718597q-1.2641907 -0.4071808 -1.6408997 0.7354431q-0.3571167 1.0832825 0.2644348 1.743103l5.6963196 1.834732l-0.7093506 2.1517181l-8.046265 -2.591629l0.66534424 -2.018158l0.83758545 0.20411682zm-2.7797546 5.6871185l0.7093506 -2.151703l8.046265 2.5916138l-0.7093811 2.1517181l-8.046234 -2.591629zm10.876953 0.99186707q0.4908142 0.15808105 0.70040894 0.57029724q0.2046814 0.42707825 0.018798828 0.9909668q-0.18103027 0.549057 -0.60098267 0.77493286q-0.4199524 0.2258606 -0.9107666 0.06777954q-0.4907837 -0.15808105 -0.6906128 -0.59999084q-0.20471191 -0.427063 -0.02368164 -0.97612q0.17611694 -0.53422546 0.59606934 -0.76008606q0.4199524 -0.22587585 0.9107666 -0.06777954zm-12.20517 3.037033l0.7093506 -2.1517181l11.422394 3.679062l-0.7093506 2.151703l-11.422394 -3.6790466zm3.6179504 2.7493744q1.8739929 0.6035919 2.7106018 1.8087158q0.8366394 1.2051392 0.35720825 2.6593933q-0.3864746 1.1723175 -1.5183716 1.6613312l4.1049194 1.3221588l-0.7093506 2.151703l-11.422394 -3.6790466l0.64086914 -1.9439545l0.8968506 0.17396545q-0.74716187 -1.1270752 -0.33135986 -2.3884277q0.4647522 -1.4097443 1.8639832 -1.9111481q1.414093 -0.49661255 3.4070435 0.14530945zm-0.8729553 2.0990143q-1.1303406 -0.3640747 -1.8673096 -0.1746521q-0.72702026 0.20904541 -0.97161865 0.9510193q-0.3277893 0.9942322 0.3829956 1.682785l3.1679382 1.0203705q0.9798584 -0.12760925 1.3076172 -1.1218567q0.50878906 -1.5432892 -2.0196228 -2.357666z" fill-rule="nonzero"/><path fill="#701c7f" d="m328.1646 162.08838l-29.945435 91.31651l5.1408386 1.6716766l-9.811005 6.6271973l-3.9925232 -11.115768l5.1408386 1.6716766l29.945465 -91.3165z" fill-rule="evenodd"/><g filter="url(#shadowFilter-p.3)"><use xlink:href="#p.3" transform="matrix(1.0 0.0 0.0 1.0 0.0 2.0)"/></g><defs><filter id="shadowFilter-p.3" filterUnits="userSpaceOnUse"><feGaussianBlur in="SourceAlpha" stdDeviation="2.0" result="blur"/><feComponentTransfer in="blur" color-interpolation-filters="sRGB"><feFuncR type="linear" slope="0" intercept="0.12941177"/><feFuncG type="linear" slope="0" intercept="0.12941177"/><feFuncB type="linear" slope="0" intercept="0.12941177"/><feFuncA type="linear" slope="0.38" intercept="0"/></feComponentTransfer></filter></defs><g id="p.3"><path fill="#761e86" d="m236.15248 268.77444l0 0c0 -14.694458 12.028122 -26.60669 26.865555 -26.60669l0 0c7.125183 0 13.958527 2.8032074 18.996796 7.792923c5.038269 4.989731 7.868744 11.757248 7.868744 18.813766l0 0c0 14.694489 -12.028107 26.60672 -26.86554 26.60672l0 0c-14.837433 0 -26.865555 -11.912231 -26.865555 -26.60672z" fill-rule="evenodd"/><path fill="#ffffff" d="m261.51804 268.07196l1.15625 0q0.875 0 1.390625 -0.4375q0.515625 -0.453125 0.515625 -1.296875q0 -0.8125 -0.4375 -1.265625q-0.421875 -0.453125 -1.296875 -0.453125q-0.765625 0 -1.265625 0.453125q-0.484375 0.4375 -0.484375 1.140625l-1.890625 0q0 -0.875 0.453125 -1.59375q0.46875 -0.71875 1.296875 -1.109375q0.84375 -0.40625 1.875 -0.40625q1.703125 0 2.671875 0.859375q0.96875 0.84375 0.96875 2.375q0 0.765625 -0.484375 1.4375q-0.484375 0.671875 -1.265625 1.015625q0.9375 0.328125 1.421875 1.015625q0.5 0.6875 0.5 1.640625q0 1.53125 -1.0625 2.4375q-1.046875 0.90625 -2.75 0.90625q-1.640625 0 -2.6875 -0.875q-1.046875 -0.875 -1.046875 -2.328125l1.890625 0q0 0.75 0.5 1.21875q0.515625 0.46875 1.359375 0.46875q0.890625 0 1.390625 -0.46875q0.515625 -0.46875 0.515625 -1.359375q0 -0.90625 -0.53125 -1.390625q-0.53125 -0.484375 -1.578125 -0.484375l-1.125 0l0 -1.5z" fill-rule="nonzero"/></g><path fill="#000000" fill-opacity="0.0" d="m137.13518 297.05246l105.49431 0.28231812l0 27.637085l-105.49431 -0.2822876z" fill-rule="evenodd"/><path fill="#761e86" d="m171.77301 316.06772q0 1.6875 -0.59373474 2.9515686q-0.59375 1.2640381 -1.703125 1.9485474q-1.09375 0.68460083 -2.5312347 0.6807556q-1.40625 -0.0037841797 -2.515625 -0.6786194q-1.109375 -0.6904602 -1.7187347 -1.9577332q-0.609375 -1.267273 -0.625 -2.9079285l0 -0.5625q0 -1.671875 0.609375 -2.9515076q0.60935974 -1.2796326 1.7031097 -1.9485779q1.109375 -0.6845398 2.53125 -0.6807251q1.4218597 0.0037841797 2.5312347 0.6942749q1.109375 0.6748352 1.703125 1.9576721q0.60935974 1.282898 0.60935974 2.954773l0 0.5zm-2.3749847 -0.52197266q0 -1.78125 -0.640625 -2.7048645q-0.640625 -0.939209 -1.8281097 -0.9423828q-1.171875 -0.0031433105 -1.8125 0.9170227q-0.640625 0.904541 -0.65625 2.6857605l0 0.546875q0 1.75 0.640625 2.7204895q0.640625 0.954834 1.84375 0.95803833q1.1874847 0.0031738281 1.8124847 -0.9170227q0.640625 -0.935791 0.640625 -2.701416l0 -0.5625zm11.546829 1.8277893q0 1.953125 -0.890625 3.1382446q-0.89060974 1.1694946 -2.3906097 1.1654663q-1.28125 -0.0034179688 -2.0781097 -0.8961792l0 3.9844055l-2.25 -0.0060424805l0 -11.7031555l2.09375 0.0056152344l0.078125 0.8283081q0.81248474 -0.98217773 2.1406097 -0.9786377q1.5625 0.004180908 2.4218597 1.1627502q0.875 1.1585693 0.875 3.1898499l0 0.109375zm-2.2656097 -0.162323q0 -1.1875 -0.421875 -1.8292542q-0.40625 -0.64172363 -1.203125 -0.64385986q-1.0625 -0.0028381348 -1.4687347 0.80859375l0 3.46875q0.42185974 0.82925415 1.4843597 0.8320923q1.609375 0.0043029785 1.609375 -2.636322zm7.554657 4.488983q-1.859375 -0.0049743652 -3.0312347 -1.1487427q-1.171875 -1.1437683 -1.171875 -3.0500183l0 -0.21875q0 -1.265625 0.484375 -2.2643433q0.5 -1.0142822 1.40625 -1.5431213q0.90623474 -0.5444336 2.0624847 -0.5413513q1.734375 0.004638672 2.7187347 1.1010437q1.0 1.096405 1.0 3.0964355l0 0.921875l-5.3749847 -0.014404297q0.109375 0.8284302 0.65625 1.329895q0.546875 0.50146484 1.390625 0.50372314q1.3125 0.0035095215 2.046875 -0.93203735l1.1093597 1.2373657q-0.515625 0.7173767 -1.3906097 1.1212769q-0.859375 0.40396118 -1.90625 0.40115356zm-0.265625 -6.9382324q-0.671875 -0.0018005371 -1.09375 0.4501953q-0.40625 0.45202637 -0.53125 1.2954712l3.140625 0.008392334l0 -0.1875q-0.015625 -0.75006104 -0.40625 -1.1573486q-0.390625 -0.4072876 -1.109375 -0.4092102zm9.773407 0.46365356q-0.46875 -0.06375122 -0.8125 -0.06466675q-1.28125 -0.0034484863 -1.6875 0.8704834l0 5.53125l-2.2499847 -0.006011963l0 -8.4531555l2.1249847 0.0056762695l0.0625 1.0001831q0.6875 -1.154419 1.890625 -1.1511841q0.375 0.0010070801 0.703125 0.09561157l-0.03125 2.171814zm5.742157 6.359131q-0.15625 -0.31292725 -0.21875 -0.76620483q-0.82810974 0.9196472 -2.1406097 0.9161377q-1.234375 -0.0032958984 -2.0625 -0.7242737q-0.81248474 -0.72091675 -0.81248474 -1.8146667q0 -1.34375 0.99998474 -2.059845q1.0 -0.71606445 2.875 -0.7266846l1.046875 0.0028076172l0 -0.484375q0 -0.578125 -0.3125 -0.922699q-0.296875 -0.36019897 -0.9375 -0.36190796q-0.578125 -0.0015258789 -0.90625 0.2788391q-0.3125 0.2647705 -0.3125 0.733551l-2.2656097 -0.006072998q0 -0.734375 0.453125 -1.3581848q0.45310974 -0.6237793 1.2812347 -0.9653015q0.828125 -0.35717773 1.859375 -0.35440063q1.5624847 0.004180908 2.4843597 0.78790283q0.921875 0.7837219 0.921875 2.205597l0 3.671875q0 1.203125 0.328125 1.813385l0 0.140625l-2.28125 -0.0061035156zm-1.8593597 -1.5830994q0.5 0.0013427734 0.921875 -0.21627808q0.421875 -0.21762085 0.625 -0.59210205l0 -1.453125l-0.84375 -0.0022583008q-1.703125 -0.004547119 -1.8125 1.1670227l0 0.12503052q0 0.421875 0.296875 0.70391846q0.296875 0.26641846 0.8125 0.26779175zm8.2499695 -8.931091l0 2.078125l1.4375 0.0038757324l0 1.65625l-1.4375 -0.0038452148l0 4.21875q0 0.46875 0.171875 0.67233276q0.1875 0.2036438 0.6875 0.20498657q0.375 0.0010070801 0.671875 -0.060699463l0 1.71875q-0.671875 0.20132446 -1.375 0.19943237q-2.375 -0.0063476562 -2.421875 -2.4127197l0 -4.5469055l-1.2343597 -0.0032958984l0 -1.65625l1.2343597 0.0032958984l0 -2.078125l2.265625 0.0060424805zm6.5937195 10.7052q-1.8593597 -0.0049743652 -3.0312347 -1.1487427q-1.171875 -1.1437683 -1.171875 -3.0500183l0 -0.21875q0 -1.2656555 0.484375 -2.2643433q0.5 -1.0142822 1.40625 -1.5431213q0.90625 -0.5444641 2.0624847 -0.5413513q1.734375 0.004638672 2.71875 1.1010132q1.0 1.0964355 1.0 3.0964355l0 0.921875l-5.3749847 -0.014373779q0.109375 0.8284302 0.65625 1.329895q0.546875 0.50146484 1.3906097 0.50372314q1.3125 0.0035095215 2.046875 -0.93203735l1.109375 1.2373657q-0.515625 0.7173462 -1.390625 1.1212769q-0.859375 0.40393066 -1.90625 0.40115356zm-0.265625 -6.9382324q-0.67185974 -0.0018005371 -1.0937347 0.4501953q-0.40625 0.45202637 -0.53125 1.2954407l3.1406097 0.008422852l0 -0.1875q-0.015625 -0.75006104 -0.40625 -1.1573486q-0.390625 -0.4072876 -1.109375 -0.4092102z" fill-rule="nonzero"/><path fill="#761e86" d="m243.08844 296.48297l-97.19284 0.025756836l-0.03187561 5.351471l-9.199829 -7.182068l9.2854 -7.186981l-0.03187561 5.351471l97.192856 -0.025787354z" fill-rule="evenodd"/><g filter="url(#shadowFilter-p.4)"><use xlink:href="#p.4" transform="matrix(1.0 0.0 0.0 1.0 0.0 2.0)"/></g><defs><filter id="shadowFilter-p.4" filterUnits="userSpaceOnUse"><feGaussianBlur in="SourceAlpha" stdDeviation="2.0" result="blur"/><feComponentTransfer in="blur" color-interpolation-filters="sRGB"><feFuncR type="linear" slope="0" intercept="0.12941177"/><feFuncG type="linear" slope="0" intercept="0.12941177"/><feFuncB type="linear" slope="0" intercept="0.12941177"/><feFuncA type="linear" slope="0.38" intercept="0"/></feComponentTransfer></filter></defs><g id="p.4"><path fill="#7f2090" d="m91.87615 268.77444l0 0c0 -14.694458 12.028114 -26.60669 26.865547 -26.60669l0 0c7.125183 0 13.958542 2.8032074 18.99681 7.792923c5.038254 4.989731 7.8687286 11.757248 7.8687286 18.813766l0 0c0 14.694489 -12.028107 26.60672 -26.86554 26.60672l0 0c-14.837433 0 -26.865547 -11.912231 -26.865547 -26.60672z" fill-rule="evenodd"/><path fill="#ffffff" d="m121.476074 270.57196l1.40625 0l0 1.53125l-1.40625 0l0 2.53125l-1.90625 0l0 -2.53125l-4.90625 0l-0.0625 -1.15625l4.90625 -7.6875l1.96875 0l0 7.3125zm-4.875 0l2.96875 0l0 -4.75l-0.140625 0.25l-2.828125 4.5z" fill-rule="nonzero"/></g><path fill="#000000" fill-opacity="0.0" d="m51.82729 164.09433l32.398365 99.42578l-32.341324 10.41684l-32.39836 -99.42578z" fill-rule="evenodd"/><path fill="#761e86" d="m47.17324 191.72305l-6.947506 5.3074036l8.753185 0.23394775l0.9536667 2.926651l-10.827297 3.487381l-0.7261429 -2.228424l2.9596596 -0.9532776l5.1888084 -1.4250336l-9.029522 -0.32551575l-0.49861908 -1.5301819l7.112156 -5.5081787l-5.0287094 1.8659363l-2.9596596 0.9532776l-0.7261429 -2.228424l10.827297 -3.487381l0.94882584 2.9118195zm-5.9621353 18.417816q0.24904251 -0.2443695 0.66098404 -0.4427185q-1.1340561 -0.5047455 -1.5406952 -1.752655q-0.38243484 -1.173645 0.045135498 -2.1813812q0.4324112 -0.99287415 1.4734993 -1.3282013q1.2790489 -0.4119568 2.2730103 0.31848145q0.99396515 0.73043823 1.5897522 2.508377l0.32434464 0.9953766l0.46105194 -0.1485138q0.55028915 -0.17723083 0.78066635 -0.57974243q0.25009537 -0.39245605 0.05161667 -1.0015564q-0.1791153 -0.5496826 -0.5484848 -0.7754364q-0.34965515 -0.21568298 -0.7958336 -0.07197571l-0.7019386 -2.1541443q0.6990166 -0.22514343 1.4343109 0.0140686035q0.7352905 0.2392273 1.3190613 0.9212036q0.59864044 0.6772003 0.9181442 1.6577148q0.48409653 1.485611 0.02607727 2.6016388q-0.45801544 1.1160431 -1.8114281 1.5519562l-3.4950752 1.1257324q-1.145195 0.36886597 -1.6235695 0.8676605l-0.13385391 0.043121338l-0.70677567 -2.1690063zm0.92606354 -2.251709q0.15491104 0.47540283 0.49383163 0.80944824q0.3389244 0.3340454 0.7588005 0.4122162l1.3831596 -0.44551086l-0.26141357 -0.80223083q-0.5276642 -1.6193237 -1.6769981 -1.3640289l-0.11898422 0.03831482q-0.40156174 0.1293335 -0.5772896 0.49783325q-0.16085815 0.3637085 -0.0011062622 0.85395813zm0.95222473 8.0159l-0.7019386 -2.1541443l8.046108 -2.591568l0.7019386 2.1541443l-8.046108 2.591568zm9.387615 -5.5352173q0.49079895 -0.15808105 0.90478516 0.05329895q0.41882706 0.22624207 0.6027832 0.7907715q0.1791153 0.5496826 -0.02671051 0.9771118q-0.2058258 0.4274292 -0.69662094 0.58551025q-0.49079895 0.15809631 -0.91446686 -0.08300781q-0.41882706 -0.22624207 -0.59794235 -0.7759094q-0.17427444 -0.53482056 0.03155136 -0.962265q0.2058258 -0.4274292 0.69662094 -0.58551025zm-0.11916351 6.694824l-0.9027443 0.35643005q1.3516083 0.51675415 1.8260231 1.9726562q0.4163208 1.2776337 -0.13886642 2.1458893q-0.5403099 0.8634796 -2.0227356 1.3573761l-5.205433 1.6766205l-0.7019386 -2.1541443l5.1459427 -1.6574554q0.68414307 -0.22036743 0.89964676 -0.61808777q0.2155075 -0.39772034 -0.0071754456 -1.0811005q-0.29529953 -0.9062195 -1.2187462 -1.1176605l-5.6813583 1.8299103l-0.69709396 -2.1392975l8.046108 -2.591568l0.658371 2.0204315zm4.9479866 8.477142l-1.9780617 0.6371155l0.4453659 1.3667755l-1.5764999 0.5077667l-0.44536972 -1.3667603l-4.0156174 1.293396q-0.44618225 0.14370728 -0.5862732 0.36940002q-0.1352539 0.24055481 0.019657135 0.7159424q0.11618042 0.35655212 0.2676506 0.6196594l-1.635994 0.52693176q-0.40150452 -0.5765381 -0.6193466 -1.2450714q-0.7358246 -2.258133 1.5400429 -3.0404053l4.327942 -1.3939972l-0.38243484 -1.173645l1.5765038 -0.5077667l0.38243484 1.1736298l1.9780617 -0.6371155l0.7019386 2.1541443zm-7.671467 10.448807q0.24904251 -0.2443695 0.66098404 -0.4427185q-1.1340561 -0.5047455 -1.5406952 -1.7526703q-0.38243484 -1.1736298 0.045135498 -2.181366q0.4324112 -0.99287415 1.4734993 -1.3282013q1.2790489 -0.41197205 2.2730103 0.3184662q0.99396515 0.73043823 1.5897522 2.5083923l0.32434464 0.9953613l0.46105194 -0.14849854q0.55028915 -0.1772461 0.78066635 -0.5797577q0.25009537 -0.3924408 0.05161667 -1.0015411q-0.1791153 -0.5496826 -0.5484848 -0.7754364q-0.34965515 -0.21568298 -0.7958336 -0.07197571l-0.7019386 -2.1541443q0.69901276 -0.22515869 1.4343071 0.0140686035q0.73529434 0.23921204 1.3190651 0.9212036q0.59864426 0.6772003 0.9181442 1.6576996q0.48409653 1.4856262 0.026081085 2.601654q-0.45801926 1.1160278 -1.8114319 1.5519562l-3.4950752 1.1257324q-1.145195 0.3688507 -1.6235657 0.8676605l-0.13385391 0.04310608l-0.7067795 -2.168991zm0.92606354 -2.251709q0.15491104 0.47538757 0.49383545 0.80944824q0.3389206 0.3340454 0.7587967 0.41220093l1.3831596 -0.4454956l-0.26141357 -0.80223083q-0.5276642 -1.6193237 -1.6769981 -1.3640442l-0.11898422 0.038330078q-0.40156174 0.1293335 -0.5772896 0.49783325q-0.16085815 0.36369324 -0.0011062622 0.85395813zm0.95222473 8.0159l-0.7019386 -2.1541443l8.046112 -2.5915833l0.7019348 2.1541443l-8.046108 2.5915833zm9.387615 -5.5352173q0.49079895 -0.15808105 0.90478516 0.05329895q0.41882706 0.2262268 0.6027832 0.7907715q0.1791153 0.5496826 -0.02671051 0.9771118q-0.2058258 0.4274292 -0.69662094 0.58551025q-0.49079895 0.15808105 -0.91446686 -0.08300781q-0.41882706 -0.22624207 -0.59794235 -0.7759247q-0.17427444 -0.53482056 0.03155136 -0.96224976q0.2058258 -0.4274292 0.69662094 -0.58551025zm-0.11916351 6.694824l-0.9027405 0.3564148q1.3516045 0.51675415 1.8260193 1.9726715q0.4163208 1.2776184 -0.13886261 2.1458893q-0.5403137 0.8634796 -2.0227394 1.3573608l-5.205433 1.6766357l-0.7019386 -2.1541595l5.1459427 -1.6574554q0.68414307 -0.22035217 0.89964676 -0.6180725q0.2155075 -0.39772034 -0.0071754456 -1.0811005q-0.29529953 -0.90623474 -1.2187462 -1.1176758l-5.6813545 1.8299103l-0.6970978 -2.1392822l8.046108 -2.5915833l0.658371 2.0204468z" fill-rule="nonzero"/><path fill="#7f2090" d="m85.08253 264.99094l-29.935055 -91.31053l-5.1727104 1.6401367l4.0249176 -11.1076355l9.86417 6.703766l-5.172714 1.6401215l29.935055 91.31052z" fill-rule="evenodd"/><g filter="url(#shadowFilter-p.5)"><use xlink:href="#p.5" transform="matrix(1.0 0.0 0.0 1.0 0.0 2.0)"/></g><defs><filter id="shadowFilter-p.5" filterUnits="userSpaceOnUse"><feGaussianBlur in="SourceAlpha" stdDeviation="2.0" result="blur"/><feComponentTransfer in="blur" color-interpolation-filters="sRGB"><feFuncR type="linear" slope="0" intercept="0.12941177"/><feFuncG type="linear" slope="0" intercept="0.12941177"/><feFuncB type="linear" slope="0" intercept="0.12941177"/><feFuncA type="linear" slope="0.38" intercept="0"/></feComponentTransfer></filter></defs><g id="p.5"><path fill="#9225a5" d="m42.979153 133.73193l0 0c0 -14.694481 12.028114 -26.606705 26.865543 -26.606705l0 0c7.125183 0 13.958542 2.8031921 18.99681 7.7929153c5.0382614 4.989731 7.8687363 11.757248 7.8687363 18.81379l0 0c0 14.694473 -12.028114 26.60669 -26.865547 26.60669l0 0c-14.837429 0 -26.865543 -11.912216 -26.865543 -26.60669z" fill-rule="evenodd"/><path fill="#ffffff" d="m66.657196 133.9513l0.625 -5.734375l6.109375 0l0 1.640625l-4.53125 0l-0.3125 2.71875q0.78125 -0.453125 1.78125 -0.453125q1.625 0 2.515625 1.046875q0.90625 1.03125 0.90625 2.78125q0 1.734375 -1.0 2.765625q-1.0 1.03125 -2.734375 1.03125q-1.5625 0 -2.59375 -0.890625q-1.03125 -0.890625 -1.109375 -2.34375l1.828125 0q0.109375 0.828125 0.59375 1.28125q0.484375 0.4375 1.265625 0.4375q0.875 0 1.359375 -0.625q0.5 -0.625 0.5 -1.703125q0 -1.046875 -0.546875 -1.640625q-0.53125 -0.609375 -1.484375 -0.609375q-0.515625 0 -0.875 0.140625q-0.359375 0.125 -0.78125 0.53125l-1.515625 -0.375z" fill-rule="nonzero"/></g><path fill="#000000" fill-opacity="0.0" d="m50.68804 70.37147l85.35941 -61.37185l20.049347 27.185413l-85.35942 61.371853z" fill-rule="evenodd"/><path fill="#7f2090" d="m86.84219 67.68298q1.0016785 1.3582077 1.2708511 2.723465q0.2691803 1.3652573 -0.22345734 2.566208q-0.47994995 1.1918335 -1.6470947 2.030983q-1.141777 0.8209152 -2.4413223 0.92775726q-1.3088226 0.0942688 -2.5548477 -0.5686569q-1.2460251 -0.6629181 -2.2325668 -1.9742737l-0.33389282 -0.4527359q-0.99240875 -1.3456268 -1.2581711 -2.732582q-0.26576996 -1.3869553 0.22345734 -2.566208q0.49264526 -1.2009506 1.6471024 -2.030983q1.1544571 -0.83003235 2.4632797 -0.92430115q1.2995453 -0.10684204 2.54216 0.57777405q1.2553024 0.67549896 2.2477036 2.0211258l0.2967987 0.40242767zm-2.234398 0.9714279q-1.0573273 -1.4336548 -2.1246796 -1.8016663q-1.0766296 -0.38058472 -2.0407867 0.3126297q-0.95147705 0.68408966 -0.92440796 1.8000412q0.017799377 1.1033783 1.062439 2.5461578l0.3246231 0.44015503q1.0387726 1.4085083 2.133957 1.8142471q1.0858994 0.39315796 2.0627518 -0.30917358q0.9641571 -0.6932144 0.9244003 -1.8000488q-0.036346436 -1.1285248 -1.084404 -2.5496063l-0.33389282 -0.4527359zm10.441818 -5.2943687q1.1593475 1.5719948 1.1411133 3.0476723q-0.027511597 1.4631119 -1.2453995 2.3387527q-1.0402832 0.74794006 -2.21595 0.4962921l2.3650742 3.206871l-1.8268356 1.3134537l-6.9468307 -9.41938l1.6999741 -1.2222481l0.5549927 0.6209183q0.07537842 -1.2665863 1.153717 -2.041893q1.2686386 -0.91212463 2.6527252 -0.48317337q1.3967667 0.4198265 2.6024933 2.0547028l0.06492615 0.08803177zm-1.9322739 1.1968193q-0.70487976 -0.9557724 -1.427681 -1.2251129q-0.7101135 -0.27845764 -1.3571167 0.18672562q-0.8626709 0.6202431 -0.71022797 1.5113487l2.0590057 2.7918549q0.8340988 0.42024994 1.6967697 -0.19998932q1.306694 -0.9394913 -0.26074982 -3.064827zm1.4783173 -8.722134l1.233551 1.6725998l1.1671448 -0.8391571l0.9831238 1.3330536l-1.1671448 0.8391533l2.5042038 3.395504q0.27824402 0.3772812 0.5383606 0.4404335q0.2728119 0.054031372 0.678772 -0.23784637q0.30447388 -0.21891022 0.5084152 -0.44252014l1.0202332 1.3833542q-0.42494202 0.5557022 -0.9958267 0.966156q-1.9283295 1.3864288 -3.3947067 -0.5228996l-2.698967 -3.6595993l-1.0022202 0.72057724l-0.9831314 -1.3330498l1.0022202 -0.72057724l-1.233551 -1.6726036l1.8395233 -1.3225784zm10.374283 5.51178l-1.8395233 1.3225822l-5.0176697 -6.803589l1.8395233 -1.3225784l5.0176697 6.803585zm-8.257156 -7.168667q-0.30606842 -0.41500854 -0.23442078 -0.87064743q0.0843277 -0.46476364 0.56640625 -0.81137085q0.4693985 -0.33748627 0.9432678 -0.2740593q0.47386932 0.06342697 0.77993774 0.47843552q0.30606842 0.41500473 0.20905304 0.8888893q-0.0843277 0.46475983 -0.5537262 0.8022461q-0.4567032 0.32836533 -0.93058014 0.26493835q-0.47386932 -0.06342697 -0.77993774 -0.4784317zm6.4681625 -1.9562798l0.6199188 0.70895386q0.07388306 -1.4002304 1.3171463 -2.2941132q1.3320694 -0.95772934 2.5873718 -0.28223038q-0.03741455 -1.5511398 1.2946548 -2.5088692q1.116394 -0.80267334 2.1349258 -0.5535126q1.0185242 0.24916077 1.9738312 1.5444832l3.2090836 4.3512764l-1.8395233 1.3225822l-3.1998062 -4.338703q-0.42664337 -0.5784912 -0.8497696 -0.67840576q-0.43239594 -0.11248779 -1.0032806 0.29796982q-0.8246155 0.59288025 -0.5667343 1.6006203l3.4502258 4.678253l-1.8268356 1.3134575l-3.1998062 -4.3386993q-0.4359131 -0.5910721 -0.871727 -0.6818619q-0.42312622 -0.099910736 -0.9940109 0.31054306q-0.77386475 0.5563965 -0.6560669 1.453167l3.552246 4.8165855l-1.8268356 1.3134613l-5.0176697 -6.803589l1.7126617 -1.231369zm16.479782 -1.4374657l-1.8395157 1.3225822l-5.0176697 -6.803585l1.8395233 -1.3225822l5.017662 6.803585zm-8.257149 -7.168667q-0.30606842 -0.41500473 -0.2344284 -0.87064743q0.0843277 -0.46475983 0.5664139 -0.81136703q0.46939087 -0.33748627 0.9432602 -0.2740593q0.47387695 0.06342697 0.7799454 0.4784317q0.30606842 0.41500854 0.20905304 0.8888893q-0.0843277 0.46476364 -0.5537262 0.8022499q-0.45671082 0.32836533 -0.93058014 0.26493835q-0.47386932 -0.06342697 -0.77993774 -0.47843552zm10.793953 3.0931664l3.3491974 -2.4080086l1.0851517 1.4713821l-5.6961746 4.0954437l-0.81617737 -1.1066856l0.11868286 -6.5514336l-3.1335297 2.2529488l-1.0851517 -1.471386l5.493187 -3.949501l0.7883606 1.0689545l-0.10354614 6.5982857zm8.73896 -3.839119q-1.5096741 1.0854263 -3.1382065 0.8514786q-1.62854 -0.23395157 -2.7600632 -1.768219l-0.1298523 -0.17605972q-0.75125885 -1.0186539 -0.9515686 -2.1062737q-0.19689941 -1.109314 0.22356415 -2.0659294q0.41119385 -0.9691925 1.3499832 -1.644165q1.4081802 -1.0124588 2.856659 -0.7067795q1.4611664 0.29655457 2.648346 1.9062767l0.5472107 0.7419815l-4.364105 3.1377106q0.58036804 0.6026764 1.3211823 0.6858635q0.7408142 0.08318329 1.4258728 -0.4093628q1.0656586 -0.76618576 1.105423 -1.94944l1.6334534 0.34589005q0.007980347 0.8794937 -0.4613037 1.7172585q-0.456604 0.8286438 -1.3065948 1.4397697zm-4.333679 -5.4286613q-0.54550934 0.39221573 -0.61907196 1.0031929q-0.06087494 0.6018524 0.33847046 1.3539238l2.5499496 -1.8333702l-0.11129761 -0.15091324q-0.45787048 -0.5945244 -1.0161743 -0.6934662q-0.55830383 -0.0989418 -1.1418762 0.32063293z" fill-rule="nonzero"/><path fill="#9225a5" d="m72.34226 100.7247l78.57 -56.474625l-3.1652374 -4.3631706l11.808884 0.42411423l-3.3100128 11.291302l-3.1652374 -4.3631706l-78.56999 56.474625z" fill-rule="evenodd"/></g></svg>