<svg version="1.1" viewBox="0.0 0.0 415.06824146981626 295.8635170603674" fill="none" stroke="none" stroke-linecap="square" stroke-miterlimit="10" xmlns:xlink="http://www.w3.org/1999/xlink" xmlns="http://www.w3.org/2000/svg"><clipPath id="p.0"><path d="m0 0l415.06824 0l0 295.86353l-415.06824 0l0 -295.86353z" clip-rule="nonzero"/></clipPath><g clip-path="url(#p.0)"><path fill="#000000" fill-opacity="0.0" d="m0 0l415.06824 0l0 295.86353l-415.06824 0z" fill-rule="evenodd"/><path fill="#666666" d="m24.939632 24.782152l101.70503 0l0 67.661606l-101.70503 0z" fill-rule="evenodd"/><path fill="#ffd966" d="m53.885902 64.47295l-2.046875 0l0 -1.2187462q-0.5 0.703125 -1.203125 1.0624962q-0.6875 0.34375 -1.390625 0.34375q-1.421875 0 -2.453125 -1.1562462q-1.015625 -1.15625 -1.015625 -3.21875q0 -2.109375 0.984375 -3.203125q1.0 -1.09375 2.515625 -1.09375q1.390625 0 2.40625 1.15625l0 -4.125l2.203125 0l0 11.453121zm-5.859375 -4.328121q0 1.328125 0.359375 1.921875q0.53125 0.859375 1.484375 0.859375q0.765625 0 1.296875 -0.640625q0.53125 -0.65625 0.53125 -1.9375q0 -1.421875 -0.515625 -2.046875q-0.515625 -0.640625 -1.328125 -0.640625q-0.78125 0 -1.3125 0.625q-0.515625 0.625 -0.515625 1.859375zm12.8203125 1.6875l2.1875 0.359375q-0.421875 1.203125 -1.328125 1.8437462q-0.90625 0.625 -2.28125 0.625q-2.15625 0 -3.203125 -1.4218712q-0.8125 -1.125 -0.8125 -2.859375q0 -2.0625 1.078125 -3.21875q1.078125 -1.171875 2.71875 -1.171875q1.859375 0 2.921875 1.21875q1.078125 1.21875 1.03125 3.75l-5.5 0q0.015625 0.96875 0.515625 1.515625q0.515625 0.546875 1.28125 0.546875q0.515625 0 0.859375 -0.28125q0.359375 -0.28125 0.53125 -0.90625zm0.125 -2.21875q-0.015625 -0.953125 -0.484375 -1.453125q-0.46875 -0.5 -1.140625 -0.5q-0.71875 0 -1.1875 0.53125q-0.46875 0.515625 -0.46875 1.421875l3.28125 0zm3.1953125 2.484375l2.203125 -0.328125q0.140625 0.640625 0.5625 0.96875q0.4375 0.328125 1.21875 0.328125q0.84375 0 1.28125 -0.3125q0.28125 -0.21875 0.28125 -0.578125q0 -0.25 -0.15625 -0.421875q-0.15625 -0.15625 -0.734375 -0.28125q-2.65625 -0.59375 -3.359375 -1.078125q-0.984375 -0.671875 -0.984375 -1.859375q0 -1.078125 0.84375 -1.8125q0.859375 -0.734375 2.640625 -0.734375q1.703125 0 2.53125 0.5625q0.828125 0.546875 1.140625 1.625l-2.0625 0.390625q-0.140625 -0.484375 -0.515625 -0.734375q-0.359375 -0.265625 -1.046875 -0.265625q-0.875 0 -1.25 0.234375q-0.25 0.171875 -0.25 0.453125q0 0.234375 0.21875 0.390625q0.296875 0.21875 2.046875 0.625q1.765625 0.390625 2.453125 0.96875q0.6875 0.59375 0.6875 1.640625q0 1.140625 -0.953125 1.96875q-0.953125 0.8124962 -2.8125 0.8124962q-1.703125 0 -2.6875 -0.6874962q-0.984375 -0.6875 -1.296875 -1.875zm9.6015625 2.3749962l0 -11.453121l2.1875 0l0 6.078125l2.578125 -2.921875l2.703125 0l-2.84375 3.03125l3.046875 5.265621l-2.375 0l-2.078125 -3.7343712l-1.03125 1.078125l0 2.6562462l-2.1875 0zm12.7734375 -8.296871l0 1.75l-1.5 0l0 3.34375q0 1.015625 0.046875 1.1875q0.046875 0.15625 0.1875 0.265625q0.15625 0.109375 0.375 0.109375q0.3125 0 0.890625 -0.203125l0.1875 1.7031212q-0.765625 0.328125 -1.734375 0.328125q-0.59375 0 -1.078125 -0.203125q-0.46875 -0.203125 -0.703125 -0.5156212q-0.21875 -0.3125 -0.296875 -0.859375q-0.078125 -0.375 -0.078125 -1.546875l0 -3.609375l-1.0 0l0 -1.75l1.0 0l0 -1.65625l2.203125 -1.28125l0 2.9375l1.5 0zm1.015625 4.03125q0 -1.09375 0.53125 -2.109375q0.546875 -1.03125 1.53125 -1.5625q1.0 -0.546875 2.21875 -0.546875q1.875 0 3.078125 1.21875q1.203125 1.21875 1.203125 3.09375q0 1.875 -1.21875 3.125q-1.203125 1.2343712 -3.046875 1.2343712q-1.140625 0 -2.1875 -0.515625q-1.03125 -0.5156212 -1.578125 -1.5156212q-0.53125 -1.0 -0.53125 -2.421875zm2.25 0.109375q0 1.234375 0.578125 1.890625q0.59375 0.65625 1.453125 0.65625q0.859375 0 1.4375 -0.65625q0.59375 -0.65625 0.59375 -1.90625q0 -1.21875 -0.59375 -1.875q-0.578125 -0.65625 -1.4375 -0.65625q-0.859375 0 -1.453125 0.65625q-0.578125 0.65625 -0.578125 1.890625zm7.9765625 -4.140625l2.046875 0l0 1.21875q0.390625 -0.625 1.0625 -1.015625q0.6875 -0.390625 1.515625 -0.390625q1.453125 0 2.453125 1.140625q1.015625 1.125 1.015625 3.140625q0 2.078125 -1.015625 3.234375q-1.015625 1.1562462 -2.46875 1.1562462q-0.6875 0 -1.25 -0.265625q-0.546875 -0.28125 -1.171875 -0.9531212l0 4.187496l-2.1875 0l0 -11.453121zm2.171875 4.0q0 1.40625 0.546875 2.078125q0.5625 0.65625 1.359375 0.65625q0.765625 0 1.265625 -0.609375q0.515625 -0.609375 0.515625 -2.015625q0 -1.296875 -0.53125 -1.921875q-0.515625 -0.640625 -1.296875 -0.640625q-0.796875 0 -1.328125 0.625q-0.53125 0.609375 -0.53125 1.828125z" fill-rule="nonzero"/><path fill="#666666" d="m59.187004 96.59095l33.194794 0l0 9.12207l-33.194794 0z" fill-rule="evenodd"/><path stroke="#434343" stroke-width="1.0" stroke-linejoin="round" stroke-linecap="butt" d="m59.187004 96.59095l33.194794 0l0 9.12207l-33.194794 0z" fill-rule="evenodd"/><path fill="#d9d9d9" d="m17.920723 20.635056l115.72735 0l0 75.95439l-115.72735 0zm9.494299 9.494301l0 56.965797l96.738754 0l0 -56.965797z" fill-rule="evenodd"/><path stroke="#666666" stroke-width="2.0" stroke-linejoin="round" stroke-linecap="butt" d="m17.920723 20.635056l115.72735 0l0 75.95439l-115.72735 0zm9.494299 9.494301l0 56.965797l96.738754 0l0 -56.965797z" fill-rule="evenodd"/><path fill="#fff2cc" d="m35.498955 105.71309l80.57089 0c0.9430847 0 1.8475494 0.37464142 2.514412 1.0415039c0.6668625 0.6668625 1.0415039 1.5713272 1.0415039 2.514412l0 17.77916c0 4.043579E-4 -3.2806396E-4 7.324219E-4 -7.324219E-4 7.324219E-4l-87.68199 -7.324219E-4l0 0c-4.0245056E-4 0 -7.305145E-4 -3.2806396E-4 -7.305145E-4 -7.247925E-4l7.305145E-4 -17.778435l0 0c0 -1.9638824 1.5920372 -3.5559158 3.5559196 -3.5559158z" fill-rule="evenodd"/><path stroke="#999999" stroke-width="2.0" stroke-linejoin="round" stroke-linecap="butt" d="m35.498955 105.71309l80.57089 0c0.9430847 0 1.8475494 0.37464142 2.514412 1.0415039c0.6668625 0.6668625 1.0415039 1.5713272 1.0415039 2.514412l0 17.77916c0 4.043579E-4 -3.2806396E-4 7.324219E-4 -7.324219E-4 7.324219E-4l-87.68199 -7.324219E-4l0 0c-4.0245056E-4 0 -7.305145E-4 -3.2806396E-4 -7.305145E-4 -7.247925E-4l7.305145E-4 -17.778435l0 0c0 -1.9638824 1.5920372 -3.5559158 3.5559196 -3.5559158z" fill-rule="evenodd"/><path fill="#000000" fill-opacity="0.0" d="m75.93227 116.38063l36.52726 0" fill-rule="evenodd"/><path stroke="#999999" stroke-width="2.0" stroke-linejoin="round" stroke-linecap="butt" d="m75.93227 116.38063l36.52726 0" fill-rule="evenodd"/><path fill="#b7b7b7" d="m40.61321 116.38063l0 0c0 -2.5189896 2.179863 -4.561035 4.8688583 -4.561035l0 0c2.6889954 0 4.8688583 2.0420456 4.8688583 4.561035l0 0c0 2.518982 -2.179863 4.5610275 -4.8688583 4.5610275l0 0c-2.6889954 0 -4.8688583 -2.0420456 -4.8688583 -4.5610275z" fill-rule="evenodd"/><path fill="#000000" fill-opacity="0.0" d="m350.60428 125.50131l-53.13385 -0.1889801" fill-rule="evenodd"/><path stroke="#666666" stroke-width="2.0" stroke-linejoin="round" stroke-linecap="butt" d="m343.02435 125.47436l-45.553925 -0.16202545" fill-rule="evenodd"/><path stroke="#666666" stroke-width="2.0" stroke-linecap="butt" d="m349.6043 125.49776c-0.0064697266 1.8170013 -1.4846802 3.2847443 -3.3016968 3.2782745c-1.8170166 -0.006454468 -3.284729 -1.4846725 -3.2782593 -3.3016815c0.006439209 -1.8170013 1.4846497 -3.2847366 3.3016663 -3.2782745c1.8170166 0.006462097 3.284729 1.4846725 3.2782898 3.3016815z" fill-rule="nonzero"/><path fill="#000000" fill-opacity="0.0" d="m162.98575 125.31233l-43.37007 92.28346" fill-rule="evenodd"/><path stroke="#666666" stroke-width="2.0" stroke-linejoin="round" stroke-linecap="butt" stroke-dasharray="2.0,6.0" d="m162.98575 125.31233l-40.146027 85.423294" fill-rule="evenodd"/><path stroke="#666666" stroke-width="2.0" stroke-linecap="butt" d="m120.04101 216.69077c-1.6444702 -0.7728424 -2.351059 -2.7324524 -1.5782166 -4.3769226c0.7728424 -1.6444702 2.73246 -2.351059 4.3769226 -1.5782166c1.6444702 0.7728424 2.351059 2.7324677 1.5782166 4.3769226c-0.7728424 1.6444702 -2.73246 2.351059 -4.3769226 1.5782166z" fill-rule="nonzero"/><path fill="#cfe2f3" d="m174.72243 110.91081c-1.0856476 -6.883461 2.4786377 -13.697685 9.180405 -17.551155c6.701782 -3.8534775 15.365692 -4.070389 22.315353 -0.55870056l0 0c2.4616547 -4.002617 6.967346 -6.7661514 12.154144 -7.454666c5.186783 -0.6885147 10.445435 0.7788696 14.185226 3.9582825l0 0c2.0970612 -3.6289597 6.2147675 -6.067169 10.891907 -6.449394c4.6771545 -0.38223267 9.25177 1.3456116 12.10054 4.570381l0 0c3.788742 -3.846466 9.816727 -5.465973 15.475571 -4.1577454c5.658844 1.3082199 9.93222 5.3091965 10.971008 10.271706l0 0c4.6416626 1.0924301 8.508057 3.8695068 10.60025 7.613716c2.0921936 3.7442093 2.204956 8.088272 0.30914307 11.909821c4.5710144 5.132744 5.6403503 11.972137 2.80896 17.965797c-2.831421 5.9936523 -9.138184 10.241089 -16.566711 11.157196c-0.052337646 5.625458 -3.6279297 10.787308 -9.348541 13.495895c-5.7206116 2.7085876 -12.692902 2.5409698 -18.229446 -0.43826294c-2.358307 6.7374268 -8.996277 11.694778 -17.046036 12.730255c-8.049759 1.0354767 -16.068192 -2.0365448 -20.591003 -7.8888245l0 0c-5.543991 2.8845673 -12.19635 3.7155151 -18.45642 2.3054352c-6.260071 -1.4100952 -11.60051 -4.942459 -14.81662 -9.800262l0 0c-5.665222 0.57203674 -11.142731 -1.9605103 -13.714066 -6.3407288c-2.57135 -4.380234 -1.6891327 -9.675705 2.2087708 -13.258316l0 0c-5.0538025 -2.5664215 -7.6325684 -7.6590805 -6.391571 -12.622345c1.2410126 -4.9632645 6.020569 -8.67244 11.846313 -9.193329z" fill-rule="evenodd"/><path fill="#cfe2f3" d="m215.54411 167.2243c0 1.3128204 -1.0642548 2.3770752 -2.3770752 2.3770752c-1.3128357 0 -2.3770905 -1.0642548 -2.3770905 -2.3770752c0 -1.3128204 1.0642548 -2.3770752 2.3770905 -2.3770752c1.3128204 0 2.3770752 1.0642548 2.3770752 2.3770752z" fill-rule="evenodd"/><path fill="#cfe2f3" d="m217.38988 168.54103c0 2.6256409 -2.1285095 4.7541504 -4.7541504 4.7541504c-2.6256409 0 -4.7541504 -2.1285095 -4.7541504 -4.7541504c0 -2.6256561 2.1285095 -4.7541504 4.7541504 -4.7541504c2.6256409 0 4.7541504 2.1284943 4.7541504 4.7541504z" fill-rule="evenodd"/><path fill="#cfe2f3" d="m221.01462 165.44897c0 3.9384766 -3.1927643 7.131241 -7.1312256 7.131241c-3.9384766 0 -7.131241 -3.1927643 -7.131241 -7.131241c0 -3.9384613 3.1927643 -7.1312256 7.131241 -7.1312256c3.9384613 0 7.1312256 3.1927643 7.1312256 7.1312256z" fill-rule="evenodd"/><path fill="#000000" fill-opacity="0.0" d="m177.19449 134.2335l0 0c-2.7554016 0.18609619 -5.510498 -0.36328125 -7.8953705 -1.5743713m14.861465 18.803436c-1.1080017 0.38053894 -2.2694244 0.6338959 -3.4543304 0.7535248m33.219162 7.525131l0 0c-0.83335876 -1.0783234 -1.5310822 -2.230606 -2.0812988 -3.4371948m40.570908 -5.133835c-0.122543335 1.2789764 -0.4011078 2.543167 -0.8310547 3.771469m17.355698 -27.074211l0 0c6.2469177 2.6229172 10.189148 8.106514 10.133423 14.095512m13.7691345 -29.108185c-1.0116882 2.0393372 -2.5561218 3.8484116 -4.5122375 5.2853775m-6.3155212 -24.89698l0 0c0.17236328 0.82354736 0.25216675 1.6594696 0.23822021 2.4961853m-29.055649 -5.4078674l0 0c0.5879364 -1.1515961 1.3665924 -2.2238388 2.3117218 -3.1833572m-23.932388 4.7001724l0 0c0.23986816 -0.95168304 0.61595154 -1.873909 1.1195831 -2.7454453m-26.493896 3.6782074l0 0c1.4705505 0.7430725 2.8309937 1.6374359 4.051483 2.6634521m-34.823364 18.26957l0 0c-0.3210144 -0.9165726 -0.5574341 -1.8536148 -0.707077 -2.8023605" fill-rule="evenodd"/><path stroke="#000000" stroke-width="1.0" stroke-linejoin="round" stroke-linecap="butt" d="m174.72243 110.91081c-1.0856476 -6.883461 2.4786377 -13.697685 9.180405 -17.551155c6.701782 -3.8534775 15.365692 -4.070389 22.315353 -0.55870056l0 0c2.4616547 -4.002617 6.967346 -6.7661514 12.154144 -7.454666c5.186783 -0.6885147 10.445435 0.7788696 14.185226 3.9582825l0 0c2.0970612 -3.6289597 6.2147675 -6.067169 10.891907 -6.449394c4.6771545 -0.38223267 9.25177 1.3456116 12.10054 4.570381l0 0c3.788742 -3.846466 9.816727 -5.465973 15.475571 -4.1577454c5.658844 1.3082199 9.93222 5.3091965 10.971008 10.271706l0 0c4.6416626 1.0924301 8.508057 3.8695068 10.60025 7.613716c2.0921936 3.7442093 2.204956 8.088272 0.30914307 11.909821c4.5710144 5.132744 5.6403503 11.972137 2.80896 17.965797c-2.831421 5.9936523 -9.138184 10.241089 -16.566711 11.157196c-0.052337646 5.625458 -3.6279297 10.787308 -9.348541 13.495895c-5.7206116 2.7085876 -12.692902 2.5409698 -18.229446 -0.43826294c-2.358307 6.7374268 -8.996277 11.694778 -17.046036 12.730255c-8.049759 1.0354767 -16.068192 -2.0365448 -20.591003 -7.8888245l0 0c-5.543991 2.8845673 -12.19635 3.7155151 -18.45642 2.3054352c-6.260071 -1.4100952 -11.60051 -4.942459 -14.81662 -9.800262l0 0c-5.665222 0.57203674 -11.142731 -1.9605103 -13.714066 -6.3407288c-2.57135 -4.380234 -1.6891327 -9.675705 2.2087708 -13.258316l0 0c-5.0538025 -2.5664215 -7.6325684 -7.6590805 -6.391571 -12.622345c1.2410126 -4.9632645 6.020569 -8.67244 11.846313 -9.193329z" fill-rule="evenodd"/><path stroke="#000000" stroke-width="1.0" stroke-linejoin="round" stroke-linecap="butt" d="m215.54411 167.2243c0 1.3128204 -1.0642548 2.3770752 -2.3770752 2.3770752c-1.3128357 0 -2.3770905 -1.0642548 -2.3770905 -2.3770752c0 -1.3128204 1.0642548 -2.3770752 2.3770905 -2.3770752c1.3128204 0 2.3770752 1.0642548 2.3770752 2.3770752z" fill-rule="evenodd"/><path stroke="#000000" stroke-width="1.0" stroke-linejoin="round" stroke-linecap="butt" d="m217.38988 168.54103c0 2.6256409 -2.1285095 4.7541504 -4.7541504 4.7541504c-2.6256409 0 -4.7541504 -2.1285095 -4.7541504 -4.7541504c0 -2.6256561 2.1285095 -4.7541504 4.7541504 -4.7541504c2.6256409 0 4.7541504 2.1284943 4.7541504 4.7541504z" fill-rule="evenodd"/><path stroke="#000000" stroke-width="1.0" stroke-linejoin="round" stroke-linecap="butt" d="m221.01462 165.44897c0 3.9384766 -3.1927643 7.131241 -7.1312256 7.131241c-3.9384766 0 -7.131241 -3.1927643 -7.131241 -7.131241c0 -3.9384613 3.1927643 -7.1312256 7.131241 -7.1312256c3.9384613 0 7.1312256 3.1927643 7.1312256 7.1312256z" fill-rule="evenodd"/><path stroke="#000000" stroke-width="1.0" stroke-linejoin="round" stroke-linecap="butt" d="m177.19449 134.2335l0 0c-2.7554016 0.18609619 -5.510498 -0.36328125 -7.8953705 -1.5743713m14.861465 18.803436c-1.1080017 0.38053894 -2.2694244 0.6338959 -3.4543304 0.7535248m33.219162 7.525131l0 0c-0.83335876 -1.0783234 -1.5310822 -2.230606 -2.0812988 -3.4371948m40.570908 -5.133835c-0.122543335 1.2789764 -0.4011078 2.543167 -0.8310547 3.771469m17.355698 -27.074211l0 0c6.2469177 2.6229172 10.189148 8.106514 10.133423 14.095512m13.7691345 -29.108185c-1.0116882 2.0393372 -2.5561218 3.8484116 -4.5122375 5.2853775m-6.3155212 -24.89698l0 0c0.17236328 0.82354736 0.25216675 1.6594696 0.23822021 2.4961853m-29.055649 -5.4078674l0 0c0.5879364 -1.1515961 1.3665924 -2.2238388 2.3117218 -3.1833572m-23.932388 4.7001724l0 0c0.23986816 -0.95168304 0.61595154 -1.873909 1.1195831 -2.7454453m-26.493896 3.6782074l0 0c1.4705505 0.7430725 2.8309937 1.6374359 4.051483 2.6634521m-34.823364 18.26957l0 0c-0.3210144 -0.9165726 -0.5574341 -1.8536148 -0.707077 -2.8023605" fill-rule="evenodd"/><path fill="#000000" d="m192.353 130.24945l0 -13.359375l2.6875 0l0 13.359375l-2.6875 0zm14.042679 0l-2.5625 0l0 -4.9375q0 -1.5625 -0.171875 -2.015625q-0.15625 -0.46875 -0.53125 -0.71875q-0.359375 -0.265625 -0.875 -0.265625q-0.671875 0 -1.203125 0.375q-0.53125 0.359375 -0.734375 0.96875q-0.1875 0.59375 -0.1875 2.21875l0 4.375l-2.546875 0l0 -9.671875l2.375 0l0 1.421875q1.265625 -1.640625 3.1875 -1.640625q0.84375 0 1.546875 0.3125q0.703125 0.296875 1.0625 0.78125q0.359375 0.46875 0.5 1.078125q0.140625 0.59375 0.140625 1.703125l0 6.015625zm7.036606 -9.671875l0 2.03125l-1.75 0l0 3.90625q0 1.1875 0.046875 1.390625q0.046875 0.1875 0.21875 0.3125q0.1875 0.125 0.4375 0.125q0.359375 0 1.03125 -0.25l0.21875 2.0q-0.890625 0.375 -2.015625 0.375q-0.703125 0 -1.265625 -0.234375q-0.546875 -0.234375 -0.8125 -0.59375q-0.25 -0.375 -0.34375 -1.0q-0.09375 -0.453125 -0.09375 -1.8125l0 -4.21875l-1.171875 0l0 -2.03125l1.171875 0l0 -1.921875l2.578125 -1.5l0 3.421875l1.75 0zm7.368927 6.59375l2.546875 0.421875q-0.484375 1.40625 -1.546875 2.140625q-1.0625 0.734375 -2.65625 0.734375q-2.515625 0 -3.734375 -1.65625q-0.953125 -1.3125 -0.953125 -3.328125q0 -2.40625 1.25 -3.765625q1.265625 -1.359375 3.1875 -1.359375q2.15625 0 3.40625 1.421875q1.25 1.421875 1.1875 4.375l-6.40625 0q0.03125 1.140625 0.609375 1.78125q0.59375 0.625 1.484375 0.625q0.59375 0 1.0 -0.328125q0.421875 -0.328125 0.625 -1.0625zm0.15625 -2.59375q-0.03125 -1.109375 -0.578125 -1.6875q-0.546875 -0.578125 -1.328125 -0.578125q-0.84375 0 -1.390625 0.609375q-0.546875 0.609375 -0.53125 1.65625l3.828125 0zm7.078842 5.671875l-2.5625 0l0 -9.671875l2.375 0l0 1.375q0.609375 -0.984375 1.09375 -1.28125q0.484375 -0.3125 1.109375 -0.3125q0.875 0 1.6875 0.484375l-0.796875 2.234375q-0.640625 -0.421875 -1.203125 -0.421875q-0.53125 0 -0.90625 0.296875q-0.375 0.296875 -0.59375 1.078125q-0.203125 0.765625 -0.203125 3.234375l0 2.984375zm13.604019 0l-2.5625 0l0 -4.9375q0 -1.5625 -0.171875 -2.015625q-0.15625 -0.46875 -0.53125 -0.71875q-0.359375 -0.265625 -0.875 -0.265625q-0.671875 0 -1.203125 0.375q-0.53125 0.359375 -0.734375 0.96875q-0.1875 0.59375 -0.1875 2.21875l0 4.375l-2.546875 0l0 -9.671875l2.375 0l0 1.421875q1.265625 -1.640625 3.1875 -1.640625q0.84375 0 1.546875 0.3125q0.703125 0.296875 1.0625 0.78125q0.359375 0.46875 0.5 1.078125q0.140625 0.59375 0.140625 1.703125l0 6.015625zm8.192856 -3.078125l2.546875 0.421875q-0.484375 1.40625 -1.546875 2.140625q-1.0625 0.734375 -2.65625 0.734375q-2.515625 0 -3.734375 -1.65625q-0.953125 -1.3125 -0.953125 -3.328125q0 -2.40625 1.25 -3.765625q1.265625 -1.359375 3.1875 -1.359375q2.15625 0 3.40625 1.421875q1.25 1.421875 1.1875 4.375l-6.40625 0q0.03125 1.140625 0.609375 1.78125q0.59375 0.625 1.484375 0.625q0.59375 0 1.0 -0.328125q0.421875 -0.328125 0.625 -1.0625zm0.15625 -2.59375q-0.03125 -1.109375 -0.578125 -1.6875q-0.546875 -0.578125 -1.328125 -0.578125q-0.84375 0 -1.390625 0.609375q-0.546875 0.609375 -0.53125 1.65625l3.828125 0zm9.063217 -4.0l0 2.03125l-1.75 0l0 3.90625q0 1.1875 0.046875 1.390625q0.046875 0.1875 0.21875 0.3125q0.1875 0.125 0.4375 0.125q0.359375 0 1.03125 -0.25l0.21875 2.0q-0.890625 0.375 -2.015625 0.375q-0.703125 0 -1.265625 -0.234375q-0.546875 -0.234375 -0.8125 -0.59375q-0.25 -0.375 -0.34375 -1.0q-0.09375 -0.453125 -0.09375 -1.8125l0 -4.21875l-1.171875 0l0 -2.03125l1.171875 0l0 -1.921875l2.578125 -1.5l0 3.421875l1.75 0z" fill-rule="nonzero"/><path fill="#fff2cc" d="m357.5808 20.63517l27.905212 0l0 0c1.8502808 0 3.6247864 0.7350254 4.933136 2.043375c1.3083801 1.3083515 2.043396 3.0828552 2.043396 4.9331436l0 49.558914c0 1.9836426E-4 -1.5258789E-4 3.5095215E-4 -3.6621094E-4 3.5095215E-4l-41.85791 -3.5095215E-4l0 0c-1.8310547E-4 0 -3.3569336E-4 -1.5258789E-4 -3.3569336E-4 -3.4332275E-4l3.3569336E-4 -49.55857l0 0c0 -3.8530254 3.1235046 -6.9765186 6.976532 -6.9765186z" fill-rule="evenodd"/><path stroke="#666666" stroke-width="2.0" stroke-linejoin="round" stroke-linecap="butt" d="m357.5808 20.63517l27.905212 0l0 0c1.8502808 0 3.6247864 0.7350254 4.933136 2.043375c1.3083801 1.3083515 2.043396 3.0828552 2.043396 4.9331436l0 49.558914c0 1.9836426E-4 -1.5258789E-4 3.5095215E-4 -3.6621094E-4 3.5095215E-4l-41.85791 -3.5095215E-4l0 0c-1.8310547E-4 0 -3.3569336E-4 -1.5258789E-4 -3.3569336E-4 -3.4332275E-4l3.3569336E-4 -49.55857l0 0c0 -3.8530254 3.1235046 -6.9765186 6.976532 -6.9765186z" fill-rule="evenodd"/><path fill="#000000" fill-opacity="0.0" d="m358.24075 44.727036l26.582672 0" fill-rule="evenodd"/><path stroke="#999999" stroke-width="2.0" stroke-linejoin="round" stroke-linecap="butt" d="m358.24075 44.727036l26.582672 0" fill-rule="evenodd"/><path fill="#b7b7b7" d="m359.1384 61.892387l0 0c0 -2.1047707 1.5863953 -3.8110237 3.5433044 -3.8110237l0 0c0.9397583 0 1.8410034 0.40151978 2.5054932 1.1162224c0.66452026 0.7147064 1.0378113 1.6840553 1.0378113 2.6948013l0 0c0 2.1047707 -1.5863953 3.8110275 -3.5433044 3.8110275l0 0c-1.9569092 0 -3.5433044 -1.7062569 -3.5433044 -3.8110275z" fill-rule="evenodd"/><path fill="#000000" fill-opacity="0.0" d="m358.24075 35.086613l26.582672 0" fill-rule="evenodd"/><path stroke="#999999" stroke-width="2.0" stroke-linejoin="round" stroke-linecap="butt" d="m358.24075 35.086613l26.582672 0" fill-rule="evenodd"/><path fill="#000000" fill-opacity="0.0" d="m230.07874 87.417755c0 -19.259842 60.26773 -38.519688 120.53543 -38.519688" fill-rule="evenodd"/><path stroke="#666666" stroke-width="2.0" stroke-linejoin="round" stroke-linecap="butt" d="m230.07874 87.417755c0 -9.629921 15.06694 -19.259842 37.667328 -26.482285c11.300201 -3.6112213 24.483765 -6.620571 38.60901 -8.727116c7.062622 -1.0532722 14.360657 -1.8808441 21.776398 -2.4450989c3.7078857 -0.28212738 7.4451904 -0.49842072 11.197235 -0.6441879c0.9379883 -0.036441803 1.8769226 -0.06847763 2.8165283 -0.09602356l0.8896179 -0.023952484" fill-rule="evenodd"/><path stroke="#666666" stroke-width="2.0" stroke-linecap="butt" d="m349.61426 48.911396c0.024230957 1.8168564 -1.4289856 3.3093376 -3.2458496 3.3335571c-1.816864 0.024215698 -3.3093567 -1.4290047 -3.3335571 -3.245861c-0.024230957 -1.8168564 1.4289856 -3.3093376 3.2458496 -3.3335571c1.816864 -0.024215698 3.3093567 1.4290047 3.3335571 3.245861z" fill-rule="nonzero"/><path fill="#fff2cc" d="m357.5808 97.2336l27.905212 0l0 0c1.8502808 0 3.6247864 0.7350235 4.933136 2.043373c1.3083801 1.3083496 2.043396 3.0828552 2.043396 4.9331436l0 49.558914c0 1.9836426E-4 -1.5258789E-4 3.5095215E-4 -3.6621094E-4 3.5095215E-4l-41.85791 -3.5095215E-4l0 0c-1.8310547E-4 0 -3.3569336E-4 -1.5258789E-4 -3.3569336E-4 -3.5095215E-4l3.3569336E-4 -49.558563l0 0c0 -3.8530273 3.1235046 -6.9765167 6.976532 -6.9765167z" fill-rule="evenodd"/><path stroke="#666666" stroke-width="2.0" stroke-linejoin="round" stroke-linecap="butt" d="m357.5808 97.2336l27.905212 0l0 0c1.8502808 0 3.6247864 0.7350235 4.933136 2.043373c1.3083801 1.3083496 2.043396 3.0828552 2.043396 4.9331436l0 49.558914c0 1.9836426E-4 -1.5258789E-4 3.5095215E-4 -3.6621094E-4 3.5095215E-4l-41.85791 -3.5095215E-4l0 0c-1.8310547E-4 0 -3.3569336E-4 -1.5258789E-4 -3.3569336E-4 -3.5095215E-4l3.3569336E-4 -49.558563l0 0c0 -3.8530273 3.1235046 -6.9765167 6.976532 -6.9765167z" fill-rule="evenodd"/><path fill="#000000" fill-opacity="0.0" d="m358.24075 121.32546l26.582672 0" fill-rule="evenodd"/><path stroke="#999999" stroke-width="2.0" stroke-linejoin="round" stroke-linecap="butt" d="m358.24075 121.32546l26.582672 0" fill-rule="evenodd"/><path fill="#b7b7b7" d="m359.1384 138.49081l0 0c0 -2.1047668 1.5863953 -3.81102 3.5433044 -3.81102l0 0c0.9397583 0 1.8410034 0.40151978 2.5054932 1.1162262c0.66452026 0.71469116 1.0378113 1.6840515 1.0378113 2.6947937l0 0c0 2.1047668 -1.5863953 3.81102 -3.5433044 3.81102l0 0c-1.9569092 0 -3.5433044 -1.706253 -3.5433044 -3.81102z" fill-rule="evenodd"/><path fill="#000000" fill-opacity="0.0" d="m358.24075 111.685036l26.582672 0" fill-rule="evenodd"/><path stroke="#999999" stroke-width="2.0" stroke-linejoin="round" stroke-linecap="butt" d="m358.24075 111.685036l26.582672 0" fill-rule="evenodd"/><path fill="#b7b7b7" d="m359.1384 215.08923l0 0c0 -2.1047668 1.5863953 -3.81102 3.5433044 -3.81102l0 0c0.9397583 0 1.8410034 0.40151978 2.5054932 1.1162262c0.66452026 0.7147064 1.0378113 1.6840515 1.0378113 2.6947937l0 0c0 2.104782 -1.5863953 3.8110352 -3.5433044 3.8110352l0 0c-1.9569092 0 -3.5433044 -1.706253 -3.5433044 -3.8110352z" fill-rule="evenodd"/><path fill="#fff2cc" d="m357.5808 173.83202l27.905212 0l0 0c1.8502808 0 3.6247864 0.7350311 4.933136 2.0433807c1.3083801 1.3083496 2.043396 3.0828552 2.043396 4.933136l0 49.558914c0 1.9836426E-4 -1.5258789E-4 3.5095215E-4 -3.6621094E-4 3.5095215E-4l-41.85791 -3.5095215E-4l0 0c-1.8310547E-4 0 -3.3569336E-4 -1.5258789E-4 -3.3569336E-4 -3.3569336E-4l3.3569336E-4 -49.55858l0 0c0 -3.853012 3.1235046 -6.9765167 6.976532 -6.9765167z" fill-rule="evenodd"/><path stroke="#666666" stroke-width="2.0" stroke-linejoin="round" stroke-linecap="butt" d="m357.5808 173.83202l27.905212 0l0 0c1.8502808 0 3.6247864 0.7350311 4.933136 2.0433807c1.3083801 1.3083496 2.043396 3.0828552 2.043396 4.933136l0 49.558914c0 1.9836426E-4 -1.5258789E-4 3.5095215E-4 -3.6621094E-4 3.5095215E-4l-41.85791 -3.5095215E-4l0 0c-1.8310547E-4 0 -3.3569336E-4 -1.5258789E-4 -3.3569336E-4 -3.3569336E-4l3.3569336E-4 -49.55858l0 0c0 -3.853012 3.1235046 -6.9765167 6.976532 -6.9765167z" fill-rule="evenodd"/><path fill="#000000" fill-opacity="0.0" d="m358.24075 197.92389l26.582672 0" fill-rule="evenodd"/><path stroke="#999999" stroke-width="2.0" stroke-linejoin="round" stroke-linecap="butt" d="m358.24075 197.92389l26.582672 0" fill-rule="evenodd"/><path fill="#000000" fill-opacity="0.0" d="m358.24075 188.28346l26.582672 0" fill-rule="evenodd"/><path stroke="#999999" stroke-width="2.0" stroke-linejoin="round" stroke-linecap="butt" d="m358.24075 188.28346l26.582672 0" fill-rule="evenodd"/><path fill="#000000" fill-opacity="0.0" d="m350.60428 202.09973c-60.2677 0 -120.53543 -17.039368 -120.53543 -34.078735" fill-rule="evenodd"/><path stroke="#666666" stroke-width="2.0" stroke-linejoin="round" stroke-linecap="butt" d="m343.0248 202.01036l-0.88946533 -0.021194458c-0.9396057 -0.024368286 -1.87854 -0.052719116 -2.8165283 -0.08494568c-3.7520447 -0.12895203 -7.4893494 -0.3203125 -11.197235 -0.56993103c-7.415741 -0.49919128 -14.713776 -1.2313538 -21.776398 -2.1631927c-14.125244 -1.863678 -27.308807 -4.5260773 -38.60901 -7.7209625c-22.600388 -6.3897705 -37.667313 -14.909454 -37.667313 -23.429138" fill-rule="evenodd"/><path stroke="#666666" stroke-width="2.0" stroke-linecap="butt" d="m349.60437 202.08795c-0.02142334 1.8168793 -1.5116882 3.2724 -3.3285828 3.2509766c-1.8168945 -0.02142334 -3.2724 -1.511673 -3.2509766 -3.3285675c0.02142334 -1.8168945 1.5116882 -3.2724 3.3285828 -3.2509766c1.816864 0.02142334 3.2724 1.511673 3.2509766 3.3285675z" fill-rule="nonzero"/><path fill="#666666" d="m162.56561 225.75853l0 0c0 -4.142853 3.3584595 -7.5013123 7.5013123 -7.5013123l30.005249 0l0 0c1.9894714 0 3.897461 0.7903137 5.3042297 2.1970825c1.4067688 1.4067688 2.1970825 3.3147583 2.1970825 5.3042297l0 48.46193c0 4.1428833 -3.3584442 7.5013123 -7.5013123 7.5013123l-30.005249 0c-4.142853 0 -7.5013123 -3.358429 -7.5013123 -7.5013123z" fill-rule="evenodd"/><path stroke="#000000" stroke-width="1.0" stroke-linejoin="round" stroke-linecap="butt" d="m162.56561 225.75853l0 0c0 -4.142853 3.3584595 -7.5013123 7.5013123 -7.5013123l30.005249 0l0 0c1.9894714 0 3.897461 0.7903137 5.3042297 2.1970825c1.4067688 1.4067688 2.1970825 3.3147583 2.1970825 5.3042297l0 48.46193c0 4.1428833 -3.3584442 7.5013123 -7.5013123 7.5013123l-30.005249 0c-4.142853 0 -7.5013123 -3.358429 -7.5013123 -7.5013123z" fill-rule="evenodd"/><path fill="#efefef" d="m167.24278 221.95538l35.65355 0l0 41.35434l-35.65355 0z" fill-rule="evenodd"/><path stroke="#000000" stroke-width="1.0" stroke-linejoin="round" stroke-linecap="butt" d="m167.24278 221.95538l35.65355 0l0 41.35434l-35.65355 0z" fill-rule="evenodd"/><path fill="#b7b7b7" d="m181.52554 272.00262l0 0c0 -2.1047668 1.5863953 -3.8110352 3.5433044 -3.8110352l0 0c0.93974304 0 1.8410034 0.40151978 2.5054932 1.1162415c0.664505 0.71469116 1.0378113 1.6840515 1.0378113 2.6947937l0 0c0 2.1047668 -1.5863953 3.8110352 -3.5433044 3.8110352l0 0c-1.9569092 0 -3.5433044 -1.7062683 -3.5433044 -3.8110352z" fill-rule="evenodd"/><path stroke="#000000" stroke-width="1.0" stroke-linejoin="round" stroke-linecap="butt" d="m181.52554 272.00262l0 0c0 -2.1047668 1.5863953 -3.8110352 3.5433044 -3.8110352l0 0c0.93974304 0 1.8410034 0.40151978 2.5054932 1.1162415c0.664505 0.71469116 1.0378113 1.6840515 1.0378113 2.6947937l0 0c0 2.1047668 -1.5863953 3.8110352 -3.5433044 3.8110352l0 0c-1.9569092 0 -3.5433044 -1.7062683 -3.5433044 -3.8110352z" fill-rule="evenodd"/><path fill="#666666" d="m37.093338 183.75261l78.609085 0l0 60.306335l-78.609085 0z" fill-rule="evenodd"/><path fill="#ffd966" d="m53.558037 219.76578l0 -11.453125l2.1875 0l0 11.453125l-2.1875 0zm6.0859375 -5.765625l-2.0 -0.359375q0.34375 -1.203125 1.15625 -1.78125q0.828125 -0.578125 2.4375 -0.578125q1.46875 0 2.1875 0.34375q0.71875 0.34375 1.015625 0.890625q0.296875 0.53125 0.296875 1.953125l-0.03125 2.5625q0 1.09375 0.109375 1.625q0.109375 0.515625 0.390625 1.109375l-2.171875 0q-0.078125 -0.21875 -0.203125 -0.65625q-0.0625 -0.1875 -0.078125 -0.25q-0.5625 0.546875 -1.203125 0.828125q-0.640625 0.265625 -1.375 0.265625q-1.28125 0 -2.015625 -0.6875q-0.734375 -0.703125 -0.734375 -1.765625q0 -0.703125 0.328125 -1.25q0.34375 -0.5625 0.9375 -0.84375q0.609375 -0.296875 1.75 -0.515625q1.546875 -0.296875 2.140625 -0.546875l0 -0.21875q0 -0.625 -0.3125 -0.890625q-0.3125 -0.28125 -1.1875 -0.28125q-0.578125 0 -0.90625 0.234375q-0.328125 0.234375 -0.53125 0.8125zm2.9375 1.78125q-0.421875 0.140625 -1.34375 0.34375q-0.90625 0.1875 -1.1875 0.375q-0.4375 0.296875 -0.4375 0.765625q0 0.46875 0.34375 0.8125q0.34375 0.328125 0.875 0.328125q0.59375 0 1.140625 -0.390625q0.390625 -0.296875 0.515625 -0.734375q0.09375 -0.28125 0.09375 -1.0625l0 -0.4375zm4.2578125 -4.3125l2.046875 0l0 1.21875q0.390625 -0.625 1.0625 -1.015625q0.6875 -0.390625 1.515625 -0.390625q1.453125 0 2.453125 1.140625q1.015625 1.125 1.015625 3.140625q0 2.078125 -1.015625 3.234375q-1.015625 1.15625 -2.46875 1.15625q-0.6875 0 -1.25 -0.265625q-0.546875 -0.28125 -1.171875 -0.953125l0 4.1875l-2.1875 0l0 -11.453125zm2.171875 4.0q0 1.40625 0.546875 2.078125q0.5625 0.65625 1.359375 0.65625q0.765625 0 1.265625 -0.609375q0.515625 -0.609375 0.515625 -2.015625q0 -1.296875 -0.53125 -1.921875q-0.515625 -0.640625 -1.296875 -0.640625q-0.796875 0 -1.328125 0.625q-0.53125 0.609375 -0.53125 1.828125zm11.4609375 -4.0l0 1.75l-1.5 0l0 3.34375q0 1.015625 0.046875 1.1875q0.046875 0.15625 0.1875 0.265625q0.15625 0.109375 0.375 0.109375q0.3125 0 0.890625 -0.203125l0.1875 1.703125q-0.765625 0.328125 -1.734375 0.328125q-0.59375 0 -1.078125 -0.203125q-0.46875 -0.203125 -0.703125 -0.515625q-0.21875 -0.3125 -0.296875 -0.859375q-0.078125 -0.375 -0.078125 -1.546875l0 -3.609375l-1.0 0l0 -1.75l1.0 0l0 -1.65625l2.203125 -1.28125l0 2.9375l1.5 0zm1.015625 4.03125q0 -1.09375 0.53125 -2.109375q0.546875 -1.03125 1.53125 -1.5625q1.0 -0.546875 2.21875 -0.546875q1.875 0 3.078125 1.21875q1.203125 1.21875 1.203125 3.09375q0 1.875 -1.21875 3.125q-1.203125 1.234375 -3.046875 1.234375q-1.140625 0 -2.1875 -0.515625q-1.03125 -0.515625 -1.578125 -1.515625q-0.53125 -1.0 -0.53125 -2.421875zm2.25 0.109375q0 1.234375 0.578125 1.890625q0.59375 0.65625 1.453125 0.65625q0.859375 0 1.4375 -0.65625q0.59375 -0.65625 0.59375 -1.90625q0 -1.21875 -0.59375 -1.875q-0.578125 -0.65625 -1.4375 -0.65625q-0.859375 0 -1.453125 0.65625q-0.578125 0.65625 -0.578125 1.890625zm7.9765625 -4.140625l2.046875 0l0 1.21875q0.390625 -0.625 1.0625 -1.015625q0.6875 -0.390625 1.515625 -0.390625q1.453125 0 2.453125 1.140625q1.015625 1.125 1.015625 3.140625q0 2.078125 -1.015625 3.234375q-1.015625 1.15625 -2.46875 1.15625q-0.6875 0 -1.25 -0.265625q-0.546875 -0.28125 -1.171875 -0.953125l0 4.1875l-2.1875 0l0 -11.453125zm2.171875 4.0q0 1.40625 0.546875 2.078125q0.5625 0.65625 1.359375 0.65625q0.765625 0 1.265625 -0.609375q0.515625 -0.609375 0.515625 -2.015625q0 -1.296875 -0.53125 -1.921875q-0.515625 -0.640625 -1.296875 -0.640625q-0.796875 0 -1.328125 0.625q-0.53125 0.609375 -0.53125 1.828125z" fill-rule="nonzero"/><path fill="#d9d9d9" d="m31.953388 183.7512l87.65666 0l0 67.69765l-87.65666 0zm8.462208 8.462204l0 50.77324l70.732254 0l0 -50.77324z" fill-rule="evenodd"/><path stroke="#666666" stroke-width="2.0" stroke-linejoin="round" stroke-linecap="butt" d="m31.953388 183.7512l87.65666 0l0 67.69765l-87.65666 0zm8.462208 8.462204l0 50.77324l70.732254 0l0 -50.77324z" fill-rule="evenodd"/><path fill="#666666" d="m24.939598 281.721l7.567692 -30.270752l86.55159 0l7.5676956 30.270752z" fill-rule="evenodd"/><path stroke="#000000" stroke-width="2.0" stroke-linejoin="round" stroke-linecap="butt" d="m24.939598 281.721l7.567692 -30.270752l86.55159 0l7.5676956 30.270752z" fill-rule="evenodd"/><path fill="#666666" d="m249.3307 246.44095l0 0c0 -1.9801178 1.6051941 -3.585312 3.585312 -3.585312l14.341217 0l0 0c0.9508667 0 1.862793 0.37774658 2.5351868 1.0501099c0.6723633 0.67237854 1.0501099 1.5843201 1.0501099 2.535202l0 31.695526c0 1.9801025 -1.6051941 3.5852966 -3.5852966 3.5852966l-14.341217 0c-1.9801178 0 -3.585312 -1.6051941 -3.585312 -3.5852966z" fill-rule="evenodd"/><path stroke="#000000" stroke-width="1.0" stroke-linejoin="round" stroke-linecap="butt" d="m249.3307 246.44095l0 0c0 -1.9801178 1.6051941 -3.585312 3.585312 -3.585312l14.341217 0l0 0c0.9508667 0 1.862793 0.37774658 2.5351868 1.0501099c0.6723633 0.67237854 1.0501099 1.5843201 1.0501099 2.535202l0 31.695526c0 1.9801025 -1.6051941 3.5852966 -3.5852966 3.5852966l-14.341217 0c-1.9801178 0 -3.585312 -1.6051941 -3.585312 -3.5852966z" fill-rule="evenodd"/><path fill="#efefef" d="m251.56693 245.12083l17.039368 0l0 34.07875l-17.039368 0z" fill-rule="evenodd"/><path stroke="#000000" stroke-width="1.0" stroke-linejoin="round" stroke-linecap="butt" d="m251.56693 245.12083l17.039368 0l0 34.07875l-17.039368 0z" fill-rule="evenodd"/><path fill="#000000" fill-opacity="0.0" d="m162.98575 125.31233l-29.32283 -66.70866" fill-rule="evenodd"/><path stroke="#666666" stroke-width="2.0" stroke-linejoin="round" stroke-linecap="butt" stroke-dasharray="2.0,6.0" d="m162.98575 125.31233l-26.272598 -59.769463" fill-rule="evenodd"/><path stroke="#666666" stroke-width="2.0" stroke-linecap="butt" d="m134.06532 59.519135c1.6634064 -0.73117447 3.604599 0.024547577 4.335785 1.6879578c0.73117065 1.6634064 -0.024551392 3.6046066 -1.6879578 4.3357773c-1.6634064 0.7311783 -3.6046143 -0.024543762 -4.335785 -1.6879501c-0.73117065 -1.6634102 0.024551392 -3.6046066 1.6879578 -4.335785z" fill-rule="nonzero"/><path fill="#000000" fill-opacity="0.0" d="m213.16704 167.2243l46.929123 77.88977" fill-rule="evenodd"/><path stroke="#666666" stroke-width="2.0" stroke-linejoin="round" stroke-linecap="butt" stroke-dasharray="2.0,6.0" d="m213.16704 167.2243l43.01729 71.39717" fill-rule="evenodd"/><path stroke="#666666" stroke-width="2.0" stroke-linecap="butt" d="m259.5801 244.25752c-1.556366 0.9377136 -3.5782166 0.43621826 -4.51593 -1.1201477c-0.9377136 -1.5563507 -0.436203 -3.578186 1.1201477 -4.515915c1.556366 -0.9377136 3.5782166 -0.436203 4.51593 1.1201477c0.9377136 1.556366 0.43618774 3.5782013 -1.1201477 4.515915z" fill-rule="nonzero"/><path fill="#000000" fill-opacity="0.0" d="m213.16704 167.2243l-28.094498 54.740158" fill-rule="evenodd"/><path stroke="#666666" stroke-width="2.0" stroke-linejoin="round" stroke-linecap="butt" stroke-dasharray="2.0,6.0" d="m213.16704 167.2243l-24.633408 47.996475" fill-rule="evenodd"/><path stroke="#666666" stroke-width="2.0" stroke-linecap="butt" d="m185.52916 221.0748c-1.6165466 -0.82966614 -2.2544403 -2.8127136 -1.4247742 -4.429245c0.82966614 -1.6165466 2.8126984 -2.2544403 4.429245 -1.4247742c1.6165466 0.82966614 2.2544403 2.8126984 1.4247742 4.429245c-0.82966614 1.6165466 -2.8127136 2.2544403 -4.429245 1.4247742z" fill-rule="nonzero"/><path fill="#000000" fill-opacity="0.0" d="m137.46457 290.3832l0 -80.787415l25.102356 0l0 80.787415z" fill-rule="evenodd"/><path fill="#000000" d="m158.2177 262.85425l1.03125 -0.171875q0.109375 0.5 0.109375 0.890625q0 0.640625 -0.203125 1.0q-0.203125 0.34375 -0.53125 0.484375q-0.328125 0.140625 -1.390625 0.140625l-3.96875 0l0 0.859375l-0.90625 0l0 -0.859375l-1.71875 0l-0.703125 -1.171875l2.421875 0l0 -1.171875l0.90625 0l0 1.171875l4.046875 0q0.5 0 0.640625 -0.046875q0.140625 -0.0625 0.234375 -0.203125q0.078125 -0.140625 0.078125 -0.40625q0 -0.203125 -0.046875 -0.515625zm0.1875 -5.6560974q0.5625 0.65625 0.796875 1.2655945q0.21875 0.59375 0.21875 1.28125q0 1.140625 -0.546875 1.75q-0.5625 0.609375 -1.4375 0.609375q-0.5 0 -0.921875 -0.21875q-0.421875 -0.234375 -0.671875 -0.609375q-0.25 -0.375 -0.390625 -0.84375q-0.078125 -0.34375 -0.171875 -1.046875q-0.171875 -1.4218445 -0.40625 -2.0937195q-0.234375 0 -0.296875 0q-0.71875 0 -1.015625 0.328125q-0.390625 0.453125 -0.390625 1.3437195q0 0.8125 0.296875 1.21875q0.28125 0.390625 1.015625 0.578125l-0.15625 1.140625q-0.734375 -0.15625 -1.1875 -0.515625q-0.453125 -0.359375 -0.6875 -1.03125q-0.25 -0.671875 -0.25 -1.5625q0 -0.8905945 0.203125 -1.4374695q0.203125 -0.5625 0.53125 -0.8125q0.3125 -0.265625 0.796875 -0.375q0.296875 -0.046875 1.078125 -0.046875l1.5625 0q1.625 0 2.0625 -0.078125q0.4375 -0.07814026 0.828125 -0.29689026l0 1.2187653q-0.359375 0.1875 -0.859375 0.234375zm-2.609375 0.09375q0.265625 0.640625 0.4375 1.9218445q0.109375 0.71875 0.25 1.015625q0.125 0.296875 0.375 0.46875q0.25 0.15625 0.546875 0.15625q0.46875 0 0.78125 -0.34375q0.3125 -0.359375 0.3125 -1.046875q0 -0.671875 -0.296875 -1.2030945q-0.296875 -0.53125 -0.8125 -0.78125q-0.390625 -0.1875 -1.171875 -0.1875l-0.421875 0zm3.46875 -4.068741l0 1.078125l-9.546875 0l0 -1.171875l3.40625 0q-0.921875 -0.734375 -0.921875 -1.890625q0 -0.640625 0.265625 -1.203125q0.25 -0.578125 0.71875 -0.9375q0.453125 -0.375 1.109375 -0.578125q0.65625 -0.203125 1.40625 -0.203125q1.78125 0 2.75 0.875q0.96875 0.875 0.96875 2.109375q0 1.21875 -1.015625 1.921875l0.859375 0zm-3.5 0q1.234375 0 1.78125 -0.328125q0.90625 -0.5625 0.90625 -1.5q0 -0.765625 -0.65625 -1.328125q-0.671875 -0.5625 -2.0 -0.5625q-1.34375 0 -1.984375 0.546875q-0.65625 0.53125 -0.65625 1.296875q0 0.765625 0.671875 1.328125q0.671875 0.546875 1.9375 0.546875zm3.5 -6.3187256l-9.546875 0l0 -1.171875l9.546875 0l0 1.171875zm-2.21875 -7.71109l0.140625 -1.203125q1.0625 0.28125 1.65625 1.0625q0.578125 0.765625 0.578125 1.96875q0 1.515625 -0.9375 2.40625q-0.9375 0.890625 -2.609375 0.890625q-1.75 0 -2.703125 -0.890625q-0.96875 -0.90625 -0.96875 -2.34375q0 -1.390625 0.9375 -2.265625q0.9375 -0.875 2.65625 -0.875q0.109375 0 0.3125 0l0 5.15625q1.140625 -0.0625 1.75 -0.640625q0.59375 -0.578125 0.59375 -1.4375q0 -0.65625 -0.328125 -1.109375q-0.34375 -0.453125 -1.078125 -0.71875zm-1.90625 3.84375l0 -3.859375q-0.859375 0.078125 -1.296875 0.4375q-0.6875 0.5625 -0.6875 1.453125q0 0.8125 0.546875 1.359375q0.53125 0.546875 1.4375 0.609375zm3.078125 -9.084351l1.03125 -0.171875q0.109375 0.5 0.109375 0.890625q0 0.640625 -0.203125 1.0q-0.203125 0.34375 -0.53125 0.484375q-0.328125 0.140625 -1.390625 0.140625l-3.96875 0l0 0.859375l-0.90625 0l0 -0.859375l-1.71875 0l-0.703125 -1.171875l2.421875 0l0 -1.171875l0.90625 0l0 1.171875l4.046875 0q0.5 0 0.640625 -0.046875q0.140625 -0.0625 0.234375 -0.203125q0.078125 -0.140625 0.078125 -0.40625q0 -0.203125 -0.046875 -0.515625z" fill-rule="nonzero"/><path fill="#000000" fill-opacity="0.0" d="m222.67323 302.6824l0 -80.787384l38.866135 0l0 80.787384z" fill-rule="evenodd"/><path fill="#000000" d="m247.12947 279.94492l-9.5625 0l0 -1.078125l0.890625 0q-0.53125 -0.375 -0.78125 -0.84375q-0.265625 -0.484375 -0.265625 -1.15625q0 -0.875 0.453125 -1.546875q0.453125 -0.6875 1.28125 -1.03125q0.828125 -0.34375 1.828125 -0.34375q1.046875 0 1.90625 0.375q0.84375 0.375 1.296875 1.109375q0.453125 0.71875 0.453125 1.53125q0 0.578125 -0.25 1.046875q-0.25 0.46875 -0.625 0.765625l3.375 0l0 1.171875zm-6.078125 -1.0625q1.34375 0 1.984375 -0.53125q0.625 -0.546875 0.625 -1.3125q0 -0.78125 -0.65625 -1.34375q-0.65625 -0.5625 -2.046875 -0.5625q-1.3125 0 -1.96875 0.546875q-0.671875 0.546875 -0.671875 1.296875q0 0.75 0.703125 1.328125q0.703125 0.578125 2.03125 0.578125zm3.421875 -6.3499756l-9.546875 0l0 -1.171875l3.421875 0q-0.9375 -0.828125 -0.9375 -2.078125q0 -0.765625 0.296875 -1.328125q0.296875 -0.5625 0.84375 -0.8125q0.53125 -0.25 1.546875 -0.25l4.375 0l0 1.171875l-4.375 0q-0.890625 0 -1.28125 0.390625q-0.40625 0.375 -0.40625 1.078125q0 0.515625 0.28125 0.984375q0.265625 0.453125 0.734375 0.65625q0.453125 0.1875 1.265625 0.1875l3.78125 0l0 1.171875zm-3.453125 -6.9749756q-1.921875 0 -2.84375 -1.078125q-0.765625 -0.890625 -0.765625 -2.171875q0 -1.421875 0.9375 -2.328125q0.921875 -0.90625 2.578125 -0.90625q1.328125 0 2.09375 0.40625q0.765625 0.390625 1.1875 1.15625q0.421875 0.765625 0.421875 1.671875q0 1.453125 -0.921875 2.359375q-0.9375 0.890625 -2.6875 0.890625zm0 -1.203125q1.328125 0 1.984375 -0.578125q0.65625 -0.59375 0.65625 -1.46875q0 -0.875 -0.65625 -1.453125q-0.671875 -0.578125 -2.03125 -0.578125q-1.28125 0 -1.9375 0.59375q-0.65625 0.578125 -0.65625 1.4375q0 0.875 0.65625 1.46875q0.65625 0.578125 1.984375 0.578125zm3.453125 -6.6468506l-6.90625 0l0 -1.0625l0.984375 0q-1.140625 -0.75001526 -1.140625 -2.1875153q0 -0.625 0.21875 -1.15625q0.21875 -0.53125 0.59375 -0.78125q0.359375 -0.265625 0.859375 -0.375q0.328125 -0.0625 1.140625 -0.0625l4.25 0l0 1.171875l-4.203125 0q-0.71875 0 -1.0625 0.140625q-0.359375 0.140625 -0.5625 0.484375q-0.21875 0.34375 -0.21875 0.8125q0 0.75 0.46875 1.296875q0.46875 0.54689026 1.796875 0.54689026l3.78125 0l0 1.171875zm-2.21875 -12.146866l0.140625 -1.203125q1.0625 0.28125 1.65625 1.0625q0.578125 0.765625 0.578125 1.96875q0 1.515625 -0.9375 2.40625q-0.9375 0.890625 -2.609375 0.890625q-1.75 0 -2.703125 -0.890625q-0.96875 -0.90625 -0.96875 -2.34375q0 -1.390625 0.9375 -2.265625q0.9375 -0.875 2.65625 -0.875q0.109375 0 0.3125 0l0 5.15625q1.140625 -0.0625 1.75 -0.640625q0.59375 -0.578125 0.59375 -1.4375q0 -0.65625 -0.328125 -1.109375q-0.34375 -0.453125 -1.078125 -0.71875zm-1.90625 3.84375l0 -3.859375q-0.859375 0.078125 -1.296875 0.4375q-0.6875 0.5625 -0.6875 1.453125q0 0.8125 0.546875 1.359375q0.53125 0.546875 1.4375 0.609375z" fill-rule="nonzero"/><path fill="#000000" fill-opacity="0.0" d="m331.1391 230.36745l80.787415 0l0 28.692917l-80.787415 0z" fill-rule="evenodd"/><path fill="#b45f06" d="m343.43515 252.35245l2.203125 -0.328125q0.140625 0.640625 0.5625 0.96875q0.4375 0.328125 1.21875 0.328125q0.84375 0 1.28125 -0.3125q0.28125 -0.21875 0.28125 -0.578125q0 -0.25 -0.15625 -0.421875q-0.15625 -0.15625 -0.734375 -0.28125q-2.65625 -0.59375 -3.359375 -1.078125q-0.984375 -0.671875 -0.984375 -1.859375q0 -1.078125 0.84375 -1.8125q0.859375 -0.734375 2.640625 -0.734375q1.703125 0 2.53125 0.5625q0.828125 0.546875 1.140625 1.625l-2.0625 0.390625q-0.140625 -0.484375 -0.515625 -0.734375q-0.359375 -0.265625 -1.046875 -0.265625q-0.875 0 -1.25 0.234375q-0.25 0.171875 -0.25 0.453125q0 0.234375 0.21875 0.390625q0.296875 0.21875 2.046875 0.625q1.765625 0.390625 2.453125 0.96875q0.6875 0.59375 0.6875 1.640625q0 1.140625 -0.953125 1.96875q-0.953125 0.8125 -2.8125 0.8125q-1.703125 0 -2.6875 -0.6875q-0.984375 -0.6875 -1.296875 -1.875zm14.4765625 -0.265625l2.1875 0.359375q-0.421875 1.203125 -1.328125 1.84375q-0.90625 0.625 -2.28125 0.625q-2.15625 0 -3.203125 -1.421875q-0.8125 -1.125 -0.8125 -2.859375q0 -2.0625 1.078125 -3.21875q1.078125 -1.171875 2.71875 -1.171875q1.859375 0 2.921875 1.21875q1.078125 1.21875 1.03125 3.75l-5.5 0q0.015625 0.96875 0.515625 1.515625q0.515625 0.546875 1.28125 0.546875q0.515625 0 0.859375 -0.28125q0.359375 -0.28125 0.53125 -0.90625zm0.125 -2.21875q-0.015625 -0.953125 -0.484375 -1.453125q-0.46875 -0.5 -1.140625 -0.5q-0.71875 0 -1.1875 0.53125q-0.46875 0.515625 -0.46875 1.421875l3.28125 0zm6.0703125 4.859375l-2.1875 0l0 -8.296875l2.03125 0l0 1.171875q0.53125 -0.828125 0.9375 -1.09375q0.421875 -0.265625 0.953125 -0.265625q0.75 0 1.453125 0.40625l-0.6875 1.921875q-0.546875 -0.359375 -1.03125 -0.359375q-0.453125 0 -0.78125 0.25q-0.3125 0.25 -0.5 0.921875q-0.1875 0.65625 -0.1875 2.78125l0 2.5625zm6.4140625 0l-3.34375 -8.296875l2.296875 0l1.5625 4.234375l0.453125 1.40625q0.1875 -0.53125 0.234375 -0.703125q0.109375 -0.359375 0.234375 -0.703125l1.578125 -4.234375l2.25 0l-3.296875 8.296875l-1.96875 0zm11.4140625 -2.640625l2.1875 0.359375q-0.421875 1.203125 -1.328125 1.84375q-0.90625 0.625 -2.28125 0.625q-2.15625 0 -3.203125 -1.421875q-0.8125 -1.125 -0.8125 -2.859375q0 -2.0625 1.078125 -3.21875q1.078125 -1.171875 2.71875 -1.171875q1.859375 0 2.921875 1.21875q1.078125 1.21875 1.03125 3.75l-5.5 0q0.015625 0.96875 0.515625 1.515625q0.515625 0.546875 1.28125 0.546875q0.515625 0 0.859375 -0.28125q0.359375 -0.28125 0.53125 -0.90625zm0.125 -2.21875q-0.015625 -0.953125 -0.484375 -1.453125q-0.46875 -0.5 -1.140625 -0.5q-0.71875 0 -1.1875 0.53125q-0.46875 0.515625 -0.46875 1.421875l3.28125 0zm6.0703125 4.859375l-2.1875 0l0 -8.296875l2.03125 0l0 1.171875q0.53125 -0.828125 0.9375 -1.09375q0.421875 -0.265625 0.953125 -0.265625q0.75 0 1.453125 0.40625l-0.6875 1.921875q-0.546875 -0.359375 -1.03125 -0.359375q-0.453125 0 -0.78125 0.25q-0.3125 0.25 -0.5 0.921875q-0.1875 0.65625 -0.1875 2.78125l0 2.5625zm3.3515625 -2.375l2.203125 -0.328125q0.140625 0.640625 0.5625 0.96875q0.4375 0.328125 1.21875 0.328125q0.84375 0 1.28125 -0.3125q0.28125 -0.21875 0.28125 -0.578125q0 -0.25 -0.15625 -0.421875q-0.15625 -0.15625 -0.734375 -0.28125q-2.65625 -0.59375 -3.359375 -1.078125q-0.984375 -0.671875 -0.984375 -1.859375q0 -1.078125 0.84375 -1.8125q0.859375 -0.734375 2.640625 -0.734375q1.703125 0 2.53125 0.5625q0.828125 0.546875 1.140625 1.625l-2.0625 0.390625q-0.140625 -0.484375 -0.515625 -0.734375q-0.359375 -0.265625 -1.046875 -0.265625q-0.875 0 -1.25 0.234375q-0.25 0.171875 -0.25 0.453125q0 0.234375 0.21875 0.390625q0.296875 0.21875 2.046875 0.625q1.765625 0.390625 2.453125 0.96875q0.6875 0.59375 0.6875 1.640625q0 1.140625 -0.953125 1.96875q-0.953125 0.8125 -2.8125 0.8125q-1.703125 0 -2.6875 -0.6875q-0.984375 -0.6875 -1.296875 -1.875z" fill-rule="nonzero"/></g></svg>