<svg version="1.1" viewBox="0.0 0.0 376.9396325459318 410.3044619422572" fill="none" stroke="none" stroke-linecap="square" stroke-miterlimit="10" xmlns:xlink="http://www.w3.org/1999/xlink" xmlns="http://www.w3.org/2000/svg"><clipPath id="p.0"><path d="m0 0l376.93964 0l0 410.30447l-376.93964 0l0 -410.30447z" clip-rule="nonzero"/></clipPath><g clip-path="url(#p.0)"><path fill="#000000" fill-opacity="0.0" d="m0 0l376.93964 0l0 410.30447l-376.93964 0z" fill-rule="evenodd"/><path fill="#000000" fill-opacity="0.0" d="m22.5958 48.35758l0 0c0 -17.235687 13.972284 -31.207972 31.207972 -31.207972l269.3321 0c8.276855 0 16.214722 3.2879734 22.067352 9.140604c5.8526306 5.8526306 9.140625 13.790501 9.140625 22.067368l0 124.828156c0 17.235687 -13.97229 31.207977 -31.207977 31.207977l-269.3321 0c-17.235687 0 -31.207972 -13.97229 -31.207972 -31.207977z" fill-rule="evenodd"/><path stroke="#ea9999" stroke-width="2.0" stroke-linejoin="round" stroke-linecap="butt" stroke-dasharray="16.0,6.0" d="m22.5958 48.35758l0 0c0 -17.235687 13.972284 -31.207972 31.207972 -31.207972l269.3321 0c8.276855 0 16.214722 3.2879734 22.067352 9.140604c5.8526306 5.8526306 9.140625 13.790501 9.140625 22.067368l0 124.828156c0 17.235687 -13.97229 31.207977 -31.207977 31.207977l-269.3321 0c-17.235687 0 -31.207972 -13.97229 -31.207972 -31.207977z" fill-rule="evenodd"/><path fill="#666666" d="m35.150917 307.70602l68.25197 0l0 56.53543l-68.25197 0z" fill-rule="evenodd"/><path fill="#ffd966" d="m56.772995 335.99l-2.171875 0.390625q-0.109375 -0.65625 -0.5 -0.984375q-0.375 -0.328125 -1.0 -0.328125q-0.8125 0 -1.3125 0.578125q-0.484375 0.5625 -0.484375 1.890625q0 1.46875 0.5 2.078125q0.5 0.609375 1.328125 0.609375q0.625 0 1.015625 -0.34375q0.40625 -0.359375 0.578125 -1.234375l2.15625 0.375q-0.34375 1.484375 -1.296875 2.25q-0.953125 0.75 -2.546875 0.75q-1.828125 0 -2.90625 -1.140625q-1.078125 -1.15625 -1.078125 -3.1875q0 -2.0625 1.078125 -3.203125q1.09375 -1.140625 2.9375 -1.140625q1.515625 0 2.40625 0.65625q0.90625 0.640625 1.296875 1.984375zm1.6640625 5.84375l0 -11.453125l2.1875 0l0 11.453125l-2.1875 0zm4.4453125 -9.421875l0 -2.03125l2.1875 0l0 2.03125l-2.1875 0zm0 9.421875l0 -8.296875l2.1875 0l0 8.296875l-2.1875 0zm9.2421875 -2.640625l2.1875 0.359375q-0.421875 1.203125 -1.328125 1.84375q-0.90625 0.625 -2.28125 0.625q-2.15625 0 -3.203125 -1.421875q-0.8125 -1.125 -0.8125 -2.859375q0 -2.0625 1.078125 -3.21875q1.078125 -1.171875 2.71875 -1.171875q1.859375 0 2.921875 1.21875q1.078125 1.21875 1.03125 3.75l-5.5 0q0.015625 0.96875 0.515625 1.515625q0.515625 0.546875 1.28125 0.546875q0.515625 0 0.859375 -0.28125q0.359375 -0.28125 0.53125 -0.90625zm0.125 -2.21875q-0.015625 -0.953125 -0.484375 -1.453125q-0.46875 -0.5 -1.140625 -0.5q-0.71875 0 -1.1875 0.53125q-0.46875 0.515625 -0.46875 1.421875l3.28125 0zm11.5234375 4.859375l-2.203125 0l0 -4.234375q0 -1.34375 -0.140625 -1.734375q-0.140625 -0.40625 -0.453125 -0.625q-0.3125 -0.21875 -0.765625 -0.21875q-0.5625 0 -1.015625 0.3125q-0.453125 0.3125 -0.625 0.828125q-0.171875 0.515625 -0.171875 1.90625l0 3.765625l-2.1875 0l0 -8.296875l2.03125 0l0 1.21875q1.09375 -1.40625 2.734375 -1.40625q0.734375 0 1.328125 0.265625q0.609375 0.25 0.90625 0.65625q0.3125 0.40625 0.4375 0.921875q0.125 0.515625 0.125 1.484375l0 5.15625zm6.0234375 -8.296875l0 1.75l-1.5 0l0 3.34375q0 1.015625 0.046875 1.1875q0.046875 0.15625 0.1875 0.265625q0.15625 0.109375 0.375 0.109375q0.3125 0 0.890625 -0.203125l0.1875 1.703125q-0.765625 0.328125 -1.734375 0.328125q-0.59375 0 -1.078125 -0.203125q-0.46875 -0.203125 -0.703125 -0.515625q-0.21875 -0.3125 -0.296875 -0.859375q-0.078125 -0.375 -0.078125 -1.546875l0 -3.609375l-1.0 0l0 -1.75l1.0 0l0 -1.65625l2.203125 -1.28125l0 2.9375l1.5 0z" fill-rule="nonzero"/><path fill="#666666" d="m57.198162 367.706l24.157482 0l0 7.62204l-24.157482 0z" fill-rule="evenodd"/><path stroke="#434343" stroke-width="1.0" stroke-linejoin="round" stroke-linecap="butt" d="m57.198162 367.706l24.157482 0l0 7.62204l-24.157482 0z" fill-rule="evenodd"/><path fill="#d9d9d9" d="m27.166666 304.24014l84.220474 0l0 63.46457l-84.220474 0zm7.933073 7.933075l0 47.59845l68.35433 0l0 -47.59845z" fill-rule="evenodd"/><path stroke="#666666" stroke-width="2.0" stroke-linejoin="round" stroke-linecap="butt" d="m27.166666 304.24014l84.220474 0l0 63.46457l-84.220474 0zm7.933073 7.933075l0 47.59845l68.35433 0l0 -47.59845z" fill-rule="evenodd"/><path fill="#fff2cc" d="m40.34258 375.3281l57.86865 0c0.78800964 0 1.5437393 0.3130188 2.1009445 0.87023926c0.5572052 0.55718994 0.87023926 1.3129272 0.87023926 2.1009521l0 14.85556c0 3.0517578E-4 -2.3651123E-4 5.493164E-4 -5.264282E-4 5.493164E-4l-63.810493 -5.493164E-4l0 0c-2.937317E-4 0 -5.302429E-4 -2.1362305E-4 -5.302429E-4 -5.187988E-4l5.302429E-4 -14.8550415l0 0c0 -1.6409607 1.330246 -2.9711914 2.9711876 -2.9711914z" fill-rule="evenodd"/><path stroke="#999999" stroke-width="2.0" stroke-linejoin="round" stroke-linecap="butt" d="m40.34258 375.3281l57.86865 0c0.78800964 0 1.5437393 0.3130188 2.1009445 0.87023926c0.5572052 0.55718994 0.87023926 1.3129272 0.87023926 2.1009521l0 14.85556c0 3.0517578E-4 -2.3651123E-4 5.493164E-4 -5.264282E-4 5.493164E-4l-63.810493 -5.493164E-4l0 0c-2.937317E-4 0 -5.302429E-4 -2.1362305E-4 -5.302429E-4 -5.187988E-4l5.302429E-4 -14.8550415l0 0c0 -1.6409607 1.330246 -2.9711914 2.9711876 -2.9711914z" fill-rule="evenodd"/><path fill="#000000" fill-opacity="0.0" d="m69.384514 384.24146l26.58268 0" fill-rule="evenodd"/><path stroke="#999999" stroke-width="2.0" stroke-linejoin="round" stroke-linecap="butt" d="m69.384514 384.24146l26.58268 0" fill-rule="evenodd"/><path fill="#b7b7b7" d="m43.681103 384.24146l0 0c0 -2.1047668 1.5863914 -3.8110046 3.5433083 -3.8110046l0 0c0.93974304 0 1.8409958 0.40151978 2.5054932 1.1162109c0.6645012 0.7147217 1.0378113 1.6840515 1.0378113 2.6947937l0 0c0 2.1047974 -1.5863914 3.8110352 -3.5433044 3.8110352l0 0c-1.9569168 0 -3.5433083 -1.7062378 -3.5433083 -3.8110352z" fill-rule="evenodd"/><path fill="#000000" fill-opacity="0.0" d="m137.0971 254.4147l-67.81102 0l0 49.82675" fill-rule="evenodd"/><path stroke="#666666" stroke-width="2.0" stroke-linejoin="round" stroke-linecap="butt" d="m129.5171 254.4147l-60.231018 0l0 42.246765" fill-rule="evenodd"/><path fill="#666666" stroke="#666666" stroke-width="2.0" stroke-linecap="butt" d="m136.0971 254.4147c0 1.8170166 -1.4729767 3.2900085 -3.2899933 3.2900085c-1.8170166 0 -3.2899933 -1.472992 -3.2899933 -3.2900085c0 -1.8170166 1.4729767 -3.2900085 3.2899933 -3.2900085c1.8170166 0 3.2899933 1.472992 3.2899933 3.2900085z" fill-rule="nonzero"/><path fill="#666666" stroke="#666666" stroke-width="2.0" stroke-linecap="butt" d="m69.28609 303.24146c-1.8170166 0 -3.290001 -1.4729614 -3.290001 -3.289978c0 -1.8170166 1.4729843 -3.2900085 3.290001 -3.2900085c1.8170166 0 3.290001 1.472992 3.290001 3.2900085c0 1.8170166 -1.4729843 3.289978 -3.290001 3.289978z" fill-rule="nonzero"/><path fill="#666666" d="m145.08005 307.70602l68.25197 0l0 56.53543l-68.25197 0z" fill-rule="evenodd"/><path fill="#ffd966" d="m166.70213 335.99l-2.171875 0.390625q-0.109375 -0.65625 -0.5 -0.984375q-0.375 -0.328125 -1.0 -0.328125q-0.8125 0 -1.3125 0.578125q-0.484375 0.5625 -0.484375 1.890625q0 1.46875 0.5 2.078125q0.5 0.609375 1.328125 0.609375q0.625 0 1.015625 -0.34375q0.40625 -0.359375 0.578125 -1.234375l2.15625 0.375q-0.34375 1.484375 -1.296875 2.25q-0.953125 0.75 -2.546875 0.75q-1.828125 0 -2.90625 -1.140625q-1.078125 -1.15625 -1.078125 -3.1875q0 -2.0625 1.078125 -3.203125q1.09375 -1.140625 2.9375 -1.140625q1.515625 0 2.40625 0.65625q0.90625 0.640625 1.296875 1.984375zm1.6640625 5.84375l0 -11.453125l2.1875 0l0 11.453125l-2.1875 0zm4.4453125 -9.421875l0 -2.03125l2.1875 0l0 2.03125l-2.1875 0zm0 9.421875l0 -8.296875l2.1875 0l0 8.296875l-2.1875 0zm9.2421875 -2.640625l2.1875 0.359375q-0.421875 1.203125 -1.328125 1.84375q-0.90625 0.625 -2.28125 0.625q-2.15625 0 -3.203125 -1.421875q-0.8125 -1.125 -0.8125 -2.859375q0 -2.0625 1.078125 -3.21875q1.078125 -1.171875 2.71875 -1.171875q1.859375 0 2.921875 1.21875q1.078125 1.21875 1.03125 3.75l-5.5 0q0.015625 0.96875 0.515625 1.515625q0.515625 0.546875 1.28125 0.546875q0.515625 0 0.859375 -0.28125q0.359375 -0.28125 0.53125 -0.90625zm0.125 -2.21875q-0.015625 -0.953125 -0.484375 -1.453125q-0.46875 -0.5 -1.140625 -0.5q-0.71875 0 -1.1875 0.53125q-0.46875 0.515625 -0.46875 1.421875l3.28125 0zm11.5234375 4.859375l-2.203125 0l0 -4.234375q0 -1.34375 -0.140625 -1.734375q-0.140625 -0.40625 -0.453125 -0.625q-0.3125 -0.21875 -0.765625 -0.21875q-0.5625 0 -1.015625 0.3125q-0.453125 0.3125 -0.625 0.828125q-0.171875 0.515625 -0.171875 1.90625l0 3.765625l-2.1875 0l0 -8.296875l2.03125 0l0 1.21875q1.09375 -1.40625 2.734375 -1.40625q0.734375 0 1.328125 0.265625q0.609375 0.25 0.90625 0.65625q0.3125 0.40625 0.4375 0.921875q0.125 0.515625 0.125 1.484375l0 5.15625zm6.0234375 -8.296875l0 1.75l-1.5 0l0 3.34375q0 1.015625 0.046875 1.1875q0.046875 0.15625 0.1875 0.265625q0.15625 0.109375 0.375 0.109375q0.3125 0 0.890625 -0.203125l0.1875 1.703125q-0.765625 0.328125 -1.734375 0.328125q-0.59375 0 -1.078125 -0.203125q-0.46875 -0.203125 -0.703125 -0.515625q-0.21875 -0.3125 -0.296875 -0.859375q-0.078125 -0.375 -0.078125 -1.546875l0 -3.609375l-1.0 0l0 -1.75l1.0 0l0 -1.65625l2.203125 -1.28125l0 2.9375l1.5 0z" fill-rule="nonzero"/><path fill="#666666" d="m167.1273 367.706l24.15747 0l0 7.62204l-24.15747 0z" fill-rule="evenodd"/><path stroke="#434343" stroke-width="1.0" stroke-linejoin="round" stroke-linecap="butt" d="m167.1273 367.706l24.15747 0l0 7.62204l-24.15747 0z" fill-rule="evenodd"/><path fill="#d9d9d9" d="m137.0958 304.24014l84.220474 0l0 63.46457l-84.220474 0zm7.933075 7.933075l0 47.59845l68.35434 0l0 -47.59845z" fill-rule="evenodd"/><path stroke="#666666" stroke-width="2.0" stroke-linejoin="round" stroke-linecap="butt" d="m137.0958 304.24014l84.220474 0l0 63.46457l-84.220474 0zm7.933075 7.933075l0 47.59845l68.35434 0l0 -47.59845z" fill-rule="evenodd"/><path fill="#fff2cc" d="m150.27171 375.3281l57.868652 0c0.78800964 0 1.5437317 0.3130188 2.100937 0.87023926c0.5572052 0.55718994 0.87023926 1.3129272 0.87023926 2.1009521l0 14.85556c0 3.0517578E-4 -2.2888184E-4 5.493164E-4 -5.187988E-4 5.493164E-4l-63.8105 -5.493164E-4l0 0c-2.89917E-4 0 -5.340576E-4 -2.1362305E-4 -5.340576E-4 -5.187988E-4l5.340576E-4 -14.8550415l0 0c0 -1.6409607 1.330246 -2.9711914 2.9711914 -2.9711914z" fill-rule="evenodd"/><path stroke="#999999" stroke-width="2.0" stroke-linejoin="round" stroke-linecap="butt" d="m150.27171 375.3281l57.868652 0c0.78800964 0 1.5437317 0.3130188 2.100937 0.87023926c0.5572052 0.55718994 0.87023926 1.3129272 0.87023926 2.1009521l0 14.85556c0 3.0517578E-4 -2.2888184E-4 5.493164E-4 -5.187988E-4 5.493164E-4l-63.8105 -5.493164E-4l0 0c-2.89917E-4 0 -5.340576E-4 -2.1362305E-4 -5.340576E-4 -5.187988E-4l5.340576E-4 -14.8550415l0 0c0 -1.6409607 1.330246 -2.9711914 2.9711914 -2.9711914z" fill-rule="evenodd"/><path fill="#000000" fill-opacity="0.0" d="m179.31364 384.24146l26.582687 0" fill-rule="evenodd"/><path stroke="#999999" stroke-width="2.0" stroke-linejoin="round" stroke-linecap="butt" d="m179.31364 384.24146l26.582687 0" fill-rule="evenodd"/><path fill="#b7b7b7" d="m153.61023 384.24146l0 0c0 -2.1047668 1.5863953 -3.8110046 3.5433197 -3.8110046l0 0c0.93974304 0 1.8409882 0.40151978 2.5054932 1.1162109c0.66448975 0.7147217 1.0378113 1.6840515 1.0378113 2.6947937l0 0c0 2.1047974 -1.5863953 3.8110352 -3.5433044 3.8110352l0 0c-1.9569244 0 -3.5433197 -1.7062378 -3.5433197 -3.8110352z" fill-rule="evenodd"/><path fill="#666666" d="m255.00919 307.70602l68.25198 0l0 56.53543l-68.25198 0z" fill-rule="evenodd"/><path fill="#ffd966" d="m276.63126 335.99l-2.171875 0.390625q-0.109375 -0.65625 -0.5 -0.984375q-0.375 -0.328125 -1.0 -0.328125q-0.8125 0 -1.3125 0.578125q-0.484375 0.5625 -0.484375 1.890625q0 1.46875 0.5 2.078125q0.5 0.609375 1.328125 0.609375q0.625 0 1.015625 -0.34375q0.40625 -0.359375 0.578125 -1.234375l2.15625 0.375q-0.34375 1.484375 -1.296875 2.25q-0.953125 0.75 -2.546875 0.75q-1.828125 0 -2.90625 -1.140625q-1.078125 -1.15625 -1.078125 -3.1875q0 -2.0625 1.078125 -3.203125q1.09375 -1.140625 2.9375 -1.140625q1.515625 0 2.40625 0.65625q0.90625 0.640625 1.296875 1.984375zm1.6640625 5.84375l0 -11.453125l2.1875 0l0 11.453125l-2.1875 0zm4.4453125 -9.421875l0 -2.03125l2.1875 0l0 2.03125l-2.1875 0zm0 9.421875l0 -8.296875l2.1875 0l0 8.296875l-2.1875 0zm9.2421875 -2.640625l2.1875 0.359375q-0.421875 1.203125 -1.328125 1.84375q-0.90625 0.625 -2.28125 0.625q-2.15625 0 -3.203125 -1.421875q-0.8125 -1.125 -0.8125 -2.859375q0 -2.0625 1.078125 -3.21875q1.078125 -1.171875 2.71875 -1.171875q1.859375 0 2.921875 1.21875q1.078125 1.21875 1.03125 3.75l-5.5 0q0.015625 0.96875 0.515625 1.515625q0.515625 0.546875 1.28125 0.546875q0.515625 0 0.859375 -0.28125q0.359375 -0.28125 0.53125 -0.90625zm0.125 -2.21875q-0.015625 -0.953125 -0.484375 -1.453125q-0.46875 -0.5 -1.140625 -0.5q-0.71875 0 -1.1875 0.53125q-0.46875 0.515625 -0.46875 1.421875l3.28125 0zm11.5234375 4.859375l-2.203125 0l0 -4.234375q0 -1.34375 -0.140625 -1.734375q-0.140625 -0.40625 -0.453125 -0.625q-0.3125 -0.21875 -0.765625 -0.21875q-0.5625 0 -1.015625 0.3125q-0.453125 0.3125 -0.625 0.828125q-0.171875 0.515625 -0.171875 1.90625l0 3.765625l-2.1875 0l0 -8.296875l2.03125 0l0 1.21875q1.09375 -1.40625 2.734375 -1.40625q0.734375 0 1.328125 0.265625q0.609375 0.25 0.90625 0.65625q0.3125 0.40625 0.4375 0.921875q0.125 0.515625 0.125 1.484375l0 5.15625zm6.0234375 -8.296875l0 1.75l-1.5 0l0 3.34375q0 1.015625 0.046875 1.1875q0.046875 0.15625 0.1875 0.265625q0.15625 0.109375 0.375 0.109375q0.3125 0 0.890625 -0.203125l0.1875 1.703125q-0.765625 0.328125 -1.734375 0.328125q-0.59375 0 -1.078125 -0.203125q-0.46875 -0.203125 -0.703125 -0.515625q-0.21875 -0.3125 -0.296875 -0.859375q-0.078125 -0.375 -0.078125 -1.546875l0 -3.609375l-1.0 0l0 -1.75l1.0 0l0 -1.65625l2.203125 -1.28125l0 2.9375l1.5 0z" fill-rule="nonzero"/><path fill="#666666" d="m277.05643 367.706l24.15747 0l0 7.62204l-24.15747 0z" fill-rule="evenodd"/><path stroke="#434343" stroke-width="1.0" stroke-linejoin="round" stroke-linecap="butt" d="m277.05643 367.706l24.15747 0l0 7.62204l-24.15747 0z" fill-rule="evenodd"/><path fill="#d9d9d9" d="m247.02493 304.24014l84.22046 0l0 63.46457l-84.22046 0zm7.933075 7.933075l0 47.59845l68.35434 0l0 -47.59845z" fill-rule="evenodd"/><path stroke="#666666" stroke-width="2.0" stroke-linejoin="round" stroke-linecap="butt" d="m247.02493 304.24014l84.22046 0l0 63.46457l-84.22046 0zm7.933075 7.933075l0 47.59845l68.35434 0l0 -47.59845z" fill-rule="evenodd"/><path fill="#fff2cc" d="m260.20084 375.3281l57.868652 0c0.7880249 0 1.5437622 0.3130188 2.1009521 0.87023926c0.55722046 0.55718994 0.87023926 1.3129272 0.87023926 2.1009521l0 14.85556c0 3.0517578E-4 -2.4414062E-4 5.493164E-4 -5.187988E-4 5.493164E-4l-63.810516 -5.493164E-4l0 0c-2.746582E-4 0 -5.187988E-4 -2.1362305E-4 -5.187988E-4 -5.187988E-4l5.187988E-4 -14.8550415l0 0c0 -1.6409607 1.3302612 -2.9711914 2.9711914 -2.9711914z" fill-rule="evenodd"/><path stroke="#999999" stroke-width="2.0" stroke-linejoin="round" stroke-linecap="butt" d="m260.20084 375.3281l57.868652 0c0.7880249 0 1.5437622 0.3130188 2.1009521 0.87023926c0.55722046 0.55718994 0.87023926 1.3129272 0.87023926 2.1009521l0 14.85556c0 3.0517578E-4 -2.4414062E-4 5.493164E-4 -5.187988E-4 5.493164E-4l-63.810516 -5.493164E-4l0 0c-2.746582E-4 0 -5.187988E-4 -2.1362305E-4 -5.187988E-4 -5.187988E-4l5.187988E-4 -14.8550415l0 0c0 -1.6409607 1.3302612 -2.9711914 2.9711914 -2.9711914z" fill-rule="evenodd"/><path fill="#000000" fill-opacity="0.0" d="m289.24277 384.24146l26.582703 0" fill-rule="evenodd"/><path stroke="#999999" stroke-width="2.0" stroke-linejoin="round" stroke-linecap="butt" d="m289.24277 384.24146l26.582703 0" fill-rule="evenodd"/><path fill="#b7b7b7" d="m263.53937 384.24146l0 0c0 -2.1047668 1.5863953 -3.8110046 3.5433044 -3.8110046l0 0c0.9397583 0 1.8410034 0.40151978 2.5054932 1.1162109c0.66452026 0.7147217 1.0378113 1.6840515 1.0378113 2.6947937l0 0c0 2.1047974 -1.5863953 3.8110352 -3.5433044 3.8110352l0 0c-1.9569092 0 -3.5433044 -1.7062378 -3.5433044 -3.8110352z" fill-rule="evenodd"/><path fill="#000000" fill-opacity="0.0" d="m176.45145 272.82416l0 31.40155" fill-rule="evenodd"/><path stroke="#666666" stroke-width="2.0" stroke-linejoin="round" stroke-linecap="butt" d="m176.45145 280.40414l0 16.241577" fill-rule="evenodd"/><path fill="#666666" stroke="#666666" stroke-width="2.0" stroke-linecap="butt" d="m176.45145 273.82416c1.8170166 0 3.2899933 1.4729614 3.2899933 3.289978c0 1.8170166 -1.4729767 3.2900085 -3.2899933 3.2900085c-1.8170166 0 -3.2900085 -1.472992 -3.2900085 -3.2900085c0 -1.8170166 1.472992 -3.289978 3.2900085 -3.289978z" fill-rule="nonzero"/><path fill="#666666" stroke="#666666" stroke-width="2.0" stroke-linecap="butt" d="m176.45145 303.2257c-1.8170166 0 -3.2900085 -1.4729614 -3.2900085 -3.289978c0 -1.8170166 1.472992 -3.2900085 3.2900085 -3.2900085c1.8170166 0 3.2899933 1.472992 3.2899933 3.2900085c0 1.8170166 -1.4729767 3.289978 -3.2899933 3.289978z" fill-rule="nonzero"/><path fill="#000000" fill-opacity="0.0" d="m221.31758 254.4147l67.81102 0l0 49.82675" fill-rule="evenodd"/><path stroke="#666666" stroke-width="2.0" stroke-linejoin="round" stroke-linecap="butt" d="m228.89758 254.4147l60.231018 0l0 42.246765" fill-rule="evenodd"/><path fill="#666666" stroke="#666666" stroke-width="2.0" stroke-linecap="butt" d="m222.31758 254.4147c0 -1.8170166 1.472992 -3.2900085 3.2900085 -3.2900085c1.8170166 0 3.2899933 1.472992 3.2899933 3.2900085c0 1.8170166 -1.4729767 3.2900085 -3.2899933 3.2900085c-1.8170166 0 -3.2900085 -1.472992 -3.2900085 -3.2900085z" fill-rule="nonzero"/><path fill="#666666" stroke="#666666" stroke-width="2.0" stroke-linecap="butt" d="m289.1286 303.24146c-1.8170166 0 -3.289978 -1.4729614 -3.289978 -3.289978c0 -1.8170166 1.4729614 -3.2900085 3.289978 -3.2900085c1.8170166 0 3.2900085 1.472992 3.2900085 3.2900085c0 1.8170166 -1.472992 3.289978 -3.2900085 3.289978z" fill-rule="nonzero"/><path fill="#fff2cc" d="m165.33871 121.69029l27.905243 0l0 0c1.8502808 0 3.6247864 0.7350235 4.933136 2.043373c1.3083496 1.3083496 2.0433807 3.0828552 2.0433807 4.9331436l0 49.558914c0 1.9836426E-4 -1.5258789E-4 3.5095215E-4 -3.5095215E-4 3.5095215E-4l-41.857925 -3.5095215E-4l0 0c-1.8310547E-4 0 -3.3569336E-4 -1.5258789E-4 -3.3569336E-4 -3.5095215E-4l3.3569336E-4 -49.558563l0 0c0 -3.8530273 3.1235046 -6.9765167 6.9765167 -6.9765167z" fill-rule="evenodd"/><path stroke="#666666" stroke-width="2.0" stroke-linejoin="round" stroke-linecap="butt" d="m165.33871 121.69029l27.905243 0l0 0c1.8502808 0 3.6247864 0.7350235 4.933136 2.043373c1.3083496 1.3083496 2.0433807 3.0828552 2.0433807 4.9331436l0 49.558914c0 1.9836426E-4 -1.5258789E-4 3.5095215E-4 -3.5095215E-4 3.5095215E-4l-41.857925 -3.5095215E-4l0 0c-1.8310547E-4 0 -3.3569336E-4 -1.5258789E-4 -3.3569336E-4 -3.5095215E-4l3.3569336E-4 -49.558563l0 0c0 -3.8530273 3.1235046 -6.9765167 6.9765167 -6.9765167z" fill-rule="evenodd"/><path fill="#000000" fill-opacity="0.0" d="m165.99869 145.78215l26.582672 0" fill-rule="evenodd"/><path stroke="#999999" stroke-width="2.0" stroke-linejoin="round" stroke-linecap="butt" d="m165.99869 145.78215l26.582672 0" fill-rule="evenodd"/><path fill="#b7b7b7" d="m166.89633 162.94751l0 0c0 -2.1047668 1.58638 -3.81102 3.5433044 -3.81102l0 0c0.93974304 0 1.8409882 0.40150452 2.5054932 1.1162109c0.664505 0.7147064 1.0378113 1.6840668 1.0378113 2.694809l0 0c0 2.1047668 -1.5863953 3.81102 -3.5433044 3.81102l0 0c-1.9569244 0 -3.5433044 -1.706253 -3.5433044 -3.81102z" fill-rule="evenodd"/><path fill="#000000" fill-opacity="0.0" d="m165.99869 136.14174l26.582672 0" fill-rule="evenodd"/><path stroke="#999999" stroke-width="2.0" stroke-linejoin="round" stroke-linecap="butt" d="m165.99869 136.14174l26.582672 0" fill-rule="evenodd"/><path fill="#666666" d="m61.14855 42.444458l76.514465 0l0 66.218895l-76.514465 0z" fill-rule="evenodd"/><path fill="#ffd966" d="m77.74368 69.46203l2.015625 -0.296875q0.125 0.578125 0.515625 0.890625q0.40625 0.296875 1.109375 0.296875q0.78125 0 1.171875 -0.28125q0.265625 -0.203125 0.265625 -0.546875q0 -0.21875 -0.140625 -0.375q-0.15625 -0.140625 -0.671875 -0.265625q-2.4375 -0.53125 -3.078125 -0.984375q-0.90625 -0.609375 -0.90625 -1.703125q0 -0.984375 0.78125 -1.65625q0.78125 -0.671875 2.421875 -0.671875q1.546875 0 2.3125 0.515625q0.765625 0.5 1.046875 1.484375l-1.90625 0.359375q-0.109375 -0.453125 -0.453125 -0.6875q-0.34375 -0.234375 -0.96875 -0.234375q-0.796875 0 -1.140625 0.21875q-0.234375 0.15625 -0.234375 0.40625q0 0.21875 0.203125 0.375q0.28125 0.203125 1.875 0.5625q1.609375 0.359375 2.25 0.890625q0.625 0.546875 0.625 1.5q0 1.046875 -0.875 1.796875q-0.859375 0.75 -2.578125 0.75q-1.546875 0 -2.453125 -0.625q-0.90625 -0.640625 -1.1875 -1.71875zm13.260483 -0.25l2.0 0.34375q-0.375 1.09375 -1.21875 1.671875q-0.828125 0.578125 -2.078125 0.578125q-1.984375 0 -2.9375 -1.296875q-0.75 -1.03125 -0.75 -2.625q0 -1.875 0.984375 -2.9375q0.984375 -1.078125 2.5 -1.078125q1.6875 0 2.671875 1.125q0.984375 1.109375 0.9375 3.421875l-5.03125 0q0.015625 0.890625 0.484375 1.390625q0.46875 0.5 1.15625 0.5q0.46875 0 0.78125 -0.25q0.328125 -0.265625 0.5 -0.84375zm0.109375 -2.03125q-0.015625 -0.875 -0.453125 -1.328125q-0.421875 -0.453125 -1.03125 -0.453125q-0.671875 0 -1.09375 0.484375q-0.421875 0.46875 -0.421875 1.296875l3.0 0zm5.572983 4.453125l-2.015625 0l0 -7.59375l1.859375 0l0 1.078125q0.484375 -0.765625 0.859375 -1.0q0.390625 -0.25 0.875 -0.25q0.6875 0 1.328125 0.375l-0.625 1.75q-0.5 -0.328125 -0.9375 -0.328125q-0.421875 0 -0.71875 0.234375q-0.296875 0.234375 -0.46875 0.84375q-0.15625 0.609375 -0.15625 2.546875l0 2.34375zm5.8598785 0l-3.0625 -7.59375l2.109375 0l1.4375 3.875l0.40625 1.296875q0.171875 -0.5 0.21875 -0.65625q0.09375 -0.328125 0.203125 -0.640625l1.453125 -3.875l2.0625 0l-3.015625 7.59375l-1.8125 0zm10.463608 -2.421875l2.0 0.34375q-0.375 1.09375 -1.21875 1.671875q-0.828125 0.578125 -2.078125 0.578125q-1.984375 0 -2.9375 -1.296875q-0.75 -1.03125 -0.75 -2.625q0 -1.875 0.984375 -2.9375q0.984375 -1.078125 2.5 -1.078125q1.6875 0 2.671875 1.125q0.984375 1.109375 0.9375 3.421875l-5.03125 0q0.015625 0.890625 0.484375 1.390625q0.46875 0.5 1.15625 0.5q0.46875 0 0.78125 -0.25q0.328125 -0.265625 0.5 -0.84375zm0.109375 -2.03125q-0.015625 -0.875 -0.453125 -1.328125q-0.421875 -0.453125 -1.03125 -0.453125q-0.671875 0 -1.09375 0.484375q-0.421875 0.46875 -0.421875 1.296875l3.0 0zm5.572983 4.453125l-2.015625 0l0 -7.59375l1.859375 0l0 1.078125q0.484375 -0.765625 0.859375 -1.0q0.390625 -0.25 0.875 -0.25q0.6875 0 1.328125 0.375l-0.625 1.75q-0.5 -0.328125 -0.9375 -0.328125q-0.421875 0 -0.71875 0.234375q-0.296875 0.234375 -0.46875 0.84375q-0.15625 0.609375 -0.15625 2.546875l0 2.34375z" fill-rule="nonzero"/><path fill="#ffd966" d="m79.38607 84.27453l-1.96875 0.359375q-0.109375 -0.59375 -0.46875 -0.890625q-0.34375 -0.296875 -0.90625 -0.296875q-0.75 0 -1.203125 0.515625q-0.453125 0.515625 -0.453125 1.734375q0 1.359375 0.453125 1.921875q0.453125 0.546875 1.21875 0.546875q0.578125 0 0.9375 -0.328125q0.375 -0.328125 0.515625 -1.109375l1.984375 0.328125q-0.3125 1.359375 -1.1875 2.0625q-0.875 0.6875 -2.328125 0.6875q-1.671875 0 -2.671875 -1.046875q-0.984375 -1.0625 -0.984375 -2.921875q0 -1.875 0.984375 -2.921875q1.0 -1.046875 2.703125 -1.046875q1.390625 0 2.203125 0.59375q0.828125 0.59375 1.171875 1.8125zm1.0729828 1.453125q0 -1.0 0.484375 -1.9375q0.5 -0.9375 1.40625 -1.421875q0.90625 -0.5 2.015625 -0.5q1.71875 0 2.828125 1.125q1.109375 1.109375 1.109375 2.8125q0 1.734375 -1.125 2.875q-1.109375 1.125 -2.796875 1.125q-1.046875 0 -2.0 -0.46875q-0.9375 -0.46875 -1.4375 -1.375q-0.484375 -0.921875 -0.484375 -2.234375zm2.046875 0.109375q0 1.125 0.53125 1.734375q0.546875 0.59375 1.34375 0.59375q0.78125 0 1.3125 -0.59375q0.53125 -0.609375 0.53125 -1.75q0 -1.125 -0.53125 -1.71875q-0.53125 -0.609375 -1.3125 -0.609375q-0.796875 0 -1.34375 0.609375q-0.53125 0.59375 -0.53125 1.734375zm14.280746 3.796875l-2.015625 0l0 -3.875q0 -1.234375 -0.125 -1.59375q-0.125 -0.359375 -0.421875 -0.5625q-0.296875 -0.203125 -0.703125 -0.203125q-0.515625 0 -0.9375 0.296875q-0.40625 0.28125 -0.5625 0.75q-0.15625 0.46875 -0.15625 1.75l0 3.4375l-2.015625 0l0 -7.59375l1.875 0l0 1.109375q1.0 -1.28125 2.5 -1.28125q0.671875 0 1.21875 0.234375q0.546875 0.234375 0.828125 0.609375q0.296875 0.375 0.40625 0.84375q0.109375 0.46875 0.109375 1.359375l0 4.71875zm1.3276215 -2.171875l2.015625 -0.296875q0.125 0.578125 0.515625 0.890625q0.40625 0.296875 1.109375 0.296875q0.78125 0 1.171875 -0.28125q0.265625 -0.203125 0.265625 -0.546875q0 -0.21875 -0.140625 -0.375q-0.15625 -0.140625 -0.671875 -0.265625q-2.4375 -0.53125 -3.078125 -0.984375q-0.90625 -0.609375 -0.90625 -1.703125q0 -0.984375 0.78125 -1.65625q0.78125 -0.671875 2.421875 -0.671875q1.546875 0 2.3125 0.515625q0.765625 0.5 1.046875 1.484375l-1.90625 0.359375q-0.109375 -0.453125 -0.453125 -0.6875q-0.34375 -0.234375 -0.96875 -0.234375q-0.796875 0 -1.140625 0.21875q-0.234375 0.15625 -0.234375 0.40625q0 0.21875 0.203125 0.375q0.28125 0.203125 1.875 0.5625q1.609375 0.359375 2.25 0.890625q0.625 0.546875 0.625 1.5q0 1.046875 -0.875 1.796875q-0.859375 0.75 -2.578125 0.75q-1.546875 0 -2.453125 -0.625q-0.90625 -0.640625 -1.1875 -1.71875zm8.401108 -1.734375q0 -1.0 0.484375 -1.9375q0.5 -0.9375 1.40625 -1.421875q0.90625 -0.5 2.015625 -0.5q1.71875 0 2.828125 1.125q1.109375 1.109375 1.109375 2.8125q0 1.734375 -1.125 2.875q-1.109375 1.125 -2.796875 1.125q-1.046875 0 -2.0 -0.46875q-0.9375 -0.46875 -1.4375 -1.375q-0.484375 -0.921875 -0.484375 -2.234375zm2.046875 0.109375q0 1.125 0.53125 1.734375q0.546875 0.59375 1.34375 0.59375q0.78125 0 1.3125 -0.59375q0.53125 -0.609375 0.53125 -1.75q0 -1.125 -0.53125 -1.71875q-0.53125 -0.609375 -1.3125 -0.609375q-0.796875 0 -1.34375 0.609375q-0.53125 0.59375 -0.53125 1.734375zm7.3588715 3.796875l0 -10.484375l2.015625 0l0 10.484375l-2.015625 0zm8.478226 -2.421875l1.9999924 0.34375q-0.375 1.09375 -1.21875 1.671875q-0.8281174 0.578125 -2.0781174 0.578125q-1.984375 0 -2.9375 -1.296875q-0.75 -1.03125 -0.75 -2.625q0 -1.875 0.984375 -2.9375q0.984375 -1.078125 2.5 -1.078125q1.6875 0 2.6718674 1.125q0.984375 1.109375 0.9375 3.421875l-5.0312424 0q0.015625 0.890625 0.484375 1.390625q0.46875 0.5 1.15625 0.5q0.46875 0 0.78125 -0.25q0.328125 -0.265625 0.5 -0.84375zm0.109375 -2.03125q-0.015625 -0.875 -0.453125 -1.328125q-0.421875 -0.453125 -1.03125 -0.453125q-0.671875 0 -1.09375 0.484375q-0.421875 0.46875 -0.421875 1.296875l3.0 0z" fill-rule="nonzero"/><path fill="#666666" d="m85.86194 112.75395l27.08863 0l0 8.909691l-27.08863 0z" fill-rule="evenodd"/><path stroke="#434343" stroke-width="1.0" stroke-linejoin="round" stroke-linecap="butt" d="m85.86194 112.75395l27.08863 0l0 8.909691l-27.08863 0z" fill-rule="evenodd"/><path fill="#d9d9d9" d="m52.19877 38.383053l94.4006 0l0 74.377945l-94.4006 0zm9.297245 9.297241l0 55.78346l75.80611 0l0 -55.78346z" fill-rule="evenodd"/><path stroke="#666666" stroke-width="2.0" stroke-linejoin="round" stroke-linecap="butt" d="m52.19877 38.383053l94.4006 0l0 74.377945l-94.4006 0zm9.297245 9.297241l0 55.78346l75.80611 0l0 -55.78346z" fill-rule="evenodd"/><path fill="#666666" d="m74.86575 116.924614l49.066322 0c0.2106247 0 0.41262054 0.08367157 0.56155396 0.23260498c0.14893341 0.14893341 0.23260498 0.3509369 0.23260498 0.5615616l0 3.9707184c0 2.3651123E-4 -1.8310547E-4 4.272461E-4 -4.196167E-4 4.272461E-4l-50.65422 -4.272461E-4l0 0c-2.3651123E-4 0 -4.272461E-4 -1.8310547E-4 -4.272461E-4 -4.196167E-4l4.272461E-4 -3.9702988l0 0c0 -0.43860626 0.3555603 -0.79416656 0.79415894 -0.79416656z" fill-rule="evenodd"/><path stroke="#000000" stroke-width="1.0" stroke-linejoin="round" stroke-linecap="butt" d="m74.86575 116.924614l49.066322 0c0.2106247 0 0.41262054 0.08367157 0.56155396 0.23260498c0.14893341 0.14893341 0.23260498 0.3509369 0.23260498 0.5615616l0 3.9707184c0 2.3651123E-4 -1.8310547E-4 4.272461E-4 -4.196167E-4 4.272461E-4l-50.65422 -4.272461E-4l0 0c-2.3651123E-4 0 -4.272461E-4 -1.8310547E-4 -4.272461E-4 -4.196167E-4l4.272461E-4 -3.9702988l0 0c0 -0.43860626 0.3555603 -0.79416656 0.79415894 -0.79416656z" fill-rule="evenodd"/><path fill="#000000" fill-opacity="0.0" d="m179.29134 121.69029l0 -46.110237l-32.692917 0" fill-rule="evenodd"/><path stroke="#666666" stroke-width="2.0" stroke-linejoin="round" stroke-linecap="butt" d="m179.29134 114.11029l0 -38.530235l-25.112915 0" fill-rule="evenodd"/><path fill="#666666" stroke="#666666" stroke-width="2.0" stroke-linecap="butt" d="m179.29134 120.69029c-1.8170166 0 -3.2899933 -1.4729843 -3.2899933 -3.290001c0 -1.8170166 1.4729767 -3.290001 3.2899933 -3.290001c1.8170166 0 3.2900085 1.4729843 3.2900085 3.290001c0 1.8170166 -1.472992 3.290001 -3.2900085 3.290001z" fill-rule="nonzero"/><path fill="#666666" stroke="#666666" stroke-width="2.0" stroke-linecap="butt" d="m147.59842 75.580055c0 -1.8170166 1.472992 -3.290001 3.2900085 -3.290001c1.8170166 0 3.2899933 1.4729843 3.2899933 3.290001c0 1.8170166 -1.4729767 3.2899933 -3.2899933 3.2899933c-1.8170166 0 -3.2900085 -1.4729767 -3.2900085 -3.2899933z" fill-rule="nonzero"/><path fill="#000000" fill-opacity="0.0" d="m37.37008 138.60892l96.59843 0l0 73.6378l-96.59843 0z" fill-rule="evenodd"/><path fill="#cc0000" d="m47.71383 152.16954l4.9375 0q1.65625 0 2.53125 0.265625q1.1875 0.34375 2.015625 1.234375q0.84375 0.875 1.28125 2.15625q0.4375 1.28125 0.4375 3.15625q0 1.640625 -0.40625 2.84375q-0.5 1.453125 -1.4375 2.359375q-0.703125 0.671875 -1.890625 1.0625q-0.890625 0.28125 -2.390625 0.28125l-5.078125 0l0 -13.359375zm2.703125 2.265625l0 8.84375l2.015625 0q1.125 0 1.625 -0.125q0.65625 -0.171875 1.078125 -0.5625q0.4375 -0.390625 0.703125 -1.28125q0.28125 -0.90625 0.28125 -2.453125q0 -1.546875 -0.28125 -2.375q-0.265625 -0.828125 -0.765625 -1.28125q-0.484375 -0.46875 -1.234375 -0.640625q-0.5625 -0.125 -2.21875 -0.125l-1.203125 0zm22.832321 11.09375l-2.9375 0l-1.171875 -3.03125l-5.328125 0l-1.109375 3.03125l-2.859375 0l5.203125 -13.359375l2.84375 0l5.359375 13.359375zm-4.96875 -5.28125l-1.84375 -4.953125l-1.796875 4.953125l3.640625 0zm8.009399 5.28125l0 -11.09375l-3.953125 0l0 -2.265625l10.609375 0l0 2.265625l-3.953125 0l0 11.09375l-2.703125 0zm19.057434 0l-2.9375 0l-1.171875 -3.03125l-5.328125 0l-1.109375 3.03125l-2.859375 0l5.203125 -13.359375l2.84375 0l5.359375 13.359375zm-4.96875 -5.28125l-1.84375 -4.953125l-1.796875 4.953125l3.640625 0z" fill-rule="nonzero"/><path fill="#cc0000" d="m56.27633 182.62267l2.609375 0.828125q-0.59375 2.1875 -2.0 3.25q-1.390625 1.0625 -3.546875 1.0625q-2.65625 0 -4.375 -1.8125q-1.703125 -1.828125 -1.703125 -4.984375q0 -3.328125 1.71875 -5.171875q1.71875 -1.84375 4.515625 -1.84375q2.453125 0 3.984375 1.4375q0.921875 0.859375 1.375 2.46875l-2.671875 0.640625q-0.234375 -1.046875 -0.984375 -1.640625q-0.75 -0.609375 -1.828125 -0.609375q-1.484375 0 -2.421875 1.078125q-0.921875 1.0625 -0.921875 3.4375q0 2.53125 0.90625 3.609375q0.921875 1.078125 2.375 1.078125q1.078125 0 1.84375 -0.671875q0.78125 -0.6875 1.125 -2.15625zm4.926071 4.90625l0 -13.359375l9.90625 0l0 2.265625l-7.21875 0l0 2.953125l6.71875 0l0 2.25l-6.71875 0l0 3.640625l7.46875 0l0 2.25l-10.15625 0zm12.474823 0l0 -13.359375l2.625 0l5.453125 8.921875l0 -8.921875l2.515625 0l0 13.359375l-2.703125 0l-5.390625 -8.703125l0 8.703125l-2.5 0zm16.441696 0l0 -11.09375l-3.953125 0l0 -2.265625l10.609375 0l0 2.265625l-3.953125 0l0 11.09375l-2.703125 0zm8.395981 0l0 -13.359375l9.90625 0l0 2.265625l-7.21875 0l0 2.953125l6.71875 0l0 2.25l-6.71875 0l0 3.640625l7.46875 0l0 2.25l-10.15625 0zm12.443573 0l0 -13.359375l5.6875 0q2.140625 0 3.109375 0.359375q0.96875 0.359375 1.546875 1.28125q0.578125 0.921875 0.578125 2.109375q0 1.5 -0.890625 2.484375q-0.875 0.96875 -2.625 1.234375q0.875 0.5 1.4375 1.125q0.578125 0.609375 1.53125 2.15625l1.640625 2.609375l-3.234375 0l-1.9375 -2.90625q-1.046875 -1.5625 -1.4375 -1.96875q-0.375 -0.40625 -0.8125 -0.546875q-0.421875 -0.15625 -1.34375 -0.15625l-0.546875 0l0 5.578125l-2.703125 0zm2.703125 -7.703125l2.0 0q1.9375 0 2.421875 -0.15625q0.484375 -0.171875 0.75 -0.578125q0.28125 -0.40625 0.28125 -1.0q0 -0.671875 -0.359375 -1.078125q-0.359375 -0.421875 -1.015625 -0.53125q-0.328125 -0.046875 -1.96875 -0.046875l-2.109375 0l0 3.390625z" fill-rule="nonzero"/><path fill="#666666" d="m137.0971 242.14186l0 0c0 -3.3891602 2.7474518 -6.136612 6.136612 -6.136612l71.947266 0c1.6275177 0 3.1884003 0.64653015 4.3392334 1.7973633c1.1508331 1.1508484 1.7973633 2.7117157 1.7973633 4.3392487l0 24.54567c0 3.3891602 -2.7474518 6.136627 -6.1365967 6.136627l-71.947266 0c-3.3891602 0 -6.136612 -2.747467 -6.136612 -6.136627z" fill-rule="evenodd"/><path stroke="#000000" stroke-width="2.0" stroke-linejoin="round" stroke-linecap="butt" d="m137.0971 242.14186l0 0c0 -3.3891602 2.7474518 -6.136612 6.136612 -6.136612l71.947266 0c1.6275177 0 3.1884003 0.64653015 4.3392334 1.7973633c1.1508331 1.1508484 1.7973633 2.7117157 1.7973633 4.3392487l0 24.54567c0 3.3891602 -2.7474518 6.136627 -6.1365967 6.136627l-71.947266 0c-3.3891602 0 -6.136612 -2.747467 -6.136612 -6.136627z" fill-rule="evenodd"/><path fill="#ffffff" d="m156.0582 261.3347l0 -9.67186l1.46875 0l0 1.46875q0.5625 -1.03125 1.03125 -1.359375q0.484375 -0.328125 1.0625 -0.328125q0.828125 0 1.6875 0.53125l-0.5625 1.515625q-0.609375 -0.359375 -1.203125 -0.359375q-0.546875 0 -0.96875 0.328125q-0.421875 0.328125 -0.609375 0.890625q-0.28125 0.875 -0.28125 1.9218597l0 5.0625l-1.625 0zm5.618927 -4.84375q0 -2.6874847 1.484375 -3.9687347q1.25 -1.078125 3.046875 -1.078125q2.0 0 3.265625 1.3125q1.265625 1.296875 1.265625 3.6093597q0 1.859375 -0.5625 2.9375q-0.5625 1.0625 -1.640625 1.65625q-1.0625 0.59375 -2.328125 0.59375q-2.03125 0 -3.28125 -1.296875q-1.25 -1.3125 -1.25 -3.765625zm1.6875 0q0 1.859375 0.796875 2.796875q0.8125 0.921875 2.046875 0.921875q1.21875 0 2.03125 -0.921875q0.8125 -0.9375 0.8125 -2.84375q0 -1.7968597 -0.8125 -2.7187347q-0.8125 -0.921875 -2.03125 -0.921875q-1.234375 0 -2.046875 0.921875q-0.796875 0.90625 -0.796875 2.7656097zm15.625717 4.84375l0 -1.421875q-1.125 1.640625 -3.0625 1.640625q-0.859375 0 -1.609375 -0.328125q-0.734375 -0.328125 -1.09375 -0.828125q-0.359375 -0.5 -0.5 -1.21875q-0.109375 -0.46875 -0.109375 -1.53125l0 -5.9843597l1.640625 0l0 5.3593597q0 1.28125 0.109375 1.734375q0.15625 0.640625 0.65625 1.015625q0.5 0.375 1.234375 0.375q0.734375 0 1.375 -0.375q0.65625 -0.390625 0.921875 -1.03125q0.265625 -0.65625 0.265625 -1.890625l0 -5.1874847l1.640625 0l0 9.67186l-1.46875 0zm7.625717 -1.46875l0.234375 1.453125q-0.6875 0.140625 -1.234375 0.140625q-0.890625 0 -1.390625 -0.28125q-0.484375 -0.28125 -0.6875 -0.734375q-0.203125 -0.46875 -0.203125 -1.9375l0 -5.5781097l-1.203125 0l0 -1.265625l1.203125 0l0 -2.390625l1.625 -0.984375l0 3.375l1.65625 0l0 1.265625l-1.65625 0l0 5.6718597q0 0.6875 0.078125 0.890625q0.09375 0.203125 0.28125 0.328125q0.203125 0.109375 0.578125 0.109375q0.265625 0 0.71875 -0.0625zm8.230179 -1.640625l1.6875 0.203125q-0.40625 1.484375 -1.484375 2.3125q-1.078125 0.8125 -2.765625 0.8125q-2.125 0 -3.375 -1.296875q-1.234375 -1.3125 -1.234375 -3.671875q0 -2.4531097 1.25 -3.7968597q1.265625 -1.34375 3.265625 -1.34375q1.9375 0 3.15625 1.328125q1.234375 1.3125 1.234375 3.7031097q0 0.15625 0 0.4375l-7.21875 0q0.09375 1.59375 0.90625 2.453125q0.8125 0.84375 2.015625 0.84375q0.90625 0 1.546875 -0.46875q0.640625 -0.484375 1.015625 -1.515625zm-5.390625 -2.6562347l5.40625 0q-0.109375 -1.21875 -0.625 -1.828125q-0.78125 -0.953125 -2.03125 -0.953125q-1.125 0 -1.90625 0.765625q-0.765625 0.75 -0.84375 2.015625zm9.125717 5.7656097l0 -9.67186l1.46875 0l0 1.46875q0.5625 -1.03125 1.03125 -1.359375q0.484375 -0.328125 1.0625 -0.328125q0.828125 0 1.6875 0.53125l-0.5625 1.515625q-0.609375 -0.359375 -1.203125 -0.359375q-0.546875 0 -0.96875 0.328125q-0.421875 0.328125 -0.609375 0.890625q-0.28125 0.875 -0.28125 1.9218597l0 5.0625l-1.625 0z" fill-rule="nonzero"/><path fill="#666666" d="m241.7979 44.61155l0 0c0 3.4398193 18.853409 6.228344 42.110245 6.228344c23.256836 0 42.11023 -2.7885246 42.11023 -6.228344l0 37.37008c0 3.4398193 -18.853394 6.228348 -42.11023 6.228348c-23.256836 0 -42.110245 -2.7885284 -42.110245 -6.228348z" fill-rule="evenodd"/><path fill="#a3a3a3" d="m241.7979 44.61155l0 0c0 -3.4398232 18.853409 -6.228348 42.110245 -6.228348c23.256836 0 42.11023 2.7885246 42.11023 6.228348l0 0c0 3.4398193 -18.853394 6.228344 -42.11023 6.228344c-23.256836 0 -42.110245 -2.7885246 -42.110245 -6.228344z" fill-rule="evenodd"/><path fill="#000000" fill-opacity="0.0" d="m326.01837 44.61155l0 0c0 3.4398193 -18.853394 6.228344 -42.11023 6.228344c-23.256836 0 -42.110245 -2.7885246 -42.110245 -6.228344l0 0c0 -3.4398232 18.853409 -6.228348 42.110245 -6.228348c23.256836 0 42.11023 2.7885246 42.11023 6.228348l0 37.37008c0 3.4398193 -18.853394 6.228348 -42.11023 6.228348c-23.256836 0 -42.110245 -2.7885284 -42.110245 -6.228348l0 -37.37008" fill-rule="evenodd"/><path stroke="#000000" stroke-width="2.0" stroke-linejoin="round" stroke-linecap="butt" d="m326.01837 44.61155l0 0c0 3.4398193 -18.853394 6.228344 -42.11023 6.228344c-23.256836 0 -42.110245 -2.7885246 -42.110245 -6.228344l0 0c0 -3.4398232 18.853409 -6.228348 42.110245 -6.228348c23.256836 0 42.11023 2.7885246 42.11023 6.228348l0 37.37008c0 3.4398193 -18.853394 6.228348 -42.11023 6.228348c-23.256836 0 -42.110245 -2.7885284 -42.110245 -6.228348l0 -37.37008" fill-rule="evenodd"/><path fill="#ffffff" d="m256.28314 72.27076l0 -11.453125l5.078125 0q1.53125 0 2.328125 0.3125q0.796875 0.296875 1.265625 1.078125q0.484375 0.78125 0.484375 1.734375q0 1.21875 -0.796875 2.0625q-0.78125 0.828125 -2.4375 1.046875q0.609375 0.296875 0.921875 0.578125q0.65625 0.609375 1.25 1.515625l2.0 3.125l-1.90625 0l-1.515625 -2.390625q-0.671875 -1.03125 -1.109375 -1.578125q-0.421875 -0.546875 -0.765625 -0.765625q-0.328125 -0.21875 -0.6875 -0.296875q-0.25 -0.0625 -0.84375 -0.0625l-1.75 0l0 5.09375l-1.515625 0zm1.515625 -6.40625l3.25 0q1.046875 0 1.625 -0.203125q0.59375 -0.21875 0.890625 -0.6875q0.3125 -0.484375 0.3125 -1.03125q0 -0.8125 -0.59375 -1.328125q-0.59375 -0.53125 -1.859375 -0.53125l-3.625 0l0 3.78125zm10.0078125 6.40625l0 -11.453125l3.953125 0q1.328125 0 2.03125 0.15625q0.984375 0.234375 1.6875 0.828125q0.90625 0.765625 1.34375 1.953125q0.453125 1.1875 0.453125 2.71875q0 1.3125 -0.3125 2.328125q-0.296875 1.0 -0.78125 1.65625q-0.46875 0.65625 -1.03125 1.046875q-0.5625 0.375 -1.375 0.578125q-0.796875 0.1875 -1.828125 0.1875l-4.140625 0zm1.515625 -1.359375l2.453125 0q1.125 0 1.765625 -0.203125q0.65625 -0.21875 1.03125 -0.59375q0.546875 -0.546875 0.84375 -1.453125q0.296875 -0.90625 0.296875 -2.203125q0 -1.796875 -0.59375 -2.765625q-0.578125 -0.96875 -1.421875 -1.296875q-0.609375 -0.234375 -1.96875 -0.234375l-2.40625 0l0 8.75zm9.9765625 1.359375l0 -11.453125l4.296875 0q1.3125 0 2.109375 0.34375q0.796875 0.34375 1.234375 1.078125q0.453125 0.71875 0.453125 1.5q0 0.734375 -0.40625 1.390625q-0.390625 0.640625 -1.1875 1.046875q1.03125 0.296875 1.59375 1.03125q0.5625 0.734375 0.5625 1.734375q0 0.8125 -0.34375 1.5q-0.34375 0.6875 -0.84375 1.0625q-0.5 0.375 -1.25 0.578125q-0.75 0.1875 -1.84375 0.1875l-4.375 0zm1.515625 -6.640625l2.484375 0q1.0 0 1.4375 -0.140625q0.578125 -0.171875 0.875 -0.5625q0.296875 -0.40625 0.296875 -1.0q0 -0.578125 -0.28125 -1.0q-0.265625 -0.4375 -0.78125 -0.59375q-0.5 -0.171875 -1.734375 -0.171875l-2.296875 0l0 3.46875zm0 5.28125l2.859375 0q0.734375 0 1.03125 -0.046875q0.515625 -0.09375 0.859375 -0.3125q0.359375 -0.21875 0.578125 -0.640625q0.234375 -0.421875 0.234375 -0.96875q0 -0.640625 -0.328125 -1.109375q-0.328125 -0.46875 -0.90625 -0.65625q-0.578125 -0.203125 -1.671875 -0.203125l-2.65625 0l0 3.9375zm9.171875 1.359375l0 -11.453125l2.28125 0l2.71875 8.109375q0.375 1.125 0.546875 1.6875q0.1875 -0.625 0.609375 -1.828125l2.734375 -7.96875l2.046875 0l0 11.453125l-1.46875 0l0 -9.59375l-3.328125 9.59375l-1.359375 0l-3.3125 -9.75l0 9.75l-1.46875 0zm12.859375 -3.6875l1.4375 -0.125q0.09375 0.859375 0.46875 1.421875q0.375 0.546875 1.15625 0.890625q0.78125 0.328125 1.75 0.328125q0.875 0 1.53125 -0.25q0.671875 -0.265625 0.984375 -0.703125q0.328125 -0.453125 0.328125 -0.984375q0 -0.546875 -0.3125 -0.9375q-0.3125 -0.40625 -1.03125 -0.6875q-0.453125 -0.171875 -2.03125 -0.546875q-1.578125 -0.390625 -2.21875 -0.71875q-0.8125 -0.4375 -1.21875 -1.0625q-0.40625 -0.640625 -0.40625 -1.4375q0 -0.859375 0.484375 -1.609375q0.5 -0.765625 1.4375 -1.15625q0.953125 -0.390625 2.109375 -0.390625q1.28125 0 2.25 0.421875q0.96875 0.40625 1.484375 1.203125q0.53125 0.796875 0.578125 1.796875l-1.453125 0.109375q-0.125 -1.078125 -0.796875 -1.625q-0.671875 -0.5625 -2.0 -0.5625q-1.375 0 -2.0 0.5q-0.625 0.5 -0.625 1.21875q0 0.609375 0.4375 1.015625q0.4375 0.390625 2.28125 0.8125q1.859375 0.421875 2.546875 0.734375q1.0 0.453125 1.46875 1.171875q0.484375 0.703125 0.484375 1.625q0 0.90625 -0.53125 1.71875q-0.515625 0.8125 -1.5 1.265625q-0.984375 0.453125 -2.203125 0.453125q-1.5625 0 -2.609375 -0.453125q-1.046875 -0.46875 -1.65625 -1.375q-0.59375 -0.90625 -0.625 -2.0625z" fill-rule="nonzero"/><path fill="#000000" fill-opacity="0.0" d="m262.9796 149.95801l-62.771652 0" fill-rule="evenodd"/><path stroke="#666666" stroke-width="2.0" stroke-linejoin="round" stroke-linecap="butt" d="m255.39963 149.95801l-47.61168 0" fill-rule="evenodd"/><path fill="#666666" stroke="#666666" stroke-width="2.0" stroke-linecap="butt" d="m261.9796 149.95801c0 1.8170166 -1.472992 3.2899933 -3.2900085 3.2899933c-1.8170166 0 -3.2899933 -1.4729767 -3.2899933 -3.2899933c0 -1.8170166 1.4729767 -3.2900085 3.2899933 -3.2900085c1.8170166 0 3.2900085 1.472992 3.2900085 3.2900085z" fill-rule="nonzero"/><path fill="#666666" stroke="#666666" stroke-width="2.0" stroke-linecap="butt" d="m201.20796 149.95801c0 -1.8170166 1.472992 -3.2900085 3.2900085 -3.2900085c1.8170166 0 3.2899933 1.472992 3.2899933 3.2900085c0 1.8170166 -1.4729767 3.2899933 -3.2899933 3.2899933c-1.8170166 0 -3.2900085 -1.4729767 -3.2900085 -3.2899933z" fill-rule="nonzero"/><path fill="#000000" fill-opacity="0.0" d="m179.29134 178.22572l-0.09448242 57.795273" fill-rule="evenodd"/><path stroke="#666666" stroke-width="2.0" stroke-linejoin="round" stroke-linecap="butt" stroke-dasharray="2.0,6.0" d="m179.27895 185.80571l-0.06971741 42.6353" fill-rule="evenodd"/><path stroke="#666666" stroke-width="2.0" stroke-linecap="butt" d="m179.2897 179.22572c1.8170166 0.002960205 3.2875824 1.478363 3.2846222 3.2953644c-0.0029754639 1.8170166 -1.478363 3.2875977 -3.2953796 3.2846222c-1.8170166 -0.0029754639 -3.2875824 -1.478363 -3.2846222 -3.2953796c0.0029754639 -1.8170013 1.478363 -3.2875824 3.2953796 -3.284607z" fill-rule="nonzero"/><path stroke="#666666" stroke-width="2.0" stroke-linecap="butt" d="m179.19849 235.021c-1.8170166 -0.0029754639 -3.2875824 -1.478363 -3.2846222 -3.2953644c0.0029754639 -1.8170166 1.478363 -3.2875977 3.2953796 -3.2846222c1.8170166 0.0029754639 3.2875824 1.478363 3.2846222 3.2953796c-0.0029754639 1.8170013 -1.478363 3.2875824 -3.2953796 3.284607z" fill-rule="nonzero"/><path fill="#fff2cc" d="m269.95612 121.69029l27.905243 0l0 0c1.8502808 0 3.6247864 0.7350235 4.933136 2.043373c1.3083496 1.3083496 2.043396 3.0828552 2.043396 4.9331436l0 49.558914c0 1.9836426E-4 -1.8310547E-4 3.5095215E-4 -3.6621094E-4 3.5095215E-4l-41.85791 -3.5095215E-4l0 0c-2.1362305E-4 0 -3.6621094E-4 -1.5258789E-4 -3.6621094E-4 -3.5095215E-4l3.6621094E-4 -49.558563l0 0c0 -3.8530273 3.1234741 -6.9765167 6.9765015 -6.9765167z" fill-rule="evenodd"/><path stroke="#666666" stroke-width="2.0" stroke-linejoin="round" stroke-linecap="butt" d="m269.95612 121.69029l27.905243 0l0 0c1.8502808 0 3.6247864 0.7350235 4.933136 2.043373c1.3083496 1.3083496 2.043396 3.0828552 2.043396 4.9331436l0 49.558914c0 1.9836426E-4 -1.8310547E-4 3.5095215E-4 -3.6621094E-4 3.5095215E-4l-41.85791 -3.5095215E-4l0 0c-2.1362305E-4 0 -3.6621094E-4 -1.5258789E-4 -3.6621094E-4 -3.5095215E-4l3.6621094E-4 -49.558563l0 0c0 -3.8530273 3.1234741 -6.9765167 6.9765015 -6.9765167z" fill-rule="evenodd"/><path fill="#000000" fill-opacity="0.0" d="m270.6161 145.78215l26.582672 0" fill-rule="evenodd"/><path stroke="#999999" stroke-width="2.0" stroke-linejoin="round" stroke-linecap="butt" d="m270.6161 145.78215l26.582672 0" fill-rule="evenodd"/><path fill="#b7b7b7" d="m271.51373 162.94751l0 0c0 -2.1047668 1.5863953 -3.81102 3.5433044 -3.81102l0 0c0.9397278 0 1.8410034 0.40150452 2.5054932 1.1162109c0.66448975 0.7147064 1.0378113 1.6840668 1.0378113 2.694809l0 0c0 2.1047668 -1.5863953 3.81102 -3.5433044 3.81102l0 0c-1.9569092 0 -3.5433044 -1.706253 -3.5433044 -3.81102z" fill-rule="evenodd"/><path fill="#000000" fill-opacity="0.0" d="m270.6161 136.14174l26.582672 0" fill-rule="evenodd"/><path stroke="#999999" stroke-width="2.0" stroke-linejoin="round" stroke-linecap="butt" d="m270.6161 136.14174l26.582672 0" fill-rule="evenodd"/><path fill="#000000" fill-opacity="0.0" d="m283.90814 88.20998l0 33.480316" fill-rule="evenodd"/><path stroke="#666666" stroke-width="2.0" stroke-linejoin="round" stroke-linecap="butt" d="m283.90814 95.78998l0 18.320312" fill-rule="evenodd"/><path fill="#666666" stroke="#666666" stroke-width="2.0" stroke-linecap="butt" d="m283.90814 89.20998c1.8170166 0 3.2900085 1.4729843 3.2900085 3.290001c0 1.8170166 -1.472992 3.2899933 -3.2900085 3.2899933c-1.8170166 0 -3.2900085 -1.4729767 -3.2900085 -3.2899933c0 -1.8170166 1.472992 -3.290001 3.2900085 -3.290001z" fill-rule="nonzero"/><path fill="#666666" stroke="#666666" stroke-width="2.0" stroke-linecap="butt" d="m283.90814 120.69029c-1.8170166 0 -3.2900085 -1.4729843 -3.2900085 -3.290001c0 -1.8170166 1.472992 -3.290001 3.2900085 -3.290001c1.8170166 0 3.2900085 1.4729843 3.2900085 3.290001c0 1.8170166 -1.472992 3.290001 -3.2900085 3.290001z" fill-rule="nonzero"/></g></svg>