<svg version="1.1" viewBox="0.0 0.0 376.9396325459318 410.3044619422572" fill="none" stroke="none" stroke-linecap="square" stroke-miterlimit="10" xmlns:xlink="http://www.w3.org/1999/xlink" xmlns="http://www.w3.org/2000/svg"><clipPath id="p.0"><path d="m0 0l376.93964 0l0 410.30447l-376.93964 0l0 -410.30447z" clip-rule="nonzero"/></clipPath><g clip-path="url(#p.0)"><path fill="#000000" fill-opacity="0.0" d="m0 0l376.93964 0l0 410.30447l-376.93964 0z" fill-rule="evenodd"/><path fill="#666666" d="m35.150917 307.70602l68.25197 0l0 56.53543l-68.25197 0z" fill-rule="evenodd"/><path fill="#ffd966" d="m56.772995 335.99l-2.171875 0.390625q-0.109375 -0.65625 -0.5 -0.984375q-0.375 -0.328125 -1.0 -0.328125q-0.8125 0 -1.3125 0.578125q-0.484375 0.5625 -0.484375 1.890625q0 1.46875 0.5 2.078125q0.5 0.609375 1.328125 0.609375q0.625 0 1.015625 -0.34375q0.40625 -0.359375 0.578125 -1.234375l2.15625 0.375q-0.34375 1.484375 -1.296875 2.25q-0.953125 0.75 -2.546875 0.75q-1.828125 0 -2.90625 -1.140625q-1.078125 -1.15625 -1.078125 -3.1875q0 -2.0625 1.078125 -3.203125q1.09375 -1.140625 2.9375 -1.140625q1.515625 0 2.40625 0.65625q0.90625 0.640625 1.296875 1.984375zm1.6640625 5.84375l0 -11.453125l2.1875 0l0 11.453125l-2.1875 0zm4.4453125 -9.421875l0 -2.03125l2.1875 0l0 2.03125l-2.1875 0zm0 9.421875l0 -8.296875l2.1875 0l0 8.296875l-2.1875 0zm9.2421875 -2.640625l2.1875 0.359375q-0.421875 1.203125 -1.328125 1.84375q-0.90625 0.625 -2.28125 0.625q-2.15625 0 -3.203125 -1.421875q-0.8125 -1.125 -0.8125 -2.859375q0 -2.0625 1.078125 -3.21875q1.078125 -1.171875 2.71875 -1.171875q1.859375 0 2.921875 1.21875q1.078125 1.21875 1.03125 3.75l-5.5 0q0.015625 0.96875 0.515625 1.515625q0.515625 0.546875 1.28125 0.546875q0.515625 0 0.859375 -0.28125q0.359375 -0.28125 0.53125 -0.90625zm0.125 -2.21875q-0.015625 -0.953125 -0.484375 -1.453125q-0.46875 -0.5 -1.140625 -0.5q-0.71875 0 -1.1875 0.53125q-0.46875 0.515625 -0.46875 1.421875l3.28125 0zm11.5234375 4.859375l-2.203125 0l0 -4.234375q0 -1.34375 -0.140625 -1.734375q-0.140625 -0.40625 -0.453125 -0.625q-0.3125 -0.21875 -0.765625 -0.21875q-0.5625 0 -1.015625 0.3125q-0.453125 0.3125 -0.625 0.828125q-0.171875 0.515625 -0.171875 1.90625l0 3.765625l-2.1875 0l0 -8.296875l2.03125 0l0 1.21875q1.09375 -1.40625 2.734375 -1.40625q0.734375 0 1.328125 0.265625q0.609375 0.25 0.90625 0.65625q0.3125 0.40625 0.4375 0.921875q0.125 0.515625 0.125 1.484375l0 5.15625zm6.0234375 -8.296875l0 1.75l-1.5 0l0 3.34375q0 1.015625 0.046875 1.1875q0.046875 0.15625 0.1875 0.265625q0.15625 0.109375 0.375 0.109375q0.3125 0 0.890625 -0.203125l0.1875 1.703125q-0.765625 0.328125 -1.734375 0.328125q-0.59375 0 -1.078125 -0.203125q-0.46875 -0.203125 -0.703125 -0.515625q-0.21875 -0.3125 -0.296875 -0.859375q-0.078125 -0.375 -0.078125 -1.546875l0 -3.609375l-1.0 0l0 -1.75l1.0 0l0 -1.65625l2.203125 -1.28125l0 2.9375l1.5 0z" fill-rule="nonzero"/><path fill="#666666" d="m57.198162 367.706l24.157482 0l0 7.62204l-24.157482 0z" fill-rule="evenodd"/><path stroke="#434343" stroke-width="1.0" stroke-linejoin="round" stroke-linecap="butt" d="m57.198162 367.706l24.157482 0l0 7.62204l-24.157482 0z" fill-rule="evenodd"/><path fill="#d9d9d9" d="m27.166666 304.24014l84.220474 0l0 63.46457l-84.220474 0zm7.933073 7.933075l0 47.59845l68.35433 0l0 -47.59845z" fill-rule="evenodd"/><path stroke="#666666" stroke-width="2.0" stroke-linejoin="round" stroke-linecap="butt" d="m27.166666 304.24014l84.220474 0l0 63.46457l-84.220474 0zm7.933073 7.933075l0 47.59845l68.35433 0l0 -47.59845z" fill-rule="evenodd"/><path fill="#fff2cc" d="m40.34258 375.3281l57.86865 0c0.78800964 0 1.5437393 0.3130188 2.1009445 0.87023926c0.5572052 0.55718994 0.87023926 1.3129272 0.87023926 2.1009521l0 14.85556c0 3.0517578E-4 -2.3651123E-4 5.493164E-4 -5.264282E-4 5.493164E-4l-63.810493 -5.493164E-4l0 0c-2.937317E-4 0 -5.302429E-4 -2.1362305E-4 -5.302429E-4 -5.187988E-4l5.302429E-4 -14.8550415l0 0c0 -1.6409607 1.330246 -2.9711914 2.9711876 -2.9711914z" fill-rule="evenodd"/><path stroke="#999999" stroke-width="2.0" stroke-linejoin="round" stroke-linecap="butt" d="m40.34258 375.3281l57.86865 0c0.78800964 0 1.5437393 0.3130188 2.1009445 0.87023926c0.5572052 0.55718994 0.87023926 1.3129272 0.87023926 2.1009521l0 14.85556c0 3.0517578E-4 -2.3651123E-4 5.493164E-4 -5.264282E-4 5.493164E-4l-63.810493 -5.493164E-4l0 0c-2.937317E-4 0 -5.302429E-4 -2.1362305E-4 -5.302429E-4 -5.187988E-4l5.302429E-4 -14.8550415l0 0c0 -1.6409607 1.330246 -2.9711914 2.9711876 -2.9711914z" fill-rule="evenodd"/><path fill="#000000" fill-opacity="0.0" d="m69.384514 384.24146l26.58268 0" fill-rule="evenodd"/><path stroke="#999999" stroke-width="2.0" stroke-linejoin="round" stroke-linecap="butt" d="m69.384514 384.24146l26.58268 0" fill-rule="evenodd"/><path fill="#b7b7b7" d="m43.681103 384.24146l0 0c0 -2.1047668 1.5863914 -3.8110046 3.5433083 -3.8110046l0 0c0.93974304 0 1.8409958 0.40151978 2.5054932 1.1162109c0.6645012 0.7147217 1.0378113 1.6840515 1.0378113 2.6947937l0 0c0 2.1047974 -1.5863914 3.8110352 -3.5433044 3.8110352l0 0c-1.9569168 0 -3.5433083 -1.7062378 -3.5433083 -3.8110352z" fill-rule="evenodd"/><path fill="#000000" fill-opacity="0.0" d="m141.08923 254.42258l-71.81102 0l0 49.82675" fill-rule="evenodd"/><path stroke="#666666" stroke-width="2.0" stroke-linejoin="round" stroke-linecap="butt" d="m133.50923 254.42258l-64.23102 0l0 42.246765" fill-rule="evenodd"/><path fill="#666666" stroke="#666666" stroke-width="2.0" stroke-linecap="butt" d="m140.08923 254.42258c0 1.8170166 -1.4729767 3.2900085 -3.2899933 3.2900085c-1.8170166 0 -3.2900085 -1.472992 -3.2900085 -3.2900085c0 -1.8170166 1.472992 -3.2900085 3.2900085 -3.2900085c1.8170166 0 3.2899933 1.472992 3.2899933 3.2900085z" fill-rule="nonzero"/><path fill="#666666" stroke="#666666" stroke-width="2.0" stroke-linecap="butt" d="m69.27821 303.24933c-1.8170166 0 -3.290001 -1.4729614 -3.290001 -3.289978c0 -1.8170166 1.4729843 -3.2900085 3.290001 -3.2900085c1.8170166 0 3.290001 1.472992 3.290001 3.2900085c0 1.8170166 -1.4729843 3.289978 -3.290001 3.289978z" fill-rule="nonzero"/><path fill="#666666" d="m149.07217 307.70602l68.25197 0l0 56.53543l-68.25197 0z" fill-rule="evenodd"/><path fill="#ffd966" d="m170.69426 335.99l-2.171875 0.390625q-0.109375 -0.65625 -0.5 -0.984375q-0.375 -0.328125 -1.0 -0.328125q-0.8125 0 -1.3125 0.578125q-0.484375 0.5625 -0.484375 1.890625q0 1.46875 0.5 2.078125q0.5 0.609375 1.328125 0.609375q0.625 0 1.015625 -0.34375q0.40625 -0.359375 0.578125 -1.234375l2.15625 0.375q-0.34375 1.484375 -1.296875 2.25q-0.953125 0.75 -2.546875 0.75q-1.828125 0 -2.90625 -1.140625q-1.078125 -1.15625 -1.078125 -3.1875q0 -2.0625 1.078125 -3.203125q1.09375 -1.140625 2.9375 -1.140625q1.515625 0 2.40625 0.65625q0.90625 0.640625 1.296875 1.984375zm1.6640625 5.84375l0 -11.453125l2.1875 0l0 11.453125l-2.1875 0zm4.4453125 -9.421875l0 -2.03125l2.1875 0l0 2.03125l-2.1875 0zm0 9.421875l0 -8.296875l2.1875 0l0 8.296875l-2.1875 0zm9.2421875 -2.640625l2.1875 0.359375q-0.421875 1.203125 -1.328125 1.84375q-0.90625 0.625 -2.28125 0.625q-2.15625 0 -3.203125 -1.421875q-0.8125 -1.125 -0.8125 -2.859375q0 -2.0625 1.078125 -3.21875q1.078125 -1.171875 2.71875 -1.171875q1.859375 0 2.921875 1.21875q1.078125 1.21875 1.03125 3.75l-5.5 0q0.015625 0.96875 0.515625 1.515625q0.515625 0.546875 1.28125 0.546875q0.515625 0 0.859375 -0.28125q0.359375 -0.28125 0.53125 -0.90625zm0.125 -2.21875q-0.015625 -0.953125 -0.484375 -1.453125q-0.46875 -0.5 -1.140625 -0.5q-0.71875 0 -1.1875 0.53125q-0.46875 0.515625 -0.46875 1.421875l3.28125 0zm11.5234375 4.859375l-2.203125 0l0 -4.234375q0 -1.34375 -0.140625 -1.734375q-0.140625 -0.40625 -0.453125 -0.625q-0.3125 -0.21875 -0.765625 -0.21875q-0.5625 0 -1.015625 0.3125q-0.453125 0.3125 -0.625 0.828125q-0.171875 0.515625 -0.171875 1.90625l0 3.765625l-2.1875 0l0 -8.296875l2.03125 0l0 1.21875q1.09375 -1.40625 2.734375 -1.40625q0.734375 0 1.328125 0.265625q0.609375 0.25 0.90625 0.65625q0.3125 0.40625 0.4375 0.921875q0.125 0.515625 0.125 1.484375l0 5.15625zm6.0234375 -8.296875l0 1.75l-1.5 0l0 3.34375q0 1.015625 0.046875 1.1875q0.046875 0.15625 0.1875 0.265625q0.15625 0.109375 0.375 0.109375q0.3125 0 0.890625 -0.203125l0.1875 1.703125q-0.765625 0.328125 -1.734375 0.328125q-0.59375 0 -1.078125 -0.203125q-0.46875 -0.203125 -0.703125 -0.515625q-0.21875 -0.3125 -0.296875 -0.859375q-0.078125 -0.375 -0.078125 -1.546875l0 -3.609375l-1.0 0l0 -1.75l1.0 0l0 -1.65625l2.203125 -1.28125l0 2.9375l1.5 0z" fill-rule="nonzero"/><path fill="#666666" d="m171.11942 367.706l24.157486 0l0 7.62204l-24.157486 0z" fill-rule="evenodd"/><path stroke="#434343" stroke-width="1.0" stroke-linejoin="round" stroke-linecap="butt" d="m171.11942 367.706l24.157486 0l0 7.62204l-24.157486 0z" fill-rule="evenodd"/><path fill="#d9d9d9" d="m141.08792 304.24014l84.220474 0l0 63.46457l-84.220474 0zm7.933075 7.933075l0 47.59845l68.35434 0l0 -47.59845z" fill-rule="evenodd"/><path stroke="#666666" stroke-width="2.0" stroke-linejoin="round" stroke-linecap="butt" d="m141.08792 304.24014l84.220474 0l0 63.46457l-84.220474 0zm7.933075 7.933075l0 47.59845l68.35434 0l0 -47.59845z" fill-rule="evenodd"/><path fill="#fff2cc" d="m154.26384 375.3281l57.868652 0c0.78800964 0 1.5437317 0.3130188 2.100937 0.87023926c0.5572052 0.55718994 0.87023926 1.3129272 0.87023926 2.1009521l0 14.85556c0 3.0517578E-4 -2.2888184E-4 5.493164E-4 -5.187988E-4 5.493164E-4l-63.8105 -5.493164E-4l0 0c-2.89917E-4 0 -5.340576E-4 -2.1362305E-4 -5.340576E-4 -5.187988E-4l5.340576E-4 -14.8550415l0 0c0 -1.6409607 1.330246 -2.9711914 2.9711914 -2.9711914z" fill-rule="evenodd"/><path stroke="#999999" stroke-width="2.0" stroke-linejoin="round" stroke-linecap="butt" d="m154.26384 375.3281l57.868652 0c0.78800964 0 1.5437317 0.3130188 2.100937 0.87023926c0.5572052 0.55718994 0.87023926 1.3129272 0.87023926 2.1009521l0 14.85556c0 3.0517578E-4 -2.2888184E-4 5.493164E-4 -5.187988E-4 5.493164E-4l-63.8105 -5.493164E-4l0 0c-2.89917E-4 0 -5.340576E-4 -2.1362305E-4 -5.340576E-4 -5.187988E-4l5.340576E-4 -14.8550415l0 0c0 -1.6409607 1.330246 -2.9711914 2.9711914 -2.9711914z" fill-rule="evenodd"/><path fill="#000000" fill-opacity="0.0" d="m183.30577 384.24146l26.582687 0" fill-rule="evenodd"/><path stroke="#999999" stroke-width="2.0" stroke-linejoin="round" stroke-linecap="butt" d="m183.30577 384.24146l26.582687 0" fill-rule="evenodd"/><path fill="#b7b7b7" d="m157.60236 384.24146l0 0c0 -2.1047668 1.5863953 -3.8110046 3.5433197 -3.8110046l0 0c0.93974304 0 1.8409882 0.40151978 2.5054932 1.1162109c0.66448975 0.7147217 1.0378113 1.6840515 1.0378113 2.6947937l0 0c0 2.1047974 -1.5863953 3.8110352 -3.5433044 3.8110352l0 0c-1.9569244 0 -3.5433197 -1.7062378 -3.5433197 -3.8110352z" fill-rule="evenodd"/><path fill="#666666" d="m262.99344 307.70602l68.25195 0l0 56.53543l-68.25195 0z" fill-rule="evenodd"/><path fill="#ffd966" d="m284.6155 335.99l-2.171875 0.390625q-0.109375 -0.65625 -0.5 -0.984375q-0.375 -0.328125 -1.0 -0.328125q-0.8125 0 -1.3125 0.578125q-0.484375 0.5625 -0.484375 1.890625q0 1.46875 0.5 2.078125q0.5 0.609375 1.328125 0.609375q0.625 0 1.015625 -0.34375q0.40625 -0.359375 0.578125 -1.234375l2.15625 0.375q-0.34375 1.484375 -1.296875 2.25q-0.953125 0.75 -2.546875 0.75q-1.828125 0 -2.90625 -1.140625q-1.078125 -1.15625 -1.078125 -3.1875q0 -2.0625 1.078125 -3.203125q1.09375 -1.140625 2.9375 -1.140625q1.515625 0 2.40625 0.65625q0.90625 0.640625 1.296875 1.984375zm1.6640625 5.84375l0 -11.453125l2.1875 0l0 11.453125l-2.1875 0zm4.4453125 -9.421875l0 -2.03125l2.1875 0l0 2.03125l-2.1875 0zm0 9.421875l0 -8.296875l2.1875 0l0 8.296875l-2.1875 0zm9.2421875 -2.640625l2.1875 0.359375q-0.421875 1.203125 -1.328125 1.84375q-0.90625 0.625 -2.28125 0.625q-2.15625 0 -3.203125 -1.421875q-0.8125 -1.125 -0.8125 -2.859375q0 -2.0625 1.078125 -3.21875q1.078125 -1.171875 2.71875 -1.171875q1.859375 0 2.921875 1.21875q1.078125 1.21875 1.03125 3.75l-5.5 0q0.015625 0.96875 0.515625 1.515625q0.515625 0.546875 1.28125 0.546875q0.515625 0 0.859375 -0.28125q0.359375 -0.28125 0.53125 -0.90625zm0.125 -2.21875q-0.015625 -0.953125 -0.484375 -1.453125q-0.46875 -0.5 -1.140625 -0.5q-0.71875 0 -1.1875 0.53125q-0.46875 0.515625 -0.46875 1.421875l3.28125 0zm11.5234375 4.859375l-2.203125 0l0 -4.234375q0 -1.34375 -0.140625 -1.734375q-0.140625 -0.40625 -0.453125 -0.625q-0.3125 -0.21875 -0.765625 -0.21875q-0.5625 0 -1.015625 0.3125q-0.453125 0.3125 -0.625 0.828125q-0.171875 0.515625 -0.171875 1.90625l0 3.765625l-2.1875 0l0 -8.296875l2.03125 0l0 1.21875q1.09375 -1.40625 2.734375 -1.40625q0.734375 0 1.328125 0.265625q0.609375 0.25 0.90625 0.65625q0.3125 0.40625 0.4375 0.921875q0.125 0.515625 0.125 1.484375l0 5.15625zm6.0234375 -8.296875l0 1.75l-1.5 0l0 3.34375q0 1.015625 0.046875 1.1875q0.046875 0.15625 0.1875 0.265625q0.15625 0.109375 0.375 0.109375q0.3125 0 0.890625 -0.203125l0.1875 1.703125q-0.765625 0.328125 -1.734375 0.328125q-0.59375 0 -1.078125 -0.203125q-0.46875 -0.203125 -0.703125 -0.515625q-0.21875 -0.3125 -0.296875 -0.859375q-0.078125 -0.375 -0.078125 -1.546875l0 -3.609375l-1.0 0l0 -1.75l1.0 0l0 -1.65625l2.203125 -1.28125l0 2.9375l1.5 0z" fill-rule="nonzero"/><path fill="#666666" d="m285.04068 367.706l24.15747 0l0 7.62204l-24.15747 0z" fill-rule="evenodd"/><path stroke="#434343" stroke-width="1.0" stroke-linejoin="round" stroke-linecap="butt" d="m285.04068 367.706l24.15747 0l0 7.62204l-24.15747 0z" fill-rule="evenodd"/><path fill="#d9d9d9" d="m255.00919 304.24014l84.22046 0l0 63.46457l-84.22046 0zm7.933075 7.933075l0 47.59845l68.35434 0l0 -47.59845z" fill-rule="evenodd"/><path stroke="#666666" stroke-width="2.0" stroke-linejoin="round" stroke-linecap="butt" d="m255.00919 304.24014l84.22046 0l0 63.46457l-84.22046 0zm7.933075 7.933075l0 47.59845l68.35434 0l0 -47.59845z" fill-rule="evenodd"/><path fill="#fff2cc" d="m268.1851 375.3281l57.868652 0c0.7880249 0 1.5437317 0.3130188 2.1009521 0.87023926c0.55722046 0.55718994 0.87023926 1.3129272 0.87023926 2.1009521l0 14.85556c0 3.0517578E-4 -2.4414062E-4 5.493164E-4 -5.187988E-4 5.493164E-4l-63.810516 -5.493164E-4l0 0c-2.746582E-4 0 -5.187988E-4 -2.1362305E-4 -5.187988E-4 -5.187988E-4l5.187988E-4 -14.8550415l0 0c0 -1.6409607 1.3302612 -2.9711914 2.9711914 -2.9711914z" fill-rule="evenodd"/><path stroke="#999999" stroke-width="2.0" stroke-linejoin="round" stroke-linecap="butt" d="m268.1851 375.3281l57.868652 0c0.7880249 0 1.5437317 0.3130188 2.1009521 0.87023926c0.55722046 0.55718994 0.87023926 1.3129272 0.87023926 2.1009521l0 14.85556c0 3.0517578E-4 -2.4414062E-4 5.493164E-4 -5.187988E-4 5.493164E-4l-63.810516 -5.493164E-4l0 0c-2.746582E-4 0 -5.187988E-4 -2.1362305E-4 -5.187988E-4 -5.187988E-4l5.187988E-4 -14.8550415l0 0c0 -1.6409607 1.3302612 -2.9711914 2.9711914 -2.9711914z" fill-rule="evenodd"/><path fill="#000000" fill-opacity="0.0" d="m297.22702 384.24146l26.582703 0" fill-rule="evenodd"/><path stroke="#999999" stroke-width="2.0" stroke-linejoin="round" stroke-linecap="butt" d="m297.22702 384.24146l26.582703 0" fill-rule="evenodd"/><path fill="#b7b7b7" d="m271.52362 384.24146l0 0c0 -2.1047668 1.5863953 -3.8110046 3.5433044 -3.8110046l0 0c0.9397583 0 1.8410034 0.40151978 2.5054932 1.1162109c0.66452026 0.7147217 1.0378113 1.6840515 1.0378113 2.6947937l0 0c0 2.1047974 -1.5863953 3.8110352 -3.5433044 3.8110352l0 0c-1.9569092 0 -3.5433044 -1.7062378 -3.5433044 -3.8110352z" fill-rule="evenodd"/><path fill="#000000" fill-opacity="0.0" d="m183.22966 272.8386l-0.03149414 31.40155" fill-rule="evenodd"/><path stroke="#666666" stroke-width="2.0" stroke-linejoin="round" stroke-linecap="butt" d="m183.22205 280.41858l-0.016281128 16.241577" fill-rule="evenodd"/><path fill="#666666" stroke="#666666" stroke-width="2.0" stroke-linecap="butt" d="m183.22865 273.8386c1.8170166 0.0018005371 3.2885284 1.4762573 3.2866974 3.293274c-0.0018157959 1.8170166 -1.4762726 3.2885437 -3.2932892 3.2867126c-1.8170166 -0.0018310547 -3.2885284 -1.4762878 -3.2866974 -3.2933044c0.0018157959 -1.8170166 1.4762726 -3.2885132 3.2932892 -3.2866821z" fill-rule="nonzero"/><path fill="#666666" stroke="#666666" stroke-width="2.0" stroke-linecap="butt" d="m183.19917 303.24014c-1.8170166 -0.0018005371 -3.2885284 -1.4762573 -3.2867126 -3.293274c0.0018310547 -1.8170166 1.4762878 -3.2885437 3.2933044 -3.2867126c1.8170166 0.0018310547 3.2885284 1.4762878 3.2866974 3.2933044c-0.0018157959 1.8170166 -1.4762878 3.2885132 -3.2932892 3.2866821z" fill-rule="nonzero"/><path fill="#000000" fill-opacity="0.0" d="m225.30971 254.42258l71.81102 0l0 49.82675" fill-rule="evenodd"/><path stroke="#666666" stroke-width="2.0" stroke-linejoin="round" stroke-linecap="butt" d="m232.88971 254.42258l64.23102 0l0 42.246765" fill-rule="evenodd"/><path fill="#666666" stroke="#666666" stroke-width="2.0" stroke-linecap="butt" d="m226.30971 254.42258c0 -1.8170166 1.472992 -3.2900085 3.2900085 -3.2900085c1.8170166 0 3.2899933 1.472992 3.2899933 3.2900085c0 1.8170166 -1.4729767 3.2900085 -3.2899933 3.2900085c-1.8170166 0 -3.2900085 -1.472992 -3.2900085 -3.2900085z" fill-rule="nonzero"/><path fill="#666666" stroke="#666666" stroke-width="2.0" stroke-linecap="butt" d="m297.12073 303.24933c-1.8170166 0 -3.289978 -1.4729614 -3.289978 -3.289978c0 -1.8170166 1.4729614 -3.2900085 3.289978 -3.2900085c1.8170166 0 3.2900085 1.472992 3.2900085 3.2900085c0 1.8170166 -1.472992 3.289978 -3.2900085 3.289978z" fill-rule="nonzero"/><path fill="#666666" d="m141.08923 242.14973l0 0c0 -3.3891602 2.7474518 -6.136612 6.136612 -6.136612l71.947266 0c1.6275177 0 3.1884003 0.64653015 4.3392334 1.7973785c1.1508331 1.1508331 1.7973633 2.7117004 1.7973633 4.3392334l0 24.54567c0 3.3891602 -2.7474518 6.136627 -6.1365967 6.136627l-71.947266 0c-3.3891602 0 -6.136612 -2.747467 -6.136612 -6.136627z" fill-rule="evenodd"/><path stroke="#000000" stroke-width="2.0" stroke-linejoin="round" stroke-linecap="butt" d="m141.08923 242.14973l0 0c0 -3.3891602 2.7474518 -6.136612 6.136612 -6.136612l71.947266 0c1.6275177 0 3.1884003 0.64653015 4.3392334 1.7973785c1.1508331 1.1508331 1.7973633 2.7117004 1.7973633 4.3392334l0 24.54567c0 3.3891602 -2.7474518 6.136627 -6.1365967 6.136627l-71.947266 0c-3.3891602 0 -6.136612 -2.747467 -6.136612 -6.136627z" fill-rule="evenodd"/><path fill="#ffffff" d="m168.87027 261.34256l0 -13.35936l1.640625 0l0 4.796875q1.140625 -1.328125 2.890625 -1.328125q1.078125 0 1.859375 0.421875q0.796875 0.421875 1.140625 1.171875q0.34375 0.75 0.34375 2.171875l0 6.1249847l-1.640625 0l0 -6.1249847q0 -1.234375 -0.53125 -1.796875q-0.53125 -0.5625 -1.515625 -0.5625q-0.71875 0 -1.359375 0.390625q-0.640625 0.375 -0.921875 1.015625q-0.265625 0.640625 -0.265625 1.7812347l0 5.296875l-1.640625 0zm16.703842 0l0 -1.421875q-1.125 1.640625 -3.0625 1.640625q-0.859375 0 -1.609375 -0.328125q-0.734375 -0.328125 -1.09375 -0.828125q-0.359375 -0.5 -0.5 -1.21875q-0.109375 -0.46875 -0.109375 -1.53125l0 -5.9843597l1.640625 0l0 5.3593597q0 1.28125 0.109375 1.734375q0.15625 0.640625 0.65625 1.015625q0.5 0.375 1.234375 0.375q0.734375 0 1.375 -0.375q0.65625 -0.390625 0.921875 -1.03125q0.265625 -0.65625 0.265625 -1.890625l0 -5.1874847l1.640625 0l0 9.67186l-1.46875 0zm5.547592 0l-1.515625 0l0 -13.35936l1.640625 0l0 4.765625q1.046875 -1.296875 2.65625 -1.296875q0.890625 0 1.6875 0.359375q0.796875 0.359375 1.3125 1.015625q0.515625 0.640625 0.796875 1.5625q0.296875 0.921875 0.296875 1.9687347q0 2.484375 -1.234375 3.84375q-1.21875 1.359375 -2.953125 1.359375q-1.703125 0 -2.6875 -1.4375l0 1.21875zm-0.015625 -4.90625q0 1.734375 0.484375 2.515625q0.765625 1.265625 2.09375 1.265625q1.078125 0 1.859375 -0.9375q0.78125 -0.9375 0.78125 -2.78125q0 -1.8906097 -0.75 -2.7968597q-0.75 -0.90625 -1.828125 -0.90625q-1.0625 0 -1.859375 0.9375q-0.78125 0.9375 -0.78125 2.7031097z" fill-rule="nonzero"/><path fill="#666666" d="m35.150917 31.233595l68.25197 0l0 56.53543l-68.25197 0z" fill-rule="evenodd"/><path fill="#ffd966" d="m56.772995 59.517563l-2.171875 0.390625q-0.109375 -0.65625 -0.5 -0.984375q-0.375 -0.328125 -1.0 -0.328125q-0.8125 0 -1.3125 0.578125q-0.484375 0.5625 -0.484375 1.890625q0 1.46875 0.5 2.078125q0.5 0.609375 1.328125 0.609375q0.625 0 1.015625 -0.34375q0.40625 -0.359375 0.578125 -1.234375l2.15625 0.375q-0.34375 1.484375 -1.296875 2.25q-0.953125 0.75 -2.546875 0.75q-1.828125 0 -2.90625 -1.140625q-1.078125 -1.15625 -1.078125 -3.1875q0 -2.0625 1.078125 -3.203125q1.09375 -1.140625 2.9375 -1.140625q1.515625 0 2.40625 0.65625q0.90625 0.640625 1.296875 1.984375zm1.6640625 5.84375l0 -11.453125l2.1875 0l0 11.453125l-2.1875 0zm4.4453125 -9.421875l0 -2.03125l2.1875 0l0 2.03125l-2.1875 0zm0 9.421875l0 -8.296875l2.1875 0l0 8.296875l-2.1875 0zm9.2421875 -2.640625l2.1875 0.359375q-0.421875 1.203125 -1.328125 1.84375q-0.90625 0.625 -2.28125 0.625q-2.15625 0 -3.203125 -1.421875q-0.8125 -1.125 -0.8125 -2.859375q0 -2.0625 1.078125 -3.21875q1.078125 -1.171875 2.71875 -1.171875q1.859375 0 2.921875 1.21875q1.078125 1.21875 1.03125 3.75l-5.5 0q0.015625 0.96875 0.515625 1.515625q0.515625 0.546875 1.28125 0.546875q0.515625 0 0.859375 -0.28125q0.359375 -0.28125 0.53125 -0.90625zm0.125 -2.21875q-0.015625 -0.953125 -0.484375 -1.453125q-0.46875 -0.5 -1.140625 -0.5q-0.71875 0 -1.1875 0.53125q-0.46875 0.515625 -0.46875 1.421875l3.28125 0zm11.5234375 4.859375l-2.203125 0l0 -4.234375q0 -1.34375 -0.140625 -1.734375q-0.140625 -0.40625 -0.453125 -0.625q-0.3125 -0.21875 -0.765625 -0.21875q-0.5625 0 -1.015625 0.3125q-0.453125 0.3125 -0.625 0.828125q-0.171875 0.515625 -0.171875 1.90625l0 3.765625l-2.1875 0l0 -8.296875l2.03125 0l0 1.21875q1.09375 -1.40625 2.734375 -1.40625q0.734375 0 1.328125 0.265625q0.609375 0.25 0.90625 0.65625q0.3125 0.40625 0.4375 0.921875q0.125 0.515625 0.125 1.484375l0 5.15625zm6.0234375 -8.296875l0 1.75l-1.5 0l0 3.34375q0 1.015625 0.046875 1.1875q0.046875 0.15625 0.1875 0.265625q0.15625 0.109375 0.375 0.109375q0.3125 0 0.890625 -0.203125l0.1875 1.703125q-0.765625 0.328125 -1.734375 0.328125q-0.59375 0 -1.078125 -0.203125q-0.46875 -0.203125 -0.703125 -0.515625q-0.21875 -0.3125 -0.296875 -0.859375q-0.078125 -0.375 -0.078125 -1.546875l0 -3.609375l-1.0 0l0 -1.75l1.0 0l0 -1.65625l2.203125 -1.28125l0 2.9375l1.5 0z" fill-rule="nonzero"/><path fill="#666666" d="m57.198162 91.23354l24.157482 0l0 7.62204l-24.157482 0z" fill-rule="evenodd"/><path stroke="#434343" stroke-width="1.0" stroke-linejoin="round" stroke-linecap="butt" d="m57.198162 91.23354l24.157482 0l0 7.62204l-24.157482 0z" fill-rule="evenodd"/><path fill="#d9d9d9" d="m27.166666 27.767717l84.220474 0l0 63.46457l-84.220474 0zm7.933073 7.933069l0 47.598423l68.35433 0l0 -47.598423z" fill-rule="evenodd"/><path stroke="#666666" stroke-width="2.0" stroke-linejoin="round" stroke-linecap="butt" d="m27.166666 27.767717l84.220474 0l0 63.46457l-84.220474 0zm7.933073 7.933069l0 47.598423l68.35433 0l0 -47.598423z" fill-rule="evenodd"/><path fill="#fff2cc" d="m40.34258 98.855644l57.86865 0c0.78800964 0 1.5437393 0.31303406 2.1009445 0.87023926c0.5572052 0.5572052 0.87023926 1.3129425 0.87023926 2.1009445l0 14.855583c0 2.975464E-4 -2.3651123E-4 5.340576E-4 -5.264282E-4 5.340576E-4l-63.810493 -5.340576E-4l0 0c-2.937317E-4 0 -5.302429E-4 -2.3651123E-4 -5.302429E-4 -5.264282E-4l5.302429E-4 -14.855057l0 0c0 -1.6409378 1.330246 -2.9711838 2.9711876 -2.9711838z" fill-rule="evenodd"/><path stroke="#999999" stroke-width="2.0" stroke-linejoin="round" stroke-linecap="butt" d="m40.34258 98.855644l57.86865 0c0.78800964 0 1.5437393 0.31303406 2.1009445 0.87023926c0.5572052 0.5572052 0.87023926 1.3129425 0.87023926 2.1009445l0 14.855583c0 2.975464E-4 -2.3651123E-4 5.340576E-4 -5.264282E-4 5.340576E-4l-63.810493 -5.340576E-4l0 0c-2.937317E-4 0 -5.302429E-4 -2.3651123E-4 -5.302429E-4 -5.264282E-4l5.302429E-4 -14.855057l0 0c0 -1.6409378 1.330246 -2.9711838 2.9711876 -2.9711838z" fill-rule="evenodd"/><path fill="#000000" fill-opacity="0.0" d="m69.384514 107.76903l26.58268 0" fill-rule="evenodd"/><path stroke="#999999" stroke-width="2.0" stroke-linejoin="round" stroke-linecap="butt" d="m69.384514 107.76903l26.58268 0" fill-rule="evenodd"/><path fill="#b7b7b7" d="m43.681103 107.76903l0 0c0 -2.1047668 1.5863914 -3.81102 3.5433083 -3.81102l0 0c0.93974304 0 1.8409958 0.40151215 2.5054932 1.1162186c0.6645012 0.7147064 1.0378113 1.6840591 1.0378113 2.6948013l0 0c0 2.1047745 -1.5863914 3.8110275 -3.5433044 3.8110275l0 0c-1.9569168 0 -3.5433083 -1.706253 -3.5433083 -3.8110275z" fill-rule="evenodd"/><path fill="#666666" d="m141.08923 159.59854l0 0c0 -3.389145 2.7474518 -6.1365967 6.136612 -6.1365967l71.947266 0c1.6275177 0 3.1884003 0.64653015 4.3392334 1.7973633c1.1508331 1.1508484 1.7973633 2.7117157 1.7973633 4.3392334l0 24.5457c0 3.389145 -2.7474518 6.1365967 -6.1365967 6.1365967l-71.947266 0c-3.3891602 0 -6.136612 -2.7474518 -6.136612 -6.1365967z" fill-rule="evenodd"/><path stroke="#000000" stroke-width="2.0" stroke-linejoin="round" stroke-linecap="butt" d="m141.08923 159.59854l0 0c0 -3.389145 2.7474518 -6.1365967 6.136612 -6.1365967l71.947266 0c1.6275177 0 3.1884003 0.64653015 4.3392334 1.7973633c1.1508331 1.1508484 1.7973633 2.7117157 1.7973633 4.3392334l0 24.5457c0 3.389145 -2.7474518 6.1365967 -6.1365967 6.1365967l-71.947266 0c-3.3891602 0 -6.136612 -2.7474518 -6.136612 -6.1365967z" fill-rule="evenodd"/><path fill="#ffffff" d="m168.87027 178.7914l0 -13.359375l1.640625 0l0 4.796875q1.140625 -1.328125 2.890625 -1.328125q1.078125 0 1.859375 0.421875q0.796875 0.421875 1.140625 1.171875q0.34375 0.75 0.34375 2.171875l0 6.125l-1.640625 0l0 -6.125q0 -1.234375 -0.53125 -1.796875q-0.53125 -0.5625 -1.515625 -0.5625q-0.71875 0 -1.359375 0.390625q-0.640625 0.375 -0.921875 1.015625q-0.265625 0.640625 -0.265625 1.78125l0 5.296875l-1.640625 0zm16.703842 0l0 -1.421875q-1.125 1.640625 -3.0625 1.640625q-0.859375 0 -1.609375 -0.328125q-0.734375 -0.328125 -1.09375 -0.828125q-0.359375 -0.5 -0.5 -1.21875q-0.109375 -0.46875 -0.109375 -1.53125l0 -5.984375l1.640625 0l0 5.359375q0 1.28125 0.109375 1.734375q0.15625 0.640625 0.65625 1.015625q0.5 0.375 1.234375 0.375q0.734375 0 1.375 -0.375q0.65625 -0.390625 0.921875 -1.03125q0.265625 -0.65625 0.265625 -1.890625l0 -5.1875l1.640625 0l0 9.671875l-1.46875 0zm5.547592 0l-1.515625 0l0 -13.359375l1.640625 0l0 4.765625q1.046875 -1.296875 2.65625 -1.296875q0.890625 0 1.6875 0.359375q0.796875 0.359375 1.3125 1.015625q0.515625 0.640625 0.796875 1.5625q0.296875 0.921875 0.296875 1.96875q0 2.484375 -1.234375 3.84375q-1.21875 1.359375 -2.953125 1.359375q-1.703125 0 -2.6875 -1.4375l0 1.21875zm-0.015625 -4.90625q0 1.734375 0.484375 2.515625q0.765625 1.265625 2.09375 1.265625q1.078125 0 1.859375 -0.9375q0.78125 -0.9375 0.78125 -2.78125q0 -1.890625 -0.75 -2.796875q-0.75 -0.90625 -1.828125 -0.90625q-1.0625 0 -1.859375 0.9375q-0.78125 0.9375 -0.78125 2.703125z" fill-rule="nonzero"/><path fill="#000000" fill-opacity="0.0" d="m183.19948 190.28084l0 22.86615l0.06298828 0l0 22.866135" fill-rule="evenodd"/><path stroke="#666666" stroke-width="2.0" stroke-linejoin="round" stroke-linecap="butt" d="m183.19948 197.86082l0 15.286163l0.06298828 0l0 15.286148" fill-rule="evenodd"/><path fill="#666666" stroke="#666666" stroke-width="2.0" stroke-linecap="butt" d="m183.19948 191.28084c1.8170166 0 3.2899933 1.472992 3.2899933 3.2900085c0 1.8170166 -1.4729767 3.2899933 -3.2899933 3.2899933c-1.8170166 0 -3.2900085 -1.4729767 -3.2900085 -3.2899933c0 -1.8170166 1.472992 -3.2900085 3.2900085 -3.2900085z" fill-rule="nonzero"/><path fill="#666666" stroke="#666666" stroke-width="2.0" stroke-linecap="butt" d="m183.26247 235.01312c-1.8170166 0 -3.2899933 -1.4729767 -3.2899933 -3.2899933c0 -1.8170166 1.4729767 -3.2900085 3.2899933 -3.2900085c1.8170166 0 3.2899933 1.472992 3.2899933 3.2900085c0 1.8170166 -1.4729767 3.2899933 -3.2899933 3.2899933z" fill-rule="nonzero"/><path fill="#666666" d="m149.07217 31.233595l68.25197 0l0 56.53543l-68.25197 0z" fill-rule="evenodd"/><path fill="#ffd966" d="m170.69426 59.517563l-2.171875 0.390625q-0.109375 -0.65625 -0.5 -0.984375q-0.375 -0.328125 -1.0 -0.328125q-0.8125 0 -1.3125 0.578125q-0.484375 0.5625 -0.484375 1.890625q0 1.46875 0.5 2.078125q0.5 0.609375 1.328125 0.609375q0.625 0 1.015625 -0.34375q0.40625 -0.359375 0.578125 -1.234375l2.15625 0.375q-0.34375 1.484375 -1.296875 2.25q-0.953125 0.75 -2.546875 0.75q-1.828125 0 -2.90625 -1.140625q-1.078125 -1.15625 -1.078125 -3.1875q0 -2.0625 1.078125 -3.203125q1.09375 -1.140625 2.9375 -1.140625q1.515625 0 2.40625 0.65625q0.90625 0.640625 1.296875 1.984375zm1.6640625 5.84375l0 -11.453125l2.1875 0l0 11.453125l-2.1875 0zm4.4453125 -9.421875l0 -2.03125l2.1875 0l0 2.03125l-2.1875 0zm0 9.421875l0 -8.296875l2.1875 0l0 8.296875l-2.1875 0zm9.2421875 -2.640625l2.1875 0.359375q-0.421875 1.203125 -1.328125 1.84375q-0.90625 0.625 -2.28125 0.625q-2.15625 0 -3.203125 -1.421875q-0.8125 -1.125 -0.8125 -2.859375q0 -2.0625 1.078125 -3.21875q1.078125 -1.171875 2.71875 -1.171875q1.859375 0 2.921875 1.21875q1.078125 1.21875 1.03125 3.75l-5.5 0q0.015625 0.96875 0.515625 1.515625q0.515625 0.546875 1.28125 0.546875q0.515625 0 0.859375 -0.28125q0.359375 -0.28125 0.53125 -0.90625zm0.125 -2.21875q-0.015625 -0.953125 -0.484375 -1.453125q-0.46875 -0.5 -1.140625 -0.5q-0.71875 0 -1.1875 0.53125q-0.46875 0.515625 -0.46875 1.421875l3.28125 0zm11.5234375 4.859375l-2.203125 0l0 -4.234375q0 -1.34375 -0.140625 -1.734375q-0.140625 -0.40625 -0.453125 -0.625q-0.3125 -0.21875 -0.765625 -0.21875q-0.5625 0 -1.015625 0.3125q-0.453125 0.3125 -0.625 0.828125q-0.171875 0.515625 -0.171875 1.90625l0 3.765625l-2.1875 0l0 -8.296875l2.03125 0l0 1.21875q1.09375 -1.40625 2.734375 -1.40625q0.734375 0 1.328125 0.265625q0.609375 0.25 0.90625 0.65625q0.3125 0.40625 0.4375 0.921875q0.125 0.515625 0.125 1.484375l0 5.15625zm6.0234375 -8.296875l0 1.75l-1.5 0l0 3.34375q0 1.015625 0.046875 1.1875q0.046875 0.15625 0.1875 0.265625q0.15625 0.109375 0.375 0.109375q0.3125 0 0.890625 -0.203125l0.1875 1.703125q-0.765625 0.328125 -1.734375 0.328125q-0.59375 0 -1.078125 -0.203125q-0.46875 -0.203125 -0.703125 -0.515625q-0.21875 -0.3125 -0.296875 -0.859375q-0.078125 -0.375 -0.078125 -1.546875l0 -3.609375l-1.0 0l0 -1.75l1.0 0l0 -1.65625l2.203125 -1.28125l0 2.9375l1.5 0z" fill-rule="nonzero"/><path fill="#666666" d="m171.11942 91.23354l24.157486 0l0 7.62204l-24.157486 0z" fill-rule="evenodd"/><path stroke="#434343" stroke-width="1.0" stroke-linejoin="round" stroke-linecap="butt" d="m171.11942 91.23354l24.157486 0l0 7.62204l-24.157486 0z" fill-rule="evenodd"/><path fill="#d9d9d9" d="m141.08792 27.767717l84.220474 0l0 63.46457l-84.220474 0zm7.933075 7.933069l0 47.598423l68.35434 0l0 -47.598423z" fill-rule="evenodd"/><path stroke="#666666" stroke-width="2.0" stroke-linejoin="round" stroke-linecap="butt" d="m141.08792 27.767717l84.220474 0l0 63.46457l-84.220474 0zm7.933075 7.933069l0 47.598423l68.35434 0l0 -47.598423z" fill-rule="evenodd"/><path fill="#fff2cc" d="m154.26384 98.855644l57.868652 0c0.78800964 0 1.5437317 0.31303406 2.100937 0.87023926c0.5572052 0.5572052 0.87023926 1.3129425 0.87023926 2.1009445l0 14.855583c0 2.975464E-4 -2.2888184E-4 5.340576E-4 -5.187988E-4 5.340576E-4l-63.8105 -5.340576E-4l0 0c-2.89917E-4 0 -5.340576E-4 -2.3651123E-4 -5.340576E-4 -5.264282E-4l5.340576E-4 -14.855057l0 0c0 -1.6409378 1.330246 -2.9711838 2.9711914 -2.9711838z" fill-rule="evenodd"/><path stroke="#999999" stroke-width="2.0" stroke-linejoin="round" stroke-linecap="butt" d="m154.26384 98.855644l57.868652 0c0.78800964 0 1.5437317 0.31303406 2.100937 0.87023926c0.5572052 0.5572052 0.87023926 1.3129425 0.87023926 2.1009445l0 14.855583c0 2.975464E-4 -2.2888184E-4 5.340576E-4 -5.187988E-4 5.340576E-4l-63.8105 -5.340576E-4l0 0c-2.89917E-4 0 -5.340576E-4 -2.3651123E-4 -5.340576E-4 -5.264282E-4l5.340576E-4 -14.855057l0 0c0 -1.6409378 1.330246 -2.9711838 2.9711914 -2.9711838z" fill-rule="evenodd"/><path fill="#000000" fill-opacity="0.0" d="m183.30577 107.76903l26.582687 0" fill-rule="evenodd"/><path stroke="#999999" stroke-width="2.0" stroke-linejoin="round" stroke-linecap="butt" d="m183.30577 107.76903l26.582687 0" fill-rule="evenodd"/><path fill="#b7b7b7" d="m157.60236 107.76903l0 0c0 -2.1047668 1.5863953 -3.81102 3.5433197 -3.81102l0 0c0.93974304 0 1.8409882 0.40151215 2.5054932 1.1162186c0.66448975 0.7147064 1.0378113 1.6840591 1.0378113 2.6948013l0 0c0 2.1047745 -1.5863953 3.8110275 -3.5433044 3.8110275l0 0c-1.9569244 0 -3.5433197 -1.706253 -3.5433197 -3.8110275z" fill-rule="evenodd"/><path fill="#666666" d="m262.99344 31.233595l68.25195 0l0 56.53543l-68.25195 0z" fill-rule="evenodd"/><path fill="#ffd966" d="m284.6155 59.517563l-2.171875 0.390625q-0.109375 -0.65625 -0.5 -0.984375q-0.375 -0.328125 -1.0 -0.328125q-0.8125 0 -1.3125 0.578125q-0.484375 0.5625 -0.484375 1.890625q0 1.46875 0.5 2.078125q0.5 0.609375 1.328125 0.609375q0.625 0 1.015625 -0.34375q0.40625 -0.359375 0.578125 -1.234375l2.15625 0.375q-0.34375 1.484375 -1.296875 2.25q-0.953125 0.75 -2.546875 0.75q-1.828125 0 -2.90625 -1.140625q-1.078125 -1.15625 -1.078125 -3.1875q0 -2.0625 1.078125 -3.203125q1.09375 -1.140625 2.9375 -1.140625q1.515625 0 2.40625 0.65625q0.90625 0.640625 1.296875 1.984375zm1.6640625 5.84375l0 -11.453125l2.1875 0l0 11.453125l-2.1875 0zm4.4453125 -9.421875l0 -2.03125l2.1875 0l0 2.03125l-2.1875 0zm0 9.421875l0 -8.296875l2.1875 0l0 8.296875l-2.1875 0zm9.2421875 -2.640625l2.1875 0.359375q-0.421875 1.203125 -1.328125 1.84375q-0.90625 0.625 -2.28125 0.625q-2.15625 0 -3.203125 -1.421875q-0.8125 -1.125 -0.8125 -2.859375q0 -2.0625 1.078125 -3.21875q1.078125 -1.171875 2.71875 -1.171875q1.859375 0 2.921875 1.21875q1.078125 1.21875 1.03125 3.75l-5.5 0q0.015625 0.96875 0.515625 1.515625q0.515625 0.546875 1.28125 0.546875q0.515625 0 0.859375 -0.28125q0.359375 -0.28125 0.53125 -0.90625zm0.125 -2.21875q-0.015625 -0.953125 -0.484375 -1.453125q-0.46875 -0.5 -1.140625 -0.5q-0.71875 0 -1.1875 0.53125q-0.46875 0.515625 -0.46875 1.421875l3.28125 0zm11.5234375 4.859375l-2.203125 0l0 -4.234375q0 -1.34375 -0.140625 -1.734375q-0.140625 -0.40625 -0.453125 -0.625q-0.3125 -0.21875 -0.765625 -0.21875q-0.5625 0 -1.015625 0.3125q-0.453125 0.3125 -0.625 0.828125q-0.171875 0.515625 -0.171875 1.90625l0 3.765625l-2.1875 0l0 -8.296875l2.03125 0l0 1.21875q1.09375 -1.40625 2.734375 -1.40625q0.734375 0 1.328125 0.265625q0.609375 0.25 0.90625 0.65625q0.3125 0.40625 0.4375 0.921875q0.125 0.515625 0.125 1.484375l0 5.15625zm6.0234375 -8.296875l0 1.75l-1.5 0l0 3.34375q0 1.015625 0.046875 1.1875q0.046875 0.15625 0.1875 0.265625q0.15625 0.109375 0.375 0.109375q0.3125 0 0.890625 -0.203125l0.1875 1.703125q-0.765625 0.328125 -1.734375 0.328125q-0.59375 0 -1.078125 -0.203125q-0.46875 -0.203125 -0.703125 -0.515625q-0.21875 -0.3125 -0.296875 -0.859375q-0.078125 -0.375 -0.078125 -1.546875l0 -3.609375l-1.0 0l0 -1.75l1.0 0l0 -1.65625l2.203125 -1.28125l0 2.9375l1.5 0z" fill-rule="nonzero"/><path fill="#666666" d="m285.04068 91.23354l24.15747 0l0 7.62204l-24.15747 0z" fill-rule="evenodd"/><path stroke="#434343" stroke-width="1.0" stroke-linejoin="round" stroke-linecap="butt" d="m285.04068 91.23354l24.15747 0l0 7.62204l-24.15747 0z" fill-rule="evenodd"/><path fill="#d9d9d9" d="m255.00919 27.767717l84.22046 0l0 63.46457l-84.22046 0zm7.933075 7.933069l0 47.598423l68.35434 0l0 -47.598423z" fill-rule="evenodd"/><path stroke="#666666" stroke-width="2.0" stroke-linejoin="round" stroke-linecap="butt" d="m255.00919 27.767717l84.22046 0l0 63.46457l-84.22046 0zm7.933075 7.933069l0 47.598423l68.35434 0l0 -47.598423z" fill-rule="evenodd"/><path fill="#fff2cc" d="m268.1851 98.855644l57.868652 0c0.7880249 0 1.5437317 0.31303406 2.1009521 0.87023926c0.55722046 0.5572052 0.87023926 1.3129425 0.87023926 2.1009445l0 14.855583c0 2.975464E-4 -2.4414062E-4 5.340576E-4 -5.187988E-4 5.340576E-4l-63.810516 -5.340576E-4l0 0c-2.746582E-4 0 -5.187988E-4 -2.3651123E-4 -5.187988E-4 -5.264282E-4l5.187988E-4 -14.855057l0 0c0 -1.6409378 1.3302612 -2.9711838 2.9711914 -2.9711838z" fill-rule="evenodd"/><path stroke="#999999" stroke-width="2.0" stroke-linejoin="round" stroke-linecap="butt" d="m268.1851 98.855644l57.868652 0c0.7880249 0 1.5437317 0.31303406 2.1009521 0.87023926c0.55722046 0.5572052 0.87023926 1.3129425 0.87023926 2.1009445l0 14.855583c0 2.975464E-4 -2.4414062E-4 5.340576E-4 -5.187988E-4 5.340576E-4l-63.810516 -5.340576E-4l0 0c-2.746582E-4 0 -5.187988E-4 -2.3651123E-4 -5.187988E-4 -5.264282E-4l5.187988E-4 -14.855057l0 0c0 -1.6409378 1.3302612 -2.9711838 2.9711914 -2.9711838z" fill-rule="evenodd"/><path fill="#000000" fill-opacity="0.0" d="m297.22702 107.76903l26.582703 0" fill-rule="evenodd"/><path stroke="#999999" stroke-width="2.0" stroke-linejoin="round" stroke-linecap="butt" d="m297.22702 107.76903l26.582703 0" fill-rule="evenodd"/><path fill="#b7b7b7" d="m271.52362 107.76903l0 0c0 -2.1047668 1.5863953 -3.81102 3.5433044 -3.81102l0 0c0.9397583 0 1.8410034 0.40151215 2.5054932 1.1162186c0.66452026 0.7147064 1.0378113 1.6840591 1.0378113 2.6948013l0 0c0 2.1047745 -1.5863953 3.8110275 -3.5433044 3.8110275l0 0c-1.9569092 0 -3.5433044 -1.706253 -3.5433044 -3.8110275z" fill-rule="evenodd"/><path fill="#000000" fill-opacity="0.0" d="m141.08923 171.87138l-71.81102 0l0 -55.18109" fill-rule="evenodd"/><path stroke="#666666" stroke-width="2.0" stroke-linejoin="round" stroke-linecap="butt" d="m133.50923 171.87138l-64.23102 0l0 -47.601097" fill-rule="evenodd"/><path fill="#666666" stroke="#666666" stroke-width="2.0" stroke-linecap="butt" d="m140.08923 171.87138c0 1.8170166 -1.4729767 3.2900085 -3.2899933 3.2900085c-1.8170166 0 -3.2900085 -1.472992 -3.2900085 -3.2900085c0 -1.8170166 1.472992 -3.2899933 3.2900085 -3.2899933c1.8170166 0 3.2899933 1.4729767 3.2899933 3.2899933z" fill-rule="nonzero"/><path fill="#666666" stroke="#666666" stroke-width="2.0" stroke-linecap="butt" d="m69.27821 117.69029c1.8170166 0 3.290001 1.4729767 3.290001 3.2899933c0 1.8170166 -1.4729843 3.290001 -3.290001 3.290001c-1.8170166 0 -3.290001 -1.4729843 -3.290001 -3.290001c0 -1.8170166 1.4729843 -3.2899933 3.290001 -3.2899933z" fill-rule="nonzero"/><path fill="#000000" fill-opacity="0.0" d="m183.19948 153.46194l0 -18.389664l0.06298828 0l0 -18.397743" fill-rule="evenodd"/><path stroke="#666666" stroke-width="2.0" stroke-linejoin="round" stroke-linecap="butt" d="m183.19948 145.88194l0 -10.809647l0.06298828 0l0 -10.817757" fill-rule="evenodd"/><path fill="#666666" stroke="#666666" stroke-width="2.0" stroke-linecap="butt" d="m183.19948 152.46194c-1.8170166 0 -3.2900085 -1.472992 -3.2900085 -3.2900085c0 -1.8170166 1.472992 -3.2899933 3.2900085 -3.2899933c1.8170166 0 3.2899933 1.4729767 3.2899933 3.2899933c0 1.8170166 -1.4729767 3.2900085 -3.2899933 3.2900085z" fill-rule="nonzero"/><path fill="#666666" stroke="#666666" stroke-width="2.0" stroke-linecap="butt" d="m183.26247 117.67454c1.8170166 0 3.2899933 1.4729843 3.2899933 3.290001c0 1.8170166 -1.4729767 3.290001 -3.2899933 3.290001c-1.8170166 0 -3.2899933 -1.4729843 -3.2899933 -3.290001c0 -1.8170166 1.4729767 -3.290001 3.2899933 -3.290001z" fill-rule="nonzero"/><path fill="#000000" fill-opacity="0.0" d="m225.30971 171.87138l71.81102 0l0 -55.18109" fill-rule="evenodd"/><path stroke="#666666" stroke-width="2.0" stroke-linejoin="round" stroke-linecap="butt" d="m232.88971 171.87138l64.23102 0l0 -47.601097" fill-rule="evenodd"/><path fill="#666666" stroke="#666666" stroke-width="2.0" stroke-linecap="butt" d="m226.30971 171.87138c0 -1.8170166 1.472992 -3.2899933 3.2900085 -3.2899933c1.8170166 0 3.2899933 1.4729767 3.2899933 3.2899933c0 1.8170166 -1.4729767 3.2900085 -3.2899933 3.2900085c-1.8170166 0 -3.2900085 -1.472992 -3.2900085 -3.2900085z" fill-rule="nonzero"/><path fill="#666666" stroke="#666666" stroke-width="2.0" stroke-linecap="butt" d="m297.12073 117.69029c1.8170166 0 3.2900085 1.4729767 3.2900085 3.2899933c0 1.8170166 -1.472992 3.290001 -3.2900085 3.290001c-1.8170166 0 -3.289978 -1.4729843 -3.289978 -3.290001c0 -1.8170166 1.4729614 -3.2899933 3.289978 -3.2899933z" fill-rule="nonzero"/><path fill="#000000" fill-opacity="0.0" d="m240.11285 187.3727l57.007874 0l0 35.559067l-57.007874 0z" fill-rule="evenodd"/><path fill="#000000" d="m251.06598 209.1727l-1.078125 0l0 -9.546875l1.171875 0l0 3.40625q0.734375 -0.921875 1.890625 -0.921875q0.640625 0 1.203125 0.265625q0.578125 0.25 0.9375 0.71875q0.375 0.453125 0.578125 1.109375q0.203125 0.65625 0.203125 1.40625q0 1.78125 -0.875 2.75q-0.875 0.96875 -2.109375 0.96875q-1.21875 0 -1.921875 -1.015625l0 0.859375zm0 -3.5q0 1.234375 0.328125 1.78125q0.5625 0.90625 1.5 0.90625q0.765625 0 1.328125 -0.65625q0.5625 -0.671875 0.5625 -2.0q0 -1.34375 -0.546875 -1.984375q-0.53125 -0.65625 -1.296875 -0.65625q-0.765625 0 -1.328125 0.671875q-0.546875 0.671875 -0.546875 1.9375zm6.3187256 3.5l0 -6.90625l1.0625 0l0 1.046875q0.40625 -0.734375 0.734375 -0.96875q0.34375 -0.234375 0.765625 -0.234375q0.59375 0 1.203125 0.375l-0.40625 1.078125q-0.4375 -0.25 -0.859375 -0.25q-0.390625 0 -0.703125 0.234375q-0.296875 0.234375 -0.421875 0.640625q-0.203125 0.625 -0.203125 1.359375l0 3.625l-1.171875 0zm4.469635 -8.1875l0 -1.359375l1.171875 0l0 1.359375l-1.171875 0zm0 8.1875l0 -6.90625l1.171875 0l0 6.90625l-1.171875 0zm7.42984 0l0 -0.875q-0.65625 1.03125 -1.9375 1.03125q-0.8125 0 -1.515625 -0.453125q-0.6875 -0.453125 -1.078125 -1.265625q-0.375 -0.828125 -0.375 -1.890625q0 -1.03125 0.34375 -1.875q0.34375 -0.84375 1.03125 -1.28125q0.703125 -0.453125 1.546875 -0.453125q0.625 0 1.109375 0.265625q0.5 0.25 0.796875 0.671875l0 -3.421875l1.171875 0l0 9.546875l-1.09375 0zm-3.703125 -3.453125q0 1.328125 0.5625 1.984375q0.5625 0.65625 1.328125 0.65625q0.765625 0 1.296875 -0.625q0.53125 -0.625 0.53125 -1.90625q0 -1.421875 -0.546875 -2.078125q-0.546875 -0.671875 -1.34375 -0.671875q-0.78125 0 -1.3125 0.640625q-0.515625 0.625 -0.515625 2.0zm6.4124756 4.03125l1.140625 0.15625q0.078125 0.53125 0.40625 0.78125q0.4375 0.3125 1.1875 0.3125q0.8125 0 1.25 -0.328125q0.453125 -0.3125 0.609375 -0.90625q0.09375 -0.359375 0.078125 -1.5q-0.765625 0.90625 -1.90625 0.90625q-1.4375 0 -2.21875 -1.03125q-0.78125 -1.03125 -0.78125 -2.46875q0 -0.984375 0.359375 -1.8125q0.359375 -0.84375 1.03125 -1.296875q0.6875 -0.453125 1.609375 -0.453125q1.21875 0 2.015625 0.984375l0 -0.828125l1.078125 0l0 5.96875q0 1.609375 -0.328125 2.28125q-0.328125 0.6875 -1.046875 1.078125q-0.703125 0.390625 -1.75 0.390625q-1.234375 0 -2.0 -0.5625q-0.75 -0.5625 -0.734375 -1.671875zm0.984375 -4.15625q0 1.359375 0.53125 1.984375q0.546875 0.625 1.359375 0.625q0.796875 0 1.34375 -0.625q0.546875 -0.625 0.546875 -1.953125q0 -1.265625 -0.5625 -1.90625q-0.5625 -0.640625 -1.359375 -0.640625q-0.765625 0 -1.3125 0.640625q-0.546875 0.625 -0.546875 1.875zm11.381226 1.359375l1.203125 0.140625q-0.28125 1.0625 -1.0625 1.65625q-0.765625 0.578125 -1.96875 0.578125q-1.515625 0 -2.40625 -0.9375q-0.890625 -0.9375 -0.890625 -2.609375q0 -1.75 0.890625 -2.703125q0.90625 -0.96875 2.34375 -0.96875q1.390625 0 2.265625 0.9375q0.875 0.9375 0.875 2.65625q0 0.109375 0 0.3125l-5.15625 0q0.0625 1.140625 0.640625 1.75q0.578125 0.59375 1.4375 0.59375q0.65625 0 1.109375 -0.328125q0.453125 -0.34375 0.71875 -1.078125zm-3.84375 -1.90625l3.859375 0q-0.078125 -0.859375 -0.4375 -1.296875q-0.5625 -0.6875 -1.453125 -0.6875q-0.8125 0 -1.359375 0.546875q-0.546875 0.53125 -0.609375 1.4375z" fill-rule="nonzero"/><path fill="#000000" fill-opacity="0.0" d="m240.11285 205.15224l-56.0 12.629913" fill-rule="evenodd"/><path stroke="#000000" stroke-width="1.0" stroke-linejoin="round" stroke-linecap="butt" d="m240.11285 205.15224l-50.146988 11.3098755" fill-rule="evenodd"/><path fill="#000000" stroke="#000000" stroke-width="1.0" stroke-linecap="butt" d="m189.60245 214.85085l-4.063507 2.6096802l4.7902985 0.61283875z" fill-rule="evenodd"/></g></svg>