<svg version="1.1" viewBox="0.0 0.0 495.38582677165357 566.5538057742782" fill="none" stroke="none" stroke-linecap="square" stroke-miterlimit="10" xmlns:xlink="http://www.w3.org/1999/xlink" xmlns="http://www.w3.org/2000/svg"><clipPath id="p.0"><path d="m0 0l495.38583 0l0 566.55383l-495.38583 0l0 -566.55383z" clip-rule="nonzero"/></clipPath><g clip-path="url(#p.0)"><path fill="#000000" fill-opacity="0.0" d="m0 0l495.38583 0l0 566.55383l-495.38583 0z" fill-rule="evenodd"/><path fill="#b45f06" d="m205.29134 230.99295l0 0c0 3.3876343 19.48796 6.13385 43.527557 6.13385c24.039597 0 43.527573 -2.7462158 43.527573 -6.13385l0 36.80313c0 3.3876648 -19.487976 6.1338806 -43.527573 6.1338806c-24.039597 0 -43.527557 -2.7462158 -43.527557 -6.1338806z" fill-rule="evenodd"/><path fill="#d29f69" d="m205.29134 230.99295l0 0c0 -3.3876343 19.48796 -6.1338654 43.527557 -6.1338654c24.039597 0 43.527573 2.746231 43.527573 6.1338654l0 0c0 3.3876343 -19.487976 6.13385 -43.527573 6.13385c-24.039597 0 -43.527557 -2.7462158 -43.527557 -6.13385z" fill-rule="evenodd"/><path fill="#000000" fill-opacity="0.0" d="m292.34647 230.99295l0 0c0 3.3876343 -19.487976 6.13385 -43.527573 6.13385c-24.039597 0 -43.527557 -2.7462158 -43.527557 -6.13385l0 0c0 -3.3876343 19.48796 -6.1338654 43.527557 -6.1338654c24.039597 0 43.527573 2.746231 43.527573 6.1338654l0 36.80313c0 3.3876648 -19.487976 6.1338806 -43.527573 6.1338806c-24.039597 0 -43.527557 -2.7462158 -43.527557 -6.1338806l0 -36.80313" fill-rule="evenodd"/><path stroke="#000000" stroke-width="2.0" stroke-linejoin="round" stroke-linecap="butt" d="m292.34647 230.99295l0 0c0 3.3876343 -19.487976 6.13385 -43.527573 6.13385c-24.039597 0 -43.527557 -2.7462158 -43.527557 -6.13385l0 0c0 -3.3876343 19.48796 -6.1338654 43.527557 -6.1338654c24.039597 0 43.527573 2.746231 43.527573 6.1338654l0 36.80313c0 3.3876648 -19.487976 6.1338806 -43.527573 6.1338806c-24.039597 0 -43.527557 -2.7462158 -43.527557 -6.1338806l0 -36.80313" fill-rule="evenodd"/><path fill="#ffff00" d="m243.51993 259.38144l0 -13.35936l4.609375 0q1.546875 0 2.375 0.203125q1.140625 0.25 1.953125 0.953125q1.0625 0.890625 1.578125 2.28125q0.53125 1.390625 0.53125 3.171875q0 1.515625 -0.359375 2.703125q-0.359375 1.1718597 -0.921875 1.9374847q-0.546875 0.765625 -1.203125 1.21875q-0.65625 0.4375 -1.59375 0.671875q-0.9375 0.21875 -2.140625 0.21875l-4.828125 0zm1.765625 -1.578125l2.859375 0q1.3125 0 2.0625 -0.234375q0.75 -0.25 1.203125 -0.703125q0.625 -0.625 0.96875 -1.6874847q0.359375 -1.0625 0.359375 -2.578125q0 -2.09375 -0.6875 -3.21875q-0.6875 -1.125 -1.671875 -1.5q-0.703125 -0.28125 -2.28125 -0.28125l-2.8125 0l0 10.20311z" fill-rule="nonzero"/><path fill="#b45f06" d="m205.29134 190.35728l0 0c0 3.3876495 19.48796 6.1338654 43.527557 6.1338654c24.039597 0 43.527573 -2.7462158 43.527573 -6.1338654l0 36.80316c0 3.3876343 -19.487976 6.13385 -43.527573 6.13385c-24.039597 0 -43.527557 -2.7462158 -43.527557 -6.13385z" fill-rule="evenodd"/><path fill="#d29f69" d="m205.29134 190.35728l0 0c0 -3.3876343 19.48796 -6.13385 43.527557 -6.13385c24.039597 0 43.527573 2.7462158 43.527573 6.13385l0 0c0 3.3876495 -19.487976 6.1338654 -43.527573 6.1338654c-24.039597 0 -43.527557 -2.7462158 -43.527557 -6.1338654z" fill-rule="evenodd"/><path fill="#000000" fill-opacity="0.0" d="m292.34647 190.35728l0 0c0 3.3876495 -19.487976 6.1338654 -43.527573 6.1338654c-24.039597 0 -43.527557 -2.7462158 -43.527557 -6.1338654l0 0c0 -3.3876343 19.48796 -6.13385 43.527557 -6.13385c24.039597 0 43.527573 2.7462158 43.527573 6.13385l0 36.80316c0 3.3876343 -19.487976 6.13385 -43.527573 6.13385c-24.039597 0 -43.527557 -2.7462158 -43.527557 -6.13385l0 -36.80316" fill-rule="evenodd"/><path stroke="#000000" stroke-width="2.0" stroke-linejoin="round" stroke-linecap="butt" d="m292.34647 190.35728l0 0c0 3.3876495 -19.487976 6.1338654 -43.527573 6.1338654c-24.039597 0 -43.527557 -2.7462158 -43.527557 -6.1338654l0 0c0 -3.3876343 19.48796 -6.13385 43.527557 -6.13385c24.039597 0 43.527573 2.7462158 43.527573 6.13385l0 36.80316c0 3.3876343 -19.487976 6.13385 -43.527573 6.13385c-24.039597 0 -43.527557 -2.7462158 -43.527557 -6.13385l0 -36.80316" fill-rule="evenodd"/><path fill="#ffff00" d="m253.05118 214.05829l1.765625 0.453125q-0.5625 2.171875 -2.0 3.328125q-1.4375 1.140625 -3.53125 1.140625q-2.15625 0 -3.515625 -0.875q-1.34375 -0.890625 -2.0625 -2.546875q-0.703125 -1.671875 -0.703125 -3.59375q0 -2.078125 0.796875 -3.625q0.796875 -1.5625 2.265625 -2.359375q1.484375 -0.8125 3.25 -0.8125q2.0 0 3.359375 1.015625q1.375 1.015625 1.90625 2.875l-1.734375 0.40625q-0.46875 -1.453125 -1.359375 -2.109375q-0.875 -0.671875 -2.203125 -0.671875q-1.546875 0 -2.578125 0.734375q-1.03125 0.734375 -1.453125 1.984375q-0.421875 1.234375 -0.421875 2.5625q0 1.703125 0.5 2.96875q0.5 1.265625 1.546875 1.90625q1.046875 0.625 2.265625 0.625q1.484375 0 2.515625 -0.859375q1.03125 -0.859375 1.390625 -2.546875z" fill-rule="nonzero"/><path fill="#b45f06" d="m205.29134 149.27596l0 0c0 3.3876343 19.48796 6.1338654 43.527557 6.1338654c24.039597 0 43.527573 -2.746231 43.527573 -6.1338654l0 36.803146c0 3.3876343 -19.487976 6.1338654 -43.527573 6.1338654c-24.039597 0 -43.527557 -2.746231 -43.527557 -6.1338654z" fill-rule="evenodd"/><path fill="#d29f69" d="m205.29134 149.27596l0 0c0 -3.3876343 19.48796 -6.13385 43.527557 -6.13385c24.039597 0 43.527573 2.7462158 43.527573 6.13385l0 0c0 3.3876343 -19.487976 6.1338654 -43.527573 6.1338654c-24.039597 0 -43.527557 -2.746231 -43.527557 -6.1338654z" fill-rule="evenodd"/><path fill="#000000" fill-opacity="0.0" d="m292.34647 149.27596l0 0c0 3.3876343 -19.487976 6.1338654 -43.527573 6.1338654c-24.039597 0 -43.527557 -2.746231 -43.527557 -6.1338654l0 0c0 -3.3876343 19.48796 -6.13385 43.527557 -6.13385c24.039597 0 43.527573 2.7462158 43.527573 6.13385l0 36.803146c0 3.3876343 -19.487976 6.1338654 -43.527573 6.1338654c-24.039597 0 -43.527557 -2.746231 -43.527557 -6.1338654l0 -36.803146" fill-rule="evenodd"/><path stroke="#000000" stroke-width="2.0" stroke-linejoin="round" stroke-linecap="butt" d="m292.34647 149.27596l0 0c0 3.3876343 -19.487976 6.1338654 -43.527573 6.1338654c-24.039597 0 -43.527557 -2.746231 -43.527557 -6.1338654l0 0c0 -3.3876343 19.48796 -6.13385 43.527557 -6.13385c24.039597 0 43.527573 2.7462158 43.527573 6.13385l0 36.803146c0 3.3876343 -19.487976 6.1338654 -43.527573 6.1338654c-24.039597 0 -43.527557 -2.746231 -43.527557 -6.1338654l0 -36.803146" fill-rule="evenodd"/><path fill="#ffff00" d="m243.95648 177.66446l0 -13.359375l5.015625 0q1.53125 0 2.453125 0.40625q0.921875 0.40625 1.4375 1.25q0.53125 0.84375 0.53125 1.765625q0 0.859375 -0.46875 1.625q-0.453125 0.75 -1.390625 1.203125q1.203125 0.359375 1.859375 1.21875q0.65625 0.859375 0.65625 2.015625q0 0.9375 -0.40625 1.75q-0.390625 0.796875 -0.984375 1.234375q-0.578125 0.4375 -1.453125 0.671875q-0.875 0.21875 -2.15625 0.21875l-5.09375 0zm1.78125 -7.75l2.875 0q1.1875 0 1.6875 -0.140625q0.671875 -0.203125 1.015625 -0.671875q0.34375 -0.46875 0.34375 -1.171875q0 -0.65625 -0.328125 -1.15625q-0.3125 -0.515625 -0.90625 -0.703125q-0.59375 -0.1875 -2.03125 -0.1875l-2.65625 0l0 4.03125zm0 6.171875l3.3125 0q0.859375 0 1.203125 -0.0625q0.609375 -0.109375 1.015625 -0.359375q0.421875 -0.265625 0.6875 -0.75q0.265625 -0.484375 0.265625 -1.125q0 -0.75 -0.390625 -1.296875q-0.375 -0.546875 -1.0625 -0.765625q-0.671875 -0.234375 -1.953125 -0.234375l-3.078125 0l0 4.59375z" fill-rule="nonzero"/><path fill="#b45f06" d="m205.29134 91.58403l0 0c0 4.7857437 19.48796 8.6653595 43.527557 8.6653595c24.039597 0 43.527573 -3.8796158 43.527573 -8.6653595l0 51.992126c0 4.7857513 -19.487976 8.6653595 -43.527573 8.6653595c-24.039597 0 -43.527557 -3.8796082 -43.527557 -8.6653595z" fill-rule="evenodd"/><path fill="#d29f69" d="m205.29134 91.58403l0 0c0 -4.7857437 19.48796 -8.665352 43.527557 -8.665352c24.039597 0 43.527573 3.8796082 43.527573 8.665352l0 0c0 4.7857437 -19.487976 8.6653595 -43.527573 8.6653595c-24.039597 0 -43.527557 -3.8796158 -43.527557 -8.6653595z" fill-rule="evenodd"/><path fill="#000000" fill-opacity="0.0" d="m292.34647 91.58403l0 0c0 4.7857437 -19.487976 8.6653595 -43.527573 8.6653595c-24.039597 0 -43.527557 -3.8796158 -43.527557 -8.6653595l0 0c0 -4.7857437 19.48796 -8.665352 43.527557 -8.665352c24.039597 0 43.527573 3.8796082 43.527573 8.665352l0 51.992126c0 4.7857513 -19.487976 8.6653595 -43.527573 8.6653595c-24.039597 0 -43.527557 -3.8796082 -43.527557 -8.6653595l0 -51.992126" fill-rule="evenodd"/><path stroke="#000000" stroke-width="2.0" stroke-linejoin="round" stroke-linecap="butt" d="m292.34647 91.58403l0 0c0 4.7857437 -19.487976 8.6653595 -43.527573 8.6653595c-24.039597 0 -43.527557 -3.8796158 -43.527557 -8.6653595l0 0c0 -4.7857437 19.48796 -8.665352 43.527557 -8.665352c24.039597 0 43.527573 3.8796082 43.527573 8.665352l0 51.992126c0 4.7857513 -19.487976 8.6653595 -43.527573 8.6653595c-24.039597 0 -43.527557 -3.8796082 -43.527557 -8.6653595l0 -51.992126" fill-rule="evenodd"/><path fill="#ffff00" d="m242.56586 128.83276l5.125 -13.359367l1.90625 0l5.46875 13.359367l-2.015625 0l-1.546875 -4.0468674l-5.59375 0l-1.46875 4.0468674l-1.875 0zm3.859375 -5.4843674l4.53125 0l-1.40625 -3.703125q-0.625 -1.6875 -0.9375 -2.765625q-0.265625 1.28125 -0.71875 2.546875l-1.46875 3.921875z" fill-rule="nonzero"/><path fill="#990000" d="m73.68635 323.58267l0 0c0 -7.070984 5.73217 -12.803131 12.803154 -12.803131l0 0c3.395607 0 6.6521378 1.348877 9.053192 3.749939c2.4010544 2.401062 3.7499542 5.657593 3.7499542 9.053192l0 0c0 7.070984 -5.7321625 12.803162 -12.803146 12.803162l0 0c-7.070984 0 -12.803154 -5.7321777 -12.803154 -12.803162z" fill-rule="evenodd"/><path stroke="#000000" stroke-width="1.0" stroke-linejoin="round" stroke-linecap="butt" d="m73.68635 323.58267l0 0c0 -7.070984 5.73217 -12.803131 12.803154 -12.803131l0 0c3.395607 0 6.6521378 1.348877 9.053192 3.749939c2.4010544 2.401062 3.7499542 5.657593 3.7499542 9.053192l0 0c0 7.070984 -5.7321625 12.803162 -12.803146 12.803162l0 0c-7.070984 0 -12.803154 -5.7321777 -12.803154 -12.803162z" fill-rule="evenodd"/><path fill="#990000" d="m234.99081 324.03543l0 0c0 -7.070984 5.7321625 -12.803162 12.803146 -12.803162l0 0c3.3956146 0 6.6521454 1.3489075 9.053207 3.7499695c2.4010315 2.401062 3.749939 5.657593 3.749939 9.053192l0 0c0 7.070984 -5.7321625 12.803162 -12.803146 12.803162l0 0c-7.070984 0 -12.803146 -5.7321777 -12.803146 -12.803162z" fill-rule="evenodd"/><path stroke="#000000" stroke-width="1.0" stroke-linejoin="round" stroke-linecap="butt" d="m234.99081 324.03543l0 0c0 -7.070984 5.7321625 -12.803162 12.803146 -12.803162l0 0c3.3956146 0 6.6521454 1.3489075 9.053207 3.7499695c2.4010315 2.401062 3.749939 5.657593 3.749939 9.053192l0 0c0 7.070984 -5.7321625 12.803162 -12.803146 12.803162l0 0c-7.070984 0 -12.803146 -5.7321777 -12.803146 -12.803162z" fill-rule="evenodd"/><path fill="#990000" d="m400.65222 323.58136l0 0c0 -7.070984 5.7321777 -12.803131 12.803162 -12.803131l0 0c3.3955994 0 6.65213 1.348877 9.053192 3.749939c2.401062 2.401062 3.7499695 5.657593 3.7499695 9.053192l0 0c0 7.070984 -5.7321777 12.803162 -12.803162 12.803162l0 0c-7.070984 0 -12.803162 -5.7321777 -12.803162 -12.803162z" fill-rule="evenodd"/><path stroke="#000000" stroke-width="1.0" stroke-linejoin="round" stroke-linecap="butt" d="m400.65222 323.58136l0 0c0 -7.070984 5.7321777 -12.803131 12.803162 -12.803131l0 0c3.3955994 0 6.65213 1.348877 9.053192 3.749939c2.401062 2.401062 3.7499695 5.657593 3.7499695 9.053192l0 0c0 7.070984 -5.7321777 12.803162 -12.803162 12.803162l0 0c-7.070984 0 -12.803162 -5.7321777 -12.803162 -12.803162z" fill-rule="evenodd"/><path fill="#666666" d="m204.26509 383.90457l0 0c0 5.3901978 19.487946 9.759827 43.527557 9.759827c24.039597 0 43.527573 -4.369629 43.527573 -9.759827l0 58.55905c0 5.3901978 -19.487976 9.759827 -43.527573 9.759827c-24.039612 0 -43.527557 -4.369629 -43.527557 -9.759827z" fill-rule="evenodd"/><path fill="#a3a3a3" d="m204.26509 383.90457l0 0c0 -5.3902283 19.487946 -9.759857 43.527557 -9.759857c24.039597 0 43.527573 4.369629 43.527573 9.759857l0 0c0 5.3901978 -19.487976 9.759827 -43.527573 9.759827c-24.039612 0 -43.527557 -4.369629 -43.527557 -9.759827z" fill-rule="evenodd"/><path fill="#000000" fill-opacity="0.0" d="m291.32022 383.90457l0 0c0 5.3901978 -19.487976 9.759827 -43.527573 9.759827c-24.039612 0 -43.527557 -4.369629 -43.527557 -9.759827l0 0c0 -5.3902283 19.487946 -9.759857 43.527557 -9.759857c24.039597 0 43.527573 4.369629 43.527573 9.759857l0 58.55905c0 5.3901978 -19.487976 9.759827 -43.527573 9.759827c-24.039612 0 -43.527557 -4.369629 -43.527557 -9.759827l0 -58.55905" fill-rule="evenodd"/><path stroke="#000000" stroke-width="2.0" stroke-linejoin="round" stroke-linecap="butt" d="m291.32022 383.90457l0 0c0 5.3901978 -19.487976 9.759827 -43.527573 9.759827c-24.039612 0 -43.527557 -4.369629 -43.527557 -9.759827l0 0c0 -5.3902283 19.487946 -9.759857 43.527557 -9.759857c24.039597 0 43.527573 4.369629 43.527573 9.759857l0 58.55905c0 5.3901978 -19.487976 9.759827 -43.527573 9.759827c-24.039612 0 -43.527557 -4.369629 -43.527557 -9.759827l0 -58.55905" fill-rule="evenodd"/><path fill="#efefef" d="m221.65305 411.62463l4.9375 0q1.65625 0 2.53125 0.265625q1.1875 0.34375 2.015625 1.234375q0.84375 0.875 1.28125 2.15625q0.4375 1.28125 0.4375 3.15625q0 1.640625 -0.40625 2.84375q-0.5 1.453125 -1.4375 2.359375q-0.703125 0.671875 -1.890625 1.0625q-0.890625 0.28125 -2.390625 0.28125l-5.078125 0l0 -13.359375zm2.703125 2.265625l0 8.84375l2.015625 0q1.125 0 1.625 -0.125q0.65625 -0.171875 1.078125 -0.5625q0.4375 -0.390625 0.703125 -1.28125q0.28125 -0.90625 0.28125 -2.453125q0 -1.546875 -0.28125 -2.375q-0.265625 -0.828125 -0.765625 -1.28125q-0.484375 -0.46875 -1.234375 -0.640625q-0.5625 -0.125 -2.21875 -0.125l-1.203125 0zm10.769821 0.109375l0 -2.375l2.5625 0l0 2.375l-2.5625 0zm0 10.984375l0 -9.671875l2.5625 0l0 9.671875l-2.5625 0zm4.277054 -2.765625l2.5625 -0.390625q0.171875 0.75 0.671875 1.140625q0.5 0.390625 1.40625 0.390625q0.984375 0 1.484375 -0.375q0.34375 -0.25 0.34375 -0.671875q0 -0.296875 -0.1875 -0.484375q-0.1875 -0.1875 -0.859375 -0.34375q-3.09375 -0.6875 -3.921875 -1.25q-1.140625 -0.78125 -1.140625 -2.171875q0 -1.265625 0.984375 -2.109375q1.0 -0.859375 3.078125 -0.859375q1.984375 0 2.953125 0.65625q0.96875 0.640625 1.328125 1.90625l-2.40625 0.4375q-0.15625 -0.5625 -0.59375 -0.859375q-0.421875 -0.296875 -1.234375 -0.296875q-1.0 0 -1.4375 0.28125q-0.296875 0.203125 -0.296875 0.515625q0 0.265625 0.25 0.46875q0.34375 0.25 2.390625 0.71875q2.046875 0.453125 2.859375 1.140625q0.796875 0.671875 0.796875 1.890625q0 1.34375 -1.109375 2.296875q-1.109375 0.953125 -3.28125 0.953125q-1.984375 0 -3.140625 -0.796875q-1.140625 -0.8125 -1.5 -2.1875zm11.188217 2.765625l0 -13.359375l2.5625 0l0 7.09375l3.0000153 -3.40625l3.140625 0l-3.2968903 3.53125l3.5312653 6.140625l-2.75 0l-2.4375153 -4.34375l-1.1875 1.25l0 3.09375l-2.5625 0zm23.746536 -2.375l0 2.375l-8.96875 0q0.140625 -1.34375 0.859375 -2.546875q0.734375 -1.21875 2.890625 -3.203125q1.734375 -1.625 2.125 -2.1875q0.53125 -0.796875 0.53125 -1.578125q0 -0.84375 -0.46875 -1.296875q-0.453125 -0.46875 -1.265625 -0.46875q-0.796875 0 -1.28125 0.484375q-0.46875 0.46875 -0.546875 1.59375l-2.546875 -0.25q0.234375 -2.109375 1.421875 -3.03125q1.203125 -0.921875 3.015625 -0.921875q1.96875 0 3.09375 1.0625q1.140625 1.0625 1.140625 2.65625q0 0.890625 -0.328125 1.71875q-0.3125 0.8125 -1.015625 1.703125q-0.46875 0.59375 -1.6875 1.703125q-1.203125 1.109375 -1.53125 1.484375q-0.3125 0.359375 -0.515625 0.703125l5.078125 0z" fill-rule="nonzero"/><path fill="#666666" d="m42.96063 382.99738l0 0c0 5.3901978 19.487953 9.759857 43.52756 9.759857c24.039604 0 43.527557 -4.3696594 43.527557 -9.759857l0 58.55905c0 5.3902283 -19.487953 9.759857 -43.527557 9.759857c-24.039608 0 -43.52756 -4.369629 -43.52756 -9.759857z" fill-rule="evenodd"/><path fill="#a3a3a3" d="m42.96063 382.99738l0 0c0 -5.3901978 19.487953 -9.759857 43.52756 -9.759857c24.039604 0 43.527557 4.3696594 43.527557 9.759857l0 0c0 5.3901978 -19.487953 9.759857 -43.527557 9.759857c-24.039608 0 -43.52756 -4.3696594 -43.52756 -9.759857z" fill-rule="evenodd"/><path fill="#000000" fill-opacity="0.0" d="m130.01575 382.99738l0 0c0 5.3901978 -19.487953 9.759857 -43.527557 9.759857c-24.039608 0 -43.52756 -4.3696594 -43.52756 -9.759857l0 0c0 -5.3901978 19.487953 -9.759857 43.52756 -9.759857c24.039604 0 43.527557 4.3696594 43.527557 9.759857l0 58.55905c0 5.3902283 -19.487953 9.759857 -43.527557 9.759857c-24.039608 0 -43.52756 -4.369629 -43.52756 -9.759857l0 -58.55905" fill-rule="evenodd"/><path stroke="#000000" stroke-width="2.0" stroke-linejoin="round" stroke-linecap="butt" d="m130.01575 382.99738l0 0c0 5.3901978 -19.487953 9.759857 -43.527557 9.759857c-24.039608 0 -43.52756 -4.3696594 -43.52756 -9.759857l0 0c0 -5.3901978 19.487953 -9.759857 43.52756 -9.759857c24.039604 0 43.527557 4.3696594 43.527557 9.759857l0 58.55905c0 5.3902283 -19.487953 9.759857 -43.527557 9.759857c-24.039608 0 -43.52756 -4.369629 -43.52756 -9.759857l0 -58.55905" fill-rule="evenodd"/><path fill="#efefef" d="m60.348583 410.71744l4.937504 0q1.65625 0 2.53125 0.265625q1.1875 0.34375 2.015625 1.234375q0.84375 0.875 1.28125 2.15625q0.4375 1.28125 0.4375 3.15625q0 1.640625 -0.40625 2.84375q-0.5 1.453125 -1.4375 2.359375q-0.703125 0.671875 -1.890625 1.0625q-0.890625 0.28125 -2.390625 0.28125l-5.078129 0l0 -13.359375zm2.703125 2.265625l0 8.84375l2.0156288 0q1.125 0 1.625 -0.125q0.65625 -0.171875 1.078125 -0.5625q0.4375 -0.390625 0.703125 -1.28125q0.28125 -0.90625 0.28125 -2.453125q0 -1.546875 -0.28125 -2.375q-0.265625 -0.828125 -0.765625 -1.28125q-0.484375 -0.46875 -1.234375 -0.640625q-0.5625 -0.125 -2.21875 -0.125l-1.2031288 0zm10.769825 0.109375l0 -2.375l2.5625 0l0 2.375l-2.5625 0zm0 10.984375l0 -9.671875l2.5625 0l0 9.671875l-2.5625 0zm4.277054 -2.765625l2.5625 -0.390625q0.171875 0.75 0.671875 1.140625q0.5 0.390625 1.40625 0.390625q0.984375 0 1.484375 -0.375q0.34375 -0.25 0.34375 -0.671875q0 -0.296875 -0.1875 -0.484375q-0.1875 -0.1875 -0.859375 -0.34375q-3.09375 -0.6875 -3.921875 -1.25q-1.140625 -0.78125 -1.140625 -2.171875q0 -1.265625 0.984375 -2.109375q1.0 -0.859375 3.078125 -0.859375q1.984375 0 2.953125 0.65625q0.96875 0.640625 1.328125 1.90625l-2.40625 0.4375q-0.15625 -0.5625 -0.59375 -0.859375q-0.421875 -0.296875 -1.234375 -0.296875q-1.0 0 -1.4375 0.28125q-0.296875 0.203125 -0.296875 0.515625q0 0.265625 0.25 0.46875q0.34375 0.25 2.390625 0.71875q2.046875 0.453125 2.859375 1.140625q0.796875 0.671875 0.796875 1.890625q0 1.34375 -1.109375 2.296875q-1.109375 0.953125 -3.28125 0.953125q-1.984375 0 -3.140625 -0.796875q-1.140625 -0.8125 -1.5 -2.1875zm11.188217 2.765625l0 -13.359375l2.5625 0l0 7.09375l3.0 -3.40625l3.140625 0l-3.296875 3.53125l3.53125 6.140625l-2.75 0l-2.4375 -4.34375l-1.1875 1.25l0 3.09375l-2.5625 0zm21.652771 0l-2.5625 0l0 -9.640625q-1.40625 1.3125 -3.3125 1.9375l0 -2.328125q1.015625 -0.328125 2.1875 -1.234375q1.171875 -0.921875 1.609375 -2.140625l2.078125 0l0 13.40625z" fill-rule="nonzero"/><path fill="#666666" d="m369.9265 388.85696l0 0c0 5.3901978 19.487946 9.759827 43.527557 9.759827c24.039612 0 43.527557 -4.369629 43.527557 -9.759827l0 58.55905c0 5.3901978 -19.487946 9.759827 -43.527557 9.759827c-24.039612 0 -43.527557 -4.369629 -43.527557 -9.759827z" fill-rule="evenodd"/><path fill="#a3a3a3" d="m369.9265 388.85696l0 0c0 -5.3902283 19.487946 -9.759857 43.527557 -9.759857c24.039612 0 43.527557 4.369629 43.527557 9.759857l0 0c0 5.3901978 -19.487946 9.759827 -43.527557 9.759827c-24.039612 0 -43.527557 -4.369629 -43.527557 -9.759827z" fill-rule="evenodd"/><path fill="#000000" fill-opacity="0.0" d="m456.98163 388.85696l0 0c0 5.3901978 -19.487946 9.759827 -43.527557 9.759827c-24.039612 0 -43.527557 -4.369629 -43.527557 -9.759827l0 0c0 -5.3902283 19.487946 -9.759857 43.527557 -9.759857c24.039612 0 43.527557 4.369629 43.527557 9.759857l0 58.55905c0 5.3901978 -19.487946 9.759827 -43.527557 9.759827c-24.039612 0 -43.527557 -4.369629 -43.527557 -9.759827l0 -58.55905" fill-rule="evenodd"/><path stroke="#000000" stroke-width="2.0" stroke-linejoin="round" stroke-linecap="butt" d="m456.98163 388.85696l0 0c0 5.3901978 -19.487946 9.759827 -43.527557 9.759827c-24.039612 0 -43.527557 -4.369629 -43.527557 -9.759827l0 0c0 -5.3902283 19.487946 -9.759857 43.527557 -9.759857c24.039612 0 43.527557 4.369629 43.527557 9.759857l0 58.55905c0 5.3901978 -19.487946 9.759827 -43.527557 9.759827c-24.039612 0 -43.527557 -4.369629 -43.527557 -9.759827l0 -58.55905" fill-rule="evenodd"/><path fill="#efefef" d="m387.31445 416.57703l4.9375 0q1.65625 0 2.53125 0.265625q1.1875 0.34375 2.015625 1.234375q0.84375 0.875 1.28125 2.15625q0.4375 1.28125 0.4375 3.15625q0 1.640625 -0.40625 2.84375q-0.5 1.453125 -1.4375 2.359375q-0.703125 0.671875 -1.890625 1.0625q-0.890625 0.28125 -2.390625 0.28125l-5.078125 0l0 -13.359375zm2.703125 2.265625l0 8.84375l2.015625 0q1.125 0 1.625 -0.125q0.65625 -0.171875 1.078125 -0.5625q0.4375 -0.390625 0.703125 -1.28125q0.28125 -0.90625 0.28125 -2.453125q0 -1.546875 -0.28125 -2.375q-0.265625 -0.828125 -0.765625 -1.28125q-0.484375 -0.46875 -1.234375 -0.640625q-0.5625 -0.125 -2.21875 -0.125l-1.203125 0zm10.769836 0.109375l0 -2.375l2.5625 0l0 2.375l-2.5625 0zm0 10.984375l0 -9.671875l2.5625 0l0 9.671875l-2.5625 0zm4.2770386 -2.765625l2.5625 -0.390625q0.171875 0.75 0.671875 1.140625q0.5 0.390625 1.40625 0.390625q0.984375 0 1.484375 -0.375q0.34375 -0.25 0.34375 -0.671875q0 -0.296875 -0.1875 -0.484375q-0.1875 -0.1875 -0.859375 -0.34375q-3.09375 -0.6875 -3.921875 -1.25q-1.140625 -0.78125 -1.140625 -2.171875q0 -1.265625 0.984375 -2.109375q1.0 -0.859375 3.078125 -0.859375q1.984375 0 2.953125 0.65625q0.96875 0.640625 1.328125 1.90625l-2.40625 0.4375q-0.15625 -0.5625 -0.59375 -0.859375q-0.421875 -0.296875 -1.234375 -0.296875q-1.0 0 -1.4375 0.28125q-0.296875 0.203125 -0.296875 0.515625q0 0.265625 0.25 0.46875q0.34375 0.25 2.390625 0.71875q2.046875 0.453125 2.859375 1.140625q0.796875 0.671875 0.796875 1.890625q0 1.34375 -1.109375 2.296875q-1.109375 0.953125 -3.28125 0.953125q-1.984375 0 -3.140625 -0.796875q-1.140625 -0.8125 -1.5 -2.1875zm11.188232 2.765625l0 -13.359375l2.5625 0l0 7.09375l3.0 -3.40625l3.140625 0l-3.296875 3.53125l3.53125 6.140625l-2.75 0l-2.4375 -4.34375l-1.1875 1.25l0 3.09375l-2.5625 0zm15.012146 -3.546875l2.46875 -0.296875q0.125 0.953125 0.640625 1.453125q0.53125 0.5 1.265625 0.5q0.78125 0 1.328125 -0.59375q0.546875 -0.609375 0.546875 -1.640625q0 -0.953125 -0.53125 -1.515625q-0.515625 -0.578125 -1.25 -0.578125q-0.5 0 -1.1875 0.203125l0.28125 -2.09375q1.046875 0.03125 1.59375 -0.4375q0.546875 -0.484375 0.546875 -1.28125q0 -0.671875 -0.40625 -1.078125q-0.390625 -0.40625 -1.0625 -0.40625q-0.65625 0 -1.125 0.46875q-0.453125 0.453125 -0.5625 1.328125l-2.359375 -0.40625q0.25 -1.203125 0.734375 -1.921875q0.5 -0.734375 1.390625 -1.140625q0.890625 -0.421875 2.0 -0.421875q1.875 0 3.015625 1.203125q0.9375 0.984375 0.9375 2.21875q0 1.765625 -1.921875 2.8125q1.15625 0.234375 1.84375 1.09375q0.6875 0.859375 0.6875 2.0625q0 1.765625 -1.296875 3.015625q-1.28125 1.234375 -3.1875 1.234375q-1.8125 0 -3.015625 -1.046875q-1.1875 -1.046875 -1.375 -2.734375z" fill-rule="nonzero"/><path fill="#000000" fill-opacity="0.0" d="m86.4895 336.38583l0 36.850372" fill-rule="evenodd"/><path stroke="#000000" stroke-width="2.0" stroke-linejoin="round" stroke-linecap="butt" d="m86.4895 336.38583l0 36.850372" fill-rule="evenodd"/><path fill="#000000" fill-opacity="0.0" d="m247.79396 336.8386l0 37.29132" fill-rule="evenodd"/><path stroke="#000000" stroke-width="2.0" stroke-linejoin="round" stroke-linecap="butt" d="m247.79396 336.8386l0 37.29132" fill-rule="evenodd"/><path fill="#000000" fill-opacity="0.0" d="m413.45538 336.38452l0 42.70865" fill-rule="evenodd"/><path stroke="#000000" stroke-width="2.0" stroke-linejoin="round" stroke-linecap="butt" d="m413.45538 336.38452l0 42.70865" fill-rule="evenodd"/><path fill="#000000" fill-opacity="0.0" d="m248.8189 273.92996l-1.0393677 37.29132" fill-rule="evenodd"/><path stroke="#000000" stroke-width="2.0" stroke-linejoin="round" stroke-linecap="butt" d="m248.8189 273.92996l-1.0393677 37.29132" fill-rule="evenodd"/><path fill="#000000" fill-opacity="0.0" d="m99.29265 323.58267l135.68504 0.4409485" fill-rule="evenodd"/><path stroke="#000000" stroke-width="2.0" stroke-linejoin="round" stroke-linecap="butt" d="m99.29265 323.58267l135.68504 0.4409485" fill-rule="evenodd"/><path fill="#000000" fill-opacity="0.0" d="m400.65222 323.58136l-140.06299 0.4409485" fill-rule="evenodd"/><path stroke="#000000" stroke-width="2.0" stroke-linejoin="round" stroke-linecap="butt" d="m400.65222 323.58136l-140.06299 0.4409485" fill-rule="evenodd"/><path fill="#000000" fill-opacity="0.0" d="m121.396324 2.6535432l243.74802 0l0 69.32284l-243.74802 0z" fill-rule="evenodd"/><path fill="#cc0000" d="m209.8726 32.13354l0 -15.265623l6.484375 0q2.453125 0 3.5625 0.421875q1.109375 0.40625 1.765625 1.453125q0.671875 1.046875 0.671875 2.40625q0 1.71875 -1.015625 2.84375q-1.0 1.109375 -3.015625 1.40625q1.0 0.578125 1.640625 1.28125q0.65625 0.6875 1.765625 2.46875l1.859375 2.984373l-3.6875 0l-2.21875 -3.328123q-1.1875 -1.78125 -1.625 -2.234375q-0.4375 -0.46875 -0.9375 -0.640625q-0.484375 -0.171875 -1.546875 -0.171875l-0.625 0l0 6.374998l-3.078125 0zm3.078125 -8.812498l2.28125 0q2.21875 0 2.765625 -0.1875q0.5625 -0.1875 0.875 -0.640625q0.3125 -0.46875 0.3125 -1.140625q0 -0.78125 -0.421875 -1.25q-0.40625 -0.46875 -1.15625 -0.59375q-0.375 -0.0625 -2.25 -0.0625l-2.40625 0l0 3.875zm26.074371 8.812498l-3.34375 0l-1.328125 -3.468748l-6.109375 0l-1.265625 3.468748l-3.265625 0l5.953125 -15.265623l3.25 0l6.109375 15.265623zm-5.671875 -6.046873l-2.09375 -5.65625l-2.0625 5.65625l4.15625 0zm7.2149963 6.046873l0 -15.265623l3.09375 0l0 15.265623l-3.09375 0zm6.019394 -15.265623l5.625 0q1.90625 0 2.90625 0.296875q1.34375 0.390625 2.296875 1.40625q0.96875 1.0 1.46875 2.46875q0.5 1.453125 0.5 3.609375q0 1.875 -0.46875 3.25q-0.578125 1.65625 -1.640625 2.6875q-0.796875 0.78125 -2.15625 1.21875q-1.03125 0.3281231 -2.734375 0.3281231l-5.796875 0l0 -15.265623zm3.078125 2.578125l0 10.109375l2.296875 0q1.296875 0 1.875 -0.140625q0.75 -0.1875 1.234375 -0.625q0.5 -0.453125 0.8125 -1.484375q0.3125 -1.03125 0.3125 -2.796875q0 -1.765625 -0.3125 -2.703125q-0.3125 -0.953125 -0.875 -1.484375q-0.5625 -0.53125 -1.421875 -0.71875q-0.65625 -0.15625 -2.53125 -0.15625l-1.390625 0zm17.65628 8.765625l2.90625 -0.3125q0.125 1.0 0.734375 1.578125q0.625 0.578125 1.421875 0.578125q0.921875 0 1.546875 -0.75q0.640625 -0.75 0.640625 -2.25q0 -1.40625 -0.625 -2.109375q-0.625 -0.703125 -1.640625 -0.703125q-1.265625 0 -2.265625 1.125l-2.375 -0.34375l1.5 -7.953125l7.75 0l0 2.75l-5.53125 0l-0.453125 2.578125q0.984375 -0.484375 2.0 -0.484375q1.953125 0 3.296875 1.421875q1.359375 1.40625 1.359375 3.671875q0 1.890625 -1.09375 3.359375q-1.484375 2.031248 -4.140625 2.031248q-2.109375 0 -3.453125 -1.1406231q-1.328125 -1.140625 -1.578125 -3.046875z" fill-rule="nonzero"/><path fill="#cc0000" d="m174.2677 58.13354l-5.46875 -15.265625l3.34375 0l3.875 11.296875l3.734375 -11.296875l3.265625 0l-5.46875 15.265625l-3.28125 0zm10.225693 0l0 -15.265625l3.09375 0l0 15.265625l-3.09375 0zm6.035019 0l0 -15.265625l6.484375 0q2.453125 0 3.5625 0.421875q1.109375 0.40625 1.765625 1.453125q0.671875 1.046875 0.671875 2.40625q0 1.71875 -1.015625 2.84375q-1.0 1.109375 -3.015625 1.40625q1.0 0.578125 1.640625 1.28125q0.65625 0.6875 1.765625 2.46875l1.859375 2.984375l-3.6875 0l-2.21875 -3.328125q-1.1875 -1.78125 -1.625 -2.234375q-0.4375 -0.46875 -0.9375 -0.640625q-0.484375 -0.171875 -1.546875 -0.171875l-0.625 0l0 6.375l-3.078125 0zm3.078125 -8.8125l2.28125 0q2.21875 0 2.765625 -0.1875q0.5625 -0.1875 0.875 -0.640625q0.3125 -0.46875 0.3125 -1.140625q0 -0.78125 -0.421875 -1.25q-0.40625 -0.46875 -1.15625 -0.59375q-0.375 -0.0625 -2.25 -0.0625l-2.40625 0l0 3.875zm15.746246 8.8125l0 -12.6875l-4.53125 0l0 -2.578125l12.140625 0l0 2.578125l-4.515625 0l0 12.6875l-3.09375 0zm9.574951 -15.265625l3.078125 0l0 8.265625q0 1.96875 0.125 2.546875q0.1875 0.9375 0.9375 1.515625q0.75 0.5625 2.03125 0.5625q1.3125 0 1.984375 -0.53125q0.671875 -0.546875 0.796875 -1.328125q0.140625 -0.78125 0.140625 -2.59375l0 -8.4375l3.078125 0l0 8.015625q0 2.75 -0.25 3.890625q-0.25 1.125 -0.921875 1.90625q-0.671875 0.78125 -1.796875 1.25q-1.125 0.46875 -2.9375 0.46875q-2.1875 0 -3.3125 -0.5q-1.125 -0.515625 -1.78125 -1.3125q-0.65625 -0.8125 -0.875 -1.703125q-0.296875 -1.3125 -0.296875 -3.875l0 -8.140625zm29.183746 15.265625l-3.34375 0l-1.328125 -3.46875l-6.109375 0l-1.265625 3.46875l-3.265625 0l5.953125 -15.265625l3.25 0l6.109375 15.265625zm-5.671875 -6.046875l-2.09375 -5.65625l-2.0625 5.65625l4.15625 0zm7.4024963 6.046875l0 -15.140625l3.078125 0l0 12.5625l7.65625 0l0 2.578125l-10.734375 0zm18.474548 -15.265625l5.625 0q1.90625 0 2.90625 0.296875q1.34375 0.390625 2.296875 1.40625q0.96875 1.0 1.46875 2.46875q0.5 1.453125 0.5 3.609375q0 1.875 -0.46875 3.25q-0.578125 1.65625 -1.640625 2.6875q-0.796875 0.78125 -2.15625 1.21875q-1.03125 0.328125 -2.734375 0.328125l-5.796875 0l0 -15.265625zm3.078125 2.578125l0 10.109375l2.296875 0q1.296875 0 1.875 -0.140625q0.75 -0.1875 1.234375 -0.625q0.5 -0.453125 0.8125 -1.484375q0.3125 -1.03125 0.3125 -2.796875q0 -1.765625 -0.3125 -2.703125q-0.3125 -0.953125 -0.875 -1.484375q-0.5625 -0.53125 -1.421875 -0.71875q-0.65625 -0.15625 -2.53125 -0.15625l-1.390625 0zm12.230621 12.6875l0 -15.265625l3.09375 0l0 15.265625l-3.09375 0zm5.238159 -4.96875l3.0 -0.296875q0.28125 1.515625 1.109375 2.234375q0.828125 0.703125 2.234375 0.703125q1.484375 0 2.234375 -0.625q0.765625 -0.640625 0.765625 -1.484375q0 -0.546875 -0.328125 -0.921875q-0.3125 -0.375 -1.109375 -0.65625q-0.53125 -0.1875 -2.46875 -0.671875q-2.46875 -0.609375 -3.46875 -1.515625q-1.40625 -1.25 -1.40625 -3.0625q0 -1.171875 0.65625 -2.1875q0.65625 -1.015625 1.90625 -1.546875q1.25 -0.53125 3.0 -0.53125q2.875 0 4.328125 1.265625q1.453125 1.265625 1.53125 3.359375l-3.078125 0.140625q-0.203125 -1.171875 -0.859375 -1.6875q-0.640625 -0.515625 -1.953125 -0.515625q-1.34375 0 -2.09375 0.546875q-0.5 0.359375 -0.5 0.953125q0 0.53125 0.46875 0.921875q0.578125 0.484375 2.828125 1.015625q2.25 0.53125 3.328125 1.109375q1.078125 0.5625 1.6875 1.546875q0.609375 0.984375 0.609375 2.421875q0 1.3125 -0.734375 2.46875q-0.734375 1.140625 -2.0625 1.703125q-1.328125 0.546875 -3.3125 0.546875q-2.90625 0 -4.453125 -1.328125q-1.546875 -1.34375 -1.859375 -3.90625zm15.0538025 4.96875l0 -15.265625l3.078125 0l0 6.78125l6.234375 -6.78125l4.140625 0l-5.75 5.9375l6.0625 9.328125l-3.984375 0l-4.203125 -7.171875l-2.5 2.5625l0 4.609375l-3.078125 0z" fill-rule="nonzero"/><path fill="#000000" fill-opacity="0.0" d="m187.79002 83.04768c-2.3897552 1.7069092 -11.607605 -3.9265137 -14.338577 10.24147c-2.7309723 14.167976 0.34251404 60.257217 -2.0472412 74.7664c-2.3897705 14.509186 -10.242783 10.240601 -12.291351 12.288712" fill-rule="evenodd"/><path stroke="#cc0000" stroke-width="1.0" stroke-linejoin="round" stroke-linecap="butt" d="m187.79002 83.04768c-2.3897552 1.7069092 -11.607605 -3.9265137 -14.338577 10.24147c-2.7309723 14.167976 0.34251404 60.257217 -2.0472412 74.7664c-2.3897705 14.509186 -10.242783 10.240601 -12.291351 12.288712" fill-rule="evenodd"/><path fill="#000000" fill-opacity="0.0" d="m187.79002 277.64087c-2.3897552 -1.7069092 -11.607605 3.9264832 -14.338577 -10.241486c-2.7309723 -14.167969 0.34251404 -60.257217 -2.0472412 -74.7664c-2.3897705 -14.509186 -10.242783 -10.240585 -12.291351 -12.288712" fill-rule="evenodd"/><path stroke="#cc0000" stroke-width="1.0" stroke-linejoin="round" stroke-linecap="butt" d="m187.79002 277.64087c-2.3897552 -1.7069092 -11.607605 3.9264832 -14.338577 -10.241486c-2.7309723 -14.167969 0.34251404 -60.257217 -2.0472412 -74.7664c-2.3897705 -14.509186 -10.242783 -10.240585 -12.291351 -12.288712" fill-rule="evenodd"/><path fill="#000000" fill-opacity="0.0" d="m112.72966 277.76904l0 -243.74805l35.842514 0l0 243.74805z" fill-rule="evenodd"/><path fill="#000000" d="m139.64966 267.40967l-13.359375 0l0 -4.328125q0 -2.453125 0.203125 -3.203125q0.296875 -1.140625 1.3125 -1.921875q1.0 -0.78125 2.59375 -0.78125q1.234375 0 2.078125 0.453125q0.828125 0.453125 1.3125 1.140625q0.46875 0.6875 0.625 1.390625q0.203125 0.96875 0.203125 2.796875l0 1.765625l5.03125 0l0 2.6875zm-11.09375 -2.6875l3.78125 0l0 -1.484375q0 -1.59375 -0.203125 -2.125q-0.203125 -0.546875 -0.65625 -0.84375q-0.453125 -0.3125 -1.03125 -0.3125q-0.734375 0 -1.203125 0.4375q-0.484375 0.421875 -0.59375 1.078125q-0.09375 0.484375 -0.09375 1.9375l0 1.3125zm4.375 -11.646713l-0.421875 2.328125q-1.40625 -0.40625 -2.078125 -1.359375q-0.671875 -0.953125 -0.671875 -2.84375q0 -1.703125 0.40625 -2.546875q0.40625 -0.84375 1.03125 -1.171875q0.625 -0.34375 2.28125 -0.34375l3.0 0.015625q1.265625 0 1.875 -0.109375q0.609375 -0.125 1.296875 -0.46875l0 2.53125q-0.25 0.109375 -0.75 0.25q-0.234375 0.0625 -0.3125 0.09375q0.640625 0.65625 0.96875 1.40625q0.3125 0.734375 0.3125 1.59375q0 1.484375 -0.8125 2.34375q-0.8125 0.859375 -2.046875 0.859375q-0.828125 0 -1.46875 -0.390625q-0.640625 -0.390625 -0.96875 -1.09375q-0.34375 -0.703125 -0.609375 -2.03125q-0.328125 -1.796875 -0.625 -2.484375l-0.25 0q-0.75 0 -1.0625 0.359375q-0.3125 0.359375 -0.3125 1.375q0 0.6875 0.28125 1.078125q0.265625 0.375 0.9375 0.609375zm2.078125 -3.421875q0.15625 0.484375 0.390625 1.5625q0.21875 1.0625 0.4375 1.390625q0.359375 0.5 0.90625 0.5q0.53125 0 0.9375 -0.40625q0.390625 -0.40625 0.390625 -1.015625q0 -0.703125 -0.46875 -1.328125q-0.34375 -0.46875 -0.84375 -0.609375q-0.328125 -0.09375 -1.25 -0.09375l-0.5 0zm4.640625 -7.500717l0 2.5625l-9.671875 0l0 -2.375l1.375 0q-0.984375 -0.609375 -1.28125 -1.09375q-0.3125 -0.484375 -0.3125 -1.109375q0 -0.875 0.484375 -1.6875l2.234375 0.796875q-0.421875 0.640625 -0.421875 1.203125q0 0.53125 0.296875 0.90625q0.296875 0.375 1.078125 0.59375q0.765625 0.203125 3.234375 0.203125l2.984375 0zm-9.671875 -9.244644l2.03125 0l0 1.75l3.90625 0q1.1875 0 1.390625 -0.046875q0.1875 -0.046875 0.3125 -0.21875q0.125 -0.1875 0.125 -0.4375q0 -0.359375 -0.25 -1.03125l2.0 -0.21875q0.375 0.890625 0.375 2.015625q0 0.703125 -0.234375 1.265625q-0.234375 0.546875 -0.59375 0.8125q-0.375 0.25 -1.0 0.34375q-0.453125 0.09375 -1.8125 0.09375l-4.21875 0l0 1.171875l-2.03125 0l0 -1.171875l-1.921875 0l-1.5 -2.578125l3.421875 0l0 -1.75zm-1.3125 -1.775177l-2.375 0l0 -2.5625l2.375 0l0 2.5625zm10.984375 0l-9.671875 0l0 -2.5625l9.671875 0l0 2.5625zm-9.671875 -9.620804l2.03125 0l0 1.75l3.90625 0q1.1875 0 1.390625 -0.046875q0.1875 -0.046875 0.3125 -0.21875q0.125 -0.1875 0.125 -0.4375q0 -0.359375 -0.25 -1.03125l2.0 -0.21875q0.375 0.890625 0.375 2.015625q0 0.703125 -0.234375 1.265625q-0.234375 0.546875 -0.59375 0.8125q-0.375 0.25 -1.0 0.34375q-0.453125 0.09375 -1.8125 0.09375l-4.21875 0l0 1.171875l-2.03125 0l0 -1.171875l-1.921875 0l-1.5 -2.578125l3.421875 0l0 -1.75zm-1.3125 -1.775177l-2.375 0l0 -2.5625l2.375 0l0 2.5625zm10.984375 0l-9.671875 0l0 -2.5625l9.671875 0l0 2.5625zm-4.96875 -4.589554q-1.28125 0 -2.46875 -0.625q-1.203125 -0.625 -1.828125 -1.78125q-0.625 -1.15625 -0.625 -2.578125q0 -2.1875 1.421875 -3.59375q1.421875 -1.40625 3.609375 -1.40625q2.1875 0 3.640625 1.421875q1.4375 1.421875 1.4375 3.5625q0 1.328125 -0.59375 2.546875q-0.609375 1.203125 -1.765625 1.828125q-1.171875 0.625 -2.828125 0.625zm0.125 -2.625q1.453125 0 2.21875 -0.671875q0.75 -0.6875 0.75 -1.6875q0 -1.0 -0.75 -1.671875q-0.765625 -0.6875 -2.234375 -0.6875q-1.421875 0 -2.1875 0.6875q-0.765625 0.671875 -0.765625 1.671875q0 1.0 0.765625 1.6875q0.765625 0.671875 2.203125 0.671875zm4.84375 -18.161606l0 2.5625l-4.9375 0q-1.5625 0 -2.015625 0.171875q-0.46875 0.15625 -0.71875 0.53125q-0.265625 0.359375 -0.265625 0.875q0 0.671875 0.375 1.203125q0.359375 0.53125 0.96875 0.734375q0.59375 0.1875 2.21875 0.1875l4.375 0l0 2.546875l-9.671875 0l0 -2.375l1.421875 0q-1.640625 -1.265625 -1.640625 -3.1875q0 -0.84375 0.3125 -1.546875q0.296875 -0.703125 0.78125 -1.0625q0.46875 -0.359375 1.078125 -0.5q0.59375 -0.140625 1.703125 -0.140625l6.015625 0zm-2.765625 -1.6928558l-0.390625 -2.5625q0.75 -0.171875 1.140625 -0.671875q0.390625 -0.5 0.390625 -1.40625q0 -0.984375 -0.375 -1.484375q-0.25 -0.34375 -0.671875 -0.34375q-0.296875 0 -0.484375 0.1875q-0.1875 0.1875 -0.34375 0.859375q-0.6875 3.09375 -1.25 3.921875q-0.78125 1.140625 -2.171875 1.140625q-1.265625 0 -2.109375 -0.984375q-0.859375 -1.0 -0.859375 -3.078125q0 -1.984375 0.65625 -2.953125q0.640625 -0.96875 1.90625 -1.328125l0.4375 2.40625q-0.5625 0.15625 -0.859375 0.59375q-0.296875 0.421875 -0.296875 1.234375q0 1.0 0.28125 1.4375q0.203125 0.296875 0.515625 0.296875q0.265625 0 0.46875 -0.25q0.25 -0.34375 0.71875 -2.390625q0.453125 -2.046875 1.140625 -2.859375q0.671875 -0.796875 1.890625 -0.796875q1.34375 0 2.296875 1.109375q0.953125 1.109375 0.953125 3.28125q0 1.984375 -0.796875 3.140625q-0.8125 1.140625 -2.1875 1.5zm-4.34375 -11.766342l-2.5625 0l0 -2.5625l2.5625 0l0 2.5625zm7.109375 0l-2.5625 0l0 -2.5625l2.5625 0l0 2.5625zm0 -22.281403l0 2.9375l-3.03125 1.171875l0 5.328125l3.03125 1.109375l0 2.859375l-13.359375 -5.203125l0 -2.84375l13.359375 -5.359375zm-5.28125 4.96875l-4.953125 1.84375l4.953125 1.796875l0 -3.640625zm2.71875 -6.316696l0 -2.546875l1.828125 0q1.109375 0 1.75 0.1875q0.65625 0.1875 1.15625 0.71875q0.515625 0.53125 0.8125 1.359375l-1.0625 0.5q-0.25 -0.78125 -0.703125 -1.109375q-0.4375 -0.328125 -1.21875 -0.34375l0 1.234375l-2.5625 0zm-10.796875 -10.444733l0 -5.34375q0 -1.59375 0.140625 -2.359375q0.125 -0.78125 0.546875 -1.390625q0.421875 -0.625 1.125 -1.03125q0.6875 -0.40625 1.546875 -0.40625q0.9375 0 1.734375 0.5q0.78125 0.5 1.171875 1.375q0.359375 -1.21875 1.21875 -1.875q0.84375 -0.65625 2.0 -0.65625q0.921875 0 1.78125 0.421875q0.859375 0.421875 1.375 1.15625q0.515625 0.734375 0.625 1.796875q0.078125 0.6875 0.09375 3.265625l0 4.546875l-13.359375 0zm2.234375 -2.703125l3.078125 0l0 -1.765625q0 -1.578125 -0.046875 -1.953125q-0.078125 -0.703125 -0.46875 -1.09375q-0.40625 -0.40625 -1.046875 -0.40625q-0.625 0 -1.0 0.34375q-0.390625 0.34375 -0.484375 1.015625q-0.03125 0.40625 -0.03125 2.3125l0 1.546875zm5.296875 0l3.578125 0l0 -2.5q0 -1.453125 -0.078125 -1.84375q-0.109375 -0.609375 -0.53125 -0.984375q-0.421875 -0.375 -1.140625 -0.375q-0.59375 0 -1.015625 0.296875q-0.421875 0.28125 -0.609375 0.84375q-0.203125 0.546875 -0.203125 2.390625l0 2.171875zm3.265625 -10.691696l0 -2.546875l1.828125 0q1.109375 0 1.75 0.1875q0.65625 0.1875 1.15625 0.71875q0.515625 0.53125 0.8125 1.359375l-1.0625 0.5q-0.25 -0.78125 -0.703125 -1.109375q-0.4375 -0.328125 -1.21875 -0.34375l0 1.234375l-2.5625 0zm-2.34375 -18.991608l0.828125 -2.609375q2.1875 0.59375 3.25 2.0q1.0625 1.390625 1.0625 3.546875q0 2.65625 -1.8125 4.375q-1.828125 1.703125 -4.984375 1.703125q-3.328125 0 -5.171875 -1.71875q-1.84375 -1.71875 -1.84375 -4.515625q0 -2.453125 1.4375 -3.984375q0.859375 -0.921875 2.46875 -1.375l0.640625 2.671875q-1.046875 0.234375 -1.640625 0.984375q-0.609375 0.75 -0.609375 1.828125q0 1.484375 1.078125 2.421875q1.0625 0.921875 3.4375 0.921875q2.53125 0 3.609375 -0.90625q1.078125 -0.921875 1.078125 -2.375q0 -1.078125 -0.671875 -1.84375q-0.6875 -0.78125 -2.15625 -1.125zm2.34375 -4.847946l0 -2.546875l1.828125 0q1.109375 0 1.75 0.1875q0.65625 0.1875 1.15625 0.71875q0.515625 0.53125 0.8125 1.359375l-1.0625 0.5q-0.25 -0.78125 -0.703125 -1.109375q-0.4375 -0.328125 -1.21875 -0.34375l0 1.234375l-2.5625 0zm-10.796875 -10.429108l0 -4.9375q0 -1.65625 0.265625 -2.53125q0.34375 -1.1875 1.234375 -2.015625q0.875 -0.84375 2.15625 -1.28125q1.28125 -0.4375 3.15625 -0.4375q1.640625 0 2.84375 0.40625q1.453125 0.5 2.359375 1.4375q0.671875 0.703125 1.0625 1.890625q0.28125 0.890625 0.28125 2.390625l0 5.078125l-13.359375 0zm2.265625 -2.703125l8.84375 0l0 -2.015625q0 -1.125 -0.125 -1.625q-0.171875 -0.65625 -0.5625 -1.078125q-0.390625 -0.4375 -1.28125 -0.703125q-0.90625 -0.28125 -2.453125 -0.28125q-1.546875 0 -2.375 0.28125q-0.828125 0.265625 -1.28125 0.765625q-0.46875 0.484375 -0.640625 1.234375q-0.125 0.5625 -0.125 2.21875l0 1.203125z" fill-rule="nonzero"/><path fill="#000000" fill-opacity="0.0" d="m126.9462 514.6352l243.74802 0l0 35.84247l-243.74802 0z" fill-rule="evenodd"/><path fill="#000000" d="m219.599 541.5552l0 -13.359375l5.6875 0q2.140625 0 3.109375 0.359375q0.96875 0.359375 1.546875 1.28125q0.578125 0.921875 0.578125 2.109375q0 1.5 -0.890625 2.484375q-0.875 0.96875 -2.625 1.234375q0.875 0.5 1.4375 1.125q0.578125 0.609375 1.53125 2.15625l1.640625 2.609375l-3.234375 0l-1.9375 -2.90625q-1.046875 -1.5625 -1.4375 -1.96875q-0.375 -0.40625 -0.8125 -0.546875q-0.421875 -0.15625 -1.34375 -0.15625l-0.546875 0l0 5.578125l-2.703125 0zm2.703125 -7.703125l2.0 0q1.9375 0 2.421875 -0.15625q0.484375 -0.171875 0.75 -0.578125q0.28125 -0.40625 0.28125 -1.0q0 -0.671875 -0.359375 -1.078125q-0.359375 -0.421875 -1.015625 -0.53125q-0.328125 -0.046875 -1.96875 -0.046875l-2.109375 0l0 3.390625zm22.816696 7.703125l-2.9375 0l-1.171875 -3.03125l-5.328125 0l-1.109375 3.03125l-2.859375 0l5.203125 -13.359375l2.84375 0l5.359375 13.359375zm-4.96875 -5.28125l-1.84375 -4.953125l-1.796875 4.953125l3.640625 0zm6.316696 5.28125l0 -13.359375l2.6875 0l0 13.359375l-2.6875 0zm5.245804 -13.359375l4.9375153 0q1.65625 0 2.53125 0.265625q1.1875 0.34375 2.015625 1.234375q0.84375 0.875 1.28125 2.15625q0.4375 1.28125 0.4375 3.15625q0 1.640625 -0.40625 2.84375q-0.5 1.453125 -1.4375 2.359375q-0.703125 0.671875 -1.890625 1.0625q-0.890625 0.28125 -2.390625 0.28125l-5.0781403 0l0 -13.359375zm2.703125 2.265625l0 8.84375l2.0156403 0q1.125 0 1.625 -0.125q0.65625 -0.171875 1.078125 -0.5625q0.4375 -0.390625 0.703125 -1.28125q0.28125 -0.90625 0.28125 -2.453125q0 -1.546875 -0.28125 -2.375q-0.265625 -0.828125 -0.765625 -1.28125q-0.484375 -0.46875 -1.234375 -0.640625q-0.5625 -0.125 -2.21875 -0.125l-1.2031403 0zm15.437515 7.65625l2.546875 -0.265625q0.109375 0.875 0.640625 1.375q0.546875 0.5 1.25 0.5q0.796875 0 1.34375 -0.640625q0.5625 -0.65625 0.5625 -1.96875q0 -1.234375 -0.546875 -1.84375q-0.546875 -0.609375 -1.4375 -0.609375q-1.09375 0 -1.96875 0.96875l-2.078125 -0.296875l1.3125 -6.953125l6.765625 0l0 2.390625l-4.828125 0l-0.40625 2.265625q0.859375 -0.421875 1.75 -0.421875q1.703125 0 2.890625 1.25q1.1875 1.234375 1.1875 3.203125q0 1.65625 -0.953125 2.9375q-1.3125 1.78125 -3.625 1.78125q-1.84375 0 -3.015625 -1.0q-1.15625 -1.0 -1.390625 -2.671875z" fill-rule="nonzero"/><path fill="#000000" fill-opacity="0.0" d="m454.8235 466.48105c-3.6140442 3.2013245 8.313599 15.549561 -21.684265 19.207977c-29.997864 3.6583862 -127.58258 -0.4588623 -158.30289 2.7424622c-30.720306 3.201355 -21.682419 13.721252 -26.018906 16.465485" fill-rule="evenodd"/><path stroke="#cc0000" stroke-width="1.0" stroke-linejoin="round" stroke-linecap="butt" d="m454.8235 466.48105c-3.6140442 3.2013245 8.313599 15.549561 -21.684265 19.207977c-29.997864 3.6583862 -127.58258 -0.4588623 -158.30289 2.7424622c-30.720306 3.201355 -21.682419 13.721252 -26.018906 16.465485" fill-rule="evenodd"/><path fill="#000000" fill-opacity="0.0" d="m42.814297 466.48105c3.6140442 3.2013245 -8.313595 15.549561 21.684269 19.207977c29.997856 3.6583862 127.58261 -0.4588623 158.3029 2.7424622c30.720306 3.201355 21.682419 13.721252 26.01889 16.465485" fill-rule="evenodd"/><path stroke="#cc0000" stroke-width="1.0" stroke-linejoin="round" stroke-linecap="butt" d="m42.814297 466.48105c3.6140442 3.2013245 -8.313595 15.549561 21.684269 19.207977c29.997856 3.6583862 127.58261 -0.4588623 158.3029 2.7424622c30.720306 3.201355 21.682419 13.721252 26.01889 16.465485" fill-rule="evenodd"/></g></svg>