<svg version="1.1" viewBox="0.0 0.0 600.3123359580053 527.7926509186352" fill="none" stroke="none" stroke-linecap="square" stroke-miterlimit="10" xmlns:xlink="http://www.w3.org/1999/xlink" xmlns="http://www.w3.org/2000/svg"><clipPath id="p.0"><path d="m0 0l600.3123 0l0 527.79266l-600.3123 0l0 -527.79266z" clip-rule="nonzero"/></clipPath><g clip-path="url(#p.0)"><path fill="#000000" fill-opacity="0.0" d="m0 0l600.3123 0l0 527.79266l-600.3123 0z" fill-rule="evenodd"/><path fill="#b45f06" d="m253.18898 115.343796l0 0c0 6.009903 19.48796 10.881889 43.527542 10.881889c24.039612 0 43.527557 -4.8719864 43.527557 -10.881889l0 100.97638c0 6.009903 -19.487946 10.881897 -43.527557 10.881897c-24.039581 0 -43.527542 -4.871994 -43.527542 -10.881897z" fill-rule="evenodd"/><path fill="#d29f69" d="m253.18898 115.343796l0 0c0 -6.0098953 19.48796 -10.881889 43.527542 -10.881889c24.039612 0 43.527557 4.871994 43.527557 10.881889l0 0c0 6.009903 -19.487946 10.881889 -43.527557 10.881889c-24.039581 0 -43.527542 -4.8719864 -43.527542 -10.881889z" fill-rule="evenodd"/><path fill="#000000" fill-opacity="0.0" d="m340.24408 115.343796l0 0c0 6.009903 -19.487946 10.881889 -43.527557 10.881889c-24.039581 0 -43.527542 -4.8719864 -43.527542 -10.881889l0 0c0 -6.0098953 19.48796 -10.881889 43.527542 -10.881889c24.039612 0 43.527557 4.871994 43.527557 10.881889l0 100.97638c0 6.009903 -19.487946 10.881897 -43.527557 10.881897c-24.039581 0 -43.527542 -4.871994 -43.527542 -10.881897l0 -100.97638" fill-rule="evenodd"/><path stroke="#000000" stroke-width="2.0" stroke-linejoin="round" stroke-linecap="butt" d="m340.24408 115.343796l0 0c0 6.009903 -19.487946 10.881889 -43.527557 10.881889c-24.039581 0 -43.527542 -4.8719864 -43.527542 -10.881889l0 0c0 -6.0098953 19.48796 -10.881889 43.527542 -10.881889c24.039612 0 43.527557 4.871994 43.527557 10.881889l0 100.97638c0 6.009903 -19.487946 10.881897 -43.527557 10.881897c-24.039581 0 -43.527542 -4.871994 -43.527542 -10.881897l0 -100.97638" fill-rule="evenodd"/><path fill="#ffff00" d="m275.8989 167.19293l0 -13.359375l5.921875 0q1.78125 0 2.703125 0.359375q0.9375 0.359375 1.484375 1.28125q0.5625 0.90625 0.5625 2.015625q0 1.40625 -0.921875 2.390625q-0.921875 0.96875 -2.84375 1.234375q0.703125 0.34375 1.078125 0.671875q0.765625 0.703125 1.453125 1.765625l2.328125 3.640625l-2.21875 0l-1.765625 -2.78125q-0.78125 -1.203125 -1.28125 -1.828125q-0.5 -0.640625 -0.90625 -0.890625q-0.390625 -0.265625 -0.796875 -0.359375q-0.296875 -0.078125 -0.984375 -0.078125l-2.046875 0l0 5.9375l-1.765625 0zm1.765625 -7.453125l3.796875 0q1.21875 0 1.890625 -0.25q0.6875 -0.265625 1.046875 -0.8125q0.359375 -0.546875 0.359375 -1.1875q0 -0.953125 -0.6875 -1.5625q-0.6875 -0.609375 -2.1875 -0.609375l-4.21875 0l0 4.421875zm10.207336 7.453125l5.125 -13.359375l1.90625 0l5.46875 13.359375l-2.015625 0l-1.546875 -4.046875l-5.59375 0l-1.46875 4.046875l-1.875 0zm3.859375 -5.484375l4.53125 0l-1.40625 -3.703125q-0.625 -1.6875 -0.9375 -2.765625q-0.265625 1.28125 -0.71875 2.546875l-1.46875 3.921875zm10.349823 5.484375l0 -13.359375l1.765625 0l0 13.359375l-1.765625 0zm4.8864136 0l0 -13.359375l4.609375 0q1.546875 0 2.375 0.203125q1.140625 0.25 1.953125 0.953125q1.0625 0.890625 1.578125 2.28125q0.53125 1.390625 0.53125 3.171875q0 1.515625 -0.359375 2.703125q-0.359375 1.171875 -0.921875 1.9375q-0.546875 0.765625 -1.203125 1.21875q-0.65625 0.4375 -1.59375 0.671875q-0.9375 0.21875 -2.140625 0.21875l-4.828125 0zm1.765625 -1.578125l2.859375 0q1.3125 0 2.0625 -0.234375q0.75 -0.25 1.203125 -0.703125q0.625 -0.625 0.96875 -1.6875q0.359375 -1.0625 0.359375 -2.578125q0 -2.09375 -0.6875 -3.21875q-0.6875 -1.125 -1.671875 -1.5q-0.703125 -0.28125 -2.28125 -0.28125l-2.8125 0l0 10.203125z" fill-rule="nonzero"/><path fill="#ffff00" d="m293.29395 189.19293l-1.640625 0l0 -10.453125q-0.59375 0.5625 -1.5625 1.140625q-0.953125 0.5625 -1.71875 0.84375l0 -1.59375q1.375 -0.640625 2.40625 -1.5625q1.03125 -0.921875 1.453125 -1.78125l1.0625 0l0 13.40625zm4.203827 -6.59375q0 -2.359375 0.484375 -3.796875q0.484375 -1.453125 1.4375 -2.234375q0.96875 -0.78125 2.421875 -0.78125q1.078125 0 1.890625 0.4375q0.8125 0.421875 1.328125 1.25q0.53125 0.8125 0.828125 1.984375q0.3125 1.15625 0.3125 3.140625q0 2.359375 -0.484375 3.8125q-0.484375 1.4375 -1.453125 2.234375q-0.953125 0.78125 -2.421875 0.78125q-1.921875 0 -3.03125 -1.390625q-1.3125 -1.671875 -1.3125 -5.4375zm1.671875 0q0 3.296875 0.765625 4.390625q0.78125 1.078125 1.90625 1.078125q1.140625 0 1.90625 -1.09375q0.765625 -1.09375 0.765625 -4.375q0 -3.296875 -0.765625 -4.375q-0.765625 -1.078125 -1.921875 -1.078125q-1.125 0 -1.796875 0.953125q-0.859375 1.21875 -0.859375 4.5z" fill-rule="nonzero"/><path fill="#990000" d="m46.985565 321.17322l0 0c0 -7.070984 5.7321663 -12.803131 12.80315 -12.803131l0 0c3.3956032 0 6.652134 1.348877 9.053196 3.749939c2.4010544 2.401062 3.7499542 5.657593 3.7499542 9.053192l0 0c0 7.070984 -5.73217 12.803162 -12.80315 12.803162l0 0c-7.070984 0 -12.80315 -5.7321777 -12.80315 -12.803162z" fill-rule="evenodd"/><path stroke="#000000" stroke-width="1.0" stroke-linejoin="round" stroke-linecap="butt" d="m46.985565 321.17322l0 0c0 -7.070984 5.7321663 -12.803131 12.80315 -12.803131l0 0c3.3956032 0 6.652134 1.348877 9.053196 3.749939c2.4010544 2.401062 3.7499542 5.657593 3.7499542 9.053192l0 0c0 7.070984 -5.73217 12.803162 -12.80315 12.803162l0 0c-7.070984 0 -12.80315 -5.7321777 -12.80315 -12.803162z" fill-rule="evenodd"/><path fill="#990000" d="m208.29002 321.62598l0 0c0 -7.070984 5.7321625 -12.803131 12.803146 -12.803131l0 0c3.3956146 0 6.6521454 1.348877 9.053192 3.749939c2.401062 2.401062 3.7499695 5.657593 3.7499695 9.053192l0 0c0 7.070984 -5.7321777 12.803162 -12.803162 12.803162l0 0c-7.070984 0 -12.803146 -5.7321777 -12.803146 -12.803162z" fill-rule="evenodd"/><path stroke="#000000" stroke-width="1.0" stroke-linejoin="round" stroke-linecap="butt" d="m208.29002 321.62598l0 0c0 -7.070984 5.7321625 -12.803131 12.803146 -12.803131l0 0c3.3956146 0 6.6521454 1.348877 9.053192 3.749939c2.401062 2.401062 3.7499695 5.657593 3.7499695 9.053192l0 0c0 7.070984 -5.7321777 12.803162 -12.803162 12.803162l0 0c-7.070984 0 -12.803146 -5.7321777 -12.803146 -12.803162z" fill-rule="evenodd"/><path fill="#990000" d="m373.95145 321.1719l0 0c0 -7.070984 5.732147 -12.803131 12.803162 -12.803131l0 0c3.3955994 0 6.65213 1.348877 9.053192 3.749939c2.4010315 2.401062 3.749939 5.657593 3.749939 9.053192l0 0c0 7.070984 -5.732147 12.803162 -12.803131 12.803162l0 0c-7.0710144 0 -12.803162 -5.7321777 -12.803162 -12.803162z" fill-rule="evenodd"/><path stroke="#000000" stroke-width="1.0" stroke-linejoin="round" stroke-linecap="butt" d="m373.95145 321.1719l0 0c0 -7.070984 5.732147 -12.803131 12.803162 -12.803131l0 0c3.3955994 0 6.65213 1.348877 9.053192 3.749939c2.4010315 2.401062 3.749939 5.657593 3.749939 9.053192l0 0c0 7.070984 -5.732147 12.803162 -12.803131 12.803162l0 0c-7.0710144 0 -12.803162 -5.7321777 -12.803162 -12.803162z" fill-rule="evenodd"/><path fill="#666666" d="m177.56693 376.52792l0 0c0 5.3901978 19.48796 9.759827 43.527557 9.759827c24.039612 0 43.527557 -4.369629 43.527557 -9.759827l0 58.55905c0 5.3901978 -19.487946 9.759827 -43.527557 9.759827c-24.039597 0 -43.527557 -4.369629 -43.527557 -9.759827z" fill-rule="evenodd"/><path fill="#a3a3a3" d="m177.56693 376.52792l0 0c0 -5.3902283 19.48796 -9.759857 43.527557 -9.759857c24.039612 0 43.527557 4.369629 43.527557 9.759857l0 0c0 5.3901978 -19.487946 9.759827 -43.527557 9.759827c-24.039597 0 -43.527557 -4.369629 -43.527557 -9.759827z" fill-rule="evenodd"/><path fill="#000000" fill-opacity="0.0" d="m264.62204 376.52792l0 0c0 5.3901978 -19.487946 9.759827 -43.527557 9.759827c-24.039597 0 -43.527557 -4.369629 -43.527557 -9.759827l0 0c0 -5.3902283 19.48796 -9.759857 43.527557 -9.759857c24.039612 0 43.527557 4.369629 43.527557 9.759857l0 58.55905c0 5.3901978 -19.487946 9.759827 -43.527557 9.759827c-24.039597 0 -43.527557 -4.369629 -43.527557 -9.759827l0 -58.55905" fill-rule="evenodd"/><path stroke="#000000" stroke-width="2.0" stroke-linejoin="round" stroke-linecap="butt" d="m264.62204 376.52792l0 0c0 5.3901978 -19.487946 9.759827 -43.527557 9.759827c-24.039597 0 -43.527557 -4.369629 -43.527557 -9.759827l0 0c0 -5.3902283 19.48796 -9.759857 43.527557 -9.759857c24.039612 0 43.527557 4.369629 43.527557 9.759857l0 58.55905c0 5.3901978 -19.487946 9.759827 -43.527557 9.759827c-24.039597 0 -43.527557 -4.369629 -43.527557 -9.759827l0 -58.55905" fill-rule="evenodd"/><path fill="#efefef" d="m194.95488 404.248l4.9375 0q1.65625 0 2.53125 0.265625q1.1875 0.34375 2.015625 1.234375q0.84375 0.875 1.28125 2.15625q0.4375 1.28125 0.4375 3.15625q0 1.640625 -0.40625 2.84375q-0.5 1.453125 -1.4375 2.359375q-0.703125 0.671875 -1.890625 1.0625q-0.890625 0.28125 -2.390625 0.28125l-5.078125 0l0 -13.359375zm2.703125 2.265625l0 8.84375l2.015625 0q1.125 0 1.625 -0.125q0.65625 -0.171875 1.078125 -0.5625q0.4375 -0.390625 0.703125 -1.28125q0.28125 -0.90625 0.28125 -2.453125q0 -1.546875 -0.28125 -2.375q-0.265625 -0.828125 -0.765625 -1.28125q-0.484375 -0.46875 -1.234375 -0.640625q-0.5625 -0.125 -2.21875 -0.125l-1.203125 0zm10.769821 0.109375l0 -2.375l2.5625 0l0 2.375l-2.5625 0zm0 10.984375l0 -9.671875l2.5625 0l0 9.671875l-2.5625 0zm4.277054 -2.765625l2.5625 -0.390625q0.171875 0.75 0.671875 1.140625q0.5 0.390625 1.40625 0.390625q0.984375 0 1.484375 -0.375q0.34375 -0.25 0.34375 -0.671875q0 -0.296875 -0.1875 -0.484375q-0.1875 -0.1875 -0.859375 -0.34375q-3.09375 -0.6875 -3.921875 -1.25q-1.140625 -0.78125 -1.140625 -2.171875q0 -1.265625 0.984375 -2.109375q1.0 -0.859375 3.078125 -0.859375q1.984375 0 2.953125 0.65625q0.96875 0.640625 1.328125 1.90625l-2.40625 0.4375q-0.15625 -0.5625 -0.59375 -0.859375q-0.421875 -0.296875 -1.234375 -0.296875q-1.0 0 -1.4375 0.28125q-0.296875 0.203125 -0.296875 0.515625q0 0.265625 0.25 0.46875q0.34375 0.25 2.390625 0.71875q2.046875 0.453125 2.859375 1.140625q0.796875 0.671875 0.796875 1.890625q0 1.34375 -1.109375 2.296875q-1.109375 0.953125 -3.28125 0.953125q-1.984375 0 -3.140625 -0.796875q-1.140625 -0.8125 -1.5 -2.1875zm11.188217 2.765625l0 -13.359375l2.5625 0l0 7.09375l3.0 -3.40625l3.140625 0l-3.296875 3.53125l3.53125 6.140625l-2.75 0l-2.4375 -4.34375l-1.1875 1.25l0 3.09375l-2.5625 0zm23.746521 -2.375l0 2.375l-8.96875 0q0.140625 -1.34375 0.859375 -2.546875q0.734375 -1.21875 2.890625 -3.203125q1.734375 -1.625 2.125 -2.1875q0.53125 -0.796875 0.53125 -1.578125q0 -0.84375 -0.46875 -1.296875q-0.453125 -0.46875 -1.265625 -0.46875q-0.796875 0 -1.28125 0.484375q-0.46875 0.46875 -0.546875 1.59375l-2.546875 -0.25q0.234375 -2.109375 1.421875 -3.03125q1.203125 -0.921875 3.015625 -0.921875q1.96875 0 3.09375 1.0625q1.140625 1.0625 1.140625 2.65625q0 0.890625 -0.328125 1.71875q-0.3125 0.8125 -1.015625 1.703125q-0.46875 0.59375 -1.6875 1.703125q-1.203125 1.109375 -1.53125 1.484375q-0.3125 0.359375 -0.515625 0.703125l5.078125 0z" fill-rule="nonzero"/><path fill="#666666" d="m16.89239 372.45145l0 0c0 5.3901978 19.487951 9.759827 43.527557 9.759827c24.039608 0 43.52756 -4.369629 43.52756 -9.759827l0 58.55905c0 5.3901978 -19.487953 9.759857 -43.52756 9.759857c-24.039608 0 -43.527557 -4.3696594 -43.527557 -9.759857z" fill-rule="evenodd"/><path fill="#a3a3a3" d="m16.89239 372.45145l0 0c0 -5.3902283 19.487951 -9.759857 43.527557 -9.759857c24.039608 0 43.52756 4.369629 43.52756 9.759857l0 0c0 5.3901978 -19.487953 9.759827 -43.52756 9.759827c-24.039608 0 -43.527557 -4.369629 -43.527557 -9.759827z" fill-rule="evenodd"/><path fill="#000000" fill-opacity="0.0" d="m103.94751 372.45145l0 0c0 5.3901978 -19.487953 9.759827 -43.52756 9.759827c-24.039608 0 -43.527557 -4.369629 -43.527557 -9.759827l0 0c0 -5.3902283 19.487951 -9.759857 43.527557 -9.759857c24.039608 0 43.52756 4.369629 43.52756 9.759857l0 58.55905c0 5.3901978 -19.487953 9.759857 -43.52756 9.759857c-24.039608 0 -43.527557 -4.3696594 -43.527557 -9.759857l0 -58.55905" fill-rule="evenodd"/><path stroke="#000000" stroke-width="2.0" stroke-linejoin="round" stroke-linecap="butt" d="m103.94751 372.45145l0 0c0 5.3901978 -19.487953 9.759827 -43.52756 9.759827c-24.039608 0 -43.527557 -4.369629 -43.527557 -9.759827l0 0c0 -5.3902283 19.487951 -9.759857 43.527557 -9.759857c24.039608 0 43.52756 4.369629 43.52756 9.759857l0 58.55905c0 5.3901978 -19.487953 9.759857 -43.52756 9.759857c-24.039608 0 -43.527557 -4.3696594 -43.527557 -9.759857l0 -58.55905" fill-rule="evenodd"/><path fill="#efefef" d="m34.280342 400.1715l4.9375 0q1.65625 0 2.53125 0.265625q1.1875 0.34375 2.015625 1.234375q0.84375 0.875 1.28125 2.15625q0.4375 1.28125 0.4375 3.15625q0 1.640625 -0.40625 2.84375q-0.5 1.453125 -1.4375 2.359375q-0.703125 0.671875 -1.890625 1.0625q-0.890625 0.28125 -2.390625 0.28125l-5.078125 0l0 -13.359375zm2.703125 2.265625l0 8.84375l2.015625 0q1.125 0 1.625 -0.125q0.65625 -0.171875 1.078125 -0.5625q0.4375 -0.390625 0.703125 -1.28125q0.28125 -0.90625 0.28125 -2.453125q0 -1.546875 -0.28125 -2.375q-0.265625 -0.828125 -0.765625 -1.28125q-0.484375 -0.46875 -1.234375 -0.640625q-0.5625 -0.125 -2.21875 -0.125l-1.203125 0zm10.769821 0.109375l0 -2.375l2.5625 0l0 2.375l-2.5625 0zm0 10.984375l0 -9.671875l2.5625 0l0 9.671875l-2.5625 0zm4.277054 -2.765625l2.5625 -0.390625q0.171875 0.75 0.671875 1.140625q0.5 0.390625 1.40625 0.390625q0.984375 0 1.484375 -0.375q0.34375 -0.25 0.34375 -0.671875q0 -0.296875 -0.1875 -0.484375q-0.1875 -0.1875 -0.859375 -0.34375q-3.09375 -0.6875 -3.921875 -1.25q-1.140625 -0.78125 -1.140625 -2.171875q0 -1.265625 0.984375 -2.109375q1.0 -0.859375 3.078125 -0.859375q1.984375 0 2.953125 0.65625q0.96875 0.640625 1.328125 1.90625l-2.40625 0.4375q-0.15625 -0.5625 -0.59375 -0.859375q-0.421875 -0.296875 -1.234375 -0.296875q-1.0 0 -1.4375 0.28125q-0.296875 0.203125 -0.296875 0.515625q0 0.265625 0.25 0.46875q0.34375 0.25 2.390625 0.71875q2.046875 0.453125 2.859375 1.140625q0.796875 0.671875 0.796875 1.890625q0 1.34375 -1.109375 2.296875q-1.109375 0.953125 -3.28125 0.953125q-1.984375 0 -3.140625 -0.796875q-1.140625 -0.8125 -1.5 -2.1875zm11.188217 2.765625l0 -13.359375l2.5625 0l0 7.09375l3.0 -3.40625l3.140625 0l-3.296875 3.53125l3.53125 6.140625l-2.75 0l-2.4375 -4.34375l-1.1875 1.25l0 3.09375l-2.5625 0zm21.652771 0l-2.5625 0l0 -9.640625q-1.40625 1.3125 -3.3125 1.9375l0 -2.328125q1.015625 -0.328125 2.1875 -1.234375q1.171875 -0.921875 1.609375 -2.140625l2.078125 0l0 13.40625z" fill-rule="nonzero"/><path fill="#666666" d="m343.22833 378.53674l0 0c0 5.3902283 19.487976 9.759857 43.527588 9.759857c24.039581 0 43.527557 -4.369629 43.527557 -9.759857l0 58.55905c0 5.3902283 -19.487976 9.759857 -43.527557 9.759857c-24.039612 0 -43.527588 -4.369629 -43.527588 -9.759857z" fill-rule="evenodd"/><path fill="#a3a3a3" d="m343.22833 378.53674l0 0c0 -5.3901978 19.487976 -9.759827 43.527588 -9.759827c24.039581 0 43.527557 4.369629 43.527557 9.759827l0 0c0 5.3902283 -19.487976 9.759857 -43.527557 9.759857c-24.039612 0 -43.527588 -4.369629 -43.527588 -9.759857z" fill-rule="evenodd"/><path fill="#000000" fill-opacity="0.0" d="m430.28348 378.53674l0 0c0 5.3902283 -19.487976 9.759857 -43.527557 9.759857c-24.039612 0 -43.527588 -4.369629 -43.527588 -9.759857l0 0c0 -5.3901978 19.487976 -9.759827 43.527588 -9.759827c24.039581 0 43.527557 4.369629 43.527557 9.759827l0 58.55905c0 5.3902283 -19.487976 9.759857 -43.527557 9.759857c-24.039612 0 -43.527588 -4.369629 -43.527588 -9.759857l0 -58.55905" fill-rule="evenodd"/><path stroke="#000000" stroke-width="2.0" stroke-linejoin="round" stroke-linecap="butt" d="m430.28348 378.53674l0 0c0 5.3902283 -19.487976 9.759857 -43.527557 9.759857c-24.039612 0 -43.527588 -4.369629 -43.527588 -9.759857l0 0c0 -5.3901978 19.487976 -9.759827 43.527588 -9.759827c24.039581 0 43.527557 4.369629 43.527557 9.759827l0 58.55905c0 5.3902283 -19.487976 9.759857 -43.527557 9.759857c-24.039612 0 -43.527588 -4.369629 -43.527588 -9.759857l0 -58.55905" fill-rule="evenodd"/><path fill="#efefef" d="m360.6163 406.2568l4.9375 0q1.65625 0 2.53125 0.265625q1.1875 0.34375 2.015625 1.234375q0.84375 0.875 1.28125 2.15625q0.4375 1.28125 0.4375 3.15625q0 1.640625 -0.40625 2.84375q-0.5 1.453125 -1.4375 2.359375q-0.703125 0.671875 -1.890625 1.0625q-0.890625 0.28125 -2.390625 0.28125l-5.078125 0l0 -13.359375zm2.703125 2.265625l0 8.84375l2.015625 0q1.125 0 1.625 -0.125q0.65625 -0.171875 1.078125 -0.5625q0.4375 -0.390625 0.703125 -1.28125q0.28125 -0.90625 0.28125 -2.453125q0 -1.546875 -0.28125 -2.375q-0.265625 -0.828125 -0.765625 -1.28125q-0.484375 -0.46875 -1.234375 -0.640625q-0.5625 -0.125 -2.21875 -0.125l-1.203125 0zm10.769806 0.109375l0 -2.375l2.5625 0l0 2.375l-2.5625 0zm0 10.984375l0 -9.671875l2.5625 0l0 9.671875l-2.5625 0zm4.277069 -2.765625l2.5625 -0.390625q0.171875 0.75 0.671875 1.140625q0.5 0.390625 1.40625 0.390625q0.984375 0 1.484375 -0.375q0.34375 -0.25 0.34375 -0.671875q0 -0.296875 -0.1875 -0.484375q-0.1875 -0.1875 -0.859375 -0.34375q-3.09375 -0.6875 -3.921875 -1.25q-1.140625 -0.78125 -1.140625 -2.171875q0 -1.265625 0.984375 -2.109375q1.0 -0.859375 3.078125 -0.859375q1.984375 0 2.953125 0.65625q0.96875 0.640625 1.328125 1.90625l-2.40625 0.4375q-0.15625 -0.5625 -0.59375 -0.859375q-0.421875 -0.296875 -1.234375 -0.296875q-1.0 0 -1.4375 0.28125q-0.296875 0.203125 -0.296875 0.515625q0 0.265625 0.25 0.46875q0.34375 0.25 2.390625 0.71875q2.046875 0.453125 2.859375 1.140625q0.796875 0.671875 0.796875 1.890625q0 1.34375 -1.109375 2.296875q-1.109375 0.953125 -3.28125 0.953125q-1.984375 0 -3.140625 -0.796875q-1.140625 -0.8125 -1.5 -2.1875zm11.188202 2.765625l0 -13.359375l2.5625 0l0 7.09375l3.0 -3.40625l3.140625 0l-3.296875 3.53125l3.53125 6.140625l-2.75 0l-2.4375 -4.34375l-1.1875 1.25l0 3.09375l-2.5625 0zm15.012146 -3.546875l2.46875 -0.296875q0.125 0.953125 0.640625 1.453125q0.53125 0.5 1.265625 0.5q0.78125 0 1.328125 -0.59375q0.546875 -0.609375 0.546875 -1.640625q0 -0.953125 -0.53125 -1.515625q-0.515625 -0.578125 -1.25 -0.578125q-0.5 0 -1.1875 0.203125l0.28125 -2.09375q1.046875 0.03125 1.59375 -0.4375q0.546875 -0.484375 0.546875 -1.28125q0 -0.671875 -0.40625 -1.078125q-0.390625 -0.40625 -1.0625 -0.40625q-0.65625 0 -1.125 0.46875q-0.453125 0.453125 -0.5625 1.328125l-2.359375 -0.40625q0.25 -1.203125 0.734375 -1.921875q0.5 -0.734375 1.390625 -1.140625q0.890625 -0.421875 2.0 -0.421875q1.875 0 3.015625 1.203125q0.9375 0.984375 0.9375 2.21875q0 1.765625 -1.921875 2.8125q1.15625 0.234375 1.84375 1.09375q0.6875 0.859375 0.6875 2.0625q0 1.765625 -1.296875 3.015625q-1.28125 1.234375 -3.1875 1.234375q-1.8125 0 -3.015625 -1.046875q-1.1875 -1.046875 -1.375 -2.734375z" fill-rule="nonzero"/><path fill="#000000" fill-opacity="0.0" d="m59.788715 333.97638l0.62992096 28.724396" fill-rule="evenodd"/><path stroke="#000000" stroke-width="2.0" stroke-linejoin="round" stroke-linecap="butt" d="m59.788715 333.97638l0.62992096 28.724396" fill-rule="evenodd"/><path fill="#000000" fill-opacity="0.0" d="m221.09317 334.42914l0 32.346466" fill-rule="evenodd"/><path stroke="#000000" stroke-width="2.0" stroke-linejoin="round" stroke-linecap="butt" d="m221.09317 334.42914l0 32.346466" fill-rule="evenodd"/><path fill="#000000" fill-opacity="0.0" d="m386.7546 333.97507l0 34.80316" fill-rule="evenodd"/><path stroke="#000000" stroke-width="2.0" stroke-linejoin="round" stroke-linecap="butt" d="m386.7546 333.97507l0 34.80316" fill-rule="evenodd"/><path fill="#000000" fill-opacity="0.0" d="m283.9357 275.2034l-136.15749 0l0 33.165375" fill-rule="evenodd"/><path stroke="#000000" stroke-width="2.0" stroke-linejoin="round" stroke-linecap="butt" d="m283.9357 275.2034l-136.15749 0l0 33.165375" fill-rule="evenodd"/><path fill="#000000" fill-opacity="0.0" d="m74.03018 321.89633l60.944885 -0.72442627" fill-rule="evenodd"/><path stroke="#000000" stroke-width="2.0" stroke-linejoin="round" stroke-linecap="butt" d="m74.03018 321.89633l60.944885 -0.72442627" fill-rule="evenodd"/><path fill="#000000" fill-opacity="0.0" d="m174.84251 13.522309l243.74803 0l0 81.826775l-243.74803 0z" fill-rule="evenodd"/><path fill="#cc0000" d="m257.38794 43.002308l0 -15.265623l6.484375 0q2.453125 0 3.5625 0.421875q1.109375 0.40625 1.765625 1.453125q0.671875 1.046875 0.671875 2.406248q0 1.71875 -1.015625 2.84375q-1.0 1.109375 -3.015625 1.40625q1.0 0.578125 1.640625 1.28125q0.65625 0.6875 1.765625 2.46875l1.859375 2.984375l-3.6875 0l-2.21875 -3.328125q-1.1875 -1.78125 -1.625 -2.234375q-0.4375 -0.46875 -0.9375 -0.640625q-0.484375 -0.171875 -1.546875 -0.171875l-0.625 0l0 6.375l-3.078125 0zm3.078125 -8.8125l2.28125 0q2.21875 0 2.765625 -0.1875q0.5625 -0.1875 0.875 -0.640625q0.3125 -0.46875 0.3125 -1.140625q0 -0.7812481 -0.421875 -1.2499981q-0.40625 -0.46875 -1.15625 -0.59375q-0.375 -0.0625 -2.25 -0.0625l-2.40625 0l0 3.874998zm26.074371 8.8125l-3.34375 0l-1.328125 -3.46875l-6.109375 0l-1.265625 3.46875l-3.265625 0l5.953125 -15.265623l3.25 0l6.109375 15.265623zm-5.671875 -6.046875l-2.09375 -5.656248l-2.0625 5.656248l4.15625 0zm7.2149963 6.046875l0 -15.265623l3.09375 0l0 15.265623l-3.09375 0zm6.019409 -15.265623l5.625 0q1.90625 0 2.90625 0.296875q1.34375 0.390625 2.296875 1.40625q0.96875 1.0 1.46875 2.46875q0.5 1.4531231 0.5 3.609373q0 1.875 -0.46875 3.25q-0.578125 1.65625 -1.640625 2.6875q-0.796875 0.78125 -2.15625 1.21875q-1.03125 0.328125 -2.734375 0.328125l-5.796875 0l0 -15.265623zm3.078125 2.578125l0 10.109373l2.296875 0q1.296875 0 1.875 -0.140625q0.75 -0.1875 1.234375 -0.625q0.5 -0.453125 0.8125 -1.484375q0.3125 -1.03125 0.3125 -2.796875q0 -1.765625 -0.3125 -2.703125q-0.3125 -0.9531231 -0.875 -1.4843731q-0.5625 -0.53125 -1.421875 -0.71875q-0.65625 -0.15625 -2.53125 -0.15625l-1.390625 0zm25.09378 12.687498l-2.921875 0l0 -11.031248q-1.609375 1.4999981 -3.78125 2.218748l0 -2.656248q1.140625 -0.375 2.484375 -1.421875q1.34375 -1.046875 1.84375 -2.4375l2.375 0l0 15.328123zm9.330444 -15.328123q2.21875 0 3.46875 1.578125q1.484375 1.875 1.484375 6.218748q0 4.328125 -1.5 6.234375q-1.234375 1.5625 -3.453125 1.5625q-2.234375 0 -3.609375 -1.71875q-1.359375 -1.71875 -1.359375 -6.109375q0 -4.312498 1.5 -6.203123q1.25 -1.5625 3.46875 -1.5625zm0 2.421875q-0.53125 0 -0.953125 0.34375q-0.421875 0.34375 -0.640625 1.21875q-0.3125 1.1249981 -0.3125 3.812498q0 2.6875 0.265625 3.703125q0.28125 1.0 0.6875 1.328125q0.421875 0.328125 0.953125 0.328125q0.53125 0 0.9375 -0.328125q0.421875 -0.34375 0.65625 -1.21875q0.296875 -1.125 0.296875 -3.8125q0 -2.6875 -0.28125 -3.687498q-0.265625 -1.0 -0.671875 -1.34375q-0.40625 -0.34375 -0.9375 -0.34375z" fill-rule="nonzero"/><path fill="#cc0000" d="m230.67671 69.00231l-5.46875 -15.265629l3.34375 0l3.875 11.296879l3.734375 -11.296879l3.265625 0l-5.46875 15.265629l-3.28125 0zm10.225693 0l0 -15.265629l3.09375 0l0 15.265629l-3.09375 0zm6.035019 0l0 -15.265629l6.484375 0q2.453125 0 3.5625153 0.421875q1.109375 0.40625 1.765625 1.453125q0.671875 1.046875 0.671875 2.40625q0 1.71875 -1.015625 2.84375q-1.0 1.109375 -3.0156403 1.40625q1.0000153 0.578125 1.6406403 1.28125q0.65625 0.6875038 1.765625 2.4687538l1.859375 2.984375l-3.6875 0l-2.2187653 -3.328125q-1.1875 -1.7812538 -1.625 -2.2343788q-0.4375 -0.46875 -0.9375 -0.640625q-0.484375 -0.171875 -1.546875 -0.171875l-0.625 0l0 6.375004l-3.078125 0zm3.078125 -8.812504l2.28125 0q2.21875 0 2.765625 -0.1875q0.5625 -0.1875 0.875 -0.640625q0.31251526 -0.46875 0.31251526 -1.140625q0 -0.78125 -0.42189026 -1.25q-0.40625 -0.46875 -1.15625 -0.59375q-0.375 -0.0625 -2.25 -0.0625l-2.40625 0l0 3.875zm15.746262 8.812504l0 -12.687504l-4.53125 0l0 -2.578125l12.140625 0l0 2.578125l-4.515625 0l0 12.687504l-3.09375 0zm9.574951 -15.265629l3.078125 0l0 8.265625q0 1.96875 0.125 2.5468788q0.1875 0.9375 0.9375 1.515625q0.75 0.5625 2.03125 0.5625q1.3125 0 1.984375 -0.53125q0.671875 -0.546875 0.796875 -1.328125q0.140625 -0.7812538 0.140625 -2.5937538l0 -8.4375l3.078125 0l0 8.015625q0 2.7500038 -0.25 3.8906288q-0.25 1.125 -0.921875 1.90625q-0.671875 0.78125 -1.796875 1.25q-1.125 0.46875 -2.9375 0.46875q-2.1875 0 -3.3125 -0.5q-1.125 -0.515625 -1.78125 -1.3125q-0.65625 -0.8125 -0.875 -1.703125q-0.296875 -1.3125 -0.296875 -3.8750038l0 -8.140625zm29.183746 15.265629l-3.34375 0l-1.328125 -3.46875l-6.109375 0l-1.265625 3.46875l-3.265625 0l5.953125 -15.265629l3.25 0l6.109375 15.265629zm-5.671875 -6.046879l-2.09375 -5.65625l-2.0625 5.65625l4.15625 0zm7.4024963 6.046879l0 -15.140629l3.078125 0l0 12.562504l7.65625 0l0 2.578125l-10.734375 0zm18.474548 -15.265629l5.625 0q1.90625 0 2.90625 0.296875q1.34375 0.390625 2.296875 1.40625q0.96875 1.0 1.46875 2.46875q0.5 1.453125 0.5 3.609375q0 1.875 -0.46875 3.2500038q-0.578125 1.65625 -1.640625 2.6875q-0.796875 0.78125 -2.15625 1.21875q-1.03125 0.328125 -2.734375 0.328125l-5.796875 0l0 -15.265629zm3.078125 2.578125l0 10.109379l2.296875 0q1.296875 0 1.875 -0.140625q0.75 -0.1875 1.234375 -0.625q0.5 -0.453125 0.8125 -1.484375q0.3125 -1.0312538 0.3125 -2.7968788q0 -1.765625 -0.3125 -2.703125q-0.3125 -0.953125 -0.875 -1.484375q-0.5625 -0.53125 -1.421875 -0.71875q-0.65625 -0.15625 -2.53125 -0.15625l-1.390625 0zm12.230621 12.687504l0 -15.265629l3.09375 0l0 15.265629l-3.09375 0zm5.2381287 -4.96875l3.0 -0.2968788q0.28125 1.5156288 1.109375 2.2343788q0.828125 0.703125 2.234375 0.703125q1.484375 0 2.234375 -0.625q0.765625 -0.640625 0.765625 -1.484375q0 -0.546875 -0.328125 -0.9218788q-0.3125 -0.375 -1.109375 -0.65625q-0.53125 -0.1875 -2.46875 -0.671875q-2.46875 -0.609375 -3.46875 -1.515625q-1.40625 -1.25 -1.40625 -3.0625q0 -1.171875 0.65625 -2.1875q0.65625 -1.015625 1.90625 -1.546875q1.25 -0.53125 3.0 -0.53125q2.875 0 4.328125 1.265625q1.453125 1.265625 1.53125 3.359375l-3.078125 0.140625q-0.203125 -1.171875 -0.859375 -1.6875q-0.640625 -0.515625 -1.953125 -0.515625q-1.34375 0 -2.09375 0.546875q-0.5 0.359375 -0.5 0.953125q0 0.53125 0.46875 0.921875q0.578125 0.484375 2.828125 1.015625q2.25 0.53125 3.328125 1.109375q1.078125 0.5625 1.6875 1.546875q0.609375 0.984375 0.609375 2.4218788q0 1.3125 -0.734375 2.46875q-0.734375 1.140625 -2.0625 1.703125q-1.328125 0.546875 -3.3125 0.546875q-2.90625 0 -4.453125 -1.328125q-1.546875 -1.34375 -1.859375 -3.90625zm15.053833 4.96875l0 -15.265629l3.078125 0l0 6.78125l6.234375 -6.78125l4.140625 0l-5.75 5.9375l6.0625 9.328129l-3.984375 0l-4.203125 -7.171879l-2.5 2.5625038l0 4.609375l-3.078125 0z" fill-rule="nonzero"/><path fill="#000000" fill-opacity="0.0" d="m239.4252 109.41135c-2.3897705 1.0751877 -11.60762 -2.4733047 -14.338593 6.451103c-2.7309723 8.924408 0.3425293 37.956017 -2.0472412 47.09536c-2.3897552 9.139343 -10.242783 6.4505463 -12.291336 7.7406616" fill-rule="evenodd"/><path stroke="#cc0000" stroke-width="1.0" stroke-linejoin="round" stroke-linecap="butt" d="m239.4252 109.41135c-2.3897705 1.0751877 -11.60762 -2.4733047 -14.338593 6.451103c-2.7309723 8.924408 0.3425293 37.956017 -2.0472412 47.09536c-2.3897552 9.139343 -10.242783 6.4505463 -12.291336 7.7406616" fill-rule="evenodd"/><path fill="#000000" fill-opacity="0.0" d="m239.4252 231.9856c-2.3897705 -1.0751953 -11.60762 2.473297 -14.338593 -6.451111c-2.7309723 -8.924408 0.3425293 -37.956024 -2.0472412 -47.095352c-2.3897552 -9.139343 -10.242783 -6.4505463 -12.291336 -7.7406616" fill-rule="evenodd"/><path stroke="#cc0000" stroke-width="1.0" stroke-linejoin="round" stroke-linecap="butt" d="m239.4252 231.9856c-2.3897705 -1.0751953 -11.60762 2.473297 -14.338593 -6.451111c-2.7309723 -8.924408 0.3425293 -37.956024 -2.0472412 -47.095352c-2.3897552 -9.139343 -10.242783 -6.4505463 -12.291336 -7.7406616" fill-rule="evenodd"/><path fill="#000000" fill-opacity="0.0" d="m169.9029 195.28084l0 -49.16536l35.842514 0l0 49.16536z" fill-rule="evenodd"/><path fill="#000000" d="m194.44789 176.84334l2.375 0l0 8.96875q-1.34375 -0.140625 -2.546875 -0.859375q-1.21875 -0.734375 -3.203125 -2.890625q-1.625 -1.734375 -2.1875 -2.125q-0.796875 -0.53125 -1.578125 -0.53125q-0.84375 0 -1.296875 0.46875q-0.46875 0.453125 -0.46875 1.265625q0 0.796875 0.484375 1.28125q0.46875 0.46875 1.59375 0.546875l-0.25 2.546875q-2.109375 -0.234375 -3.03125 -1.421875q-0.921875 -1.203125 -0.921875 -3.015625q0 -1.96875 1.0625 -3.09375q1.0625 -1.140625 2.65625 -1.140625q0.890625 0 1.71875 0.328125q0.8125 0.3125 1.703125 1.015625q0.59375 0.46875 1.703125 1.6875q1.109375 1.203125 1.484375 1.53125q0.359375 0.3125 0.703125 0.515625l0 -5.078125zm2.375 -0.93821716l-6.96875 -4.5625l-6.390625 4.140625l0 -3.15625l4.296875 -2.6875l-4.296875 -2.609375l0 -3.125l6.484375 4.140625l6.875 -4.5625l0 3.25l-4.625 2.96875l4.625 2.96875l0 3.234375z" fill-rule="nonzero"/><path fill="#000000" fill-opacity="0.0" d="m16.014435 481.84778l243.74805 0l0 35.84253l-243.74805 0z" fill-rule="evenodd"/><path fill="#000000" d="m108.667244 508.76776l0 -13.359375l5.6875 0q2.140625 0 3.109375 0.359375q0.96875 0.359375 1.546875 1.28125q0.578125 0.921875 0.578125 2.109375q0 1.5 -0.890625 2.484375q-0.875 0.96875 -2.625 1.234375q0.875 0.5 1.4375 1.125q0.578125 0.609375 1.53125 2.15625l1.640625 2.609375l-3.234375 0l-1.9375 -2.90625q-1.046875 -1.5625 -1.4375 -1.96875q-0.375 -0.40625 -0.8125 -0.546875q-0.421875 -0.15625 -1.34375 -0.15625l-0.546875 0l0 5.578125l-2.703125 0zm2.703125 -7.703125l2.0 0q1.9375 0 2.421875 -0.15625q0.484375 -0.171875 0.75 -0.578125q0.28125 -0.40625 0.28125 -1.0q0 -0.671875 -0.359375 -1.078125q-0.359375 -0.421875 -1.015625 -0.53125q-0.328125 -0.046875 -1.96875 -0.046875l-2.109375 0l0 3.390625zm22.816704 7.703125l-2.9375 0l-1.171875 -3.03125l-5.3281326 0l-1.109375 3.03125l-2.859375 0l5.203125 -13.359375l2.8437576 0l5.359375 13.359375zm-4.96875 -5.28125l-1.8437576 -4.953125l-1.796875 4.953125l3.6406326 0zm6.316696 5.28125l0 -13.359375l2.6875 0l0 13.359375l-2.6875 0zm5.245804 -13.359375l4.9375 0q1.65625 0 2.53125 0.265625q1.1875 0.34375 2.015625 1.234375q0.84375 0.875 1.28125 2.15625q0.4375 1.28125 0.4375 3.15625q0 1.640625 -0.40625 2.84375q-0.5 1.453125 -1.4375 2.359375q-0.703125 0.671875 -1.890625 1.0625q-0.890625 0.28125 -2.390625 0.28125l-5.078125 0l0 -13.359375zm2.703125 2.265625l0 8.84375l2.015625 0q1.125 0 1.625 -0.125q0.65625 -0.171875 1.078125 -0.5625q0.4375 -0.390625 0.703125 -1.28125q0.28125 -0.90625 0.28125 -2.453125q0 -1.546875 -0.28125 -2.375q-0.265625 -0.828125 -0.765625 -1.28125q-0.484375 -0.46875 -1.234375 -0.640625q-0.5625 -0.125 -2.21875 -0.125l-1.203125 0zm21.953125 11.09375l-2.5625 0l0 -9.640625q-1.40625 1.3125 -3.3125 1.9375l0 -2.328125q1.015625 -0.328125 2.1875 -1.234375q1.171875 -0.921875 1.609375 -2.140625l2.078125 0l0 13.40625z" fill-rule="nonzero"/><path fill="#000000" fill-opacity="0.0" d="m270.30795 448.94702c-2.2530212 3.107666 5.182678 15.094543 -13.517975 18.645905c-18.700684 3.551361 -79.535 -0.44540405 -98.686035 2.6622314c-19.151047 3.107666 -13.516815 13.319702 -16.220184 15.983673" fill-rule="evenodd"/><path stroke="#cc0000" stroke-width="1.0" stroke-linejoin="round" stroke-linecap="butt" d="m270.30795 448.94702c-2.2530212 3.107666 5.182678 15.094543 -13.517975 18.645905c-18.700684 3.551361 -79.535 -0.44540405 -98.686035 2.6622314c-19.151047 3.107666 -13.516815 13.319702 -16.220184 15.983673" fill-rule="evenodd"/><path fill="#000000" fill-opacity="0.0" d="m13.461405 448.94702c2.2529945 3.107666 -5.1826973 15.094543 13.517969 18.645905c18.700668 3.551361 79.535 -0.44540405 98.686035 2.6622314c19.151031 3.107666 13.516815 13.319702 16.220184 15.983673" fill-rule="evenodd"/><path stroke="#cc0000" stroke-width="1.0" stroke-linejoin="round" stroke-linecap="butt" d="m13.461405 448.94702c2.2529945 3.107666 -5.1826973 15.094543 13.517969 18.645905c18.700668 3.551361 79.535 -0.44540405 98.686035 2.6622314c19.151031 3.107666 13.516815 13.319702 16.220184 15.983673" fill-rule="evenodd"/><path fill="#990000" d="m520.83856 321.62598l0 0c0 -7.070984 5.7321777 -12.803131 12.803162 -12.803131l0 0c3.39563 0 6.6521606 1.348877 9.053223 3.749939c2.401062 2.401062 3.749939 5.657593 3.749939 9.053192l0 0c0 7.070984 -5.7321777 12.803162 -12.803162 12.803162l0 0c-7.070984 0 -12.803162 -5.7321777 -12.803162 -12.803162z" fill-rule="evenodd"/><path stroke="#000000" stroke-width="1.0" stroke-linejoin="round" stroke-linecap="butt" d="m520.83856 321.62598l0 0c0 -7.070984 5.7321777 -12.803131 12.803162 -12.803131l0 0c3.39563 0 6.6521606 1.348877 9.053223 3.749939c2.401062 2.401062 3.749939 5.657593 3.749939 9.053192l0 0c0 7.070984 -5.7321777 12.803162 -12.803162 12.803162l0 0c-7.070984 0 -12.803162 -5.7321777 -12.803162 -12.803162z" fill-rule="evenodd"/><path fill="#666666" d="m490.11548 378.76248l0 0c0 5.3901978 19.487946 9.759827 43.527588 9.759827c24.039612 0 43.527527 -4.369629 43.527527 -9.759827l0 58.55905c0 5.3901978 -19.487915 9.759827 -43.527527 9.759827c-24.039642 0 -43.527588 -4.369629 -43.527588 -9.759827z" fill-rule="evenodd"/><path fill="#a3a3a3" d="m490.11548 378.76248l0 0c0 -5.3902283 19.487946 -9.759857 43.527588 -9.759857c24.039612 0 43.527527 4.369629 43.527527 9.759857l0 0c0 5.3901978 -19.487915 9.759827 -43.527527 9.759827c-24.039642 0 -43.527588 -4.369629 -43.527588 -9.759827z" fill-rule="evenodd"/><path fill="#000000" fill-opacity="0.0" d="m577.1706 378.76248l0 0c0 5.3901978 -19.487915 9.759827 -43.527527 9.759827c-24.039642 0 -43.527588 -4.369629 -43.527588 -9.759827l0 0c0 -5.3902283 19.487946 -9.759857 43.527588 -9.759857c24.039612 0 43.527527 4.369629 43.527527 9.759857l0 58.55905c0 5.3901978 -19.487915 9.759827 -43.527527 9.759827c-24.039642 0 -43.527588 -4.369629 -43.527588 -9.759827l0 -58.55905" fill-rule="evenodd"/><path stroke="#000000" stroke-width="2.0" stroke-linejoin="round" stroke-linecap="butt" d="m577.1706 378.76248l0 0c0 5.3901978 -19.487915 9.759827 -43.527527 9.759827c-24.039642 0 -43.527588 -4.369629 -43.527588 -9.759827l0 0c0 -5.3902283 19.487946 -9.759857 43.527588 -9.759857c24.039612 0 43.527527 4.369629 43.527527 9.759857l0 58.55905c0 5.3901978 -19.487915 9.759827 -43.527527 9.759827c-24.039642 0 -43.527588 -4.369629 -43.527588 -9.759827l0 -58.55905" fill-rule="evenodd"/><path fill="#efefef" d="m507.50345 406.48254l4.9374695 0q1.65625 0 2.53125 0.265625q1.1875 0.34375 2.015625 1.234375q0.84375 0.875 1.28125 2.15625q0.4375 1.28125 0.4375 3.15625q0 1.640625 -0.40625 2.84375q-0.5 1.453125 -1.4375 2.359375q-0.703125 0.671875 -1.890625 1.0625q-0.890625 0.28125 -2.390625 0.28125l-5.0780945 0l0 -13.359375zm2.703125 2.265625l0 8.84375l2.0155945 0q1.125 0 1.625 -0.125q0.65625 -0.171875 1.078125 -0.5625q0.4375 -0.390625 0.703125 -1.28125q0.28125 -0.90625 0.28125 -2.453125q0 -1.546875 -0.28125 -2.375q-0.265625 -0.828125 -0.765625 -1.28125q-0.484375 -0.46875 -1.234375 -0.640625q-0.5625 -0.125 -2.2187195 -0.125l-1.203125 0zm10.769806 0.109375l0 -2.375l2.5625 0l0 2.375l-2.5625 0zm0 10.984375l0 -9.671875l2.5625 0l0 9.671875l-2.5625 0zm4.2770386 -2.765625l2.5625 -0.390625q0.171875 0.75 0.671875 1.140625q0.5 0.390625 1.40625 0.390625q0.984375 0 1.484375 -0.375q0.34375 -0.25 0.34375 -0.671875q0 -0.296875 -0.1875 -0.484375q-0.1875 -0.1875 -0.859375 -0.34375q-3.09375 -0.6875 -3.921875 -1.25q-1.140625 -0.78125 -1.140625 -2.171875q0 -1.265625 0.984375 -2.109375q1.0 -0.859375 3.078125 -0.859375q1.984375 0 2.953125 0.65625q0.96875 0.640625 1.328125 1.90625l-2.40625 0.4375q-0.15625 -0.5625 -0.59375 -0.859375q-0.421875 -0.296875 -1.234375 -0.296875q-1.0 0 -1.4375 0.28125q-0.296875 0.203125 -0.296875 0.515625q0 0.265625 0.25 0.46875q0.34375 0.25 2.390625 0.71875q2.046875 0.453125 2.859375 1.140625q0.796875 0.671875 0.796875 1.890625q0 1.34375 -1.109375 2.296875q-1.109375 0.953125 -3.28125 0.953125q-1.984375 0 -3.140625 -0.796875q-1.140625 -0.8125 -1.5 -2.1875zm11.188232 2.765625l0 -13.359375l2.5625 0l0 7.09375l3.0 -3.40625l3.140625 0l-3.296875 3.53125l3.53125 6.140625l-2.75 0l-2.4375 -4.34375l-1.1875 1.25l0 3.09375l-2.5625 0zm15.012146 -3.546875l2.46875 -0.296875q0.125 0.953125 0.640625 1.453125q0.53125 0.5 1.265625 0.5q0.78125 0 1.328125 -0.59375q0.546875 -0.609375 0.546875 -1.640625q0 -0.953125 -0.53125 -1.515625q-0.515625 -0.578125 -1.25 -0.578125q-0.5 0 -1.1875 0.203125l0.28125 -2.09375q1.046875 0.03125 1.59375 -0.4375q0.546875 -0.484375 0.546875 -1.28125q0 -0.671875 -0.40625 -1.078125q-0.390625 -0.40625 -1.0625 -0.40625q-0.65625 0 -1.125 0.46875q-0.453125 0.453125 -0.5625 1.328125l-2.359375 -0.40625q0.25 -1.203125 0.734375 -1.921875q0.5 -0.734375 1.390625 -1.140625q0.890625 -0.421875 2.0 -0.421875q1.875 0 3.015625 1.203125q0.9375 0.984375 0.9375 2.21875q0 1.765625 -1.921875 2.8125q1.15625 0.234375 1.84375 1.09375q0.6875 0.859375 0.6875 2.0625q0 1.765625 -1.296875 3.015625q-1.28125 1.234375 -3.1875 1.234375q-1.8125 0 -3.015625 -1.046875q-1.1875 -1.046875 -1.375 -2.734375z" fill-rule="nonzero"/><path fill="#000000" fill-opacity="0.0" d="m533.6417 334.42914l0 34.582672" fill-rule="evenodd"/><path stroke="#000000" stroke-width="2.0" stroke-linejoin="round" stroke-linecap="butt" d="m533.6417 334.42914l0 34.582672" fill-rule="evenodd"/><path fill="#000000" fill-opacity="0.0" d="m447.39502 321.62598l-47.84253 -0.4409485" fill-rule="evenodd"/><path stroke="#000000" stroke-width="2.0" stroke-linejoin="round" stroke-linecap="butt" d="m447.39502 321.62598l-47.84253 -0.4409485" fill-rule="evenodd"/><path fill="#990000" d="m283.91208 275.44226l0 0c0 -7.070984 5.732147 -12.803162 12.803131 -12.803162l0 0c3.39563 0 6.6521606 1.3489075 9.053192 3.7499695c2.401062 2.401062 3.7499695 5.657593 3.7499695 9.053192l0 0c0 7.070984 -5.7321777 12.803131 -12.803162 12.803131l0 0c-7.070984 0 -12.803131 -5.732147 -12.803131 -12.803131z" fill-rule="evenodd"/><path stroke="#000000" stroke-width="1.0" stroke-linejoin="round" stroke-linecap="butt" d="m283.91208 275.44226l0 0c0 -7.070984 5.732147 -12.803162 12.803131 -12.803162l0 0c3.39563 0 6.6521606 1.3489075 9.053192 3.7499695c2.401062 2.401062 3.7499695 5.657593 3.7499695 9.053192l0 0c0 7.070984 -5.7321777 12.803131 -12.803162 12.803131l0 0c-7.070984 0 -12.803131 -5.732147 -12.803131 -12.803131z" fill-rule="evenodd"/><path fill="#000000" fill-opacity="0.0" d="m309.51837 275.44226l150.67715 0l0 33.385834" fill-rule="evenodd"/><path stroke="#000000" stroke-width="2.0" stroke-linejoin="round" stroke-linecap="butt" d="m309.51837 275.44226l150.67715 0l0 33.385834" fill-rule="evenodd"/><path fill="#000000" fill-opacity="0.0" d="m296.71652 227.20207l0 35.43306" fill-rule="evenodd"/><path stroke="#000000" stroke-width="2.0" stroke-linejoin="round" stroke-linecap="butt" d="m296.71652 227.20207l0 35.43306" fill-rule="evenodd"/><path fill="#000000" fill-opacity="0.0" d="m341.6811 481.65616l243.74805 0l0 35.8425l-243.74805 0z" fill-rule="evenodd"/><path fill="#000000" d="m434.33392 508.57617l0 -13.359375l5.6875 0q2.140625 0 3.109375 0.359375q0.96875 0.359375 1.546875 1.28125q0.578125 0.921875 0.578125 2.109375q0 1.5 -0.890625 2.484375q-0.875 0.96875 -2.625 1.234375q0.875 0.5 1.4375 1.125q0.578125 0.609375 1.53125 2.15625l1.640625 2.609375l-3.234375 0l-1.9375 -2.90625q-1.046875 -1.5625 -1.4375 -1.96875q-0.375 -0.40625 -0.8125 -0.546875q-0.421875 -0.15625 -1.34375 -0.15625l-0.546875 0l0 5.578125l-2.703125 0zm2.703125 -7.703125l2.0 0q1.9375 0 2.421875 -0.15625q0.484375 -0.171875 0.75 -0.578125q0.28125 -0.40625 0.28125 -1.0q0 -0.671875 -0.359375 -1.078125q-0.359375 -0.421875 -1.015625 -0.53125q-0.328125 -0.046875 -1.96875 -0.046875l-2.109375 0l0 3.390625zm22.81668 7.703125l-2.9375 0l-1.171875 -3.03125l-5.328125 0l-1.109375 3.03125l-2.859375 0l5.203125 -13.359375l2.84375 0l5.359375 13.359375zm-4.96875 -5.28125l-1.84375 -4.953125l-1.796875 4.953125l3.640625 0zm6.3167114 5.28125l0 -13.359375l2.6875 0l0 13.359375l-2.6875 0zm5.2457886 -13.359375l4.9375 0q1.65625 0 2.53125 0.265625q1.1875 0.34375 2.015625 1.234375q0.84375 0.875 1.28125 2.15625q0.4375 1.28125 0.4375 3.15625q0 1.640625 -0.40625 2.84375q-0.5 1.453125 -1.4375 2.359375q-0.703125 0.671875 -1.890625 1.0625q-0.890625 0.28125 -2.390625 0.28125l-5.078125 0l0 -13.359375zm2.703125 2.265625l0 8.84375l2.015625 0q1.125 0 1.625 -0.125q0.65625 -0.171875 1.078125 -0.5625q0.4375 -0.390625 0.703125 -1.28125q0.28125 -0.90625 0.28125 -2.453125q0 -1.546875 -0.28125 -2.375q-0.265625 -0.828125 -0.765625 -1.28125q-0.484375 -0.46875 -1.234375 -0.640625q-0.5625 -0.125 -2.21875 -0.125l-1.203125 0zm21.953125 11.09375l-2.5625 0l0 -9.640625q-1.40625 1.3125 -3.3125 1.9375l0 -2.328125q1.015625 -0.328125 2.1875 -1.234375q1.171875 -0.921875 1.609375 -2.140625l2.078125 0l0 13.40625z" fill-rule="nonzero"/><path fill="#000000" fill-opacity="0.0" d="m582.28156 447.84204c-2.1217651 3.107666 4.8809204 15.094543 -12.730835 18.645905c-17.611755 3.551361 -74.90375 -0.44543457 -92.93964 2.6622314c-18.035858 3.1076355 -12.729736 13.319702 -15.275665 15.983643" fill-rule="evenodd"/><path stroke="#cc0000" stroke-width="1.0" stroke-linejoin="round" stroke-linecap="butt" d="m582.28156 447.84204c-2.1217651 3.107666 4.8809204 15.094543 -12.730835 18.645905c-17.611755 3.551361 -74.90375 -0.44543457 -92.93964 2.6622314c-18.035858 3.1076355 -12.729736 13.319702 -15.275665 15.983643" fill-rule="evenodd"/><path fill="#000000" fill-opacity="0.0" d="m340.39096 447.84204c2.1218262 3.107666 -4.8809204 15.094543 12.730835 18.645905c17.611755 3.551361 74.90375 -0.44543457 92.93964 2.6622314c18.035889 3.1076355 12.729736 13.319702 15.275696 15.983643" fill-rule="evenodd"/><path stroke="#cc0000" stroke-width="1.0" stroke-linejoin="round" stroke-linecap="butt" d="m340.39096 447.84204c2.1218262 3.107666 -4.8809204 15.094543 12.730835 18.645905c17.611755 3.551361 74.90375 -0.44543457 92.93964 2.6622314c18.035889 3.1076355 12.729736 13.319702 15.275696 15.983643" fill-rule="evenodd"/><path fill="#990000" d="m134.97507 321.1719l0 0c0 -7.070984 5.7321625 -12.803131 12.803146 -12.803131l0 0c3.3956146 0 6.6521454 1.348877 9.053192 3.749939c2.401062 2.401062 3.7499542 5.657593 3.7499542 9.053192l0 0c0 7.070984 -5.7321625 12.803162 -12.803146 12.803162l0 0c-7.070984 0 -12.803146 -5.7321777 -12.803146 -12.803162z" fill-rule="evenodd"/><path stroke="#000000" stroke-width="1.0" stroke-linejoin="round" stroke-linecap="butt" d="m134.97507 321.1719l0 0c0 -7.070984 5.7321625 -12.803131 12.803146 -12.803131l0 0c3.3956146 0 6.6521454 1.348877 9.053192 3.749939c2.401062 2.401062 3.7499542 5.657593 3.7499542 9.053192l0 0c0 7.070984 -5.7321625 12.803162 -12.803146 12.803162l0 0c-7.070984 0 -12.803146 -5.7321777 -12.803146 -12.803162z" fill-rule="evenodd"/><path fill="#000000" fill-opacity="0.0" d="m208.29002 321.62598l-47.716537 -0.4409485" fill-rule="evenodd"/><path stroke="#000000" stroke-width="2.0" stroke-linejoin="round" stroke-linecap="butt" d="m208.29002 321.62598l-47.716537 -0.4409485" fill-rule="evenodd"/><path fill="#990000" d="m447.39502 321.62598l0 0c0 -7.070984 5.732147 -12.803131 12.803131 -12.803131l0 0c3.39563 0 6.6521606 1.348877 9.053192 3.749939c2.401062 2.401062 3.7499695 5.657593 3.7499695 9.053192l0 0c0 7.070984 -5.7321777 12.803162 -12.803162 12.803162l0 0c-7.070984 0 -12.803131 -5.7321777 -12.803131 -12.803162z" fill-rule="evenodd"/><path stroke="#000000" stroke-width="1.0" stroke-linejoin="round" stroke-linecap="butt" d="m447.39502 321.62598l0 0c0 -7.070984 5.732147 -12.803131 12.803131 -12.803131l0 0c3.39563 0 6.6521606 1.348877 9.053192 3.749939c2.401062 2.401062 3.7499695 5.657593 3.7499695 9.053192l0 0c0 7.070984 -5.7321777 12.803162 -12.803162 12.803162l0 0c-7.070984 0 -12.803131 -5.7321777 -12.803131 -12.803162z" fill-rule="evenodd"/><path fill="#000000" fill-opacity="0.0" d="m520.83856 321.62598l-47.8425 0" fill-rule="evenodd"/><path stroke="#000000" stroke-width="2.0" stroke-linejoin="round" stroke-linecap="butt" d="m520.83856 321.62598l-47.8425 0" fill-rule="evenodd"/><path fill="#000000" fill-opacity="0.0" d="m182.11417 288.25198l243.74805 0l0 35.8425l-243.74805 0z" fill-rule="evenodd"/><path fill="#000000" d="m274.76697 315.17197l0 -13.359375l5.6875 0q2.140625 0 3.109375 0.359375q0.96875 0.359375 1.546875 1.28125q0.578125 0.921875 0.578125 2.109375q0 1.5 -0.890625 2.484375q-0.875 0.96875 -2.625 1.234375q0.875 0.5 1.4375 1.125q0.578125 0.609375 1.53125 2.15625l1.640625 2.609375l-3.234375 0l-1.9375 -2.90625q-1.046875 -1.5625 -1.4375 -1.96875q-0.375 -0.40625 -0.8125 -0.546875q-0.421875 -0.15625 -1.34375 -0.15625l-0.546875 0l0 5.578125l-2.703125 0zm2.703125 -7.703125l2.0 0q1.9375 0 2.421875 -0.15625q0.484375 -0.171875 0.75 -0.578125q0.28125 -0.40625 0.28125 -1.0q0 -0.671875 -0.359375 -1.078125q-0.359375 -0.421875 -1.015625 -0.53125q-0.328125 -0.046875 -1.96875 -0.046875l-2.109375 0l0 3.390625zm22.816711 7.703125l-2.9375 0l-1.171875 -3.03125l-5.328125 0l-1.109375 3.03125l-2.859375 0l5.203125 -13.359375l2.84375 0l5.359375 13.359375zm-4.96875 -5.28125l-1.84375 -4.953125l-1.796875 4.953125l3.640625 0zm6.316681 5.28125l0 -13.359375l2.6875 0l0 13.359375l-2.6875 0zm5.245819 -13.359375l4.9375 0q1.65625 0 2.53125 0.265625q1.1875 0.34375 2.015625 1.234375q0.84375 0.875 1.28125 2.15625q0.4375 1.28125 0.4375 3.15625q0 1.640625 -0.40625 2.84375q-0.5 1.453125 -1.4375 2.359375q-0.703125 0.671875 -1.890625 1.0625q-0.890625 0.28125 -2.390625 0.28125l-5.078125 0l0 -13.359375zm2.703125 2.265625l0 8.84375l2.015625 0q1.125 0 1.625 -0.125q0.65625 -0.171875 1.078125 -0.5625q0.4375 -0.390625 0.703125 -1.28125q0.28125 -0.90625 0.28125 -2.453125q0 -1.546875 -0.28125 -2.375q-0.265625 -0.828125 -0.765625 -1.28125q-0.484375 -0.46875 -1.234375 -0.640625q-0.5625 -0.125 -2.21875 -0.125l-1.203125 0zm19.734375 -2.3125q1.9375 0 3.03125 1.375q1.296875 1.640625 1.296875 5.4375q0 3.796875 -1.3125 5.453125q-1.078125 1.375 -3.015625 1.375q-1.953125 0 -3.15625 -1.5q-1.1875 -1.5 -1.1875 -5.34375q0 -3.78125 1.3125 -5.4375q1.078125 -1.359375 3.03125 -1.359375zm0 2.125q-0.46875 0 -0.84375 0.296875q-0.359375 0.296875 -0.5625 1.0625q-0.25 0.984375 -0.25 3.328125q0 2.359375 0.234375 3.234375q0.234375 0.875 0.59375 1.171875q0.359375 0.296875 0.828125 0.296875q0.453125 0 0.8125 -0.296875q0.375 -0.296875 0.578125 -1.0625q0.265625 -0.984375 0.265625 -3.34375q0 -2.34375 -0.25 -3.21875q-0.234375 -0.875 -0.59375 -1.171875q-0.359375 -0.296875 -0.8125 -0.296875z" fill-rule="nonzero"/></g></svg>