<svg version="1.1" viewBox="0.0 0.0 470.73753280839895 405.994750656168" fill="none" stroke="none" stroke-linecap="square" stroke-miterlimit="10" xmlns:xlink="http://www.w3.org/1999/xlink" xmlns="http://www.w3.org/2000/svg"><clipPath id="p.0"><path d="m0 0l470.73752 0l0 405.99475l-470.73752 0l0 -405.99475z" clip-rule="nonzero"/></clipPath><g clip-path="url(#p.0)"><path fill="#000000" fill-opacity="0.0" d="m0 0l470.73752 0l0 405.99475l-470.73752 0z" fill-rule="evenodd"/><path fill="#b45f06" d="m199.6273 135.90288l0 0c0 4.613968 19.487946 8.354324 43.527557 8.354324c24.039597 0 43.527542 -3.7403564 43.527542 -8.354324l0 50.125977c0 4.613968 -19.487946 8.35434 -43.527542 8.35434c-24.039612 0 -43.527557 -3.7403717 -43.527557 -8.35434z" fill-rule="evenodd"/><path fill="#d29f69" d="m199.6273 135.90288l0 0c0 -4.613968 19.487946 -8.354332 43.527557 -8.354332c24.039597 0 43.527542 3.740364 43.527542 8.354332l0 0c0 4.613968 -19.487946 8.354324 -43.527542 8.354324c-24.039612 0 -43.527557 -3.7403564 -43.527557 -8.354324z" fill-rule="evenodd"/><path fill="#000000" fill-opacity="0.0" d="m286.6824 135.90288l0 0c0 4.613968 -19.487946 8.354324 -43.527542 8.354324c-24.039612 0 -43.527557 -3.7403564 -43.527557 -8.354324l0 0c0 -4.613968 19.487946 -8.354332 43.527557 -8.354332c24.039597 0 43.527542 3.740364 43.527542 8.354332l0 50.125977c0 4.613968 -19.487946 8.35434 -43.527542 8.35434c-24.039612 0 -43.527557 -3.7403717 -43.527557 -8.35434l0 -50.125977" fill-rule="evenodd"/><path stroke="#000000" stroke-width="2.0" stroke-linejoin="round" stroke-linecap="butt" d="m286.6824 135.90288l0 0c0 4.613968 -19.487946 8.354324 -43.527542 8.354324c-24.039612 0 -43.527557 -3.7403564 -43.527557 -8.354324l0 0c0 -4.613968 19.487946 -8.354332 43.527557 -8.354332c24.039597 0 43.527542 3.740364 43.527542 8.354332l0 50.125977c0 4.613968 -19.487946 8.35434 -43.527542 8.35434c-24.039612 0 -43.527557 -3.7403717 -43.527557 -8.35434l0 -50.125977" fill-rule="evenodd"/><path fill="#ffff00" d="m222.33722 172.06303l0 -13.359375l5.921875 0q1.78125 0 2.703125 0.359375q0.9375 0.359375 1.484375 1.28125q0.5625 0.90625 0.5625 2.015625q0 1.40625 -0.921875 2.390625q-0.921875 0.96875 -2.84375 1.234375q0.703125 0.34375 1.078125 0.671875q0.765625 0.703125 1.453125 1.765625l2.328125 3.640625l-2.21875 0l-1.765625 -2.78125q-0.78125 -1.203125 -1.28125 -1.828125q-0.5 -0.640625 -0.90625 -0.890625q-0.390625 -0.265625 -0.796875 -0.359375q-0.296875 -0.078125 -0.984375 -0.078125l-2.046875 0l0 5.9375l-1.765625 0zm1.765625 -7.453125l3.796875 0q1.21875 0 1.890625 -0.25q0.6875 -0.265625 1.046875 -0.8125q0.359375 -0.546875 0.359375 -1.1875q0 -0.953125 -0.6875 -1.5625q-0.6875 -0.609375 -2.1875 -0.609375l-4.21875 0l0 4.421875zm10.207321 7.453125l5.125 -13.359375l1.90625 0l5.46875 13.359375l-2.015625 0l-1.546875 -4.046875l-5.59375 0l-1.46875 4.046875l-1.875 0zm3.859375 -5.484375l4.53125 0l-1.40625 -3.703125q-0.625 -1.6875 -0.9375 -2.765625q-0.265625 1.28125 -0.71875 2.546875l-1.46875 3.921875zm10.349823 5.484375l0 -13.359375l1.765625 0l0 13.359375l-1.765625 0zm4.886429 0l0 -13.359375l4.609375 0q1.546875 0 2.375 0.203125q1.140625 0.25 1.953125 0.953125q1.0625 0.890625 1.578125 2.28125q0.53125 1.390625 0.53125 3.171875q0 1.515625 -0.359375 2.703125q-0.359375 1.171875 -0.921875 1.9375q-0.546875 0.765625 -1.203125 1.21875q-0.65625 0.4375 -1.59375 0.671875q-0.9375 0.21875 -2.140625 0.21875l-4.828125 0zm1.765625 -1.578125l2.859375 0q1.3125 0 2.0625 -0.234375q0.75 -0.25 1.203125 -0.703125q0.625 -0.625 0.96875 -1.6875q0.359375 -1.0625 0.359375 -2.578125q0 -2.09375 -0.6875 -3.21875q-0.6875 -1.125 -1.671875 -1.5q-0.703125 -0.28125 -2.28125 -0.28125l-2.8125 0l0 10.203125z" fill-rule="nonzero"/><path fill="#990000" d="m92.02231 240.18636l0 0c0 -7.070984 5.73217 -12.803146 12.803154 -12.803146l0 0c3.395607 0 6.6521378 1.3488922 9.053192 3.7499542c2.4010544 2.4010468 3.7499542 5.6575775 3.7499542 9.053192l0 0c0 7.070984 -5.7321625 12.803146 -12.803146 12.803146l0 0c-7.070984 0 -12.803154 -5.7321625 -12.803154 -12.803146z" fill-rule="evenodd"/><path stroke="#000000" stroke-width="1.0" stroke-linejoin="round" stroke-linecap="butt" d="m92.02231 240.18636l0 0c0 -7.070984 5.73217 -12.803146 12.803154 -12.803146l0 0c3.395607 0 6.6521378 1.3488922 9.053192 3.7499542c2.4010544 2.4010468 3.7499542 5.6575775 3.7499542 9.053192l0 0c0 7.070984 -5.7321625 12.803146 -12.803146 12.803146l0 0c-7.070984 0 -12.803154 -5.7321625 -12.803154 -12.803146z" fill-rule="evenodd"/><path fill="#990000" d="m229.32677 240.63911l0 0c0 -7.070984 5.7321625 -12.803162 12.803162 -12.803162l0 0c3.3955994 0 6.65213 1.3489075 9.053192 3.7499542c2.4010468 2.401062 3.7499542 5.657593 3.7499542 9.053207l0 0c0 7.070984 -5.7321625 12.803146 -12.803146 12.803146l0 0c-7.070999 0 -12.803162 -5.7321625 -12.803162 -12.803146z" fill-rule="evenodd"/><path stroke="#000000" stroke-width="1.0" stroke-linejoin="round" stroke-linecap="butt" d="m229.32677 240.63911l0 0c0 -7.070984 5.7321625 -12.803162 12.803162 -12.803162l0 0c3.3955994 0 6.65213 1.3489075 9.053192 3.7499542c2.4010468 2.401062 3.7499542 5.657593 3.7499542 9.053207l0 0c0 7.070984 -5.7321625 12.803146 -12.803146 12.803146l0 0c-7.070999 0 -12.803162 -5.7321625 -12.803162 -12.803146z" fill-rule="evenodd"/><path fill="#000000" fill-opacity="0.0" d="m104.82546 252.9895l0 48.15747" fill-rule="evenodd"/><path stroke="#000000" stroke-width="2.0" stroke-linejoin="round" stroke-linecap="butt" d="m104.82546 252.9895l0 48.15747" fill-rule="evenodd"/><path fill="#000000" fill-opacity="0.0" d="m243.1693 190.54462l-1.0393677 37.291336" fill-rule="evenodd"/><path stroke="#000000" stroke-width="2.0" stroke-linejoin="round" stroke-linecap="butt" d="m243.1693 190.54462l-1.0393677 37.291336" fill-rule="evenodd"/><path fill="#000000" fill-opacity="0.0" d="m117.62861 240.18636l111.685036 0.4409485" fill-rule="evenodd"/><path stroke="#000000" stroke-width="2.0" stroke-linejoin="round" stroke-linecap="butt" d="m117.62861 240.18636l111.685036 0.4409485" fill-rule="evenodd"/><path fill="#000000" fill-opacity="0.0" d="m120.25722 21.73491l243.74803 0l0 82.20473l-243.74803 0z" fill-rule="evenodd"/><path fill="#cc0000" d="m208.7335 51.21491l0 -15.265625l6.484375 0q2.453125 0 3.5625 0.421875q1.109375 0.40625 1.765625 1.453125q0.671875 1.046875 0.671875 2.40625q0 1.71875 -1.015625 2.84375q-1.0 1.109375 -3.015625 1.40625q1.0 0.578125 1.640625 1.28125q0.65625 0.6875 1.765625 2.46875l1.859375 2.984375l-3.6875 0l-2.21875 -3.328125q-1.1875 -1.78125 -1.625 -2.234375q-0.4375 -0.46875 -0.9375 -0.640625q-0.484375 -0.171875 -1.546875 -0.171875l-0.625 0l0 6.375l-3.078125 0zm3.078125 -8.8125l2.28125 0q2.21875 0 2.765625 -0.1875q0.5625 -0.1875 0.875 -0.640625q0.3125 -0.46875 0.3125 -1.140625q0 -0.78125 -0.421875 -1.25q-0.40625 -0.46875 -1.15625 -0.59375q-0.375 -0.0625 -2.25 -0.0625l-2.40625 0l0 3.875zm26.074371 8.8125l-3.34375 0l-1.328125 -3.46875l-6.109375 0l-1.265625 3.46875l-3.265625 0l5.953125 -15.265625l3.25 0l6.109375 15.265625zm-5.671875 -6.046875l-2.09375 -5.65625l-2.0625 5.65625l4.15625 0zm7.2149963 6.046875l0 -15.265625l3.09375 0l0 15.265625l-3.09375 0zm6.019394 -15.265625l5.6249847 0q1.90625 0 2.90625 0.296875q1.34375 0.390625 2.2968903 1.40625q0.96875 1.0 1.46875 2.46875q0.5 1.453125 0.5 3.609375q0 1.875 -0.46875 3.25q-0.578125 1.65625 -1.640625 2.6875q-0.79689026 0.78125 -2.1562653 1.21875q-1.03125 0.328125 -2.734375 0.328125l-5.7968597 0l0 -15.265625zm3.0781097 2.578125l0 10.109375l2.296875 0q1.296875 0 1.875 -0.140625q0.75 -0.1875 1.234375 -0.625q0.5 -0.453125 0.8125 -1.484375q0.3125 -1.03125 0.3125 -2.796875q0 -1.765625 -0.3125 -2.703125q-0.3125 -0.953125 -0.875 -1.484375q-0.5625 -0.53125 -1.421875 -0.71875q-0.65625 -0.15625 -2.53125 -0.15625l-1.390625 0zm25.093796 12.6875l-2.921875 0l0 -11.03125q-1.609375 1.5 -3.78125 2.21875l0 -2.65625q1.140625 -0.375 2.484375 -1.421875q1.34375 -1.046875 1.84375 -2.4375l2.375 0l0 15.328125z" fill-rule="nonzero"/><path fill="#cc0000" d="m210.0104 81.69928l-2.015625 0q-1.59375 -2.40625 -2.4375 -5.0q-0.828125 -2.59375 -0.828125 -5.015625q0 -3.015625 1.03125 -5.6875q0.90625 -2.3437462 2.28125 -4.312496l2.0 0q-1.4375 3.1562462 -1.96875 5.374996q-0.53125 2.203125 -0.53125 4.6875q0 1.703125 0.3125 3.5q0.3125 1.796875 0.875 3.40625q0.359375 1.0625 1.28125 3.046875zm2.0243073 -15.546875l2.703125 0l0 1.515625q1.4375 -1.765625 3.4375 -1.765625q1.0625 0 1.84375 0.4375q0.78125 0.4375 1.28125 1.328125q0.734375 -0.890625 1.578125 -1.328125q0.84375 -0.4375 1.796875 -0.4375q1.21875 0 2.0625 0.5q0.84375 0.484375 1.265625 1.453125q0.296875 0.703125 0.296875 2.28125l0 7.078125l-2.921875 0l0 -6.328125q0 -1.640625 -0.3125 -2.125q-0.40625 -0.625 -1.25 -0.625q-0.609375 0 -1.15625 0.375q-0.53125 0.375 -0.78125 1.109375q-0.234375 0.71875 -0.234375 2.28125l0 5.3125l-2.921875 0l0 -6.0625q0 -1.609375 -0.15625 -2.078125q-0.15625 -0.46875 -0.484375 -0.703125q-0.328125 -0.234375 -0.890625 -0.234375q-0.671875 0 -1.21875 0.375q-0.546875 0.359375 -0.78125 1.046875q-0.234375 0.6875 -0.234375 2.28125l0 5.375l-2.921875 0l0 -11.0625zm19.182877 -1.5l0 -2.7031212l2.921875 0l0 2.7031212l-2.921875 0zm0 12.5625l0 -11.0625l2.921875 0l0 11.0625l-2.921875 0zm8.722519 0l-2.921875 0l0 -11.0625l2.71875 0l0 1.578125q0.703125 -1.125 1.25 -1.46875q0.5625 -0.359375 1.265625 -0.359375q1.0 0 1.9375 0.5625l-0.90625 2.546875q-0.75 -0.484375 -1.375 -0.484375q-0.625 0 -1.046875 0.34375q-0.421875 0.328125 -0.671875 1.21875q-0.25 0.890625 -0.25 3.703125l0 3.421875zm8.300064 0l-2.921875 0l0 -11.0625l2.71875 0l0 1.578125q0.703125 -1.125 1.25 -1.46875q0.5625 -0.359375 1.265625 -0.359375q1.0 0 1.9375 0.5625l-0.90625 2.546875q-0.75 -0.484375 -1.375 -0.484375q-0.625 0 -1.046875 0.34375q-0.421875 0.328125 -0.671875 1.21875q-0.25 0.890625 -0.25 3.703125l0 3.421875zm4.831314 -5.6875q0 -1.453125 0.71875 -2.8125q0.71875 -1.375 2.03125 -2.09375q1.3125153 -0.71875 2.9375153 -0.71875q2.515625 0 4.109375 1.640625q1.609375 1.625 1.609375 4.109375q0 2.515625 -1.625 4.171875q-1.609375 1.640625 -4.0625 1.640625q-1.53125 0 -2.9062653 -0.6875q-1.375 -0.6875 -2.09375 -2.015625q-0.71875 -1.328125 -0.71875 -3.234375zm3.0000153 0.15625q0 1.640625 0.78125 2.515625q0.78125 0.875 1.921875 0.875q1.140625 0 1.921875 -0.875q0.78125 -0.875 0.78125 -2.53125q0 -1.625 -0.78125 -2.5q-0.78125 -0.875 -1.921875 -0.875q-1.140625 0 -1.921875 0.875q-0.78125 0.875 -0.78125 2.515625zm13.496826 5.53125l-2.921875 0l0 -11.0625l2.71875 0l0 1.578125q0.703125 -1.125 1.25 -1.46875q0.5625 -0.359375 1.265625 -0.359375q1.0 0 1.9375 0.5625l-0.90625 2.546875q-0.75 -0.484375 -1.375 -0.484375q-0.625 0 -1.046875 0.34375q-0.421875 0.328125 -0.671875 1.21875q-0.25 0.890625 -0.25 3.703125l0 3.421875zm4.690674 4.484375q0.859375 -1.84375 1.21875 -2.84375q0.359375 -0.984375 0.65625 -2.265625q0.296875 -1.296875 0.4375 -2.453125q0.15625 -1.171875 0.15625 -2.390625q0 -2.484375 -0.53125 -4.6875q-0.53125 -2.21875 -1.953125 -5.374996l1.984375 0q1.578125 2.25 2.4375 4.765621q0.875 2.5 0.875 5.078125q0 2.171875 -0.6875 4.671875q-0.78125 2.78125 -2.578125 5.5l-2.015625 0z" fill-rule="nonzero"/><path fill="#000000" fill-opacity="0.0" d="m182.12599 130.96606c-2.3897705 0.5559387 -11.60762 -1.2788696 -14.338593 3.3356323c-2.7309723 4.614517 0.3425293 19.625778 -2.0472412 24.351425c-2.3897705 4.725647 -10.242783 3.3353577 -12.291336 4.0024414" fill-rule="evenodd"/><path stroke="#cc0000" stroke-width="1.0" stroke-linejoin="round" stroke-linecap="butt" d="m182.12599 130.96606c-2.3897705 0.5559387 -11.60762 -1.2788696 -14.338593 3.3356323c-2.7309723 4.614517 0.3425293 19.625778 -2.0472412 24.351425c-2.3897705 4.725647 -10.242783 3.3353577 -12.291336 4.0024414" fill-rule="evenodd"/><path fill="#000000" fill-opacity="0.0" d="m182.12599 194.34506c-2.3897705 -0.555954 -11.60762 1.2788544 -14.338593 -3.3356476c-2.7309723 -4.614517 0.3425293 -19.625778 -2.0472412 -24.351425c-2.3897705 -4.725647 -10.242783 -3.3353577 -12.291336 -4.002426" fill-rule="evenodd"/><path stroke="#cc0000" stroke-width="1.0" stroke-linejoin="round" stroke-linecap="butt" d="m182.12599 194.34506c-2.3897705 -0.555954 -11.60762 1.2788544 -14.338593 -3.3356476c-2.7309723 -4.614517 0.3425293 -19.625778 -2.0472412 -24.351425c-2.3897705 -4.725647 -10.242783 -3.3353577 -12.291336 -4.002426" fill-rule="evenodd"/><path fill="#000000" fill-opacity="0.0" d="m112.51181 198.4462l0 -74.96063l35.842514 0l0 74.96063z" fill-rule="evenodd"/><path fill="#000000" d="m139.43181 165.03177l0 2.5625l-9.640625 0q1.3125 1.40625 1.9375 3.3125l-2.328125 0q-0.328125 -1.015625 -1.234375 -2.1875q-0.921875 -1.171875 -2.140625 -1.609375l0 -2.078125l13.40625 0zm0 -3.0319672l-6.96875 -4.5625l-6.390625 4.140625l0 -3.15625l4.296875 -2.6875l-4.296875 -2.609375l0 -3.125l6.484375 4.140625l6.875 -4.5625l0 3.25l-4.625 2.96875l4.625 2.96875l0 3.234375z" fill-rule="nonzero"/><path fill="#434343" d="m325.4672 309.5013l0 0c0 4.613983 19.487946 8.35434 43.527557 8.35434c24.039612 0 43.527557 -3.7403564 43.527557 -8.35434l0 50.125977c0 4.613983 -19.487946 8.35434 -43.527557 8.35434c-24.039612 0 -43.527557 -3.7403564 -43.527557 -8.35434z" fill-rule="evenodd"/><path fill="#8e8e8e" d="m325.4672 309.5013l0 0c0 -4.613983 19.487946 -8.35434 43.527557 -8.35434c24.039612 0 43.527557 3.7403564 43.527557 8.35434l0 0c0 4.613983 -19.487946 8.35434 -43.527557 8.35434c-24.039612 0 -43.527557 -3.7403564 -43.527557 -8.35434z" fill-rule="evenodd"/><path fill="#000000" fill-opacity="0.0" d="m412.5223 309.5013l0 0c0 4.613983 -19.487946 8.35434 -43.527557 8.35434c-24.039612 0 -43.527557 -3.7403564 -43.527557 -8.35434l0 0c0 -4.613983 19.487946 -8.35434 43.527557 -8.35434c24.039612 0 43.527557 3.7403564 43.527557 8.35434l0 50.125977c0 4.613983 -19.487946 8.35434 -43.527557 8.35434c-24.039612 0 -43.527557 -3.7403564 -43.527557 -8.35434l0 -50.125977" fill-rule="evenodd"/><path stroke="#000000" stroke-width="2.0" stroke-linejoin="round" stroke-linecap="butt" d="m412.5223 309.5013l0 0c0 4.613983 -19.487946 8.35434 -43.527557 8.35434c-24.039612 0 -43.527557 -3.7403564 -43.527557 -8.35434l0 0c0 -4.613983 19.487946 -8.35434 43.527557 -8.35434c24.039612 0 43.527557 3.7403564 43.527557 8.35434l0 50.125977c0 4.613983 -19.487946 8.35434 -43.527557 8.35434c-24.039612 0 -43.527557 -3.7403564 -43.527557 -8.35434l0 -50.125977" fill-rule="evenodd"/><path fill="#ffff00" d="m344.51572 345.66147l0 -13.359375l4.609375 0q1.546875 0 2.375 0.203125q1.140625 0.25 1.953125 0.953125q1.0625 0.890625 1.578125 2.28125q0.53125 1.390625 0.53125 3.171875q0 1.515625 -0.359375 2.703125q-0.359375 1.171875 -0.921875 1.9375q-0.546875 0.765625 -1.203125 1.21875q-0.65625 0.4375 -1.59375 0.671875q-0.9375 0.21875 -2.140625 0.21875l-4.828125 0zm1.765625 -1.578125l2.859375 0q1.3125 0 2.0625 -0.234375q0.75 -0.25 1.203125 -0.703125q0.625 -0.625 0.96875 -1.6875q0.359375 -1.0625 0.359375 -2.578125q0 -2.09375 -0.6875 -3.21875q-0.6875 -1.125 -1.671875 -1.5q-0.703125 -0.28125 -2.28125 -0.28125l-2.8125 0l0 10.203125zm11.504211 -9.890625l0 -1.890625l1.640625 0l0 1.890625l-1.640625 0zm0 11.46875l0 -9.671875l1.640625 0l0 9.671875l-1.640625 0zm3.488556 -2.890625l1.625 -0.25q0.125 0.96875 0.75 1.5q0.625 0.515625 1.75 0.515625q1.125 0 1.671875 -0.453125q0.546875 -0.46875 0.546875 -1.09375q0 -0.546875 -0.484375 -0.875q-0.328125 -0.21875 -1.671875 -0.546875q-1.8125 -0.46875 -2.515625 -0.796875q-0.6875 -0.328125 -1.046875 -0.90625q-0.359375 -0.59375 -0.359375 -1.3125q0 -0.640625 0.296875 -1.1875q0.296875 -0.5625 0.8125 -0.921875q0.375 -0.28125 1.03125 -0.46875q0.671875 -0.203125 1.421875 -0.203125q1.140625 0 2.0 0.328125q0.859375 0.328125 1.265625 0.890625q0.421875 0.5625 0.578125 1.5l-1.609375 0.21875q-0.109375 -0.75 -0.640625 -1.171875q-0.515625 -0.421875 -1.46875 -0.421875q-1.140625 0 -1.625 0.375q-0.46875 0.375 -0.46875 0.875q0 0.3125 0.1875 0.578125q0.203125 0.265625 0.640625 0.4375q0.234375 0.09375 1.4375 0.421875q1.75 0.453125 2.4375 0.75q0.6875 0.296875 1.078125 0.859375q0.390625 0.5625 0.390625 1.40625q0 0.828125 -0.484375 1.546875q-0.46875 0.71875 -1.375 1.125q-0.90625 0.390625 -2.046875 0.390625q-1.875 0 -2.875 -0.78125q-0.984375 -0.78125 -1.25 -2.328125zm9.984375 2.890625l0 -13.359375l1.640625 0l0 7.625l3.890625 -3.9375l2.109375 0l-3.6875 3.59375l4.0625 6.078125l-2.015625 0l-3.203125 -4.953125l-1.15625 1.125l0 3.828125l-1.640625 0zm22.667694 -1.578125l0 1.578125l-8.828125 0q-0.015625 -0.59375 0.1875 -1.140625q0.34375 -0.90625 1.078125 -1.78125q0.75 -0.875 2.15625 -2.015625q2.171875 -1.78125 2.9375 -2.828125q0.765625 -1.046875 0.765625 -1.96875q0 -0.984375 -0.703125 -1.640625q-0.6875 -0.671875 -1.8125 -0.671875q-1.1875 0 -1.90625 0.71875q-0.703125 0.703125 -0.703125 1.953125l-1.6875 -0.171875q0.171875 -1.890625 1.296875 -2.875q1.140625 -0.984375 3.03125 -0.984375q1.921875 0 3.046875 1.0625q1.125 1.0625 1.125 2.640625q0 0.796875 -0.328125 1.578125q-0.328125 0.78125 -1.09375 1.640625q-0.75 0.84375 -2.53125 2.34375q-1.46875 1.234375 -1.890625 1.6875q-0.421875 0.4375 -0.6875 0.875l6.546875 0z" fill-rule="nonzero"/><path fill="#434343" d="m61.299213 309.51443l0 0c0 4.613983 19.48795 8.35434 43.52756 8.35434c24.039604 0 43.52755 -3.7403564 43.52755 -8.35434l0 50.126007c0 4.6139526 -19.487946 8.354309 -43.52755 8.354309c-24.039612 0 -43.52756 -3.7403564 -43.52756 -8.354309z" fill-rule="evenodd"/><path fill="#8e8e8e" d="m61.299213 309.51443l0 0c0 -4.6139526 19.48795 -8.354309 43.52756 -8.354309c24.039604 0 43.52755 3.7403564 43.52755 8.354309l0 0c0 4.613983 -19.487946 8.35434 -43.52755 8.35434c-24.039612 0 -43.52756 -3.7403564 -43.52756 -8.35434z" fill-rule="evenodd"/><path fill="#000000" fill-opacity="0.0" d="m148.35432 309.51443l0 0c0 4.613983 -19.487946 8.35434 -43.52755 8.35434c-24.039612 0 -43.52756 -3.7403564 -43.52756 -8.35434l0 0c0 -4.6139526 19.48795 -8.354309 43.52756 -8.354309c24.039604 0 43.52755 3.7403564 43.52755 8.354309l0 50.126007c0 4.6139526 -19.487946 8.354309 -43.52755 8.354309c-24.039612 0 -43.52756 -3.7403564 -43.52756 -8.354309l0 -50.126007" fill-rule="evenodd"/><path stroke="#000000" stroke-width="2.0" stroke-linejoin="round" stroke-linecap="butt" d="m148.35432 309.51443l0 0c0 4.613983 -19.487946 8.35434 -43.52755 8.35434c-24.039612 0 -43.52756 -3.7403564 -43.52756 -8.35434l0 0c0 -4.6139526 19.48795 -8.354309 43.52756 -8.354309c24.039604 0 43.52755 3.7403564 43.52755 8.354309l0 50.126007c0 4.6139526 -19.487946 8.354309 -43.52755 8.354309c-24.039612 0 -43.52756 -3.7403564 -43.52756 -8.354309l0 -50.126007" fill-rule="evenodd"/><path fill="#ffff00" d="m80.34775 345.6746l0 -13.359375l4.609375 0q1.546875 0 2.375 0.203125q1.140625 0.25 1.953125 0.953125q1.0625 0.890625 1.578125 2.28125q0.53125 1.390625 0.53125 3.171875q0 1.515625 -0.359375 2.703125q-0.359375 1.171875 -0.921875 1.9375q-0.546875 0.765625 -1.203125 1.21875q-0.65625 0.4375 -1.59375 0.671875q-0.9375 0.21875 -2.140625 0.21875l-4.828125 0zm1.765625 -1.578125l2.859375 0q1.3125 0 2.0625 -0.234375q0.75 -0.25 1.203125 -0.703125q0.625 -0.625 0.96875 -1.6875q0.359375 -1.0625 0.359375 -2.578125q0 -2.09375 -0.6875 -3.21875q-0.6875 -1.125 -1.671875 -1.5q-0.703125 -0.28125 -2.28125 -0.28125l-2.8125 0l0 10.203125zm11.504196 -9.890625l0 -1.890625l1.640625 0l0 1.890625l-1.640625 0zm0 11.46875l0 -9.671875l1.640625 0l0 9.671875l-1.640625 0zm3.4885712 -2.890625l1.625 -0.25q0.125 0.96875 0.75 1.5q0.625 0.515625 1.75 0.515625q1.125 0 1.671875 -0.453125q0.546875 -0.46875 0.546875 -1.09375q0 -0.546875 -0.484375 -0.875q-0.328125 -0.21875 -1.671875 -0.546875q-1.8125 -0.46875 -2.515625 -0.796875q-0.6875 -0.328125 -1.046875 -0.90625q-0.359375 -0.59375 -0.359375 -1.3125q0 -0.640625 0.296875 -1.1875q0.296875 -0.5625 0.8125 -0.921875q0.375 -0.28125 1.03125 -0.46875q0.671875 -0.203125 1.421875 -0.203125q1.140625 0 2.0 0.328125q0.859375 0.328125 1.265625 0.890625q0.421875 0.5625 0.578125 1.5l-1.609375 0.21875q-0.109375 -0.75 -0.640625 -1.171875q-0.515625 -0.421875 -1.46875 -0.421875q-1.140625 0 -1.625 0.375q-0.46875 0.375 -0.46875 0.875q0 0.3125 0.1875 0.578125q0.203125 0.265625 0.640625 0.4375q0.234375 0.09375 1.4375 0.421875q1.75 0.453125 2.4375 0.75q0.6875 0.296875 1.078125 0.859375q0.390625 0.5625 0.390625 1.40625q0 0.828125 -0.484375 1.546875q-0.46875 0.71875 -1.375 1.125q-0.90625 0.390625 -2.046875 0.390625q-1.875 0 -2.875 -0.78125q-0.984375 -0.78125 -1.25 -2.328125zm9.984375 2.890625l0 -13.359375l1.640625 0l0 7.625l3.890625 -3.9375l2.109375 0l-3.6875 3.59375l4.0625 6.078125l-2.015625 0l-3.203125 -4.953125l-1.15625 1.125l0 3.828125l-1.640625 0zm20.230179 0l-1.640625 0l0 -10.453125q-0.59375 0.5625 -1.5625 1.140625q-0.953125 0.5625 -1.71875 0.84375l0 -1.59375q1.375 -0.640625 2.40625 -1.5625q1.03125 -0.921875 1.453125 -1.78125l1.0625 0l0 13.40625z" fill-rule="nonzero"/><path fill="#990000" d="m356.19028 240.64043l0 0c0 -7.070984 5.7321777 -12.803162 12.803162 -12.803162l0 0c3.3955994 0 6.65213 1.3489075 9.053192 3.7499542c2.401062 2.401062 3.7499695 5.657593 3.7499695 9.053207l0 0c0 7.070984 -5.7321777 12.803146 -12.803162 12.803146l0 0c-7.070984 0 -12.803162 -5.7321625 -12.803162 -12.803146z" fill-rule="evenodd"/><path stroke="#000000" stroke-width="1.0" stroke-linejoin="round" stroke-linecap="butt" d="m356.19028 240.64043l0 0c0 -7.070984 5.7321777 -12.803162 12.803162 -12.803162l0 0c3.3955994 0 6.65213 1.3489075 9.053192 3.7499542c2.401062 2.401062 3.7499695 5.657593 3.7499695 9.053207l0 0c0 7.070984 -5.7321777 12.803146 -12.803162 12.803146l0 0c-7.070984 0 -12.803162 -5.7321625 -12.803162 -12.803146z" fill-rule="evenodd"/><path fill="#000000" fill-opacity="0.0" d="m254.93307 240.63911l101.25983 0" fill-rule="evenodd"/><path stroke="#000000" stroke-width="2.0" stroke-linejoin="round" stroke-linecap="butt" d="m254.93307 240.63911l101.25983 0" fill-rule="evenodd"/><path fill="#000000" fill-opacity="0.0" d="m368.99344 253.44357l0 47.716522" fill-rule="evenodd"/><path stroke="#000000" stroke-width="2.0" stroke-linejoin="round" stroke-linecap="butt" d="m368.99344 253.44357l0 47.716522" fill-rule="evenodd"/></g></svg>