<svg version="1.1" viewBox="0.0 0.0 516.6115485564304 315.4278215223097" fill="none" stroke="none" stroke-linecap="square" stroke-miterlimit="10" xmlns:xlink="http://www.w3.org/1999/xlink" xmlns="http://www.w3.org/2000/svg"><clipPath id="p.0"><path d="m0 0l516.6116 0l0 315.42783l-516.6116 0l0 -315.42783z" clip-rule="nonzero"/></clipPath><g clip-path="url(#p.0)"><path fill="#000000" fill-opacity="0.0" d="m0 0l516.6116 0l0 315.42783l-516.6116 0z" fill-rule="evenodd"/><path fill="#000000" fill-opacity="0.0" d="m71.874016 14.501312l96.59843 0l0 40.09449l-96.59843 0z" fill-rule="evenodd"/><path fill="#000000" d="m91.842766 36.73381l1.765625 0.453125q-0.5625 2.171875 -2.0 3.328125q-1.4375 1.140625 -3.53125 1.140625q-2.15625 0 -3.515625 -0.875q-1.34375 -0.890625 -2.0625 -2.546875q-0.703125 -1.671875 -0.703125 -3.59375q0 -2.078125 0.796875 -3.625q0.796875 -1.5625 2.265625 -2.359375q1.484375 -0.8125 3.25 -0.8125q2.0 0 3.359375 1.015625q1.375 1.015625 1.90625 2.875l-1.734375 0.40625q-0.46875 -1.453125 -1.359375 -2.109375q-0.875 -0.671875 -2.203125 -0.671875q-1.546875 0 -2.578125 0.734375q-1.03125 0.734375 -1.453125 1.984375q-0.421875 1.234375 -0.421875 2.5625q0 1.703125 0.5 2.96875q0.5 1.265625 1.546875 1.90625q1.046875 0.625 2.265625 0.625q1.484375 0 2.515625 -0.859375q1.03125 -0.859375 1.390625 -2.546875zm17.546875 -3.171875l-8.828125 0l0 -1.515625l8.828125 0l0 1.515625zm0 4.0625l-8.828125 0l0 -1.53125l8.828125 0l0 1.53125zm5.1576843 3.796875l5.125 -13.359375l1.90625 0l5.46875 13.359375l-2.015625 0l-1.546875 -4.046875l-5.59375 0l-1.46875 4.046875l-1.875 0zm3.859375 -5.484375l4.53125 0l-1.40625 -3.703125q-0.625 -1.6875 -0.9375 -2.765625q-0.265625 1.28125 -0.71875 2.546875l-1.46875 3.921875zm13.362541 1.46875l0 -1.640625l5.03125 0l0 1.640625l-5.03125 0zm12.161606 4.015625l0 -13.359375l5.015625 0q1.53125 0 2.453125 0.40625q0.921875 0.40625 1.4375 1.25q0.53125 0.84375 0.53125 1.765625q0 0.859375 -0.46875 1.625q-0.453125 0.75 -1.390625 1.203125q1.203125 0.359375 1.859375 1.21875q0.65625 0.859375 0.65625 2.015625q0 0.9375 -0.40625 1.75q-0.390625 0.796875 -0.984375 1.234375q-0.578125 0.4375 -1.453125 0.671875q-0.875 0.21875 -2.15625 0.21875l-5.09375 0zm1.78125 -7.75l2.875 0q1.1875 0 1.6875 -0.140625q0.671875 -0.203125 1.015625 -0.671875q0.34375 -0.46875 0.34375 -1.171875q0 -0.65625 -0.328125 -1.15625q-0.3125 -0.515625 -0.90625 -0.703125q-0.59375 -0.1875 -2.03125 -0.1875l-2.65625 0l0 4.03125zm0 6.171875l3.3125 0q0.859375 0 1.203125 -0.0625q0.609375 -0.109375 1.015625 -0.359375q0.421875 -0.265625 0.6875 -0.75q0.265625 -0.484375 0.265625 -1.125q0 -0.75 -0.390625 -1.296875q-0.375 -0.546875 -1.0625 -0.765625q-0.671875 -0.234375 -1.953125 -0.234375l-3.078125 0l0 4.59375z" fill-rule="nonzero"/><path fill="#ffffff" d="m281.39108 170.77693l0 0c0 -60.78611 49.276886 -110.06299 110.06299 -110.06299l0 0c29.190521 0 57.185455 11.595886 77.826294 32.236702c20.640808 20.640816 32.236694 48.635765 32.236694 77.82629l0 0c0 60.786118 -49.276886 110.063 -110.06299 110.063l0 0c-60.786102 0 -110.06299 -49.276886 -110.06299 -110.063z" fill-rule="evenodd"/><path stroke="#000000" stroke-width="2.0" stroke-linejoin="round" stroke-linecap="butt" d="m281.39108 170.77693l0 0c0 -60.78611 49.276886 -110.06299 110.06299 -110.06299l0 0c29.190521 0 57.185455 11.595886 77.826294 32.236702c20.640808 20.640816 32.236694 48.635765 32.236694 77.82629l0 0c0 60.786118 -49.276886 110.063 -110.06299 110.063l0 0c-60.786102 0 -110.06299 -49.276886 -110.06299 -110.063z" fill-rule="evenodd"/><path fill="#6fa8dc" d="m318.40158 164.0853l10.023621 -40.094482l26.724396 0l10.023621 40.094482z" fill-rule="evenodd"/><path stroke="#000000" stroke-width="1.0" stroke-linejoin="round" stroke-linecap="butt" d="m318.40158 164.0853l10.023621 -40.094482l26.724396 0l10.023621 40.094482z" fill-rule="evenodd"/><path fill="#cc0000" d="m374.34384 194.19554l0 0c0 -12.915634 10.470184 -23.385834 23.385803 -23.385834l0 0c6.2023315 0 12.150604 2.4638672 16.536285 6.8495483c4.3857117 4.3856964 6.8495483 10.333969 6.8495483 16.536285l0 0c0 12.915634 -10.470184 23.385818 -23.385834 23.385818l0 0c-12.915619 0 -23.385803 -10.470184 -23.385803 -23.385818zm36.254913 6.9295044c3.0601196 -5.68309 2.030182 -12.700577 -2.5339355 -17.264679c-4.564087 -4.564102 -11.5815735 -5.594055 -17.264679 -2.5339203zm-25.73819 -13.859024l0 0c-3.0601196 5.6831055 -2.030182 12.700592 2.5339355 17.264694c4.564087 4.564087 11.5815735 5.59404 17.264679 2.533905z" fill-rule="evenodd"/><path stroke="#000000" stroke-width="1.0" stroke-linejoin="round" stroke-linecap="butt" d="m374.34384 194.19554l0 0c0 -12.915634 10.470184 -23.385834 23.385803 -23.385834l0 0c6.2023315 0 12.150604 2.4638672 16.536285 6.8495483c4.3857117 4.3856964 6.8495483 10.333969 6.8495483 16.536285l0 0c0 12.915634 -10.470184 23.385818 -23.385834 23.385818l0 0c-12.915619 0 -23.385803 -10.470184 -23.385803 -23.385818zm36.254913 6.9295044c3.0601196 -5.68309 2.030182 -12.700577 -2.5339355 -17.264679c-4.564087 -4.564102 -11.5815735 -5.594055 -17.264679 -2.5339203zm-25.73819 -13.859024l0 0c-3.0601196 5.6831055 -2.030182 12.700592 2.5339355 17.264694c4.564087 4.564087 11.5815735 5.59404 17.264679 2.533905z" fill-rule="evenodd"/><path fill="#d9d9d9" d="m464.50656 172.43307l0 0c-15.690094 0 -28.409454 -12.712296 -28.409454 -28.393707c0 -15.681412 12.71936 -28.3937 28.409454 -28.3937l0 0c-8.942078 6.7028427 -14.204712 17.222298 -14.204712 28.3937c0 11.171402 5.2626343 21.690857 14.204712 28.393707z" fill-rule="evenodd"/><path stroke="#000000" stroke-width="1.0" stroke-linejoin="round" stroke-linecap="butt" d="m464.50656 172.43307l0 0c-15.690094 0 -28.409454 -12.712296 -28.409454 -28.393707c0 -15.681412 12.71936 -28.3937 28.409454 -28.3937l0 0c-8.942078 6.7028427 -14.204712 17.222298 -14.204712 28.3937c0 11.171402 5.2626343 21.690857 14.204712 28.393707z" fill-rule="evenodd"/><path fill="#000000" fill-opacity="0.0" d="m330.08136 14.501312l106.01575 0l0 40.09449l-106.01575 0z" fill-rule="evenodd"/><path fill="#000000" d="m340.51886 41.42131l0 -13.359375l4.609375 0q1.546875 0 2.375 0.203125q1.140625 0.25 1.953125 0.953125q1.0625 0.890625 1.578125 2.28125q0.53125 1.390625 0.53125 3.171875q0 1.515625 -0.359375 2.703125q-0.359375 1.171875 -0.921875 1.9375q-0.546875 0.765625 -1.203125 1.21875q-0.65625 0.4375 -1.59375 0.671875q-0.9375 0.21875 -2.140625 0.21875l-4.828125 0zm1.765625 -1.578125l2.859375 0q1.3125 0 2.0625 -0.234375q0.75 -0.25 1.203125 -0.703125q0.625 -0.625 0.96875 -1.6875q0.359375 -1.0625 0.359375 -2.578125q0 -2.09375 -0.6875 -3.21875q-0.6875 -1.125 -1.671875 -1.5q-0.703125 -0.28125 -2.28125 -0.28125l-2.8125 0l0 10.203125zm25.3125 -6.28125l-8.828125 0l0 -1.515625l8.828125 0l0 1.515625zm0 4.0625l-8.828125 0l0 -1.53125l8.828125 0l0 1.53125zm7.5782776 3.796875l0 -13.359375l5.015625 0q1.53125 0 2.453125 0.40625q0.921875 0.40625 1.4375 1.25q0.53125 0.84375 0.53125 1.765625q0 0.859375 -0.46875 1.625q-0.453125 0.75 -1.390625 1.203125q1.203125 0.359375 1.859375 1.21875q0.65625 0.859375 0.65625 2.015625q0 0.9375 -0.40625 1.75q-0.390625 0.796875 -0.984375 1.234375q-0.578125 0.4375 -1.453125 0.671875q-0.875 0.21875 -2.15625 0.21875l-5.09375 0zm1.78125 -7.75l2.875 0q1.1875 0 1.6875 -0.140625q0.671875 -0.203125 1.015625 -0.671875q0.34375 -0.46875 0.34375 -1.171875q0 -0.65625 -0.328125 -1.15625q-0.3125 -0.515625 -0.90625 -0.703125q-0.59375 -0.1875 -2.03125 -0.1875l-2.65625 0l0 4.03125zm0 6.171875l3.3125 0q0.859375 0 1.203125 -0.0625q0.609375 -0.109375 1.015625 -0.359375q0.421875 -0.265625 0.6875 -0.75q0.265625 -0.484375 0.265625 -1.125q0 -0.75 -0.390625 -1.296875q-0.375 -0.546875 -1.0625 -0.765625q-0.671875 -0.234375 -1.953125 -0.234375l-3.078125 0l0 4.59375zm15.079987 -2.4375l0 -1.640625l5.03125 0l0 1.640625l-5.03125 0zm9.741028 4.015625l5.125 -13.359375l1.90625 0l5.46875 13.359375l-2.015625 0l-1.546875 -4.046875l-5.59375 0l-1.46875 4.046875l-1.875 0zm3.859375 -5.484375l4.53125 0l-1.40625 -3.703125q-0.625 -1.6875 -0.9375 -2.765625q-0.265625 1.28125 -0.71875 2.546875l-1.46875 3.921875z" fill-rule="nonzero"/><path fill="#ffffff" d="m24.272966 170.29921l0 0c0 -60.78611 49.27688 -110.06299 110.06299 -110.06299l0 0c29.190521 0 57.185486 11.595886 77.826294 32.236702c20.640808 20.640816 32.23671 48.635765 32.23671 77.82629l0 0c0 60.786118 -49.276886 110.063 -110.063 110.063l0 0c-60.78611 0 -110.06299 -49.276886 -110.06299 -110.063z" fill-rule="evenodd"/><path stroke="#000000" stroke-width="2.0" stroke-linejoin="round" stroke-linecap="butt" d="m24.272966 170.29921l0 0c0 -60.78611 49.27688 -110.06299 110.06299 -110.06299l0 0c29.190521 0 57.185486 11.595886 77.826294 32.236702c20.640808 20.640816 32.23671 48.635765 32.23671 77.82629l0 0c0 60.786118 -49.276886 110.063 -110.063 110.063l0 0c-60.78611 0 -110.06299 -49.276886 -110.06299 -110.063z" fill-rule="evenodd"/><path fill="#1155cc" d="m153.78477 209.12862l11.692917 0l0 -11.692917l23.385818 0l0 11.692917l11.692917 0l0 23.385818l-11.692917 0l0 11.692917l-23.385818 0l0 -11.692917l-11.692917 0z" fill-rule="evenodd"/><path stroke="#000000" stroke-width="1.0" stroke-linejoin="round" stroke-linecap="butt" d="m153.78477 209.12862l11.692917 0l0 -11.692917l23.385818 0l0 11.692917l11.692917 0l0 23.385818l-11.692917 0l0 11.692917l-23.385818 0l0 -11.692917l-11.692917 0z" fill-rule="evenodd"/><path fill="#bf9000" d="m71.874016 190.70998l17.543304 0l0 22.551178l17.543312 0l0 17.543304l-35.086617 0z" fill-rule="evenodd"/><path stroke="#000000" stroke-width="1.0" stroke-linejoin="round" stroke-linecap="butt" d="m71.874016 190.70998l17.543304 0l0 22.551178l17.543312 0l0 17.543304l-35.086617 0z" fill-rule="evenodd"/><path fill="#f1c232" d="m106.96063 122.65223l-9.437157 3.356079l0 -6.7121506zm-6.851181 -16.536812l-4.298752 9.047058l-4.7461395 -4.7461395zm-16.534645 -6.8490143l3.3560715 9.437157l-6.7121506 0zm-16.536812 6.8490143l9.047058 4.3009186l-4.746147 4.7461395zm-6.849018 16.536812l9.437153 -3.3560715l0 6.7121506zm6.849018 16.534645l4.300911 -9.044891l4.746147 4.7461395zm16.536812 6.851181l-3.356079 -9.437149l6.7121506 0zm16.534645 -6.851181l-9.044891 -4.298752l4.7461395 -4.7461395zm-28.227562 -16.534645l0 0c0 -6.457817 5.2351 -11.692909 11.692917 -11.692909c6.457817 0 11.692909 5.235092 11.692909 11.692909c0 6.457817 -5.235092 11.692909 -11.692909 11.692909c-6.457817 0 -11.692917 -5.235092 -11.692917 -11.692909z" fill-rule="evenodd"/><path stroke="#000000" stroke-width="1.0" stroke-linejoin="round" stroke-linecap="butt" d="m106.96063 122.65223l-9.437157 3.356079l0 -6.7121506zm-6.851181 -16.536812l-4.298752 9.047058l-4.7461395 -4.7461395zm-16.534645 -6.8490143l3.3560715 9.437157l-6.7121506 0zm-16.536812 6.8490143l9.047058 4.3009186l-4.746147 4.7461395zm-6.849018 16.536812l9.437153 -3.3560715l0 6.7121506zm6.849018 16.534645l4.300911 -9.044891l4.746147 4.7461395zm16.536812 6.851181l-3.356079 -9.437149l6.7121506 0zm16.534645 -6.851181l-9.044891 -4.298752l4.7461395 -4.7461395zm-28.227562 -16.534645l0 0c0 -6.457817 5.2351 -11.692909 11.692917 -11.692909c6.457817 0 11.692909 5.235092 11.692909 11.692909c0 6.457817 -5.235092 11.692909 -11.692909 11.692909c-6.457817 0 -11.692917 -5.235092 -11.692917 -11.692909z" fill-rule="evenodd"/><path fill="#cc0000" d="m119.01706 164.54593l23.385834 -35.968506l23.385818 35.968506z" fill-rule="evenodd"/><path stroke="#000000" stroke-width="1.0" stroke-linejoin="round" stroke-linecap="butt" d="m119.01706 164.54593l23.385834 -35.968506l23.385818 35.968506z" fill-rule="evenodd"/></g></svg>