<svg version="1.1" viewBox="0.0 0.0 326.31758530183725 234.88451443569554" fill="none" stroke="none" stroke-linecap="square" stroke-miterlimit="10" xmlns:xlink="http://www.w3.org/1999/xlink" xmlns="http://www.w3.org/2000/svg"><clipPath id="p.0"><path d="m0 0l326.3176 0l0 234.88452l-326.3176 0l0 -234.88452z" clip-rule="nonzero"/></clipPath><g clip-path="url(#p.0)"><path fill="#000000" fill-opacity="0.0" d="m0 0l326.3176 0l0 234.88452l-326.3176 0z" fill-rule="evenodd"/><path fill="#cccccc" d="m116.10499 119.6612l0 0c0 -48.99244 39.716225 -88.708664 88.70866 -88.708664l0 0c23.527008 0 46.090393 9.3460655 62.726486 25.982166c16.636108 16.6361 25.982178 39.199493 25.982178 62.726494l0 0c0 48.99244 -39.716217 88.70866 -88.708664 88.70866l0 0c-48.99243 0 -88.70866 -39.716217 -88.70866 -88.70866z" fill-rule="evenodd"/><path stroke="#000000" stroke-width="2.0" stroke-linejoin="round" stroke-linecap="butt" d="m116.10499 119.6612l0 0c0 -48.99244 39.716225 -88.708664 88.70866 -88.708664l0 0c23.527008 0 46.090393 9.3460655 62.726486 25.982166c16.636108 16.6361 25.982178 39.199493 25.982178 62.726494l0 0c0 48.99244 -39.716217 88.70866 -88.708664 88.70866l0 0c-48.99243 0 -88.70866 -39.716217 -88.70866 -88.70866z" fill-rule="evenodd"/><path fill="#6aa84f" d="m190.55118 161.49738l23.385834 -23.385834l23.385818 23.385834l-23.385818 23.385834z" fill-rule="evenodd"/><path stroke="#000000" stroke-width="1.0" stroke-linejoin="round" stroke-linecap="butt" d="m190.55118 161.49738l23.385834 -23.385834l23.385818 23.385834l-23.385818 23.385834z" fill-rule="evenodd"/><path fill="#cfe2f3" d="m148.00066 105.72993l0 0c-0.3771057 -2.9021149 0.86102295 -5.775032 3.1889954 -7.399666c2.3279724 -1.6246338 5.3375397 -1.7160568 7.751602 -0.23548126l0 0c0.85513306 -1.6874084 2.4202728 -2.8524475 4.2220154 -3.1427155c1.8017273 -0.29026794 3.6284332 0.32832336 4.9275513 1.6686707l0 0c0.72846985 -1.5299072 2.1588287 -2.5578156 3.7835083 -2.7189636c1.6246796 -0.16114044 3.213745 0.56728363 4.2033234 1.9267883l0 0c1.3160858 -1.6217041 3.4100037 -2.304512 5.375702 -1.7529602c1.9656982 0.5515442 3.4501343 2.238388 3.8109741 4.3306046l0 0c1.6124268 0.4605713 2.955536 1.6314011 3.6823273 3.2099915c0.7267761 1.5785904 0.76594543 3.4100723 0.1073761 5.021263l0 0c1.5877533 2.1640015 1.9591827 5.0475082 0.975647 7.5744476c-0.98353577 2.5269394 -3.1742554 4.317665 -5.7546387 4.703911c-0.018188477 2.3716278 -1.2602386 4.547798 -3.2474213 5.689728c-1.9871826 1.1419296 -4.4091797 1.0713043 -6.3324585 -0.18466187c-0.81921387 2.8404236 -3.1250305 4.9303894 -5.9212494 5.3669434c-2.7962189 0.43655396 -5.5815735 -0.8585663 -7.152664 -3.3258133c-1.9258423 1.2161102 -4.236679 1.5664291 -6.411255 0.9719467c-2.1745758 -0.5944977 -4.029709 -2.083725 -5.1468964 -4.1317596l0 0c-1.9679718 0.24116516 -3.8707275 -0.826561 -4.7639313 -2.6732635c-0.89320374 -1.8467026 -0.58673096 -4.079262 0.767334 -5.589676l0 0c-1.7554779 -1.0819855 -2.6512299 -3.2289963 -2.2201538 -5.3214645c0.43107605 -2.0924606 2.0912933 -3.6562119 4.114914 -3.8758163z" fill-rule="evenodd"/><path fill="#000000" fill-opacity="0.0" d="m146.067 115.039055l0 0c0.8284149 0.5105896 1.7854156 0.7422104 2.7425385 0.6637497m1.2536163 7.599373c0.41159058 -0.050437927 0.81503296 -0.15724182 1.1999207 -0.31767273m10.357651 3.4773483c-0.2894745 -0.45461273 -0.53186035 -0.9404068 -0.72299194 -1.4490967m13.797409 -0.5921173l0 0c0.14935303 -0.51784515 0.24612427 -1.050827 0.2886963 -1.5900497m9.2908325 -3.9148102c0.019363403 -2.5249557 -1.3501282 -4.836838 -3.5202332 -5.9426117m8.299164 -6.3354797c-0.35144043 0.8597946 -0.8879547 1.6225052 -1.5674744 2.2283325m-2.2218933 -10.459816l0 0c0.059890747 0.34720612 0.08760071 0.69963074 0.08276367 1.052391m-9.269272 -3.6299286l0 0c-0.3283081 0.4045334 -0.59877014 0.8565979 -0.80300903 1.3421097m-7.183899 -0.55010986l0 0c-0.17495728 0.36743164 -0.30560303 0.75624084 -0.38893127 1.1574707m-8.760773 0.31659698l0 0c0.5108032 0.31329346 0.9833832 0.69036865 1.4073334 1.1229477m-12.347794 6.512245l0 0c0.051971436 0.39998627 0.13409424 0.7950363 0.24560547 1.1814651" fill-rule="evenodd"/><path stroke="#000000" stroke-width="1.0" stroke-linejoin="round" stroke-linecap="butt" d="m148.00066 105.72993l0 0c-0.3771057 -2.9021149 0.86102295 -5.775032 3.1889954 -7.399666c2.3279724 -1.6246338 5.3375397 -1.7160568 7.751602 -0.23548126l0 0c0.85513306 -1.6874084 2.4202728 -2.8524475 4.2220154 -3.1427155c1.8017273 -0.29026794 3.6284332 0.32832336 4.9275513 1.6686707l0 0c0.72846985 -1.5299072 2.1588287 -2.5578156 3.7835083 -2.7189636c1.6246796 -0.16114044 3.213745 0.56728363 4.2033234 1.9267883l0 0c1.3160858 -1.6217041 3.4100037 -2.304512 5.375702 -1.7529602c1.9656982 0.5515442 3.4501343 2.238388 3.8109741 4.3306046l0 0c1.6124268 0.4605713 2.955536 1.6314011 3.6823273 3.2099915c0.7267761 1.5785904 0.76594543 3.4100723 0.1073761 5.021263l0 0c1.5877533 2.1640015 1.9591827 5.0475082 0.975647 7.5744476c-0.98353577 2.5269394 -3.1742554 4.317665 -5.7546387 4.703911c-0.018188477 2.3716278 -1.2602386 4.547798 -3.2474213 5.689728c-1.9871826 1.1419296 -4.4091797 1.0713043 -6.3324585 -0.18466187c-0.81921387 2.8404236 -3.1250305 4.9303894 -5.9212494 5.3669434c-2.7962189 0.43655396 -5.5815735 -0.8585663 -7.152664 -3.3258133c-1.9258423 1.2161102 -4.236679 1.5664291 -6.411255 0.9719467c-2.1745758 -0.5944977 -4.029709 -2.083725 -5.1468964 -4.1317596l0 0c-1.9679718 0.24116516 -3.8707275 -0.826561 -4.7639313 -2.6732635c-0.89320374 -1.8467026 -0.58673096 -4.079262 0.767334 -5.589676l0 0c-1.7554779 -1.0819855 -2.6512299 -3.2289963 -2.2201538 -5.3214645c0.43107605 -2.0924606 2.0912933 -3.6562119 4.114914 -3.8758163z" fill-rule="evenodd"/><path stroke="#000000" stroke-width="1.0" stroke-linejoin="round" stroke-linecap="butt" d="m146.067 115.039055l0 0c0.8284149 0.5105896 1.7854156 0.7422104 2.7425385 0.6637497m1.2536163 7.599373c0.41159058 -0.050437927 0.81503296 -0.15724182 1.1999207 -0.31767273m10.357651 3.4773483c-0.2894745 -0.45461273 -0.53186035 -0.9404068 -0.72299194 -1.4490967m13.797409 -0.5921173l0 0c0.14935303 -0.51784515 0.24612427 -1.050827 0.2886963 -1.5900497m9.2908325 -3.9148102c0.019363403 -2.5249557 -1.3501282 -4.836838 -3.5202332 -5.9426117m8.299164 -6.3354797c-0.35144043 0.8597946 -0.8879547 1.6225052 -1.5674744 2.2283325m-2.2218933 -10.459816l0 0c0.059890747 0.34720612 0.08760071 0.69963074 0.08276367 1.052391m-9.269272 -3.6299286l0 0c-0.3283081 0.4045334 -0.59877014 0.8565979 -0.80300903 1.3421097m-7.183899 -0.55010986l0 0c-0.17495728 0.36743164 -0.30560303 0.75624084 -0.38893127 1.1574707m-8.760773 0.31659698l0 0c0.5108032 0.31329346 0.9833832 0.69036865 1.4073334 1.1229477m-12.347794 6.512245l0 0c0.051971436 0.39998627 0.13409424 0.7950363 0.24560547 1.1814651" fill-rule="evenodd"/><path fill="#000000" fill-opacity="0.0" d="m5.2388453 92.56431l110.86614 0l0 40.09449l-110.86614 0z" fill-rule="evenodd"/><path fill="#000000" d="m15.707595 119.48431l0 -13.359375l5.921876 0q1.78125 0 2.703125 0.359375q0.9375 0.359375 1.484375 1.28125q0.5625 0.90625 0.5625 2.015625q0 1.40625 -0.921875 2.390625q-0.921875 0.96875 -2.84375 1.234375q0.703125 0.34375 1.078125 0.671875q0.765625 0.703125 1.453125 1.765625l2.328125 3.640625l-2.21875 0l-1.765625 -2.78125q-0.78125 -1.203125 -1.28125 -1.828125q-0.5 -0.640625 -0.90625 -0.890625q-0.390625 -0.265625 -0.796875 -0.359375q-0.296875 -0.078125 -0.984375 -0.078125l-2.046875 0l0 5.9375l-1.765626 0zm1.765626 -7.453125l3.796875 0q1.21875 0 1.890625 -0.25q0.6875 -0.265625 1.046875 -0.8125q0.359375 -0.546875 0.359375 -1.1875q0 -0.953125 -0.6875 -1.5625q-0.6875 -0.609375 -2.1875 -0.609375l-4.21875 0l0 4.421875zm25.28125 -0.40625l-8.828125 0l0 -1.515625l8.828125 0l0 1.515625zm0 4.0625l-8.828125 0l0 -1.53125l8.828125 0l0 1.53125zm5.1576843 3.796875l5.125 -13.359375l1.90625 0l5.46875 13.359375l-2.015625 0l-1.546875 -4.046875l-5.59375 0l-1.46875 4.046875l-1.875 0zm3.859375 -5.484375l4.53125 0l-1.40625 -3.703125q-0.625 -1.6875 -0.9375 -2.765625q-0.265625 1.28125 -0.71875 2.546875l-1.46875 3.921875z" fill-rule="nonzero"/><path fill="#212529" d="m63.058853 119.48431l-1.234375 0l0 -5.65625q0 -2.375 0.0625 -3.0q0.109375 -1.140625 0.421875 -1.875q0.3125 -0.75 0.984375 -1.453125q0.6875 -0.71875 1.671875 -1.15625q1.0 -0.453125 2.140625 -0.453125q1.078125 0 2.046875 0.421875q0.984375 0.421875 1.71875 1.15625q0.734375 0.734375 1.046875 1.5625q0.3125 0.8125 0.40625 2.03125q0.046875 0.484375 0.046875 2.765625l0 5.65625l-1.21875 0l0 -5.71875q0 -2.0625 -0.0625 -2.640625q-0.09375 -1.046875 -0.34375 -1.65625q-0.234375 -0.609375 -0.734375 -1.140625q-0.5 -0.546875 -1.296875 -0.890625q-0.78125 -0.34375 -1.625 -0.34375q-0.84375 0 -1.65625 0.359375q-0.8125 0.359375 -1.34375 0.96875q-0.53125 0.59375 -0.734375 1.296875q-0.203125 0.703125 -0.265625 1.65625q-0.03125 0.5 -0.03125 2.390625l0 5.71875zm12.09668 0l0 -13.359375l5.015625 0q1.53125 0 2.453125 0.40625q0.921875 0.40625 1.4375 1.25q0.53125 0.84375 0.53125 1.765625q0 0.859375 -0.46875 1.625q-0.453125 0.75 -1.390625 1.203125q1.203125 0.359375 1.859375 1.21875q0.65625 0.859375 0.65625 2.015625q0 0.9375 -0.40625 1.75q-0.390625 0.796875 -0.984375 1.234375q-0.578125 0.4375 -1.453125 0.671875q-0.875 0.21875 -2.15625 0.21875l-5.09375 0zm1.78125 -7.75l2.875 0q1.1875 0 1.6875 -0.140625q0.671875 -0.203125 1.015625 -0.671875q0.34375 -0.46875 0.34375 -1.171875q0 -0.65625 -0.328125 -1.15625q-0.3125 -0.515625 -0.90625 -0.703125q-0.59375 -0.1875 -2.03125 -0.1875l-2.65625 0l0 4.03125zm0 6.171875l3.3125 0q0.859375 0 1.203125 -0.0625q0.609375 -0.109375 1.015625 -0.359375q0.421875 -0.265625 0.6875 -0.75q0.265625 -0.484375 0.265625 -1.125q0 -0.75 -0.390625 -1.296875q-0.375 -0.546875 -1.0625 -0.765625q-0.671875 -0.234375 -1.953125 -0.234375l-3.078125 0l0 4.59375zm24.345627 -6.28125l-8.828125 0l0 -1.515625l8.828125 0l0 1.515625zm0 4.0625l-8.828125 0l0 -1.53125l8.828125 0l0 1.53125z" fill-rule="nonzero"/><path fill="#ea9999" d="m243.9672 80.92913c8.353012 -23.388447 40.92978 0 0 30.07087c-40.929794 -30.07087 -8.353027 -53.459316 0 -30.07087z" fill-rule="evenodd"/><path stroke="#000000" stroke-width="1.0" stroke-linejoin="round" stroke-linecap="butt" d="m243.9672 80.92913c8.353012 -23.388447 40.92978 0 0 30.07087c-40.929794 -30.07087 -8.353027 -53.459316 0 -30.07087z" fill-rule="evenodd"/></g></svg>