<svg version="1.1" viewBox="0.0 0.0 384.4146981627297 293.0209973753281" fill="none" stroke="none" stroke-linecap="square" stroke-miterlimit="10" xmlns:xlink="http://www.w3.org/1999/xlink" xmlns="http://www.w3.org/2000/svg"><clipPath id="p.0"><path d="m0 0l384.4147 0l0 293.021l-384.4147 0l0 -293.021z" clip-rule="nonzero"/></clipPath><g clip-path="url(#p.0)"><path fill="#000000" fill-opacity="0.0" d="m0 0l384.4147 0l0 293.021l-384.4147 0z" fill-rule="evenodd"/><path fill="#cccccc" d="m121.02362 154.38345l0 0c0 -69.57049 56.398026 -125.968506 125.968506 -125.968506l0 0c33.408936 0 65.44949 13.271645 89.07318 36.89532c23.623688 23.62368 36.895325 55.66426 36.895325 89.07319l0 0c0 69.57048 -56.39801 125.968506 -125.968506 125.968506l0 0c-69.57048 0 -125.968506 -56.398026 -125.968506 -125.968506z" fill-rule="evenodd"/><path stroke="#000000" stroke-width="2.0" stroke-linejoin="round" stroke-linecap="butt" d="m121.02362 154.38345l0 0c0 -69.57049 56.398026 -125.968506 125.968506 -125.968506l0 0c33.408936 0 65.44949 13.271645 89.07318 36.89532c23.623688 23.62368 36.895325 55.66426 36.895325 89.07319l0 0c0 69.57048 -56.39801 125.968506 -125.968506 125.968506l0 0c-69.57048 0 -125.968506 -56.398026 -125.968506 -125.968506z" fill-rule="evenodd"/><path fill="#1155cc" d="m143.38846 137.5853l11.692902 0l0 -11.692909l23.385834 0l0 11.692909l11.692917 0l0 23.385834l-11.692917 0l0 11.692917l-23.385834 0l0 -11.692917l-11.692902 0z" fill-rule="evenodd"/><path stroke="#000000" stroke-width="1.0" stroke-linejoin="round" stroke-linecap="butt" d="m143.38846 137.5853l11.692902 0l0 -11.692909l23.385834 0l0 11.692909l11.692917 0l0 23.385834l-11.692917 0l0 11.692917l-23.385834 0l0 -11.692917l-11.692902 0z" fill-rule="evenodd"/><path fill="#bf9000" d="m175.7559 204.11154l17.543304 0l0 22.551193l17.543304 0l0 17.543304l-35.08661 0z" fill-rule="evenodd"/><path stroke="#000000" stroke-width="1.0" stroke-linejoin="round" stroke-linecap="butt" d="m175.7559 204.11154l17.543304 0l0 22.551193l17.543304 0l0 17.543304l-35.08661 0z" fill-rule="evenodd"/><path fill="#6aa84f" d="m256.3622 241.24803l23.385803 -23.385834l23.385834 23.385834l-23.385834 23.385818z" fill-rule="evenodd"/><path stroke="#000000" stroke-width="1.0" stroke-linejoin="round" stroke-linecap="butt" d="m256.3622 241.24803l23.385803 -23.385834l23.385834 23.385834l-23.385834 23.385818z" fill-rule="evenodd"/><path fill="#6fa8dc" d="m277.7454 169.32545l10.023651 -40.094482l26.724396 0l10.023621 40.094482z" fill-rule="evenodd"/><path stroke="#000000" stroke-width="1.0" stroke-linejoin="round" stroke-linecap="butt" d="m277.7454 169.32545l10.023651 -40.094482l26.724396 0l10.023621 40.094482z" fill-rule="evenodd"/><path fill="#cc0000" d="m216.3517 197.8307l0 0c0 -12.915634 10.4702 -23.385818 23.385834 -23.385818l0 0c6.202301 0 12.150589 2.463852 16.53627 6.8495483c4.3857117 4.3856964 6.8495483 10.333969 6.8495483 16.53627l0 0c0 12.915634 -10.470184 23.385834 -23.385818 23.385834l0 0c-12.915634 0 -23.385834 -10.4702 -23.385834 -23.385834zm36.25493 6.9295197c3.0601196 -5.6831055 2.030182 -12.700592 -2.5339203 -17.264694c-4.564102 -4.564087 -11.581589 -5.59404 -17.264679 -2.533905zm-25.73819 -13.859024l0 0c-3.0601196 5.68309 -2.030182 12.700592 2.5339203 17.264679c4.564102 4.564102 11.581589 5.594055 17.264679 2.5339203z" fill-rule="evenodd"/><path stroke="#000000" stroke-width="1.0" stroke-linejoin="round" stroke-linecap="butt" d="m216.3517 197.8307l0 0c0 -12.915634 10.4702 -23.385818 23.385834 -23.385818l0 0c6.202301 0 12.150589 2.463852 16.53627 6.8495483c4.3857117 4.3856964 6.8495483 10.333969 6.8495483 16.53627l0 0c0 12.915634 -10.470184 23.385834 -23.385818 23.385834l0 0c-12.915634 0 -23.385834 -10.4702 -23.385834 -23.385834zm36.25493 6.9295197c3.0601196 -5.6831055 2.030182 -12.700592 -2.5339203 -17.264694c-4.564102 -4.564087 -11.581589 -5.59404 -17.264679 -2.533905zm-25.73819 -13.859024l0 0c-3.0601196 5.68309 -2.030182 12.700592 2.5339203 17.264679c4.564102 4.564102 11.581589 5.594055 17.264679 2.5339203z" fill-rule="evenodd"/><path fill="#d9d9d9" d="m324.51706 120.7769l0 0c-15.690094 0 -28.409454 -12.712288 -28.409454 -28.3937c0 -15.681404 12.71936 -28.3937 28.409454 -28.3937l0 0c-8.942078 6.7028427 -14.204712 17.222298 -14.204712 28.3937c0 11.17141 5.2626343 21.690857 14.204712 28.3937z" fill-rule="evenodd"/><path stroke="#000000" stroke-width="1.0" stroke-linejoin="round" stroke-linecap="butt" d="m324.51706 120.7769l0 0c-15.690094 0 -28.409454 -12.712288 -28.409454 -28.3937c0 -15.681404 12.71936 -28.3937 28.409454 -28.3937l0 0c-8.942078 6.7028427 -14.204712 17.222298 -14.204712 28.3937c0 11.17141 5.2626343 21.690857 14.204712 28.3937z" fill-rule="evenodd"/><path fill="#f1c232" d="m206.96588 84.23491l-9.437149 3.3560715l0 -6.7121506zm-6.851181 -16.536812l-4.298752 9.047058l-4.7461395 -4.7461395zm-16.534653 -6.8490143l3.356079 9.437149l-6.712143 0zm-16.536804 6.8490143l9.047058 4.3009186l-4.7461395 4.7461395zm-6.8490143 16.536812l9.437149 -3.356079l0 6.7121506zm6.8490143 16.534645l4.3009186 -9.044891l4.7461395 4.7461395zm16.536804 6.851181l-3.3560638 -9.437157l6.712143 0zm16.534653 -6.851181l-9.044891 -4.298752l4.7461395 -4.7461395zm-28.227554 -16.534645l0 0c0 -6.457817 5.235092 -11.692917 11.692902 -11.692917c6.4578247 0 11.692917 5.2351 11.692917 11.692917c0 6.457817 -5.235092 11.692909 -11.692917 11.692909c-6.4578094 0 -11.692902 -5.235092 -11.692902 -11.692909z" fill-rule="evenodd"/><path stroke="#000000" stroke-width="1.0" stroke-linejoin="round" stroke-linecap="butt" d="m206.96588 84.23491l-9.437149 3.3560715l0 -6.7121506zm-6.851181 -16.536812l-4.298752 9.047058l-4.7461395 -4.7461395zm-16.534653 -6.8490143l3.356079 9.437149l-6.712143 0zm-16.536804 6.8490143l9.047058 4.3009186l-4.7461395 4.7461395zm-6.8490143 16.536812l9.437149 -3.356079l0 6.7121506zm6.8490143 16.534645l4.3009186 -9.044891l4.7461395 4.7461395zm16.536804 6.851181l-3.3560638 -9.437157l6.712143 0zm16.534653 -6.851181l-9.044891 -4.298752l4.7461395 -4.7461395zm-28.227554 -16.534645l0 0c0 -6.457817 5.235092 -11.692917 11.692902 -11.692917c6.4578247 0 11.692917 5.2351 11.692917 11.692917c0 6.457817 -5.235092 11.692909 -11.692917 11.692909c-6.4578094 0 -11.692902 -5.235092 -11.692902 -11.692909z" fill-rule="evenodd"/><path fill="#cfe2f3" d="m220.57283 78.215485l0 0c-0.3771057 -2.9021072 0.86102295 -5.7750244 3.1889954 -7.399658c2.3279877 -1.6246338 5.3375397 -1.7160568 7.751602 -0.23548126l0 0c0.85513306 -1.6874084 2.420288 -2.8524475 4.2220154 -3.1427155c1.8017426 -0.29026794 3.6284332 0.32832336 4.9275513 1.6686707l0 0c0.72846985 -1.5299149 2.1588287 -2.5578156 3.7835083 -2.7189636c1.6246796 -0.16114044 3.213745 0.567276 4.2033234 1.9267883l0 0c1.3160858 -1.6217041 3.4100037 -2.304512 5.375702 -1.7529602c1.9657135 0.5515442 3.4501495 2.2383804 3.8109894 4.3306046l0 0c1.6123962 0.4605713 2.955536 1.6314011 3.682312 3.2099915c0.7267761 1.5785904 0.7659607 3.4100723 0.10736084 5.021263l0 0c1.5877686 2.1640015 1.959198 5.0475082 0.975647 7.5744476c-0.9835205 2.5269394 -3.1742554 4.317665 -5.754608 4.703911c-0.018188477 2.3716278 -1.2602539 4.547798 -3.2474365 5.689728c-1.9871826 1.1419296 -4.4091797 1.0712967 -6.3324585 -0.18466187c-0.81921387 2.8404236 -3.1250305 4.9303894 -5.9212494 5.3669357c-2.7962189 0.43655396 -5.581558 -0.85855865 -7.152664 -3.3258057c-1.9258423 1.2161102 -4.236679 1.5664368 -6.411255 0.9719391c-2.1745758 -0.59449005 -4.0296936 -2.0837173 -5.1468964 -4.131752l0 0c-1.9679718 0.24116516 -3.8707123 -0.826561 -4.763916 -2.6732635c-0.893219 -1.8467026 -0.58673096 -4.0792694 0.7673187 -5.589676l0 0c-1.7554779 -1.0819855 -2.6512146 -3.2289963 -2.2201385 -5.3214645c0.4310608 -2.0924606 2.091278 -3.6562119 4.1148987 -3.8758163z" fill-rule="evenodd"/><path fill="#000000" fill-opacity="0.0" d="m218.63918 87.52462l0 0c0.8284149 0.5105896 1.7854309 0.7422104 2.7425385 0.6637497m1.2536163 7.599373c0.41160583 -0.050437927 0.8150482 -0.15724182 1.1999207 -0.31767273m10.357666 3.4773483c-0.28948975 -0.45461273 -0.5318756 -0.9404068 -0.7230072 -1.4491043m13.797409 -0.5921097l0 0c0.14935303 -0.5178528 0.24612427 -1.0508347 0.2886963 -1.5900497m9.290848 -3.9148102c0.019348145 -2.5249557 -1.3501434 -4.836838 -3.5202484 -5.9426117m8.299179 -6.3354797c-0.35144043 0.8597946 -0.88797 1.6225052 -1.5674744 2.2283325m-2.2218933 -10.459816l0 0c0.05987549 0.34720612 0.08758545 0.69963074 0.082733154 1.0523834m-9.269257 -3.629921l0 0c-0.32829285 0.4045334 -0.59877014 0.8565903 -0.8029938 1.3421097m-7.183914 -0.55010986l0 0c-0.17495728 0.36743164 -0.30560303 0.75624084 -0.38893127 1.1574707m-8.760773 0.31659698l0 0c0.5108185 0.31329346 0.9833832 0.69036865 1.4073334 1.1229477m-12.347794 6.5122375l0 0c0.051986694 0.39998627 0.1341095 0.79504395 0.24560547 1.1814728" fill-rule="evenodd"/><path stroke="#000000" stroke-width="1.0" stroke-linejoin="round" stroke-linecap="butt" d="m220.57283 78.215485l0 0c-0.3771057 -2.9021072 0.86102295 -5.7750244 3.1889954 -7.399658c2.3279877 -1.6246338 5.3375397 -1.7160568 7.751602 -0.23548126l0 0c0.85513306 -1.6874084 2.420288 -2.8524475 4.2220154 -3.1427155c1.8017426 -0.29026794 3.6284332 0.32832336 4.9275513 1.6686707l0 0c0.72846985 -1.5299149 2.1588287 -2.5578156 3.7835083 -2.7189636c1.6246796 -0.16114044 3.213745 0.567276 4.2033234 1.9267883l0 0c1.3160858 -1.6217041 3.4100037 -2.304512 5.375702 -1.7529602c1.9657135 0.5515442 3.4501495 2.2383804 3.8109894 4.3306046l0 0c1.6123962 0.4605713 2.955536 1.6314011 3.682312 3.2099915c0.7267761 1.5785904 0.7659607 3.4100723 0.10736084 5.021263l0 0c1.5877686 2.1640015 1.959198 5.0475082 0.975647 7.5744476c-0.9835205 2.5269394 -3.1742554 4.317665 -5.754608 4.703911c-0.018188477 2.3716278 -1.2602539 4.547798 -3.2474365 5.689728c-1.9871826 1.1419296 -4.4091797 1.0712967 -6.3324585 -0.18466187c-0.81921387 2.8404236 -3.1250305 4.9303894 -5.9212494 5.3669357c-2.7962189 0.43655396 -5.581558 -0.85855865 -7.152664 -3.3258057c-1.9258423 1.2161102 -4.236679 1.5664368 -6.411255 0.9719391c-2.1745758 -0.59449005 -4.0296936 -2.0837173 -5.1468964 -4.131752l0 0c-1.9679718 0.24116516 -3.8707123 -0.826561 -4.763916 -2.6732635c-0.893219 -1.8467026 -0.58673096 -4.0792694 0.7673187 -5.589676l0 0c-1.7554779 -1.0819855 -2.6512146 -3.2289963 -2.2201385 -5.3214645c0.4310608 -2.0924606 2.091278 -3.6562119 4.1148987 -3.8758163z" fill-rule="evenodd"/><path stroke="#000000" stroke-width="1.0" stroke-linejoin="round" stroke-linecap="butt" d="m218.63918 87.52462l0 0c0.8284149 0.5105896 1.7854309 0.7422104 2.7425385 0.6637497m1.2536163 7.599373c0.41160583 -0.050437927 0.8150482 -0.15724182 1.1999207 -0.31767273m10.357666 3.4773483c-0.28948975 -0.45461273 -0.5318756 -0.9404068 -0.7230072 -1.4491043m13.797409 -0.5921097l0 0c0.14935303 -0.5178528 0.24612427 -1.0508347 0.2886963 -1.5900497m9.290848 -3.9148102c0.019348145 -2.5249557 -1.3501434 -4.836838 -3.5202484 -5.9426117m8.299179 -6.3354797c-0.35144043 0.8597946 -0.88797 1.6225052 -1.5674744 2.2283325m-2.2218933 -10.459816l0 0c0.05987549 0.34720612 0.08758545 0.69963074 0.082733154 1.0523834m-9.269257 -3.629921l0 0c-0.32829285 0.4045334 -0.59877014 0.8565903 -0.8029938 1.3421097m-7.183914 -0.55010986l0 0c-0.17495728 0.36743164 -0.30560303 0.75624084 -0.38893127 1.1574707m-8.760773 0.31659698l0 0c0.5108185 0.31329346 0.9833832 0.69036865 1.4073334 1.1229477m-12.347794 6.5122375l0 0c0.051986694 0.39998627 0.1341095 0.79504395 0.24560547 1.1814728" fill-rule="evenodd"/><path fill="#cc0000" d="m210.56693 156.3189l23.385834 -35.9685l23.385834 35.9685z" fill-rule="evenodd"/><path stroke="#000000" stroke-width="1.0" stroke-linejoin="round" stroke-linecap="butt" d="m210.56693 156.3189l23.385834 -35.9685l23.385834 35.9685z" fill-rule="evenodd"/><path fill="#000000" fill-opacity="0.0" d="m0 138.36482l131.2126 0l0 40.094498l-131.2126 0z" fill-rule="evenodd"/><path fill="#ffffff" d="m55.148132 147.36482l19.0 0l0 22.40001l-19.0 0l0 -22.40001z" fill-rule="nonzero"/><path fill="#000000" d="m10.46875 165.28482l0 -13.359375l5.921875 0q1.78125 0 2.703125 0.359375q0.9375 0.359375 1.484375 1.28125q0.5625 0.90625 0.5625 2.015625q0 1.40625 -0.921875 2.390625q-0.921875 0.96875 -2.84375 1.234375q0.703125 0.34375 1.078125 0.671875q0.765625 0.703125 1.453125 1.765625l2.328125 3.640625l-2.21875 0l-1.765625 -2.78125q-0.78125 -1.203125 -1.28125 -1.828125q-0.5 -0.640625 -0.90625 -0.890625q-0.390625 -0.265625 -0.796875 -0.359375q-0.296875 -0.078125 -0.984375 -0.078125l-2.046875 0l0 5.9375l-1.765625 0zm1.765625 -7.453125l3.796875 0q1.21875 0 1.890625 -0.25q0.6875 -0.265625 1.046875 -0.8125q0.359375 -0.546875 0.359375 -1.1875q0 -0.953125 -0.6875 -1.5625q-0.6875 -0.609375 -2.1875 -0.609375l-4.21875 0l0 4.421875zm25.28125 -0.40625l-8.828125 0l0 -1.515625l8.828125 0l0 1.515625zm0 4.0625l-8.828125 0l0 -1.53125l8.828125 0l0 1.53125zm5.1576843 3.796875l5.125 -13.359375l1.90625 0l5.46875 13.359375l-2.015625 0l-1.546875 -4.046875l-5.59375 0l-1.46875 4.046875l-1.875 0zm3.859375 -5.484375l4.53125 0l-1.40625 -3.703125q-0.625 -1.6875 -0.9375 -2.765625q-0.265625 1.28125 -0.71875 2.546875l-1.46875 3.921875z" fill-rule="nonzero"/><path fill="#010000" fill-opacity="0.0" d="m55.148132 148.9567l19.0 0l0 19.0l-19.0 0l0 -19.0z" fill-rule="nonzero"/><path fill="#212529" d="m59.382507 152.22232l1.40625 0l0 7.046875q0 1.9375 1.265625 3.1875q1.109375 1.125 2.75 1.125q1.625 0 2.734375 -1.125q1.265625 -1.25 1.265625 -3.1875l0 -7.046875l1.40625 0l0 7.046875q0 2.59375 -1.546875 4.15625q-1.640625 1.640625 -3.859375 1.640625q-2.234375 0 -3.859375 -1.640625q-1.5625 -1.5625 -1.5625 -4.15625l0 -7.046875z" fill-rule="nonzero"/><path fill="#000000" d="m75.50751 165.28482l0 -13.359375l5.015625 0q1.53125 0 2.453125 0.40625q0.921875 0.40625 1.4375 1.25q0.53125 0.84375 0.53125 1.765625q0 0.859375 -0.46875 1.625q-0.453125 0.75 -1.390625 1.203125q1.203125 0.359375 1.859375 1.21875q0.65625 0.859375 0.65625 2.015625q0 0.9375 -0.40625 1.75q-0.390625 0.796875 -0.984375 1.234375q-0.578125 0.4375 -1.453125 0.671875q-0.875 0.21875 -2.15625 0.21875l-5.09375 0zm1.78125 -7.75l2.875 0q1.1875 0 1.6875 -0.140625q0.671875 -0.203125 1.015625 -0.671875q0.34375 -0.46875 0.34375 -1.171875q0 -0.65625 -0.328125 -1.15625q-0.3125 -0.515625 -0.90625 -0.703125q-0.59375 -0.1875 -2.03125 -0.1875l-2.65625 0l0 4.03125zm0 6.171875l3.3125 0q0.859375 0 1.203125 -0.0625q0.609375 -0.109375 1.015625 -0.359375q0.421875 -0.265625 0.6875 -0.75q0.265625 -0.484375 0.265625 -1.125q0 -0.75 -0.390625 -1.296875q-0.375 -0.546875 -1.0625 -0.765625q-0.671875 -0.234375 -1.953125 -0.234375l-3.078125 0l0 4.59375zm24.345627 -6.28125l-8.828125 0l0 -1.515625l8.828125 0l0 1.515625zm0 4.0625l-8.828125 0l0 -1.53125l8.828125 0l0 1.53125z" fill-rule="nonzero"/><path fill="#ea9999" d="m329.89633 191.14699c8.352997 -23.388458 40.92978 0 0 30.070862c-40.92981 -30.070862 -8.353027 -53.45932 0 -30.070862z" fill-rule="evenodd"/><path stroke="#000000" stroke-width="1.0" stroke-linejoin="round" stroke-linecap="butt" d="m329.89633 191.14699c8.352997 -23.388458 40.92978 0 0 30.070862c-40.92981 -30.070862 -8.353027 -53.45932 0 -30.070862z" fill-rule="evenodd"/></g></svg>