<svg version="1.1" viewBox="0.0 0.0 706.6351706036745 304.03674540682414" fill="none" stroke="none" stroke-linecap="square" stroke-miterlimit="10" xmlns:xlink="http://www.w3.org/1999/xlink" xmlns="http://www.w3.org/2000/svg"><clipPath id="p.0"><path d="m0 0l706.6352 0l0 304.03674l-706.6352 0l0 -304.03674z" clip-rule="nonzero"/></clipPath><g clip-path="url(#p.0)"><path fill="#000000" fill-opacity="0.0" d="m0 0l706.6352 0l0 304.03674l-706.6352 0z" fill-rule="evenodd"/><path fill="#000000" fill-opacity="0.0" d="m11.6955385 138.36482l53.44882 0l0 40.094498l-53.44882 0z" fill-rule="evenodd"/><path fill="#000000" d="m20.664288 165.28482l5.125 -13.359375l1.90625 0l5.46875 13.359375l-2.015625 0l-1.546875 -4.046875l-5.59375 0l-1.46875 4.046875l-1.875 0zm3.859375 -5.484375l4.53125 0l-1.40625 -3.703125q-0.625 -1.6875 -0.9375 -2.765625q-0.265625 1.28125 -0.71875 2.546875l-1.46875 3.921875zm22.628174 -2.375l-8.828125 0l0 -1.515625l8.828125 0l0 1.515625zm0 4.0625l-8.828125 0l0 -1.53125l8.828125 0l0 1.53125z" fill-rule="nonzero"/><path fill="#666666" d="m433.80054 154.38345l0 0c0 -69.57049 56.39801 -125.968506 125.968506 -125.968506l0 0c33.408936 0 65.44946 13.271645 89.07318 36.89532c23.623657 23.62368 36.895325 55.66426 36.895325 89.07319l0 0c0 69.57048 -56.39801 125.968506 -125.968506 125.968506l0 0c-69.570496 0 -125.968506 -56.398026 -125.968506 -125.968506z" fill-rule="evenodd"/><path stroke="#000000" stroke-width="2.0" stroke-linejoin="round" stroke-linecap="butt" d="m433.80054 154.38345l0 0c0 -69.57049 56.39801 -125.968506 125.968506 -125.968506l0 0c33.408936 0 65.44946 13.271645 89.07318 36.89532c23.623657 23.62368 36.895325 55.66426 36.895325 89.07319l0 0c0 69.57048 -56.39801 125.968506 -125.968506 125.968506l0 0c-69.570496 0 -125.968506 -56.398026 -125.968506 -125.968506z" fill-rule="evenodd"/><path fill="#6aa84f" d="m580.4278 231.37138l23.385864 -23.385818l23.385803 23.385818l-23.385803 23.385834z" fill-rule="evenodd"/><path stroke="#000000" stroke-width="1.0" stroke-linejoin="round" stroke-linecap="butt" d="m580.4278 231.37138l23.385864 -23.385818l23.385803 23.385818l-23.385803 23.385834z" fill-rule="evenodd"/><path fill="#6fa8dc" d="m545.91864 170.40027l10.023621 -40.094498l26.724426 0l10.023621 40.094498z" fill-rule="evenodd"/><path stroke="#000000" stroke-width="1.0" stroke-linejoin="round" stroke-linecap="butt" d="m545.91864 170.40027l10.023621 -40.094498l26.724426 0l10.023621 40.094498z" fill-rule="evenodd"/><path fill="#cc0000" d="m499.65353 224.21654l0 0c0 -12.915634 10.470215 -23.385834 23.385834 -23.385834l0 0c6.2023315 0 12.150574 2.4638672 16.536255 6.8495483c4.385742 4.3856964 6.8495483 10.333969 6.8495483 16.536285l0 0c0 12.915634 -10.470154 23.385818 -23.385803 23.385818l0 0c-12.915619 0 -23.385834 -10.470184 -23.385834 -23.385818zm36.254913 6.9295044c3.0601196 -5.68309 2.0302124 -12.700577 -2.5338745 -17.264679c-4.564148 -4.564102 -11.581604 -5.59404 -17.26471 -2.5339203zm-25.73816 -13.859024l0 0c-3.0601501 5.6831055 -2.030182 12.700592 2.5339355 17.264694c4.564087 4.564087 11.581543 5.59404 17.264648 2.5339203z" fill-rule="evenodd"/><path stroke="#000000" stroke-width="1.0" stroke-linejoin="round" stroke-linecap="butt" d="m499.65353 224.21654l0 0c0 -12.915634 10.470215 -23.385834 23.385834 -23.385834l0 0c6.2023315 0 12.150574 2.4638672 16.536255 6.8495483c4.385742 4.3856964 6.8495483 10.333969 6.8495483 16.536285l0 0c0 12.915634 -10.470154 23.385818 -23.385803 23.385818l0 0c-12.915619 0 -23.385834 -10.470184 -23.385834 -23.385818zm36.254913 6.9295044c3.0601196 -5.68309 2.0302124 -12.700577 -2.5338745 -17.264679c-4.564148 -4.564102 -11.581604 -5.59404 -17.26471 -2.5339203zm-25.73816 -13.859024l0 0c-3.0601501 5.6831055 -2.030182 12.700592 2.5339355 17.264694c4.564087 4.564087 11.581543 5.59404 17.264648 2.5339203z" fill-rule="evenodd"/><path fill="#d9d9d9" d="m637.29395 120.7769l0 0c-15.690063 0 -28.409424 -12.712288 -28.409424 -28.3937c0 -15.681404 12.71936 -28.3937 28.409424 -28.3937l0 0c-8.942078 6.7028427 -14.204712 17.222298 -14.204712 28.3937c0 11.17141 5.2626343 21.690857 14.204712 28.3937z" fill-rule="evenodd"/><path stroke="#000000" stroke-width="1.0" stroke-linejoin="round" stroke-linecap="butt" d="m637.29395 120.7769l0 0c-15.690063 0 -28.409424 -12.712288 -28.409424 -28.3937c0 -15.681404 12.71936 -28.3937 28.409424 -28.3937l0 0c-8.942078 6.7028427 -14.204712 17.222298 -14.204712 28.3937c0 11.17141 5.2626343 21.690857 14.204712 28.3937z" fill-rule="evenodd"/><path fill="#cfe2f3" d="m503.87466 75.86641l0 0c-0.3771057 -2.9021149 0.86102295 -5.775032 3.1889954 -7.399666c2.3279724 -1.6246338 5.3375244 -1.7160568 7.751587 -0.23548126l0 0c0.8551636 -1.6874084 2.420288 -2.8524475 4.222046 -3.1427155c1.8016968 -0.29026794 3.628418 0.32832336 4.9275513 1.6686707l0 0c0.7284546 -1.5299072 2.1588135 -2.5578156 3.7835083 -2.7189636c1.6246948 -0.16114044 3.213745 0.56728363 4.203308 1.9267883l0 0c1.3161011 -1.6217041 3.4100342 -2.3045082 5.3757324 -1.7529602c1.9656982 0.5515442 3.4501343 2.238388 3.8109741 4.3306046l0 0c1.6124268 0.4605713 2.9555054 1.6314087 3.682312 3.2099915c0.7267456 1.5785904 0.7659302 3.4100723 0.10736084 5.021263l0 0c1.5877686 2.1640015 1.9591675 5.047516 0.975647 7.5744476c-0.9835205 2.5269394 -3.1742554 4.317665 -5.7546387 4.703911c-0.018188477 2.3716278 -1.2602539 4.547798 -3.2474365 5.689728c-1.9871826 1.1419296 -4.4091797 1.0713043 -6.3324585 -0.18466187c-0.81921387 2.8404312 -3.125 4.9303894 -5.9212036 5.3669434c-2.7962646 0.43654633 -5.581604 -0.8585663 -7.15271 -3.3258133c-1.9258423 1.2161102 -4.2366333 1.5664368 -6.4112244 0.9719467c-2.174591 -0.5944977 -4.029724 -2.083725 -5.1469116 -4.1317596l0 0c-1.9679565 0.24116516 -3.8707275 -0.826561 -4.763916 -2.6732635c-0.893219 -1.8467026 -0.58673096 -4.079262 0.767334 -5.589676l0 0c-1.7554932 -1.0819778 -2.651245 -3.2289963 -2.2201538 -5.3214645c0.4310608 -2.0924606 2.091278 -3.6562119 4.1148987 -3.8758163z" fill-rule="evenodd"/><path fill="#000000" fill-opacity="0.0" d="m501.941 85.17554l0 0c0.8284302 0.5105972 1.7854309 0.7422104 2.7425537 0.6637497m1.2536011 7.5993805c0.41159058 -0.050437927 0.81503296 -0.15724945 1.1999207 -0.31767273m10.357666 3.4773483c-0.28948975 -0.45462036 -0.53186035 -0.9404068 -0.72302246 -1.4491043m13.797424 -0.5921097l0 0c0.14935303 -0.5178528 0.24615479 -1.0508347 0.2886963 -1.5900574m9.2908325 -3.9148102c0.019348145 -2.5249557 -1.3500977 -4.836838 -3.5202026 -5.9426117m8.299133 -6.3354797c-0.35144043 0.8597946 -0.88793945 1.6225052 -1.5674438 2.2283325m-2.2219238 -10.459816l0 0c0.05987549 0.34720612 0.08758545 0.69963074 0.08276367 1.052391m-9.269287 -3.6299286l0 0c-0.3283081 0.4045334 -0.5987549 0.8565979 -0.8029785 1.3421097m-7.183899 -0.55010986l0 0c-0.1749878 0.36743164 -0.30560303 0.7562485 -0.38891602 1.1574707m-8.760803 0.31659698l0 0c0.5108032 0.31329346 0.98339844 0.69036865 1.4073486 1.1229477m-12.347809 6.512245l0 0c0.051971436 0.39998627 0.13409424 0.7950363 0.24560547 1.1814651" fill-rule="evenodd"/><path stroke="#000000" stroke-width="1.0" stroke-linejoin="round" stroke-linecap="butt" d="m503.87466 75.86641l0 0c-0.3771057 -2.9021149 0.86102295 -5.775032 3.1889954 -7.399666c2.3279724 -1.6246338 5.3375244 -1.7160568 7.751587 -0.23548126l0 0c0.8551636 -1.6874084 2.420288 -2.8524475 4.222046 -3.1427155c1.8016968 -0.29026794 3.628418 0.32832336 4.9275513 1.6686707l0 0c0.7284546 -1.5299072 2.1588135 -2.5578156 3.7835083 -2.7189636c1.6246948 -0.16114044 3.213745 0.56728363 4.203308 1.9267883l0 0c1.3161011 -1.6217041 3.4100342 -2.3045082 5.3757324 -1.7529602c1.9656982 0.5515442 3.4501343 2.238388 3.8109741 4.3306046l0 0c1.6124268 0.4605713 2.9555054 1.6314087 3.682312 3.2099915c0.7267456 1.5785904 0.7659302 3.4100723 0.10736084 5.021263l0 0c1.5877686 2.1640015 1.9591675 5.047516 0.975647 7.5744476c-0.9835205 2.5269394 -3.1742554 4.317665 -5.7546387 4.703911c-0.018188477 2.3716278 -1.2602539 4.547798 -3.2474365 5.689728c-1.9871826 1.1419296 -4.4091797 1.0713043 -6.3324585 -0.18466187c-0.81921387 2.8404312 -3.125 4.9303894 -5.9212036 5.3669434c-2.7962646 0.43654633 -5.581604 -0.8585663 -7.15271 -3.3258133c-1.9258423 1.2161102 -4.2366333 1.5664368 -6.4112244 0.9719467c-2.174591 -0.5944977 -4.029724 -2.083725 -5.1469116 -4.1317596l0 0c-1.9679565 0.24116516 -3.8707275 -0.826561 -4.763916 -2.6732635c-0.893219 -1.8467026 -0.58673096 -4.079262 0.767334 -5.589676l0 0c-1.7554932 -1.0819778 -2.651245 -3.2289963 -2.2201538 -5.3214645c0.4310608 -2.0924606 2.091278 -3.6562119 4.1148987 -3.8758163z" fill-rule="evenodd"/><path stroke="#000000" stroke-width="1.0" stroke-linejoin="round" stroke-linecap="butt" d="m501.941 85.17554l0 0c0.8284302 0.5105972 1.7854309 0.7422104 2.7425537 0.6637497m1.2536011 7.5993805c0.41159058 -0.050437927 0.81503296 -0.15724945 1.1999207 -0.31767273m10.357666 3.4773483c-0.28948975 -0.45462036 -0.53186035 -0.9404068 -0.72302246 -1.4491043m13.797424 -0.5921097l0 0c0.14935303 -0.5178528 0.24615479 -1.0508347 0.2886963 -1.5900574m9.2908325 -3.9148102c0.019348145 -2.5249557 -1.3500977 -4.836838 -3.5202026 -5.9426117m8.299133 -6.3354797c-0.35144043 0.8597946 -0.88793945 1.6225052 -1.5674438 2.2283325m-2.2219238 -10.459816l0 0c0.05987549 0.34720612 0.08758545 0.69963074 0.08276367 1.052391m-9.269287 -3.6299286l0 0c-0.3283081 0.4045334 -0.5987549 0.8565979 -0.8029785 1.3421097m-7.183899 -0.55010986l0 0c-0.1749878 0.36743164 -0.30560303 0.7562485 -0.38891602 1.1574707m-8.760803 0.31659698l0 0c0.5108032 0.31329346 0.98339844 0.69036865 1.4073486 1.1229477m-12.347809 6.512245l0 0c0.051971436 0.39998627 0.13409424 0.7950363 0.24560547 1.1814651" fill-rule="evenodd"/><path fill="#000000" fill-opacity="0.0" d="m359.5538 130.30708l53.448822 0l0 40.094498l-53.448822 0z" fill-rule="evenodd"/><path fill="#000000" d="m369.91318 157.22708l0 -13.359375l5.015625 0q1.53125 0 2.453125 0.40625q0.921875 0.40625 1.4375 1.25q0.53125 0.84375 0.53125 1.765625q0 0.859375 -0.46875 1.625q-0.453125 0.75 -1.390625 1.203125q1.203125 0.359375 1.859375 1.21875q0.65625 0.859375 0.65625 2.015625q0 0.9375 -0.40625 1.75q-0.390625 0.796875 -0.984375 1.234375q-0.578125 0.4375 -1.453125 0.671875q-0.875 0.21875 -2.15625 0.21875l-5.09375 0zm1.78125 -7.75l2.875 0q1.1875 0 1.6875 -0.140625q0.671875 -0.203125 1.015625 -0.671875q0.34375 -0.46875 0.34375 -1.171875q0 -0.65625 -0.328125 -1.15625q-0.3125 -0.515625 -0.90625 -0.703125q-0.59375 -0.1875 -2.03125 -0.1875l-2.65625 0l0 4.03125zm0 6.171875l3.3125 0q0.859375 0 1.203125 -0.0625q0.609375 -0.109375 1.015625 -0.359375q0.421875 -0.265625 0.6875 -0.75q0.265625 -0.484375 0.265625 -1.125q0 -0.75 -0.390625 -1.296875q-0.375 -0.546875 -1.0625 -0.765625q-0.671875 -0.234375 -1.953125 -0.234375l-3.078125 0l0 4.59375zm24.345642 -6.28125l-8.828125 0l0 -1.515625l8.828125 0l0 1.515625zm0 4.0625l-8.828125 0l0 -1.53125l8.828125 0l0 1.53125z" fill-rule="nonzero"/><path fill="#fff2cc" d="m85.94226 154.38345l0 0c0 -69.57049 56.39801 -125.968506 125.968506 -125.968506l0 0c33.40892 0 65.44949 13.271645 89.07318 36.89532c23.623688 23.62368 36.895325 55.66426 36.895325 89.07319l0 0c0 69.57048 -56.39804 125.968506 -125.968506 125.968506l0 0c-69.570496 0 -125.968506 -56.398026 -125.968506 -125.968506z" fill-rule="evenodd"/><path stroke="#000000" stroke-width="2.0" stroke-linejoin="round" stroke-linecap="butt" d="m85.94226 154.38345l0 0c0 -69.57049 56.39801 -125.968506 125.968506 -125.968506l0 0c33.40892 0 65.44949 13.271645 89.07318 36.89532c23.623688 23.62368 36.895325 55.66426 36.895325 89.07319l0 0c0 69.57048 -56.39804 125.968506 -125.968506 125.968506l0 0c-69.570496 0 -125.968506 -56.398026 -125.968506 -125.968506z" fill-rule="evenodd"/><path fill="#1155cc" d="m108.30708 137.5853l11.692917 0l0 -11.692909l23.385834 0l0 11.692909l11.692902 0l0 23.385834l-11.692902 0l0 11.692917l-23.385834 0l0 -11.692917l-11.692917 0z" fill-rule="evenodd"/><path stroke="#000000" stroke-width="1.0" stroke-linejoin="round" stroke-linecap="butt" d="m108.30708 137.5853l11.692917 0l0 -11.692909l23.385834 0l0 11.692909l11.692902 0l0 23.385834l-11.692902 0l0 11.692917l-23.385834 0l0 -11.692917l-11.692917 0z" fill-rule="evenodd"/><path fill="#bf9000" d="m140.67455 204.11154l17.543304 0l0 22.551193l17.543304 0l0 17.543304l-35.08661 0z" fill-rule="evenodd"/><path stroke="#000000" stroke-width="1.0" stroke-linejoin="round" stroke-linecap="butt" d="m140.67455 204.11154l17.543304 0l0 22.551193l17.543304 0l0 17.543304l-35.08661 0z" fill-rule="evenodd"/><path fill="#6aa84f" d="m228.04199 224.1588l23.385834 -23.385834l23.385834 23.385834l-23.385834 23.385818z" fill-rule="evenodd"/><path stroke="#000000" stroke-width="1.0" stroke-linejoin="round" stroke-linecap="butt" d="m228.04199 224.1588l23.385834 -23.385834l23.385834 23.385834l-23.385834 23.385818z" fill-rule="evenodd"/><path fill="#f1c232" d="m171.88452 84.23491l-9.437164 3.3560715l0 -6.7121506zm-6.851181 -16.536812l-4.298752 9.047058l-4.746155 -4.7461395zm-16.534653 -6.8490143l3.356079 9.437149l-6.712158 0zm-16.536804 6.8490143l9.047058 4.3009186l-4.746155 4.7461395zm-6.849022 16.536812l9.437157 -3.356079l0 6.7121506zm6.849022 16.534645l4.3009033 -9.044891l4.746155 4.7461395zm16.536804 6.851181l-3.356079 -9.437157l6.712158 0zm16.534653 -6.851181l-9.044907 -4.298752l4.746155 -4.7461395zm-28.22757 -16.534645l0 0c0 -6.457817 5.235092 -11.692917 11.692917 -11.692917c6.4578247 0 11.692917 5.2351 11.692917 11.692917c0 6.457817 -5.235092 11.692909 -11.692917 11.692909c-6.4578247 0 -11.692917 -5.235092 -11.692917 -11.692909z" fill-rule="evenodd"/><path stroke="#000000" stroke-width="1.0" stroke-linejoin="round" stroke-linecap="butt" d="m171.88452 84.23491l-9.437164 3.3560715l0 -6.7121506zm-6.851181 -16.536812l-4.298752 9.047058l-4.746155 -4.7461395zm-16.534653 -6.8490143l3.356079 9.437149l-6.712158 0zm-16.536804 6.8490143l9.047058 4.3009186l-4.746155 4.7461395zm-6.849022 16.536812l9.437157 -3.356079l0 6.7121506zm6.849022 16.534645l4.3009033 -9.044891l4.746155 4.7461395zm16.536804 6.851181l-3.356079 -9.437157l6.712158 0zm16.534653 -6.851181l-9.044907 -4.298752l4.746155 -4.7461395zm-28.22757 -16.534645l0 0c0 -6.457817 5.235092 -11.692917 11.692917 -11.692917c6.4578247 0 11.692917 5.2351 11.692917 11.692917c0 6.457817 -5.235092 11.692909 -11.692917 11.692909c-6.4578247 0 -11.692917 -5.235092 -11.692917 -11.692909z" fill-rule="evenodd"/><path fill="#cfe2f3" d="m222.24213 78.21286l0 0c-0.3771057 -2.9021072 0.86102295 -5.7750244 3.1889954 -7.399658c2.3279724 -1.6246338 5.3375397 -1.7160568 7.751602 -0.23548126l0 0c0.85513306 -1.6874084 2.4202728 -2.8524475 4.2220154 -3.1427155c1.8017273 -0.29026794 3.6284332 0.32832336 4.9275513 1.6686707l0 0c0.72846985 -1.5299149 2.1588135 -2.5578156 3.7835083 -2.7189636c1.6246796 -0.16114044 3.213745 0.567276 4.2033234 1.9267883l0 0c1.3160858 -1.6217041 3.4100037 -2.304512 5.375702 -1.7529602c1.9656982 0.5515442 3.4501343 2.2383804 3.8109741 4.3306046l0 0c1.6124268 0.4605713 2.955536 1.6314011 3.682312 3.2099915c0.72680664 1.5785904 0.7659607 3.4100723 0.10739136 5.021263l0 0c1.5877686 2.1640015 1.9591675 5.0475082 0.975647 7.5744476c-0.983551 2.5269394 -3.1742554 4.317665 -5.7546387 4.703911c-0.018188477 2.3716202 -1.2602539 4.547798 -3.2474213 5.689728c-1.9871826 1.1419296 -4.4091797 1.0712967 -6.3324585 -0.18466187c-0.81921387 2.8404236 -3.1250305 4.9303894 -5.9212494 5.3669357c-2.7962189 0.43655396 -5.5815735 -0.85855865 -7.152664 -3.3258057c-1.9258423 1.2161102 -4.2366943 1.5664368 -6.411255 0.9719391c-2.1745758 -0.59449005 -4.029709 -2.0837173 -5.1468964 -4.131752l0 0c-1.9679718 0.24116516 -3.8707275 -0.826561 -4.7639313 -2.6732635c-0.89320374 -1.8467026 -0.58673096 -4.0792694 0.767334 -5.589676l0 0c-1.7554779 -1.0819855 -2.6512299 -3.2289963 -2.2201538 -5.3214645c0.43107605 -2.0924606 2.0912933 -3.6562119 4.114914 -3.8758163z" fill-rule="evenodd"/><path fill="#000000" fill-opacity="0.0" d="m220.30847 87.521996l0 0c0.82839966 0.5105896 1.7854156 0.7422104 2.7425385 0.6637497m1.2536163 7.599373c0.41159058 -0.050437927 0.81503296 -0.15724182 1.1999207 -0.31767273m10.357651 3.4773483c-0.28948975 -0.45461273 -0.53186035 -0.9404068 -0.72299194 -1.4491043m13.797409 -0.5921097l0 0c0.14935303 -0.5178528 0.24612427 -1.0508347 0.2886963 -1.5900497m9.2908325 -3.9148102c0.019348145 -2.5249557 -1.3501282 -4.836838 -3.5202332 -5.9426117m8.299164 -6.3354797c-0.35144043 0.8597946 -0.88793945 1.6225052 -1.5674744 2.2283325m-2.2218933 -10.459816l0 0c0.05987549 0.34720612 0.08758545 0.69963074 0.08276367 1.0523834m-9.269272 -3.629921l0 0c-0.3283081 0.4045334 -0.59877014 0.8565903 -0.80300903 1.3421097m-7.183899 -0.55010986l0 0c-0.17495728 0.36743164 -0.30560303 0.75624084 -0.38893127 1.1574707m-8.760788 0.31659698l0 0c0.5108185 0.31329346 0.98339844 0.69036865 1.4073486 1.1229477m-12.347794 6.5122375l0 0c0.051971436 0.39998627 0.13409424 0.79504395 0.24560547 1.1814728" fill-rule="evenodd"/><path stroke="#000000" stroke-width="1.0" stroke-linejoin="round" stroke-linecap="butt" d="m222.24213 78.21286l0 0c-0.3771057 -2.9021072 0.86102295 -5.7750244 3.1889954 -7.399658c2.3279724 -1.6246338 5.3375397 -1.7160568 7.751602 -0.23548126l0 0c0.85513306 -1.6874084 2.4202728 -2.8524475 4.2220154 -3.1427155c1.8017273 -0.29026794 3.6284332 0.32832336 4.9275513 1.6686707l0 0c0.72846985 -1.5299149 2.1588135 -2.5578156 3.7835083 -2.7189636c1.6246796 -0.16114044 3.213745 0.567276 4.2033234 1.9267883l0 0c1.3160858 -1.6217041 3.4100037 -2.304512 5.375702 -1.7529602c1.9656982 0.5515442 3.4501343 2.2383804 3.8109741 4.3306046l0 0c1.6124268 0.4605713 2.955536 1.6314011 3.682312 3.2099915c0.72680664 1.5785904 0.7659607 3.4100723 0.10739136 5.021263l0 0c1.5877686 2.1640015 1.9591675 5.0475082 0.975647 7.5744476c-0.983551 2.5269394 -3.1742554 4.317665 -5.7546387 4.703911c-0.018188477 2.3716202 -1.2602539 4.547798 -3.2474213 5.689728c-1.9871826 1.1419296 -4.4091797 1.0712967 -6.3324585 -0.18466187c-0.81921387 2.8404236 -3.1250305 4.9303894 -5.9212494 5.3669357c-2.7962189 0.43655396 -5.5815735 -0.85855865 -7.152664 -3.3258057c-1.9258423 1.2161102 -4.2366943 1.5664368 -6.411255 0.9719391c-2.1745758 -0.59449005 -4.029709 -2.0837173 -5.1468964 -4.131752l0 0c-1.9679718 0.24116516 -3.8707275 -0.826561 -4.7639313 -2.6732635c-0.89320374 -1.8467026 -0.58673096 -4.0792694 0.767334 -5.589676l0 0c-1.7554779 -1.0819855 -2.6512299 -3.2289963 -2.2201538 -5.3214645c0.43107605 -2.0924606 2.0912933 -3.6562119 4.114914 -3.8758163z" fill-rule="evenodd"/><path stroke="#000000" stroke-width="1.0" stroke-linejoin="round" stroke-linecap="butt" d="m220.30847 87.521996l0 0c0.82839966 0.5105896 1.7854156 0.7422104 2.7425385 0.6637497m1.2536163 7.599373c0.41159058 -0.050437927 0.81503296 -0.15724182 1.1999207 -0.31767273m10.357651 3.4773483c-0.28948975 -0.45461273 -0.53186035 -0.9404068 -0.72299194 -1.4491043m13.797409 -0.5921097l0 0c0.14935303 -0.5178528 0.24612427 -1.0508347 0.2886963 -1.5900497m9.2908325 -3.9148102c0.019348145 -2.5249557 -1.3501282 -4.836838 -3.5202332 -5.9426117m8.299164 -6.3354797c-0.35144043 0.8597946 -0.88793945 1.6225052 -1.5674744 2.2283325m-2.2218933 -10.459816l0 0c0.05987549 0.34720612 0.08758545 0.69963074 0.08276367 1.0523834m-9.269272 -3.629921l0 0c-0.3283081 0.4045334 -0.59877014 0.8565903 -0.80300903 1.3421097m-7.183899 -0.55010986l0 0c-0.17495728 0.36743164 -0.30560303 0.75624084 -0.38893127 1.1574707m-8.760788 0.31659698l0 0c0.5108185 0.31329346 0.98339844 0.69036865 1.4073486 1.1229477m-12.347794 6.5122375l0 0c0.051971436 0.39998627 0.13409424 0.79504395 0.24560547 1.1814728" fill-rule="evenodd"/><path fill="#cc0000" d="m196.80708 169.48294l23.385834 -35.968506l23.385818 35.968506z" fill-rule="evenodd"/><path stroke="#000000" stroke-width="1.0" stroke-linejoin="round" stroke-linecap="butt" d="m196.80708 169.48294l23.385834 -35.968506l23.385818 35.968506z" fill-rule="evenodd"/><path fill="#ea9999" d="m484.39764 140.08267c8.353027 -23.388443 40.92981 0 0 30.070877c-40.92981 -30.070877 -8.353027 -53.45932 0 -30.070877z" fill-rule="evenodd"/><path stroke="#000000" stroke-width="1.0" stroke-linejoin="round" stroke-linecap="butt" d="m484.39764 140.08267c8.353027 -23.388443 40.92981 0 0 30.070877c-40.92981 -30.070877 -8.353027 -53.45932 0 -30.070877z" fill-rule="evenodd"/><path fill="#ea9999" d="m297.94357 139.00525c8.353027 -23.38845 40.92978 0 0 30.070862c-40.92978 -30.070862 -8.353027 -53.459312 0 -30.070862z" fill-rule="evenodd"/><path stroke="#000000" stroke-width="1.0" stroke-linejoin="round" stroke-linecap="butt" d="m297.94357 139.00525c8.353027 -23.38845 40.92978 0 0 30.070862c-40.92978 -30.070862 -8.353027 -53.459312 0 -30.070862z" fill-rule="evenodd"/></g></svg>