<svg version="1.1" viewBox="0.0 0.0 542.9238845144357 350.81102362204723" fill="none" stroke="none" stroke-linecap="square" stroke-miterlimit="10" xmlns:xlink="http://www.w3.org/1999/xlink" xmlns="http://www.w3.org/2000/svg"><clipPath id="p.0"><path d="m0 0l542.9239 0l0 350.81104l-542.9239 0l0 -350.81104z" clip-rule="nonzero"/></clipPath><g clip-path="url(#p.0)"><path fill="#000000" fill-opacity="0.0" d="m0 0l542.9239 0l0 350.81104l-542.9239 0z" fill-rule="evenodd"/><path fill="#000000" fill-opacity="0.0" d="m118.020996 223.83464l372.7874 -150.58267" fill-rule="evenodd"/><path stroke="#6aa84f" stroke-width="2.0" stroke-linejoin="round" stroke-linecap="butt" d="m118.020996 223.83464l361.66086 -146.08824" fill-rule="evenodd"/><path stroke="#6aa84f" stroke-width="2.0" stroke-linecap="butt" d="m480.91913 80.80941l7.1782837 -6.462372l-9.652832 0.33634186z" fill-rule="evenodd"/><path fill="#000000" fill-opacity="0.0" d="m73.52493 321.7953l0 -261.54333" fill-rule="evenodd"/><path stroke="#1155cc" stroke-width="3.0" stroke-linejoin="round" stroke-linecap="butt" d="m73.52493 321.7953l0 -243.54332" fill-rule="evenodd"/><path fill="#1155cc" stroke="#1155cc" stroke-width="3.0" stroke-linecap="butt" d="m78.48013 78.25197l-4.9552 -13.614296l-4.9551926 13.614296z" fill-rule="evenodd"/><path fill="#000000" fill-opacity="0.0" d="m38.259842 280.65353l458.45667 0" fill-rule="evenodd"/><path stroke="#1155cc" stroke-width="3.0" stroke-linejoin="round" stroke-linecap="butt" d="m38.259842 280.65353l440.45667 0" fill-rule="evenodd"/><path fill="#1155cc" stroke="#1155cc" stroke-width="3.0" stroke-linecap="butt" d="m478.71652 285.60873l13.614319 -4.9552l-13.614319 -4.9552z" fill-rule="evenodd"/><path fill="#ffffff" d="m123.48294 198.36482l0 0c0 -3.2441254 2.6298828 -5.874008 5.874008 -5.874008l0 0c1.5578918 0 3.0519714 0.61886597 4.1535645 1.720459c1.101593 1.101593 1.720459 2.5956726 1.720459 4.153549l0 0c0 3.2441406 -2.6298828 5.8740234 -5.8740234 5.8740234l0 0c-3.2441254 0 -5.874008 -2.6298828 -5.874008 -5.8740234z" fill-rule="evenodd"/><path fill="#000000" fill-opacity="0.0" d="m125.2034 194.21127l8.307114 8.307114m0 -8.307114l-8.307114 8.307114" fill-rule="evenodd"/><path fill="#000000" fill-opacity="0.0" d="m123.48294 198.36482l0 0c0 -3.2441254 2.6298828 -5.874008 5.874008 -5.874008l0 0c1.5578918 0 3.0519714 0.61886597 4.1535645 1.720459c1.101593 1.101593 1.720459 2.5956726 1.720459 4.153549l0 0c0 3.2441406 -2.6298828 5.8740234 -5.8740234 5.8740234l0 0c-3.2441254 0 -5.874008 -2.6298828 -5.874008 -5.8740234z" fill-rule="evenodd"/><path stroke="#000000" stroke-width="1.0" stroke-linejoin="round" stroke-linecap="butt" d="m125.2034 194.21127l8.307114 8.307114m0 -8.307114l-8.307114 8.307114" fill-rule="evenodd"/><path stroke="#000000" stroke-width="1.0" stroke-linejoin="round" stroke-linecap="butt" d="m123.48294 198.36482l0 0c0 -3.2441254 2.6298828 -5.874008 5.874008 -5.874008l0 0c1.5578918 0 3.0519714 0.61886597 4.1535645 1.720459c1.101593 1.101593 1.720459 2.5956726 1.720459 4.153549l0 0c0 3.2441406 -2.6298828 5.8740234 -5.8740234 5.8740234l0 0c-3.2441254 0 -5.874008 -2.6298828 -5.874008 -5.8740234z" fill-rule="evenodd"/><path fill="#ffffff" d="m166.34383 214.36482l0 0c0 -3.2441254 2.629898 -5.874008 5.8740234 -5.874008l0 0c1.5578766 0 3.0519562 0.61886597 4.153549 1.720459c1.101593 1.101593 1.720459 2.5956726 1.720459 4.153549l0 0c0 3.2441406 -2.6298828 5.8740234 -5.874008 5.8740234l0 0c-3.2441254 0 -5.8740234 -2.6298828 -5.8740234 -5.8740234z" fill-rule="evenodd"/><path fill="#000000" fill-opacity="0.0" d="m168.06429 210.21127l8.307114 8.307114m0 -8.307114l-8.307114 8.307114" fill-rule="evenodd"/><path fill="#000000" fill-opacity="0.0" d="m166.34383 214.36482l0 0c0 -3.2441254 2.629898 -5.874008 5.8740234 -5.874008l0 0c1.5578766 0 3.0519562 0.61886597 4.153549 1.720459c1.101593 1.101593 1.720459 2.5956726 1.720459 4.153549l0 0c0 3.2441406 -2.6298828 5.8740234 -5.874008 5.8740234l0 0c-3.2441254 0 -5.8740234 -2.6298828 -5.8740234 -5.8740234z" fill-rule="evenodd"/><path stroke="#000000" stroke-width="1.0" stroke-linejoin="round" stroke-linecap="butt" d="m168.06429 210.21127l8.307114 8.307114m0 -8.307114l-8.307114 8.307114" fill-rule="evenodd"/><path stroke="#000000" stroke-width="1.0" stroke-linejoin="round" stroke-linecap="butt" d="m166.34383 214.36482l0 0c0 -3.2441254 2.629898 -5.874008 5.8740234 -5.874008l0 0c1.5578766 0 3.0519562 0.61886597 4.153549 1.720459c1.101593 1.101593 1.720459 2.5956726 1.720459 4.153549l0 0c0 3.2441406 -2.6298828 5.8740234 -5.874008 5.8740234l0 0c-3.2441254 0 -5.8740234 -2.6298828 -5.8740234 -5.8740234z" fill-rule="evenodd"/><path fill="#ffffff" d="m188.85564 191.02362l0 0c0 -3.2441254 2.629898 -5.874008 5.8740234 -5.874008l0 0c1.5578918 0 3.0519562 0.61886597 4.153549 1.720459c1.101593 1.101593 1.720459 2.5956573 1.720459 4.153549l0 0c0 3.2441254 -2.6298828 5.8740234 -5.874008 5.8740234l0 0c-3.2441254 0 -5.8740234 -2.629898 -5.8740234 -5.8740234z" fill-rule="evenodd"/><path fill="#000000" fill-opacity="0.0" d="m190.5761 186.87007l8.307114 8.307114m0 -8.307114l-8.307114 8.307114" fill-rule="evenodd"/><path fill="#000000" fill-opacity="0.0" d="m188.85564 191.02362l0 0c0 -3.2441254 2.629898 -5.874008 5.8740234 -5.874008l0 0c1.5578918 0 3.0519562 0.61886597 4.153549 1.720459c1.101593 1.101593 1.720459 2.5956573 1.720459 4.153549l0 0c0 3.2441254 -2.6298828 5.8740234 -5.874008 5.8740234l0 0c-3.2441254 0 -5.8740234 -2.629898 -5.8740234 -5.8740234z" fill-rule="evenodd"/><path stroke="#000000" stroke-width="1.0" stroke-linejoin="round" stroke-linecap="butt" d="m190.5761 186.87007l8.307114 8.307114m0 -8.307114l-8.307114 8.307114" fill-rule="evenodd"/><path stroke="#000000" stroke-width="1.0" stroke-linejoin="round" stroke-linecap="butt" d="m188.85564 191.02362l0 0c0 -3.2441254 2.629898 -5.874008 5.8740234 -5.874008l0 0c1.5578918 0 3.0519562 0.61886597 4.153549 1.720459c1.101593 1.101593 1.720459 2.5956573 1.720459 4.153549l0 0c0 3.2441254 -2.6298828 5.8740234 -5.874008 5.8740234l0 0c-3.2441254 0 -5.8740234 -2.629898 -5.8740234 -5.8740234z" fill-rule="evenodd"/><path fill="#ffffff" d="m239.03937 175.40552l0 0c0 -3.2441406 2.6298828 -5.8740234 5.8740234 -5.8740234l0 0c1.5578766 0 3.0519562 0.61886597 4.153549 1.720459c1.101593 1.101593 1.720459 2.5956726 1.720459 4.1535645l0 0c0 3.2441254 -2.6298828 5.874008 -5.874008 5.874008l0 0c-3.2441406 0 -5.8740234 -2.6298828 -5.8740234 -5.874008z" fill-rule="evenodd"/><path fill="#000000" fill-opacity="0.0" d="m240.75983 171.25195l8.307114 8.307114m0 -8.307114l-8.307114 8.307114" fill-rule="evenodd"/><path fill="#000000" fill-opacity="0.0" d="m239.03937 175.40552l0 0c0 -3.2441406 2.6298828 -5.8740234 5.8740234 -5.8740234l0 0c1.5578766 0 3.0519562 0.61886597 4.153549 1.720459c1.101593 1.101593 1.720459 2.5956726 1.720459 4.1535645l0 0c0 3.2441254 -2.6298828 5.874008 -5.874008 5.874008l0 0c-3.2441406 0 -5.8740234 -2.6298828 -5.8740234 -5.874008z" fill-rule="evenodd"/><path stroke="#000000" stroke-width="1.0" stroke-linejoin="round" stroke-linecap="butt" d="m240.75983 171.25195l8.307114 8.307114m0 -8.307114l-8.307114 8.307114" fill-rule="evenodd"/><path stroke="#000000" stroke-width="1.0" stroke-linejoin="round" stroke-linecap="butt" d="m239.03937 175.40552l0 0c0 -3.2441406 2.6298828 -5.8740234 5.8740234 -5.8740234l0 0c1.5578766 0 3.0519562 0.61886597 4.153549 1.720459c1.101593 1.101593 1.720459 2.5956726 1.720459 4.1535645l0 0c0 3.2441254 -2.6298828 5.874008 -5.874008 5.874008l0 0c-3.2441406 0 -5.8740234 -2.6298828 -5.8740234 -5.874008z" fill-rule="evenodd"/><path fill="#ffffff" d="m280.27298 233.34776l0 0c0 -3.2441254 2.6298828 -5.874008 5.873993 -5.874008l0 0c1.5578918 0 3.0519714 0.61886597 4.1535645 1.720459c1.101593 1.101593 1.720459 2.5956726 1.720459 4.153549l0 0c0 3.2441406 -2.6298828 5.8740234 -5.8740234 5.8740234l0 0c-3.24411 0 -5.873993 -2.6298828 -5.873993 -5.8740234z" fill-rule="evenodd"/><path fill="#000000" fill-opacity="0.0" d="m281.99344 229.19421l8.307098 8.307114m0 -8.307114l-8.307098 8.307114" fill-rule="evenodd"/><path fill="#000000" fill-opacity="0.0" d="m280.27298 233.34776l0 0c0 -3.2441254 2.6298828 -5.874008 5.873993 -5.874008l0 0c1.5578918 0 3.0519714 0.61886597 4.1535645 1.720459c1.101593 1.101593 1.720459 2.5956726 1.720459 4.153549l0 0c0 3.2441406 -2.6298828 5.8740234 -5.8740234 5.8740234l0 0c-3.24411 0 -5.873993 -2.6298828 -5.873993 -5.8740234z" fill-rule="evenodd"/><path stroke="#000000" stroke-width="1.0" stroke-linejoin="round" stroke-linecap="butt" d="m281.99344 229.19421l8.307098 8.307114m0 -8.307114l-8.307098 8.307114" fill-rule="evenodd"/><path stroke="#000000" stroke-width="1.0" stroke-linejoin="round" stroke-linecap="butt" d="m280.27298 233.34776l0 0c0 -3.2441254 2.6298828 -5.874008 5.873993 -5.874008l0 0c1.5578918 0 3.0519714 0.61886597 4.1535645 1.720459c1.101593 1.101593 1.720459 2.5956726 1.720459 4.153549l0 0c0 3.2441406 -2.6298828 5.8740234 -5.8740234 5.8740234l0 0c-3.24411 0 -5.873993 -2.6298828 -5.873993 -5.8740234z" fill-rule="evenodd"/><path fill="#ffffff" d="m256.66666 144.19554l0 0c0 -3.2441254 2.6298828 -5.8740234 5.8740234 -5.8740234l0 0c1.5578918 0 3.0519714 0.61886597 4.1535645 1.720459c1.101593 1.101593 1.720459 2.5956726 1.720459 4.1535645l0 0c0 3.2441254 -2.6298828 5.874008 -5.8740234 5.874008l0 0c-3.2441406 0 -5.8740234 -2.6298828 -5.8740234 -5.874008z" fill-rule="evenodd"/><path fill="#000000" fill-opacity="0.0" d="m258.38712 140.04198l8.307129 8.307114m0 -8.307114l-8.307129 8.307114" fill-rule="evenodd"/><path fill="#000000" fill-opacity="0.0" d="m256.66666 144.19554l0 0c0 -3.2441254 2.6298828 -5.8740234 5.8740234 -5.8740234l0 0c1.5578918 0 3.0519714 0.61886597 4.1535645 1.720459c1.101593 1.101593 1.720459 2.5956726 1.720459 4.1535645l0 0c0 3.2441254 -2.6298828 5.874008 -5.8740234 5.874008l0 0c-3.2441406 0 -5.8740234 -2.6298828 -5.8740234 -5.874008z" fill-rule="evenodd"/><path stroke="#000000" stroke-width="1.0" stroke-linejoin="round" stroke-linecap="butt" d="m258.38712 140.04198l8.307129 8.307114m0 -8.307114l-8.307129 8.307114" fill-rule="evenodd"/><path stroke="#000000" stroke-width="1.0" stroke-linejoin="round" stroke-linecap="butt" d="m256.66666 144.19554l0 0c0 -3.2441254 2.6298828 -5.8740234 5.8740234 -5.8740234l0 0c1.5578918 0 3.0519714 0.61886597 4.1535645 1.720459c1.101593 1.101593 1.720459 2.5956726 1.720459 4.1535645l0 0c0 3.2441254 -2.6298828 5.874008 -5.8740234 5.874008l0 0c-3.2441406 0 -5.8740234 -2.6298828 -5.8740234 -5.874008z" fill-rule="evenodd"/><path fill="#ffffff" d="m299.34647 163.65749l0 0c0 -3.2441406 2.6298828 -5.8740234 5.873993 -5.8740234l0 0c1.5578918 0 3.0519714 0.61886597 4.1535645 1.720459c1.101593 1.101593 1.720459 2.5956726 1.720459 4.1535645l0 0c0 3.2441254 -2.6298828 5.874008 -5.8740234 5.874008l0 0c-3.24411 0 -5.873993 -2.6298828 -5.873993 -5.874008z" fill-rule="evenodd"/><path fill="#000000" fill-opacity="0.0" d="m301.06693 159.50392l8.307098 8.307114m0 -8.307114l-8.307098 8.307114" fill-rule="evenodd"/><path fill="#000000" fill-opacity="0.0" d="m299.34647 163.65749l0 0c0 -3.2441406 2.6298828 -5.8740234 5.873993 -5.8740234l0 0c1.5578918 0 3.0519714 0.61886597 4.1535645 1.720459c1.101593 1.101593 1.720459 2.5956726 1.720459 4.1535645l0 0c0 3.2441254 -2.6298828 5.874008 -5.8740234 5.874008l0 0c-3.24411 0 -5.873993 -2.6298828 -5.873993 -5.874008z" fill-rule="evenodd"/><path stroke="#000000" stroke-width="1.0" stroke-linejoin="round" stroke-linecap="butt" d="m301.06693 159.50392l8.307098 8.307114m0 -8.307114l-8.307098 8.307114" fill-rule="evenodd"/><path stroke="#000000" stroke-width="1.0" stroke-linejoin="round" stroke-linecap="butt" d="m299.34647 163.65749l0 0c0 -3.2441406 2.6298828 -5.8740234 5.873993 -5.8740234l0 0c1.5578918 0 3.0519714 0.61886597 4.1535645 1.720459c1.101593 1.101593 1.720459 2.5956726 1.720459 4.1535645l0 0c0 3.2441254 -2.6298828 5.874008 -5.8740234 5.874008l0 0c-3.24411 0 -5.873993 -2.6298828 -5.873993 -5.874008z" fill-rule="evenodd"/><path fill="#ffffff" d="m299.34647 128.19685l0 0c0 -3.244133 2.6298828 -5.874016 5.873993 -5.874016l0 0c1.5578918 0 3.0519714 0.61886597 4.1535645 1.720459c1.101593 1.1015854 1.720459 2.595665 1.720459 4.153557l0 0c0 3.2441254 -2.6298828 5.874008 -5.8740234 5.874008l0 0c-3.24411 0 -5.873993 -2.6298828 -5.873993 -5.874008z" fill-rule="evenodd"/><path fill="#000000" fill-opacity="0.0" d="m301.06693 124.0433l8.307098 8.307106m0 -8.307106l-8.307098 8.307106" fill-rule="evenodd"/><path fill="#000000" fill-opacity="0.0" d="m299.34647 128.19685l0 0c0 -3.244133 2.6298828 -5.874016 5.873993 -5.874016l0 0c1.5578918 0 3.0519714 0.61886597 4.1535645 1.720459c1.101593 1.1015854 1.720459 2.595665 1.720459 4.153557l0 0c0 3.2441254 -2.6298828 5.874008 -5.8740234 5.874008l0 0c-3.24411 0 -5.873993 -2.6298828 -5.873993 -5.874008z" fill-rule="evenodd"/><path stroke="#000000" stroke-width="1.0" stroke-linejoin="round" stroke-linecap="butt" d="m301.06693 124.0433l8.307098 8.307106m0 -8.307106l-8.307098 8.307106" fill-rule="evenodd"/><path stroke="#000000" stroke-width="1.0" stroke-linejoin="round" stroke-linecap="butt" d="m299.34647 128.19685l0 0c0 -3.244133 2.6298828 -5.874016 5.873993 -5.874016l0 0c1.5578918 0 3.0519714 0.61886597 4.1535645 1.720459c1.101593 1.1015854 1.720459 2.595665 1.720459 4.153557l0 0c0 3.2441254 -2.6298828 5.874008 -5.8740234 5.874008l0 0c-3.24411 0 -5.873993 -2.6298828 -5.873993 -5.874008z" fill-rule="evenodd"/><path fill="#ffffff" d="m342.20734 144.19685l0 0c0 -3.2441254 2.6299133 -5.8740234 5.8740234 -5.8740234l0 0c1.5578918 0 3.0519714 0.61886597 4.1535645 1.720459c1.101593 1.101593 1.720459 2.5956726 1.720459 4.1535645l0 0c0 3.2441254 -2.6298828 5.874008 -5.8740234 5.874008l0 0c-3.24411 0 -5.8740234 -2.6298828 -5.8740234 -5.874008z" fill-rule="evenodd"/><path fill="#000000" fill-opacity="0.0" d="m343.9278 140.04329l8.307129 8.307114m0 -8.307114l-8.307129 8.307114" fill-rule="evenodd"/><path fill="#000000" fill-opacity="0.0" d="m342.20734 144.19685l0 0c0 -3.2441254 2.6299133 -5.8740234 5.8740234 -5.8740234l0 0c1.5578918 0 3.0519714 0.61886597 4.1535645 1.720459c1.101593 1.101593 1.720459 2.5956726 1.720459 4.1535645l0 0c0 3.2441254 -2.6298828 5.874008 -5.8740234 5.874008l0 0c-3.24411 0 -5.8740234 -2.6298828 -5.8740234 -5.874008z" fill-rule="evenodd"/><path stroke="#000000" stroke-width="1.0" stroke-linejoin="round" stroke-linecap="butt" d="m343.9278 140.04329l8.307129 8.307114m0 -8.307114l-8.307129 8.307114" fill-rule="evenodd"/><path stroke="#000000" stroke-width="1.0" stroke-linejoin="round" stroke-linecap="butt" d="m342.20734 144.19685l0 0c0 -3.2441254 2.6299133 -5.8740234 5.8740234 -5.8740234l0 0c1.5578918 0 3.0519714 0.61886597 4.1535645 1.720459c1.101593 1.101593 1.720459 2.5956726 1.720459 4.1535645l0 0c0 3.2441254 -2.6298828 5.874008 -5.8740234 5.874008l0 0c-3.24411 0 -5.8740234 -2.6298828 -5.8740234 -5.874008z" fill-rule="evenodd"/><path fill="#ffffff" d="m364.71915 120.855644l0 0c0 -3.244133 2.6299133 -5.874016 5.8740234 -5.874016l0 0c1.5578918 0 3.0519714 0.61886597 4.1535645 1.720459c1.101593 1.101593 1.720459 2.5956726 1.720459 4.153557l0 0c0 3.2441254 -2.6298828 5.874016 -5.8740234 5.874016l0 0c-3.24411 0 -5.8740234 -2.6298904 -5.8740234 -5.874016z" fill-rule="evenodd"/><path fill="#000000" fill-opacity="0.0" d="m366.4396 116.70209l8.307129 8.307114m0 -8.307114l-8.307129 8.307114" fill-rule="evenodd"/><path fill="#000000" fill-opacity="0.0" d="m364.71915 120.855644l0 0c0 -3.244133 2.6299133 -5.874016 5.8740234 -5.874016l0 0c1.5578918 0 3.0519714 0.61886597 4.1535645 1.720459c1.101593 1.101593 1.720459 2.5956726 1.720459 4.153557l0 0c0 3.2441254 -2.6298828 5.874016 -5.8740234 5.874016l0 0c-3.24411 0 -5.8740234 -2.6298904 -5.8740234 -5.874016z" fill-rule="evenodd"/><path stroke="#000000" stroke-width="1.0" stroke-linejoin="round" stroke-linecap="butt" d="m366.4396 116.70209l8.307129 8.307114m0 -8.307114l-8.307129 8.307114" fill-rule="evenodd"/><path stroke="#000000" stroke-width="1.0" stroke-linejoin="round" stroke-linecap="butt" d="m364.71915 120.855644l0 0c0 -3.244133 2.6299133 -5.874016 5.8740234 -5.874016l0 0c1.5578918 0 3.0519714 0.61886597 4.1535645 1.720459c1.101593 1.101593 1.720459 2.5956726 1.720459 4.153557l0 0c0 3.2441254 -2.6298828 5.874016 -5.8740234 5.874016l0 0c-3.24411 0 -5.8740234 -2.6298904 -5.8740234 -5.874016z" fill-rule="evenodd"/><path fill="#ffffff" d="m414.9029 105.23753l0 0c0 -3.244133 2.6298828 -5.874016 5.8740234 -5.874016l0 0c1.5578613 0 3.051941 0.61886597 4.153534 1.720459c1.101593 1.101593 1.720459 2.5956726 1.720459 4.153557l0 0c0 3.2441254 -2.6298828 5.874016 -5.873993 5.874016l0 0c-3.2441406 0 -5.8740234 -2.6298904 -5.8740234 -5.874016z" fill-rule="evenodd"/><path fill="#000000" fill-opacity="0.0" d="m416.62335 101.08398l8.307098 8.307114m0 -8.307114l-8.307098 8.307114" fill-rule="evenodd"/><path fill="#000000" fill-opacity="0.0" d="m414.9029 105.23753l0 0c0 -3.244133 2.6298828 -5.874016 5.8740234 -5.874016l0 0c1.5578613 0 3.051941 0.61886597 4.153534 1.720459c1.101593 1.101593 1.720459 2.5956726 1.720459 4.153557l0 0c0 3.2441254 -2.6298828 5.874016 -5.873993 5.874016l0 0c-3.2441406 0 -5.8740234 -2.6298904 -5.8740234 -5.874016z" fill-rule="evenodd"/><path stroke="#000000" stroke-width="1.0" stroke-linejoin="round" stroke-linecap="butt" d="m416.62335 101.08398l8.307098 8.307114m0 -8.307114l-8.307098 8.307114" fill-rule="evenodd"/><path stroke="#000000" stroke-width="1.0" stroke-linejoin="round" stroke-linecap="butt" d="m414.9029 105.23753l0 0c0 -3.244133 2.6298828 -5.874016 5.8740234 -5.874016l0 0c1.5578613 0 3.051941 0.61886597 4.153534 1.720459c1.101593 1.101593 1.720459 2.5956726 1.720459 4.153557l0 0c0 3.2441254 -2.6298828 5.874016 -5.873993 5.874016l0 0c-3.2441406 0 -5.8740234 -2.6298904 -5.8740234 -5.874016z" fill-rule="evenodd"/><path fill="#000000" fill-opacity="0.0" d="m105.314964 280.65353l101.448814 0l0 50.834656l-101.448814 0z" fill-rule="evenodd"/><path fill="#000000" d="m115.54934 296.1048l0 -1.890625l1.640625 0l0 1.890625l-1.640625 0zm0 11.46875l0 -9.671875l1.640625 0l0 9.671875l-1.640625 0zm4.144821 0l0 -9.671875l1.46875 0l0 1.375q1.0625 -1.59375 3.078125 -1.59375q0.875 0 1.609375 0.3125q0.734375 0.3125 1.09375 0.828125q0.375 0.5 0.515625 1.203125q0.09375 0.453125 0.09375 1.59375l0 5.953125l-1.640625 0l0 -5.890625q0 -1.0 -0.203125 -1.484375q-0.1875 -0.5 -0.671875 -0.796875q-0.484375 -0.296875 -1.140625 -0.296875q-1.046875 0 -1.8125 0.671875q-0.75 0.65625 -0.75 2.515625l0 5.28125l-1.640625 0zm10.37571 3.703125l0 -13.375l1.484375 0l0 1.25q0.53125 -0.734375 1.1875 -1.09375q0.671875 -0.375 1.625 -0.375q1.234375 0 2.171875 0.640625q0.953125 0.625 1.4375 1.796875q0.484375 1.15625 0.484375 2.546875q0 1.484375 -0.53125 2.671875q-0.53125 1.1875 -1.546875 1.828125q-1.015625 0.625 -2.140625 0.625q-0.8125 0 -1.46875 -0.34375q-0.65625 -0.34375 -1.0625 -0.875l0 4.703125l-1.640625 0zm1.484375 -8.484375q0 1.859375 0.75 2.765625q0.765625 0.890625 1.828125 0.890625q1.09375 0 1.875 -0.921875q0.78125 -0.9375 0.78125 -2.875q0 -1.84375 -0.765625 -2.765625q-0.75 -0.921875 -1.8125 -0.921875q-1.046875 0 -1.859375 0.984375q-0.796875 0.96875 -0.796875 2.84375zm15.219467 4.78125l0 -1.421875q-1.125 1.640625 -3.0625 1.640625q-0.859375 0 -1.609375 -0.328125q-0.734375 -0.328125 -1.09375 -0.828125q-0.359375 -0.5 -0.5 -1.21875q-0.109375 -0.46875 -0.109375 -1.53125l0 -5.984375l1.640625 0l0 5.359375q0 1.28125 0.109375 1.734375q0.15625 0.640625 0.65625 1.015625q0.5 0.375 1.234375 0.375q0.734375 0 1.375 -0.375q0.65625 -0.390625 0.921875 -1.03125q0.265625 -0.65625 0.265625 -1.890625l0 -5.1875l1.640625 0l0 9.671875l-1.46875 0zm7.625717 -1.46875l0.234375 1.453125q-0.6875 0.140625 -1.234375 0.140625q-0.890625 0 -1.390625 -0.28125q-0.484375 -0.28125 -0.6875 -0.734375q-0.203125 -0.46875 -0.203125 -1.9375l0 -5.578125l-1.203125 0l0 -1.265625l1.203125 0l0 -2.390625l1.625 -0.984375l0 3.375l1.65625 0l0 1.265625l-1.65625 0l0 5.671875q0 0.6875 0.078125 0.890625q0.09375 0.203125 0.28125 0.328125q0.203125 0.109375 0.578125 0.109375q0.265625 0 0.71875 -0.0625z" fill-rule="nonzero"/><path fill="#000000" fill-opacity="0.0" d="m28.38845 244.15224l0 -144.78741l50.83465 0l0 144.78741z" fill-rule="evenodd"/><path fill="#000000" d="m50.4647 234.52724q-2.6875 0 -3.96875 -1.484375q-1.078125 -1.25 -1.078125 -3.046875q0 -2.0 1.3125 -3.265625q1.296875 -1.265625 3.609375 -1.265625q1.859375 0 2.9375 0.5625q1.0625 0.5625 1.65625 1.640625q0.59375 1.0625 0.59375 2.328125q0 2.03125 -1.296875 3.28125q-1.3125 1.25 -3.765625 1.25zm0 -1.6875q1.859375 0 2.796875 -0.796875q0.921875 -0.8125 0.921875 -2.046875q0 -1.21875 -0.921875 -2.03125q-0.9375 -0.8125 -2.84375 -0.8125q-1.796875 0 -2.71875 0.8125q-0.921875 0.8125 -0.921875 2.03125q0 1.234375 0.921875 2.046875q0.90625 0.796875 2.765625 0.796875zm4.84375 -15.625717l-1.421875 0q1.640625 1.125 1.640625 3.0625q0 0.859375 -0.328125 1.609375q-0.328125 0.734375 -0.828125 1.09375q-0.5 0.359375 -1.21875 0.5q-0.46875 0.109375 -1.53125 0.109375l-5.984375 0l0 -1.640625l5.359375 0q1.28125 0 1.734375 -0.109375q0.640625 -0.15625 1.015625 -0.65625q0.375 -0.5 0.375 -1.234375q0 -0.734375 -0.375 -1.375q-0.390625 -0.65625 -1.03125 -0.921875q-0.65625 -0.265625 -1.890625 -0.265625l-5.1875 0l0 -1.640625l9.671875 0l0 1.46875zm-1.46875 -7.625717l1.453125 -0.234375q0.140625 0.6875 0.140625 1.234375q0 0.890625 -0.28125 1.390625q-0.28125 0.484375 -0.734375 0.6875q-0.46875 0.203125 -1.9375 0.203125l-5.578125 0l0 1.203125l-1.265625 0l0 -1.203125l-2.390625 0l-0.984375 -1.625l3.375 0l0 -1.65625l1.265625 0l0 1.65625l5.671875 0q0.6875 0 0.890625 -0.078125q0.203125 -0.09375 0.328125 -0.28125q0.109375 -0.203125 0.109375 -0.578125q0 -0.265625 -0.0625 -0.71875zm5.171875 -1.6051788l-13.375 0l0 -1.484375l1.25 0q-0.734375 -0.53125 -1.09375 -1.1875q-0.375 -0.671875 -0.375 -1.625q0 -1.234375 0.640625 -2.171875q0.625 -0.953125 1.796875 -1.4375q1.15625 -0.484375 2.546875 -0.484375q1.484375 0 2.671875 0.53125q1.1875 0.53125 1.828125 1.546875q0.625 1.015625 0.625 2.140625q0 0.8125 -0.34375 1.46875q-0.34375 0.65625 -0.875 1.0625l4.703125 0l0 1.640625zm-8.484375 -1.484375q1.859375 0 2.765625 -0.75q0.890625 -0.765625 0.890625 -1.828125q0 -1.09375 -0.921875 -1.875q-0.9375 -0.78125 -2.875 -0.78125q-1.84375 0 -2.765625 0.765625q-0.921875 0.75 -0.921875 1.8125q0 1.046875 0.984375 1.859375q0.96875 0.796875 2.84375 0.796875zm4.78125 -15.219467l-1.421875 0q1.640625 1.125 1.640625 3.0625q0 0.859375 -0.328125 1.609375q-0.328125 0.734375 -0.828125 1.09375q-0.5 0.359375 -1.21875 0.5q-0.46875 0.109375 -1.53125 0.109375l-5.984375 0l0 -1.640625l5.359375 0q1.28125 0 1.734375 -0.109375q0.640625 -0.15625 1.015625 -0.65625q0.375 -0.5 0.375 -1.234375q0 -0.734375 -0.375 -1.375q-0.390625 -0.65625 -1.03125 -0.921875q-0.65625 -0.265625 -1.890625 -0.265625l-5.1875 0l0 -1.640625l9.671875 0l0 1.46875zm-1.46875 -7.625717l1.453125 -0.234375q0.140625 0.6875 0.140625 1.234375q0 0.890625 -0.28125 1.390625q-0.28125 0.484375 -0.734375 0.6875q-0.46875 0.203125 -1.9375 0.203125l-5.578125 0l0 1.203125l-1.265625 0l0 -1.203125l-2.390625 0l-0.984375 -1.625l3.375 0l0 -1.65625l1.265625 0l0 1.65625l5.671875 0q0.6875 0 0.890625 -0.078125q0.203125 -0.09375 0.328125 -0.28125q0.109375 -0.203125 0.109375 -0.578125q0 -0.265625 -0.0625 -0.71875z" fill-rule="nonzero"/><path fill="#000000" fill-opacity="0.0" d="m493.24588 29.878382l-94.11026 38.015747l18.992126 47.086617l94.11023 -38.015747z" fill-rule="evenodd"/><path fill="#38761d" d="m421.46307 86.3243l0.76086426 1.2598495q-0.58483887 0.38791656 -1.091919 0.5927429q-0.82577515 0.33358002 -1.3945923 0.2600174q-0.5543213 -0.07940674 -0.9121704 -0.4235611q-0.36367798 -0.35864258 -0.91308594 -1.7207642l-2.0865479 -5.173172l-1.1155701 0.45062256l-0.4734192 -1.1737442l1.1155396 -0.45062256l-0.8942261 -2.2170715l1.1384888 -1.521553l1.2624512 3.1299896l1.5357056 -0.62034607l0.4734192 1.1737518l-1.535675 0.62033844l2.1216125 5.2601166q0.25717163 0.6375885 0.40560913 0.79670715q0.16290283 0.1532669 0.3835144 0.19895935q0.22924805 0.025360107 0.5769348 -0.115097046q0.24630737 -0.099487305 0.6430664 -0.3271637zm2.0232544 0.7667618l-3.6178894 -8.969727l1.3618469 -0.5501175l0.54937744 1.3621216q0.13580322 -1.1670609 0.44769287 -1.6469345q0.3263855 -0.4857254 0.86242676 -0.7022629q0.7678528 -0.3101654 1.7633972 -0.13935852l0.04537964 1.6162796q-0.6994324 -0.10504913 -1.2499695 0.11734009q-0.5070801 0.20482635 -0.7755127 0.6671448q-0.2684021 0.4623108 -0.23184204 1.0542068q0.06652832 0.9168167 0.45809937 1.8876877l1.8937073 4.6949844l-1.5067139 0.60863495zm10.754578 -7.6977844l1.6406555 -0.44367218q0.17855835 1.5287781 -0.5112915 2.700592q-0.69573975 1.1573181 -2.2604065 1.7893677q-1.9703064 0.79590607 -3.614441 0.06136322q-1.6354675 -0.75489044 -2.518036 -2.9429855q-0.91760254 -2.275032 -0.261261 -3.989418q0.6708679 -1.7202301 2.5252686 -2.4693222q1.7964783 -0.7256775 3.4233093 0.049552917q1.635498 0.75489044 2.5297241 2.971962q0.058441162 0.14490509 0.16366577 0.40573883l-6.6932983 2.7037506q0.68310547 1.4429321 1.757904 1.9356003q1.0689697 0.47817993 2.1845398 0.027557373q0.840271 -0.33943176 1.2589111 -1.0140991q0.41281128 -0.68914795 0.37475586 -1.7859879zm-5.9918213 -0.44438934l5.012726 -2.0248795q-0.557312 -1.0893097 -1.2633362 -1.461319q-1.0809326 -0.5913162 -2.2399292 -0.12313843q-1.0431213 0.42136383 -1.4811096 1.4240189q-0.4293518 0.98231506 -0.02835083 2.185318zm10.632629 1.9232178l-3.6178894 -8.969727l1.3618469 -0.5501175l0.51434326 1.2751846q0.38897705 -1.8760071 2.2578735 -2.630951q0.8113098 -0.32772827 1.6091309 -0.3129654q0.79782104 0.014755249 1.3239136 0.35834503q0.534729 0.32324982 0.9281311 0.9226532q0.2564392 0.38511658 0.68307495 1.4429398l2.2268677 5.5209503l-1.5212097 0.6144867l-2.2034607 -5.46299q-0.37405396 -0.9273987 -0.7435913 -1.3005295q-0.36090088 -0.3934784 -0.921051 -0.48738098q-0.56018066 -0.09390259 -1.1686401 0.15189362q-0.9706726 0.3921051 -1.4292603 1.3019638q-0.44992065 0.88951874 0.24560547 2.6139069l1.9755249 4.89785l-1.5212097 0.6144867zm15.429993 -6.232933l-0.45587158 -1.1302719q-0.3025818 1.6725769 -1.9686584 2.345581q-1.0720825 0.43306732 -2.209961 0.20178986q-1.1378479 -0.23126984 -2.0570984 -1.0901184q-0.9192505 -0.85884094 -1.4744873 -2.2354507q-0.5435791 -1.3476334 -0.5328064 -2.61586q0.00491333 -1.2827072 0.6548767 -2.2193222q0.6644287 -0.94247437 1.7799988 -1.3930969q0.8112793 -0.32772827 1.5745239 -0.2315979q0.7719116 0.075790405 1.3851624 0.46842194l-1.794342 -4.448639l1.5212097 -0.6144867l4.9972534 12.389526l-1.4197998 0.5735245zm-6.60141 -2.5405197q0.6954956 1.7243881 1.76474 2.286728q1.0692139 0.5623398 2.0543823 0.16438293q0.9996338 -0.4038086 1.3677368 -1.4961929q0.36224365 -1.1068802 -0.3098755 -2.7733078q-0.74227905 -1.8403168 -1.7970276 -2.4085007q-1.0605774 -0.58267975 -2.1036987 -0.16131592q-0.9996338 0.40380096 -1.3474121 1.5048294q-0.3477478 1.1010208 0.3711548 2.883377z" fill-rule="nonzero"/><path fill="#000000" fill-opacity="0.0" d="m325.5643 227.11154l-33.543304 6.2362213" fill-rule="evenodd"/><path stroke="#000000" stroke-width="1.0" stroke-linejoin="round" stroke-linecap="butt" d="m325.5643 227.11154l-27.64441 5.1395264" fill-rule="evenodd"/><path fill="#000000" stroke="#000000" stroke-width="1.0" stroke-linecap="butt" d="m297.618 230.62717l-4.159729 2.4533844l4.76355 0.79441833z" fill-rule="evenodd"/><path fill="#000000" fill-opacity="0.0" d="m325.5643 196.89764l101.44882 0l0 50.83464l-101.44882 0z" fill-rule="evenodd"/><path fill="#000000" d="m335.1893 218.97389q0 -2.6875 1.484375 -3.96875q1.25 -1.078125 3.046875 -1.078125q2.0 0 3.265625 1.3125q1.265625 1.296875 1.265625 3.609375q0 1.859375 -0.5625 2.9375q-0.5625 1.0625 -1.640625 1.65625q-1.0625 0.59375 -2.328125 0.59375q-2.03125 0 -3.28125 -1.296875q-1.25 -1.3125 -1.25 -3.765625zm1.6875 0q0 1.859375 0.796875 2.796875q0.8125 0.921875 2.046875 0.921875q1.21875 0 2.03125 -0.921875q0.8125 -0.9375 0.8125 -2.84375q0 -1.796875 -0.8125 -2.71875q-0.8125 -0.921875 -2.03125 -0.921875q-1.234375 0 -2.046875 0.921875q-0.796875 0.90625 -0.796875 2.765625zm15.625732 4.84375l0 -1.421875q-1.125 1.640625 -3.0625 1.640625q-0.859375 0 -1.609375 -0.328125q-0.734375 -0.328125 -1.09375 -0.828125q-0.359375 -0.5 -0.5 -1.21875q-0.109375 -0.46875 -0.109375 -1.53125l0 -5.984375l1.640625 0l0 5.359375q0 1.28125 0.109375 1.734375q0.15625 0.640625 0.65625 1.015625q0.5 0.375 1.234375 0.375q0.734375 0 1.375 -0.375q0.65625 -0.390625 0.921875 -1.03125q0.265625 -0.65625 0.265625 -1.890625l0 -5.1875l1.640625 0l0 9.671875l-1.46875 0zm7.625702 -1.46875l0.234375 1.453125q-0.6875 0.140625 -1.234375 0.140625q-0.890625 0 -1.390625 -0.28125q-0.484375 -0.28125 -0.6875 -0.734375q-0.203125 -0.46875 -0.203125 -1.9375l0 -5.578125l-1.203125 0l0 -1.265625l1.203125 0l0 -2.390625l1.625 -0.984375l0 3.375l1.65625 0l0 1.265625l-1.65625 0l0 5.671875q0 0.6875 0.078125 0.890625q0.09375 0.203125 0.28125 0.328125q0.203125 0.109375 0.578125 0.109375q0.265625 0 0.71875 -0.0625zm1.5583191 1.46875l0 -13.359375l1.640625 0l0 13.359375l-1.640625 0zm4.191681 -11.46875l0 -1.890625l1.640625 0l0 1.890625l-1.640625 0zm0 11.46875l0 -9.671875l1.640625 0l0 9.671875l-1.640625 0zm10.769836 -3.109375l1.6875 0.203125q-0.40625 1.484375 -1.484375 2.3125q-1.078125 0.8125 -2.765625 0.8125q-2.125 0 -3.375 -1.296875q-1.234375 -1.3125 -1.234375 -3.671875q0 -2.453125 1.25 -3.796875q1.265625 -1.34375 3.265625 -1.34375q1.9375 0 3.15625 1.328125q1.234375 1.3125 1.234375 3.703125q0 0.15625 0 0.4375l-7.21875 0q0.09375 1.59375 0.90625 2.453125q0.8125 0.84375 2.015625 0.84375q0.90625 0 1.546875 -0.46875q0.640625 -0.484375 1.015625 -1.515625zm-5.390625 -2.65625l5.40625 0q-0.109375 -1.21875 -0.625 -1.828125q-0.78125 -0.953125 -2.03125 -0.953125q-1.125 0 -1.90625 0.765625q-0.765625 0.75 -0.84375 2.015625zm9.125702 5.765625l0 -9.671875l1.46875 0l0 1.46875q0.5625 -1.03125 1.03125 -1.359375q0.484375 -0.328125 1.0625 -0.328125q0.828125 0 1.6875 0.53125l-0.5625 1.515625q-0.609375 -0.359375 -1.203125 -0.359375q-0.546875 0 -0.96875 0.328125q-0.421875 0.328125 -0.609375 0.890625q-0.28125 0.875 -0.28125 1.921875l0 5.0625l-1.625 0z" fill-rule="nonzero"/><path fill="#000000" fill-opacity="0.0" d="m149.91602 87.48819l73.03937 0l0 50.83464l-73.03937 0z" fill-rule="evenodd"/><path fill="#000000" d="m166.41602 114.40819l0 -1.21875q-0.90625 1.4375 -2.703125 1.4375q-1.15625 0 -2.125 -0.640625q-0.96875 -0.640625 -1.5 -1.78125q-0.53125 -1.140625 -0.53125 -2.625q0 -1.453125 0.484375 -2.625q0.484375 -1.1875 1.4375 -1.8125q0.96875 -0.625 2.171875 -0.625q0.875 0 1.546875 0.375q0.6875 0.359375 1.109375 0.953125l0 -4.796875l1.640625 0l0 13.359375l-1.53125 0zm-5.171875 -4.828125q0 1.859375 0.78125 2.78125q0.78125 0.921875 1.84375 0.921875q1.078125 0 1.828125 -0.875q0.75 -0.890625 0.75 -2.6875q0 -1.984375 -0.765625 -2.90625q-0.765625 -0.9375 -1.890625 -0.9375q-1.078125 0 -1.8125 0.890625q-0.734375 0.890625 -0.734375 2.8125zm15.594467 3.640625q-0.921875 0.765625 -1.765625 1.09375q-0.828125 0.3125 -1.796875 0.3125q-1.59375 0 -2.453125 -0.78125q-0.859375 -0.78125 -0.859375 -1.984375q0 -0.71875 0.328125 -1.296875q0.328125 -0.59375 0.84375 -0.9375q0.53125 -0.359375 1.1875 -0.546875q0.46875 -0.125 1.453125 -0.25q1.984375 -0.234375 2.921875 -0.5625q0.015625 -0.34375 0.015625 -0.421875q0 -1.0 -0.46875 -1.421875q-0.625 -0.546875 -1.875 -0.546875q-1.15625 0 -1.703125 0.40625q-0.546875 0.40625 -0.8125 1.421875l-1.609375 -0.21875q0.21875 -1.015625 0.71875 -1.640625q0.5 -0.640625 1.453125 -0.984375q0.953125 -0.34375 2.1875 -0.34375q1.25 0 2.015625 0.296875q0.78125 0.28125 1.140625 0.734375q0.375 0.4375 0.515625 1.109375q0.078125 0.421875 0.078125 1.515625l0 2.1875q0 2.28125 0.109375 2.890625q0.109375 0.59375 0.40625 1.15625l-1.703125 0q-0.265625 -0.515625 -0.328125 -1.1875zm-0.140625 -3.671875q-0.890625 0.375 -2.671875 0.625q-1.015625 0.140625 -1.4375 0.328125q-0.421875 0.1875 -0.65625 0.53125q-0.21875 0.34375 -0.21875 0.78125q0 0.65625 0.5 1.09375q0.5 0.4375 1.453125 0.4375q0.9375 0 1.671875 -0.40625q0.75 -0.421875 1.09375 -1.140625q0.265625 -0.5625 0.265625 -1.640625l0 -0.609375zm7.781967 3.390625l0.234375 1.453125q-0.6875 0.140625 -1.234375 0.140625q-0.890625 0 -1.390625 -0.28125q-0.484375 -0.28125 -0.6875 -0.734375q-0.203125 -0.46875 -0.203125 -1.9375l0 -5.578125l-1.203125 0l0 -1.265625l1.203125 0l0 -2.390625l1.625 -0.984375l0 3.375l1.65625 0l0 1.265625l-1.65625 0l0 5.671875q0 0.6875 0.078125 0.890625q0.09375 0.203125 0.28125 0.328125q0.203125 0.109375 0.578125 0.109375q0.265625 0 0.71875 -0.0625zm7.917679 0.28125q-0.921875 0.765625 -1.765625 1.09375q-0.828125 0.3125 -1.796875 0.3125q-1.59375 0 -2.453125 -0.78125q-0.859375 -0.78125 -0.859375 -1.984375q0 -0.71875 0.328125 -1.296875q0.328125 -0.59375 0.84375 -0.9375q0.53125 -0.359375 1.1875 -0.546875q0.46875 -0.125 1.453125 -0.25q1.984375 -0.234375 2.921875 -0.5625q0.015625 -0.34375 0.015625 -0.421875q0 -1.0 -0.46875 -1.421875q-0.625 -0.546875 -1.875 -0.546875q-1.15625 0 -1.703125 0.40625q-0.546875 0.40625 -0.8125 1.421875l-1.609375 -0.21875q0.21875 -1.015625 0.71875 -1.640625q0.5 -0.640625 1.453125 -0.984375q0.953125 -0.34375 2.1875 -0.34375q1.25 0 2.015625 0.296875q0.78125 0.28125 1.140625 0.734375q0.375 0.4375 0.515625 1.109375q0.078125 0.421875 0.078125 1.515625l0 2.1875q0 2.28125 0.109375 2.890625q0.109375 0.59375 0.40625 1.15625l-1.703125 0q-0.265625 -0.515625 -0.328125 -1.1875zm-0.140625 -3.671875q-0.890625 0.375 -2.671875 0.625q-1.015625 0.140625 -1.4375 0.328125q-0.421875 0.1875 -0.65625 0.53125q-0.21875 0.34375 -0.21875 0.78125q0 0.65625 0.5 1.09375q0.5 0.4375 1.453125 0.4375q0.9375 0 1.671875 -0.40625q0.75 -0.421875 1.09375 -1.140625q0.265625 -0.5625 0.265625 -1.640625l0 -0.609375z" fill-rule="nonzero"/><path fill="#000000" fill-opacity="0.0" d="m217.32808 122.9042l39.338577 21.291344" fill-rule="evenodd"/><path stroke="#000000" stroke-width="1.0" stroke-linejoin="round" stroke-linecap="butt" d="m217.32808 122.9042l34.061874 18.435417" fill-rule="evenodd"/><path fill="#000000" stroke="#000000" stroke-width="1.0" stroke-linecap="butt" d="m250.60374 142.79222l4.777252 0.70747375l-3.204834 -3.6127014z" fill-rule="evenodd"/><path fill="#000000" fill-opacity="0.0" d="m123.48294 198.36482l-33.133858 0" fill-rule="evenodd"/><path stroke="#cc0000" stroke-width="1.0" stroke-linejoin="round" stroke-linecap="butt" stroke-dasharray="4.0,3.0" d="m123.48294 198.36482l-27.133858 0" fill-rule="evenodd"/><path fill="#cc0000" stroke="#cc0000" stroke-width="1.0" stroke-linecap="butt" d="m96.34908 196.7131l-4.538101 1.6517181l4.538101 1.6517334z" fill-rule="evenodd"/><path fill="#000000" fill-opacity="0.0" d="m129.35695 204.23885l0 64.377945" fill-rule="evenodd"/><path stroke="#cc0000" stroke-width="1.0" stroke-linejoin="round" stroke-linecap="butt" stroke-dasharray="4.0,3.0" d="m129.35695 204.23885l0 58.377945" fill-rule="evenodd"/><path fill="#cc0000" stroke="#cc0000" stroke-width="1.0" stroke-linecap="butt" d="m127.70522 262.6168l1.6517258 4.5381165l1.6517334 -4.5381165z" fill-rule="evenodd"/><path fill="#000000" fill-opacity="0.0" d="m466.86615 280.65353l26.2677 0l0 50.834656l-26.2677 0z" fill-rule="evenodd"/><path fill="#000000" d="m476.00677 307.57355l3.53125 -5.03125l-3.265625 -4.640625l2.046875 0l1.484375 2.265625q0.421875 0.640625 0.671875 1.078125q0.40625 -0.59375 0.734375 -1.0625l1.640625 -2.28125l1.953125 0l-3.34375 4.546875l3.59375 5.125l-2.015625 0l-1.984375 -3.0l-0.515625 -0.8125l-2.546875 3.8125l-1.984375 0z" fill-rule="nonzero"/><path fill="#000000" fill-opacity="0.0" d="m22.689764 18.742783l117.95275 0l0 50.83465l-117.95275 0z" fill-rule="evenodd"/><path fill="#000000" d="m32.846016 49.38153l-0.1875 -1.53125q0.546875 0.140625 0.9375 0.140625q0.546875 0 0.875 -0.1875q0.328125 -0.171875 0.546875 -0.5q0.15625 -0.25 0.5 -1.21875q0.046875 -0.140625 0.140625 -0.40625l-3.671877 -9.6875l1.7656269 0l2.015625 5.59375q0.390625 1.078125 0.703125 2.25q0.28125 -1.125 0.671875 -2.203125l2.078125 -5.640625l1.640625 0l-3.6875 9.828125q-0.59375 1.609375 -0.921875 2.203125q-0.4375 0.8125 -1.0 1.1875q-0.5625 0.375 -1.34375 0.375q-0.484375 0 -1.0625 -0.203125zm23.214554 -11.578125l-8.828125 0l0 -1.515625l8.828125 0l0 1.515625zm0 4.0625l-8.828125 0l0 -1.53125l8.828125 0l0 1.53125zm7.8438873 3.796875l0 -8.40625l-1.453125 0l0 -1.265625l1.453125 0l0 -1.03125q0 -0.96875 0.171875 -1.453125q0.234375 -0.640625 0.828125 -1.03125q0.59375 -0.390625 1.671875 -0.390625q0.6875 0 1.53125 0.15625l-0.25 1.4375q-0.5 -0.09375 -0.953125 -0.09375q-0.75 0 -1.0625 0.328125q-0.3125 0.3125 -0.3125 1.1875l0 0.890625l1.890625 0l0 1.265625l-1.890625 0l0 8.40625l-1.625 0zm7.917679 3.921875q-1.359375 -1.703125 -2.296875 -4.0q-0.9375 -2.296875 -0.9375 -4.765625q0 -2.15625 0.703125 -4.140625q0.828125 -2.3125 2.53125 -4.59375l1.171875 0q-1.09375 1.890625 -1.453125 2.703125q-0.546875 1.25 -0.875 2.625q-0.390625 1.703125 -0.390625 3.421875q0 4.375 2.71875 8.75l-1.171875 0zm1.993927 -3.921875l3.53125 -5.03125l-3.265625 -4.640625l2.046875 0l1.484375 2.265625q0.421875 0.640625 0.671875 1.078125q0.40625 -0.59375 0.734375 -1.0625l1.640625 -2.28125l1.953125 0l-3.34375 4.546875l3.59375 5.125l-2.015625 0l-1.984375 -3.0l-0.515625 -0.8125l-2.546875 3.8125l-1.984375 0zm11.5 3.921875l-1.1875 0q2.734375 -4.375 2.734375 -8.75q0 -1.71875 -0.390625 -3.390625q-0.3125 -1.375 -0.875 -2.625q-0.359375 -0.828125 -1.46875 -2.734375l1.1875 0q1.703125 2.28125 2.53125 4.59375q0.6875 1.984375 0.6875 4.140625q0 2.46875 -0.9375 4.765625q-0.9375 2.296875 -2.28125 4.0z" fill-rule="nonzero"/><path fill="#000000" fill-opacity="0.0" d="m10.406824 280.65353l101.44882 0l0 50.834656l-101.44882 0z" fill-rule="evenodd"/><path fill="#000000" d="m23.7662 311.49542q-1.359375 -1.703125 -2.296875 -4.0q-0.9375 -2.296875 -0.9375 -4.765625q0 -2.15625 0.703125 -4.140625q0.828125 -2.3125 2.53125 -4.59375l1.171875 0q-1.09375 1.890625 -1.453125 2.703125q-0.546875 1.25 -0.875 2.625q-0.390625 1.703125 -0.390625 3.421875q0 4.375 2.71875 8.75l-1.171875 0zm2.634552 -10.515625q0 -2.359375 0.484375 -3.796875q0.484375 -1.453125 1.4375 -2.234375q0.96875 -0.78125 2.421875 -0.78125q1.078125 0 1.8906269 0.4375q0.8125 0.421875 1.328125 1.25q0.53125 0.8125 0.828125 1.984375q0.3125 1.15625 0.3125 3.140625q0 2.359375 -0.484375 3.8125q-0.484375 1.4375 -1.453125 2.234375q-0.953125 0.78125 -2.421877 0.78125q-1.921875 0 -3.03125 -1.390625q-1.3125 -1.671875 -1.3125 -5.4375zm1.671875 0q0 3.296875 0.765625 4.390625q0.78125 1.078125 1.90625 1.078125q1.140625 0 1.9062519 -1.09375q0.765625 -1.09375 0.765625 -4.375q0 -3.296875 -0.765625 -4.375q-0.7656269 -1.078125 -1.9218769 -1.078125q-1.125 0 -1.796875 0.953125q-0.859375 1.21875 -0.859375 4.5zm9.578844 6.59375l0 -1.875l1.875 0l0 1.875q0 1.03125 -0.375 1.65625q-0.359375 0.640625 -1.15625 0.984375l-0.453125 -0.703125q0.515625 -0.21875 0.765625 -0.671875q0.25 -0.4375 0.28125 -1.265625l-0.9375 0zm4.308304 -6.59375q0 -2.359375 0.484375 -3.796875q0.484375 -1.453125 1.4375 -2.234375q0.96875 -0.78125 2.421875 -0.78125q1.078125 0 1.890625 0.4375q0.8125 0.421875 1.328125 1.25q0.53125 0.8125 0.828125 1.984375q0.3125 1.15625 0.3125 3.140625q0 2.359375 -0.484375 3.8125q-0.484375 1.4375 -1.453125 2.234375q-0.953125 0.78125 -2.421875 0.78125q-1.921875 0 -3.03125 -1.390625q-1.3125 -1.671875 -1.3125 -5.4375zm1.671875 0q0 3.296875 0.765625 4.390625q0.78125 1.078125 1.90625 1.078125q1.140625 0 1.90625 -1.09375q0.765625 -1.09375 0.765625 -4.375q0 -3.296875 -0.765625 -4.375q-0.765625 -1.078125 -1.921875 -1.078125q-1.125 0 -1.796875 0.953125q-0.859375 1.21875 -0.859375 4.5zm10.235092 10.515625l-1.1875 0q2.734375 -4.375 2.734375 -8.75q0 -1.71875 -0.390625 -3.390625q-0.3125 -1.375 -0.875 -2.625q-0.359375 -0.828125 -1.46875 -2.734375l1.1875 0q1.703125 2.28125 2.53125 4.59375q0.6875 1.984375 0.6875 4.140625q0 2.46875 -0.9375 4.765625q-0.9375 2.296875 -2.28125 4.0z" fill-rule="nonzero"/></g></svg>