<svg version="1.1" viewBox="0.0 0.0 308.7821522309711 232.2230971128609" fill="none" stroke="none" stroke-linecap="square" stroke-miterlimit="10" xmlns:xlink="http://www.w3.org/1999/xlink" xmlns="http://www.w3.org/2000/svg"><clipPath id="p.0"><path d="m0 0l308.78217 0l0 232.2231l-308.78217 0l0 -232.2231z" clip-rule="nonzero"/></clipPath><g clip-path="url(#p.0)"><path fill="#000000" fill-opacity="0.0" d="m0 0l308.78217 0l0 232.2231l-308.78217 0z" fill-rule="evenodd"/><path fill="#666666" d="m11.094486 8.6850395l71.40158 0l0 22.047243l-71.40158 0z" fill-rule="evenodd"/><path stroke="#000000" stroke-width="1.0" stroke-linejoin="round" stroke-linecap="butt" d="m11.094486 8.6850395l71.40158 0l0 22.047243l-71.40158 0z" fill-rule="evenodd"/><path fill="#ffffff" d="m22.939804 22.38866l0 -5.734375l2.421875 0q0.921875 0 1.328125 0.15625q0.421875 0.15625 0.671875 0.5625q0.25 0.390625 0.25 0.890625q0 0.640625 -0.375 1.0625q-0.375 0.421875 -1.125 0.53125q0.375 0.21875 0.609375 0.484375q0.25 0.265625 0.65625 0.921875l0.703125 1.125l-1.375 0l-0.84375 -1.25q-0.4375 -0.671875 -0.609375 -0.84375q-0.15625 -0.171875 -0.34375 -0.234375q-0.1875 -0.0625 -0.578125 -0.0625l-0.234375 0l0 2.390625l-1.15625 0zm1.15625 -3.3125l0.84375 0q0.84375 0 1.046875 -0.0625q0.203125 -0.078125 0.3125 -0.25q0.125 -0.171875 0.125 -0.421875q0 -0.296875 -0.15625 -0.46875q-0.15625 -0.171875 -0.4375 -0.21875q-0.140625 -0.03125 -0.84375 -0.03125l-0.890625 0l0 1.453125zm7.0117188 1.984375l1.09375 0.1875q-0.21875 0.609375 -0.671875 0.921875q-0.453125 0.3125 -1.140625 0.3125q-1.078125 0 -1.59375 -0.703125q-0.421875 -0.578125 -0.421875 -1.4375q0 -1.03125 0.53125 -1.609375q0.546875 -0.59375 1.375 -0.59375q0.921875 0 1.453125 0.625q0.546875 0.609375 0.515625 1.859375l-2.75 0q0.015625 0.5 0.265625 0.765625q0.265625 0.265625 0.640625 0.265625q0.25 0 0.421875 -0.140625q0.1875 -0.140625 0.28125 -0.453125zm0.0625 -1.109375q-0.015625 -0.46875 -0.25 -0.71875q-0.234375 -0.25 -0.578125 -0.25q-0.359375 0 -0.59375 0.265625q-0.234375 0.265625 -0.21875 0.703125l1.640625 0zm4.6835938 4.015625l0 -2.09375q-0.203125 0.28125 -0.53125 0.453125q-0.3125 0.15625 -0.6875 0.15625q-0.703125 0 -1.171875 -0.53125q-0.53125 -0.625 -0.53125 -1.6875q0 -1.0 0.5 -1.5625q0.515625 -0.5625 1.265625 -0.5625q0.40625 0 0.703125 0.1875q0.3125 0.171875 0.546875 0.53125l0 -0.625l1.015625 0l0 5.734375l-1.109375 0zm0.046875 -3.703125q0 -0.640625 -0.265625 -0.953125q-0.265625 -0.3125 -0.65625 -0.3125q-0.390625 0 -0.65625 0.328125q-0.265625 0.3125 -0.265625 1.0q0 0.6875 0.25 0.984375q0.265625 0.296875 0.640625 0.296875q0.375 0 0.65625 -0.328125q0.296875 -0.34375 0.296875 -1.015625zm4.8710938 2.125l0 -0.625q-0.234375 0.328125 -0.609375 0.53125q-0.359375 0.1875 -0.765625 0.1875q-0.421875 0 -0.765625 -0.1875q-0.328125 -0.1875 -0.484375 -0.515625q-0.140625 -0.328125 -0.140625 -0.921875l0 -2.625l1.109375 0l0 1.90625q0 0.875 0.046875 1.078125q0.0625 0.203125 0.21875 0.3125q0.171875 0.109375 0.421875 0.109375q0.28125 0 0.5 -0.140625q0.21875 -0.15625 0.296875 -0.390625q0.09375 -0.234375 0.09375 -1.125l0 -1.75l1.09375 0l0 4.15625l-1.015625 0zm2.1523438 -4.71875l0 -1.015625l1.09375 0l0 1.015625l-1.09375 0zm0 4.71875l0 -4.15625l1.09375 0l0 4.15625l-1.09375 0zm3.2695312 0l-1.09375 0l0 -4.15625l1.015625 0l0 0.59375q0.265625 -0.421875 0.46875 -0.546875q0.21875 -0.140625 0.484375 -0.140625q0.375 0 0.71875 0.21875l-0.34375 0.953125q-0.28125 -0.1875 -0.515625 -0.1875q-0.234375 0 -0.390625 0.140625q-0.15625 0.125 -0.25 0.453125q-0.09375 0.328125 -0.09375 1.390625l0 1.28125zm4.4726562 -1.328125l1.09375 0.1875q-0.21875 0.609375 -0.671875 0.921875q-0.453125 0.3125 -1.140625 0.3125q-1.078125 0 -1.59375 -0.703125q-0.421875 -0.578125 -0.421875 -1.4375q0 -1.03125 0.53125 -1.609375q0.546875 -0.59375 1.375 -0.59375q0.921875 0 1.453125 0.625q0.546875 0.609375 0.515625 1.859375l-2.75 0q0.015625 0.5 0.265625 0.765625q0.265625 0.265625 0.640625 0.265625q0.25 0 0.421875 -0.140625q0.1875 -0.140625 0.28125 -0.453125zm0.0625 -1.109375q-0.015625 -0.46875 -0.25 -0.71875q-0.234375 -0.25 -0.578125 -0.25q-0.359375 0 -0.59375 0.265625q-0.234375 0.265625 -0.21875 0.703125l1.640625 0zm1.9023438 -1.71875l1.0 0l0 0.578125q0.546875 -0.671875 1.296875 -0.671875q0.40625 0 0.6875 0.171875q0.296875 0.15625 0.484375 0.5q0.28125 -0.34375 0.59375 -0.5q0.3125 -0.171875 0.671875 -0.171875q0.453125 0 0.765625 0.1875q0.328125 0.1875 0.484375 0.546875q0.109375 0.265625 0.109375 0.859375l0 2.65625l-1.09375 0l0 -2.375q0 -0.609375 -0.109375 -0.796875q-0.15625 -0.234375 -0.46875 -0.234375q-0.234375 0 -0.4375 0.140625q-0.203125 0.140625 -0.296875 0.421875q-0.09375 0.265625 -0.09375 0.84375l0 2.0l-1.09375 0l0 -2.28125q0 -0.59375 -0.0625 -0.765625q-0.046875 -0.1875 -0.171875 -0.265625q-0.125 -0.09375 -0.34375 -0.09375q-0.25 0 -0.453125 0.140625q-0.203125 0.140625 -0.296875 0.40625q-0.078125 0.25 -0.078125 0.84375l0 2.015625l-1.09375 0l0 -4.15625zm9.597656 2.828125l1.09375 0.1875q-0.21875 0.609375 -0.671875 0.921875q-0.453125 0.3125 -1.140625 0.3125q-1.078125 0 -1.59375 -0.703125q-0.421875 -0.578125 -0.421875 -1.4375q0 -1.03125 0.53125 -1.609375q0.546875 -0.59375 1.375 -0.59375q0.921875 0 1.453125 0.625q0.546875 0.609375 0.515625 1.859375l-2.75 0q0.015625 0.5 0.265625 0.765625q0.265625 0.265625 0.640625 0.265625q0.25 0 0.421875 -0.140625q0.1875 -0.140625 0.28125 -0.453125zm0.0625 -1.109375q-0.015625 -0.46875 -0.25 -0.71875q-0.234375 -0.25 -0.578125 -0.25q-0.359375 0 -0.59375 0.265625q-0.234375 0.265625 -0.21875 0.703125l1.640625 0zm5.7460938 2.4375l-1.09375 0l0 -2.125q0 -0.671875 -0.078125 -0.859375q-0.0625 -0.203125 -0.21875 -0.3125q-0.15625 -0.109375 -0.375 -0.109375q-0.296875 0 -0.53125 0.15625q-0.21875 0.15625 -0.296875 0.421875q-0.078125 0.25 -0.078125 0.953125l0 1.875l-1.109375 0l0 -4.15625l1.03125 0l0 0.609375q0.53125 -0.703125 1.359375 -0.703125q0.359375 0 0.65625 0.140625q0.3125 0.125 0.46875 0.328125q0.15625 0.203125 0.203125 0.46875q0.0625 0.25 0.0625 0.734375l0 2.578125zm3.0273438 -4.15625l0 0.875l-0.75 0l0 1.671875q0 0.515625 0.015625 0.609375q0.015625 0.078125 0.09375 0.140625q0.078125 0.046875 0.1875 0.046875q0.15625 0 0.4375 -0.109375l0.09375 0.84375q-0.375 0.171875 -0.859375 0.171875q-0.296875 0 -0.546875 -0.09375q-0.234375 -0.109375 -0.34375 -0.265625q-0.109375 -0.15625 -0.15625 -0.421875q-0.03125 -0.203125 -0.03125 -0.78125l0 -1.8125l-0.5 0l0 -0.875l0.5 0l0 -0.8125l1.109375 -0.640625l0 1.453125l0.75 0z" fill-rule="nonzero"/><path fill="#a72a1e" d="m11.551209 55.199474l70.48819 0l0 22.047245l-70.48819 0z" fill-rule="evenodd"/><path stroke="#a61c00" stroke-width="1.0" stroke-linejoin="round" stroke-linecap="butt" d="m11.551209 55.199474l70.48819 0l0 22.047245l-70.48819 0z" fill-rule="evenodd"/><path fill="#ffffff" d="m34.908585 68.9031l0 -5.687504l1.75 0q0.75 0 1.328125 0.34375q0.59375 0.328125 0.921875 0.9531288q0.34375 0.625 0.34375 1.421875l0 0.25q0 0.796875 -0.328125 1.421875q-0.328125 0.609375 -0.921875 0.953125q-0.59375 0.34375 -1.34375 0.34375l-1.75 0zm1.171875 -4.734375l0 3.796875l0.5625 0q0.6875 0 1.046875 -0.453125q0.359375 -0.453125 0.375 -1.28125l0 -0.3125q0 -0.859375 -0.359375 -1.296875q-0.359375 -0.453125 -1.046875 -0.453125l-0.578125 0zm5.8867188 4.8125q-0.921875 0 -1.515625 -0.5625q-0.578125 -0.578125 -0.578125 -1.53125l0 -0.109375q0 -0.640625 0.25 -1.140625q0.25 -0.5 0.6875 -0.765625q0.453125 -0.28125 1.03125 -0.28125q0.875 0 1.375 0.546875q0.5 0.546875 0.5 1.5625l0 0.453125l-2.703125 0q0.0625 0.421875 0.328125 0.671875q0.28125 0.25 0.703125 0.25q0.65625 0 1.015625 -0.484375l0.5625 0.625q-0.25 0.359375 -0.6875 0.5625q-0.4375 0.203125 -0.96875 0.203125zm-0.125 -3.46875q-0.328125 0 -0.546875 0.234375q-0.203125 0.21875 -0.265625 0.640625l1.578125 0l0 -0.09375q-0.015625 -0.375 -0.21875 -0.578125q-0.1875 -0.203125 -0.546875 -0.203125zm4.7929688 2.21875q0 -0.203125 -0.203125 -0.3125q-0.203125 -0.125 -0.65625 -0.21875q-1.5 -0.328125 -1.5 -1.28125q0 -0.5625 0.453125 -0.9375q0.46875 -0.390625 1.234375 -0.390625q0.796875 0 1.28125 0.390625q0.484375 0.375 0.484375 0.984375l-1.125 0q0 -0.25 -0.15625 -0.40625q-0.15625 -0.15625 -0.5 -0.15625q-0.28125 0 -0.4375 0.125q-0.15625 0.125 -0.15625 0.328125q0 0.1875 0.171875 0.3125q0.1875 0.109375 0.609375 0.203125q0.421875 0.078125 0.703125 0.171875q0.90625 0.328125 0.90625 1.140625q0 0.578125 -0.5 0.9375q-0.5 0.359375 -1.28125 0.359375q-0.53125 0 -0.953125 -0.1875q-0.40625 -0.1875 -0.640625 -0.515625q-0.234375 -0.34375 -0.234375 -0.71875l1.078125 0q0.015625 0.296875 0.21875 0.46875q0.203125 0.15625 0.546875 0.15625q0.328125 0 0.484375 -0.125q0.171875 -0.125 0.171875 -0.328125zm3.0195312 1.171875l-1.125 0l0 -4.234375l1.125 0l0 4.234375zm-1.203125 -5.328129q0 -0.25 0.171875 -0.40625q0.171875 -0.171875 0.46875 -0.171875q0.28125 0 0.453125 0.171875q0.171875 0.15625 0.171875 0.40625q0 0.265625 -0.171875 0.4375038q-0.171875 0.15625 -0.453125 0.15625q-0.28125 0 -0.46875 -0.15625q-0.171875 -0.17187881 -0.171875 -0.4375038zm1.9648438 3.1875038q0 -0.984375 0.46875 -1.578125q0.46875 -0.59375 1.25 -0.59375q0.6875 0 1.078125 0.484375l0.046875 -0.40625l1.03125 0l0 4.09375q0 0.5625 -0.265625 0.96875q-0.25 0.40625 -0.703125 0.625q-0.453125 0.21875 -1.0625 0.21875q-0.46875 0 -0.921875 -0.1875q-0.4375 -0.1875 -0.65625 -0.484375l0.5 -0.6875q0.421875 0.46875 1.015625 0.46875q0.453125 0 0.703125 -0.234375q0.25 -0.234375 0.25 -0.6875l0 -0.21875q-0.390625 0.4375 -1.03125 0.4375q-0.75 0 -1.234375 -0.59375q-0.46875 -0.59375 -0.46875 -1.578125l0 -0.046875zm1.140625 0.078125q0 0.578125 0.21875 0.90625q0.234375 0.3125 0.640625 0.3125q0.515625 0 0.734375 -0.375l0 -1.78125q-0.21875 -0.390625 -0.734375 -0.390625q-0.40625 0 -0.640625 0.34375q-0.21875 0.328125 -0.21875 0.984375zm4.6289062 -2.171875l0.046875 0.5q0.453125 -0.578125 1.203125 -0.578125q0.671875 0 1.0 0.40625q0.328125 0.390625 0.34375 1.171875l0 2.734375l-1.125 0l0 -2.703125q0 -0.359375 -0.15625 -0.515625q-0.15625 -0.171875 -0.53125 -0.171875q-0.46875 0 -0.703125 0.40625l0 2.984375l-1.140625 0l0 -4.234375l1.0625 0z" fill-rule="nonzero"/><path fill="#b02c20" d="m65.89239 92.46457l70.48818 0l0 22.047241l-70.48818 0z" fill-rule="evenodd"/><path stroke="#a61c00" stroke-width="1.0" stroke-linejoin="round" stroke-linecap="butt" d="m65.89239 92.46457l70.48818 0l0 22.047241l-70.48818 0z" fill-rule="evenodd"/><path fill="#ffffff" d="m74.507576 106.16819l-1.171875 0l0 -5.6875l1.171875 0l0 5.6875zm2.0820312 -4.234375l0.03125 0.484375q0.453125 -0.5625 1.21875 -0.5625q0.8125 0 1.109375 0.65625q0.453125 -0.65625 1.28125 -0.65625q0.6875 0 1.015625 0.40625q0.34375 0.40625 0.34375 1.203125l0 2.703125l-1.140625 0l0 -2.703125q0 -0.359375 -0.140625 -0.515625q-0.140625 -0.171875 -0.5 -0.171875q-0.5 0 -0.703125 0.484375l0.015625 2.90625l-1.140625 0l0 -2.6875q0 -0.375 -0.140625 -0.53125q-0.140625 -0.171875 -0.484375 -0.171875q-0.484375 0 -0.703125 0.40625l0 2.984375l-1.125 0l0 -4.234375l1.0625 0zm9.660156 2.15625q0 0.984375 -0.4375 1.578125q-0.4375 0.578125 -1.203125 0.578125q-0.640625 0 -1.03125 -0.453125l0 2.0l-1.125 0l0 -5.859375l1.046875 0l0.03125 0.421875q0.421875 -0.5 1.078125 -0.5q0.78125 0 1.203125 0.578125q0.4375 0.578125 0.4375 1.59375l0 0.0625zm-1.125 -0.078125q0 -0.59375 -0.21875 -0.90625q-0.203125 -0.328125 -0.59375 -0.328125q-0.53125 0 -0.734375 0.40625l0 1.734375q0.203125 0.421875 0.734375 0.421875q0.8125 0 0.8125 -1.328125zm3.0195312 2.15625l-1.125 0l0 -6.0l1.125 0l0 6.0zm2.8710938 0.078125q-0.921875 0 -1.515625 -0.5625q-0.578125 -0.578125 -0.578125 -1.53125l0 -0.109375q0 -0.640625 0.25 -1.140625q0.25 -0.5 0.6875 -0.765625q0.453125 -0.28125 1.03125 -0.28125q0.875 0 1.375 0.546875q0.5 0.546875 0.5 1.5625l0 0.453125l-2.703125 0q0.0625 0.421875 0.328125 0.671875q0.28125 0.25 0.703125 0.25q0.65625 0 1.015625 -0.484375l0.5625 0.625q-0.25 0.359375 -0.6875 0.5625q-0.4375 0.203125 -0.96875 0.203125zm-0.125 -3.46875q-0.328125 0 -0.546875 0.234375q-0.203125 0.21875 -0.265625 0.640625l1.578125 0l0 -0.09375q-0.015625 -0.375 -0.21875 -0.578125q-0.1875 -0.203125 -0.546875 -0.203125zm3.5742188 -0.84375l0.03125 0.484375q0.453125 -0.5625 1.21875 -0.5625q0.8125 0 1.109375 0.65625q0.453125 -0.65625 1.28125 -0.65625q0.6875 0 1.015625 0.40625q0.34375 0.40625 0.34375 1.203125l0 2.703125l-1.140625 0l0 -2.703125q0 -0.359375 -0.140625 -0.515625q-0.140625 -0.171875 -0.5 -0.171875q-0.5 0 -0.703125 0.484375l0.015625 2.90625l-1.140625 0l0 -2.6875q0 -0.375 -0.140625 -0.53125q-0.140625 -0.171875 -0.484375 -0.171875q-0.484375 0 -0.703125 0.40625l0 2.984375l-1.125 0l0 -4.234375l1.0625 0zm7.8007812 4.3125q-0.921875 0 -1.515625 -0.5625q-0.578125 -0.578125 -0.578125 -1.53125l0 -0.109375q0 -0.640625 0.25 -1.140625q0.25 -0.5 0.6875 -0.765625q0.453125 -0.28125 1.03125 -0.28125q0.875 0 1.375 0.546875q0.5 0.546875 0.5 1.5625l0 0.453125l-2.703125 0q0.0625 0.421875 0.328125 0.671875q0.28125 0.25 0.703125 0.25q0.65625 0 1.015625 -0.484375l0.5625 0.625q-0.25 0.359375 -0.6875 0.5625q-0.4375 0.203125 -0.96875 0.203125zm-0.125 -3.46875q-0.328125 0 -0.546875 0.234375q-0.203125 0.21875 -0.265625 0.640625l1.578125 0l0 -0.09375q-0.015625 -0.375 -0.21875 -0.578125q-0.1875 -0.203125 -0.546875 -0.203125zm3.5429688 -0.84375l0.046875 0.5q0.453125 -0.578125 1.203125 -0.578125q0.671875 0 1.0 0.40625q0.328125 0.390625 0.34375 1.171875l0 2.734375l-1.125 0l0 -2.703125q0 -0.359375 -0.15625 -0.515625q-0.15625 -0.171875 -0.53125 -0.171875q-0.46875 0 -0.703125 0.40625l0 2.984375l-1.140625 0l0 -4.234375l1.0625 0zm4.7929688 -1.03125l0 1.03125l0.734375 0l0 0.828125l-0.734375 0l0 2.109375q0 0.234375 0.09375 0.34375q0.09375 0.09375 0.34375 0.09375q0.1875 0 0.328125 -0.015625l0 0.84375q-0.328125 0.109375 -0.671875 0.109375q-1.1875 0 -1.21875 -1.203125l0 -2.28125l-0.609375 0l0 -0.828125l0.609375 0l0 -1.03125l1.125 0zm3.8125 5.265625q-0.078125 -0.15625 -0.125 -0.375q-0.40625 0.453125 -1.0625 0.453125q-0.625 0 -1.03125 -0.359375q-0.40625 -0.359375 -0.40625 -0.90625q0 -0.671875 0.5 -1.03125q0.5 -0.359375 1.4375 -0.359375l0.515625 0l0 -0.25q0 -0.296875 -0.15625 -0.46875q-0.140625 -0.171875 -0.46875 -0.171875q-0.28125 0 -0.453125 0.140625q-0.15625 0.125 -0.15625 0.375l-1.125 0q0 -0.375 0.21875 -0.6875q0.234375 -0.3125 0.640625 -0.484375q0.421875 -0.1875 0.9375 -0.1875q0.78125 0 1.234375 0.40625q0.46875 0.390625 0.46875 1.09375l0 1.828125q0 0.609375 0.171875 0.921875l0 0.0625l-1.140625 0zm-0.9375 -0.78125q0.25 0 0.453125 -0.109375q0.21875 -0.125 0.3125 -0.3125l0 -0.71875l-0.421875 0q-0.84375 0 -0.890625 0.578125l-0.015625 0.078125q0 0.203125 0.140625 0.34375q0.15625 0.140625 0.421875 0.140625zm4.1171875 -4.484375l0 1.03125l0.734375 0l0 0.828125l-0.734375 0l0 2.109375q0 0.234375 0.09375 0.34375q0.09375 0.09375 0.34375 0.09375q0.1875 0 0.328125 -0.015625l0 0.84375q-0.328125 0.109375 -0.671875 0.109375q-1.1875 0 -1.21875 -1.203125l0 -2.28125l-0.609375 0l0 -0.828125l0.609375 0l0 -1.03125l1.125 0zm2.546875 5.265625l-1.125 0l0 -4.234375l1.125 0l0 4.234375zm-1.203125 -5.328125q0 -0.25 0.171875 -0.40625q0.171875 -0.171875 0.46875 -0.171875q0.28125 0 0.453125 0.171875q0.171875 0.15625 0.171875 0.40625q0 0.265625 -0.171875 0.4375q-0.171875 0.15625 -0.453125 0.15625q-0.28125 0 -0.46875 -0.15625q-0.171875 -0.171875 -0.171875 -0.4375zm1.9648438 3.171875q0 -0.625 0.234375 -1.109375q0.25 -0.5 0.703125 -0.765625q0.453125 -0.28125 1.046875 -0.28125q0.859375 0 1.390625 0.53125q0.546875 0.515625 0.609375 1.421875l0.015625 0.28125q0 0.984375 -0.546875 1.578125q-0.546875 0.578125 -1.46875 0.578125q-0.90625 0 -1.453125 -0.578125q-0.53125 -0.59375 -0.53125 -1.609375l0 -0.046875zm1.125 0.078125q0 0.609375 0.21875 0.9375q0.234375 0.3125 0.65625 0.3125q0.40625 0 0.640625 -0.3125q0.234375 -0.328125 0.234375 -1.015625q0 -0.59375 -0.234375 -0.90625q-0.234375 -0.328125 -0.65625 -0.328125q-0.40625 0 -0.640625 0.328125q-0.21875 0.3125 -0.21875 0.984375zm4.6015625 -2.15625l0.046875 0.5q0.453125 -0.578125 1.203125 -0.578125q0.6718674 0 0.9999924 0.40625q0.328125 0.390625 0.34375 1.171875l0 2.734375l-1.1249924 0l0 -2.703125q0 -0.359375 -0.15625 -0.515625q-0.15625 -0.171875 -0.53125 -0.171875q-0.46875 0 -0.703125 0.40625l0 2.984375l-1.140625 0l0 -4.234375l1.0625 0z" fill-rule="nonzero"/><path fill="#000000" fill-opacity="0.0" d="m46.795273 30.732283l0 12.23353l0.062992096 0l0 12.238911" fill-rule="evenodd"/><path stroke="#85200c" stroke-width="2.0" stroke-linejoin="round" stroke-linecap="butt" d="m46.795277 30.732283l0 12.23353l0.062992096 0l0 3.2389107" fill-rule="evenodd"/><path fill="#85200c" stroke="#85200c" stroke-width="2.0" stroke-linecap="butt" d="m44.646713 46.204723l2.2115555 6.076195l2.2115517 -6.076195z" fill-rule="evenodd"/><path fill="#000000" fill-opacity="0.0" d="m46.795303 77.24672l0 26.236221l19.086617 0" fill-rule="evenodd"/><path stroke="#85200c" stroke-width="2.0" stroke-linejoin="round" stroke-linecap="butt" d="m46.7953 77.24672l0 26.236221l10.0866165 0" fill-rule="evenodd"/><path fill="#85200c" stroke="#85200c" stroke-width="2.0" stroke-linecap="butt" d="m56.881916 105.694496l6.076195 -2.2115555l-6.076195 -2.2115555z" fill-rule="evenodd"/><path fill="#be2f22" d="m118.6536 128.21523l70.48818 0l0 22.047241l-70.48818 0z" fill-rule="evenodd"/><path stroke="#a61c00" stroke-width="1.0" stroke-linejoin="round" stroke-linecap="butt" d="m118.6536 128.21523l70.48818 0l0 22.047241l-70.48818 0z" fill-rule="evenodd"/><path fill="#ffffff" d="m135.718 140.51259l1.296875 -4.28125l1.296875 0l-1.984375 5.6875l-1.21875 0l-1.96875 -5.6875l1.296875 0l1.28125 4.28125zm4.8242188 1.484375q-0.921875 0 -1.515625 -0.5625q-0.578125 -0.578125 -0.578125 -1.53125l0 -0.109375q0 -0.640625 0.25 -1.140625q0.25 -0.5 0.6875 -0.765625q0.453125 -0.28125 1.03125 -0.28125q0.875 0 1.375 0.546875q0.5 0.546875 0.5 1.5625l0 0.453125l-2.703125 0q0.0625 0.421875 0.328125 0.671875q0.28125 0.25 0.703125 0.25q0.65625 0 1.015625 -0.484375l0.5625 0.625q-0.25 0.359375 -0.6875 0.5625q-0.4375 0.203125 -0.96875 0.203125zm-0.125 -3.46875q-0.328125 0 -0.546875 0.234375q-0.203125 0.21875 -0.265625 0.640625l1.578125 0l0 -0.09375q-0.015625 -0.375 -0.21875 -0.578125q-0.1875 -0.203125 -0.546875 -0.203125zm4.8867188 0.21875q-0.234375 -0.03125 -0.40625 -0.03125q-0.640625 0 -0.84375 0.4375l0 2.765625l-1.125 0l0 -4.234375l1.0625 0l0.03125 0.515625q0.34375 -0.59375 0.9375 -0.59375q0.1875 0 0.359375 0.0625l-0.015625 1.078125zm1.7304688 3.171875l-1.125 0l0 -4.234375l1.125 0l0 4.234375zm-1.203125 -5.328125q0 -0.25 0.171875 -0.40625q0.171875 -0.171875 0.46875 -0.171875q0.28125 0 0.453125 0.171875q0.171875 0.15625 0.171875 0.40625q0 0.265625 -0.171875 0.4375q-0.171875 0.15625 -0.453125 0.15625q-0.28125 0 -0.46875 -0.15625q-0.171875 -0.171875 -0.171875 -0.4375zm2.4023438 5.328125l0 -3.40625l-0.625 0l0 -0.828125l0.625 0l0 -0.1875q0.015625 -0.796875 0.5 -1.21875q0.484375 -0.4375 1.359375 -0.4375q0.53125 0 1.28125 0.21875l-0.171875 0.9375q-0.375 -0.109375 -0.59375 -0.140625q-0.203125 -0.03125 -0.453125 -0.03125q-0.78125 0 -0.78125 0.6875l0 0.171875l0.828125 0l0 0.828125l-0.828125 0l0 3.40625l-1.140625 0zm3.671875 0l-1.140625 0l0 -4.234375l1.140625 0l0 4.234375zm2.6796875 -0.828125q0.3125 0 0.5 -0.171875q0.203125 -0.171875 0.21875 -0.46875l1.0625 0q-0.015625 0.4375 -0.25 0.796875q-0.21875 0.359375 -0.625 0.5625q-0.390625 0.1875 -0.875 0.1875q-0.90625 0 -1.4375 -0.578125q-0.515625 -0.578125 -0.515625 -1.59375l0 -0.078125q0 -0.96875 0.515625 -1.546875q0.515625 -0.59375 1.421875 -0.59375q0.796875 0 1.265625 0.453125q0.484375 0.453125 0.5 1.203125l-1.0625 0q-0.015625 -0.328125 -0.21875 -0.53125q-0.1875 -0.203125 -0.5 -0.203125q-0.390625 0 -0.59375 0.296875q-0.203125 0.28125 -0.203125 0.921875l0 0.109375q0 0.65625 0.1875 0.953125q0.203125 0.28125 0.609375 0.28125zm4.875 0.828125q-0.078125 -0.15625 -0.125 -0.375q-0.40625 0.453125 -1.0625 0.453125q-0.625 0 -1.03125 -0.359375q-0.40625 -0.359375 -0.40625 -0.90625q0 -0.671875 0.5 -1.03125q0.5 -0.359375 1.4375 -0.359375l0.515625 0l0 -0.25q0 -0.296875 -0.15625 -0.46875q-0.140625 -0.171875 -0.46875 -0.171875q-0.28125 0 -0.453125 0.140625q-0.15625 0.125 -0.15625 0.375l-1.125 0q0 -0.375 0.21875 -0.6875q0.234375 -0.3125 0.640625 -0.484375q0.421875 -0.1875 0.9375 -0.1875q0.78125 0 1.234375 0.40625q0.46875 0.390625 0.46875 1.09375l0 1.828125q0 0.609375 0.171875 0.921875l0 0.0625l-1.140625 0zm-0.9375 -0.78125q0.25 0 0.453125 -0.109375q0.21875 -0.125 0.3125 -0.3125l0 -0.71875l-0.421875 0q-0.84375 0 -0.890625 0.578125l-0.015625 0.078125q0 0.203125 0.140625 0.34375q0.15625 0.140625 0.421875 0.140625zm4.1171875 -4.484375l0 1.03125l0.734375 0l0 0.828125l-0.734375 0l0 2.109375q0 0.234375 0.09375 0.34375q0.09375 0.09375 0.34375 0.09375q0.1875 0 0.328125 -0.015625l0 0.84375q-0.328125 0.109375 -0.671875 0.109375q-1.1875 0 -1.21875 -1.203125l0 -2.28125l-0.609375 0l0 -0.828125l0.609375 0l0 -1.03125l1.125 0zm2.546875 5.265625l-1.125 0l0 -4.234375l1.125 0l0 4.234375zm-1.203125 -5.328125q0 -0.25 0.171875 -0.40625q0.171875 -0.171875 0.46875 -0.171875q0.28125 0 0.453125 0.171875q0.171875 0.15625 0.171875 0.40625q0 0.265625 -0.171875 0.4375q-0.171875 0.15625 -0.453125 0.15625q-0.28125 0 -0.46875 -0.15625q-0.171875 -0.171875 -0.171875 -0.4375zm1.9648438 3.171875q0 -0.625 0.234375 -1.109375q0.25 -0.5 0.703125 -0.765625q0.453125 -0.28125 1.046875 -0.28125q0.859375 0 1.390625 0.53125q0.546875 0.515625 0.609375 1.421875l0.015625 0.28125q0 0.984375 -0.546875 1.578125q-0.546875 0.578125 -1.46875 0.578125q-0.90625 0 -1.453125 -0.578125q-0.53125 -0.59375 -0.53125 -1.609375l0 -0.046875zm1.125 0.078125q0 0.609375 0.21875 0.9375q0.234375 0.3125 0.65625 0.3125q0.40625 0 0.640625 -0.3125q0.234375 -0.328125 0.234375 -1.015625q0 -0.59375 -0.234375 -0.90625q-0.234375 -0.328125 -0.65625 -0.328125q-0.40625 0 -0.640625 0.328125q-0.21875 0.3125 -0.21875 0.984375zm4.6015625 -2.15625l0.046875 0.5q0.453125 -0.578125 1.203125 -0.578125q0.671875 0 1.0 0.40625q0.328125 0.390625 0.34375 1.171875l0 2.734375l-1.125 0l0 -2.703125q0 -0.359375 -0.15625 -0.515625q-0.15625 -0.171875 -0.53125 -0.171875q-0.46875 0 -0.703125 0.40625l0 2.984375l-1.140625 0l0 -4.234375l1.0625 0z" fill-rule="nonzero"/><path fill="#cc4125" d="m225.4384 200.00525l70.488174 0l0 22.047241l-70.488174 0z" fill-rule="evenodd"/><path stroke="#a61c00" stroke-width="1.0" stroke-linejoin="round" stroke-linecap="butt" d="m225.4384 200.00525l70.488174 0l0 22.047241l-70.488174 0z" fill-rule="evenodd"/><path fill="#ffffff" d="m239.39343 208.02138l1.453125 4.125l1.453125 -4.125l1.546875 0l0 5.6875l-1.1875 0l0 -1.5625l0.125 -2.671875l-1.53125 4.234375l-0.8125 0l-1.53125 -4.234375l0.125 2.671875l0 1.5625l-1.171875 0l0 -5.6875l1.53125 0zm7.8515625 5.6875q-0.078125 -0.15625 -0.125 -0.375q-0.40625 0.453125 -1.0625 0.453125q-0.625 0 -1.03125 -0.359375q-0.40625 -0.359375 -0.40625 -0.90625q0 -0.671875 0.5 -1.03125q0.5 -0.359375 1.4375 -0.359375l0.515625 0l0 -0.25q0 -0.296875 -0.15625 -0.46875q-0.140625 -0.171875 -0.46875 -0.171875q-0.28125 0 -0.453125 0.140625q-0.15625 0.125 -0.15625 0.375l-1.125 0q0 -0.375 0.21875 -0.6875q0.234375 -0.3125 0.640625 -0.484375q0.421875 -0.1875 0.9375 -0.1875q0.78125 0 1.234375 0.40625q0.46875 0.390625 0.46875 1.09375l0 1.828125q0 0.609375 0.171875 0.921875l0 0.0625l-1.140625 0zm-0.9375 -0.78125q0.25 0 0.453125 -0.109375q0.21875 -0.125 0.3125 -0.3125l0 -0.71875l-0.421875 0q-0.84375 0 -0.890625 0.578125l-0.015625 0.078125q0 0.203125 0.140625 0.34375q0.15625 0.140625 0.421875 0.140625zm3.9609375 0.78125l-1.125 0l0 -4.234375l1.125 0l0 4.234375zm-1.203125 -5.328125q0 -0.25 0.171875 -0.40625q0.171875 -0.171875 0.46875 -0.171875q0.28125 0 0.453125 0.171875q0.171875 0.15625 0.171875 0.40625q0 0.265625 -0.171875 0.4375q-0.171875 0.15625 -0.453125 0.15625q-0.28125 0 -0.46875 -0.15625q-0.171875 -0.171875 -0.171875 -0.4375zm3.1679688 1.09375l0.046875 0.5q0.453125 -0.578125 1.203125 -0.578125q0.671875 0 1.0 0.40625q0.328125 0.390625 0.34375 1.171875l0 2.734375l-1.125 0l0 -2.703125q0 -0.359375 -0.15625 -0.515625q-0.15625 -0.171875 -0.53125 -0.171875q-0.46875 0 -0.703125 0.40625l0 2.984375l-1.140625 0l0 -4.234375l1.0625 0zm4.7929688 -1.03125l0 1.03125l0.734375 0l0 0.828125l-0.734375 0l0 2.109375q0 0.234375 0.09375 0.34375q0.09375 0.09375 0.34375 0.09375q0.1875 0 0.328125 -0.015625l0 0.84375q-0.328125 0.109375 -0.671875 0.109375q-1.1875 0 -1.21875 -1.203125l0 -2.28125l-0.609375 0l0 -0.828125l0.609375 0l0 -1.03125l1.125 0zm3.296875 5.34375q-0.921875 0 -1.515625 -0.5625q-0.578125 -0.578125 -0.578125 -1.53125l0 -0.109375q0 -0.640625 0.25 -1.140625q0.25 -0.5 0.6875 -0.765625q0.453125 -0.28125 1.03125 -0.28125q0.875 0 1.375 0.546875q0.5 0.546875 0.5 1.5625l0 0.453125l-2.703125 0q0.0625 0.421875 0.328125 0.671875q0.28125 0.25 0.703125 0.25q0.65625 0 1.015625 -0.484375l0.5625 0.625q-0.25 0.359375 -0.6875 0.5625q-0.4375 0.203125 -0.96875 0.203125zm-0.125 -3.46875q-0.328125 0 -0.546875 0.234375q-0.203125 0.21875 -0.265625 0.640625l1.578125 0l0 -0.09375q-0.015625 -0.375 -0.21875 -0.578125q-0.1875 -0.203125 -0.546875 -0.203125zm3.5429688 -0.84375l0.046875 0.5q0.453125 -0.578125 1.203125 -0.578125q0.671875 0 1.0 0.40625q0.328125 0.390625 0.34375 1.171875l0 2.734375l-1.125 0l0 -2.703125q0 -0.359375 -0.15625 -0.515625q-0.15625 -0.171875 -0.53125 -0.171875q-0.46875 0 -0.703125 0.40625l0 2.984375l-1.140625 0l0 -4.234375l1.0625 0zm5.9023438 4.234375q-0.078125 -0.15625 -0.125 -0.375q-0.40625 0.453125 -1.0625 0.453125q-0.625 0 -1.03125 -0.359375q-0.40625 -0.359375 -0.40625 -0.90625q0 -0.671875 0.5 -1.03125q0.5 -0.359375 1.4375 -0.359375l0.515625 0l0 -0.25q0 -0.296875 -0.15625 -0.46875q-0.140625 -0.171875 -0.46875 -0.171875q-0.28125 0 -0.453125 0.140625q-0.15625 0.125 -0.15625 0.375l-1.125 0q0 -0.375 0.21875 -0.6875q0.234375 -0.3125 0.640625 -0.484375q0.421875 -0.1875 0.9375 -0.1875q0.78125 0 1.234375 0.40625q0.46875 0.390625 0.46875 1.09375l0 1.828125q0 0.609375 0.171875 0.921875l0 0.0625l-1.140625 0zm-0.9375 -0.78125q0.25 0 0.453125 -0.109375q0.21875 -0.125 0.3125 -0.3125l0 -0.71875l-0.421875 0q-0.84375 0 -0.890625 0.578125l-0.015625 0.078125q0 0.203125 0.140625 0.34375q0.15625 0.140625 0.421875 0.140625zm3.8046875 -3.453125l0.046875 0.5q0.453125 -0.578125 1.203125 -0.578125q0.671875 0 1.0 0.40625q0.328125 0.390625 0.34375 1.171875l0 2.734375l-1.125 0l0 -2.703125q0 -0.359375 -0.15625 -0.515625q-0.15625 -0.171875 -0.53125 -0.171875q-0.46875 0 -0.703125 0.40625l0 2.984375l-1.140625 0l0 -4.234375l1.0625 0zm5.1992188 3.40625q0.3125 0 0.5 -0.171875q0.203125 -0.171875 0.21875 -0.46875l1.0625 0q-0.015625 0.4375 -0.25 0.796875q-0.21875 0.359375 -0.625 0.5625q-0.390625 0.1875 -0.875 0.1875q-0.90625 0 -1.4375 -0.578125q-0.515625 -0.578125 -0.515625 -1.59375l0 -0.078125q0 -0.96875 0.515625 -1.546875q0.515625 -0.59375 1.421875 -0.59375q0.796875 0 1.265625 0.453125q0.484375 0.453125 0.5 1.203125l-1.0625 0q-0.015625 -0.328125 -0.21875 -0.53125q-0.1875 -0.203125 -0.5 -0.203125q-0.390625 0 -0.59375 0.296875q-0.203125 0.28125 -0.203125 0.921875l0 0.109375q0 0.65625 0.1875 0.953125q0.203125 0.28125 0.609375 0.28125zm4.359375 0.90625q-0.921875 0 -1.515625 -0.5625q-0.578125 -0.578125 -0.578125 -1.53125l0 -0.109375q0 -0.640625 0.25 -1.140625q0.25 -0.5 0.6875 -0.765625q0.453125 -0.28125 1.03125 -0.28125q0.875 0 1.375 0.546875q0.5 0.546875 0.5 1.5625l0 0.453125l-2.703125 0q0.0625 0.421875 0.328125 0.671875q0.28125 0.25 0.703125 0.25q0.65625 0 1.015625 -0.484375l0.5625 0.625q-0.25 0.359375 -0.6875 0.5625q-0.4375 0.203125 -0.96875 0.203125zm-0.125 -3.46875q-0.328125 0 -0.546875 0.234375q-0.203125 0.21875 -0.265625 0.640625l1.578125 0l0 -0.09375q-0.015625 -0.375 -0.21875 -0.578125q-0.1875 -0.203125 -0.546875 -0.203125z" fill-rule="nonzero"/><path fill="#cc0000" d="m172.0603 163.96457l70.48819 0l0 22.047241l-70.48819 0z" fill-rule="evenodd"/><path stroke="#a61c00" stroke-width="1.0" stroke-linejoin="round" stroke-linecap="butt" d="m172.0603 163.96457l70.48819 0l0 22.047241l-70.48819 0z" fill-rule="evenodd"/><path fill="#ffffff" d="m186.28877 177.66818l0 -5.6875l1.75 0q0.75 0 1.328125 0.34375q0.59375 0.328125 0.921875 0.953125q0.34375 0.625 0.34375 1.421875l0 0.25q0 0.796875 -0.328125 1.421875q-0.328125 0.609375 -0.921875 0.953125q-0.59375 0.34375 -1.34375 0.34375l-1.75 0zm1.171875 -4.734375l0 3.796875l0.5625 0q0.6875 0 1.046875 -0.453125q0.359375 -0.453125 0.375 -1.28125l0 -0.3125q0 -0.859375 -0.359375 -1.296875q-0.359375 -0.453125 -1.046875 -0.453125l-0.578125 0zm5.8867188 4.8125q-0.921875 0 -1.515625 -0.5625q-0.578125 -0.578125 -0.578125 -1.53125l0 -0.109375q0 -0.640625 0.25 -1.140625q0.25 -0.5 0.6875 -0.765625q0.453125 -0.28125 1.03125 -0.28125q0.875 0 1.375 0.546875q0.5 0.546875 0.5 1.5625l0 0.453125l-2.703125 0q0.0625 0.421875 0.328125 0.671875q0.28125 0.25 0.703125 0.25q0.65625 0 1.015625 -0.484375l0.5625 0.625q-0.25 0.359375 -0.6875 0.5625q-0.4375 0.203125 -0.96875 0.203125zm-0.125 -3.46875q-0.328125 0 -0.546875 0.234375q-0.203125 0.21875 -0.265625 0.640625l1.578125 0l0 -0.09375q-0.015625 -0.375 -0.21875 -0.578125q-0.1875 -0.203125 -0.546875 -0.203125zm6.3085938 1.3125q0 0.984375 -0.4375 1.578125q-0.4375 0.578125 -1.203125 0.578125q-0.640625 0 -1.03125 -0.453125l0 2.0l-1.125 0l0 -5.859375l1.046875 0l0.03125 0.421875q0.421875 -0.5 1.078125 -0.5q0.78125 0 1.203125 0.578125q0.4375 0.578125 0.4375 1.59375l0 0.0625zm-1.125 -0.078125q0 -0.59375 -0.21875 -0.90625q-0.203125 -0.328125 -0.59375 -0.328125q-0.53125 0 -0.734375 0.40625l0 1.734375q0.203125 0.421875 0.734375 0.421875q0.8125 0 0.8125 -1.328125zm3.0195312 2.15625l-1.125 0l0 -6.0l1.125 0l0 6.0zm0.76171875 -2.15625q0 -0.625 0.234375 -1.109375q0.25 -0.5 0.703125 -0.765625q0.453125 -0.28125 1.046875 -0.28125q0.859375 0 1.390625 0.53125q0.546875 0.515625 0.609375 1.421875l0.015625 0.28125q0 0.984375 -0.546875 1.578125q-0.546875 0.578125 -1.46875 0.578125q-0.90625 0 -1.453125 -0.578125q-0.53125 -0.59375 -0.53125 -1.609375l0 -0.046875zm1.125 0.078125q0 0.609375 0.21875 0.9375q0.234375 0.3125 0.65625 0.3125q0.40625 0 0.640625 -0.3125q0.234375 -0.328125 0.234375 -1.015625q0 -0.59375 -0.234375 -0.90625q-0.234375 -0.328125 -0.65625 -0.328125q-0.40625 0 -0.640625 0.328125q-0.21875 0.3125 -0.21875 0.984375zm5.0898438 0.484375l0.78125 -2.640625l1.203125 0l-1.6875 4.890625l-0.09375 0.21875q-0.390625 0.828125 -1.25 0.828125q-0.25 0 -0.5 -0.0625l0 -0.859375l0.171875 0q0.3125 0 0.46875 -0.09375q0.15625 -0.09375 0.25 -0.328125l0.140625 -0.34375l-1.484375 -4.25l1.21875 0l0.78125 2.640625zm3.5 -2.640625l0.03125 0.484375q0.453125 -0.5625 1.21875 -0.5625q0.8125 0 1.109375 0.65625q0.453125 -0.65625 1.28125 -0.65625q0.6875 0 1.015625 0.40625q0.34375 0.40625 0.34375 1.203125l0 2.703125l-1.140625 0l0 -2.703125q0 -0.359375 -0.140625 -0.515625q-0.140625 -0.171875 -0.5 -0.171875q-0.5 0 -0.703125 0.484375l0.015625 2.90625l-1.140625 0l0 -2.6875q0 -0.375 -0.140625 -0.53125q-0.140625 -0.171875 -0.484375 -0.171875q-0.484375 0 -0.703125 0.40625l0 2.984375l-1.125 0l0 -4.234375l1.0625 0zm7.8007812 4.3125q-0.921875 0 -1.515625 -0.5625q-0.578125 -0.578125 -0.578125 -1.53125l0 -0.109375q0 -0.640625 0.25 -1.140625q0.25 -0.5 0.6875 -0.765625q0.453125 -0.28125 1.03125 -0.28125q0.875 0 1.375 0.546875q0.5 0.546875 0.5 1.5625l0 0.453125l-2.703125 0q0.0625 0.421875 0.328125 0.671875q0.28125 0.25 0.703125 0.25q0.65625 0 1.015625 -0.484375l0.5625 0.625q-0.25 0.359375 -0.6875 0.5625q-0.4375 0.203125 -0.96875 0.203125zm-0.125 -3.46875q-0.328125 0 -0.546875 0.234375q-0.203125 0.21875 -0.265625 0.640625l1.578125 0l0 -0.09375q-0.015625 -0.375 -0.21875 -0.578125q-0.1875 -0.203125 -0.546875 -0.203125zm3.5429688 -0.84375l0.046875 0.5q0.453125 -0.578125 1.203125 -0.578125q0.671875 0 1.0 0.40625q0.328125 0.390625 0.34375 1.171875l0 2.734375l-1.125 0l0 -2.703125q0 -0.359375 -0.15625 -0.515625q-0.15625 -0.171875 -0.53125 -0.171875q-0.46875 0 -0.703125 0.40625l0 2.984375l-1.140625 0l0 -4.234375l1.0625 0zm4.7929688 -1.03125l0 1.03125l0.734375 0l0 0.828125l-0.734375 0l0 2.109375q0 0.234375 0.09375 0.34375q0.09375 0.09375 0.34375 0.09375q0.1875 0 0.328125 -0.015625l0 0.84375q-0.328125 0.109375 -0.671875 0.109375q-1.1875 0 -1.21875 -1.203125l0 -2.28125l-0.609375 0l0 -0.828125l0.609375 0l0 -1.03125l1.125 0z" fill-rule="nonzero"/><path fill="#000000" fill-opacity="0.0" d="m172.0603 174.98819l-18.173233 0l0 -24.724411" fill-rule="evenodd"/><path stroke="#85200c" stroke-width="2.0" stroke-linejoin="round" stroke-linecap="butt" d="m163.0603 174.98819l-9.173218 0l0 -24.724411" fill-rule="evenodd"/><path fill="#85200c" stroke="#85200c" stroke-width="2.0" stroke-linecap="butt" d="m163.0603 177.19974l6.0762024 -2.2115479l-6.0762024 -2.2115479z" fill-rule="evenodd"/><path fill="#000000" fill-opacity="0.0" d="m225.4384 211.02887l-18.141739 0l0 -25.007874" fill-rule="evenodd"/><path stroke="#85200c" stroke-width="2.0" stroke-linejoin="round" stroke-linecap="butt" d="m216.4384 211.02887l-9.141724 0l0 -25.007874" fill-rule="evenodd"/><path fill="#85200c" stroke="#85200c" stroke-width="2.0" stroke-linecap="butt" d="m216.4384 213.24043l6.0762024 -2.211563l-6.0762024 -2.2115479z" fill-rule="evenodd"/><path fill="#000000" fill-opacity="0.0" d="m118.6536 139.23885l-17.51181 0l0 -24.724411" fill-rule="evenodd"/><path stroke="#85200c" stroke-width="2.0" stroke-linejoin="round" stroke-linecap="butt" d="m109.6536 139.23885l-8.51181 0l0 -24.724411" fill-rule="evenodd"/><path fill="#85200c" stroke="#85200c" stroke-width="2.0" stroke-linecap="butt" d="m109.6536 141.4504l6.076195 -2.2115479l-6.076195 -2.2115479z" fill-rule="evenodd"/><path fill="#4a86e8" d="m181.64621 60.042202l-1.3583832 3.1136856l-1.7379761 -1.7378731l3.0963593 -1.3758125zm-9.61734 -12.428207l-4.505127 7.5464935l1.3947296 1.3946419l5.7693787 -3.2407036l-3.2362823 5.773651l1.3643036 1.3642273l7.572647 -4.479149l-1.2947845 -1.2947159l-5.186661 3.2315025l3.0924072 -5.325638l-1.529419 -1.5293236l-5.3036194 2.974804l3.1789398 -5.099354zm10.358322 10.357712l-8.506805 3.545044l1.3643036 1.3642273l1.8945007 -0.8430557l2.5461426 2.5459785l-0.8126221 1.9248886l1.3990631 1.3989792l3.4753876 -8.576176zm3.4759521 3.4757423l-1.0193787 1.0193825l1.8900452 1.8899345l-5.0064697 5.0064697l1.286087 1.286026l5.006485 -5.0064697l1.8856964 1.8855896l1.0193787 -1.0193787z" fill-rule="evenodd"/><path fill="#4a86e8" d="m191.75487 67.33884l-6.0258484 6.0258484l4.8446045 4.844322l1.015274 -1.015274l-3.5585022 -3.5582886l1.6400452 -1.6400528l3.197876 3.1976776l1.015274 -1.0152664l-3.197876 -3.1976852l1.3358765 -1.3358765l3.4368439 3.4366379l1.0193787 -1.0193787z" fill-rule="evenodd"/><path fill="#4a86e8" d="m198.9648 76.587036c0.5213928 0.5213623 0.8273773 0.8410263 0.9179535 0.95899963c0.17567444 0.24142456 0.25790405 0.4816742 0.2467041 0.7207413c-0.00932312 0.23912048 -0.11538696 0.46006775 -0.318161 0.6628494c-0.18086243 0.1808548 -0.37501526 0.28812408 -0.582489 0.32180023c-0.20747375 0.033683777 -0.41262817 -0.0015716553 -0.6154785 -0.10575867c-0.20285034 -0.10418701 -0.61276245 -0.4647522 -1.2297363 -1.0817032l-0.9515381 -0.9514847l1.529068 -1.529068zm-1.270401 -3.3090286l-6.0258484 6.025856l1.2861023 1.286026l2.515564 -2.5155716l0.2606964 0.26068115c0.29545593 0.29544067 0.48841858 0.5340576 0.57888794 0.7158661c0.09138489 0.18088531 0.13670349 0.39335632 0.13595581 0.637413c1.8310547E-4 0.24313354 -0.06892395 0.7640915 -0.20729065 1.5628738l-0.3814087 2.240982l1.5381165 1.5380173l0.39782715 -1.9532776c0.1615448 -0.7756119 0.24336243 -1.3459702 0.24543762 -1.7110748c0.003036499 -0.36414337 -0.057754517 -0.76197815 -0.18237305 -1.1934891c0.6357727 0.48228455 1.2412109 0.7168503 1.8162994 0.70368195c0.5760193 -0.014083862 1.0900879 -0.24719238 1.5422363 -0.6993408c0.3562317 -0.3562317 0.5800476 -0.765419 0.6714325 -1.227562c0.09138489 -0.46213531 0.036468506 -0.9015808 -0.16471863 -1.3183136c-0.1993103 -0.416687 -0.63931274 -0.9653702 -1.3200226 -1.6460342z" fill-rule="evenodd"/><path fill="#4a86e8" d="m210.15332 88.54763l-1.3583832 3.1136856l-1.7379761 -1.7378693l3.0963593 -1.3758163zm-6.028412 -8.8395l-6.0258636 6.025856l1.2861023 1.286026l2.5607758 -2.5607834l2.6591034 2.6589432l1.0193787 -1.0193787l-2.6590881 -2.6589432l1.4263 -1.4263153l3.0805664 3.0803757l1.0193787 -1.0193787zm6.769394 6.7690125l-8.506805 3.545044l1.3643036 1.3642273l1.8945007 -0.84306335l2.5461426 2.5459824l-0.8126221 1.9248886l1.3990784 1.3989868l3.4753723 -8.576187z" fill-rule="evenodd"/><path fill="#4a86e8" d="m215.47234 91.15355l-5.976532 5.9765244l4.4839783 4.4837112l1.015274 -1.015274l-3.197876 -3.1976776l4.961258 -4.9612656z" fill-rule="evenodd"/><path fill="#4a86e8" d="m220.90785 96.58874l-5.976532 5.976532l4.4839783 4.4837036l1.0152588 -1.0152664l-3.1978607 -3.1976852l4.961258 -4.961258z" fill-rule="evenodd"/><path fill="#000000" fill-opacity="0.0" d="m148.04199 53.254593l85.98425 85.98425" fill-rule="evenodd"/><path stroke="#6d9eeb" stroke-width="3.0" stroke-linejoin="round" stroke-linecap="butt" d="m148.04199 53.254593l73.25633 73.256325" fill-rule="evenodd"/><path fill="#6d9eeb" stroke="#6d9eeb" stroke-width="3.0" stroke-linecap="butt" d="m217.79446 130.01477l13.130615 6.1229095l-6.1228943 -13.130608z" fill-rule="evenodd"/></g></svg>