<svg version="1.1" viewBox="0.0 0.0 1125.6141732283465 588.1496062992126" fill="none" stroke="none" stroke-linecap="square" stroke-miterlimit="10" xmlns:xlink="http://www.w3.org/1999/xlink" xmlns="http://www.w3.org/2000/svg"><clipPath id="p.0"><path d="m0 0l1125.6141 0l0 588.1496l-1125.6141 0l0 -588.1496z" clip-rule="nonzero"/></clipPath><g clip-path="url(#p.0)"><path fill="#000000" fill-opacity="0.0" d="m0 0l1125.6141 0l0 588.1496l-1125.6141 0z" fill-rule="evenodd"/><path fill="#1155cc" d="m200.81459 178.81558c-6.1044464 0 -10.7725525 2.302475 -14.004318 6.90744l0 -5.960144l-6.7121277 0l0 41.91829l7.4579163 0l0 -22.893234c0 -5.3680573 1.1509094 -9.012558 3.4527435 -10.933472c2.3110352 -1.920929 5.0548096 -2.8813934 8.2313385 -2.8813934c1.9887848 0 3.719757 0.4297943 5.192917 1.2893829c1.4823761 0.8508301 2.5135956 1.9954834 3.0936584 3.4339905c0.58006287 1.4297333 0.8701019 3.591858 0.8701019 6.4864044l0 25.498322l7.4579163 0l0 -25.774612c0 -3.2892609 -0.1381073 -5.591736 -0.4143219 -6.90744c-0.44195557 -2.026184 -1.2153778 -3.776062 -2.3202515 -5.249649c-1.1048737 -1.473587 -2.7713928 -2.6621094 -4.9995728 -3.5655518c-2.2189636 -0.9122162 -4.654297 -1.3683319 -7.3059998 -1.3683319z" fill-rule="evenodd"/><path fill="#1155cc" d="m245.1478 184.69676c3.6737213 0 6.7443695 1.3376465 9.211929 4.0128937c2.4767609 2.666504 3.7151337 6.591675 3.7151337 11.775543c0 5.499634 -1.2291565 9.591461 -3.6875153 12.275497c-2.4583588 2.6840363 -5.538208 4.0260468 -9.239548 4.0260468c-3.7289581 0 -6.8226166 -1.3332367 -9.28096 -3.9997253c-2.4583588 -2.6752625 -3.6875305 -6.69693 -3.6875305 -12.064987c0 -5.3680725 1.2291718 -9.380966 3.6875305 -12.038681c2.4583435 -2.6577148 5.552002 -3.9865875 9.28096 -3.9865875zm0 -5.88118c-5.441513 0 -10.054382 1.5525208 -13.838577 4.6575775c-4.529999 3.7366028 -6.794998 9.486221 -6.794998 17.24887c0 7.078476 1.896698 12.499161 5.6901093 16.26207c3.8026276 3.762909 8.783783 5.6443634 14.943466 5.6443634c3.8394623 0 7.379669 -0.85520935 10.620636 -2.5656128c3.250183 -1.7104187 5.722351 -4.1093903 7.416504 -7.1968994c1.7033386 -3.096283 2.5550232 -7.341614 2.5550232 -12.735992c0 -6.6574554 -1.9197388 -11.872025 -5.759186 -15.643707c-3.839447 -3.7804413 -8.783768 -5.6706696 -14.832977 -5.6706696z" fill-rule="evenodd"/><path fill="#1155cc" d="m283.26608 165.11913l-7.416504 4.262863l0 10.38089l-5.4691467 0l0 5.525955l5.4691467 0l0 24.116821c0 4.2628784 0.30386353 7.0609436 0.91152954 8.39418c0.60769653 1.3244781 1.6573181 2.394577 3.1488953 3.210312c1.4916077 0.81573486 3.5908508 1.2236023 6.297821 1.2236023c1.6573181 0 3.535614 -0.21051025 5.634857 -0.63153076l-1.07724 -6.275894c-1.3534851 0.18418884 -2.4445496 0.2762909 -3.2731934 0.2762909c-1.1048889 0 -1.9565735 -0.17103577 -2.5550537 -0.51312256c-0.5892639 -0.3420868 -1.017395 -0.8025818 -1.2844238 -1.381485c-0.25778198 -0.57891846 -0.38668823 -1.8814545 -0.38668823 -3.9076385l0 -24.511536l7.499359 0l0 -5.525955l-7.499359 0l0 -14.643753z" fill-rule="evenodd"/><path fill="#1155cc" d="m316.20523 184.6573c3.7842102 0 6.8640747 1.3683319 9.239563 4.1049805c1.546814 1.7630463 2.485962 4.407608 2.8174133 7.9336853l-24.569702 0c0.24859619 -3.6576538 1.5376282 -6.5785065 3.8670654 -8.762573c2.3386536 -2.1840668 5.2205505 -3.2760925 8.64566 -3.2760925zm-0.082855225 -5.8417206c-6.0768127 0 -11.021149 1.9472351 -14.832977 5.8417206c-3.8118286 3.8944702 -5.717743 9.367798 -5.717743 16.419952c0 6.815338 1.882904 12.113235 5.6486816 15.893692c3.774994 3.7716827 8.880463 5.6575165 15.316376 5.6575165c5.1100464 0 9.308594 -1.1841278 12.595581 -3.5523987c3.2870178 -2.3682556 5.538208 -5.696991 6.7535706 -9.986176l-7.7065125 -0.9078369c-1.1325073 2.9998016 -2.6655273 5.1838684 -4.59906 6.5522003c-1.9335327 1.3683319 -4.267578 2.0524902 -7.0021667 2.0524902c-3.673706 0 -6.739746 -1.2236023 -9.19809 -3.670807c-2.4583435 -2.4472046 -3.825653 -5.973282 -4.1018677 -10.578247l32.81488 0c0.027618408 -0.842041 0.041412354 -1.473587 0.041412354 -1.8946075c0 -6.9205933 -1.8644714 -12.288666 -5.593445 -16.104202c-3.7289429 -3.8155365 -8.535156 -5.723297 -14.41864 -5.723297z" fill-rule="evenodd"/><path fill="#e69138" d="m166.90822 174.33034l-58.18212 22.010925l0 9.019104l58.18212 22.279358l0 -9.60965l-46.138245 -17.12558l46.138245 -16.964508l0 -9.60965z" fill-rule="evenodd"/><path fill="#e69138" d="m1032.713 169.05344l0 9.60965l46.07837 16.964508l-46.07837 17.12558l0 9.60965l58.18213 -22.279358l0 -9.019104l-58.18213 -22.010925z" fill-rule="evenodd"/><path fill="#000000" fill-opacity="0.0" d="m417.6076 9.04462l258.6142 0l0 45.41732l-258.6142 0z" fill-rule="evenodd"/><path fill="#000000" d="m463.62076 35.018368q0 -3.062502 0.921875 -5.140627q0.671875 -1.53125 1.859375 -2.734375q1.1875 -1.21875 2.59375 -1.8125q1.875 -0.796875 4.3125 -0.796875q4.4375 0 7.09375 2.75q2.65625 2.75 2.65625 7.640627q0 4.859375 -2.640625 7.609375q-2.640625 2.734375 -7.046875 2.734375q-4.46875 0 -7.109375 -2.71875q-2.640625 -2.734375 -2.640625 -7.53125zm4.171875 -0.125q0 3.40625 1.5625 5.15625q1.578125 1.75 4.0 1.75q2.421875 0 3.96875 -1.734375q1.546875 -1.75 1.546875 -5.234375q0 -3.437502 -1.515625 -5.125002q-1.5 -1.703125 -4.0 -1.703125q-2.5 0 -4.03125 1.71875q-1.53125 1.703125 -1.53125 5.171877zm18.294922 -4.484377l3.578125 0l0 2.125002q0.703125 -1.0937519 1.890625 -1.7656269q1.1875 -0.6875 2.640625 -0.6875q2.515625 0 4.28125 1.9843769q1.765625 1.96875 1.765625 5.515625q0 3.640625 -1.78125 5.65625q-1.765625 2.015625 -4.296875 2.015625q-1.203125 0 -2.1875 -0.46875q-0.96875 -0.484375 -2.046875 -1.65625l0 7.328125l-3.84375 0l0 -20.046877zm3.796875 7.015627q0 2.4375 0.96875 3.609375q0.96875 1.171875 2.359375 1.171875q1.34375 0 2.234375 -1.078125q0.890625 -1.078125 0.890625 -3.515625q0 -2.28125 -0.921875 -3.390625q-0.90625 -1.109375 -2.265625 -1.109375q-1.40625 0 -2.34375 1.09375q-0.921875 1.078125 -0.921875 3.21875zm21.822266 2.875l3.8280945 0.640625q-0.734375 2.109375 -2.328125 3.21875q-1.5937195 1.09375 -3.9843445 1.09375q-3.796875 0 -5.609375 -2.46875q-1.4375 -1.984375 -1.4375 -5.015625q0 -3.609375 1.875 -5.640625q1.890625 -2.046877 4.78125 -2.046877q3.2343445 0 5.1093445 2.140627q1.875 2.140625 1.796875 6.546875l-9.6249695 0q0.046875 1.71875 0.921875 2.671875q0.890625 0.9375 2.21875 0.9375q0.90625 0 1.515625 -0.484375q0.625 -0.5 0.9375 -1.59375zm0.21875 -3.875q-0.046875 -1.671875 -0.875 -2.53125q-0.8125 -0.875 -1.984375 -0.875q-1.265625 0 -2.078125 0.90625q-0.828125 0.921875 -0.8125 2.5l5.75 0zm20.15036 8.5l-3.84375 0l0 -7.40625q0 -2.359375 -0.25 -3.046875q-0.234375 -0.6875 -0.796875 -1.0625q-0.546875 -0.390625 -1.328125 -0.390625q-1.0 0 -1.796875 0.546875q-0.796875 0.546875 -1.09375 1.453125q-0.28125 0.890625 -0.28125 3.328125l0 6.578125l-3.84375 0l0 -14.515627l3.5625 0l0 2.125002q1.90625 -2.453127 4.796875 -2.453127q1.265625 0 2.3125 0.453125q1.0625 0.453125 1.59375 1.171875q0.546875 0.7031269 0.75 1.6093769q0.21875 0.90625 0.21875 2.578125l0 9.03125zm3.9003906 -16.484377l0 -3.5625l3.84375 0l0 3.5625l-3.84375 0zm0 16.484377l0 -14.515627l3.84375 0l0 14.515627l-3.84375 0zm20.982422 0l-3.84375 0l0 -7.40625q0 -2.359375 -0.25 -3.046875q-0.234375 -0.6875 -0.796875 -1.0625q-0.546875 -0.390625 -1.328125 -0.390625q-1.0 0 -1.796875 0.546875q-0.796875 0.546875 -1.09375 1.453125q-0.28125 0.890625 -0.28125 3.328125l0 6.578125l-3.84375 0l0 -14.515627l3.5625 0l0 2.125002q1.90625 -2.453127 4.796875 -2.453127q1.265625 0 2.3125 0.453125q1.0625 0.453125 1.59375 1.171875q0.546875 0.7031269 0.75 1.6093769q0.21875 0.90625 0.21875 2.578125l0 9.03125zm3.5410156 0.953125l4.390625 0.53125q0.109375 0.765625 0.5 1.0625q0.546875 0.40625 1.71875 0.40625q1.515625 0 2.265625 -0.453125q0.5 -0.296875 0.765625 -0.96875q0.171875 -0.484375 0.171875 -1.765625l0 -2.125q-1.71875 2.359375 -4.34375 2.359375q-2.921875 0 -4.640625 -2.46875q-1.328125 -1.96875 -1.328125 -4.875q0 -3.65625 1.75 -5.578125q1.75 -1.9218769 4.375 -1.9218769q2.6875 0 4.4375 2.359377l0 -2.031252l3.59375 0l0 13.031252q0 2.5625 -0.421875 3.828125q-0.421875 1.28125 -1.1875 2.0q-0.765625 0.734375 -2.046875 1.140625q-1.28125 0.40625 -3.234375 0.40625q-3.6875 0 -5.234375 -1.265625q-1.546875 -1.265625 -1.546875 -3.203125q0 -0.1875 0.015625 -0.46875zm3.4375 -8.515625q0 2.3125 0.890625 3.390625q0.890625 1.0625 2.203125 1.0625q1.40625 0 2.375 -1.09375q0.984375 -1.109375 0.984375 -3.265625q0 -2.25 -0.9375 -3.34375q-0.921875 -1.09375 -2.34375 -1.09375q-1.390625 0 -2.28125 1.078125q-0.890625 1.0625 -0.890625 3.265625zm26.335938 7.5625l0 -16.656252l-5.9375 0l0 -3.390625l15.921875 0l0 3.390625l-5.9375 0l0 16.656252l-4.046875 0zm13.353516 -10.09375l-3.484375 -0.625q0.59375 -2.109375 2.03125 -3.109377q1.4375 -1.015625 4.265625 -1.015625q2.5625 0 3.8125 0.609375q1.265625 0.609375 1.78125 1.5468769q0.515625 0.921875 0.515625 3.4375l-0.046875 4.484375q0 1.90625 0.1875 2.8125q0.1875 0.90625 0.6875 1.953125l-3.796875 0q-0.15625 -0.390625 -0.375 -1.140625q-0.09375 -0.34375 -0.125 -0.453125q-0.984375 0.96875 -2.109375 1.453125q-1.125 0.46875 -2.390625 0.46875q-2.25 0 -3.546875 -1.21875q-1.28125 -1.21875 -1.28125 -3.078125q0 -1.234375 0.578125 -2.1875q0.59375 -0.96875 1.65625 -1.484375q1.0625 -0.515625 3.0625 -0.890625q2.6875 -0.5 3.71875 -0.9375l0 -0.390625q0 -1.109375 -0.546875 -1.578125q-0.546875 -0.46875 -2.0625 -0.46875q-1.015625 0 -1.59375 0.40625q-0.578125 0.390625 -0.9375 1.40625zm5.140625 3.125q-0.734375 0.234375 -2.34375 0.578125q-1.59375 0.34375 -2.078125 0.671875q-0.75 0.53125 -0.75 1.359375q0 0.796875 0.59375 1.390625q0.609375 0.59375 1.53125 0.59375q1.046875 0 1.984375 -0.6875q0.703125 -0.515625 0.921875 -1.265625q0.140625 -0.5 0.140625 -1.875l0 -0.765625zm7.2128906 7.921875l4.390625 0.53125q0.109375 0.765625 0.5 1.0625q0.546875 0.40625 1.71875 0.40625q1.515625 0 2.265625 -0.453125q0.5 -0.296875 0.765625 -0.96875q0.171875 -0.484375 0.171875 -1.765625l0 -2.125q-1.71875 2.359375 -4.34375 2.359375q-2.921875 0 -4.640625 -2.46875q-1.328125 -1.96875 -1.328125 -4.875q0 -3.65625 1.75 -5.578125q1.75 -1.9218769 4.375 -1.9218769q2.6875 0 4.4375 2.359377l0 -2.031252l3.59375 0l0 13.031252q0 2.5625 -0.421875 3.828125q-0.421875 1.28125 -1.1875 2.0q-0.765625 0.734375 -2.046875 1.140625q-1.28125 0.40625 -3.234375 0.40625q-3.6875 0 -5.234375 -1.265625q-1.546875 -1.265625 -1.546875 -3.203125q0 -0.1875 0.015625 -0.46875zm3.4375 -8.515625q0 2.3125 0.890625 3.390625q0.890625 1.0625 2.203125 1.0625q1.40625 0 2.375 -1.09375q0.984375 -1.109375 0.984375 -3.265625q0 -2.25 -0.9375 -3.34375q-0.921875 -1.09375 -2.34375 -1.09375q-1.390625 0 -2.28125 1.078125q-0.890625 1.0625 -0.890625 3.265625z" fill-rule="nonzero"/><path fill="#38761d" d="m381.0155 184.44543c3.3974915 0 6.2563477 1.3420105 8.576599 4.0260468c2.3202515 2.684021 3.4803772 6.894272 3.4803772 12.630737c0 5.2101746 -1.1417236 9.087112 -3.4251404 11.630814c-2.2742004 2.534912 -5.040985 3.8023682 -8.3003845 3.8023682c-3.231781 0 -6.0354004 -1.3288574 -8.410889 -3.9865723c-2.3754883 -2.6577148 -3.5632324 -6.6706085 -3.5632324 -12.038681c0 -5.5522614 1.1094971 -9.617783 3.3284607 -12.196548c2.2281494 -2.5787811 4.9995728 -3.868164 8.314209 -3.868164zm11.435455 -20.880203l0 20.76178c-1.2982178 -1.7104034 -2.9831543 -3.096283 -5.0548096 -4.1576233c-2.0716248 -1.0700989 -4.433319 -1.6051483 -7.085022 -1.6051483c-3.6184692 0 -6.8916626 0.9078369 -9.819611 2.7234955c-2.9279175 1.8156738 -5.123871 4.429535 -6.5878296 7.8415985c-1.4639587 3.4032745 -2.1959229 7.196884 -2.1959229 11.380814c0 4.2892 0.80563354 8.087189 2.4169006 11.393982c1.6204834 3.2980347 3.8993225 5.868042 6.836426 7.710022c2.94635 1.84198 6.173523 2.76297 9.681488 2.76297c5.41391 0 9.515778 -2.0788116 12.3055725 -6.2364197l0 5.2891235l6.9193115 0l0 -57.864594z" fill-rule="evenodd"/><path fill="#38761d" d="m439.68448 200.39174l0 2.6050873c0 3.1313782 -0.4005127 5.499634 -1.2015381 7.1047974c-1.0496521 2.0788116 -2.6931458 3.7190552 -4.9305115 4.9207306c-2.2373962 1.1929016 -4.7924194 1.7893524 -7.6651 1.7893524c-2.900299 0 -5.1054688 -0.631546 -6.615448 -1.8946075c-1.5007935 -1.2630768 -2.2511902 -2.841919 -2.2511902 -4.7365417c0 -1.2367554 0.34527588 -2.3594818 1.0358276 -3.3681946c0.69055176 -1.0174713 1.6711121 -1.7893524 2.9417114 -2.315628c1.2706299 -0.5262909 3.4389343 -0.99993896 6.5049744 -1.4209595c5.41391 -0.73680115 9.474335 -1.6314697 12.181274 -2.6840363zm-9.488129 -21.8275c-3.7842102 0 -7.1126404 0.49557495 -9.985321 1.4867401c-2.8726807 0.98239136 -5.068634 2.3901978 -6.5878296 4.223404c-1.5192261 1.8244476 -2.6102905 4.223404 -3.2732239 7.1968994l7.292206 0.94729614c0.8010254 -2.9734802 2.0348206 -5.043518 3.7013245 -6.2101135c1.6757507 -1.175354 4.2676086 -1.763031 7.7755737 -1.763031c3.7565918 0 6.58786 0.8025665 8.493774 2.40773c1.4086914 1.1841278 2.1130676 3.223465 2.1130676 6.1180115c0 0.26313782 -0.013824463 0.8815155 -0.04144287 1.8551483c-2.8450623 0.94729614 -7.2783813 1.763031 -13.299957 2.4472046c-2.955536 0.34207153 -5.1653137 0.6973114 -6.6292725 1.0657196c-1.9887695 0.52627563 -3.779602 1.302536 -5.372467 2.3287811c-1.5836487 1.0262604 -2.8680725 2.3901978 -3.853241 4.0918427c-0.97598267 1.6928711 -1.4639893 3.5655518 -1.4639893 5.618042c0 3.499771 1.2982483 6.37677 3.8947144 8.631012c2.596466 2.2454681 6.311615 3.3681946 11.145447 3.3681946c2.9279175 0 5.6671143 -0.460495 8.217529 -1.381485c2.5596313 -0.92099 5.2205505 -2.4998322 7.982727 -4.7365265c0.22097778 1.9735565 0.71817017 3.6971283 1.4916077 5.1707153l7.7893677 0c-0.93914795 -1.6051636 -1.5698547 -3.280487 -1.8920898 -5.0259857c-0.31304932 -1.7542725 -0.46957397 -5.9338226 -0.46957397 -12.5386505l0 -9.473053c0 -3.1576843 -0.124298096 -5.341751 -0.3728943 -6.5522003c-0.44195557 -1.9472351 -1.2153625 -3.556778 -2.3202515 -4.8286285c-1.1048889 -1.2806091 -2.8312378 -2.3419495 -5.1791077 -3.1839905c-2.3478699 -0.8420563 -5.4000854 -1.2630768 -9.156677 -1.2630768z" fill-rule="evenodd"/><path fill="#38761d" d="m467.56885 164.86778l-7.416504 4.262863l0 10.380905l-5.4691467 0l0 5.52594l5.4691467 0l0 24.116821c0 4.2628784 0.303833 7.0609436 0.91152954 8.39418c0.607666 1.3244781 1.6573181 2.394577 3.1488953 3.210312c1.4915771 0.81573486 3.5908508 1.2236023 6.2977905 1.2236023c1.6573181 0 3.535614 -0.21051025 5.6348877 -0.63153076l-1.0772705 -6.275894c-1.3534546 0.18418884 -2.444519 0.2762909 -3.2731934 0.2762909c-1.1048584 0 -1.956543 -0.17103577 -2.5550232 -0.51312256c-0.5892639 -0.3420868 -1.017395 -0.8025818 -1.2844238 -1.381485c-0.2578125 -0.57891846 -0.38668823 -1.8814545 -0.38668823 -3.9076385l0 -24.511536l7.4993286 0l0 -5.52594l-7.4993286 0l0 -14.643768z" fill-rule="evenodd"/><path fill="#38761d" d="m500.508 184.40596c3.7842102 0 6.864044 1.3683319 9.239532 4.1049805c1.5468445 1.7630463 2.4859924 4.407608 2.8174133 7.9336853l-24.569672 0c0.24859619 -3.6576538 1.5375977 -6.5785065 3.8670654 -8.762573c2.3386536 -2.1840668 5.2205505 -3.2760925 8.64566 -3.2760925zm-0.082855225 -5.8417206c-6.0768433 0 -11.021179 1.9472351 -14.832977 5.8417206c-3.8118286 3.8944702 -5.717743 9.367798 -5.717743 16.419968c0 6.815338 1.8828735 12.11322 5.6486816 15.893677c3.774994 3.7716827 8.880432 5.6575165 15.316345 5.6575165c5.110077 0 9.308594 -1.1841278 12.595612 -3.5523987c3.2869873 -2.3682556 5.538208 -5.696991 6.75354 -9.986176l-7.706482 -0.9078369c-1.1325073 2.9998016 -2.6655273 5.1838684 -4.59906 6.5522003c-1.9335327 1.3683319 -4.2676086 2.0524902 -7.0021667 2.0524902c-3.673706 0 -6.739746 -1.2236023 -9.19809 -3.670807c-2.458374 -2.4472046 -3.825653 -5.973282 -4.1018677 -10.578247l32.81488 0c0.02758789 -0.842041 0.041381836 -1.473587 0.041381836 -1.8946075c0 -6.9205933 -1.8644409 -12.288666 -5.593384 -16.104202c-3.729004 -3.8155365 -8.535217 -5.723297 -14.418671 -5.723297z" fill-rule="evenodd"/><path fill="#000000" fill-opacity="0.0" d="m108.727036 144.91096l0 -81.78113l982.15735 0l0 97.35683" fill-rule="evenodd"/><path stroke="#ff0000" stroke-width="2.0" stroke-linejoin="round" stroke-linecap="butt" d="m108.727036 144.91096l0 -81.78113l982.15735 0l0 97.35683" fill-rule="evenodd"/><path fill="#000000" fill-opacity="0.0" d="m364.41974 161.43102l0 -24.701355l156.04889 0l0 27.55127" fill-rule="evenodd"/><path stroke="#ff0000" stroke-width="2.0" stroke-linejoin="round" stroke-linecap="butt" d="m364.41974 161.43102l0 -24.701355l156.04889 0l0 27.55127" fill-rule="evenodd"/><path fill="#999999" d="m620.2811 172.43736c3.4803467 0 6.385254 1.5656891 8.714722 4.6970673c2.338623 3.131363 3.5079346 9.4599 3.5079346 18.98558c0 9.473053 -1.1693115 15.788422 -3.5079346 18.946106c-2.3294678 3.1576996 -5.206787 4.7365417 -8.631897 4.7365417c-3.4251099 0 -6.307007 -1.5700836 -8.64563 -4.7102203c-2.3294678 -3.1489105 -3.4942017 -9.473053 -3.4942017 -18.972427c0 -9.499374 1.2844238 -16.0121 3.8532715 -19.538177c2.0440063 -2.76297 4.7785645 -4.14447 8.203735 -4.14447zm0.08282471 -5.88118c-4.4194946 0 -8.088623 1.1315002 -11.007324 3.394516c-2.909546 2.2630005 -5.1054688 5.482086 -6.5878296 9.657242c-1.4732056 4.166397 -2.2097778 9.670425 -2.2097778 16.51207c0 10.867706 2.0026245 18.70929 6.0078125 23.52475c3.3422241 3.9997406 7.941284 5.9996033 13.797119 5.9996033c4.4471436 0 8.125488 -1.1358795 11.034973 -3.407669c2.9187012 -2.280548 5.1100464 -5.504013 6.5740356 -9.67041c1.4639282 -4.1751556 2.1959229 -9.657257 2.1959229 -16.446274c0 -5.7364655 -0.4557495 -10.293182 -1.3672485 -13.670151c-0.91156006 -3.3857422 -2.168335 -6.2539673 -3.7704468 -8.604691c-1.6020508 -2.359497 -3.6322632 -4.1620026 -6.090637 -5.4075317c-2.458313 -1.254303 -5.3171997 -1.8814545 -8.576599 -1.8814545z" fill-rule="evenodd"/><path fill="#999999" d="m667.7632 172.43736c3.2041626 0 5.9433594 1.1972961 8.217529 3.5918732c2.2834473 2.394577 3.425171 5.6312103 3.425171 9.709885c0 4.0786743 -1.1141357 7.271454 -3.3422852 9.578308c-2.218933 2.2980957 -5.0548096 3.4471436 -8.507568 3.4471436c-3.4251099 0 -6.307007 -1.1490479 -8.64563 -3.4471436c-2.3294678 -2.3068542 -3.4942017 -5.3022766 -3.4942017 -8.986237c0 -4.1049957 1.229187 -7.446884 3.687561 -10.025665c2.458313 -2.5787659 5.3448486 -3.868164 8.659424 -3.868164zm-0.911499 -5.88118c-5.469116 0 -10.022156 1.7893524 -13.659058 5.3680573c-3.6276855 3.57872 -5.4415283 8.3020935 -5.4415283 14.17012c0 5.683838 1.7401733 10.262482 5.220581 13.735931c3.4803467 3.4734497 7.734131 5.2101746 12.7612915 5.2101746c3.0108032 0 5.805237 -0.70170593 8.383301 -2.1051178c2.5872192 -1.4121857 4.626648 -3.2497864 6.118225 -5.512787c0.027648926 0.63153076 0.04144287 1.1051788 0.04144287 1.4209595c0 2.9471588 -0.37286377 5.8417053 -1.1186523 8.683624c-0.7458496 2.841919 -1.6711426 5.10054 -2.776062 6.7758636c-1.1048584 1.666565 -2.522766 2.9998016 -4.253723 3.9997406c-1.7218018 0.99993896 -3.729004 1.4999084 -6.0216064 1.4999084c-2.6793213 0 -4.875244 -0.7236481 -6.5878296 -2.1709137c-1.7125854 -1.4472809 -2.8726807 -3.776062 -3.4803467 -6.986374l-7.1679077 0.63153076c0.607666 4.5523224 2.4169312 8.087173 5.4276733 10.604553c3.0108032 2.508606 6.8917236 3.762909 11.6427 3.762909c4.4747314 0 8.374023 -1.1446533 11.697876 -3.4339752c3.3330078 -2.289322 5.842041 -5.6224365 7.5269775 -9.999344c1.6849365 -4.385666 2.5274048 -10.275635 2.5274048 -17.669876c0 -7.1047974 -0.8516846 -12.529877 -2.5550537 -16.275238c-1.6941528 -3.7541351 -4.1801147 -6.644287 -7.4578857 -8.670471c-3.2686157 -2.026184 -6.8778687 -3.0392761 -10.82782 -3.0392761z" fill-rule="evenodd"/><path fill="#999999" d="m709.0304 165.80623l-17.609009 59.838135l6.0078125 0l17.567505 -59.838135z" fill-rule="evenodd"/><path fill="#999999" d="m738.2406 172.43736c3.4803467 0 6.385254 1.5656891 8.714722 4.6970673c2.338623 3.131363 3.5079956 9.4599 3.5079956 18.98558c0 9.473053 -1.1693726 15.788422 -3.5079956 18.946106c-2.3294678 3.1576996 -5.206726 4.7365417 -8.631897 4.7365417c-3.4251099 0 -6.307007 -1.5700836 -8.64563 -4.7102203c-2.3294678 -3.1489105 -3.4942017 -9.473053 -3.4942017 -18.972427c0 -9.499374 1.2844238 -16.0121 3.8532715 -19.538177c2.0440063 -2.76297 4.7786255 -4.14447 8.203735 -4.14447zm0.08282471 -5.88118c-4.4194946 0 -8.088623 1.1315002 -11.007324 3.394516c-2.9094849 2.2630005 -5.1054688 5.482086 -6.5878296 9.657242c-1.4731445 4.166397 -2.2097778 9.670425 -2.2097778 16.51207c0 10.867706 2.0026245 18.70929 6.0078125 23.52475c3.3422241 3.9997406 7.941284 5.9996033 13.797119 5.9996033c4.4471436 0 8.125488 -1.1358795 11.034973 -3.407669c2.9187622 -2.280548 5.1101074 -5.504013 6.5740356 -9.67041c1.4639893 -4.1751556 2.1959229 -9.657257 2.1959229 -16.446274c0 -5.7364655 -0.4557495 -10.293182 -1.3672485 -13.670151c-0.91156006 -3.3857422 -2.168335 -6.2539673 -3.7703857 -8.604691c-1.6021118 -2.359497 -3.6323242 -4.1620026 -6.090637 -5.4075317c-2.458374 -1.254303 -5.3172607 -1.8814545 -8.57666 -1.8814545z" fill-rule="evenodd"/><path fill="#999999" d="m772.9199 167.58243l-5.883484 29.72171l7.0021973 0.8683624c1.1048584 -1.6577759 2.6240845 -3.004181 4.557617 -4.0392c1.9335327 -1.0437927 4.1018677 -1.5656891 6.504944 -1.5656891c3.8670654 0 6.992981 1.1709747 9.377686 3.5129242c2.3938599 2.3419495 3.5908203 5.5391083 3.5908203 9.591476c0 4.2628784 -1.242981 7.6837006 -3.7289429 10.262482c-2.485962 2.5787659 -5.524414 3.868164 -9.115234 3.868164c-2.9832153 0 -5.5336304 -0.91223145 -7.651306 -2.7366638c-2.1084595 -1.8332214 -3.4527588 -4.5654907 -4.032776 -8.196823l-7.8308105 0.63153076c0.49719238 4.868103 2.4905396 8.775742 5.9801025 11.722916c3.4987793 2.9471588 8.010376 4.420746 13.53479 4.420746c6.739746 0 12.056946 -2.3419495 15.95166 -7.0258484c3.2041626 -3.8155365 4.8062134 -8.341553 4.8062134 -13.578049c0 -5.499634 -1.8230591 -9.999329 -5.4691772 -13.4991c-3.6460571 -3.499771 -8.12085 -5.249649 -13.424255 -5.249649c-4.005188 0 -7.8308105 1.2104492 -11.476868 3.6313324l3.2731934 -15.551605l24.23822 0l0 -6.7890167z" fill-rule="evenodd"/><path fill="#999999" d="m826.98987 165.80623l-17.608948 59.838135l6.0077515 0l17.567566 -59.838135z" fill-rule="evenodd"/><path fill="#999999" d="m856.6558 166.55618c-5.772949 0 -10.372009 1.4297333 -13.797119 4.2891846c-3.425171 2.8506927 -5.4000854 6.999542 -5.9249268 12.446548l7.6651 0.7499542c0.02758789 -3.6313477 1.1186523 -6.4732666 3.2731934 -8.525757c2.15448 -2.0524902 5.0271606 -3.0787506 8.618042 -3.0787506c3.397522 0 6.1504517 0.9692383 8.258972 2.9077148c2.1176758 1.9296875 3.1765137 4.3023376 3.1765137 7.1179504c0 2.684021 -1.1601562 5.5347137 -3.4803467 8.552063c-2.3202515 3.0085754 -6.781189 7.091629 -13.382874 12.249176c-4.253784 3.3155823 -7.508545 6.236435 -9.764343 8.7625885c-2.246582 2.5261383 -3.8808594 5.0917664 -4.902893 7.6968536c-0.63531494 1.5788422 -0.925354 3.223465 -0.87005615 4.9338837l40.148438 0l0 -6.828491l-29.790222 0c0.8286133 -1.2893982 1.8782959 -2.5700073 3.1488647 -3.841858c1.2706299 -1.2806091 4.1433105 -3.7102814 8.618042 -7.288986c5.3587036 -4.315506 9.188904 -7.710022 11.490723 -10.183533c2.3110352 -2.473526 3.963745 -4.8286285 4.958191 -7.065323c0.99438477 -2.2366943 1.4915771 -4.512863 1.4915771 -6.828491c0 -4.5523376 -1.6987915 -8.367874 -5.0962524 -11.4466095c-3.397522 -3.0787506 -8.010376 -4.6181183 -13.838623 -4.6181183z" fill-rule="evenodd"/><path fill="#999999" d="m903.39215 172.43736c3.4803467 0 6.385254 1.5656891 8.714722 4.6970673c2.338684 3.131363 3.5079956 9.4599 3.5079956 18.98558c0 9.473053 -1.1693115 15.788422 -3.5079956 18.946106c-2.3294678 3.1576996 -5.206726 4.7365417 -8.631836 4.7365417c-3.4251099 0 -6.307007 -1.5700836 -8.645691 -4.7102203c-2.3294067 -3.1489105 -3.4941406 -9.473053 -3.4941406 -18.972427c0 -9.499374 1.2844238 -16.0121 3.8532104 -19.538177c2.0440674 -2.76297 4.7786255 -4.14447 8.203735 -4.14447zm0.08288574 -5.88118c-4.4194946 0 -8.088623 1.1315002 -11.007324 3.394516c-2.909546 2.2630005 -5.1054688 5.482086 -6.5878906 9.657242c-1.4731445 4.166397 -2.2097168 9.670425 -2.2097168 16.51207c0 10.867706 2.0025635 18.70929 6.0077515 23.52475c3.3422852 3.9997406 7.941345 5.9996033 13.79718 5.9996033c4.4471436 0 8.125427 -1.1358795 11.034973 -3.407669c2.9187012 -2.280548 5.1100464 -5.504013 6.5739746 -9.67041c1.4639893 -4.1751556 2.195984 -9.657257 2.195984 -16.446274c0 -5.7364655 -0.4557495 -10.293182 -1.3673096 -13.670151c-0.911499 -3.3857422 -2.168335 -6.2539673 -3.7703857 -8.604691c-1.6020508 -2.359497 -3.6322632 -4.1620026 -6.090637 -5.4075317c-2.458374 -1.254303 -5.3171997 -1.8814545 -8.576599 -1.8814545z" fill-rule="evenodd"/><path fill="#999999" d="m951.04 166.55618c-5.772949 0 -10.372009 1.4297333 -13.797119 4.2891846c-3.4251099 2.8506927 -5.4000854 6.999542 -5.9249268 12.446548l7.6651 0.7499542c0.02758789 -3.6313477 1.1187134 -6.4732666 3.2731934 -8.525757c2.154541 -2.0524902 5.0272217 -3.0787506 8.618042 -3.0787506c3.397522 0 6.1505127 0.9692383 8.258972 2.9077148c2.1176758 1.9296875 3.1765137 4.3023376 3.1765137 7.1179504c0 2.684021 -1.1600952 5.5347137 -3.4803467 8.552063c-2.3202515 3.0085754 -6.781189 7.091629 -13.382874 12.249176c-4.253723 3.3155823 -7.508545 6.236435 -9.764343 8.7625885c-2.246582 2.5261383 -3.8808594 5.0917664 -4.902893 7.6968536c-0.63531494 1.5788422 -0.92529297 3.223465 -0.87005615 4.9338837l40.148438 0l0 -6.828491l-29.790222 0c0.8286743 -1.2893982 1.8782959 -2.5700073 3.1488647 -3.841858c1.2706299 -1.2806091 4.1433105 -3.7102814 8.618103 -7.288986c5.3586426 -4.315506 9.188843 -7.710022 11.490723 -10.183533c2.3109741 -2.473526 3.963745 -4.8286285 4.95813 -7.065323c0.99438477 -2.2366943 1.4915771 -4.512863 1.4915771 -6.828491c0 -4.5523376 -1.6987305 -8.367874 -5.0962524 -11.4466095c-3.397522 -3.0787506 -8.010376 -4.6181183 -13.838623 -4.6181183z" fill-rule="evenodd"/><path fill="#999999" d="m998.23206 166.55618c-5.772949 0 -10.372009 1.4297333 -13.797119 4.2891846c-3.4251099 2.8506927 -5.4000854 6.999542 -5.9249268 12.446548l7.6651 0.7499542c0.027648926 -3.6313477 1.1187134 -6.4732666 3.2731934 -8.525757c2.154541 -2.0524902 5.0272217 -3.0787506 8.618042 -3.0787506c3.397522 0 6.1505127 0.9692383 8.258972 2.9077148c2.1176758 1.9296875 3.1765137 4.3023376 3.1765137 7.1179504c0 2.684021 -1.1600952 5.5347137 -3.4803467 8.552063c-2.3202515 3.0085754 -6.781189 7.091629 -13.3828125 12.249176c-4.253784 3.3155823 -7.508606 6.236435 -9.764404 8.7625885c-2.246582 2.5261383 -3.8808594 5.0917664 -4.902893 7.6968536c-0.63531494 1.5788422 -0.92529297 3.223465 -0.87005615 4.9338837l40.1485 0l0 -6.828491l-29.790283 0c0.8286743 -1.2893982 1.8782959 -2.5700073 3.1489258 -3.841858c1.2705688 -1.2806091 4.1432495 -3.7102814 8.618042 -7.288986c5.3586426 -4.315506 9.188843 -7.710022 11.490723 -10.183533c2.3110352 -2.473526 3.963745 -4.8286285 4.95813 -7.065323c0.99438477 -2.2366943 1.4915771 -4.512863 1.4915771 -6.828491c0 -4.5523376 -1.6987305 -8.367874 -5.0962524 -11.4466095c-3.397522 -3.0787506 -8.010376 -4.6181183 -13.838623 -4.6181183z" fill-rule="evenodd"/><path fill="#e69138" d="m529.74493 191.67249l0 5.1139526l34.31372 0l0 -5.1139526zm0 13.545883l0 5.1139526l34.31372 0l0 -5.1139526z" fill-rule="evenodd"/><path fill="#e69138" d="m573.3923 145.30035l0 11.001663l1.644043 12.789429l3.6168213 0l1.4796143 -12.789429l0 -11.001663zm10.91626 0l0 11.001663l1.611145 12.789429l3.5510864 0l1.5782471 -12.789429l0 -11.001663z" fill-rule="evenodd"/><path fill="#e69138" d="m1008.5488 138.62975l0 11.001663l1.644043 12.789444l3.6168213 0l1.4796143 -12.789444l0 -11.001663zm10.91626 0l0 11.001663l1.611145 12.789444l3.5510864 0l1.5782471 -12.789444l0 -11.001663z" fill-rule="evenodd"/><path fill="#000000" fill-opacity="0.0" d="m600.5594 163.33096l0 -26.601303l395.87927 0l0 25.651321" fill-rule="evenodd"/><path stroke="#ff0000" stroke-width="2.0" stroke-linejoin="round" stroke-linecap="butt" d="m600.5594 163.33096l0 -26.601303l395.87927 0l0 25.651321" fill-rule="evenodd"/><path fill="#000000" fill-opacity="0.0" d="m373.72702 89.06065l153.76376 0l0 39.905502l-153.76376 0z" fill-rule="evenodd"/><path fill="#000000" d="m402.8364 124.94065l-4.40625 0l-1.75 -4.546875l-8.0 0l-1.65625 4.546875l-4.296875 0l7.8125 -20.046875l4.28125 0l8.015625 20.046875zm-7.453125 -7.9375l-2.75 -7.4375l-2.71875 7.4375l5.46875 0zm16.236328 -6.578125l0 3.0625l-2.625 0l0 5.84375q0 1.78125 0.0625 2.078125q0.078125 0.296875 0.34375 0.484375q0.28125 0.1875 0.65625 0.1875q0.53125 0 1.546875 -0.375l0.328125 2.984375q-1.34375 0.578125 -3.03125 0.578125q-1.046875 0 -1.890625 -0.34375q-0.828125 -0.359375 -1.21875 -0.90625q-0.375 -0.5625 -0.53125 -1.5q-0.125 -0.671875 -0.125 -2.703125l0 -6.328125l-1.765625 0l0 -3.0625l1.765625 0l0 -2.890625l3.859375 -2.234375l0 5.125l2.625 0zm9.324219 0l0 3.0625l-2.625 0l0 5.84375q0 1.78125 0.0625 2.078125q0.078125 0.296875 0.34375 0.484375q0.28125 0.1875 0.65625 0.1875q0.53125 0 1.546875 -0.375l0.328125 2.984375q-1.34375 0.578125 -3.03125 0.578125q-1.046875 0 -1.890625 -0.34375q-0.828125 -0.359375 -1.21875 -0.90625q-0.375 -0.5625 -0.53125 -1.5q-0.125 -0.671875 -0.125 -2.703125l0 -6.328125l-1.765625 0l0 -3.0625l1.765625 0l0 -2.890625l3.859375 -2.234375l0 5.125l2.625 0zm6.3398438 14.515625l-3.84375 0l0 -14.515625l3.578125 0l0 2.0625q0.90625 -1.46875 1.640625 -1.921875q0.734375 -0.46875 1.65625 -0.46875q1.3125 0 2.53125 0.71875l-1.1875 3.34375q-0.96875 -0.625 -1.796875 -0.625q-0.8125 0 -1.375 0.453125q-0.5625 0.4375 -0.890625 1.609375q-0.3125 1.15625 -0.3125 4.859375l0 4.484375zm7.2246094 -16.484375l0 -3.5625l3.84375 0l0 3.5625l-3.84375 0zm0 16.484375l0 -14.515625l3.84375 0l0 14.515625l-3.84375 0zm7.607422 0l0 -20.046875l3.84375 0l0 7.21875q1.78125 -2.015625 4.21875 -2.015625q2.640625 0 4.375 1.921875q1.75 1.921875 1.75 5.515625q0 3.71875 -1.78125 5.734375q-1.765625 2.0 -4.296875 2.0q-1.25 0 -2.453125 -0.625q-1.203125 -0.625 -2.078125 -1.84375l0 2.140625l-3.578125 0zm3.8125 -7.578125q0 2.265625 0.71875 3.34375q1.0 1.53125 2.65625 1.53125q1.265625 0 2.15625 -1.078125q0.90625 -1.09375 0.90625 -3.4375q0 -2.484375 -0.90625 -3.578125q-0.90625 -1.109375 -2.3125 -1.109375q-1.375 0 -2.296875 1.078125q-0.921875 1.0625 -0.921875 3.25zm23.009766 7.578125l0 -2.171875q-0.78125 1.15625 -2.078125 1.828125q-1.296875 0.671875 -2.734375 0.671875q-1.453125 0 -2.625 -0.640625q-1.15625 -0.640625 -1.6875 -1.796875q-0.515625 -1.171875 -0.515625 -3.21875l0 -9.1875l3.84375 0l0 6.671875q0 3.0625 0.203125 3.75q0.21875 0.6875 0.78125 1.09375q0.5625 0.40625 1.421875 0.40625q0.984375 0 1.765625 -0.53125q0.78125 -0.546875 1.0625 -1.34375q0.296875 -0.8125 0.296875 -3.921875l0 -6.125l3.84375 0l0 14.515625l-3.578125 0zm14.212891 -14.515625l0 3.0625l-2.625 0l0 5.84375q0 1.78125 0.0625 2.078125q0.078125 0.296875 0.34375 0.484375q0.28125 0.1875 0.65625 0.1875q0.53125 0 1.546875 -0.375l0.328125 2.984375q-1.34375 0.578125 -3.03125 0.578125q-1.046875 0 -1.890625 -0.34375q-0.828125 -0.359375 -1.21875 -0.90625q-0.375 -0.5625 -0.53125 -1.5q-0.125 -0.671875 -0.125 -2.703125l0 -6.328125l-1.765625 0l0 -3.0625l1.765625 0l0 -2.890625l3.859375 -2.234375l0 5.125l2.625 0zm11.074219 9.890625l3.828125 0.640625q-0.734375 2.109375 -2.328125 3.21875q-1.59375 1.09375 -3.984375 1.09375q-3.796875 0 -5.609375 -2.46875q-1.4375 -1.984375 -1.4375 -5.015625q0 -3.609375 1.875 -5.640625q1.890625 -2.046875 4.78125 -2.046875q3.234375 0 5.109375 2.140625q1.875 2.140625 1.796875 6.546875l-9.625 0q0.046875 1.71875 0.921875 2.671875q0.890625 0.9375 2.21875 0.9375q0.90625 0 1.515625 -0.484375q0.625 -0.5 0.9375 -1.59375zm0.21875 -3.875q-0.046875 -1.671875 -0.875 -2.53125q-0.8125 -0.875 -1.984375 -0.875q-1.265625 0 -2.078125 0.90625q-0.828125 0.921875 -0.8125 2.5l5.75 0z" fill-rule="nonzero"/><path fill="#000000" fill-opacity="0.0" d="m750.2717 87.79819l153.7638 0l0 39.90551l-153.7638 0z" fill-rule="evenodd"/><path fill="#000000" d="m766.428 123.678185l-7.171875 -20.046875l4.390625 0l5.078125 14.84375l4.90625 -14.84375l4.296875 0l-7.1875 20.046875l-4.3125 0zm14.849609 -10.09375l-3.484375 -0.625q0.59375 -2.109375 2.03125 -3.109375q1.4375 -1.015625 4.265625 -1.015625q2.5625 0 3.8125 0.609375q1.265625 0.609375 1.78125 1.546875q0.515625 0.921875 0.515625 3.4375l-0.046875 4.484375q0 1.90625 0.1875 2.8125q0.1875 0.90625 0.6875 1.953125l-3.796875 0q-0.15625 -0.390625 -0.375 -1.140625q-0.09375 -0.34375 -0.125 -0.453125q-0.984375 0.96875 -2.109375 1.453125q-1.125 0.46875 -2.390625 0.46875q-2.25 0 -3.546875 -1.21875q-1.28125 -1.21875 -1.28125 -3.078125q0 -1.234375 0.578125 -2.1875q0.59375 -0.96875 1.65625 -1.484375q1.0625 -0.515625 3.0625 -0.890625q2.6875 -0.5 3.71875 -0.9375l0 -0.390625q0 -1.109375 -0.546875 -1.578125q-0.546875 -0.46875 -2.0625 -0.46875q-1.015625 0 -1.59375 0.40625q-0.578125 0.390625 -0.9375 1.40625zm5.140625 3.125q-0.734375 0.234375 -2.34375 0.578125q-1.59375 0.34375 -2.078125 0.671875q-0.75 0.53125 -0.75 1.359375q0 0.796875 0.59375 1.390625q0.609375 0.59375 1.53125 0.59375q1.046875 0 1.984375 -0.6875q0.703125 -0.515625 0.921875 -1.265625q0.140625 -0.5 0.140625 -1.875l0 -0.765625zm7.5722656 6.96875l0 -20.046875l3.84375 0l0 20.046875l-3.84375 0zm17.326172 0l0 -2.171875q-0.78125 1.15625 -2.078125 1.828125q-1.296875 0.671875 -2.734375 0.671875q-1.453125 0 -2.625 -0.640625q-1.15625 -0.640625 -1.6875 -1.796875q-0.515625 -1.171875 -0.515625 -3.21875l0 -9.1875l3.84375 0l0 6.671875q0 3.0625 0.203125 3.75q0.21875 0.6875 0.78125 1.09375q0.5625 0.40625 1.421875 0.40625q0.984375 0 1.765625 -0.53125q0.78125 -0.546875 1.0625 -1.34375q0.296875 -0.8125 0.296875 -3.921875l0 -6.125l3.84375 0l0 14.515625l-3.578125 0zm15.962891 -4.625l3.828125 0.640625q-0.734375 2.109375 -2.328125 3.21875q-1.59375 1.09375 -3.984375 1.09375q-3.796875 0 -5.609375 -2.46875q-1.4375 -1.984375 -1.4375 -5.015625q0 -3.609375 1.875 -5.640625q1.890625 -2.046875 4.78125 -2.046875q3.234375 0 5.109375 2.140625q1.875 2.140625 1.796875 6.546875l-9.625 0q0.046875 1.71875 0.921875 2.671875q0.890625 0.9375 2.21875 0.9375q0.90625 0 1.515625 -0.484375q0.625 -0.5 0.9375 -1.59375zm0.21875 -3.875q-0.046875 -1.671875 -0.875 -2.53125q-0.8125 -0.875 -1.984375 -0.875q-1.265625 0 -2.078125 0.90625q-0.828125 0.921875 -0.8125 2.5l5.75 0z" fill-rule="nonzero"/><path fill="#000000" fill-opacity="0.0" d="m108.727036 263.72702l957.5748 0l0 143.43307l-957.5748 0z" fill-rule="evenodd"/><path fill="#000000" d="m148.30516 309.60016l4.921875 1.234375q-1.546875 6.078125 -5.578125 9.265625q-4.015625 3.1875 -9.84375 3.1875q-6.015625 0 -9.78125 -2.453125q-3.765625 -2.453125 -5.734375 -7.09375q-1.96875 -4.65625 -1.96875 -9.984375q0 -5.8125 2.21875 -10.140625q2.21875 -4.328125 6.3125 -6.578125q4.109375 -2.25 9.03125 -2.25q5.59375 0 9.390625 2.84375q3.8125 2.84375 5.3125 8.0l-4.84375 1.140625q-1.296875 -4.0625 -3.765625 -5.90625q-2.453125 -1.859375 -6.1875 -1.859375q-4.296875 0 -7.1875 2.0625q-2.875 2.046875 -4.046875 5.515625q-1.15625 3.46875 -1.15625 7.140625q0 4.75 1.375 8.296875q1.390625 3.546875 4.3125 5.296875q2.921875 1.75 6.3125 1.75q4.140625 0 7.015625 -2.390625q2.875 -2.390625 3.890625 -7.078125zm8.708984 -0.4375q0 -7.484375 4.15625 -11.09375q3.484375 -3.0 8.484375 -3.0q5.5625 0 9.078125 3.65625q3.53125 3.640625 3.53125 10.0625q0 5.203125 -1.5625 8.1875q-1.546875 2.984375 -4.53125 4.640625q-2.984375 1.640625 -6.515625 1.640625q-5.671875 0 -9.15625 -3.625q-3.484375 -3.640625 -3.484375 -10.46875zm4.6875 0q0 5.1875 2.25 7.765625q2.265625 2.5625 5.703125 2.5625q3.40625 0 5.65625 -2.578125q2.265625 -2.59375 2.265625 -7.90625q0 -5.0 -2.28125 -7.578125q-2.265625 -2.578125 -5.640625 -2.578125q-3.4375 0 -5.703125 2.578125q-2.25 2.5625 -2.25 7.734375zm25.919922 13.484375l0 -26.96875l4.125 0l0 3.84375q2.96875 -4.453125 8.578125 -4.453125q2.4375 0 4.484375 0.875q2.046875 0.875 3.0625 2.296875q1.015625 1.421875 1.421875 3.375q0.25 1.28125 0.25 4.453125l0 16.578125l-4.578125 0l0 -16.40625q0 -2.796875 -0.53125 -4.171875q-0.53125 -1.390625 -1.890625 -2.203125q-1.359375 -0.828125 -3.1875 -0.828125q-2.921875 0 -5.046875 1.859375q-2.109375 1.84375 -2.109375 7.015625l0 14.734375l-4.578125 0zm38.904297 -4.09375l0.65625 4.046875q-1.921875 0.40625 -3.453125 0.40625q-2.484375 0 -3.859375 -0.78125q-1.359375 -0.796875 -1.921875 -2.078125q-0.5625 -1.28125 -0.5625 -5.390625l0 -15.515625l-3.34375 0l0 -3.5625l3.34375 0l0 -6.671875l4.546875 -2.75l0 9.421875l4.59375 0l0 3.5625l-4.59375 0l0 15.765625q0 1.953125 0.234375 2.515625q0.25 0.546875 0.796875 0.890625q0.546875 0.328125 1.5625 0.328125q0.75 0 2.0 -0.1875zm22.93164 -4.59375l4.71875 0.59375q-1.109375 4.125 -4.140625 6.421875q-3.015625 2.28125 -7.71875 2.28125q-5.90625 0 -9.375 -3.640625q-3.46875 -3.640625 -3.46875 -10.21875q0 -6.8125 3.5 -10.5625q3.5 -3.765625 9.09375 -3.765625q5.40625 0 8.828125 3.6875q3.4375 3.671875 3.4375 10.359375q0 0.40625 -0.03125 1.21875l-20.109375 0q0.25 4.4375 2.515625 6.796875q2.265625 2.359375 5.640625 2.359375q2.515625 0 4.28125 -1.3125q1.78125 -1.328125 2.828125 -4.21875zm-15.015625 -7.390625l15.0625 0q-0.296875 -3.390625 -1.71875 -5.09375q-2.1875 -2.640625 -5.671875 -2.640625q-3.140625 0 -5.296875 2.109375q-2.140625 2.09375 -2.375 5.625zm25.466782 16.078125l0 -26.96875l4.125 0l0 3.84375q2.96875 -4.453125 8.578125 -4.453125q2.4375 0 4.484375 0.875q2.046875 0.875 3.0625 2.296875q1.015625 1.421875 1.421875 3.375q0.25 1.28125 0.25 4.453125l0 16.578125l-4.578125 0l0 -16.40625q0 -2.796875 -0.53125 -4.171875q-0.53125 -1.390625 -1.890625 -2.203125q-1.359375 -0.828125 -3.1875 -0.828125q-2.921875 0 -5.046875 1.859375q-2.109375 1.84375 -2.109375 7.015625l0 14.734375l-4.578125 0zm38.904297 -4.09375l0.65625 4.046875q-1.921875 0.40625 -3.453125 0.40625q-2.484375 0 -3.859375 -0.78125q-1.359375 -0.796875 -1.921875 -2.078125q-0.5625 -1.28125 -0.5625 -5.390625l0 -15.515625l-3.34375 0l0 -3.5625l3.34375 0l0 -6.671875l4.546875 -2.75l0 9.421875l4.59375 0l0 3.5625l-4.59375 0l0 15.765625q0 1.953125 0.234375 2.515625q0.25 0.546875 0.796875 0.890625q0.546875 0.328125 1.5625 0.328125q0.75 0 2.0 -0.1875zm18.941406 -27.875l0 -5.25l4.578125 0l0 5.25l-4.578125 0zm0 31.96875l0 -26.96875l4.578125 0l0 26.96875l-4.578125 0zm9.693359 -8.046875l4.53125 -0.71875q0.375 2.71875 2.109375 4.171875q1.75 1.4375 4.875 1.4375q3.140625 0 4.65625 -1.28125q1.53125 -1.28125 1.53125 -3.0q0 -1.546875 -1.34375 -2.4375q-0.9375 -0.609375 -4.671875 -1.546875q-5.03125 -1.28125 -6.96875 -2.203125q-1.9375 -0.921875 -2.953125 -2.5625q-1.0 -1.640625 -1.0 -3.625q0 -1.796875 0.828125 -3.328125q0.828125 -1.546875 2.25 -2.5625q1.0625 -0.78125 2.90625 -1.328125q1.84375 -0.546875 3.953125 -0.546875q3.171875 0 5.5625 0.921875q2.40625 0.90625 3.546875 2.46875q1.140625 1.5625 1.578125 4.171875l-4.46875 0.609375q-0.3125 -2.078125 -1.78125 -3.234375q-1.453125 -1.171875 -4.109375 -1.171875q-3.15625 0 -4.5 1.046875q-1.34375 1.03125 -1.34375 2.421875q0 0.890625 0.5625 1.609375q0.546875 0.734375 1.75 1.21875q0.6875 0.25 4.03125 1.15625q4.859375 1.296875 6.765625 2.125q1.921875 0.828125 3.015625 2.40625q1.09375 1.5625 1.09375 3.90625q0 2.28125 -1.34375 4.3125q-1.328125 2.015625 -3.84375 3.125q-2.515625 1.09375 -5.6875 1.09375q-5.25 0 -8.015625 -2.1875q-2.75 -2.1875 -3.515625 -6.46875zm59.947266 8.046875l0 -3.96875q-3.140625 4.578125 -8.546875 4.578125q-2.390625 0 -4.46875 -0.90625q-2.0625 -0.921875 -3.0625 -2.296875q-1.0 -1.390625 -1.40625 -3.40625q-0.28125 -1.34375 -0.28125 -4.265625l0 -16.703125l4.5625 0l0 14.953125q0 3.578125 0.28125 4.828125q0.4375 1.796875 1.828125 2.828125q1.40625 1.03125 3.453125 1.03125q2.0625 0 3.859375 -1.046875q1.8125 -1.0625 2.5625 -2.875q0.75 -1.8125 0.75 -5.265625l0 -14.453125l4.5625 0l0 26.96875l-4.09375 0zm9.419922 -8.046875l4.53125 -0.71875q0.375 2.71875 2.109375 4.171875q1.75 1.4375 4.875 1.4375q3.140625 0 4.65625 -1.28125q1.53125 -1.28125 1.53125 -3.0q0 -1.546875 -1.34375 -2.4375q-0.9375 -0.609375 -4.671875 -1.546875q-5.03125 -1.28125 -6.96875 -2.203125q-1.9375 -0.921875 -2.953125 -2.5625q-1.0 -1.640625 -1.0 -3.625q0 -1.796875 0.828125 -3.328125q0.828125 -1.546875 2.25 -2.5625q1.0625 -0.78125 2.90625 -1.328125q1.84375 -0.546875 3.953125 -0.546875q3.171875 0 5.5625 0.921875q2.40625 0.90625 3.546875 2.46875q1.140625 1.5625 1.578125 4.171875l-4.46875 0.609375q-0.3125 -2.078125 -1.78125 -3.234375q-1.453125 -1.171875 -4.109375 -1.171875q-3.15625 0 -4.5 1.046875q-1.34375 1.03125 -1.34375 2.421875q0 0.890625 0.5625 1.609375q0.546875 0.734375 1.75 1.21875q0.6875 0.25 4.03125 1.15625q4.859375 1.296875 6.765625 2.125q1.921875 0.828125 3.015625 2.40625q1.09375 1.5625 1.09375 3.90625q0 2.28125 -1.34375 4.3125q-1.328125 2.015625 -3.84375 3.125q-2.515625 1.09375 -5.6875 1.09375q-5.25 0 -8.015625 -2.1875q-2.75 -2.1875 -3.515625 -6.46875zm45.5 8.046875l0 -3.96875q-3.140625 4.578125 -8.546875 4.578125q-2.390625 0 -4.46875 -0.90625q-2.0625 -0.921875 -3.0625 -2.296875q-1.0 -1.390625 -1.40625 -3.40625q-0.28125 -1.34375 -0.28125 -4.265625l0 -16.703125l4.5625 0l0 14.953125q0 3.578125 0.28125 4.828125q0.4375 1.796875 1.828125 2.828125q1.40625 1.03125 3.453125 1.03125q2.0625 0 3.859375 -1.046875q1.8125 -1.0625 2.5625 -2.875q0.75 -1.8125 0.75 -5.265625l0 -14.453125l4.5625 0l0 26.96875l-4.09375 0zm28.857422 -3.328125q-2.546875 2.15625 -4.90625 3.046875q-2.34375 0.890625 -5.03125 0.890625q-4.4375 0 -6.828125 -2.171875q-2.390625 -2.171875 -2.390625 -5.546875q0 -1.984375 0.90625 -3.609375q0.90625 -1.640625 2.359375 -2.625q1.46875 -1.0 3.296875 -1.515625q1.34375 -0.34375 4.0625 -0.6875q5.53125 -0.65625 8.140625 -1.5625q0.03125 -0.9375 0.03125 -1.203125q0 -2.78125 -1.296875 -3.9375q-1.75 -1.546875 -5.203125 -1.546875q-3.234375 0 -4.765625 1.140625q-1.53125 1.125 -2.265625 4.0l-4.46875 -0.609375q0.609375 -2.875 2.0 -4.640625q1.390625 -1.765625 4.03125 -2.71875q2.640625 -0.953125 6.125 -0.953125q3.453125 0 5.609375 0.8125q2.15625 0.8125 3.171875 2.046875q1.015625 1.234375 1.421875 3.109375q0.234375 1.171875 0.234375 4.21875l0 6.09375q0 6.375 0.28125 8.0625q0.296875 1.6875 1.171875 3.234375l-4.78125 0q-0.703125 -1.421875 -0.90625 -3.328125zm-0.390625 -10.203125q-2.484375 1.015625 -7.46875 1.71875q-2.8125 0.40625 -3.984375 0.921875q-1.15625 0.5 -1.796875 1.484375q-0.640625 0.96875 -0.640625 2.171875q0 1.828125 1.375 3.046875q1.390625 1.21875 4.0625 1.21875q2.640625 0 4.6875 -1.15625q2.0625 -1.15625 3.03125 -3.15625q0.734375 -1.5625 0.734375 -4.578125l0 -1.671875zm11.607422 13.53125l0 -37.21875l4.5625 0l0 37.21875l-4.5625 0zm11.552734 0l0 -37.21875l4.5625 0l0 37.21875l-4.5625 0zm11.443359 10.390625l-0.5 -4.296875q1.5 0.40625 2.609375 0.40625q1.53125 0 2.4375 -0.515625q0.921875 -0.5 1.5 -1.40625q0.4375 -0.6875 1.4062805 -3.40625q0.125 -0.390625 0.40625 -1.125l-10.2344055 -27.015625l4.921875 0l5.6094055 15.625q1.09375 2.96875 1.953125 6.234375q0.796875 -3.140625 1.875 -6.140625l5.765625 -15.71875l4.578125 0l-10.265625 27.421875q-1.640625 4.453125 -2.5625 6.125q-1.21875 2.265625 -2.796875 3.3125q-1.5625305 1.046875 -3.7500305 1.046875q-1.328125 0 -2.953125 -0.546875zm58.259796 -13.71875q-2.546875 2.15625 -4.90625 3.046875q-2.34375 0.890625 -5.03125 0.890625q-4.4375 0 -6.828125 -2.171875q-2.390625 -2.171875 -2.390625 -5.546875q0 -1.984375 0.90625 -3.609375q0.90625 -1.640625 2.359375 -2.625q1.46875 -1.0 3.296875 -1.515625q1.34375 -0.34375 4.0625 -0.6875q5.53125 -0.65625 8.140625 -1.5625q0.03125 -0.9375 0.03125 -1.203125q0 -2.78125 -1.296875 -3.9375q-1.75 -1.546875 -5.203125 -1.546875q-3.234375 0 -4.765625 1.140625q-1.53125 1.125 -2.265625 4.0l-4.46875 -0.609375q0.609375 -2.875 2.0 -4.640625q1.390625 -1.765625 4.03125 -2.71875q2.640625 -0.953125 6.125 -0.953125q3.453125 0 5.609375 0.8125q2.15625 0.8125 3.171875 2.046875q1.015625 1.234375 1.421875 3.109375q0.234375 1.171875 0.234375 4.21875l0 6.09375q0 6.375 0.28125 8.0625q0.296875 1.6875 1.171875 3.234375l-4.78125 0q-0.703125 -1.421875 -0.90625 -3.328125zm-0.390625 -10.203125q-2.484375 1.015625 -7.46875 1.71875q-2.8125 0.40625 -3.984375 0.921875q-1.15625 0.5 -1.796875 1.484375q-0.640625 0.96875 -0.640625 2.171875q0 1.828125 1.375 3.046875q1.390625 1.21875 4.0625 1.21875q2.640625 0 4.6875 -1.15625q2.0625 -1.15625 3.03125 -3.15625q0.734375 -1.5625 0.734375 -4.578125l0 -1.671875zm24.320312 5.484375l4.53125 -0.71875q0.375 2.71875 2.109375 4.171875q1.75 1.4375 4.875 1.4375q3.140625 0 4.65625 -1.28125q1.53125 -1.28125 1.53125 -3.0q0 -1.546875 -1.34375 -2.4375q-0.9375 -0.609375 -4.671875 -1.546875q-5.03125 -1.28125 -6.96875 -2.203125q-1.9375 -0.921875 -2.953125 -2.5625q-1.0 -1.640625 -1.0 -3.625q0 -1.796875 0.828125 -3.328125q0.828125 -1.546875 2.25 -2.5625q1.0625 -0.78125 2.90625 -1.328125q1.84375 -0.546875 3.953125 -0.546875q3.171875 0 5.5625 0.921875q2.40625 0.90625 3.546875 2.46875q1.140625 1.5625 1.578125 4.171875l-4.46875 0.609375q-0.3125 -2.078125 -1.78125 -3.234375q-1.453125 -1.171875 -4.109375 -1.171875q-3.15625 0 -4.5 1.046875q-1.34375 1.03125 -1.34375 2.421875q0 0.890625 0.5625 1.609375q0.546875 0.734375 1.75 1.21875q0.6875 0.25 4.03125 1.15625q4.859375 1.296875 6.765625 2.125q1.921875 0.828125 3.015625 2.40625q1.09375 1.5625 1.09375 3.90625q0 2.28125 -1.34375 4.3125q-1.328125 2.015625 -3.84375 3.125q-2.515625 1.09375 -5.6875 1.09375q-5.25 0 -8.015625 -2.1875q-2.75 -2.1875 -3.515625 -6.46875zm27.859375 -23.921875l0 -5.25l4.578125 0l0 5.25l-4.578125 0zm0 31.96875l0 -26.96875l4.578125 0l0 26.96875l-4.578125 0zm11.521484 0l0 -26.96875l4.09375 0l0 3.78125q1.265625 -1.96875 3.375 -3.171875q2.109375 -1.21875 4.796875 -1.21875q3.0 0 4.90625 1.25q1.921875 1.234375 2.71875 3.46875q3.203125 -4.71875 8.328125 -4.71875q4.015625 0 6.171875 2.234375q2.15625 2.21875 2.15625 6.828125l0 18.515625l-4.546875 0l0 -16.984375q0 -2.75 -0.453125 -3.953125q-0.4375 -1.203125 -1.609375 -1.9375q-1.15625 -0.734375 -2.734375 -0.734375q-2.84375 0 -4.734375 1.890625q-1.875 1.890625 -1.875 6.046875l0 15.671875l-4.5625 0l0 -17.515625q0 -3.046875 -1.125 -4.5625q-1.109375 -1.53125 -3.65625 -1.53125q-1.921875 0 -3.5625 1.015625q-1.640625 1.015625 -2.375 2.96875q-0.734375 1.953125 -0.734375 5.640625l0 13.984375l-4.578125 0zm43.316406 10.328125l0 -37.296875l4.171875 0l0 3.5q1.46875 -2.046875 3.3125 -3.078125q1.859375 -1.03125 4.5 -1.03125q3.453125 0 6.09375 1.78125q2.640625 1.78125 3.984375 5.015625q1.359375 3.234375 1.359375 7.09375q0 4.140625 -1.484375 7.453125q-1.484375 3.3125 -4.328125 5.078125q-2.828125 1.765625 -5.953125 1.765625q-2.28125 0 -4.09375 -0.96875q-1.8125 -0.96875 -2.984375 -2.4375l0 13.125l-4.578125 0zm4.140625 -23.65625q0 5.203125 2.109375 7.6875q2.109375 2.484375 5.109375 2.484375q3.046875 0 5.21875 -2.5625q2.171875 -2.578125 2.171875 -8.0q0 -5.140625 -2.125 -7.703125q-2.125 -2.578125 -5.0625 -2.578125q-2.921875 0 -5.171875 2.734375q-2.25 2.734375 -2.25 7.9375zm24.685547 13.328125l0 -37.21875l4.5625 0l0 37.21875l-4.5625 0zm30.115234 -8.6875l4.71875 0.59375q-1.109375 4.125 -4.140625 6.421875q-3.015625 2.28125 -7.71875 2.28125q-5.90625 0 -9.375 -3.640625q-3.46875 -3.640625 -3.46875 -10.21875q0 -6.8125 3.5 -10.5625q3.5 -3.765625 9.09375 -3.765625q5.40625 0 8.828125 3.6875q3.4375 3.671875 3.4375 10.359375q0 0.40625 -0.03125 1.21875l-20.109375 0q0.25 4.4375 2.515625 6.796875q2.265625 2.359375 5.640625 2.359375q2.515625 0 4.28125 -1.3125q1.78125 -1.328125 2.828125 -4.21875zm-15.015625 -7.390625l15.0625 0q-0.296875 -3.390625 -1.71875 -5.09375q-2.1875 -2.640625 -5.671875 -2.640625q-3.140625 0 -5.296875 2.109375q-2.140625 2.09375 -2.375 5.625zm49.898438 11.984375l0.65625 4.046875q-1.921875 0.40625 -3.453125 0.40625q-2.484375 0 -3.859375 -0.78125q-1.359375 -0.796875 -1.921875 -2.078125q-0.5625 -1.28125 -0.5625 -5.390625l0 -15.515625l-3.34375 0l0 -3.5625l3.34375 0l0 -6.671875l4.546875 -2.75l0 9.421875l4.59375 0l0 3.5625l-4.59375 0l0 15.765625q0 1.953125 0.234375 2.515625q0.25 0.546875 0.796875 0.890625q0.546875 0.328125 1.5625 0.328125q0.75 0 2.0 -0.1875zm22.93164 -4.59375l4.71875 0.59375q-1.109375 4.125 -4.140625 6.421875q-3.015625 2.28125 -7.71875 2.28125q-5.90625 0 -9.375 -3.640625q-3.46875 -3.640625 -3.46875 -10.21875q0 -6.8125 3.5 -10.5625q3.5 -3.765625 9.09375 -3.765625q5.40625 0 8.828125 3.6875q3.4375 3.671875 3.4375 10.359375q0 0.40625 -0.03125 1.21875l-20.109375 0q0.25 4.4375 2.515625 6.796875q2.265625 2.359375 5.640625 2.359375q2.515625 0 4.28125 -1.3125q1.78125 -1.328125 2.828125 -4.21875zm-15.015625 -7.390625l15.0625 0q-0.296875 -3.390625 -1.71875 -5.09375q-2.1875 -2.640625 -5.671875 -2.640625q-3.140625 0 -5.296875 2.109375q-2.140625 2.09375 -2.375 5.625zm22.419922 16.078125l9.859375 -14.015625l-9.109375 -12.953125l5.703125 0l4.140625 6.328125q1.171875 1.796875 1.875 3.015625q1.125 -1.671875 2.0625 -2.96875l4.546875 -6.375l5.453125 0l-9.3125 12.703125l10.03125 14.265625l-5.609375 0l-5.546875 -8.375l-1.46875 -2.265625l-7.078125 10.640625l-5.546875 0zm39.03125 -4.09375l0.65625 4.046875q-1.921875 0.40625 -3.453125 0.40625q-2.484375 0 -3.859375 -0.78125q-1.359375 -0.796875 -1.921875 -2.078125q-0.5625 -1.28125 -0.5625 -5.390625l0 -15.515625l-3.34375 0l0 -3.5625l3.34375 0l0 -6.671875l4.546875 -2.75l0 9.421875l4.59375 0l0 3.5625l-4.59375 0l0 15.765625q0 1.953125 0.234375 2.515625q0.25 0.546875 0.796875 0.890625q0.546875 0.328125 1.5625 0.328125q0.75 0 2.0 -0.1875zm5.6660156 4.09375l0 -5.203125l5.203125 0l0 5.203125q0 2.875 -1.015625 4.640625q-1.015625 1.765625 -3.21875 2.71875l-1.28125 -1.953125q1.453125 -0.625 2.140625 -1.859375q0.6875 -1.234375 0.765625 -3.546875l-2.59375 0z" fill-rule="nonzero"/><path fill="#000000" d="m119.46141 371.16266q0 -7.484375 4.15625 -11.09375q3.484375 -3.0 8.484375 -3.0q5.5625 0 9.078125 3.65625q3.53125 3.640625 3.53125 10.0625q0 5.203125 -1.5625 8.1875q-1.546875 2.984375 -4.53125 4.640625q-2.984375 1.640625 -6.515625 1.640625q-5.671875 0 -9.15625 -3.625q-3.484375 -3.640625 -3.484375 -10.46875zm4.6875 0q0 5.1875 2.25 7.765625q2.265625 2.5625 5.703125 2.5625q3.40625 0 5.65625 -2.578125q2.265625 -2.59375 2.265625 -7.90625q0 -5.0 -2.28125 -7.578125q-2.265625 -2.578125 -5.640625 -2.578125q-3.4375 0 -5.703125 2.578125q-2.25 2.5625 -2.25 7.734375zm25.873047 13.484375l0 -26.96875l4.109375 0l0 4.09375q1.578125 -2.875 2.90625 -3.78125q1.34375 -0.921875 2.9375 -0.921875q2.3125 0 4.703125 1.46875l-1.578125 4.25q-1.671875 -1.0 -3.34375 -1.0q-1.5 0 -2.703125 0.90625q-1.1875 0.90625 -1.703125 2.5q-0.75 2.4375 -0.75 5.328125l0 14.125l-4.578125 0zm31.810547 0l0 -26.96875l4.125 0l0 3.84375q2.96875 -4.453125 8.578125 -4.453125q2.4375 0 4.484375 0.875q2.046875 0.875 3.0625 2.296875q1.015625 1.421875 1.421875 3.375q0.25 1.28125 0.25 4.453125l0 16.578125l-4.578125 0l0 -16.40625q0 -2.796875 -0.53125 -4.171875q-0.53125 -1.390625 -1.890625 -2.203125q-1.359375 -0.828125 -3.1875 -0.828125q-2.921875 0 -5.046875 1.859375q-2.109375 1.84375 -2.109375 7.015625l0 14.734375l-4.578125 0zm47.38867 -8.6875l4.71875 0.59375q-1.109375 4.125 -4.140625 6.421875q-3.015625 2.28125 -7.71875 2.28125q-5.90625 0 -9.375 -3.640625q-3.46875 -3.640625 -3.46875 -10.21875q0 -6.8125 3.5 -10.5625q3.5 -3.765625 9.09375 -3.765625q5.40625 0 8.828125 3.6875q3.4375 3.671875 3.4375 10.359375q0 0.40625 -0.03125 1.21875l-20.109375 0q0.25 4.4375 2.515625 6.796875q2.265625 2.359375 5.640625 2.359375q2.515625 0 4.28125 -1.3125q1.78125 -1.328125 2.828125 -4.21875zm-15.015625 -7.390625l15.0625 0q-0.296875 -3.390625 -1.71875 -5.09375q-2.1875 -2.640625 -5.671875 -2.640625q-3.140625 0 -5.296875 2.109375q-2.140625 2.09375 -2.375 5.625zm23.638672 8.03125l4.53125 -0.71875q0.375 2.71875 2.109375 4.171875q1.75 1.4375 4.875 1.4375q3.140625 0 4.65625 -1.28125q1.53125 -1.28125 1.53125 -3.0q0 -1.546875 -1.34375 -2.4375q-0.9375 -0.609375 -4.671875 -1.546875q-5.03125 -1.28125 -6.96875 -2.203125q-1.9375 -0.921875 -2.953125 -2.5625q-1.0 -1.640625 -1.0 -3.625q0 -1.796875 0.828125 -3.328125q0.828125 -1.546875 2.25 -2.5625q1.0625 -0.78125 2.90625 -1.328125q1.84375 -0.546875 3.953125 -0.546875q3.171875 0 5.5625 0.921875q2.4062347 0.90625 3.5468597 2.46875q1.140625 1.5625 1.578125 4.171875l-4.4687347 0.609375q-0.3125 -2.078125 -1.78125 -3.234375q-1.453125 -1.171875 -4.109375 -1.171875q-3.15625 0 -4.5 1.046875q-1.34375 1.03125 -1.34375 2.421875q0 0.890625 0.5625 1.609375q0.546875 0.734375 1.75 1.21875q0.6875 0.25 4.03125 1.15625q4.859375 1.296875 6.7656097 2.125q1.921875 0.828125 3.015625 2.40625q1.09375 1.5625 1.09375 3.90625q0 2.28125 -1.34375 4.3125q-1.328125 2.015625 -3.8437347 3.125q-2.515625 1.09375 -5.6875 1.09375q-5.25 0 -8.015625 -2.1875q-2.75 -2.1875 -3.515625 -6.46875zm37.812485 3.953125l0.65625 4.046875q-1.921875 0.40625 -3.453125 0.40625q-2.484375 0 -3.859375 -0.78125q-1.359375 -0.796875 -1.921875 -2.078125q-0.5625 -1.28125 -0.5625 -5.390625l0 -15.515625l-3.34375 0l0 -3.5625l3.34375 0l0 -6.671875l4.546875 -2.75l0 9.421875l4.59375 0l0 3.5625l-4.59375 0l0 15.765625q0 1.953125 0.234375 2.515625q0.25 0.546875 0.796875 0.890625q0.546875 0.328125 1.5625 0.328125q0.75 0 2.0 -0.1875zm22.93164 -4.59375l4.71875 0.59375q-1.109375 4.125 -4.140625 6.421875q-3.015625 2.28125 -7.71875 2.28125q-5.90625 0 -9.375 -3.640625q-3.46875 -3.640625 -3.46875 -10.21875q0 -6.8125 3.5 -10.5625q3.5 -3.765625 9.09375 -3.765625q5.40625 0 8.828125 3.6875q3.4375 3.671875 3.4375 10.359375q0 0.40625 -0.03125 1.21875l-20.109375 0q0.25 4.4375 2.515625 6.796875q2.265625 2.359375 5.640625 2.359375q2.515625 0 4.28125 -1.3125q1.78125 -1.328125 2.828125 -4.21875zm-15.015625 -7.390625l15.0625 0q-0.296875 -3.390625 -1.71875 -5.09375q-2.1875 -2.640625 -5.671875 -2.640625q-3.140625 0 -5.296875 2.109375q-2.140625 2.09375 -2.375 5.625zm42.966797 16.078125l0 -3.40625q-2.5625 4.015625 -7.546875 4.015625q-3.21875 0 -5.921875 -1.78125q-2.703125 -1.78125 -4.1875 -4.953125q-1.484375 -3.1875 -1.484375 -7.328125q0 -4.046875 1.34375 -7.328125q1.34375 -3.296875 4.03125 -5.046875q2.703125 -1.75 6.015625 -1.75q2.4375 0 4.34375 1.03125q1.90625 1.03125 3.109375 2.671875l0 -13.34375l4.53125 0l0 37.21875l-4.234375 0zm-14.453125 -13.453125q0 5.171875 2.1875 7.734375q2.1875 2.5625 5.15625 2.5625q3.0 0 5.09375 -2.4375q2.09375 -2.453125 2.09375 -7.484375q0 -5.53125 -2.140625 -8.125q-2.125 -2.59375 -5.25 -2.59375q-3.046875 0 -5.09375 2.5q-2.046875 2.484375 -2.046875 7.84375zm57.929688 3.578125l4.484375 0.578125q-0.734375 4.65625 -3.765625 7.28125q-3.03125 2.625 -7.453125 2.625q-5.53125 0 -8.90625 -3.609375q-3.359375 -3.625 -3.359375 -10.375q0 -4.375 1.4375 -7.640625q1.453125 -3.28125 4.40625 -4.921875q2.96875 -1.640625 6.453125 -1.640625q4.390625 0 7.171875 2.234375q2.796875 2.21875 3.59375 6.296875l-4.453125 0.6875q-0.625 -2.71875 -2.25 -4.078125q-1.609375 -1.375 -3.890625 -1.375q-3.453125 0 -5.609375 2.484375q-2.15625 2.46875 -2.15625 7.8125q0 5.4375 2.078125 7.90625q2.078125 2.453125 5.4375 2.453125q2.6875 0 4.484375 -1.640625q1.8125 -1.65625 2.296875 -5.078125zm8.390625 9.875l0 -37.21875l4.578125 0l0 13.34375q3.203125 -3.703125 8.078125 -3.703125q2.984375 0 5.1875 1.1875q2.21875 1.171875 3.171875 3.265625q0.953125 2.078125 0.953125 6.03125l0 17.09375l-4.5625 0l0 -17.09375q0 -3.421875 -1.5 -4.984375q-1.484375 -1.5625 -4.1875 -1.5625q-2.03125 0 -3.828125 1.0625q-1.796875 1.046875 -2.5625 2.859375q-0.75 1.796875 -0.75 4.96875l0 14.75l-4.578125 0zm28.951172 -31.96875l0 -5.25l4.578125 0l0 5.25l-4.578125 0zm0 31.96875l0 -26.96875l4.578125 0l0 26.96875l-4.578125 0zm11.427734 0l0 -37.21875l4.5625 0l0 37.21875l-4.5625 0zm29.146484 0l0 -3.40625q-2.5625 4.015625 -7.546875 4.015625q-3.21875 0 -5.921875 -1.78125q-2.703125 -1.78125 -4.1875 -4.953125q-1.484375 -3.1875 -1.484375 -7.328125q0 -4.046875 1.34375 -7.328125q1.34375 -3.296875 4.03125 -5.046875q2.703125 -1.75 6.015625 -1.75q2.4375 0 4.34375 1.03125q1.90625 1.03125 3.109375 2.671875l0 -13.34375l4.53125 0l0 37.21875l-4.234375 0zm-14.453125 -13.453125q0 5.171875 2.1875 7.734375q2.1875 2.5625 5.15625 2.5625q3.0 0 5.09375 -2.4375q2.09375 -2.453125 2.09375 -7.484375q0 -5.53125 -2.140625 -8.125q-2.125 -2.59375 -5.25 -2.59375q-3.046875 0 -5.09375 2.5q-2.046875 2.484375 -2.046875 7.84375zm58.789062 4.765625l4.71875 0.59375q-1.109375 4.125 -4.140625 6.421875q-3.015625 2.28125 -7.71875 2.28125q-5.90625 0 -9.375 -3.640625q-3.46875 -3.640625 -3.46875 -10.21875q0 -6.8125 3.5 -10.5625q3.5 -3.765625 9.09375 -3.765625q5.40625 0 8.828125 3.6875q3.4375 3.671875 3.4375 10.359375q0 0.40625 -0.03125 1.21875l-20.109375 0q0.25 4.4375 2.515625 6.796875q2.265625 2.359375 5.640625 2.359375q2.515625 0 4.28125 -1.3125q1.78125 -1.328125 2.828125 -4.21875zm-15.015625 -7.390625l15.0625 0q-0.296875 -3.390625 -1.71875 -5.09375q-2.1875 -2.640625 -5.671875 -2.640625q-3.140625 0 -5.296875 2.109375q-2.140625 2.09375 -2.375 5.625zm25.373047 16.078125l0 -37.21875l4.5625 0l0 37.21875l-4.5625 0zm30.115265 -8.6875l4.71875 0.59375q-1.109375 4.125 -4.140625 6.421875q-3.015625 2.28125 -7.71875 2.28125q-5.90625 0 -9.375 -3.640625q-3.46875 -3.640625 -3.46875 -10.21875q0 -6.8125 3.5 -10.5625q3.5 -3.765625 9.09375 -3.765625q5.40625 0 8.828125 3.6875q3.4375 3.671875 3.4375 10.359375q0 0.40625 -0.03125 1.21875l-20.109375 0q0.25 4.4375 2.515625 6.796875q2.265625 2.359375 5.640625 2.359375q2.515625 0 4.28125 -1.3125q1.78125 -1.328125 2.828125 -4.21875zm-15.015625 -7.390625l15.0625 0q-0.296875 -3.390625 -1.71875 -5.09375q-2.1875 -2.640625 -5.671875 -2.640625q-3.140625 0 -5.296875 2.109375q-2.140625 2.09375 -2.375 5.625zm25.466797 16.078125l0 -26.96875l4.09375 0l0 3.78125q1.265625 -1.96875 3.375 -3.171875q2.109375 -1.21875 4.796875 -1.21875q3.0 0 4.90625 1.25q1.921875 1.234375 2.71875 3.46875q3.203125 -4.71875 8.328125 -4.71875q4.015625 0 6.171875 2.234375q2.15625 2.21875 2.15625 6.828125l0 18.515625l-4.546875 0l0 -16.984375q0 -2.75 -0.453125 -3.953125q-0.4375 -1.203125 -1.609375 -1.9375q-1.15625 -0.734375 -2.734375 -0.734375q-2.84375 0 -4.734375 1.890625q-1.875 1.890625 -1.875 6.046875l0 15.671875l-4.5625 0l0 -17.515625q0 -3.046875 -1.125 -4.5625q-1.109375 -1.53125 -3.65625 -1.53125q-1.921875 0 -3.5625 1.015625q-1.640625 1.015625 -2.375 2.96875q-0.734375 1.953125 -0.734375 5.640625l0 13.984375l-4.578125 0zm61.785156 -8.6875l4.71875 0.59375q-1.109375 4.125 -4.140625 6.421875q-3.015625 2.28125 -7.71875 2.28125q-5.90625 0 -9.375 -3.640625q-3.46875 -3.640625 -3.46875 -10.21875q0 -6.8125 3.5 -10.5625q3.5 -3.765625 9.09375 -3.765625q5.40625 0 8.828125 3.6875q3.4375 3.671875 3.4375 10.359375q0 0.40625 -0.03125 1.21875l-20.109375 0q0.25 4.4375 2.515625 6.796875q2.265625 2.359375 5.640625 2.359375q2.515625 0 4.28125 -1.3125q1.78125 -1.328125 2.828125 -4.21875zm-15.015625 -7.390625l15.0625 0q-0.296875 -3.390625 -1.71875 -5.09375q-2.1875 -2.640625 -5.671875 -2.640625q-3.140625 0 -5.296875 2.109375q-2.140625 2.09375 -2.375 5.625zm25.466797 16.078125l0 -26.96875l4.125 0l0 3.84375q2.96875 -4.453125 8.578125 -4.453125q2.4375 0 4.484375 0.875q2.046875 0.875 3.0625 2.296875q1.015625 1.421875 1.421875 3.375q0.25 1.28125 0.25 4.453125l0 16.578125l-4.578125 0l0 -16.40625q0 -2.796875 -0.53125 -4.171875q-0.53125 -1.390625 -1.890625 -2.203125q-1.359375 -0.828125 -3.1875 -0.828125q-2.921875 0 -5.046875 1.859375q-2.109375 1.84375 -2.109375 7.015625l0 14.734375l-4.578125 0zm38.904297 -4.09375l0.65625 4.046875q-1.921875 0.40625 -3.453125 0.40625q-2.484375 0 -3.859375 -0.78125q-1.359375 -0.796875 -1.921875 -2.078125q-0.5625 -1.28125 -0.5625 -5.390625l0 -15.515625l-3.34375 0l0 -3.5625l3.34375 0l0 -6.671875l4.546875 -2.75l0 9.421875l4.59375 0l0 3.5625l-4.59375 0l0 15.765625q0 1.953125 0.234375 2.515625q0.25 0.546875 0.796875 0.890625q0.546875 0.328125 1.5625 0.328125q0.75 0 2.0 -0.1875zm2.6347656 -3.953125l4.53125 -0.71875q0.375 2.71875 2.109375 4.171875q1.75 1.4375 4.875 1.4375q3.140625 0 4.65625 -1.28125q1.53125 -1.28125 1.53125 -3.0q0 -1.546875 -1.34375 -2.4375q-0.9375 -0.609375 -4.671875 -1.546875q-5.03125 -1.28125 -6.96875 -2.203125q-1.9375 -0.921875 -2.953125 -2.5625q-1.0 -1.640625 -1.0 -3.625q0 -1.796875 0.828125 -3.328125q0.828125 -1.546875 2.25 -2.5625q1.0625 -0.78125 2.90625 -1.328125q1.84375 -0.546875 3.953125 -0.546875q3.171875 0 5.5625 0.921875q2.40625 0.90625 3.546875 2.46875q1.140625 1.5625 1.578125 4.171875l-4.46875 0.609375q-0.3125 -2.078125 -1.78125 -3.234375q-1.453125 -1.171875 -4.109375 -1.171875q-3.15625 0 -4.5 1.046875q-1.34375 1.03125 -1.34375 2.421875q0 0.890625 0.5625 1.609375q0.546875 0.734375 1.75 1.21875q0.6875 0.25 4.03125 1.15625q4.859375 1.296875 6.765625 2.125q1.921875 0.828125 3.015625 2.40625q1.09375 1.5625 1.09375 3.90625q0 2.28125 -1.34375 4.3125q-1.328125 2.015625 -3.84375 3.125q-2.515625 1.09375 -5.6875 1.09375q-5.25 0 -8.015625 -2.1875q-2.75 -2.1875 -3.515625 -6.46875zm29.125 8.046875l0 -5.203125l5.203125 0l0 5.203125l-5.203125 0z" fill-rule="nonzero"/><path fill="#1155cc" d="m202.13757 432.4682l-17.608994 59.838135l6.007782 0l17.56755 -59.838135z" fill-rule="evenodd"/><path fill="#1155cc" d="m234.4138 448.45398c-6.1044464 0 -10.7725525 2.3024902 -14.004318 6.90744l0 -5.960144l-6.7121277 0l0 41.918274l7.4579163 0l0 -22.893219c0 -5.368042 1.1509247 -9.012543 3.4527435 -10.933472c2.3110352 -1.920929 5.0548096 -2.8813782 8.2313385 -2.8813782c1.9887848 0 3.719757 0.42977905 5.192917 1.2893677c1.4823761 0.8508301 2.5135956 1.9954834 3.0936584 3.4339905c0.58006287 1.429718 0.8701019 3.591858 0.8701019 6.4864197l0 25.498291l7.4579163 0l0 -25.774597c0 -3.2892456 -0.1381073 -5.591736 -0.4143219 -6.90744c-0.44195557 -2.026184 -1.2153778 -3.776062 -2.3202515 -5.249634c-1.1048737 -1.4736023 -2.7713928 -2.6621094 -4.9995728 -3.5655518c-2.2189636 -0.91223145 -4.654297 -1.3683472 -7.3059998 -1.3683472z" fill-rule="evenodd"/><path fill="#1155cc" d="m278.747 454.33517c3.6737366 0 6.7443542 1.337616 9.211914 4.0128784c2.4767761 2.666504 3.715149 6.591675 3.715149 11.775543c0 5.499634 -1.2291565 9.591461 -3.6875305 12.275513c-2.4583435 2.684021 -5.5381775 4.0260315 -9.239532 4.0260315c-3.7289429 0 -6.8226013 -1.3332214 -9.280975 -3.9997253c-2.4583435 -2.6752625 -3.6875305 -6.69693 -3.6875305 -12.065002c0 -5.368042 1.229187 -9.380951 3.6875305 -12.038666c2.458374 -2.6577148 5.5520325 -3.9865723 9.280975 -3.9865723zm0 -5.881195c-5.4415283 0 -10.054382 1.5525208 -13.838593 4.657593c-4.529999 3.7366028 -6.794983 9.486206 -6.794983 17.24884c0 7.078491 1.896698 12.499176 5.6901245 16.262085c3.8026123 3.762909 8.783752 5.6443787 14.943451 5.6443787c3.839447 0 7.379669 -0.8552246 10.620636 -2.5656128c3.250183 -1.7104187 5.722351 -4.1094055 7.416504 -7.1968994c1.7033386 -3.096283 2.5550232 -7.341614 2.5550232 -12.735992c0 -6.6574707 -1.9197388 -11.87204 -5.759186 -15.643707c-3.839447 -3.7804565 -8.783752 -5.670685 -14.832977 -5.670685z" fill-rule="evenodd"/><path fill="#1155cc" d="m316.8653 434.75754l-7.416504 4.262848l0 10.38089l-5.4691467 0l0 5.5259705l5.4691467 0l0 24.116821c0 4.2628784 0.30386353 7.060913 0.91152954 8.394165c0.60769653 1.3244934 1.6573181 2.3945923 3.1488953 3.2103271c1.4916077 0.81573486 3.5908508 1.2236023 6.297821 1.2236023c1.6573181 0 3.535614 -0.21051025 5.634857 -0.63153076l-1.07724 -6.2759094c-1.3534851 0.1842041 -2.4445496 0.27630615 -3.2731934 0.27630615c-1.1048889 0 -1.9565735 -0.17105103 -2.5550537 -0.51312256c-0.5892639 -0.34210205 -1.017395 -0.8025818 -1.2843933 -1.3815002c-0.2578125 -0.57891846 -0.38671875 -1.8814392 -0.38671875 -3.9076233l0 -24.511536l7.499359 0l0 -5.5259705l-7.499359 0l0 -14.643738z" fill-rule="evenodd"/><path fill="#1155cc" d="m349.80444 454.29572c3.7842102 0 6.8640747 1.3683167 9.239563 4.1049805c1.546814 1.763031 2.485962 4.407593 2.8174133 7.9336853l-24.569702 0c0.24859619 -3.6576538 1.5376282 -6.5785217 3.8670654 -8.762573c2.3386536 -2.184082 5.2205505 -3.2760925 8.64566 -3.2760925zm-0.082855225 -5.841736c-6.0768127 0 -11.021149 1.9472351 -14.832977 5.841736c-3.8118286 3.8944702 -5.717743 9.367798 -5.717743 16.419952c0 6.815338 1.882904 12.11322 5.6486816 15.893677c3.774994 3.7716675 8.880463 5.6575317 15.316376 5.6575317c5.1100464 0 9.308594 -1.1841431 12.595581 -3.5523987c3.2870178 -2.3682556 5.538208 -5.696991 6.7535706 -9.986176l-7.7065125 -0.9078369c-1.1325073 2.9997864 -2.6655273 5.1838684 -4.59906 6.552185c-1.9335327 1.3683472 -4.267578 2.0524902 -7.0021667 2.0524902c-3.673706 0 -6.739746 -1.2236023 -9.19809 -3.670807c-2.4583435 -2.4472046 -3.825653 -5.9732666 -4.1018677 -10.578247l32.81488 0c0.027618408 -0.842041 0.041412354 -1.4735718 0.041412354 -1.8945923c0 -6.9205933 -1.8644714 -12.288666 -5.593445 -16.104218c-3.7289429 -3.8155212 -8.535156 -5.723297 -14.41864 -5.723297z" fill-rule="evenodd"/><path fill="#e69138" d="m166.90822 438.9629l-58.18212 22.010925l0 9.019104l58.18212 22.279358l0 -9.60965l-46.138245 -17.12558l46.138245 -16.964508l0 -9.60965z" fill-rule="evenodd"/><path fill="#e69138" d="m383.76025 438.9629l0 9.60965l46.07834 16.964508l-46.07834 17.12558l0 9.60965l58.18213 -22.279358l0 -9.019104l-58.18213 -22.010925z" fill-rule="evenodd"/><path fill="#000000" fill-opacity="0.0" d="m108.727036 498.47507l0 26.600677l270.06824 0l0 -23.799469" fill-rule="evenodd"/><path stroke="#ff0000" stroke-width="2.0" stroke-linejoin="round" stroke-linecap="butt" d="m108.727036 498.47507l0 26.600677l270.06824 0l0 -23.799469" fill-rule="evenodd"/><path fill="#000000" fill-opacity="0.0" d="m147.8397 531.2651l258.6142 0l0 39.905518l-258.6142 0z" fill-rule="evenodd"/><path fill="#000000" d="m212.93488 559.7701l3.921875 1.25q-0.890625 3.28125 -3.0 4.875q-2.09375 1.59375 -5.328125 1.59375q-3.984375 0 -6.5625 -2.71875q-2.5625 -2.734375 -2.5625 -7.46875q0 -5.0 2.578125 -7.765625q2.59375 -2.78125 6.796875 -2.78125q3.6875 0 5.984375 2.171875q1.359375 1.296875 2.046875 3.703125l-4.015625 0.953125q-0.34375 -1.5625 -1.484375 -2.453125q-1.125 -0.90625 -2.734375 -0.90625q-2.234375 0 -3.625 1.59375q-1.375 1.59375 -1.375 5.1875q0 3.796875 1.359375 5.40625q1.375 1.609375 3.5625 1.609375q1.609375 0 2.765625 -1.015625q1.171875 -1.03125 1.671875 -3.234375zm7.376953 7.375l0 -20.046875l3.84375 0l0 20.046875l-3.84375 0zm6.888672 -7.46875q0 -1.90625 0.9375 -3.703125q0.953125 -1.796875 2.671875 -2.734375q1.734375 -0.9375 3.859375 -0.9375q3.296875 0 5.40625 2.140625q2.109375 2.140625 2.109375 5.40625q0 3.296875 -2.125 5.46875q-2.125 2.15625 -5.359375 2.15625q-2.0 0 -3.8125 -0.90625q-1.796875 -0.90625 -2.75 -2.640625q-0.9375 -1.75 -0.9375 -4.25zm3.9375 0.203125q0 2.171875 1.015625 3.328125q1.03125 1.140625 2.53125 1.140625q1.515625 0 2.53125 -1.140625q1.015625 -1.15625 1.015625 -3.34375q0 -2.140625 -1.015625 -3.28125q-1.015625 -1.15625 -2.53125 -1.15625q-1.5 0 -2.53125 1.15625q-1.015625 1.140625 -1.015625 3.296875zm12.697266 3.125l3.859375 -0.59375q0.25 1.125 1.0 1.703125q0.75 0.578125 2.09375 0.578125q1.5 0 2.25 -0.546875q0.5 -0.375 0.5 -1.015625q0 -0.4375 -0.265625 -0.734375q-0.296875 -0.265625 -1.28125 -0.5q-4.65625 -1.03125 -5.90625 -1.875q-1.71875 -1.171875 -1.71875 -3.265625q0 -1.890625 1.484375 -3.171875q1.5 -1.28125 4.625 -1.28125q2.984375 0 4.4375 0.96875q1.453125 0.96875 2.0 2.875l-3.625 0.65625q-0.234375 -0.84375 -0.890625 -1.296875q-0.640625 -0.453125 -1.84375 -0.453125q-1.515625 0 -2.171875 0.4375q-0.4375 0.296875 -0.4375 0.765625q0 0.421875 0.375 0.703125q0.515625 0.390625 3.578125 1.09375q3.078125 0.6875 4.296875 1.703125q1.203125 1.015625 1.203125 2.84375q0 2.0 -1.671875 3.4375q-1.65625 1.4375 -4.9375 1.4375q-2.953125 0 -4.6875 -1.203125q-1.734375 -1.203125 -2.265625 -3.265625zm16.93164 -12.34375l0 -3.5625l3.84375 0l0 3.5625l-3.84375 0zm0 16.484375l0 -14.515625l3.84375 0l0 14.515625l-3.84375 0zm20.982422 0l-3.84375 0l0 -7.40625q0 -2.359375 -0.25 -3.046875q-0.234375 -0.6875 -0.796875 -1.0625q-0.546875 -0.390625 -1.328125 -0.390625q-1.0 0 -1.796875 0.546875q-0.796875 0.546875 -1.09375 1.453125q-0.28125 0.890625 -0.28125 3.328125l0 6.578125l-3.84375 0l0 -14.515625l3.5625 0l0 2.125q1.90625 -2.453125 4.796875 -2.453125q1.265625 0 2.3125 0.453125q1.0625 0.453125 1.59375 1.171875q0.546875 0.703125 0.75 1.609375q0.21875 0.90625 0.21875 2.578125l0 9.03125zm3.5410156 0.953125l4.390625 0.53125q0.109375 0.765625 0.5 1.0625q0.546875 0.40625 1.71875 0.40625q1.515625 0 2.265625 -0.453125q0.5 -0.296875 0.765625 -0.96875q0.171875 -0.484375 0.171875 -1.765625l0 -2.125q-1.71875 2.359375 -4.34375 2.359375q-2.921875 0 -4.640625 -2.46875q-1.328125 -1.96875 -1.328125 -4.875q0 -3.65625 1.75 -5.578125q1.75 -1.921875 4.375 -1.921875q2.6875 0 4.4375 2.359375l0 -2.03125l3.59375 0l0 13.03125q0 2.5625 -0.421875 3.828125q-0.421875 1.28125 -1.1875 2.0q-0.765625 0.734375 -2.046875 1.140625q-1.28125 0.40625 -3.234375 0.40625q-3.6875 0 -5.234375 -1.265625q-1.546875 -1.265625 -1.546875 -3.203125q0 -0.1875 0.015625 -0.46875zm3.4375 -8.515625q0 2.3125 0.890625 3.390625q0.890625 1.0625 2.203125 1.0625q1.40625 0 2.375 -1.09375q0.984375 -1.109375 0.984375 -3.265625q0 -2.25 -0.9375 -3.34375q-0.921875 -1.09375 -2.34375 -1.09375q-1.390625 0 -2.28125 1.078125q-0.890625 1.0625 -0.890625 3.265625zm26.335938 7.5625l0 -16.65625l-5.9375 0l0 -3.390625l15.921875 0l0 3.390625l-5.9375 0l0 16.65625l-4.046875 0zm13.353516 -10.09375l-3.484375 -0.625q0.59375 -2.109375 2.03125 -3.109375q1.4375 -1.015625 4.265625 -1.015625q2.5625 0 3.8125 0.609375q1.265625 0.609375 1.78125 1.546875q0.515625 0.921875 0.515625 3.4375l-0.046875 4.484375q0 1.90625 0.1875 2.8125q0.1875 0.90625 0.6875 1.953125l-3.796875 0q-0.15625 -0.390625 -0.375 -1.140625q-0.09375 -0.34375 -0.125 -0.453125q-0.984375 0.96875 -2.109375 1.453125q-1.125 0.46875 -2.390625 0.46875q-2.25 0 -3.546875 -1.21875q-1.28125 -1.21875 -1.28125 -3.078125q0 -1.234375 0.578125 -2.1875q0.59375 -0.96875 1.65625 -1.484375q1.0625 -0.515625 3.0625 -0.890625q2.6875 -0.5 3.71875 -0.9375l0 -0.390625q0 -1.109375 -0.546875 -1.578125q-0.546875 -0.46875 -2.0625 -0.46875q-1.015625 0 -1.59375 0.40625q-0.578125 0.390625 -0.9375 1.40625zm5.140625 3.125q-0.734375 0.234375 -2.34375 0.578125q-1.59375 0.34375 -2.078125 0.671875q-0.75 0.53125 -0.75 1.359375q0 0.796875 0.59375 1.390625q0.609375 0.59375 1.53125 0.59375q1.046875 0 1.984375 -0.6875q0.703125 -0.515625 0.921875 -1.265625q0.140625 -0.5 0.140625 -1.875l0 -0.765625zm7.2128906 7.921875l4.390625 0.53125q0.109375 0.765625 0.5 1.0625q0.546875 0.40625 1.71875 0.40625q1.515625 0 2.265625 -0.453125q0.5 -0.296875 0.765625 -0.96875q0.171875 -0.484375 0.171875 -1.765625l0 -2.125q-1.71875 2.359375 -4.34375 2.359375q-2.921875 0 -4.640625 -2.46875q-1.328125 -1.96875 -1.328125 -4.875q0 -3.65625 1.75 -5.578125q1.75 -1.921875 4.375 -1.921875q2.6875 0 4.4375 2.359375l0 -2.03125l3.59375 0l0 13.03125q0 2.5625 -0.421875 3.828125q-0.421875 1.28125 -1.1875 2.0q-0.765625 0.734375 -2.046875 1.140625q-1.28125 0.40625 -3.234375 0.40625q-3.6875 0 -5.234375 -1.265625q-1.546875 -1.265625 -1.546875 -3.203125q0 -0.1875 0.015625 -0.46875zm3.4375 -8.515625q0 2.3125 0.890625 3.390625q0.890625 1.0625 2.203125 1.0625q1.40625 0 2.375 -1.09375q0.984375 -1.109375 0.984375 -3.265625q0 -2.25 -0.9375 -3.34375q-0.921875 -1.09375 -2.34375 -1.09375q-1.390625 0 -2.28125 1.078125q-0.890625 1.0625 -0.890625 3.265625z" fill-rule="nonzero"/><path fill="#666666" d="m18.892519 396.99197c0 -2.1021423 0.64744186 -3.8130188 1.9423237 -5.1326294c0.8342037 -0.8592529 2.0855064 -1.3809814 3.753912 -1.565094l0 13.648621c-1.7306595 -0.13809204 -3.1126957 -0.8541565 -4.1461124 -2.1481628c-1.0334148 -1.2991333 -1.5501232 -2.900055 -1.5501232 -4.8027344zm-2.7640743 0.046020508c0 3.3757324 0.9213581 6.122345 2.7640743 8.239838c1.8427181 2.1174927 4.432482 3.176239 7.769293 3.176239c3.2247543 0 5.73151 -1.0459595 7.520275 -3.1378784c1.7846107 -2.097046 2.676918 -4.9331665 2.676918 -8.508362c0 -2.8386536 -0.56028366 -5.1709595 -1.6808548 -6.9969177c-1.1205711 -1.8259583 -2.6955948 -3.0765076 -4.725075 -3.751648l-0.42955208 4.281006c1.4193897 0.6291199 2.4528065 1.4807129 3.1002483 2.5548096c0.64743805 1.0740967 0.9711609 2.3706665 0.9711609 3.88974c0 2.0407715 -0.57896423 3.743988 -1.7368851 5.109619c-1.1579247 1.3656311 -2.8263302 2.1251526 -5.0052166 2.278595l0 -18.228851c-0.39842606 -0.015350342 -0.69724464 -0.023010254 -0.8964577 -0.023010254c-3.274557 0 -5.814518 1.0357056 -7.6198826 3.1071777c-1.8053627 2.0714722 -2.708046 4.7413635 -2.708046 8.009644z" fill-rule="evenodd"/><path fill="#666666" d="m9.031496 380.94965l27.379282 0l0 -4.142914l-27.379282 0z" fill-rule="evenodd"/><path fill="#666666" d="m18.892519 360.30408c0 -2.1021423 0.64744186 -3.8130188 1.9423237 -5.1326294c0.8342037 -0.8592529 2.0855064 -1.3809814 3.753912 -1.565094l0 13.648621c-1.7306595 -0.13809204 -3.1126957 -0.8541565 -4.1461124 -2.1481628c-1.0334148 -1.2991638 -1.5501232 -2.900055 -1.5501232 -4.8027344zm-2.7640743 0.046020508c0 3.3757324 0.9213581 6.122345 2.7640743 8.239838c1.8427181 2.1174927 4.432482 3.176239 7.769293 3.176239c3.2247543 0 5.73151 -1.0459595 7.520275 -3.1378784c1.7846107 -2.097046 2.676918 -4.9331665 2.676918 -8.508362c0 -2.8386536 -0.56028366 -5.1709595 -1.6808548 -6.9969177c-1.1205711 -1.8259583 -2.6955948 -3.0765076 -4.725075 -3.751648l-0.42955208 4.281006c1.4193897 0.6291199 2.4528065 1.4807129 3.1002483 2.5548096c0.64743805 1.0740967 0.9711609 2.3706665 0.9711609 3.88974c0 2.0407715 -0.57896423 3.743988 -1.7368851 5.109619c-1.1579247 1.3656311 -2.8263302 2.1251526 -5.0052166 2.278595l0 -18.228851c-0.39842606 -0.015350342 -0.69724464 -0.023010254 -0.8964577 -0.023010254c-3.274557 0 -5.814518 1.0357056 -7.6198826 3.1071777c-1.8053627 2.0714722 -2.708046 4.7413635 -2.708046 8.009644z" fill-rule="evenodd"/><path fill="#666666" d="m16.128445 333.05286c0 1.6264648 0.2967453 3.076477 0.8902321 4.350067c0.5893364 1.2735596 1.369587 2.2939453 2.3407478 3.0611572l-2.782751 0l0 3.705597l19.834105 0l0 -4.142914l-10.290575 0c-1.8053646 0 -3.1874027 -0.22247314 -4.1461124 -0.66748047c-0.9587116 -0.4449768 -1.6870823 -1.1610413 -2.185114 -2.1481628c-0.49803162 -0.99227905 -0.7470474 -2.0714722 -0.7470474 -3.2376404c0 -1.5343933 0.3735237 -2.6391907 1.1205711 -3.314331c0.7470474 -0.6751404 1.8676186 -1.0126953 3.3617134 -1.0126953l12.886564 0l0 -4.1429443l-11.523205 0c-2.0419273 0 -3.5256462 -0.5677185 -4.4511566 -1.703186c-0.929657 -1.1354675 -1.3944874 -2.5625 -1.3944874 -4.2810364c0 -0.95132446 0.18053627 -1.7799072 0.5416088 -2.4857483c0.36107254 -0.70584106 0.8383541 -1.191742 1.4318409 -1.4577026c0.5893383 -0.27108765 1.5563488 -0.4066162 2.9010334 -0.4066162l12.494366 0l0 -4.1199036l-13.614937 0c-2.2660427 0 -3.942749 0.6521301 -5.030117 1.9563904c-1.0915184 1.3042297 -1.6372795 3.1685486 -1.6372795 5.592926c0 3.0995178 1.1579227 5.615967 3.4737701 7.549347c-1.0956688 0.47564697 -1.9485493 1.2940063 -2.5586376 2.4550476c-0.61008835 1.1559448 -0.9151325 2.6391907 -0.9151325 4.449829z" fill-rule="evenodd"/><path fill="#666666" d="m18.892519 294.82285c0 -2.1021423 0.64744186 -3.8130188 1.9423237 -5.132599c0.8342037 -0.85928345 2.0855064 -1.3809814 3.753912 -1.5651245l0 13.648651c-1.7306595 -0.13809204 -3.1126957 -0.8541565 -4.1461124 -2.1481934c-1.0334148 -1.2991333 -1.5501232 -2.900055 -1.5501232 -4.8027344zm-2.7640743 0.046051025c0 3.375702 0.9213581 6.1223145 2.7640743 8.239807c1.8427181 2.1174927 4.432482 3.176239 7.769293 3.176239c3.2247543 0 5.73151 -1.0459595 7.520275 -3.1378784c1.7846107 -2.097046 2.676918 -4.933136 2.676918 -8.508331c0 -2.838684 -0.56028366 -5.17099 -1.6808548 -6.9969482c-1.1205711 -1.8259583 -2.6955948 -3.0765076 -4.725075 -3.751648l-0.42955208 4.2810364c1.4193897 0.62908936 2.4528065 1.4807129 3.1002483 2.554779c0.64743805 1.0740967 0.9711609 2.370697 0.9711609 3.8897705c0 2.0407715 -0.57896423 3.7439575 -1.7368851 5.1095886c-1.1579247 1.3656311 -2.8263302 2.125183 -5.0052166 2.2786255l0 -18.228882c-0.39842606 -0.015350342 -0.69724464 -0.023010254 -0.8964577 -0.023010254c-3.274557 0 -5.814518 1.0357361 -7.6198826 3.1072083c-1.8053627 2.0714417 -2.708046 4.741333 -2.708046 8.009644z" fill-rule="evenodd"/><path fill="#666666" d="m16.128445 267.18036c0 3.3910522 1.0894451 5.9842224 3.2683315 7.77948l-2.8201027 0l0 3.7286377l19.834105 0l0 -4.1429443l-10.832186 0c-2.5399609 0 -4.2643948 -0.63931274 -5.1733017 -1.9179993c-0.90890694 -1.2838135 -1.3633614 -2.8079834 -1.3633614 -4.572571c0 -1.1047668 0.20336342 -2.0663452 0.61008835 -2.8847046c0.40257645 -0.8234558 0.94418526 -1.3963013 1.6248283 -1.7185364c0.6764927 -0.3222351 1.6995316 -0.4833374 3.0691185 -0.4833374l12.064814 0l0 -4.1429443l-12.195547 0c-1.5563469 0 -2.645792 0.07672119 -3.2683315 0.23016357c-0.9587097 0.24551392 -1.7866879 0.6751404 -2.4839325 1.2889099c-0.69724274 0.61376953 -1.2596035 1.5395508 -1.6870804 2.7773132c-0.43162727 1.2326355 -0.64744186 2.5854797 -0.64744186 4.0585327z" fill-rule="evenodd"/><path fill="#666666" d="m9.64781 247.59352l2.0170279 4.1199036l4.9118357 0l0 3.038147l2.614666 0l0 -3.038147l11.411146 0c2.0170288 0 3.3409615 -0.16877747 3.9718018 -0.50634766c0.6266899 -0.3375702 1.1330223 -0.9206543 1.5189972 -1.7492371c0.38597488 -0.82858276 0.5789604 -1.9947357 0.5789604 -3.4984741c0 -0.9206543 -0.09960556 -1.9640503 -0.2988205 -3.1302032l-2.969513 0.5984192c0.0871582 0.7518616 0.13073349 1.3579559 0.13073349 1.8182831c0 0.61376953 -0.0809288 1.0868835 -0.24279022 1.419342c-0.1618576 0.32733154 -0.3797493 0.5651703 -0.65366364 0.713501c-0.27391815 0.14320374 -0.8902321 0.21481323 -1.8489437 0.21481323l-11.597908 0l0 -4.1659393l-2.614666 0l0 4.1659393l-6.9288635 0z" fill-rule="evenodd"/><path fill="#666666" d="m1110.291 259.55853c0 -2.1021423 -0.4025879 -4.048294 -1.2077637 -5.83844c-0.8010254 -1.7850494 -2.0045166 -3.1148682 -3.6107178 -3.9894867c-1.6060791 -0.87461853 -3.4799805 -1.3119202 -5.62146 -1.3119202c-3.3120117 0 -5.856079 1.0152588 -7.632324 3.045807c-1.7722168 2.0356598 -2.6583252 4.725998 -2.6583252 8.07103c0 2.6698914 0.64331055 4.9203796 1.9299316 6.7514343c1.2906494 1.8361816 3.0753174 2.9767761 5.35376 3.421753l0.42956543 -4.073883c-1.6807861 -0.29153442 -2.9259033 -0.98202515 -3.7352295 -2.0714722c-0.8093262 -1.0894165 -1.2138672 -2.4473877 -1.2138672 -4.0738525c0 -2.0254517 0.60375977 -3.6672668 1.8115234 -4.9254913c1.2077637 -1.2582092 3.1437988 -1.8873291 5.8083496 -1.8873291c2.6270752 0 4.546509 0.6521301 5.758423 1.9563904c1.2160645 1.304245 1.8240967 2.999771 1.8240967 5.0865936c0 1.3809509 -0.33618164 2.5573425 -1.0085449 3.5291443c-0.6723633 0.9769287 -1.6746826 1.6571655 -3.006836 2.0407715l0.50427246 4.0278625c2.0045166 -0.4756775 3.550537 -1.5574341 4.6378174 -3.2453003c1.0915527 -1.6878662 1.6373291 -3.8590698 1.6373291 -6.513611z" fill-rule="evenodd"/><path fill="#666666" d="m1107.5083 283.17322c0 2.0407715 -0.6329346 3.746521 -1.8988037 5.117279c-1.2617188 1.3758545 -3.1188965 2.0637817 -5.5716553 2.0637817c-2.602295 0 -4.53833 -0.6828003 -5.8083496 -2.0484314c-1.2700195 -1.3656311 -1.9049072 -3.0765076 -1.9049072 -5.1326294c0 -2.0714722 0.6307373 -3.7900085 1.892456 -5.1556396c1.2658691 -1.3656311 3.1687012 -2.048462 5.70874 -2.048462c2.539917 0 4.4385986 0.6828308 5.696167 2.048462c1.2575684 1.3656311 1.8863525 3.0841675 1.8863525 5.1556396zm2.7827148 0c0 -3.0227966 -0.73461914 -5.5852966 -2.2037354 -7.687439c-1.7680664 -2.516449 -4.4885254 -3.7746582 -8.161499 -3.7746582c-3.3493652 0 -5.9141846 1.0536194 -7.69458 3.1608887c-1.7805176 2.1123962 -2.6707764 4.8794556 -2.6707764 8.3012085c0 2.132843 0.4046631 4.099457 1.2139893 5.899811c0.8093262 1.8055115 1.9443359 3.1788025 3.4052734 4.119934c1.4650879 0.9461975 3.473755 1.4193115 6.026245 1.4193115c3.1500244 0 5.6173096 -1.0664062 7.4019775 -3.1992493c1.7886963 -2.132843 2.6831055 -4.8794556 2.6831055 -8.239807z" fill-rule="evenodd"/><path fill="#666666" d="m1110.291 310.97684c0 -3.3910522 -1.0894775 -5.9842224 -3.2683105 -7.77948l2.8200684 0l0 -3.7286377l-19.834106 0l0 4.142914l10.832153 0c2.540039 0 4.2644043 0.63934326 5.17334 1.9180298c0.90893555 1.283783 1.3634033 2.8079834 1.3634033 4.5725403c0 1.1047974 -0.20336914 2.0663757 -0.6101074 2.8847046c-0.4025879 0.8234863 -0.94421387 1.3963318 -1.6248779 1.7185669c-0.6765137 0.3222351 -1.6994629 0.4833374 -3.0690918 0.4833374l-12.064819 0l0 4.142914l12.195557 0c1.5563965 0 2.645752 -0.07672119 3.2683105 -0.23016357c0.95874023 -0.2454834 1.7867432 -0.6751404 2.4840088 -1.2889099c0.69714355 -0.61376953 1.2595215 -1.5395203 1.6870117 -2.7772827c0.43164062 -1.2326355 0.64746094 -2.5854797 0.64746094 -4.0585327z" fill-rule="evenodd"/><path fill="#666666" d="m1116.7716 330.56366l-2.0169678 -4.1199036l-4.911865 0l0 -3.038147l-2.614624 0l0 3.038147l-11.411133 0c-2.0170898 0 -3.3409424 0.16879272 -3.9718018 0.50634766c-0.626709 0.33758545 -1.1330566 0.9206543 -1.519043 1.7492371c-0.38598633 0.82858276 -0.5789795 1.994751 -0.5789795 3.4984741c0 0.9206543 0.099609375 1.9640503 0.29882812 3.1302185l2.9694824 -0.5984192c-0.0871582 -0.7518616 -0.1307373 -1.3579712 -0.1307373 -1.8182983c0 -0.61376953 0.08093262 -1.0868835 0.24279785 -1.419342c0.16186523 -0.32733154 0.37976074 -0.565155 0.6536865 -0.713501c0.27392578 -0.143219 0.8902588 -0.21481323 1.848999 -0.21481323l11.5979 0l0 4.1659546l2.614624 0l0 -4.1659546l6.928833 0z" fill-rule="evenodd"/><path fill="#666666" d="m1107.527 348.86157c0 2.1021423 -0.64746094 3.8130188 -1.9423828 5.1326294c-0.8342285 0.85928345 -2.0854492 1.3809814 -3.7539062 1.565094l0 -13.648621c1.7307129 0.13809204 3.112671 0.8541565 4.146118 2.1481934c1.0334473 1.2991333 1.5501709 2.9000244 1.5501709 4.802704zm2.764038 -0.046020508c0 -3.3757324 -0.9213867 -6.1223145 -2.764038 -8.239838c-1.8427734 -2.1174927 -4.432495 -3.176239 -7.769287 -3.176239c-3.2248535 0 -5.7315674 1.0459595 -7.5202637 3.1378784c-1.784668 2.097046 -2.677002 4.9331665 -2.677002 8.508362c0 2.8386536 0.56030273 5.1709595 1.6809082 6.9969177c1.1206055 1.8259583 2.6955566 3.0765076 4.7250977 3.751648l0.42956543 -4.281006c-1.4194336 -0.6291199 -2.4528809 -1.4807129 -3.1003418 -2.5548096c-0.64746094 -1.0740967 -0.97106934 -2.3706665 -0.97106934 -3.88974c0 -2.0407715 0.5788574 -3.743988 1.7368164 -5.109619c1.157959 -1.3656311 2.826294 -2.1251526 5.005249 -2.278595l0 18.228851c0.3984375 0.015350342 0.6972656 0.023040771 0.8964844 0.023040771c3.2745361 0 5.814453 -1.0357361 7.619873 -3.1072083c1.8052979 -2.0714722 2.7080078 -4.741333 2.7080078 -8.009644z" fill-rule="evenodd"/><path fill="#666666" d="m1110.291 376.5041c0 -3.3910522 -1.0894775 -5.9842224 -3.2683105 -7.77948l2.8200684 0l0 -3.7286377l-19.834106 0l0 4.142914l10.832153 0c2.540039 0 4.2644043 0.63934326 5.17334 1.9180298c0.90893555 1.283783 1.3634033 2.8079834 1.3634033 4.572571c0 1.1047668 -0.20336914 2.0663452 -0.6101074 2.884674c-0.4025879 0.8234863 -0.94421387 1.3963318 -1.6248779 1.7185669c-0.6765137 0.3222351 -1.6994629 0.4833374 -3.0690918 0.4833374l-12.064819 0l0 4.142914l12.195557 0c1.5563965 0 2.645752 -0.07672119 3.2683105 -0.23016357c0.95874023 -0.2454834 1.7867432 -0.6751404 2.4840088 -1.2889099c0.69714355 -0.61376953 1.2595215 -1.5395203 1.6870117 -2.7772827c0.43164062 -1.2326355 0.64746094 -2.5854797 0.64746094 -4.0585327z" fill-rule="evenodd"/><path fill="#666666" d="m1116.7716 396.0909l-2.0169678 -4.1199036l-4.911865 0l0 -3.038147l-2.614624 0l0 3.038147l-11.411133 0c-2.0170898 0 -3.3409424 0.16879272 -3.9718018 0.50634766c-0.626709 0.33758545 -1.1330566 0.9206543 -1.519043 1.7492371c-0.38598633 0.82858276 -0.5789795 1.994751 -0.5789795 3.4984741c0 0.9206543 0.099609375 1.9640503 0.29882812 3.1302185l2.9694824 -0.5984192c-0.0871582 -0.7518616 -0.1307373 -1.3579712 -0.1307373 -1.8182983c0 -0.61376953 0.08093262 -1.0868835 0.24279785 -1.419342c0.16186523 -0.32733154 0.37976074 -0.565155 0.6536865 -0.713501c0.27392578 -0.143219 0.8902588 -0.21481323 1.848999 -0.21481323l11.5979 0l0 4.1659546l2.614624 0l0 -4.1659546l6.928833 0z" fill-rule="evenodd"/><path fill="#000000" fill-opacity="0.0" d="m78.31393 161.1916l-26.802116 0l0 328.88452l34.340553 0" fill-rule="evenodd"/><path stroke="#ff0000" stroke-width="3.0" stroke-linejoin="round" stroke-linecap="butt" d="m78.31393 161.1916l-26.802116 0l0 328.88452l34.340553 0" fill-rule="evenodd"/><path fill="#000000" fill-opacity="0.0" d="m1039.9528 248.81233l39.608887 0l0 159.64043l-37.20996 0" fill-rule="evenodd"/><path stroke="#ff0000" stroke-width="2.0" stroke-linejoin="round" stroke-linecap="butt" d="m1039.9528 248.81233l39.608887 0l0 159.64043l-37.20996 0" fill-rule="evenodd"/></g></svg>